<svg width="23" height="16" viewBox="0 0 23 16" fill="none" xmlns="http://www.w3.org/2000/svg">
  <path d="M22.1196 1.49406L8.11955 15.4941C8.03829 15.5754 7.94178 15.64 7.83556 15.684C7.72934 15.728 7.61548 15.7507 7.50049 15.7507C7.3855 15.7507 7.27164 15.728 7.16541 15.684C7.05919 15.64 6.96269 15.5754 6.88142 15.4941L0.756424 9.36906C0.592238 9.20488 0.5 8.98219 0.5 8.75C0.5 8.51781 0.592238 8.29512 0.756424 8.13094C0.92061 7.96675 1.14329 7.87451 1.37549 7.87451C1.60768 7.87451 1.83036 7.96675 1.99455 8.13094L7.50049 13.638L20.8814 0.255935C21.0456 0.0917497 21.2683 -0.000488283 21.5005 -0.000488281C21.7327 -0.00048828 21.9554 0.0917497 22.1196 0.255935C22.2837 0.420121 22.376 0.642805 22.376 0.874998C22.376 1.10719 22.2837 1.32988 22.1196 1.49406Z" fill="#5DA65B" />
</svg>