<svg width="48" height="48" viewBox="0 0 48 48" fill="none" xmlns="http://www.w3.org/2000/svg">
  <path d="M39.0918 35.9082C39.5145 36.3309 39.7519 36.9042 39.7519 37.502C39.7519 38.0997 39.5145 38.673 39.0918 39.0957C38.6691 39.5184 38.0958 39.7559 37.498 39.7559C36.9003 39.7559 36.327 39.5184 35.9043 39.0957L23.9999 27.1876L12.0918 39.092C11.6691 39.5147 11.0958 39.7521 10.498 39.7521C9.90027 39.7521 9.32698 39.5147 8.90429 39.092C8.4816 38.6693 8.24414 38.096 8.24414 37.4982C8.24414 36.9004 8.4816 36.3272 8.90429 35.9045L20.8124 24.0001L8.90804 12.092C8.48535 11.6693 8.24789 11.096 8.24789 10.4982C8.24789 9.90044 8.48535 9.32715 8.90804 8.90446C9.33073 8.48177 9.90402 8.24431 10.5018 8.24431C11.0996 8.24431 11.6729 8.48177 12.0955 8.90446L23.9999 20.8126L35.908 8.90258C36.3307 8.4799 36.904 8.24243 37.5018 8.24243C38.0996 8.24243 38.6729 8.4799 39.0955 8.90258C39.5182 9.32527 39.7557 9.89856 39.7557 10.4963C39.7557 11.0941 39.5182 11.6674 39.0955 12.0901L27.1874 24.0001L39.0918 35.9082Z" fill="#110300" />
</svg>