<svg width="32" height="32" viewBox="0 0 32 32" fill="none" xmlns="http://www.w3.org/2000/svg">
  <path d="M31.0918 27.9081C31.5145 28.3308 31.7519 28.9041 31.7519 29.5019C31.7519 30.0997 31.5145 30.673 31.0918 31.0956C30.6691 31.5183 30.0958 31.7558 29.498 31.7558C28.9003 31.7558 28.327 31.5183 27.9043 31.0956L15.9999 19.1875L4.09179 31.0919C3.6691 31.5146 3.09582 31.7521 2.49804 31.7521C1.90027 31.7521 1.32698 31.5146 0.904294 31.0919C0.481605 30.6692 0.244141 30.0959 0.244141 29.4981C0.244141 28.9004 0.481605 28.3271 0.904294 27.9044L12.8124 16L0.908043 4.0919C0.485354 3.66921 0.247891 3.09592 0.247891 2.49815C0.247891 1.90038 0.485354 1.32709 0.908043 0.904398C1.33073 0.48171 1.90402 0.244245 2.50179 0.244245C3.09957 0.244245 3.67286 0.48171 4.09554 0.904398L15.9999 12.8125L27.908 0.902523C28.3307 0.479834 28.904 0.242371 29.5018 0.242371C30.0996 0.242371 30.6729 0.479834 31.0955 0.902523C31.5182 1.32521 31.7557 1.8985 31.7557 2.49627C31.7557 3.09405 31.5182 3.66734 31.0955 4.09002L19.1874 16L31.0918 27.9081Z" fill="#B98A44" />
</svg>