<svg width="453" height="487" viewBox="0 0 453 487" fill="none" xmlns="http://www.w3.org/2000/svg">
<mask id="mask0_373_308" style="mask-type:alpha" maskUnits="userSpaceOnUse" x="0" y="0" width="453" height="487">
<g style="mix-blend-mode:multiply">
<path fill-rule="evenodd" clip-rule="evenodd" d="M34.6631 325.156C34.2483 325.156 33.7298 325.536 33.6261 325.882C33.4063 326.787 33.2789 327.713 33.2458 328.644C32.4162 330.474 34.4903 332.097 35.2508 334.238C35.2508 334.48 36.2533 334.756 36.4261 334.583C38.1199 333.099 39.8829 331.545 41.4039 329.956C41.5129 329.761 41.5701 329.541 41.5701 329.317C41.5701 329.094 41.5129 328.874 41.4039 328.679C39.8138 326.33 37.9471 324.328 34.6631 325.156Z" fill="#231F33"/>
<path fill-rule="evenodd" clip-rule="evenodd" d="M27.6457 331.648C27.4716 330.891 27.0203 330.227 26.3805 329.786C25.7408 329.345 24.9589 329.159 24.1889 329.265C23.7776 329.34 23.3809 329.48 23.0136 329.68C23.0136 329.68 23.0136 330.474 23.2556 330.681C24.0011 331.199 24.5806 331.921 24.9241 332.76C25.2676 333.6 25.3605 334.521 25.1914 335.412C25.019 336.29 25.019 337.193 25.1914 338.071C25.1914 338.382 25.7791 338.796 26.1247 338.83C27.8532 338.83 29.8235 336.655 28.9248 335.377C28.2886 334.216 27.856 332.955 27.6457 331.648Z" fill="#231F33"/>
<path fill-rule="evenodd" clip-rule="evenodd" d="M50.4608 345.667C50.1152 345.219 49.7349 344.424 48.9744 344.839C48.2139 345.253 47.5917 346.151 47.6954 346.254C48.8707 347.843 47.1768 349.086 47.2805 350.467C47.2805 350.467 47.5571 350.813 47.7645 351.123L49.3201 350.26C51.8436 348.879 52.1201 347.808 50.4608 345.667Z" fill="#231F33"/>
<path fill-rule="evenodd" clip-rule="evenodd" d="M20.2481 310.343C20.0061 310.343 19.4531 310.654 19.3839 310.93C19.3317 311.608 19.3317 312.289 19.3839 312.967C19.3839 313.865 19.3839 314.797 19.3839 315.695C19.3839 316.593 19.8679 316.489 20.2136 316.282C20.8324 315.959 21.3387 315.456 21.6657 314.839C21.9927 314.223 22.1252 313.522 22.0457 312.829C21.9805 312.297 21.7814 311.79 21.4671 311.355C21.1528 310.92 20.7335 310.572 20.2481 310.343Z" fill="#231F33"/>
<path fill-rule="evenodd" clip-rule="evenodd" d="M132.941 403.541C132.999 403.374 132.999 403.191 132.941 403.023C131.489 401.09 129.242 400.71 127.341 399.57C126.926 400.192 126.546 400.503 126.477 400.882C126.407 401.262 126.684 401.953 126.891 401.987L128.516 402.471C128.791 402.798 129.118 403.078 129.484 403.3C129.522 403.264 129.552 403.221 129.572 403.174C129.593 403.126 129.603 403.075 129.603 403.023C129.603 402.972 129.593 402.92 129.572 402.873C129.552 402.825 129.522 402.783 129.484 402.747C130.311 403.013 131.11 403.36 131.869 403.783C132.007 404.094 132.561 403.714 132.941 403.541Z" fill="#231F33"/>
<path fill-rule="evenodd" clip-rule="evenodd" d="M31.0334 341.766C30.3075 341.489 29.305 342.249 29.2013 343.112C29.0285 344.77 29.4778 345.668 30.5149 345.737C31.0483 345.646 31.5559 345.442 32.0033 345.138C32.4506 344.834 32.8273 344.438 33.1075 343.976C33.2804 343.389 32.0705 342.215 31.0334 341.766Z" fill="#231F33"/>
<path fill-rule="evenodd" clip-rule="evenodd" d="M44.204 336.863C44.204 336.863 43.8928 336.586 43.7546 336.448C43.6163 336.31 43.3398 336.794 43.3398 336.966C43.3398 338.727 43.3398 340.419 43.3398 342.215C43.3502 342.328 43.3869 342.436 43.447 342.532C43.507 342.628 43.5887 342.709 43.6854 342.767C43.6854 342.767 44.0657 342.56 44.2385 342.422C46.0361 341.041 46.0706 340.696 44.999 338.658C44.6533 338.071 44.4459 337.45 44.204 336.863Z" fill="#231F33"/>
<path fill-rule="evenodd" clip-rule="evenodd" d="M36.0113 320.391C36.0113 320.184 35.7347 319.873 35.5964 319.873C34.9689 320.088 34.4279 320.501 34.0541 321.048C33.6803 321.596 33.4938 322.25 33.5224 322.912C33.5224 322.912 33.7989 323.257 33.9372 323.43C34.5344 323.17 35.046 322.747 35.4129 322.209C35.7799 321.672 35.9873 321.041 36.0113 320.391Z" fill="#231F33"/>
<path fill-rule="evenodd" clip-rule="evenodd" d="M36.3915 349.396C36.2187 349.949 35.9767 350.57 36.7026 351.054C36.9949 350.908 37.2727 350.734 37.5323 350.536C37.3402 349.985 37.0972 349.453 36.8064 348.947C36.8064 348.947 36.4607 349.12 36.3915 349.396Z" fill="#231F33"/>
<path fill-rule="evenodd" clip-rule="evenodd" d="M147.045 435.69C147.46 435.69 147.84 435.379 148.22 435.206C147.84 435.034 147.46 434.689 147.079 434.689H146.734C146.111 434.309 145.213 433.929 145.005 434.309C145.351 434.516 145.489 434.758 145.316 435.034C145.71 435.229 146.129 435.368 146.561 435.448C146.706 435.558 146.87 435.64 147.045 435.69Z" fill="#231F33"/>
<path fill-rule="evenodd" clip-rule="evenodd" d="M68.6438 120.492C68.4018 120.492 68.3326 121.045 68.2289 121.39C68.1252 121.735 68.9549 121.39 69.1277 121.045C69.3005 120.699 68.9549 120.285 68.6438 120.492Z" fill="#231F33"/>
<path fill-rule="evenodd" clip-rule="evenodd" d="M67.1227 122.425C67.1227 122.425 67.6067 122.702 67.9524 122.805V121.597C67.4684 121.631 66.9153 121.735 67.1227 122.425Z" fill="#231F33"/>
<path fill-rule="evenodd" clip-rule="evenodd" d="M21.3197 160.72C21.3197 160.72 21.3197 161.135 21.3197 161.169L22.1839 161.515C22.1148 161.066 22.0802 160.582 21.3197 160.72Z" fill="#231F33"/>
<path fill-rule="evenodd" clip-rule="evenodd" d="M22.1839 161.515C22.1839 161.515 22.1839 161.515 22.1839 161.756H22.3913C22.3913 161.756 22.3913 161.756 22.3913 161.584L22.1839 161.515Z" fill="#231F33"/>
<path fill-rule="evenodd" clip-rule="evenodd" d="M16.0308 171.183L16.5147 170.734C16.2728 170.043 15.9271 170.043 15.5814 170.734C15.5468 170.734 15.8579 171.01 16.0308 171.183Z" fill="#231F33"/>
<path fill-rule="evenodd" clip-rule="evenodd" d="M11.6752 177.329C11.5023 177.329 11.4332 177.847 11.2949 178.192H12.5048C12.4011 177.744 12.3665 177.191 11.6752 177.329Z" fill="#231F33"/>
<path fill-rule="evenodd" clip-rule="evenodd" d="M9.87761 179.574C9.84833 179.687 9.84833 179.806 9.87761 179.92C9.87761 179.92 9.87761 179.643 9.87761 179.574Z" fill="#231F33"/>
<path fill-rule="evenodd" clip-rule="evenodd" d="M11.1221 178.365C10.8012 178.365 10.4934 178.493 10.2665 178.719C10.0396 178.946 9.91217 179.253 9.91217 179.574H11.1221V178.365Z" fill="#231F33"/>
<path fill-rule="evenodd" clip-rule="evenodd" d="M9.87761 179.919L9.04797 180.264V180.679C9.5665 180.679 9.63563 180.264 9.87761 179.919Z" fill="#231F33"/>
<path fill-rule="evenodd" clip-rule="evenodd" d="M90.9749 394.01C90.9749 394.01 91.3206 393.769 91.3551 393.631C91.3897 393.492 91.1132 393.354 91.0095 393.182L90.5946 393.803L90.9749 394.01Z" fill="#231F33"/>
<path fill-rule="evenodd" clip-rule="evenodd" d="M112.615 400.537C112.822 401.055 113.133 401.158 113.375 400.813C113.617 400.468 113.375 400.502 113.375 400.364C113.375 400.226 113.099 400.123 112.995 400.157C112.832 400.242 112.7 400.375 112.615 400.537Z" fill="#231F33"/>
<path fill-rule="evenodd" clip-rule="evenodd" d="M137.78 432.409C137.78 432.409 137.988 432.72 138.126 432.858L138.61 432.444L138.195 431.995C138.195 431.995 137.78 432.237 137.78 432.409Z" fill="#231F33"/>
<path fill-rule="evenodd" clip-rule="evenodd" d="M163.396 435.171C163.396 435.171 163.119 434.722 163.05 434.757C162.393 434.964 162.393 435.309 163.05 435.62C163.015 435.655 163.257 435.447 163.396 435.171Z" fill="#231F33"/>
<path fill-rule="evenodd" clip-rule="evenodd" d="M387.053 82.8875C387.744 81.748 387.364 80.1596 385.774 78.2949C384.564 79.2273 386.845 81.3682 387.053 82.8875Z" fill="#231F33"/>
<path fill-rule="evenodd" clip-rule="evenodd" d="M229.594 25.6358C226.828 25.3595 233.051 24.9106 229.594 24.2891C229.594 25.2559 226.794 24.2891 225.653 24.5653C225.135 25.6358 228.972 26.5681 229.594 25.6358Z" fill="#231F33"/>
<path fill-rule="evenodd" clip-rule="evenodd" d="M138.541 33.543C136.536 34.1991 136.329 35.0969 136.951 36.0983C138.956 35.4076 139.163 34.5444 138.541 33.543Z" fill="#231F33"/>
<path fill-rule="evenodd" clip-rule="evenodd" d="M257.698 27.7072C256.357 28.009 254.992 28.1938 253.619 28.2597C253.619 27.2929 243.905 25.1174 242.038 26.6368C247.12 27.3619 251.752 27.949 256.419 28.8122L263.609 30.0553L271.318 31.6092C270.246 30.0553 267.619 29.5719 264.923 29.1921C262.442 29.1592 259.99 28.6553 257.698 27.7072Z" fill="#231F33"/>
<path fill-rule="evenodd" clip-rule="evenodd" d="M239.964 23.8055C237.337 23.5293 237.164 24.945 234.364 24.5997C235.367 25.7047 232.221 26.05 234.364 26.3608C235.228 24.876 238.789 25.1522 239.964 23.8055Z" fill="#231F33"/>
<path fill-rule="evenodd" clip-rule="evenodd" d="M11.5369 176.19C12.1439 173.81 12.9893 171.496 14.0604 169.284C13.5073 169.284 12.6776 171.045 12.09 172.91C11.5023 174.775 11.2949 176.467 11.5369 176.19Z" fill="#231F33"/>
<path fill-rule="evenodd" clip-rule="evenodd" d="M116.417 80.263C117.627 79.4342 118.146 80.0903 119.494 79.0199C119.321 78.0185 115.622 79.5378 116.417 80.263Z" fill="#231F33"/>
<path fill-rule="evenodd" clip-rule="evenodd" d="M268.449 7.26473L270.143 7.67911C270.384 7.16114 269.624 6.8849 269.797 6.40146C269.027 6.11878 268.182 6.11878 267.412 6.40146C269.14 6.7813 269.347 6.98849 268.449 7.26473Z" fill="#231F33"/>
<path fill-rule="evenodd" clip-rule="evenodd" d="M282.967 40.7259L285.387 41.5892C285.906 40.4151 282.967 39.7936 282.967 40.7259Z" fill="#231F33"/>
<path fill-rule="evenodd" clip-rule="evenodd" d="M293.58 31.1954C293.269 30.7811 290.538 29.4344 290.123 29.9178C291.437 30.1595 292.543 31.7479 293.58 31.1954Z" fill="#231F33"/>
<path fill-rule="evenodd" clip-rule="evenodd" d="M295.654 44.3858C294.581 43.8611 293.39 43.6232 292.197 43.6952C293.338 43.9024 295.654 45.5599 295.654 44.3858Z" fill="#231F33"/>
<path fill-rule="evenodd" clip-rule="evenodd" d="M302.014 43.7299C302.637 43.3846 301.565 42.7285 300.563 42.3487C299.56 41.9688 298.592 42.0379 299.629 42.694C300.251 42.0379 300.701 43.5227 302.014 43.7299Z" fill="#231F33"/>
<path fill-rule="evenodd" clip-rule="evenodd" d="M302.948 44.1438C304.987 45.2487 305.471 44.8689 306.75 45.9048C307.476 45.2487 303.017 43.3841 302.948 44.1438Z" fill="#231F33"/>
<path fill-rule="evenodd" clip-rule="evenodd" d="M327.491 55.608C326.454 54.7448 326.074 54.7102 325.659 53.5017C325.452 53.847 324.726 53.2599 324.484 53.5017C324.242 53.7434 326.385 55.9879 327.491 55.608Z" fill="#231F33"/>
<path fill-rule="evenodd" clip-rule="evenodd" d="M342.183 35.477C340.938 34.9936 338.519 32.68 338.38 33.9231C339.832 34.89 341.733 36.1676 342.183 35.477Z" fill="#231F33"/>
<path fill-rule="evenodd" clip-rule="evenodd" d="M341.25 70.6641C342.613 71.6928 343.874 72.849 345.017 74.1171C345.19 73.3229 342.356 70.7677 341.25 70.6641Z" fill="#231F33"/>
<path fill-rule="evenodd" clip-rule="evenodd" d="M362.889 70.836C363.676 71.6209 364.634 72.2121 365.689 72.5625C365.441 72.0341 365.044 71.5894 364.547 71.2828C364.049 70.9762 363.473 70.8209 362.889 70.836Z" fill="#231F33"/>
<path fill-rule="evenodd" clip-rule="evenodd" d="M368.731 87.5497C367.694 86.4792 365.931 85.3052 366.45 84.6491C367.245 85.1325 368.489 86.9627 368.973 86.5483C367.176 83.3369 362.958 82.5082 359.847 80.2637C362.33 83.2225 365.343 85.6933 368.731 87.5497Z" fill="#231F33"/>
<path fill-rule="evenodd" clip-rule="evenodd" d="M406.756 103.226C407.69 104.573 408.727 103.917 408.589 103.226L407.552 101.845C406.86 102.121 407.69 103.088 406.756 103.226Z" fill="#231F33"/>
<path fill-rule="evenodd" clip-rule="evenodd" d="M416.263 128.676C413.808 126.397 414.569 124.912 412.253 122.668C412.115 123.704 414.984 129.54 416.263 128.676Z" fill="#231F33"/>
<path fill-rule="evenodd" clip-rule="evenodd" d="M427.774 151.535C427.959 151.398 428.183 151.324 428.414 151.324C428.644 151.324 428.868 151.398 429.053 151.535C428.029 148.929 426.792 146.411 425.354 144.007C425.562 144.94 423.66 143.697 423.073 142.039C422.796 142.246 422.278 142.315 422.52 142.902C424.49 146.252 427.221 146.839 427.774 151.535Z" fill="#231F33"/>
<path fill-rule="evenodd" clip-rule="evenodd" d="M430.263 149.809L431.3 152.433C432.441 152.882 430.781 148.634 430.263 149.809Z" fill="#231F33"/>
<path fill-rule="evenodd" clip-rule="evenodd" d="M429.537 156.853C429.883 156.611 430.609 156.611 430.401 155.886C428.846 156.404 430.401 152.743 428.673 152.985C429.018 154.366 429.122 154.815 429.537 156.853Z" fill="#231F33"/>
<path fill-rule="evenodd" clip-rule="evenodd" d="M412.115 366.835C411.112 367.422 411.596 368.216 410.213 369.701C410.594 370.841 412.737 369.701 412.529 368.458C412.104 368.912 411.601 369.287 411.043 369.563C410.87 369.01 412.564 367.318 412.115 366.835Z" fill="#231F33"/>
<path fill-rule="evenodd" clip-rule="evenodd" d="M325.348 444.668C327.491 443.321 329.669 442.354 329.462 441.525C327.906 443.148 325.002 443.597 324.034 444.668C324.657 444.391 325.279 444.15 325.348 444.668Z" fill="#231F33"/>
<path fill-rule="evenodd" clip-rule="evenodd" d="M272.32 464.868C273.599 464.419 274.636 463.935 274.844 463.279C273.392 463.694 271.318 463.935 272.32 464.868Z" fill="#231F33"/>
<path fill-rule="evenodd" clip-rule="evenodd" d="M221.885 473.432C217.633 473.984 215.525 473.811 212.102 474.019C215.122 474.854 218.312 474.854 221.332 474.019C220.295 473.95 221.574 473.708 221.885 473.432Z" fill="#231F33"/>
<path fill-rule="evenodd" clip-rule="evenodd" d="M216.078 471.498C217.625 471.017 219.128 470.405 220.572 469.668C217.944 469.979 216.596 469.979 216.078 471.498Z" fill="#231F33"/>
<path fill-rule="evenodd" clip-rule="evenodd" d="M211.515 471.636C212.655 470.98 213.865 472.707 215.525 471.636C215.525 470.911 215.179 470.428 214.349 470.151C212.671 470.552 210.957 470.783 209.233 470.842C209.717 471.912 209.233 471.567 209.786 472.638C208.853 472.638 208.231 472.948 209.199 473.19C209.924 472.396 212.655 472.672 213.208 471.878C212.552 471.947 211.584 471.981 211.515 471.636Z" fill="#231F33"/>
<path fill-rule="evenodd" clip-rule="evenodd" d="M202.216 474.502C205.085 476.298 202.216 474.882 204.566 474.502C205.915 474.329 208.023 475.158 208.611 474.088C206.471 474.048 204.332 474.187 202.216 474.502Z" fill="#231F33"/>
<path fill-rule="evenodd" clip-rule="evenodd" d="M184.275 472.776C186.211 472.948 191.188 473.501 190.67 473.052C188.567 472.616 186.407 472.523 184.275 472.776Z" fill="#231F33"/>
<path fill-rule="evenodd" clip-rule="evenodd" d="M176.566 468.978C177.983 468.978 178.398 468.702 179.401 469.392C180.127 468.322 176.186 467.735 176.566 468.978Z" fill="#231F33"/>
<path fill-rule="evenodd" clip-rule="evenodd" d="M171.104 463.349C173.04 463.349 173.455 463.936 174.561 463.625C174.112 463.315 170.759 462.244 171.104 463.349Z" fill="#231F33"/>
<path fill-rule="evenodd" clip-rule="evenodd" d="M164.536 430.441C166.023 430.821 167.509 431.891 168.857 431.511L169.03 430.648C167.543 430.431 166.037 430.362 164.536 430.441Z" fill="#231F33"/>
<path fill-rule="evenodd" clip-rule="evenodd" d="M141.998 435.206C143.761 435.413 144.521 436.277 145.455 436.138C145.074 436.138 144.936 435.724 145.143 435.413C143.726 434.895 142.032 434.101 141.998 435.206Z" fill="#231F33"/>
<path fill-rule="evenodd" clip-rule="evenodd" d="M130.867 440.42C131.06 440.525 131.23 440.668 131.367 440.84C131.504 441.012 131.604 441.21 131.662 441.422C134.047 441.629 134.842 441.974 136.64 442.009C135.278 441.536 133.959 440.947 132.699 440.248C133.148 441.525 130.867 439.695 130.867 440.42Z" fill="#231F33"/>
<path fill-rule="evenodd" clip-rule="evenodd" d="M123.02 403.611C124.15 404.179 125.197 404.899 126.131 405.752C127.099 403.507 129.588 408.272 131.005 406.511C129.933 406.235 127.548 405.682 128.309 404.577C130.106 404.577 132.353 407.305 132.872 405.786C130.468 405.177 128.249 403.992 126.407 402.333C127.548 404.543 124.748 402.782 125.716 404.647C124.817 404.37 123.158 402.437 123.02 403.611Z" fill="#231F33"/>
<path fill-rule="evenodd" clip-rule="evenodd" d="M72.55 401.09C71.2364 401.85 73.0685 403.162 74.1747 403.334C72.7919 402.402 73.9327 402.022 72.55 401.09Z" fill="#231F33"/>
<path fill-rule="evenodd" clip-rule="evenodd" d="M54.5745 393.355C56.0609 393.803 52.6386 389.694 51.6016 389.314C51.2895 390.585 51.2895 391.912 51.6016 393.182C52.3621 393.182 52.9497 392.284 53.9868 393.182C53.9868 393.873 57.4436 397.982 57.9621 396.98C56.9823 395.641 55.8449 394.423 54.5745 393.355Z" fill="#231F33"/>
<path fill-rule="evenodd" clip-rule="evenodd" d="M241.485 458.376V458.618L244.147 457.996L241.485 458.376Z" fill="#231F33"/>
<path fill-rule="evenodd" clip-rule="evenodd" d="M452.836 236.999C452.456 230.715 452.076 224.534 451.73 218.594L451.419 214.174C451.419 212.724 451.039 211.274 450.831 209.858C450.451 207.026 450.071 204.299 449.69 201.605C448.273 199.464 448.515 191.246 445.715 189.554C445.828 187.032 445.292 184.524 444.159 182.268C446.061 183.097 443.399 178.815 444.851 179.091C443.537 176.708 444.09 173.324 442.742 172.496C443.399 175.949 444.782 178.021 443.71 179.402C443.157 175.949 441.463 172.841 442.12 170.286C441.117 167.799 438.248 163.379 438.663 161.135C437.315 161.342 437.868 158.131 436.52 157.06C435.967 157.06 436.14 158.131 435.725 157.371C434.342 155.506 434.549 152.468 433.27 150.983C433.478 151.639 433.685 152.261 433.27 152.261C432.441 150.741 433.27 150.499 432.302 148.807C431.335 149.015 432.752 151.294 432.752 152.261C434.587 154.512 435.728 157.247 436.036 160.134C434.895 158.476 433.996 158.165 434.169 155.99C433.27 155.99 434.169 157.267 433.478 157.475C434.135 159.236 435.033 158.96 435.69 160.928C434.826 160.928 434.065 159.823 433.27 159.477C433.893 161.411 434.861 160.479 435.517 162.205C435.206 162.931 434.031 160.997 434.446 162.654C434.672 162.811 434.851 163.026 434.964 163.276H434.446L433.374 163.828C433.4 163.715 433.455 163.611 433.534 163.526C433.612 163.441 433.712 163.379 433.823 163.345C433.155 162.387 432.838 161.229 432.925 160.064C432.233 160.375 432.925 162.723 433.132 163.966L430.816 165.141C430.685 165.084 430.568 165.002 430.47 164.899C430.323 164.384 430.15 163.877 429.952 163.379C429.963 163.083 429.909 162.788 429.796 162.514C429.683 162.24 429.512 161.993 429.295 161.791C428.898 161.159 428.648 160.446 428.565 159.705C428.481 158.964 428.565 158.213 428.811 157.509C426.979 156.611 424.905 149.533 425.112 147.633C424.421 147.633 423.626 146.874 422.934 145.734C422.934 145.32 422.934 144.94 422.934 144.526C422.934 144.111 422.589 143.766 421.967 143.904C421.552 142.903 421.379 142.039 421.621 141.901C420.791 141.107 419.927 140.278 419.063 139.38C418.786 138.69 418.51 137.999 418.199 137.309H418.406C417.334 134.995 416.228 132.854 414.949 130.782C412.407 126.014 409.457 121.474 406.134 117.212C404.994 115.278 403.818 113.241 402.677 110.996C402.297 111.307 401.813 110.996 401.329 110.616C400.512 108.1 398.988 105.87 396.939 104.194C396.466 102.626 395.742 101.145 394.796 99.8081L395.072 99.4973C394.416 98.6341 394.139 98.496 393.932 98.5995L393.067 97.5291C391.823 96.0097 390.44 94.5249 389.161 93.0401C387.893 91.6613 386.737 90.1832 385.704 88.6201C382.593 83.7513 379.482 78.7443 375.991 73.979C372.378 69.2169 367.764 65.3037 362.474 62.5148C361.437 61.6515 361.368 63.1709 360.366 62.5148C356.682 59.3991 352.764 56.5708 348.647 54.0547C344.222 51.4649 339.798 48.6334 335.58 46.2162C329.704 42.556 324.553 37.8943 317.95 35.4426C314.51 34.1957 310.938 33.3499 307.303 32.9218C304.205 32.6383 301.08 32.9669 298.108 33.8887C292.37 31.4715 284.281 34.0959 279.096 30.1594C277.782 30.1594 277.678 31.6442 275.639 30.9536C274.118 30.6083 274.291 29.9177 273.565 29.4688C273.219 31.0572 274.118 30.8845 272.908 31.9895C276.328 32.6148 279.803 32.8809 283.278 32.7837C284.281 33.1981 284.557 33.8196 286.148 34.1649C296.705 34.1393 307.202 35.7587 317.259 38.9647C328.148 42.7631 337.136 50.5671 345.121 52.7771C346.573 53.9511 345.121 54.8144 345.882 55.9539C350.237 57.128 352 61.099 356.252 63.6888C359.225 65.6571 362.889 65.9679 366.139 68.4886C368.931 70.903 371.478 73.5863 373.744 76.4998C376.147 79.7191 378.72 82.8082 381.452 85.7541V86.3411C379.897 85.0289 378.756 83.7858 376.233 81.8521C376.613 81.2305 377.546 82.7499 377.996 82.4046C376.457 80.8954 374.842 79.4663 373.156 78.1227C371.739 76.8765 370.567 75.3776 369.699 73.7028C368.939 74.8768 366.899 72.4942 365.931 73.0812C368.075 75.1186 370.805 77.6393 370.805 79.9874C368.697 78.8479 369.042 76.9487 367.798 76.8796C368.883 78.9591 370.491 80.7204 372.465 81.9902C374.596 83.4187 376.536 85.1128 378.238 87.0317C378.106 87.1558 377.944 87.2435 377.769 87.2859C377.593 87.3283 377.409 87.324 377.235 87.2734C378.523 89.0262 380.159 90.4955 382.04 91.5898C382.386 92.1423 382.801 92.6602 383.181 93.1782C382.916 92.988 382.606 92.869 382.282 92.8329C382.681 93.5486 383.039 94.2865 383.354 95.0429C383.143 94.861 382.872 94.7628 382.593 94.7666C382.985 95.158 383.331 95.5378 383.63 95.9061C383.717 96.2577 383.717 96.625 383.63 96.9766C381.164 95.663 378.521 94.7094 375.783 94.1451C375.453 93.6333 375.175 93.0896 374.954 92.5221L374.297 93.1437C374.599 93.393 374.877 93.6705 375.126 93.9724L374.02 93.7307L373.536 93.1782C373.847 92.8674 373.26 91.4517 372.81 92.4185C373.329 92.902 373.433 93.2473 373.225 93.5235C372.311 93.1284 371.451 92.6178 370.667 92.0042C370.034 91.0906 369.468 90.1328 368.973 89.1381C368.711 88.8567 368.391 88.6355 368.035 88.4896C367.679 88.3437 367.296 88.2767 366.911 88.2931C366.527 88.3095 366.15 88.409 365.808 88.5847C365.466 88.7603 365.166 89.0081 364.929 89.3107C364.75 89.7386 364.542 90.1539 364.307 90.5539C363.475 90.1262 362.667 89.6536 361.887 89.1381C362.207 87.648 362.025 86.0939 361.368 84.7181C361.368 84.4764 360.573 84.4764 360.158 84.4419C360.049 84.4612 359.945 84.5055 359.855 84.5713C359.765 84.6372 359.691 84.7229 359.64 84.8217V85.0289C358.43 84.511 357.186 83.8203 356.909 82.37C356.73 82.5168 356.599 82.7131 356.531 82.9342C356.463 83.1554 356.462 83.3916 356.529 83.6131C357.569 84.2364 358.542 84.9654 359.432 85.7886C359.432 85.7886 359.432 85.9958 359.432 86.0303C359.897 86.5141 360.23 87.1084 360.4 87.7568C358.279 85.6153 355.965 83.6734 353.487 81.9557C352.957 81.6104 352.438 81.2996 351.931 81.0233L352.139 80.8161L351.724 80.2982L351.343 80.678C349.829 79.8136 348.259 79.0522 346.642 78.399C346.089 77.812 345.571 77.294 345.156 76.8106C344.588 76.3833 343.987 76.0022 343.358 75.671C333.178 66.5325 321.646 59.0197 309.17 53.3986C295.703 47.1986 281.343 43.155 266.617 41.4164C263.808 40.0245 260.834 38.992 257.767 38.3432C254.431 37.5934 251.023 37.2113 247.604 37.2037C243.594 33.7506 235.816 33.1636 228.211 33.5434L222.576 33.8542C220.744 33.8542 219.12 34.1649 217.288 34.234C214.465 34.4697 211.622 34.2126 208.887 33.4743C205.431 38.0324 193.021 36.9274 188.7 35.4081C188.181 36.9965 186.418 37.7562 184.275 38.0324C182.113 38.2377 179.937 38.2377 177.776 38.0324C177.776 37.4108 180.645 36.0641 177.534 36.7202C176.048 36.7202 176.186 37.618 175.494 38.0324C173.973 37.3418 172.038 37.031 171.139 35.857C168.339 36.2023 168.166 37.3418 165.366 37.7216C165.547 37.1017 165.855 36.5264 166.272 36.0328C166.689 35.5392 167.204 35.1382 167.786 34.8556C171.657 33.3017 172.522 34.5103 174.699 34.5793C174.388 33.5434 172.971 33.5434 175.08 32.7146C176.635 35.2009 179.815 31.0917 181.993 33.129C180.904 33.2537 179.897 33.769 179.159 34.5793C181.993 33.5779 185.45 32.6111 187.974 31.7823C187.179 31.7823 186.003 31.7823 187.144 31.437C173.998 31.0428 160.896 33.1401 148.531 37.618C136.288 42.0879 124.57 47.8772 113.583 54.8835C111.167 55.0832 108.816 55.7642 106.669 56.8863C100.654 61.9968 96.0219 65.1391 97.0589 70.1461C105.171 63.649 113.914 57.9806 123.158 53.226C124.513 52.8894 125.932 52.9029 127.281 53.2654C128.629 53.6279 129.863 54.3273 130.867 55.2978C121.291 61.686 109.089 65.3118 100.827 72.8395C99.6515 73.9445 99.5133 74.8423 98.3379 75.7401C91.1823 81.4377 86.9995 83.5786 81.9871 87.3425C72.2389 94.6976 64.0462 104.919 56.13 114.069C54.4016 116.107 51.0831 117.004 50.8756 120.389C53.3053 118.069 55.613 115.626 57.7893 113.068C59.7491 110.932 61.508 108.62 63.0437 106.162C65.74 103.952 69.3697 101.017 72.8265 97.7017C76.2834 94.3868 80.0513 91.1754 83.197 88.5856C85.0291 87.5842 86.6538 86.5483 88.3131 85.5123C89.9724 84.4764 91.528 83.5096 93.049 82.4391L102.244 76.3271C108.893 71.2805 116.109 67.0274 123.746 63.6543C125.716 65.2427 127.548 63.6543 130.659 62.5839C131.627 65.001 134.116 64.9319 137.573 63.7234C139.094 62.3076 135.706 62.6184 137.296 61.4443C139.474 61.4443 141.548 61.2717 142.585 62.8946C141.163 63.7333 139.589 64.2847 137.953 64.5176C139.405 66.1405 143.173 64.1723 144.141 66.5204C141.133 68.1778 138.368 69.9735 135.672 71.8381C132.975 73.7028 130.486 75.7401 127.963 77.7084C123.101 81.8199 117.91 85.5271 112.442 88.7928C110.4 88.4366 108.324 88.3092 106.254 88.4129C106.254 90.692 110.817 88.6547 112.407 89.9323C110.961 91.7543 109.403 93.4843 107.741 95.1119C107.229 95.6277 106.744 96.1694 106.289 96.7349H105.943C104.806 96.8234 103.708 97.1832 102.739 97.7841C101.771 98.385 100.961 99.2094 100.377 100.188C100.202 100.556 100.006 100.913 99.7898 101.258C98.2417 102.412 96.7642 103.658 95.3651 104.988H95.1231L94.6737 105.506L93.8786 106.265C92.0308 107.409 89.8504 107.896 87.6909 107.647C86.9304 107.647 86.5156 108.096 86.2736 108.821C86.1442 109.249 85.9329 109.647 85.6514 109.995C84.9254 110.754 84.3378 112.101 83.0242 110.685C82.501 110.849 82.0244 111.135 81.6338 111.519C81.2431 111.904 80.9495 112.375 80.7772 112.895C80.0513 114.76 79.0143 116.107 76.7673 115.969C76.5427 115.952 76.317 115.979 76.1033 116.051C75.8896 116.122 75.6923 116.235 75.5229 116.383C73.9673 118.04 71.6858 119.076 70.9598 121.424C70.5104 122.944 69.266 122.633 68.2635 122.806C68.2635 123.186 67.9524 123.738 67.6758 123.807C64.4315 124.933 61.5445 126.899 59.3103 129.505C58.1324 130.936 56.6737 132.111 55.0238 132.958C52.5695 133.959 49.6657 134.857 50.1151 138.621C50.1151 139.104 49.3892 139.726 48.9053 140.209C48.4213 140.693 47.246 141.798 46.3472 142.557C45.4484 143.317 45.483 143.835 44.757 142.972C44.0311 142.108 43.0286 142.039 43.9965 140.865C44.2765 140.507 44.4448 140.075 44.4805 139.622C44.3997 139.202 44.2601 138.795 44.0657 138.414L43.478 138.793C42.7173 139.279 42.0907 139.948 41.6558 140.738C41.221 141.528 40.9917 142.415 40.9891 143.317C40.9891 144.215 41.3348 144.836 40.6088 145.562C39.8829 146.287 38.4311 147.91 36.5644 147.91C34.6977 147.91 35.9767 149.118 35.8039 149.843C35.546 151.414 34.7071 152.832 33.4532 153.814C32.3299 154.388 31.3765 155.245 30.6877 156.301C30.8842 154.931 31.232 153.588 31.7248 152.295C34.5248 144.457 41.4039 136.066 44.204 128.331C47.6608 127.191 44.8953 126.052 48.6633 123.186C48.2139 122.184 47.6608 120.319 46.5546 120.837C46.0361 120.837 45.5176 121.183 44.9645 121.632C43.3052 125.983 40.6434 128.538 39.6064 132.578C31.9201 140.823 26.3353 150.796 23.3247 161.653C23.0273 161.704 22.7233 161.704 22.4259 161.653C22.4286 161.856 22.4842 162.056 22.5872 162.231C22.6902 162.407 22.8371 162.553 23.0136 162.654L22.8062 163.345C22.4951 164.381 22.2185 165.417 21.942 166.487C21.3545 166.862 20.7424 167.196 20.1098 167.489C19.499 167.771 18.9838 168.225 18.6277 168.795C18.2715 169.366 18.0898 170.028 18.1049 170.7C18.1049 175.327 17.932 175.327 13.7147 177.606C13.3818 177.8 13.02 177.94 12.6431 178.021C12.6354 178.382 12.4929 178.727 12.2435 178.989C11.9941 179.251 11.6558 179.411 11.2949 179.436C11.2949 180.541 13.0925 181.577 11.2949 182.889C10.3412 183.554 9.53989 184.413 8.94427 185.41C8.71091 185.803 8.45706 186.183 8.18377 186.55C8.20294 186.401 8.20294 186.25 8.18377 186.101L7.87265 187.068C7.46803 187.557 6.97568 187.967 6.42078 188.276C5.10719 188.967 6.42078 190.21 6.87017 191.177C4.72693 193.767 6.87017 197.6 4.38125 200.086C4.53203 201.928 4.47405 203.781 4.20841 205.611C3.41892 207.467 3.0189 209.464 3.03309 211.481C3.10249 211.82 3.10126 212.17 3.02946 212.508C2.95767 212.847 2.81686 213.167 2.61579 213.449C2.41473 213.731 2.15772 213.968 1.86079 214.146C1.56385 214.325 1.23334 214.44 0.889851 214.485C0.613304 214.485 0.302192 215.417 0.405897 215.625C1.37381 217.075 0.75158 218.491 0.405897 219.906C1.73232 222.089 2.17727 224.694 1.65036 227.192C1.65036 229.61 2.34172 232.269 0.440466 234.479C0.0947826 234.893 0.440463 235.86 1.20097 236.136C1.96147 236.412 2.92938 236.688 2.89481 237.897C2.84254 238.817 2.84254 239.739 2.89481 240.66C3.13679 244.492 2.34172 248.429 4.27754 252.055C4.51952 252.504 4.27755 253.367 3.93187 253.954C3.58618 254.541 2.96395 254.921 3.65532 255.68C4.05552 256.244 4.32517 256.89 4.44475 257.571C4.56432 258.252 4.53082 258.951 4.34668 259.617C3.97371 261.421 4.14206 263.295 4.83064 265.004C5.62494 266.903 6.80156 268.619 8.28748 270.045C9.03602 270.561 9.56583 271.336 9.77391 272.221C9.80751 274.259 10.329 276.26 11.2949 278.056C11.2273 281.461 12.2176 284.802 14.1295 287.622C14.3369 288.036 14.7172 288.727 14.8209 288.692C17.4826 287.967 17.8975 290.729 19.5222 291.593C21.1469 292.456 22.979 293.25 24.5346 294.044L25.4679 296.392C25.4679 296.634 25.4679 296.807 25.6753 296.979C25.9865 297.739 26.2284 298.533 26.505 299.327C26.2174 299.527 25.9731 299.782 25.7869 300.078C25.6007 300.374 25.4764 300.704 25.4215 301.05C25.3666 301.395 25.3822 301.748 25.4674 302.087C25.5526 302.426 25.7057 302.744 25.9173 303.022C26.8697 305.043 27.5552 307.179 27.9568 309.376C28.1297 310.101 28.3371 310.723 28.9939 310.93C29.6507 311.137 30.5495 311.482 29.8927 312.691C29.2359 313.899 29.6507 315.143 28.9939 315.902C27.3692 317.732 29.5124 318.734 29.6853 320.15C29.6853 320.875 30.9297 320.806 31.4137 320.426C32.6927 319.424 33.7298 318.181 34.8705 317.18C36.0113 316.179 35.389 315.522 34.8705 314.417C34.2759 312.154 34.2759 309.775 34.8705 307.511C34.8705 307.339 35.1471 307.201 35.2853 307.028C35.4236 306.855 35.7347 307.373 35.7347 307.546C35.7347 309.376 37.636 310.067 38.3273 311.448C38.673 312.104 36.9792 313.174 38.3273 313.554C39.1776 313.844 39.9405 314.345 40.545 315.009C41.1494 315.673 41.5757 316.479 41.7842 317.353C42.5792 319.459 43.3398 321.565 44.2731 323.603C45.2064 325.64 46.4509 328.023 47.5571 330.267C47.8336 330.854 48.3522 331.545 48.283 332.097C48.1377 333.127 48.2879 334.176 48.7163 335.124C49.1447 336.071 49.8336 336.878 50.7028 337.45C51.4066 338.043 51.9381 338.814 52.2421 339.683C52.5461 340.551 52.6114 341.485 52.4312 342.387C52.4312 343.492 52.2238 344.736 53.1917 345.599C54.7749 347.487 56.1 349.577 57.1325 351.814C57.7202 352.712 57.8239 351.4 58.0658 350.951C58.2884 350.626 58.5309 350.314 58.7918 350.019C58.7918 350.226 59.2066 350.399 59.2066 350.571C59.6441 353.263 59.3823 356.021 58.4461 358.582C58.0517 359.533 57.9175 360.571 58.0572 361.591C58.1969 362.61 58.6055 363.574 59.2412 364.384C61.2116 367.595 61.4535 368.078 64.5647 369.114C67.1227 369.978 67.5721 370.461 67.6413 372.844C67.7104 375.226 67.6413 377.022 69.4734 378.472C69.8191 378.748 70.2685 379.232 70.2685 379.577C70.2685 382.789 72.6537 384.412 74.5895 386.483C76.5253 388.555 77.2167 389.729 79.4291 390.213C80.6126 392.142 82.0036 393.937 83.5773 395.565C85.0983 397.568 88.1749 397.706 88.9354 400.503C88.9354 400.917 89.5922 400.814 89.8341 400.227C90.0761 399.64 89.8341 399.329 90.1798 398.914L90.4218 398.5C91.528 399.363 92.7033 400.227 93.8786 401.09C93.049 400.227 92.0811 398.776 91.0786 397.637C91.0876 397.545 91.0876 397.452 91.0786 397.361C91.286 396.221 90.4564 395.876 89.4884 395.6C89.1591 395.507 88.8517 395.349 88.5845 395.135C88.3174 394.922 88.0958 394.657 87.9329 394.356C87.7809 394.001 87.6078 393.655 87.4144 393.32H87.7946C87.6065 393.093 87.385 392.895 87.1378 392.733C85.9625 390.903 84.1649 389.557 82.9896 387.761C81.8143 385.965 80.639 385.137 80.6044 383.79C80.9209 382.039 81.5409 380.356 82.4365 378.818L83.1625 376.953C83.2736 376.75 83.4268 376.574 83.6118 376.435C84.3724 375.917 83.8192 376.193 83.9921 376.953C84.3723 378.679 85.3057 379.094 86.8958 379.059C88.486 379.025 87.9674 379.75 87.5872 380.751C87.2069 381.753 88.6588 381.545 89.2119 381.994C89.765 382.443 89.7996 382.927 89.2119 382.961C86.9995 382.961 87.6563 384.273 88.1749 385.482C87.691 385.972 87.3536 386.587 87.201 387.258C87.0483 387.929 87.0863 388.63 87.3107 389.28C87.3107 389.488 87.5181 389.764 87.7255 389.833C87.9329 389.902 88.1057 389.833 88.2786 389.557C88.4514 389.28 89.4539 388.624 89.6267 388.037C89.8061 386.909 90.4196 385.894 91.3364 385.211C92.2533 384.527 93.4011 384.228 94.5354 384.377C95.348 384.919 96.3422 385.117 97.3009 384.93C97.0057 385.506 96.9438 386.173 97.1281 386.794L96.7824 386.587L97.2318 387.07C97.4283 387.404 97.6729 387.706 97.9577 387.968C98.3379 388.279 98.2342 388.97 97.9577 389.591C97.6145 389.303 97.244 389.048 96.8515 388.831C97.4046 387.692 95.054 385.378 94.9502 386.656C97.3009 386.967 94.9502 387.934 95.3651 388.452C96.2058 389.011 96.9427 389.712 97.5429 390.523C96.9206 391.939 96.333 393.355 95.849 394.84C95.3353 395.871 95.2098 397.052 95.4954 398.168C95.781 399.283 96.4586 400.259 97.4046 400.917C98.3561 401.572 99.0845 402.502 99.4922 403.582C99.9 404.662 99.9676 405.841 99.6861 406.96C99.6861 407.616 99.6861 408.341 99.6861 409.032C99.6688 409.32 99.6688 409.608 99.6861 409.895L98.5799 409.619C98.9457 409.986 99.3515 410.31 99.7898 410.586C99.7898 410.793 99.7898 411 99.9627 411.207C96.9599 409.52 94.1542 407.505 91.5971 405.199L85.0291 399.432C83.2362 397.599 81.3189 395.892 79.2908 394.322C79.9822 394.943 77.1821 393.493 76.4216 392.146C76.4216 394.529 80.397 398.776 81.0192 402.057C82.3806 403.065 83.3854 404.48 83.8884 406.097C84.4174 406.588 85.058 406.944 85.7551 407.133C84.9254 409.55 95.2268 416.249 93.1873 416.905C95.2606 417.542 97.2642 418.387 99.1676 419.426C99.6861 418.942 98.6491 418.39 99.4441 417.906C100.723 418.77 101.795 419.253 102.486 419.046C99.7898 417.285 98.6836 418.286 96.2984 416.974C97.1972 416.353 96.2984 415.109 95.054 415.006C93.8095 414.902 96.4021 416.214 95.849 416.663C95.1577 416.214 95.1231 417.078 94.2589 416.249C96.0219 415.558 90.5946 413.728 90.1798 411.829C90.3631 411.617 90.6097 411.469 90.8835 411.406C91.1572 411.344 91.4436 411.371 91.7008 411.484C94.57 414.108 93.6367 412.174 95.1577 412.692C96.6787 413.21 95.849 414.143 96.7824 414.937C97.8194 413.935 100.239 415.42 101.864 416.732C104.206 417.43 106.617 417.87 109.054 418.045L109.434 418.355C110.815 419.488 112.27 420.526 113.79 421.463C114.136 421.705 114.62 421.463 114.654 420.911C114.654 419.564 115.311 418.01 114.343 416.94C113.375 415.869 112.027 413.487 109.504 413.487C109.173 413.48 108.848 413.402 108.549 413.259C108.251 413.116 107.987 412.911 107.775 412.658C107.257 411.967 106.807 411.242 106.358 410.517H106.842C106.515 410.374 106.202 410.201 105.908 409.999C105.182 408.859 104.491 407.72 103.765 406.546C104.457 404.681 105.079 402.782 105.874 400.952C106.044 400.669 106.155 400.356 106.203 400.03C106.25 399.704 106.233 399.372 106.15 399.053L105.77 398.604C103.281 400.676 102.832 397.74 101.657 396.843C101.283 396.483 101.007 396.035 100.856 395.539C100.705 395.043 100.683 394.518 100.792 394.011C102.279 393.493 102.866 396.359 104.56 395.703L105.01 396.117C106.234 397.77 107.717 399.216 109.4 400.399C111.301 401.781 113.099 402.989 113.963 403.852C113.963 403.542 114.827 403.127 115.173 403.265C116.106 404.716 121.049 405.372 118.63 405.717C119.053 406.053 119.558 406.268 120.094 406.341C120.629 406.414 121.174 406.342 121.672 406.131C118.733 404.494 115.656 403.119 112.476 402.022C111.992 400.399 109.711 399.363 107.983 398.224C107.371 397.877 106.802 397.46 106.289 396.981C106.598 396.908 106.899 396.804 107.187 396.67C107.187 396.67 107.36 396.325 107.187 396.187C107.015 396.048 106.634 395.461 106.461 395.047C106.289 394.633 106.047 393.666 106.807 393.251C107.086 393.057 107.418 392.952 107.758 392.952C108.098 392.952 108.43 393.057 108.708 393.251C109.229 393.618 109.772 393.952 110.333 394.253C110.333 394.909 110.333 395.738 110.644 396.221C111.118 396.662 111.727 396.93 112.373 396.981C113.302 396.997 114.228 397.101 115.138 397.292C114.723 397.292 114.205 397.292 115.346 397.982C115.803 397.986 116.257 398.056 116.694 398.189C116.865 398.225 117.041 398.225 117.212 398.189C119.839 399.087 122.881 401.401 124.852 401.642L121.395 399.363H123.953C124.057 399.328 124.152 399.268 124.23 399.191C124.307 399.113 124.367 399.018 124.402 398.914C124.402 398.914 124.402 398.604 124.195 398.535C123.774 398.226 123.265 398.06 122.743 398.06C122.221 398.06 121.712 398.226 121.291 398.535C121.184 398.622 121.11 398.744 121.084 398.88L119.148 397.602C119.77 397.153 120.358 396.635 121.118 396.774C121.934 396.86 122.757 396.86 123.573 396.774C124.276 397.509 125.093 398.127 125.993 398.604C126.235 397.844 127.617 399.294 127.721 398.258C127.779 398.146 127.809 398.022 127.809 397.896C127.809 397.77 127.779 397.645 127.721 397.533C129.03 398.083 130.459 398.285 131.869 398.12C133.356 398.12 134.324 398.327 134.842 400.089C134.983 400.532 135.22 400.938 135.537 401.278C135.854 401.619 136.242 401.884 136.674 402.057C136.674 402.575 137.02 403.231 137.711 403.818C136.225 403.818 135.672 405.199 133.84 404.578C134.6 404.992 135.153 405.406 135.257 405.924C134.669 406.373 133.39 405.924 132.975 406.442C134.945 407.033 136.738 408.1 138.195 409.55C138.817 408.1 141.237 409.826 141.929 410.31C141.377 410.514 140.777 410.543 140.208 410.395C139.639 410.247 139.13 409.928 138.748 409.481C138.99 411.069 136.916 409.067 136.882 410.241C138.472 411.38 144.348 410.241 145.662 413.452C141.929 411.587 140.684 412.554 138.126 412.105C137.855 412.281 137.632 412.521 137.478 412.805C137.324 413.088 137.243 413.406 137.243 413.728C137.243 414.051 137.324 414.368 137.478 414.652C137.632 414.935 137.855 415.176 138.126 415.351L138.437 414.591C139.405 414.902 139.509 415.282 140.062 415.662C139.716 415.662 139.336 415.904 139.854 416.214C139.474 416.836 139.267 415.593 138.195 415.42C139.509 416.525 141.652 417.561 142.966 418.873C146.976 419.909 152.265 423.57 155.583 423.673C154.304 422.844 151.02 422.257 151.055 420.531C152.472 419.495 153.509 422.188 154.511 421.083C152.645 420.013 151.573 420.358 151.055 418.977C151.642 419.184 151.608 418.632 152.126 418.735C153.82 419.737 155.583 421.256 155.099 421.981C155.099 421.049 156.171 423.121 156.516 421.981C155.929 421.532 156.136 420.876 156.067 420.289C153.82 419.564 152.61 418.666 152.61 417.458C155.514 417.216 157.45 418.701 159.524 418.908C159.917 419.725 160.443 420.472 161.079 421.118C161.334 421.349 161.655 421.493 161.996 421.53C162.338 421.568 162.683 421.496 162.981 421.325C163.534 421.118 163.81 420.255 164.64 420.773C165.869 421.312 167.03 421.996 168.097 422.81C170.252 425.059 172.887 426.794 175.806 427.886C175.716 427.988 175.646 428.105 175.598 428.231C173.172 428.324 170.752 427.936 168.477 427.092C168.477 427.333 168.788 427.437 168.961 427.61L163.914 426.643C162.739 428.438 165.85 426.643 165.746 428.093C164.64 428.369 161.01 427.575 160.941 426.367C161.771 426.712 162.635 427.092 163.43 427.333C163.188 426.677 162.116 426.297 161.114 425.849C160.571 425.66 160.084 425.34 159.697 424.916C159.386 424.916 157.035 424.916 158.107 425.296C154.65 424.536 151.469 423.362 148.358 422.465C144.668 421.091 140.782 420.31 136.847 420.151C136.484 419.436 135.93 418.835 135.247 418.415C134.564 417.994 133.778 417.771 132.975 417.768C129.415 416.607 126.18 414.619 123.538 411.967C122.225 413.521 120.289 409.308 118.353 409.274C118.353 408.825 118.076 408.549 118.768 408.514C114.654 408.238 114.412 403.714 110.057 402.299C111.716 403.542 107.706 402.713 110.955 404.543C111.889 404.301 110.471 402.955 111.578 403.542C110.541 404.992 114.17 406.753 114.689 408.825C117.869 408.825 119.425 411.553 122.743 413.521C122.743 414.212 122.743 416.18 124.299 415.904C122.432 415.144 125.128 415.144 125.405 414.799C127.086 415.684 128.672 416.737 130.141 417.941C129.294 418.081 128.476 418.361 127.721 418.77L128.931 419.253C128.931 419.564 128.931 419.702 128.378 420.116C130.279 421.429 130.763 420.634 131.835 420.773C130.417 422.257 136.743 423.915 137.988 425.538C137.988 424.916 138.679 424.882 139.682 425.296C139.371 425.607 138.956 425.538 139.371 426.125C148.462 429.267 156.862 431.684 165.193 434.171C168.27 433.963 176.635 435.103 175.564 437.934C186.138 440.73 196.989 442.351 207.92 442.769C211.875 441.831 215.981 441.713 219.984 442.423C219.465 442.423 221.021 441.698 221.954 442.044C225.411 443.218 219.5 444.392 216.492 444.254C219.12 444.254 216.492 446.187 216.043 446.878C210.305 447.43 205.673 447.189 200.591 447.707C199.277 447.534 199.105 446.774 197.549 446.671C195.302 447.741 193.09 445.566 190.428 445.531C188.907 445.531 187.697 446.567 186.176 446.394C184.655 446.222 183.134 444.771 181.717 444.564C180.853 444.564 179.297 444.564 178.571 444.564C178.571 444.564 178.986 444.012 179.159 444.046C177.638 443.805 176.739 444.495 175.425 444.357C175.218 444.357 175.218 443.459 175.08 443.39C173.351 442.458 170.828 443.39 168.823 443.079C167.544 441.905 170.793 442.216 168.615 441.526C168.27 442.492 166.161 441.802 165.158 442.216C164.121 440.283 159.455 440.939 160.492 439.557C158.285 439.365 156.092 439.042 153.924 438.59C151.856 438.12 149.814 437.544 147.805 436.864C148.358 437.106 148.185 437.485 148.013 437.865C145.858 436.942 143.572 436.359 141.237 436.139C141.237 435.862 141.756 435.932 141.929 435.759C139.129 434.792 136.501 434.067 134.254 433.065C132.268 432.203 130.329 431.235 128.447 430.165C127.837 430.396 127.196 430.535 126.546 430.579C125.647 429.302 125.232 429.474 124.057 429.716C123.296 428.784 124.057 427.886 122.639 427.748C123.884 429.267 120.358 427.748 119.183 427.472C119.425 426.919 118.076 426.505 118.768 425.952C118.768 425.262 120.254 426.297 120.565 425.952C117.42 424.536 117.109 425.296 116.21 426.436C117.143 427.402 119.044 428.335 120.116 429.302C121.706 428.231 126.407 431.546 127.272 432.755C126.649 432.478 126.649 433.031 126.096 432.755C126.096 432.409 126.511 432.064 126.096 431.753C122.639 432.099 119.978 429.751 116.313 427.713C116.901 429.302 115 428.093 114.412 429.094C118.215 430.925 122.121 432.548 125.509 434.378C124.23 433.169 127.306 434.378 127.928 434.378C128.689 435.206 131.109 437.244 131.938 437.209C131.385 436.898 131.593 436.519 131.938 436.173C133.459 438.383 136.743 438.901 139.474 440.352C136.363 439.074 137.573 440.352 135.153 439.695C137.227 440.904 138.333 441.698 140.304 441.284L139.993 442.113C142.983 442.782 145.884 443.802 148.635 445.151C150.19 445.807 151.815 446.533 153.44 447.085C155.059 447.548 156.712 447.882 158.383 448.086C158.383 448.432 158.107 448.881 158.694 449.053C164.433 449.399 172.038 453.335 175.01 452.506C175.01 453.68 172.349 453.508 171.173 452.506C171.173 454.578 174.63 453.784 175.909 453.75V454.337C178.087 454.337 179.366 453.197 181.509 453.404C184.413 453.646 184.966 455.303 188.872 455.372C187.904 453.819 192.813 455.821 194.3 455.372C191.43 454.924 193.055 454.785 195.371 455.027C197.687 455.269 200.729 455.442 200.66 456.443C198.897 456.236 198.621 456.995 197.203 457.134C200.176 457.134 198.759 457.513 199.277 458.722C201.697 458.515 201.974 459.344 203.598 459.516C203.391 458.584 201.213 458.549 200.418 457.893C200.968 457.934 201.521 457.863 202.043 457.686C203.287 458.1 204.082 459.62 205.292 458.411C205.24 458.638 205.258 458.875 205.345 459.091C205.431 459.307 205.582 459.492 205.776 459.62C201.386 459.62 198.379 459.896 195.406 459.792C192.116 459.389 188.866 458.708 185.692 457.755C183.156 457.719 180.635 457.359 178.191 456.685C175.669 456.064 173.078 455.774 170.482 455.821C170.482 455.269 168.754 455.234 169.03 454.613C162.116 453.784 155.86 449.226 149.983 449.64C151.435 450.227 153.647 450.504 153.44 451.298C151.781 450.918 144.21 449.226 146.526 447.845C145.074 447.644 143.656 447.249 142.309 446.671C141.134 447.568 144.971 447.672 144.625 448.432C142.24 447.741 136.812 446.394 135.603 444.254C131.338 442.752 127.18 440.964 123.158 438.901C119.889 437.371 116.814 435.458 113.997 433.204C113.029 434.378 113.306 432.133 112.338 431.684C111.37 431.235 112.096 433.238 111.197 432.72C110.299 432.202 110.506 432.72 110.091 432.444C108.155 431.615 108.778 430.821 107.706 430.027C106.738 430.407 104.56 428.784 102.728 427.748C103.454 425.641 99.2713 424.847 97.5774 423.639C93.5123 420.914 89.6216 417.939 85.9279 414.73C82.16 411.553 78.392 408.756 75.7648 406.442C79.4291 410.655 81.5032 411 84.3378 414.868C87.474 416.556 90.4081 418.595 93.0836 420.945C95.9941 423.247 99.0671 425.336 102.279 427.195C101.864 427.782 102.59 428.404 102.521 429.025C101.726 429.025 100.481 428.369 99.7207 428.369C101.242 430.027 107.153 431.443 109.4 434.758C110.091 434.101 111.405 435.414 112.476 436.035C114.965 435.068 122.328 438.694 125.025 440.386C124.679 440.835 120.462 438.28 121.775 439.523C123.262 440.213 124.817 440.904 124.437 441.733C123.504 441.457 121.637 440.041 121.326 440.593C122.743 441.733 126.235 442.769 124.783 444.046C126.822 445.22 124.541 442.7 126.753 443.667C126.753 443.908 127.03 444.184 127.652 444.392C127.652 445.946 126.2 445.289 125.336 445.6C127.341 447.361 127.928 446.291 128.205 445.945C129.519 447.396 126.477 446.36 127.583 447.568C129.283 448.761 131.145 449.703 133.114 450.366C132.715 450.179 132.405 449.844 132.249 449.433C133.148 449.951 134.738 449.433 134.911 450.4C134.254 450.4 133.425 449.813 133.217 450.089C135.914 451.954 140.961 452.99 142.309 454.924C143.726 454.924 141.617 453.749 143.208 453.991C146.388 454.647 145.662 455.925 147.667 456.788C148.082 456.477 147.46 455.096 148.6 455.545C150.432 456.374 153.958 456.512 153.267 457.79C152.61 457.79 149.015 456.926 150.363 457.617C153.578 457.893 155.583 459.067 157.277 458.204C159.386 459.102 156.516 459.62 158.521 460.31C159.316 460.31 158.867 459.24 159.87 459.447C160.492 460.172 166.023 462.9 163.603 460.966C165.555 461.677 167.553 462.254 169.583 462.693C169.583 462.313 169.583 461.588 170.344 461.692C174.632 462.94 179.031 463.773 183.48 464.178C187.732 464.661 191.811 465.214 195.89 465.973C196.166 465.49 195.129 465.179 195.89 465.11C198.422 465.973 201.17 465.973 203.702 465.11C203.702 465.525 203.426 465.732 203.115 465.973C205.579 465.765 208.061 466.059 210.408 466.837C208.853 467.976 205.984 466.837 205.292 468.701C209.233 468.701 210.962 466.353 215.455 467.009C216.216 466.388 214.004 465.87 215.455 465.835C216.009 466.074 216.612 466.177 217.213 466.135C217.815 466.093 218.397 465.907 218.912 465.594C218.912 466.595 220.606 466.595 221.747 466.94C226.172 465.628 230.596 467.355 234.572 465.317C236.819 465.317 239.308 465.317 241.9 465.317C244.493 465.317 247.155 464.627 249.747 464.178C254.331 463.358 258.848 462.204 263.263 460.725C263.92 461.415 266.375 460.31 266.34 461.519C269.209 459.689 271.387 461.001 273.254 459.136C272.562 459.136 271.94 459.378 272.009 458.86C273.202 458.327 274.44 457.899 275.708 457.582C275.915 457.997 275.95 458.549 277.056 458.135C278.266 455.856 283.14 456.443 285.802 456.029C285.802 455.407 284.903 455.649 284.454 455.476C286.528 454.785 290.227 453.093 291.367 454.371C290.123 455.165 289.086 453.888 288.602 455.062C289.362 455.062 289.432 455.476 289.95 455.511C295.285 452.293 301.028 449.807 307.027 448.121C308.375 447.603 308.617 446.394 309.205 446.153C310.795 445.462 312.662 446.153 315.116 444.254C314.667 444.564 315.842 443.943 317.155 443.252C317.639 443.01 322.617 439.799 324.484 440.282C325.037 440.8 320.751 442.596 322.375 442.285C323.596 441.387 324.965 440.709 326.42 440.282C325.832 439.695 326.42 439.108 327.146 438.659C327.868 438.18 328.701 437.895 329.565 437.831C328.286 439.177 326.109 440.386 325.832 441.56C328.805 439.661 333.61 434.965 334.647 437.485C334.647 437.209 335.304 436.657 335.615 436.898C334.025 438.729 335.131 438.763 333.783 440.352C336.145 437.809 339.019 435.797 342.217 434.447C345.351 433.226 347.932 430.905 349.477 427.92C349.892 428.3 349.477 428.853 349.719 429.233C351.136 428.197 350.445 427.506 352.553 426.367C352.795 426.884 353.452 426.367 353.729 426.954C354.818 426.153 355.775 425.185 356.563 424.087C354.627 425.71 353.383 425.883 352.484 425.331C355.941 423.397 356.39 421.256 360.055 420.289C358.084 421.463 359.26 422.016 357.289 423.19C358.153 423.362 358.568 424.502 360.193 423.19C359.986 422.81 359.363 422.465 359.916 421.947C360.4 423.155 366.83 419.046 369.077 416.836C368.8 415.593 367.452 417.147 367.072 416.284C368.104 415.769 369.03 415.067 369.803 414.212C369.388 415.524 369.596 415.213 370.563 415.904C372.084 414.833 370.563 414.661 371.67 413.694C372.361 414.557 374.297 412.105 375.126 412.451C376.302 410.033 377.408 410.102 377.685 410.897C378.722 408.825 379.551 408.445 380.001 406.718C381.107 406.477 380.243 407.029 380.83 407.547C381.61 406.41 382.703 405.523 383.976 404.992C384.391 404.163 384.391 403.404 384.736 402.54C385.877 402.195 386.465 400.952 385.774 402.54C390.509 398.224 389.23 394.46 391.927 392.664C390.544 391.007 392.895 389.591 394.9 388.452C394.9 387.45 393.067 388.866 393.966 387.727C395.475 386.868 396.683 385.566 397.423 383.997C398.46 384.204 397.596 385.275 397.907 385.793C398.287 384.515 399.808 383.376 399.739 382.892C399.282 383.368 398.668 383.662 398.011 383.721C398.806 382.685 398.598 382.098 399.808 380.82L400.534 381.373C402.124 376.573 407.275 371.98 407.448 369.529C408.312 367.906 408.796 368.976 409.522 368.182C409.356 368.097 409.172 368.053 408.986 368.053C408.8 368.053 408.616 368.097 408.45 368.182C408.831 366.801 414.085 362.174 410.939 364.384C412.426 362.174 413.843 362.07 414.085 360.344C413.324 361.448 412.737 361.069 413.324 359.895C413.324 360.827 413.912 360.758 414.673 359.377C414.719 358.386 414.953 357.413 415.364 356.511C415.364 358.203 417.162 354.508 417.369 353.714C417.092 354.059 416.781 354.68 416.539 354.542C416.989 353.506 418.026 350.606 419.097 350.157C419.305 350.64 418.06 352.056 418.475 352.401C419.892 350.986 419.409 350.019 420.238 348.223C422.312 348.223 421.552 342.595 423.695 343.009C422.541 344.624 421.848 346.522 421.69 348.499C421.31 350.157 420.895 351.573 419.167 352.194C420.584 353.057 418.752 354.232 417.887 356.683C419.028 356.683 418.06 357.788 418.337 358.237C419.892 356.062 418.89 356.649 418.994 355.958C419.097 355.267 420.134 354.197 420.653 354.922C420.342 355.509 419.754 356.303 420.031 356.545C421.033 354.37 421.932 353.506 422.831 353.472C423.336 352.055 424.021 350.709 424.87 349.466C426.02 347.404 427.036 345.27 427.912 343.078C427.912 341.904 426.737 343.423 427.325 341.559C431.749 335.309 432.441 328.195 434.826 322.947C434.411 321.565 432.89 323.361 433.754 320.771C434.619 319.563 435.068 320.15 435.621 320.771C436.312 315.453 439.078 312.795 440.668 307.339C438.94 304.404 443.191 297.394 442.085 293.526C442.039 296.016 441.218 298.43 439.735 300.432C439.251 298.084 440.495 291.627 442.224 292.836C441.947 289.624 444.782 287.449 443.261 285.929C445.369 285.688 446.303 279.265 446.234 275.57C446.234 276.123 446.683 274.776 446.856 273.36C447.305 269.631 447.927 265.453 448.377 261.344C448.586 258.239 448.586 255.124 448.377 252.02C448.73 251.942 449.095 251.942 449.448 252.02C449.172 248.567 448.93 245.114 448.688 241.661C448.731 241.697 448.787 241.717 448.843 241.717C448.9 241.717 448.955 241.697 448.999 241.661C448.673 240.36 448.476 239.03 448.411 237.69C448.411 236.55 448.204 235.376 448.135 234.237C448.746 232.45 449.129 230.594 449.276 228.712C449.276 229.817 450.14 229.368 450.001 230.922C449.462 233.398 449.753 235.983 450.831 238.277C450.658 239.451 450.347 239.485 449.967 238.864C450.693 245.494 449.759 250.432 451.004 256.509C450.001 254.99 449.967 262.069 451.004 260.515C450.029 265.018 449.302 269.572 448.826 274.154C448.584 276.572 448.446 278.989 448.377 281.268C448.377 282.407 448.377 283.512 448.377 284.721C448.377 285.929 448.377 286.758 448.377 287.656C448.757 284.824 450.416 279.852 449.621 277.297C450.693 278.782 450.209 274.811 449.621 274.396H450.485C452.214 262.008 452.999 249.506 452.836 236.999ZM370.183 77.3285C371.186 76.8796 371.808 78.3645 372.188 79.1587C371.6 79.573 370.287 77.7084 370.183 77.3285ZM127.721 432.789C127.721 431.27 130.245 433.514 130.452 433.1C131.662 434.24 128.965 433.583 127.721 432.789ZM144.487 442.631C145.213 441.111 146.111 443.114 147.943 443.597C147.702 444.15 145.593 442.838 144.487 442.631ZM148.669 438.211C148.911 437.451 151.193 438.211 151.711 438.97C151.608 439.557 149.603 438.349 148.669 438.211ZM184.897 453.059C185.603 452.9 186.335 452.9 187.04 453.059C187.04 453.473 187.04 453.888 187.49 453.991C187.006 454.613 184.136 453.819 184.897 453.059ZM201.835 456.305C201.49 455.476 202.907 455.752 202.942 455.2C198.759 454.164 194.334 454.785 193.021 452.403C195.64 453.082 198.398 452.998 200.971 452.161C201.663 452.472 201.974 452.99 203.045 453.128C202.216 453.784 201.732 453.542 200.384 453.128C200.764 454.267 202.181 454.924 204.566 455.096C204.878 456.374 203.668 456.512 201.835 456.167V456.305ZM430.747 294.01C431.404 294.01 430.401 295.909 430.367 296.703C430.167 296.411 430.026 296.082 429.952 295.736L430.539 294.32C430.539 294.32 430.678 294.355 430.747 294.148V294.01ZM426.011 331.994C425.276 333.302 424.64 334.664 424.11 336.068C423.28 336.724 422.347 335.792 423.488 333.962C424.386 336.172 424.386 331.614 426.011 331.856V331.994ZM284.281 440.49C284.281 441.215 281.585 441.664 280.409 442.113C280.824 440.49 282.172 441.111 284.212 440.455L284.281 440.49ZM256.834 452.714C254.274 452.814 251.71 452.744 249.16 452.506C250.681 450.953 253.826 451.643 256.937 450.642C256.903 451.298 256.315 451.816 256.834 452.714ZM240.587 452.921C240.206 453.922 238.789 452.921 238.443 452.921C238.201 452.265 239.93 452.506 239.93 451.954C241.762 451.609 238.72 453.093 240.587 452.886V452.921ZM246.982 452.541C246.74 453.266 245.357 453.577 245.115 454.302C244.251 453.542 240.552 454.958 240.172 453.853C242.592 454.337 244.182 452.299 246.982 452.506V452.541ZM243.041 448.363C241.065 448.931 239.056 449.381 237.026 449.709C235.782 448.19 238.236 447.672 241.278 446.912C244.32 446.153 248.192 445.738 249.471 445.324C251.752 445.738 252.409 446.843 249.471 447.707C249.471 447.465 249.955 447.361 249.885 447.051C246.532 447.534 244.7 447.914 243.041 448.328V448.363ZM238.029 453.128C234.191 454.129 225.238 454.164 227.347 452.61C230.043 453.715 233.535 452.23 238.029 453.128ZM252.374 446.222C252.063 445.497 253.308 445.289 254.241 445.013C254.31 445.807 253.273 446.705 252.305 446.325L252.374 446.222ZM256.281 437.347C252.824 437.865 249.125 438.211 246.325 438.59C245.15 439.074 246.947 439.799 248.019 439.488C247.673 440.386 245.91 439.764 245.046 439.972C245.046 439.454 245.564 439.281 245.357 438.729C245.15 438.176 242.903 439.005 241.9 439.005C245.076 437.202 248.624 436.15 252.271 435.932L258.389 435.275C260.533 434.896 262.814 434.378 265.303 433.687C265.303 434.101 265.303 434.516 266.029 434.412C264.616 435.118 263.148 435.707 261.639 436.173L259.115 436.898L256.281 437.347ZM138.748 402.54C138.962 402.474 139.191 402.474 139.405 402.54C139.405 402.54 139.405 402.54 139.405 402.747C139.013 402.694 138.629 402.59 138.264 402.437C138.386 402.515 138.513 402.584 138.645 402.644L138.748 402.54ZM111.094 390.765L110.644 391.18L110.229 390.972L110.437 390.662L110.679 390.351L111.094 390.765ZM199.589 68.1433C199.069 68.5887 198.407 68.8336 197.722 68.8339H197.307C196.782 68.7297 196.242 68.7297 195.717 68.8339C196.852 68.3146 198.106 68.1117 199.347 68.2469L199.589 68.1433ZM440.599 183.822C440.765 184.197 440.828 184.609 440.779 185.016C440.73 185.424 440.573 185.81 440.322 186.135C439.908 184.616 439.804 182.958 439.32 181.439C439.265 181.166 439.265 180.884 439.32 180.61C440.184 183.994 438.87 183.718 440.357 183.925L440.599 183.822ZM441.29 186.55C441.498 187.551 441.636 188.276 441.774 188.898H441.601C441.394 188.622 441.221 188.345 441.048 188.069C440.564 187.24 440.357 186.446 441.048 186.826L441.29 186.55ZM439.424 259.651C439.505 259.131 439.381 258.598 439.078 258.167C439.139 256.999 439.324 255.842 439.631 254.714C439.838 255.059 440.011 255.439 440.219 255.819C440.209 255.158 440.14 254.499 440.011 253.85V253.609V253.125C440.022 253.008 440.058 252.894 440.118 252.793C440.178 252.691 440.259 252.604 440.357 252.538C440.357 253.574 441.152 253.574 440.806 255.301C438.525 257.58 439.873 256.406 439.182 259.755L439.424 259.651ZM257.525 71.2166C257.425 71.2742 257.312 71.3045 257.197 71.3045C257.081 71.3045 256.968 71.2742 256.868 71.2166L257.56 71.0439C257.56 71.0439 257.56 71.2166 257.525 71.2166ZM398.426 127.018C397.527 127.018 396.732 126.708 396.697 125.603C397.303 126.037 397.881 126.51 398.426 127.018ZM438.525 242.87L438.317 240.211C438.302 240.142 438.302 240.072 438.317 240.003C438.626 239.321 439.087 238.719 439.666 238.242C439.666 239.14 439.666 240.072 439.666 240.936C439.712 242.879 439.886 244.816 440.184 246.737C439.7 246.737 439.147 246.737 439.251 247.807C439.666 247.807 440.322 247.807 440.391 248.36C440.267 249.736 439.904 251.079 439.32 252.331C438.776 249.207 438.51 246.041 438.525 242.87ZM439.596 235.135V235.583C439.586 235.438 439.623 235.293 439.7 235.169L439.596 235.135ZM410.87 140.624C410.714 140.466 410.595 140.274 410.525 140.063C410.454 139.852 410.433 139.628 410.464 139.408C410.494 139.187 410.574 138.977 410.698 138.793C410.823 138.608 410.988 138.455 411.181 138.345C411.181 138.345 411.181 138.345 411.389 138.345C412.413 139.611 413.327 140.962 414.12 142.385C413.048 142.523 412.322 141.936 410.87 140.624ZM409.902 136.618C409.428 136.48 408.994 136.229 408.639 135.886C408.283 135.543 408.017 135.119 407.863 134.65C408.624 135.266 409.351 135.923 410.04 136.618H409.902ZM438.663 258.754C438.783 259.451 438.783 260.163 438.663 260.86C438.732 260.169 438.767 259.341 438.801 258.754H438.663ZM445.438 207.959C445.611 207.544 445.819 207.096 446.026 206.681C446.138 207.393 445.977 208.12 445.577 208.718C445.438 208.477 445.438 208.201 445.438 207.959ZM444.782 202.537C444.764 202.354 444.764 202.169 444.782 201.985C445.04 202.304 445.239 202.667 445.369 203.055C445.111 202.924 444.877 202.749 444.678 202.537H444.782ZM443.019 196.598C442.293 198.187 443.33 200.051 443.848 200.051C443.848 200.742 443.572 200.984 443.364 201.018C443.157 201.053 442.88 200.397 442.638 200.086C442.396 199.775 442.638 199.671 442.638 199.499C442.366 199.163 442.065 198.851 441.74 198.566C441.567 198.256 441.394 197.979 441.325 197.807C441.256 197.634 441.774 196.46 442.5 196.529C442.684 196.51 442.869 196.51 443.053 196.529L443.019 196.598ZM438.905 180.818C438.857 180.625 438.857 180.423 438.905 180.231C438.88 180.428 438.846 180.624 438.801 180.818H438.905ZM202.7 68.9721C202.383 68.9487 202.076 68.8543 201.801 68.6958L202.7 68.9721ZM272.908 441.077C273.323 442.32 271.352 441.353 269.97 442.182C270.488 441.284 271.56 441.215 272.908 441.077ZM386.188 386.829C386.741 387.796 384.667 388.452 383.457 390.282C383.112 389.902 382.559 390.282 382.213 389.936C383.439 388.78 384.77 387.739 386.188 386.829ZM388.885 383.376C389.161 383.686 389.472 383.963 389.922 383.376C390.579 383.928 388.401 386.173 387.606 386.483C387.191 385.827 387.709 384.722 388.885 383.341V383.376ZM431.611 291.454C431.611 291.454 431.819 291.454 431.888 291.662C431.577 292.456 431.438 292.525 431.265 292.387C431.093 292.249 431.611 291.765 431.611 291.454ZM438.041 269.7C438.041 269.286 438.041 268.837 437.868 268.457C438.038 268.311 438.224 268.184 438.421 268.077C438.357 268.631 438.229 269.175 438.041 269.7ZM439.112 266.247C438.971 265.401 438.879 264.548 438.836 263.692C439.016 262.812 439.295 261.955 439.666 261.136C439.486 262.811 439.394 264.494 439.389 266.178L439.112 266.247ZM446.026 218.318C446.29 216.88 446.29 215.405 446.026 213.967C447.651 214.589 446.994 218.491 446.026 219.872V218.318ZM445.577 210.065C446.177 211.051 446.544 212.162 446.648 213.311C445.68 213.725 445.438 210.721 445.646 209.823L445.577 210.065ZM441.394 182.682L440.288 182.993C439.838 182.061 440.495 180.472 439.562 180.265C439.354 178.366 440.288 180.714 440.53 180.541C440.703 179.851 440.322 179.402 439.838 178.884C440.029 178.717 440.202 178.532 440.357 178.331C441.185 179.535 441.575 180.985 441.463 182.44L441.394 182.682ZM439.251 173.014C438.87 173.014 438.663 171.978 438.421 171.183C438.568 171.154 438.706 171.092 438.825 171.003C438.945 170.913 439.043 170.798 439.112 170.665C439.977 172.288 439.112 172.15 439.251 173.014ZM434.48 167.558C434.561 167.518 434.65 167.497 434.74 167.497C434.829 167.497 434.918 167.518 434.999 167.558C435.493 167.85 435.918 168.245 436.246 168.715C436.574 169.186 436.797 169.721 436.9 170.286C436.976 170.534 437.133 170.751 437.346 170.901C437.559 171.051 437.815 171.126 438.075 171.114C438.119 171.631 438.119 172.151 438.075 172.668C437.799 172.668 437.868 173.221 437.661 173.393C436.935 170.873 435.552 171.736 437.246 172.945L437.453 173.98C436.521 174.032 435.586 174.032 434.653 173.98C434.377 173.98 433.962 173.255 434.031 172.945C434.1 172.634 434.999 171.287 434.861 170.596C434.722 169.906 433.72 169.215 433.927 168.179C433.974 168.048 434.047 167.929 434.142 167.828C434.237 167.727 434.352 167.646 434.48 167.592V167.558ZM424.697 149.325C424.537 149.244 424.359 149.201 424.179 149.201C423.999 149.201 423.821 149.244 423.66 149.325C423.469 148.875 423.25 148.436 423.004 148.013C423.004 147.633 423.004 147.288 423.004 146.943C423.384 147.564 424.041 148.497 424.697 149.325ZM386.983 97.8053L387.64 98.5995V98.8413C386.396 98.5995 385.843 96.9766 385.117 95.3882C385.67 96.2514 386.292 97.0457 386.983 97.8053ZM366.934 91.4171C367.041 91.5114 367.124 91.6298 367.176 91.7624L366.45 91.4517C366.514 91.3905 366.597 91.3536 366.686 91.3473C366.774 91.341 366.862 91.3657 366.934 91.4171ZM191.43 69.421C191.448 69.6624 191.448 69.9047 191.43 70.1461C191.666 70.1501 191.898 70.0831 192.095 69.9538C192.293 69.8245 192.446 69.6388 192.537 69.421H195.371C194.973 70.1298 194.387 70.7153 193.677 71.113C192.537 71.8381 191.776 71.4238 191.396 70.2497C190.977 70.3356 190.57 70.4749 190.186 70.6641C188.388 71.5964 187.732 71.5619 186.729 70.3188C188.242 69.7858 189.827 69.4831 191.43 69.421ZM177.949 71.5619C179.429 71.2704 180.934 71.1201 182.443 71.113C182.01 71.4518 181.47 71.6235 180.922 71.5964C180.472 71.5964 179.85 71.5964 179.608 71.8727C178.052 73.8754 175.564 72.218 173.835 73.4611C173.67 73.633 173.467 73.7646 173.242 73.8456C173.017 73.9266 172.777 73.9548 172.54 73.9281C172.302 73.9014 172.074 73.8205 171.873 73.6916C171.672 73.5627 171.504 73.3893 171.381 73.1848C173.531 72.5132 175.726 71.9939 177.949 71.6309V71.5619ZM62.9746 349.501C62.9746 349.501 62.5943 348.81 62.6634 348.465C62.6855 348.271 62.7704 348.089 62.9054 347.947L63.2511 347.463C63.4716 347.783 63.6462 348.132 63.7696 348.499C63.8388 349.121 63.7696 349.673 62.9746 349.501ZM69.3351 366.766C69.3351 367.077 68.8512 367.284 68.6092 367.56C68.3672 367.837 68.1944 367.215 68.1944 367.043C68.1944 366.87 68.1944 365.834 68.1944 365.212L67.261 364.763C67.2244 364.616 67.2244 364.462 67.261 364.315C68.0215 364.315 68.0561 364.729 68.1252 365.212C69.0931 365.316 69.6117 365.834 69.3351 366.87V366.766ZM73.5179 370.565L72.4463 369.943C72.8265 369.736 73.2068 369.391 73.587 369.425C73.9673 369.46 74.313 369.805 74.6932 370.012L73.5179 370.565ZM76.2834 373.534C76.2834 374.052 76.2834 374.57 75.4537 374.432C75.4537 374.432 75.4537 374.018 75.4537 373.983L76.3525 373.534C76.2585 373.132 76.2596 372.714 76.3556 372.312C76.4516 371.911 76.6399 371.537 76.9056 371.221C77.3204 370.841 78.6686 370.841 78.6686 371.221C78.6489 371.58 78.5292 371.927 78.3229 372.222C77.8044 372.844 77.355 373.603 76.3525 373.534H76.2834ZM81.7797 374.812C80.8118 377.022 78.7723 378.748 78.5649 381.338C78.2077 381.571 77.7744 381.658 77.355 381.58C77.0439 381.58 76.4908 380.958 76.5599 380.751C77.218 378.15 78.3936 375.707 80.0167 373.569C80.0167 373.569 80.8464 373.569 81.2958 373.569L81.6414 373.88C81.7451 374.501 81.8489 374.743 81.7797 374.916V374.812ZM102.521 392.077C102.279 392.595 101.933 392.803 101.415 392.63C101.479 392.379 101.62 392.154 101.818 391.987C102.016 391.819 102.262 391.718 102.521 391.698C103.696 391.49 104.18 392.215 104.076 393.251C104.076 393.251 104.076 393.493 104.076 393.597C104.076 393.7 103.212 392.733 102.486 392.077H102.521ZM111.128 394.218V393.942H111.405L111.128 394.218ZM157.83 430.614C153.541 428.424 148.986 426.799 144.279 425.779C142.536 424.896 140.851 423.904 139.232 422.81L138.645 422.43L140.995 422.948C142.896 423.328 144.694 423.742 146.561 424.295C148.57 424.82 150.535 425.501 152.437 426.332C155.894 424.778 160.872 430.994 164.191 430.51C162.877 428.404 168.477 430.096 171.692 430.51C171.208 431.443 171.692 432.651 171.692 434.378C166.923 433.75 162.261 432.484 157.83 430.614ZM222.507 441.457C223.544 440.8 224.167 442.147 225.964 441.836C225.964 441.56 225.342 441.836 224.962 441.629C224.581 441.422 226.448 441.422 226.414 440.939C225.826 440.317 223.268 440.939 221.92 440.939C223.959 439.454 228.833 439.592 230.7 438.659C230.83 438.766 230.935 438.901 231.007 439.053C231.079 439.205 231.117 439.372 231.117 439.54C231.117 439.708 231.079 439.875 231.007 440.027C230.935 440.179 230.83 440.314 230.7 440.421C231.219 441.387 231.806 440.421 232.74 440.87C234.088 440.421 231.115 440.386 231.599 439.488C235.401 439.212 236.3 439.488 237.959 438.487C239.584 438.729 237.959 438.97 240.932 438.487C241.451 440.421 237.821 439.419 236.646 440.179C238.478 441.422 242.903 438.176 243.214 440.179C241.564 440.365 239.925 440.642 238.305 441.008L233.051 441.802C229.545 442.331 225.971 442.214 222.507 441.457ZM223.648 453.404C223.164 454.337 224.858 453.888 225.791 453.888C223.253 454.388 220.67 454.631 218.083 454.613C214.902 454.613 211.411 454.337 208.3 454.613C211.999 452.368 218.048 454.44 223.648 453.404ZM206.675 455.338C208.968 455.648 211.276 455.832 213.589 455.89C210.581 454.44 220.26 455.2 221.055 455.89C218.343 456.558 215.531 456.722 212.759 456.374C210.346 456.064 207.896 456.205 205.534 456.788C205.154 455.821 206.433 455.89 206.675 455.338ZM205.016 457.928C205.465 456.926 206.882 457.651 207.712 457.928C207.539 458.722 205.327 458.1 205.016 457.928ZM241.485 459.62V458.687L240.759 458.895L237.303 459.413C234.779 459.723 232.117 460 229.386 460.172C223.894 460.709 218.356 460.569 212.897 459.758C212.275 459.758 212.517 460.31 211.791 460.31C210.692 460.148 209.606 459.906 208.542 459.585C208.542 458.687 211.238 459.205 212.897 459.171C212.897 458.756 212.897 458.342 212.344 458.273C219.809 458.411 227.266 457.704 234.572 456.167C236.128 456.219 237.652 456.62 239.031 457.341C240.552 456.961 238.582 456.408 238.824 455.89C240.172 455.58 241.451 456.754 242.073 455.89C243.663 455.89 242.73 456.236 242.764 456.995C244.796 456.197 246.922 455.663 249.09 455.407C249.471 454.371 247.362 455.407 246.325 455.407C248.432 454.249 250.875 453.859 253.239 454.302C253.861 455.338 251.095 456.581 254.172 456.201C251.994 457.617 245.495 456.616 244.562 458.031C248.745 458.031 255.831 455.925 258.389 457.306C252.755 459.136 247.604 458.239 241.485 459.62ZM266.167 452.714C266.167 452.196 265.407 452.265 265.372 451.712C267.377 450.883 267.17 452.161 269.175 451.332C268.794 451.747 267.031 452.023 266.167 452.714ZM280.375 447.396C273.98 448.397 268.483 450.055 261.984 451.367C261.984 451.85 263.782 451.091 264.197 451.367C264.197 452.299 261.12 452.714 260.982 451.816C259.634 452.645 259.565 452.921 260.36 453.991C257.974 453.37 257.456 452.645 258.32 451.954C260.24 450.992 262.308 450.361 264.439 450.089C263.886 449.778 262.676 450.089 261.708 450.089C261.258 449.26 264.024 449.26 264.058 448.57C264.784 448.57 264.681 449.191 264.888 449.571C269.831 447.983 270.142 447.776 275.535 446.118C276.572 447.016 278.162 445.428 279.51 446.118C280.824 445.497 277.748 446.118 279.13 445.013C282.829 444.254 282.587 445.013 286.424 443.252C286.217 442.423 283.244 444.771 283.624 443.252C285.747 442.903 287.76 442.063 289.501 440.8C289.666 441.026 289.756 441.298 289.756 441.577C289.756 441.857 289.666 442.129 289.501 442.354C290.849 441.94 290.987 441.353 290.572 440.697C291.223 440.28 291.964 440.024 292.734 439.952C293.504 439.88 294.28 439.993 294.997 440.282C293.338 443.459 283.382 444.944 280.375 447.223V447.396ZM328.425 434.481C328.425 432.962 330.533 432.824 331.882 431.443C332.193 432.168 329.427 433.307 328.425 434.309V434.481ZM343.669 431.235C342.805 433.411 342.874 430.856 341.422 431.961C341.422 431.546 342.494 431.028 343.185 430.51C343.393 430.89 343.566 431.27 344.153 430.959C344.257 431.097 343.773 431.201 343.669 431.063V431.235ZM341.941 426.815L343.808 425.607L344.326 426.332C343.358 426.643 342.252 427.368 341.941 426.643V426.815ZM344.119 425.089C343.738 424.433 345.259 423.5 346.435 422.637L346.953 423.328C346.144 424.109 345.178 424.71 344.119 425.089ZM343.324 423.673C340.42 425.676 337.482 427.541 335.961 428.818C336.168 427.644 338.622 425.745 341.63 423.708C344.637 421.67 347.852 419.15 350.03 417.388C348.065 419.704 345.812 421.758 343.324 423.5V423.673ZM364.065 419.288C363.028 418.666 362.889 418.666 363.166 417.388C364.065 417.147 365.724 417.63 363.892 419.115L364.065 419.288ZM365.724 416.871C365.24 416.871 364.514 417.458 364.237 416.871C364.756 416.871 365.275 416.525 365.136 416.18C365.655 415.835 365.828 416.353 366.381 415.869C366.381 416.249 366.381 416.629 366.381 416.905C365.931 417.147 364.894 417.285 365.551 416.698L365.724 416.871ZM373.64 412.865C373.64 412.451 374.539 411.725 375.126 411.104C374.85 410.897 374.193 411.622 373.675 412.036C373.156 412.451 374.262 410.172 372.88 411.207C372.88 410.482 375.23 410.31 375.991 410.31C374.401 411.587 375.334 411.691 373.467 412.692L373.64 412.865ZM383.665 395.6L384.322 396.187L382.42 398.258C381.452 397.74 383.215 396.428 383.492 395.53L383.665 395.6ZM386.776 399.053C387.122 397.706 386.188 398.742 385.186 399.916C384.771 398.638 387.675 397.464 388.85 396.463C389.127 396.843 387.156 398.224 386.672 399.087L386.776 399.053ZM388.47 391.49C388.318 392.953 387.798 394.354 386.958 395.562C386.118 396.77 384.985 397.745 383.665 398.397C384.045 396.774 387.502 394.564 386.292 392.457C389.749 389.28 391.927 386.138 393.828 384.86C393.478 386.32 392.797 387.68 391.839 388.835C390.88 389.991 389.668 390.911 388.297 391.525L388.47 391.49ZM398.46 380.026C396.524 382.202 395.453 382.72 394.658 384.93L393.482 384.032C395.798 381.925 397.527 378.196 400.189 375.744C400.05 377.436 397.769 378.507 398.287 380.199L398.46 380.026ZM421.241 344.045C420.273 344.045 420.895 342.767 419.892 342.767C420.757 342.215 421.517 339.314 422.416 340.212C421.828 339.072 423.937 336.759 424.836 335.136C423.107 338.451 422.9 341.731 421.241 344.045ZM421.621 353.783C421.206 353.541 420.757 353.783 420.273 354.37C419.754 353.99 420.446 352.85 421.206 351.642C421.206 352.781 421.932 351.642 421.967 352.678C422.623 351.78 423.349 349.501 423.902 350.433C422.986 351.428 422.229 352.558 421.655 353.783H421.621ZM424.697 347.636C424.697 345.841 425.458 345.495 426.46 344.183C426.599 345.668 425.769 346.117 424.697 347.636ZM426.737 326.918C426.57 325.961 426.728 324.977 427.186 324.121C428.154 324.224 427.567 326.296 426.772 326.849L426.737 326.918ZM426.253 319.045C426.253 317.594 427.014 317.076 427.463 314.832C428.327 315.074 426.944 318.354 426.288 318.976L426.253 319.045ZM429.191 307.304C429.986 308.064 428.396 309.376 428.465 311.102C427.29 311.137 429.018 308.478 429.226 307.235L429.191 307.304ZM429.191 316.524C429.033 314.443 429.243 312.35 429.814 310.343C429.986 311.241 429.502 314.141 430.747 311.206C431.611 312.242 429.606 314.59 429.088 316.455L429.191 316.524ZM433.374 292.559C432.698 295.852 432.454 299.218 432.648 302.573C432.406 303.816 431.68 302.919 431.369 303.92C432.925 303.437 431.853 307.373 431.127 310.17C430.194 309.687 429.675 309.687 429.606 309.134C430.215 308.179 430.495 307.051 430.401 305.923C429.364 307.235 429.917 304.093 429.26 303.886C429.71 302.85 429.986 302.919 430.263 303.609C430.643 299.535 432.614 294.838 432.925 290.798C433.236 290.798 433.34 291.869 433.754 290.798C432.544 291.42 434.031 288.968 433.305 289.037C432.89 289.624 432.683 289.417 432.544 289.037C432.959 287.794 433.374 286.551 433.72 285.273C434.791 284.894 433.201 287.587 433.962 287.587C434.411 285.204 436.485 281.579 435.448 280.681C434.826 283.029 434.895 284.134 433.754 285.135C433.769 285.067 433.769 284.996 433.754 284.928C434.238 282.856 434.619 280.715 434.93 278.505C435.382 278.482 435.811 278.298 436.14 277.987C436.478 278.637 436.68 279.349 436.733 280.079C436.787 280.809 436.69 281.543 436.451 282.235C435.923 283.686 435.643 285.215 435.621 286.758C435.475 287.08 435.265 287.368 435.003 287.606C434.742 287.843 434.434 288.025 434.1 288.139C434.468 290.533 434.279 292.979 433.547 295.287C432.51 295.391 433.858 292.87 433.27 292.49L433.374 292.559ZM433.374 319.701C434.273 317.871 433.651 316.938 434.688 315.971C435.967 315.661 434.169 320.668 433.236 319.632L433.374 319.701ZM434.791 314.797C436.001 314.003 437.004 311.724 438.248 311.759C437.177 313.692 436.105 315.661 434.653 314.59L434.791 314.797ZM447.927 218.698C448.204 217.835 448.204 221.046 448.515 223.152C447.098 222.531 447.374 219.976 447.789 218.629L447.927 218.698Z" fill="#231F33"/>
<path fill-rule="evenodd" clip-rule="evenodd" d="M127.41 43.0391C126.615 44.3167 121.222 45.9742 120.911 46.4922C121.914 46.3886 129 43.2808 127.41 43.0391Z" fill="#231F33"/>
<path fill-rule="evenodd" clip-rule="evenodd" d="M243.836 2.87967C243.49 2.18905 240.621 2.56889 240.379 1.94733C244.043 1.15312 246.429 3.67388 250.127 4.01918C250.127 3.67388 250.127 3.15591 250.784 3.22497C251.258 3.74631 251.792 4.20993 252.374 4.60621C256.315 4.43356 263.644 6.78165 266.928 5.74573C266.098 5.08964 262.71 4.81339 264.854 4.15731C261.984 3.57028 264.37 4.95152 262.918 5.02058C262.918 4.77886 262.468 4.60621 261.811 4.53715C262.849 3.3631 258.044 3.74294 256.142 2.8106C254.656 2.8106 257.076 3.812 255.416 3.88106C254.241 2.70701 251.96 2.18905 251.96 3.3631C252.305 2.98326 247.327 2.87967 249.159 2.08546C245.737 1.44752 242.269 1.07806 238.789 0.980469C239.238 2.05093 238.789 1.70562 239.273 2.77607C241.485 2.29264 242.315 3.22497 243.836 2.87967Z" fill="#231F33"/>
<path fill-rule="evenodd" clip-rule="evenodd" d="M310.034 47.4593C311.486 48.0837 312.99 48.5806 314.528 48.9442C313.387 48.219 310.622 47.045 310.034 47.4593Z" fill="#231F33"/>
<path fill-rule="evenodd" clip-rule="evenodd" d="M331.363 48.702C330.844 49.5998 328.632 47.7697 327.526 47.8042C328.252 48.702 332.469 49.9106 331.363 48.702Z" fill="#231F33"/>
<path fill-rule="evenodd" clip-rule="evenodd" d="M346.4 39.759C346.677 39.3447 347.887 40.4497 348.198 40.1734C347.334 39.7936 347.092 38.2052 348.198 38.8612C348.82 39.7936 349.546 39.172 351.067 39.5173C348.232 38.585 344.153 35.8225 342.874 36.3405C345.19 36.7203 347.748 39.172 346.4 39.759Z" fill="#231F33"/>
<path fill-rule="evenodd" clip-rule="evenodd" d="M347.645 68.7988C346.919 69.3859 347.99 70.2146 349.235 71.0779C348.924 69.6621 351.862 72.4936 350.583 71.0779C349.511 70.3182 348.924 70.5599 349.062 69.593C349.304 69.7657 349.684 69.7657 349.062 69.3513C348.621 69.477 348.154 69.477 347.714 69.3513C347.956 69.1787 348.025 69.006 347.645 68.7988Z" fill="#231F33"/>
<path fill-rule="evenodd" clip-rule="evenodd" d="M351.482 72.3905C353.901 75.222 356.805 79.8492 359.847 80.2635C359.571 79.9528 359.087 79.5729 359.26 79.3657C360.504 80.3326 361.23 79.9182 362.716 81.7138C363.339 81.2304 362.405 80.4017 361.714 79.642C359.778 78.7442 352.795 74.1516 353.418 72.3905C352.795 72.3905 352.104 72.0107 351.482 72.3905Z" fill="#231F33"/>
<path fill-rule="evenodd" clip-rule="evenodd" d="M371.773 62.5146C372.534 64.3793 378.445 67.5562 378.41 69.6625C379.413 70.5949 380.001 70.4222 381.141 71.7689C380.623 71.7689 380.035 71.7689 379.517 71.7689C380.476 72.3929 381.388 73.0853 382.248 73.8408C383.146 74.6695 384.01 75.5673 384.875 76.4996C386.638 78.3988 388.332 80.5052 390.164 82.6116C393.428 86.6344 397.011 90.3875 400.88 93.8341C401.226 97.2872 406.065 98.3922 405.616 100.982C406.065 100.119 405.823 100.326 406.756 100.084C403.956 97.9704 402.065 94.8719 401.467 91.417C401.467 91.417 401.467 91.2443 401.467 90.9335C401.417 91.0908 401.417 91.2598 401.467 91.417C401.779 91.6587 403.542 91.1407 403.611 93.0399C404.579 93.2471 403.611 91.1407 404.51 92.2803C404.807 93.343 405.015 94.4287 405.132 95.5262C405.93 96.3763 406.785 97.1723 407.69 97.9088C407.482 98.185 406.964 98.3577 407.344 98.9102C408.381 97.4599 409.453 101.017 410.006 101.949C410.213 100.499 408.105 97.9088 408.485 96.5276C407.379 96.7347 407.724 95.7679 406.48 94.4212C406.687 94.1104 407.206 93.9723 406.826 93.3852C406.445 92.7982 405.719 90.899 404.095 90.3465C404.717 91.417 404.509 91.6242 403.784 91.3825C402.401 88.7926 399.67 86.7553 398.529 83.6475C397.112 84.5453 396.282 82.439 395.072 80.6088C394.658 80.8505 394.416 81.5066 393.793 80.9887C393.171 80.4707 393.586 79.6074 393.482 78.9168C394.104 79.6765 396.213 81.0577 395.314 79.5729C394.623 80.0909 392.756 76.4651 392.1 76.9831C392.998 77.8809 393.206 78.5024 392.653 78.8823C392.238 77.3284 391.374 78.3988 390.095 76.5342C389.403 76.914 388.746 77.4665 387.848 77.1557C387.848 75.0839 385.255 75.2565 383.907 73.7026C383.293 72.4872 383.052 71.1177 383.215 69.7661C381.729 68.6611 381.487 68.1432 380.865 68.0051C381.694 68.8683 381.21 69.3863 381.383 70.0424C378.943 68.492 376.781 66.5426 374.988 64.2757C374.341 64.3129 373.696 64.1674 373.128 63.856C372.559 63.5446 372.09 63.0798 371.773 62.5146ZM394.588 84.2346C395.433 84.7042 396.164 85.3524 396.732 86.1338C396.421 87.6531 394.623 83.7511 394.312 85.236C393.897 84.8561 394.381 84.6489 394.588 84.3727V84.2346Z" fill="#231F33"/>
<path fill-rule="evenodd" clip-rule="evenodd" d="M369.388 87.4798C369.862 88.255 370.011 89.1855 369.803 90.0697C370.633 91.2437 370.944 90.415 371.67 91.1746C371.289 91.52 371.393 92.0034 371.67 92.5559C372.707 90.8293 370.01 89.5172 370.46 87.8252C370.356 88.1014 369.803 87.3417 369.388 87.4798Z" fill="#231F33"/>
<path fill-rule="evenodd" clip-rule="evenodd" d="M430.954 147.633C430.747 144.664 432.89 148.497 433.098 146.632C432.095 146.943 431.231 144.94 430.263 144.802C431.611 146.563 430.021 146.148 430.954 147.633Z" fill="#231F33"/>
<path fill-rule="evenodd" clip-rule="evenodd" d="M431.611 157.751C431.196 157.751 430.816 157.233 430.332 157.751C430.989 159.236 430.505 159.753 430.505 160.686C430.816 160.444 432.026 163.138 431.715 161.411C430.228 159.443 432.06 159.201 431.611 157.751Z" fill="#231F33"/>
<path fill-rule="evenodd" clip-rule="evenodd" d="M415.744 360.343C416.747 359.653 418.302 359.825 417.887 359.584C418.302 358.064 416.366 359.031 415.744 360.343Z" fill="#231F33"/>
<path fill-rule="evenodd" clip-rule="evenodd" d="M397.043 387.105C395.625 388.866 393.828 389.66 393.897 391.179C394.899 390.558 396.904 388.693 396.559 390.385C396.87 388.935 401.018 386.242 400.016 386.414C398.771 387.105 395.833 389.349 397.043 387.105Z" fill="#231F33"/>
<path fill-rule="evenodd" clip-rule="evenodd" d="M417.058 409.861C417.058 410.517 417.058 410.482 416.712 412.899C418.406 410.586 419.927 408.341 418.959 407.236C418.475 408.031 416.505 409.515 417.058 409.861Z" fill="#231F33"/>
<path fill-rule="evenodd" clip-rule="evenodd" d="M344.741 437.692C343.946 438.314 343.22 438.107 343.254 438.59C345.294 438.003 341.595 440.11 341.768 440.558C343.082 440.144 346.227 438.003 345.571 437.865C343.531 439.177 344.292 438.452 344.741 437.692Z" fill="#231F33"/>
<path fill-rule="evenodd" clip-rule="evenodd" d="M278.301 464.799C279.13 464.799 280.444 464.488 280.79 465.041C278.162 465.869 273.876 465.282 275.189 466.526C275.985 465.628 278.646 465.973 279.372 466.318C279.822 465.524 284.972 463.176 283.417 463.694C280.997 464.937 279.096 463.867 278.301 464.799Z" fill="#231F33"/>
<path fill-rule="evenodd" clip-rule="evenodd" d="M264.784 465.559C264.784 466.94 262.676 468.494 265.026 469.012C264.75 468.494 265.683 468.322 265.96 467.907C264.162 467.596 264.37 465.87 267.723 465.352C268.034 464.316 265.891 465.421 264.784 465.559Z" fill="#231F33"/>
<path fill-rule="evenodd" clip-rule="evenodd" d="M254.863 468.425C253.723 468.908 256.177 469.426 255.831 470.358L253.55 470.738L253.273 469.288C251.545 470.496 248.157 470.704 249.574 471.636C249.084 471.515 248.571 471.518 248.082 471.645C247.594 471.771 247.144 472.017 246.774 472.361C251.199 472.119 252.305 470.842 255.935 470.945C255.935 470.565 255.935 470.22 256.972 470.151C255.313 469.668 256.868 468.355 254.863 468.425Z" fill="#231F33"/>
<path fill-rule="evenodd" clip-rule="evenodd" d="M230.354 484.999C231.495 485.379 234.399 484.723 233.5 486.277C238.029 485.862 231.772 483.79 230.354 484.999Z" fill="#231F33"/>
<path fill-rule="evenodd" clip-rule="evenodd" d="M206.398 469.392C206.993 469.523 207.564 469.745 208.092 470.048C214.418 469.979 207.643 469.357 206.398 469.392Z" fill="#231F33"/>
<path fill-rule="evenodd" clip-rule="evenodd" d="M202.942 470.703C203.426 471.601 206.018 471.947 207.505 471.808C207.055 471.152 205.016 470.634 206.364 469.978C204.058 469.746 201.73 469.839 199.45 470.255C201.11 471.325 197.756 471.256 198.828 471.67C199.948 471.284 201.165 471.284 202.285 471.67C203.08 471.152 202.077 470.945 202.942 470.703Z" fill="#231F33"/>
<path fill-rule="evenodd" clip-rule="evenodd" d="M195.095 467.976C195.095 468.701 194.161 468.839 193.332 468.977C193.332 468.356 190.843 468.563 190.532 468.01C189.909 468.218 190.255 469.081 188.769 468.666C180.699 467.674 172.699 466.186 164.813 464.212L154.442 461.484L148.946 459.999L143.069 457.962C142.724 459.896 141.306 457.064 140.2 457.582C140.788 459.412 142.101 459.55 144.59 461.035C145.316 460.31 143.346 459.965 143.277 459.343C143.829 459.549 144.416 459.643 145.005 459.619C143.864 460.586 147.529 461.415 145.593 461.691C149.637 462.796 154.2 463.383 159.144 464.454C161.598 464.937 164.191 465.49 166.922 466.146L171.07 467.147L175.529 468.01C175.529 467.492 176.082 467.32 176.773 467.32C178.052 468.252 178.26 467.803 180.714 468.183C179.954 468.943 180.23 469.219 181.682 469.806C181.682 469.495 181.682 468.977 182.339 469.012C185.776 469.466 189.245 469.627 192.709 469.495C195.134 469.433 197.536 469.002 199.831 468.218C198.69 468.39 196.547 467.872 195.095 467.976Z" fill="#231F33"/>
<path fill-rule="evenodd" clip-rule="evenodd" d="M122.743 420.082C124.748 420.842 126.926 422.327 124.644 421.981C125.716 422.81 127.133 423.742 128.101 423.224C129.519 424.571 129.691 426.677 131.869 427.264C131.824 427.482 131.713 427.681 131.553 427.835C131.393 427.989 131.19 428.091 130.97 428.128C132.561 428.646 133.425 428.128 134.773 428.128C136.121 428.128 134.773 429.371 136.329 429.82C137.054 429.302 139.785 429.82 142.101 430.89C141.953 430.997 141.854 431.159 141.825 431.339C141.864 431.749 141.981 432.148 142.171 432.513C142.413 432.271 142.793 432.03 142.793 431.788C142.843 431.561 142.843 431.325 142.793 431.097C145.524 432.237 147.84 433.687 146.872 434.24C148.31 434.636 149.72 435.133 151.089 435.725C151.089 435.725 150.743 436.001 150.571 436.139C150.398 436.277 150.363 436.829 150.985 437.002C152.23 437.313 153.716 437.002 154.684 438.107C155.86 437.278 156.862 437.658 158.141 438.28C159.42 438.901 159.351 438.28 159.628 437.555H159.904H159.697C159.733 437.291 159.733 437.024 159.697 436.76C160.561 436.76 161.494 437.175 161.667 436.76L159.697 436.346C159.697 435.724 159.316 434.861 158.971 435.103C158.494 435.418 157.969 435.652 157.415 435.794L156.032 435.448L150.26 433.411L139.889 429.578C140.262 429.301 140.705 429.133 141.168 429.095C142.585 429.543 143.104 431.028 144.003 430.13C142.885 429.698 141.837 429.105 140.892 428.369C140.096 429.06 138.748 428.715 137.435 428.197C136.374 427.569 135.199 427.158 133.978 426.988C134.132 426.985 134.283 426.936 134.41 426.849C134.538 426.761 134.637 426.639 134.696 426.496C134.754 426.353 134.77 426.196 134.741 426.044C134.711 425.892 134.639 425.752 134.531 425.642C132.397 424.992 130.468 423.803 128.931 422.188C129.207 421.843 129.899 422.188 130.21 421.809C127.839 420.808 125.313 420.224 122.743 420.082Z" fill="#231F33"/>
<path fill-rule="evenodd" clip-rule="evenodd" d="M135.706 443.183C138.483 443.253 141.182 444.116 143.484 445.669C143.528 445.495 143.529 445.313 143.487 445.139C143.445 444.964 143.361 444.803 143.242 444.668C143.508 444.81 143.805 444.884 144.106 444.884C144.408 444.884 144.705 444.81 144.971 444.668C141.721 443.943 140.235 443.114 137.124 442.458C140.442 443.632 136.501 443.218 135.706 443.183Z" fill="#231F33"/>
<path fill-rule="evenodd" clip-rule="evenodd" d="M130.867 439.66C130.175 439.392 129.541 438.993 129 438.486C128.136 439.039 130.659 441.352 130.037 440.247C128.482 439.419 130.867 440.144 130.867 439.66Z" fill="#231F33"/>
<path fill-rule="evenodd" clip-rule="evenodd" d="M119.217 441.422C117.869 443.045 123.746 444.357 123.953 445.911L124.195 445.358C124.506 445.358 124.817 445.6 124.817 445.358C123.642 444.633 121.914 443.977 119.839 442.734C119.978 442.354 120.496 441.802 119.217 441.422Z" fill="#231F33"/>
<path fill-rule="evenodd" clip-rule="evenodd" d="M102.071 454.612C102.59 454.612 104.353 454.198 103.247 453.576C101.829 453.991 101.173 452.92 100.032 453.231C100.931 453.749 101.311 454.163 101.38 454.612C99.4787 454.129 99.5824 453.68 97.6812 452.54C97.3009 452.955 97.9923 453.473 97.6812 453.887C96.3003 452.956 94.7076 452.386 93.049 452.229C94.6392 453.058 94.3626 453.749 95.9528 454.578C97.9577 454.37 99.4096 455.614 102.866 456.995C102.866 456.373 103.869 456.822 104.353 456.719C103.437 456.206 102.655 455.484 102.071 454.612Z" fill="#231F33"/>
<path fill-rule="evenodd" clip-rule="evenodd" d="M116.417 400.019C117.592 400.295 118.042 401.78 118.422 401.228C116.659 400.054 117.662 399.777 117.558 399.018C116.625 399.259 116.417 398.983 116.417 400.019Z" fill="#231F33"/>
<path fill-rule="evenodd" clip-rule="evenodd" d="M358.672 47.4938C360.712 49.1168 361.61 48.6679 363.131 49.2895C364.307 50.4635 364.341 51.4649 365.067 52.5699C366.446 53.2215 367.708 54.0966 368.8 55.1597C370.179 56.5739 371.696 57.8464 373.329 58.9581C372.641 58.4605 372.058 57.8323 371.613 57.1095C371.168 56.3866 370.87 55.5833 370.736 54.7453C368.662 53.9166 367.902 52.6044 366.035 52.2246C366.415 51.8102 366.035 51.4304 365.275 51.2922C365.793 50.7398 366.208 50.1873 365.275 49.3931C363.788 49.3931 361.541 47.8046 360.02 47.701C359.887 46.999 359.642 46.3229 359.294 45.6982C359.183 45.8439 359.034 45.9564 358.863 46.0233C358.693 46.0903 358.507 46.1092 358.326 46.0781C359.018 46.6651 359.19 47.114 358.672 47.4938Z" fill="#231F33"/>
<path fill-rule="evenodd" clip-rule="evenodd" d="M146.872 464.281C145.623 463.413 144.318 462.629 142.966 461.933C140.057 460.382 136.853 459.464 133.563 459.24C133.39 461.657 131.005 461.83 127.859 461.208C128.551 459.896 125.059 459.033 124.714 457.755C124.472 459.033 122.501 457.755 122.57 458.411C122.335 457.762 121.884 457.213 121.291 456.857C120.911 458.273 117.627 456.167 115.484 455.441C115.104 456.477 115.76 456.512 114.792 457.064C117.682 459.306 120.745 461.315 123.953 463.073C129.553 463.487 135.568 469.979 142.689 471.636C147.425 472.707 150.571 470.6 149.603 466.699C148.771 465.808 147.857 464.999 146.872 464.281Z" fill="#231F33"/>
</g>
</mask>
<g mask="url(#mask0_373_308)">
<rect x="-129" y="8" width="712" height="472" fill="#D9D9D9"/>
</g>
</svg>
