<svg width="453" height="486" viewBox="0 0 453 486" fill="none" xmlns="http://www.w3.org/2000/svg">
<mask id="mask0_9_1593" style="mask-type:alpha" maskUnits="userSpaceOnUse" x="0" y="0" width="453" height="486">
<g style="mix-blend-mode:multiply">
<path fill-rule="evenodd" clip-rule="evenodd" d="M34.3569 324.176C33.9421 324.176 33.4236 324.556 33.3199 324.901C33.1002 325.807 32.9728 326.732 32.9396 327.664C32.11 329.494 34.1841 331.117 34.9446 333.258C34.9446 333.499 35.9471 333.776 36.1199 333.603C37.8138 332.118 39.5768 330.564 41.0978 328.976C41.2068 328.78 41.264 328.561 41.264 328.337C41.264 328.113 41.2068 327.893 41.0978 327.698C39.5076 325.35 37.6409 323.347 34.3569 324.176Z" fill="#231F33"/>
<path fill-rule="evenodd" clip-rule="evenodd" d="M27.3396 330.668C27.1655 329.911 26.7141 329.247 26.0744 328.806C25.4346 328.365 24.6528 328.179 23.8828 328.285C23.4715 328.36 23.0747 328.5 22.7074 328.699C22.7074 328.699 22.7074 329.494 22.9494 329.701C23.6949 330.218 24.2744 330.941 24.618 331.78C24.9615 332.62 25.0543 333.54 24.8852 334.431C24.7128 335.309 24.7128 336.212 24.8852 337.09C24.8852 337.401 25.4729 337.815 25.8186 337.85C27.547 337.85 29.5174 335.675 28.6186 334.397C27.9824 333.236 27.5498 331.974 27.3396 330.668Z" fill="#231F33"/>
<path fill-rule="evenodd" clip-rule="evenodd" d="M50.1547 344.687C49.809 344.238 49.4287 343.444 48.6682 343.858C47.9077 344.273 47.2855 345.17 47.3892 345.274C48.5645 346.862 46.8707 348.106 46.9744 349.487C46.9744 349.487 47.2509 349.832 47.4583 350.143L49.0139 349.28C51.5374 347.898 51.814 346.828 50.1547 344.687Z" fill="#231F33"/>
<path fill-rule="evenodd" clip-rule="evenodd" d="M19.942 309.362C19.7 309.362 19.1469 309.673 19.0778 309.949C19.0256 310.627 19.0256 311.308 19.0778 311.986C19.0778 312.884 19.0778 313.816 19.0778 314.714C19.0778 315.612 19.5617 315.508 19.9074 315.301C20.5262 314.978 21.0325 314.475 21.3595 313.858C21.6866 313.242 21.8191 312.541 21.7395 311.848C21.6743 311.316 21.4753 310.809 21.161 310.374C20.8467 309.939 20.4273 309.591 19.942 309.362Z" fill="#231F33"/>
<path fill-rule="evenodd" clip-rule="evenodd" d="M132.635 402.561C132.693 402.393 132.693 402.211 132.635 402.043C131.183 400.109 128.936 399.729 127.035 398.59C126.62 399.211 126.24 399.522 126.17 399.902C126.101 400.282 126.378 400.972 126.585 401.007L128.21 401.49C128.485 401.818 128.812 402.098 129.178 402.319C129.215 402.284 129.245 402.241 129.266 402.193C129.287 402.146 129.297 402.095 129.297 402.043C129.297 401.991 129.287 401.94 129.266 401.893C129.245 401.845 129.215 401.802 129.178 401.767C130.005 402.032 130.804 402.379 131.563 402.803C131.701 403.113 132.254 402.734 132.635 402.561Z" fill="#231F33"/>
<path fill-rule="evenodd" clip-rule="evenodd" d="M30.7273 340.785C30.0013 340.509 28.9988 341.269 28.8951 342.132C28.7223 343.789 29.1717 344.687 30.2087 344.756C30.7421 344.666 31.2497 344.462 31.6971 344.158C32.1445 343.854 32.5211 343.457 32.8014 342.995C32.9742 342.408 31.7643 341.234 30.7273 340.785Z" fill="#231F33"/>
<path fill-rule="evenodd" clip-rule="evenodd" d="M43.8978 335.882C43.8978 335.882 43.5867 335.605 43.4484 335.467C43.3101 335.329 43.0336 335.813 43.0336 335.985C43.0336 337.746 43.0336 339.438 43.0336 341.234C43.0441 341.347 43.0808 341.455 43.1408 341.551C43.2008 341.647 43.2825 341.728 43.3793 341.787C43.3793 341.787 43.7595 341.579 43.9324 341.441C45.7299 340.06 45.7645 339.715 44.6929 337.677C44.3472 337.09 44.1398 336.469 43.8978 335.882Z" fill="#231F33"/>
<path fill-rule="evenodd" clip-rule="evenodd" d="M35.7051 319.411C35.7051 319.203 35.4286 318.893 35.2903 318.893C34.6628 319.108 34.1218 319.52 33.748 320.068C33.3742 320.615 33.1877 321.269 33.2162 321.931C33.2162 321.931 33.4927 322.277 33.631 322.449C34.2282 322.189 34.7398 321.766 35.1068 321.229C35.4737 320.691 35.6811 320.061 35.7051 319.411Z" fill="#231F33"/>
<path fill-rule="evenodd" clip-rule="evenodd" d="M36.0854 348.416C35.9125 348.969 35.6706 349.59 36.3965 350.074C36.6888 349.928 36.9665 349.754 37.2261 349.556C37.0341 349.005 36.791 348.473 36.5002 347.967C36.5002 347.967 36.1545 348.14 36.0854 348.416Z" fill="#231F33"/>
<path fill-rule="evenodd" clip-rule="evenodd" d="M146.739 434.709C147.153 434.709 147.534 434.398 147.914 434.226C147.534 434.053 147.153 433.708 146.773 433.708H146.427C145.805 433.328 144.906 432.948 144.699 433.328C145.045 433.535 145.183 433.777 145.01 434.053C145.404 434.248 145.823 434.387 146.255 434.467C146.4 434.577 146.564 434.659 146.739 434.709Z" fill="#231F33"/>
<path fill-rule="evenodd" clip-rule="evenodd" d="M68.3376 119.511C68.0956 119.511 68.0265 120.064 67.9228 120.409C67.8191 120.754 68.6487 120.409 68.8216 120.064C68.9944 119.718 68.6487 119.304 68.3376 119.511Z" fill="#231F33"/>
<path fill-rule="evenodd" clip-rule="evenodd" d="M66.8166 121.445C66.8166 121.445 67.3005 121.721 67.6462 121.825V120.616C67.1623 120.651 66.6092 120.754 66.8166 121.445Z" fill="#231F33"/>
<path fill-rule="evenodd" clip-rule="evenodd" d="M21.0136 159.74C21.0136 159.74 21.0136 160.154 21.0136 160.189L21.8778 160.534C21.8087 160.085 21.7741 159.602 21.0136 159.74Z" fill="#231F33"/>
<path fill-rule="evenodd" clip-rule="evenodd" d="M21.8778 160.534C21.8778 160.534 21.8778 160.534 21.8778 160.776H22.0852C22.0852 160.776 22.0852 160.776 22.0852 160.603L21.8778 160.534Z" fill="#231F33"/>
<path fill-rule="evenodd" clip-rule="evenodd" d="M15.7246 170.203L16.2086 169.754C15.9666 169.063 15.6209 169.063 15.2752 169.754C15.2407 169.754 15.5518 170.03 15.7246 170.203Z" fill="#231F33"/>
<path fill-rule="evenodd" clip-rule="evenodd" d="M11.369 176.349C11.1962 176.349 11.127 176.867 10.9888 177.212H12.1987C12.095 176.764 12.0604 176.211 11.369 176.349Z" fill="#231F33"/>
<path fill-rule="evenodd" clip-rule="evenodd" d="M9.57145 178.594C9.54218 178.707 9.54218 178.826 9.57145 178.939C9.57145 178.939 9.57145 178.663 9.57145 178.594Z" fill="#231F33"/>
<path fill-rule="evenodd" clip-rule="evenodd" d="M10.8159 177.385C10.495 177.385 10.1873 177.513 9.96039 177.739C9.73349 177.966 9.60602 178.273 9.60602 178.594H10.8159V177.385Z" fill="#231F33"/>
<path fill-rule="evenodd" clip-rule="evenodd" d="M9.57146 178.939L8.74182 179.284V179.699C9.26035 179.699 9.32948 179.284 9.57146 178.939Z" fill="#231F33"/>
<path fill-rule="evenodd" clip-rule="evenodd" d="M90.6687 393.03C90.6687 393.03 91.0144 392.789 91.049 392.651C91.0836 392.512 90.807 392.374 90.7033 392.202L90.2885 392.823L90.6687 393.03Z" fill="#231F33"/>
<path fill-rule="evenodd" clip-rule="evenodd" d="M112.309 399.556C112.516 400.074 112.827 400.178 113.069 399.833C113.311 399.487 113.069 399.522 113.069 399.384C113.069 399.246 112.792 399.142 112.689 399.177C112.526 399.261 112.393 399.394 112.309 399.556Z" fill="#231F33"/>
<path fill-rule="evenodd" clip-rule="evenodd" d="M137.474 431.429C137.474 431.429 137.682 431.739 137.82 431.877L138.304 431.463L137.889 431.014C137.889 431.014 137.474 431.256 137.474 431.429Z" fill="#231F33"/>
<path fill-rule="evenodd" clip-rule="evenodd" d="M163.089 434.191C163.089 434.191 162.813 433.742 162.744 433.777C162.087 433.984 162.087 434.329 162.744 434.64C162.709 434.675 162.951 434.467 163.089 434.191Z" fill="#231F33"/>
<path fill-rule="evenodd" clip-rule="evenodd" d="M386.746 81.9071C387.438 80.7675 387.058 79.1791 385.467 77.3145C384.257 78.2468 386.539 80.3877 386.746 81.9071Z" fill="#231F33"/>
<path fill-rule="evenodd" clip-rule="evenodd" d="M229.288 24.6548C226.522 24.3786 232.745 23.9297 229.288 23.3081C229.288 24.275 226.488 23.3081 225.347 23.5844C224.828 24.6548 228.665 25.5871 229.288 24.6548Z" fill="#231F33"/>
<path fill-rule="evenodd" clip-rule="evenodd" d="M138.235 32.5625C136.23 33.2186 136.022 34.1164 136.645 35.1178C138.65 34.4272 138.857 33.5639 138.235 32.5625Z" fill="#231F33"/>
<path fill-rule="evenodd" clip-rule="evenodd" d="M257.392 26.7268C256.051 27.0285 254.686 27.2134 253.313 27.2793C253.313 26.3124 243.599 24.137 241.732 25.6563C246.814 26.3815 251.446 26.9685 256.113 27.8318L263.303 29.0749L271.012 30.6288C269.94 29.0749 267.313 28.5914 264.617 28.2116C262.136 28.1787 259.684 27.6748 257.392 26.7268Z" fill="#231F33"/>
<path fill-rule="evenodd" clip-rule="evenodd" d="M239.658 22.8251C237.031 22.5488 236.858 23.9646 234.058 23.6193C235.061 24.7242 231.915 25.0696 234.058 25.3803C234.922 23.8955 238.483 24.1718 239.658 22.8251Z" fill="#231F33"/>
<path fill-rule="evenodd" clip-rule="evenodd" d="M11.2307 175.209C11.8377 172.829 12.6832 170.515 13.7542 168.303C13.2011 168.303 12.3715 170.064 11.7838 171.929C11.1962 173.794 10.9888 175.486 11.2307 175.209Z" fill="#231F33"/>
<path fill-rule="evenodd" clip-rule="evenodd" d="M116.111 79.283C117.321 78.4542 117.839 79.1103 119.188 78.0399C119.015 77.0385 115.316 78.5578 116.111 79.283Z" fill="#231F33"/>
<path fill-rule="evenodd" clip-rule="evenodd" d="M268.143 6.28475L269.836 6.69912C270.078 6.18116 269.318 5.90492 269.491 5.42148C268.721 5.1388 267.875 5.1388 267.105 5.42148C268.834 5.80132 269.041 6.00851 268.143 6.28475Z" fill="#231F33"/>
<path fill-rule="evenodd" clip-rule="evenodd" d="M282.661 39.745L285.081 40.6082C285.599 39.4342 282.661 38.8126 282.661 39.745Z" fill="#231F33"/>
<path fill-rule="evenodd" clip-rule="evenodd" d="M293.274 30.2145C292.962 29.8001 290.232 28.4534 289.817 28.9368C291.13 29.1786 292.237 30.767 293.274 30.2145Z" fill="#231F33"/>
<path fill-rule="evenodd" clip-rule="evenodd" d="M295.348 43.4054C294.275 42.8806 293.084 42.6427 291.891 42.7147C293.032 42.9219 295.348 44.5794 295.348 43.4054Z" fill="#231F33"/>
<path fill-rule="evenodd" clip-rule="evenodd" d="M301.708 42.7495C302.331 42.4041 301.259 41.7481 300.256 41.3682C299.254 40.9884 298.286 41.0574 299.323 41.7135C299.945 41.0574 300.395 42.5423 301.708 42.7495Z" fill="#231F33"/>
<path fill-rule="evenodd" clip-rule="evenodd" d="M302.642 43.1638C304.681 44.2688 305.165 43.8889 306.444 44.9249C307.17 44.2688 302.711 42.4041 302.642 43.1638Z" fill="#231F33"/>
<path fill-rule="evenodd" clip-rule="evenodd" d="M327.185 54.6281C326.148 53.7648 325.768 53.7303 325.353 52.5217C325.146 52.867 324.42 52.28 324.178 52.5217C323.936 52.7634 326.079 55.0079 327.185 54.6281Z" fill="#231F33"/>
<path fill-rule="evenodd" clip-rule="evenodd" d="M341.877 34.4965C340.632 34.0131 338.212 31.6995 338.074 32.9426C339.526 33.9095 341.427 35.1871 341.877 34.4965Z" fill="#231F33"/>
<path fill-rule="evenodd" clip-rule="evenodd" d="M340.943 69.6831C342.306 70.7118 343.568 71.8681 344.711 73.1362C344.884 72.342 342.05 69.7867 340.943 69.6831Z" fill="#231F33"/>
<path fill-rule="evenodd" clip-rule="evenodd" d="M362.583 69.856C363.37 70.641 364.328 71.2321 365.383 71.5825C365.135 71.0541 364.738 70.6094 364.24 70.3028C363.743 69.9962 363.167 69.8409 362.583 69.856Z" fill="#231F33"/>
<path fill-rule="evenodd" clip-rule="evenodd" d="M368.425 86.5687C367.388 85.4983 365.625 84.3242 366.144 83.6681C366.939 84.1516 368.183 85.9817 368.667 85.5673C366.87 82.356 362.652 81.5272 359.541 79.2827C362.024 82.2415 365.037 84.7124 368.425 86.5687Z" fill="#231F33"/>
<path fill-rule="evenodd" clip-rule="evenodd" d="M406.45 102.246C407.384 103.593 408.421 102.937 408.282 102.246L407.245 100.865C406.554 101.141 407.384 102.108 406.45 102.246Z" fill="#231F33"/>
<path fill-rule="evenodd" clip-rule="evenodd" d="M415.957 127.695C413.502 125.416 414.263 123.932 411.947 121.687C411.808 122.723 414.678 128.559 415.957 127.695Z" fill="#231F33"/>
<path fill-rule="evenodd" clip-rule="evenodd" d="M427.468 150.555C427.653 150.417 427.877 150.343 428.107 150.343C428.338 150.343 428.562 150.417 428.747 150.555C427.723 147.948 426.486 145.43 425.048 143.027C425.256 143.959 423.354 142.716 422.767 141.059C422.49 141.266 421.971 141.335 422.213 141.922C424.184 145.271 426.915 145.858 427.468 150.555Z" fill="#231F33"/>
<path fill-rule="evenodd" clip-rule="evenodd" d="M429.957 148.828L430.994 151.452C432.135 151.901 430.475 147.654 429.957 148.828Z" fill="#231F33"/>
<path fill-rule="evenodd" clip-rule="evenodd" d="M429.231 155.872C429.576 155.63 430.302 155.63 430.095 154.905C428.539 155.423 430.095 151.763 428.367 152.005C428.712 153.386 428.816 153.835 429.231 155.872Z" fill="#231F33"/>
<path fill-rule="evenodd" clip-rule="evenodd" d="M411.808 365.854C410.806 366.442 411.29 367.236 409.907 368.721C410.287 369.86 412.431 368.721 412.223 367.477C411.798 367.932 411.295 368.306 410.737 368.582C410.564 368.03 412.258 366.338 411.808 365.854Z" fill="#231F33"/>
<path fill-rule="evenodd" clip-rule="evenodd" d="M325.042 443.687C327.185 442.341 329.363 441.374 329.156 440.545C327.6 442.168 324.696 442.617 323.728 443.687C324.351 443.411 324.973 443.169 325.042 443.687Z" fill="#231F33"/>
<path fill-rule="evenodd" clip-rule="evenodd" d="M272.014 463.888C273.293 463.439 274.33 462.955 274.538 462.299C273.086 462.714 271.012 462.955 272.014 463.888Z" fill="#231F33"/>
<path fill-rule="evenodd" clip-rule="evenodd" d="M221.579 472.451C217.327 473.004 215.218 472.831 211.796 473.038C214.816 473.874 218.006 473.874 221.026 473.038C219.989 472.969 221.268 472.727 221.579 472.451Z" fill="#231F33"/>
<path fill-rule="evenodd" clip-rule="evenodd" d="M215.771 470.518C217.319 470.037 218.822 469.424 220.265 468.688C217.638 468.998 216.29 468.998 215.771 470.518Z" fill="#231F33"/>
<path fill-rule="evenodd" clip-rule="evenodd" d="M211.208 470.656C212.349 470 213.559 471.726 215.218 470.656C215.218 469.931 214.873 469.447 214.043 469.171C212.365 469.571 210.651 469.803 208.927 469.862C209.411 470.932 208.927 470.587 209.48 471.657C208.547 471.657 207.924 471.968 208.892 472.21C209.618 471.415 212.349 471.692 212.902 470.897C212.245 470.967 211.278 471.001 211.208 470.656Z" fill="#231F33"/>
<path fill-rule="evenodd" clip-rule="evenodd" d="M201.91 473.522C204.779 475.318 201.91 473.902 204.26 473.522C205.608 473.349 207.717 474.178 208.305 473.108C206.165 473.068 204.026 473.207 201.91 473.522Z" fill="#231F33"/>
<path fill-rule="evenodd" clip-rule="evenodd" d="M183.969 471.795C185.904 471.968 190.882 472.52 190.364 472.071C188.261 471.635 186.101 471.542 183.969 471.795Z" fill="#231F33"/>
<path fill-rule="evenodd" clip-rule="evenodd" d="M176.26 467.997C177.677 467.997 178.092 467.721 179.094 468.411C179.82 467.341 175.88 466.754 176.26 467.997Z" fill="#231F33"/>
<path fill-rule="evenodd" clip-rule="evenodd" d="M170.798 462.368C172.734 462.368 173.149 462.955 174.255 462.644C173.806 462.334 170.452 461.263 170.798 462.368Z" fill="#231F33"/>
<path fill-rule="evenodd" clip-rule="evenodd" d="M164.23 429.461C165.717 429.84 167.203 430.911 168.551 430.531L168.724 429.668C167.237 429.45 165.731 429.381 164.23 429.461Z" fill="#231F33"/>
<path fill-rule="evenodd" clip-rule="evenodd" d="M141.692 434.226C143.455 434.433 144.215 435.296 145.148 435.158C144.768 435.158 144.63 434.744 144.837 434.433C143.42 433.915 141.726 433.121 141.692 434.226Z" fill="#231F33"/>
<path fill-rule="evenodd" clip-rule="evenodd" d="M130.561 439.44C130.754 439.544 130.924 439.687 131.061 439.859C131.198 440.031 131.298 440.229 131.356 440.441C133.741 440.649 134.536 440.994 136.333 441.028C134.971 440.556 133.653 439.967 132.393 439.267C132.842 440.545 130.561 438.715 130.561 439.44Z" fill="#231F33"/>
<path fill-rule="evenodd" clip-rule="evenodd" d="M122.714 402.63C123.844 403.198 124.891 403.918 125.825 404.771C126.793 402.526 129.282 407.291 130.699 405.53C129.627 405.254 127.242 404.702 128.003 403.597C129.8 403.597 132.047 406.324 132.566 404.805C130.162 404.196 127.943 403.011 126.101 401.352C127.242 403.562 124.442 401.801 125.41 403.666C124.511 403.389 122.852 401.456 122.714 402.63Z" fill="#231F33"/>
<path fill-rule="evenodd" clip-rule="evenodd" d="M72.2438 400.109C70.9302 400.869 72.7623 402.181 73.8685 402.354C72.4858 401.422 73.6265 401.042 72.2438 400.109Z" fill="#231F33"/>
<path fill-rule="evenodd" clip-rule="evenodd" d="M54.2683 392.374C55.7547 392.823 52.3325 388.714 51.2954 388.334C50.9834 389.604 50.9834 390.931 51.2954 392.201C52.0559 392.201 52.6436 391.304 53.6806 392.201C53.6806 392.892 57.1375 397.001 57.656 396C56.6762 394.66 55.5388 393.443 54.2683 392.374Z" fill="#231F33"/>
<path fill-rule="evenodd" clip-rule="evenodd" d="M241.179 457.396V457.638L243.841 457.016L241.179 457.396Z" fill="#231F33"/>
<path fill-rule="evenodd" clip-rule="evenodd" d="M452.53 236.018C452.15 229.734 451.769 223.553 451.424 217.613L451.113 213.193C451.113 211.743 450.732 210.293 450.525 208.877C450.145 206.045 449.764 203.318 449.384 200.624C447.967 198.483 448.209 190.265 445.409 188.573C445.522 186.051 444.986 183.543 443.853 181.287C445.755 182.116 443.093 177.834 444.545 178.11C443.231 175.727 443.784 172.343 442.436 171.515C443.093 174.968 444.476 177.04 443.404 178.421C442.851 174.968 441.157 171.86 441.814 169.305C440.811 166.818 437.942 162.398 438.357 160.154C437.009 160.361 437.562 157.15 436.214 156.079C435.661 156.079 435.833 157.15 435.419 156.39C434.036 154.525 434.243 151.487 432.964 150.002C433.172 150.658 433.379 151.28 432.964 151.28C432.135 149.76 432.964 149.518 431.996 147.826C431.028 148.034 432.446 150.313 432.446 151.28C434.281 153.531 435.422 156.266 435.73 159.153C434.589 157.495 433.69 157.184 433.863 155.009C432.964 155.009 433.863 156.287 433.172 156.494C433.828 158.255 434.727 157.979 435.384 159.947C434.52 159.947 433.759 158.842 432.964 158.497C433.586 160.43 434.554 159.498 435.211 161.224C434.9 161.95 433.725 160.016 434.14 161.673C434.365 161.83 434.545 162.045 434.658 162.295H434.14L433.068 162.847C433.093 162.734 433.148 162.63 433.227 162.545C433.306 162.46 433.406 162.398 433.517 162.364C432.849 161.406 432.532 160.248 432.619 159.084C431.927 159.394 432.619 161.742 432.826 162.986L430.51 164.16C430.379 164.104 430.262 164.021 430.164 163.918C430.017 163.403 429.844 162.896 429.646 162.398C429.656 162.102 429.603 161.807 429.49 161.533C429.377 161.259 429.206 161.012 428.989 160.81C428.592 160.178 428.342 159.465 428.258 158.724C428.175 157.983 428.259 157.233 428.505 156.528C426.673 155.63 424.599 148.552 424.806 146.652C424.115 146.652 423.32 145.893 422.628 144.753C422.628 144.339 422.628 143.959 422.628 143.545C422.628 143.13 422.283 142.785 421.66 142.923C421.246 141.922 421.073 141.058 421.315 140.92C420.485 140.126 419.621 139.297 418.757 138.4C418.48 137.709 418.204 137.018 417.892 136.328H418.1C417.028 134.014 415.922 131.873 414.643 129.801C412.1 125.033 409.151 120.493 405.828 116.231C404.687 114.297 403.512 112.26 402.371 110.015C401.991 110.326 401.507 110.015 401.023 109.635C400.206 107.119 398.682 104.889 396.633 103.213C396.16 101.645 395.436 100.164 394.49 98.8272L394.766 98.5164C394.109 97.6531 393.833 97.515 393.626 97.6186L392.761 96.5481C391.517 95.0288 390.134 93.5439 388.855 92.0591C387.587 90.6803 386.431 89.2023 385.398 87.6392C382.287 82.7703 379.176 77.7633 375.685 72.9981C372.072 68.236 367.458 64.3228 362.168 61.5338C361.131 60.6706 361.062 62.1899 360.06 61.5338C356.376 58.4182 352.458 55.5898 348.341 53.0738C343.916 50.484 339.492 47.6524 335.274 45.2353C329.398 41.575 324.247 36.9133 317.644 34.4616C314.204 33.2148 310.632 32.3689 306.997 31.9409C303.898 31.6574 300.774 31.9859 297.802 32.9077C292.064 30.4906 283.975 33.1149 278.79 29.1784C277.476 29.1784 277.372 30.6632 275.333 29.9726C273.812 29.6273 273.985 28.9367 273.259 28.4878C272.913 30.0762 273.812 29.9036 272.602 31.0085C276.021 31.6338 279.497 31.9 282.972 31.8028C283.975 32.2171 284.251 32.8387 285.841 33.184C296.399 33.1584 306.895 34.7778 316.953 37.9838C327.842 41.7822 336.83 49.5862 344.815 51.7961C346.267 52.9702 344.815 53.8334 345.576 54.973C349.931 56.147 351.694 60.1181 355.946 62.7079C358.919 64.6761 362.583 64.9869 365.833 67.5077C368.625 69.922 371.172 72.6054 373.438 75.5188C375.841 78.7381 378.414 81.8273 381.146 84.7731V85.3601C379.591 84.048 378.45 82.8048 375.926 80.8711C376.307 80.2496 377.24 81.7689 377.69 81.4236C376.151 79.9145 374.535 78.4853 372.85 77.1418C371.433 75.8955 370.261 74.3967 369.393 72.7218C368.633 73.8959 366.593 71.5132 365.625 72.1003C367.768 74.1376 370.499 76.6583 370.499 79.0064C368.391 77.8669 368.736 75.9677 367.492 75.8987C368.577 77.9781 370.185 79.7394 372.159 81.0092C374.29 82.4377 376.23 84.1319 377.931 86.0507C377.8 86.1749 377.638 86.2625 377.462 86.3049C377.287 86.3473 377.103 86.343 376.929 86.2925C378.217 88.0453 379.853 89.5145 381.734 90.6088C382.08 91.1613 382.495 91.6793 382.875 92.1972C382.61 92.007 382.3 91.8881 381.976 91.8519C382.375 92.5677 382.733 93.3055 383.048 94.0619C382.836 93.8801 382.566 93.7818 382.287 93.7857C382.679 94.177 383.025 94.5568 383.324 94.9252C383.411 95.2768 383.411 95.644 383.324 95.9956C380.857 94.682 378.215 93.7285 375.477 93.1641C375.147 92.6524 374.869 92.1087 374.647 91.5412L373.991 92.1627C374.293 92.4121 374.571 92.6896 374.82 92.9915L373.714 92.7497L373.23 92.1972C373.541 91.8865 372.954 90.4707 372.504 91.4376C373.023 91.921 373.126 92.2663 372.919 92.5425C372.005 92.1474 371.145 91.6368 370.361 91.0232C369.728 90.1096 369.162 89.1518 368.667 88.1571C368.405 87.8758 368.085 87.6545 367.729 87.5087C367.373 87.3628 366.99 87.2957 366.605 87.3121C366.221 87.3286 365.844 87.428 365.502 87.6037C365.16 87.7794 364.86 88.0271 364.623 88.3298C364.443 88.7576 364.235 89.1729 364 89.5729C363.169 89.1452 362.361 88.6726 361.581 88.1571C361.901 86.667 361.718 85.113 361.062 83.7372C361.062 83.4955 360.267 83.4955 359.852 83.4609C359.742 83.4802 359.639 83.5245 359.549 83.5904C359.459 83.6562 359.385 83.7419 359.334 83.8408V84.048C358.124 83.53 356.879 82.8394 356.603 81.3891C356.424 81.5358 356.292 81.7321 356.225 81.9533C356.157 82.1744 356.156 82.4106 356.223 82.6322C357.263 83.2554 358.236 83.9844 359.126 84.8076C359.126 84.8076 359.126 85.0148 359.126 85.0493C359.591 85.5331 359.924 86.1274 360.094 86.7759C357.973 84.6344 355.658 82.6925 353.181 80.9747C352.651 80.6294 352.132 80.3186 351.625 80.0424L351.832 79.8352L351.418 79.3172L351.037 79.6971C349.523 78.8327 347.953 78.0713 346.336 77.418C345.783 76.831 345.264 76.313 344.85 75.8296C344.282 75.4023 343.681 75.0212 343.052 74.6901C332.872 65.5515 321.34 58.0388 308.864 52.4177C295.397 46.2176 281.036 42.174 266.31 40.4355C263.502 39.0436 260.528 38.011 257.461 37.3622C254.125 36.6124 250.717 36.2303 247.298 36.2227C243.288 32.7696 235.51 32.1826 227.905 32.5624L222.27 32.8732C220.438 32.8732 218.813 33.184 216.981 33.2531C214.158 33.4887 211.316 33.2317 208.581 32.4934C205.124 37.0514 192.714 35.9465 188.393 34.4271C187.875 36.0155 186.112 36.7752 183.969 37.0514C181.807 37.2568 179.631 37.2568 177.47 37.0514C177.47 36.4299 180.339 35.0832 177.228 35.7393C175.741 35.7393 175.88 36.6371 175.188 37.0514C173.667 36.3608 171.731 36.0501 170.833 34.876C168.033 35.2213 167.86 36.3608 165.06 36.7407C165.241 36.1207 165.549 35.5455 165.966 35.0519C166.383 34.5582 166.898 34.1572 167.48 33.8746C171.351 32.3207 172.215 33.5293 174.393 33.5984C174.082 32.5624 172.665 32.5624 174.773 31.7337C176.329 34.2199 179.509 30.1107 181.687 32.1481C180.598 32.2727 179.59 32.788 178.853 33.5984C181.687 32.597 185.144 31.6301 187.667 30.8014C186.872 30.8014 185.697 30.8014 186.838 30.4561C173.692 30.0618 160.59 32.1591 148.225 36.6371C135.982 41.1069 124.263 46.8962 113.276 53.9025C110.861 54.1023 108.51 54.7833 106.363 55.9053C100.348 61.0159 95.7157 64.1582 96.7528 69.1651C104.865 62.668 113.608 56.9996 122.852 52.245C124.207 51.9084 125.626 51.922 126.975 52.2844C128.323 52.6469 129.557 53.3463 130.561 54.3169C120.985 60.7051 108.783 64.3308 100.521 71.8586C99.3454 72.9635 99.2071 73.8613 98.0318 74.7592C90.8762 80.4567 86.6934 82.5977 81.681 86.3615C71.9327 93.7166 63.74 103.938 55.8239 113.088C54.0955 115.126 50.7769 116.024 50.5695 119.408C52.9992 117.088 55.3068 114.645 57.4832 112.087C59.443 109.951 61.2018 107.639 62.7375 105.181C65.4339 102.971 69.0635 100.036 72.5204 96.7208C75.9772 93.4058 79.7451 90.1944 82.8909 87.6046C84.723 86.6032 86.3477 85.5673 88.007 84.5314C89.6663 83.4955 91.2218 82.5286 92.7428 81.4581L101.938 75.3462C108.586 70.2995 115.803 66.0464 123.439 62.6733C125.41 64.2618 127.242 62.6734 130.353 61.6029C131.321 64.0201 133.81 63.951 137.267 62.7424C138.788 61.3266 135.4 61.6374 136.99 60.4634C139.168 60.4634 141.242 60.2907 142.279 61.9137C140.856 62.7524 139.283 63.3038 137.647 63.5366C139.099 65.1596 142.867 63.1913 143.835 65.5394C140.827 67.1969 138.062 68.9925 135.366 70.8572C132.669 72.7218 130.18 74.7592 127.657 76.7274C122.794 80.839 117.603 84.5461 112.136 87.8118C110.094 87.4557 108.018 87.3283 105.948 87.432C105.948 89.711 110.511 87.6737 112.101 88.9513C110.655 90.7734 109.097 92.5033 107.434 94.131C106.923 94.6468 106.438 95.1885 105.983 95.7539H105.637C104.5 95.8424 103.401 96.2022 102.433 96.8031C101.464 97.404 100.655 98.2284 100.071 99.207C99.8962 99.5748 99.7 99.9322 99.4837 100.277C97.9356 101.431 96.458 102.677 95.0589 104.007H94.8169L94.3675 104.525L93.5725 105.284C91.7247 106.428 89.5442 106.915 87.3847 106.666C86.6242 106.666 86.2094 107.115 85.9674 107.84C85.8381 108.268 85.6267 108.666 85.3452 109.014C84.6193 109.773 84.0316 111.12 82.718 109.704C82.1949 109.868 81.7183 110.154 81.3276 110.539C80.9369 110.923 80.6433 111.394 80.4711 111.914C79.7451 113.779 78.7081 115.126 76.4612 114.988C76.2366 114.971 76.0108 114.998 75.7971 115.07C75.5835 115.141 75.3861 115.254 75.2167 115.402C73.6611 117.059 71.3796 118.095 70.6537 120.443C70.2043 121.963 68.9598 121.652 67.9574 121.825C67.9574 122.205 67.6462 122.757 67.3697 122.826C64.1253 123.952 61.2384 125.918 59.0042 128.524C57.8263 129.955 56.3675 131.13 54.7177 131.977C52.2633 132.978 49.3596 133.876 49.809 137.64C49.809 138.123 49.0831 138.745 48.5991 139.228C48.1151 139.712 46.9398 140.817 46.041 141.576C45.1423 142.336 45.1768 142.854 44.4509 141.991C43.725 141.127 42.7225 141.058 43.6904 139.884C43.9704 139.526 44.1387 139.094 44.1743 138.641C44.0936 138.221 43.9539 137.814 43.7595 137.433L43.1719 137.813C42.4111 138.298 41.7845 138.967 41.3497 139.757C40.9148 140.547 40.6856 141.434 40.683 142.336C40.683 143.234 41.0286 143.855 40.3027 144.581C39.5768 145.306 38.1249 146.929 36.2582 146.929C34.3915 146.929 35.6705 148.137 35.4977 148.862C35.2399 150.434 34.401 151.851 33.1471 152.833C32.0238 153.407 31.0703 154.264 30.3816 155.32C30.578 153.95 30.9258 152.607 31.4186 151.314C34.2187 143.476 41.0978 135.085 43.8978 127.35C47.3546 126.21 44.5892 125.071 48.3571 122.205C47.9077 121.203 47.3546 119.338 46.2485 119.856C45.7299 119.856 45.2114 120.202 44.6583 120.651C42.999 125.002 40.3373 127.557 39.3002 131.597C31.6139 139.842 26.0291 149.815 23.0185 160.672C22.7212 160.724 22.4171 160.724 22.1198 160.672C22.1224 160.875 22.178 161.075 22.281 161.25C22.3841 161.426 22.531 161.572 22.7074 161.673L22.5 162.364C22.1889 163.4 21.9124 164.436 21.6358 165.506C21.0483 165.881 20.4362 166.215 19.8037 166.508C19.1928 166.79 18.6777 167.244 18.3215 167.815C17.9654 168.385 17.7837 169.047 17.7987 169.719C17.7987 174.346 17.6259 174.346 13.4085 176.625C13.0756 176.819 12.7139 176.959 12.3369 177.04C12.3292 177.401 12.1867 177.746 11.9374 178.008C11.688 178.27 11.3497 178.43 10.9888 178.455C10.9888 179.56 12.7863 180.596 10.9888 181.908C10.035 182.573 9.23374 183.432 8.63812 184.429C8.40475 184.822 8.15091 185.202 7.87762 185.569C7.89679 185.42 7.89679 185.269 7.87762 185.12L7.5665 186.087C7.16188 186.576 6.66952 186.986 6.11463 187.295C4.80103 187.986 6.11463 189.229 6.56402 190.196C4.42078 192.786 6.56402 196.619 4.0751 199.105C4.22587 200.947 4.1679 202.8 3.90226 204.63C3.11276 206.486 2.71274 208.484 2.72694 210.5C2.79634 210.839 2.7951 211.189 2.72331 211.527C2.65152 211.866 2.5107 212.186 2.30964 212.468C2.10858 212.75 1.85157 212.987 1.55463 213.165C1.2577 213.344 0.927189 213.459 0.583699 213.504C0.307152 213.504 -0.00396059 214.436 0.0997444 214.644C1.06766 216.094 0.445428 217.51 0.0997444 218.926C1.42616 221.108 1.87112 223.713 1.34421 226.212C1.34421 228.629 2.03557 231.288 0.134313 233.498C-0.21137 233.912 0.134311 234.879 0.894814 235.155C1.65532 235.431 2.62323 235.708 2.58866 236.916C2.53639 237.836 2.53639 238.758 2.58866 239.679C2.83064 243.511 2.03557 247.448 3.97139 251.074C4.21337 251.523 3.9714 252.386 3.62571 252.973C3.28003 253.56 2.6578 253.94 3.34917 254.7C3.74937 255.263 4.01902 255.909 4.13859 256.59C4.25817 257.271 4.22467 257.97 4.04053 258.636C3.66755 260.44 3.83591 262.314 4.52449 264.023C5.31879 265.922 6.49541 267.638 7.98132 269.064C8.72987 269.58 9.25968 270.356 9.46776 271.24C9.50135 273.278 10.0229 275.279 10.9888 277.075C10.9212 280.48 11.9115 283.822 13.8234 286.641C14.0308 287.055 14.411 287.746 14.5147 287.711C17.1765 286.986 17.5913 289.748 19.216 290.612C20.8407 291.475 22.6729 292.269 24.2284 293.063L25.1618 295.411C25.1618 295.653 25.1618 295.826 25.3692 295.998C25.6803 296.758 25.9223 297.552 26.1988 298.347C25.9112 298.546 25.667 298.801 25.4808 299.097C25.2945 299.393 25.1702 299.723 25.1153 300.069C25.0604 300.414 25.076 300.767 25.1613 301.106C25.2465 301.445 25.3995 301.763 25.6112 302.041C26.5635 304.062 27.2491 306.198 27.6507 308.395C27.8235 309.12 28.0309 309.742 28.6877 309.949C29.3445 310.156 30.2433 310.501 29.5865 311.71C28.9297 312.919 29.3445 314.162 28.6877 314.921C27.063 316.751 29.2063 317.753 29.3791 319.169C29.3791 319.894 30.6236 319.825 31.1075 319.445C32.3866 318.443 33.4236 317.2 34.5644 316.199C35.7051 315.198 35.0829 314.541 34.5644 313.436C33.9697 311.173 33.9697 308.794 34.5644 306.53C34.5644 306.358 34.8409 306.22 34.9792 306.047C35.1174 305.874 35.4286 306.392 35.4286 306.565C35.4286 308.395 37.3298 309.086 38.0212 310.467C38.3669 311.123 36.673 312.193 38.0212 312.573C38.8715 312.863 39.6344 313.364 40.2388 314.028C40.8433 314.692 41.2696 315.499 41.478 316.372C42.2731 318.478 43.0336 320.584 43.9669 322.622C44.9003 324.659 46.1448 327.042 47.2509 329.286C47.5275 329.873 48.046 330.564 47.9769 331.116C47.8315 332.146 47.9818 333.195 48.4101 334.143C48.8385 335.09 49.5274 335.897 50.3967 336.469C51.1004 337.062 51.632 337.833 51.936 338.702C52.24 339.57 52.3053 340.504 52.1251 341.407C52.1251 342.511 51.9177 343.755 52.8856 344.618C54.4687 346.506 55.7939 348.597 56.8263 350.833C57.414 351.731 57.5177 350.419 57.7597 349.97C57.9823 349.645 58.2247 349.333 58.4856 349.038C58.4856 349.245 58.9005 349.418 58.9005 349.59C59.338 352.282 59.0761 355.04 58.1399 357.601C57.7455 358.552 57.6113 359.59 57.751 360.61C57.8907 361.629 58.2994 362.593 58.935 363.403C60.9054 366.614 61.1474 367.097 64.2585 368.133C66.8166 368.997 67.266 369.48 67.3351 371.863C67.4043 374.245 67.3351 376.041 69.1673 377.491C69.5129 377.768 69.9623 378.251 69.9623 378.596C69.9623 381.808 72.3475 383.431 74.2834 385.502C76.2192 387.574 76.9105 388.748 79.1229 389.232C80.3064 391.161 81.6974 392.956 83.2711 394.584C84.7921 396.587 87.8687 396.725 88.6292 399.522C88.6292 399.936 89.286 399.833 89.528 399.246C89.77 398.659 89.528 398.348 89.8737 397.934L90.1156 397.519C91.2218 398.382 92.3972 399.246 93.5725 400.109C92.7428 399.246 91.7749 397.795 90.7725 396.656C90.7815 396.564 90.7815 396.472 90.7725 396.38C90.9799 395.24 90.1502 394.895 89.1823 394.619C88.853 394.526 88.5456 394.368 88.2784 394.154C88.0112 393.941 87.7896 393.676 87.6267 393.375C87.4748 393.02 87.3016 392.674 87.1082 392.34H87.4885C87.3003 392.112 87.0789 391.914 86.8317 391.752C85.6563 389.922 83.8588 388.576 82.6835 386.78C81.5081 384.984 80.3328 384.156 80.2982 382.809C80.6147 381.058 81.2348 379.375 82.1304 377.837L82.8563 375.972C82.9675 375.769 83.1207 375.593 83.3057 375.454C84.0662 374.936 83.5131 375.212 83.6859 375.972C84.0662 377.698 84.9995 378.113 86.5897 378.078C88.1798 378.044 87.6613 378.769 87.281 379.77C86.9008 380.772 88.3527 380.564 88.9058 381.013C89.4589 381.462 89.4934 381.946 88.9058 381.98C86.6934 381.98 87.3502 383.292 87.8687 384.501C87.3848 384.991 87.0475 385.606 86.8948 386.277C86.7421 386.948 86.7801 387.649 87.0045 388.299C87.0045 388.507 87.2119 388.783 87.4193 388.852C87.6267 388.921 87.7996 388.852 87.9724 388.576C88.1453 388.299 89.1477 387.643 89.3206 387.056C89.5 385.928 90.1134 384.913 91.0303 384.23C91.9471 383.546 93.0949 383.247 94.2293 383.396C95.0419 383.938 96.0361 384.136 96.9947 383.949C96.6996 384.525 96.6377 385.193 96.8219 385.813L96.4762 385.606L96.9256 386.089C97.1221 386.423 97.3667 386.725 97.6515 386.987C98.0318 387.298 97.9281 387.989 97.6515 388.61C97.3084 388.322 96.9379 388.067 96.5454 387.851C97.0984 386.711 94.7478 384.397 94.6441 385.675C96.9947 385.986 94.6441 386.953 95.0589 387.471C95.8996 388.03 96.6365 388.731 97.2367 389.543C96.6145 390.958 96.0268 392.374 95.5429 393.859C95.0292 394.89 94.9037 396.071 95.1893 397.187C95.4748 398.302 96.1524 399.278 97.0984 399.936C98.0499 400.591 98.7783 401.521 99.1861 402.601C99.5939 403.681 99.6615 404.86 99.38 405.979C99.38 406.635 99.38 407.36 99.38 408.051C99.3626 408.339 99.3626 408.627 99.38 408.914L98.2738 408.638C98.6395 409.005 99.0454 409.329 99.4837 409.605C99.4837 409.812 99.4837 410.019 99.6565 410.227C96.6538 408.54 93.848 406.524 91.291 404.218L84.723 398.451C82.93 396.618 81.0127 394.911 78.9847 393.341C79.676 393.962 76.876 392.512 76.1155 391.165C76.1155 393.548 80.0908 397.795 80.7131 401.076C82.0744 402.084 83.0793 403.499 83.5822 405.116C84.1113 405.607 84.7519 405.963 85.4489 406.152C84.6193 408.569 94.9206 415.268 92.8811 415.924C94.9544 416.561 96.958 417.406 98.8614 418.445C99.38 417.961 98.3429 417.409 99.138 416.925C100.417 417.789 101.489 418.272 102.18 418.065C99.4837 416.304 98.3775 417.305 95.9923 415.993C96.891 415.372 95.9923 414.129 94.7478 414.025C93.5033 413.921 96.096 415.233 95.5429 415.682C94.8515 415.233 94.8169 416.097 93.9527 415.268C95.7157 414.577 90.2885 412.747 89.8737 410.848C90.057 410.636 90.3036 410.488 90.5773 410.425C90.851 410.363 91.1375 410.39 91.3947 410.503C94.2638 413.127 93.3305 411.193 94.8515 411.711C96.3725 412.229 95.5429 413.162 96.4762 413.956C97.5133 412.954 99.9331 414.439 101.558 415.751C103.9 416.449 106.311 416.889 108.748 417.064L109.128 417.374C110.508 418.507 111.964 419.545 113.484 420.482C113.83 420.724 114.313 420.482 114.348 419.93C114.348 418.583 115.005 417.029 114.037 415.959C113.069 414.888 111.721 412.506 109.197 412.506C108.867 412.499 108.541 412.421 108.243 412.278C107.945 412.135 107.681 411.93 107.469 411.677C106.95 410.986 106.501 410.261 106.052 409.536H106.536C106.209 409.393 105.896 409.22 105.602 409.018C104.876 407.878 104.185 406.739 103.459 405.565C104.15 403.7 104.773 401.801 105.568 399.971C105.737 399.688 105.849 399.375 105.897 399.049C105.944 398.723 105.926 398.391 105.844 398.072C105.844 398.072 105.464 397.623 105.464 397.623C102.975 399.695 102.526 396.759 101.35 395.862C100.977 395.502 100.701 395.054 100.55 394.558C100.398 394.063 100.377 393.537 100.486 393.03C101.973 392.512 102.56 395.378 104.254 394.722L104.703 395.137C105.928 396.789 107.411 398.235 109.094 399.418C110.995 400.8 112.792 402.008 113.657 402.871C113.657 402.561 114.521 402.146 114.867 402.284C115.8 403.735 120.743 404.391 118.323 404.736C118.746 405.072 119.252 405.287 119.787 405.36C120.323 405.433 120.868 405.361 121.365 405.15C118.427 403.513 115.35 402.138 112.17 401.041C111.686 399.418 109.405 398.382 107.676 397.243C107.065 396.896 106.496 396.479 105.983 396C106.292 395.927 106.593 395.823 106.881 395.689C106.881 395.689 107.054 395.344 106.881 395.206C106.708 395.067 106.328 394.48 106.155 394.066C105.983 393.652 105.741 392.685 106.501 392.27C106.78 392.076 107.112 391.971 107.452 391.971C107.792 391.971 108.124 392.076 108.402 392.27C108.923 392.637 109.466 392.971 110.027 393.272C110.027 393.928 110.027 394.757 110.338 395.24C110.812 395.681 111.421 395.949 112.067 396C112.996 396.016 113.922 396.12 114.832 396.311C114.417 396.311 113.899 396.311 115.039 397.001C115.496 397.005 115.951 397.075 116.388 397.208C116.559 397.244 116.735 397.244 116.906 397.208C119.533 398.106 122.575 400.42 124.546 400.661L121.089 398.382H123.647C123.751 398.347 123.846 398.287 123.923 398.21C124.001 398.132 124.06 398.037 124.096 397.934C124.096 397.934 124.096 397.623 123.889 397.554C123.468 397.245 122.959 397.079 122.437 397.079C121.915 397.079 121.406 397.245 120.985 397.554C120.877 397.641 120.804 397.763 120.778 397.899L118.842 396.621C119.464 396.172 120.052 395.655 120.812 395.793C121.628 395.879 122.451 395.879 123.267 395.793C123.97 396.528 124.787 397.146 125.686 397.623C125.928 396.863 127.311 398.313 127.415 397.277C127.472 397.165 127.503 397.041 127.503 396.915C127.503 396.789 127.472 396.664 127.415 396.552C128.724 397.102 130.153 397.305 131.563 397.139C133.049 397.139 134.017 397.347 134.536 399.108C134.677 399.551 134.914 399.957 135.231 400.297C135.548 400.638 135.936 400.904 136.368 401.076C136.368 401.594 136.714 402.25 137.405 402.837C135.919 402.837 135.366 404.218 133.533 403.597C134.294 404.011 134.847 404.425 134.951 404.943C134.363 405.392 133.084 404.943 132.669 405.461C134.639 406.052 136.432 407.119 137.889 408.569C138.511 407.119 140.931 408.845 141.622 409.329C141.071 409.533 140.471 409.563 139.902 409.414C139.333 409.266 138.823 408.947 138.442 408.5C138.684 410.088 136.61 408.086 136.575 409.26C138.166 410.399 144.042 409.26 145.356 412.471C141.622 410.606 140.378 411.573 137.82 411.124C137.549 411.3 137.326 411.54 137.172 411.824C137.017 412.107 136.937 412.425 136.937 412.747C136.937 413.07 137.017 413.387 137.172 413.671C137.326 413.954 137.549 414.195 137.82 414.37L138.131 413.611C139.099 413.921 139.203 414.301 139.756 414.681C139.41 414.681 139.03 414.923 139.548 415.233C139.168 415.855 138.961 414.612 137.889 414.439C139.203 415.544 141.346 416.58 142.659 417.892C146.669 418.928 151.958 422.589 155.277 422.692C153.998 421.863 150.714 421.276 150.748 419.55C152.166 418.514 153.203 421.207 154.205 420.102C152.339 419.032 151.267 419.377 150.748 417.996C151.336 418.203 151.302 417.651 151.82 417.754C153.514 418.756 155.277 420.275 154.793 421C154.793 420.068 155.865 422.14 156.21 421C155.623 420.551 155.83 419.895 155.761 419.308C153.514 418.583 152.304 417.685 152.304 416.477C155.208 416.235 157.144 417.72 159.218 417.927C159.611 418.744 160.137 419.491 160.773 420.137C161.028 420.368 161.349 420.512 161.69 420.55C162.032 420.587 162.376 420.515 162.675 420.344C163.228 420.137 163.504 419.274 164.334 419.792C165.563 420.331 166.724 421.015 167.791 421.829C169.946 424.078 172.581 425.813 175.499 426.905C175.41 427.007 175.34 427.124 175.292 427.25C172.866 427.343 170.446 426.955 168.171 426.111C168.171 426.352 168.482 426.456 168.655 426.629L163.608 425.662C162.433 427.457 165.544 425.662 165.44 427.112C164.334 427.388 160.704 426.594 160.635 425.386C161.465 425.731 162.329 426.111 163.124 426.352C162.882 425.696 161.81 425.317 160.808 424.868C160.265 424.679 159.778 424.359 159.391 423.935C159.079 423.935 156.729 423.935 157.8 424.315C154.344 423.555 151.163 422.381 148.052 421.484C144.362 420.11 140.476 419.329 136.541 419.17C136.178 418.455 135.624 417.854 134.941 417.434C134.258 417.013 133.472 416.79 132.669 416.787C129.108 415.626 125.874 413.638 123.232 410.986C121.918 412.54 119.983 408.327 118.047 408.293C118.047 407.844 117.77 407.568 118.462 407.533C114.348 407.257 114.106 402.733 109.75 401.318C111.41 402.561 107.4 401.732 110.649 403.562C111.583 403.32 110.165 401.974 111.271 402.561C110.234 404.011 113.864 405.772 114.383 407.844C117.563 407.844 119.118 410.572 122.437 412.54C122.437 413.231 122.437 415.199 123.993 414.923C122.126 414.163 124.822 414.163 125.099 413.818C126.779 414.703 128.366 415.756 129.835 416.96C128.988 417.1 128.17 417.38 127.415 417.789L128.625 418.272C128.625 418.583 128.625 418.721 128.072 419.135C129.973 420.448 130.457 419.653 131.528 419.792C130.111 421.276 136.437 422.934 137.682 424.557C137.682 423.935 138.373 423.901 139.375 424.315C139.064 424.626 138.65 424.557 139.064 425.144C148.156 428.286 156.556 430.703 164.887 433.19C167.963 432.982 176.329 434.122 175.257 436.953C185.832 439.749 196.683 441.37 207.613 441.788C211.569 440.85 215.675 440.732 219.678 441.442C219.159 441.442 220.715 440.717 221.648 441.063C225.105 442.237 219.194 443.411 216.186 443.273C218.813 443.273 216.186 445.206 215.737 445.897C209.999 446.449 205.366 446.208 200.285 446.726C198.971 446.553 198.798 445.793 197.243 445.69C194.996 446.76 192.784 444.585 190.122 444.55C188.601 444.55 187.391 445.586 185.87 445.413C184.349 445.241 182.828 443.791 181.411 443.583C180.546 443.583 178.991 443.583 178.265 443.583C178.265 443.583 178.68 443.031 178.853 443.065C177.332 442.824 176.433 443.514 175.119 443.376C174.912 443.376 174.912 442.478 174.773 442.409C173.045 441.477 170.522 442.409 168.517 442.099C167.238 440.924 170.487 441.235 168.309 440.545C167.963 441.511 165.855 440.821 164.852 441.235C163.815 439.302 159.149 439.958 160.186 438.576C157.979 438.384 155.786 438.061 153.618 437.61C151.55 437.139 149.508 436.563 147.499 435.883C148.052 436.125 147.879 436.504 147.706 436.884C145.551 435.961 143.266 435.378 140.931 435.158C140.931 434.882 141.45 434.951 141.622 434.778C138.822 433.811 136.195 433.086 133.948 432.085C131.962 431.223 130.023 430.254 128.141 429.184C127.531 429.415 126.89 429.554 126.24 429.598C125.341 428.321 124.926 428.493 123.751 428.735C122.99 427.803 123.751 426.905 122.333 426.767C123.578 428.286 120.052 426.767 118.876 426.491C119.118 425.938 117.77 425.524 118.462 424.971C118.462 424.281 119.948 425.317 120.259 424.971C117.113 423.555 116.802 424.315 115.904 425.455C116.837 426.421 118.738 427.354 119.81 428.321C121.4 427.25 126.101 430.565 126.965 431.774C126.343 431.498 126.343 432.05 125.79 431.774C125.79 431.428 126.205 431.083 125.79 430.772C122.333 431.118 119.672 428.77 116.007 426.732C116.595 428.321 114.694 427.112 114.106 428.114C117.909 429.944 121.815 431.567 125.202 433.397C123.923 432.188 127 433.397 127.622 433.397C128.383 434.225 130.803 436.263 131.632 436.228C131.079 435.917 131.287 435.538 131.632 435.192C133.153 437.402 136.437 437.92 139.168 439.371C136.057 438.093 137.267 439.371 134.847 438.714C136.921 439.923 138.027 440.717 139.998 440.303L139.687 441.132C142.677 441.801 145.578 442.821 148.329 444.17C149.884 444.826 151.509 445.552 153.134 446.104C154.753 446.567 156.405 446.902 158.077 447.105C158.077 447.451 157.8 447.9 158.388 448.072C164.126 448.418 171.731 452.354 174.704 451.525C174.704 452.699 172.043 452.527 170.867 451.525C170.867 453.597 174.324 452.803 175.603 452.769V453.356C177.781 453.356 179.06 452.216 181.203 452.423C184.107 452.665 184.66 454.322 188.566 454.392C187.598 452.838 192.507 454.84 193.993 454.392C191.124 453.943 192.749 453.804 195.065 454.046C197.381 454.288 200.423 454.461 200.354 455.462C198.591 455.255 198.314 456.014 196.897 456.153C199.87 456.153 198.453 456.532 198.971 457.741C201.391 457.534 201.668 458.363 203.292 458.535C203.085 457.603 200.907 457.568 200.112 456.912C200.662 456.953 201.215 456.882 201.737 456.705C202.981 457.119 203.776 458.639 204.986 457.43C204.934 457.657 204.952 457.894 205.038 458.11C205.125 458.326 205.276 458.511 205.47 458.639C201.08 458.639 198.072 458.915 195.1 458.811C191.81 458.409 188.56 457.727 185.386 456.774C182.85 456.738 180.329 456.378 177.885 455.704C175.363 455.084 172.772 454.793 170.176 454.84C170.176 454.288 168.447 454.253 168.724 453.632C161.81 452.803 155.553 448.245 149.677 448.659C151.129 449.246 153.341 449.523 153.134 450.317C151.474 449.937 143.904 448.245 146.22 446.864C144.768 446.663 143.35 446.268 142.003 445.69C140.827 446.588 144.664 446.691 144.319 447.451C141.934 446.76 136.506 445.413 135.296 443.273C131.032 441.771 126.874 439.983 122.852 437.92C119.583 436.39 116.508 434.477 113.691 432.223C112.723 433.397 113 431.152 112.032 430.703C111.064 430.254 111.79 432.257 110.891 431.739C109.992 431.221 110.2 431.739 109.785 431.463C107.849 430.634 108.471 429.84 107.4 429.046C106.432 429.426 104.254 427.803 102.422 426.767C103.148 424.66 98.9651 423.866 97.2713 422.658C93.2062 419.933 89.3154 416.958 85.6218 413.749C81.8538 410.572 78.0859 407.775 75.4587 405.461C79.1229 409.674 81.197 410.019 84.0316 413.887C87.1678 415.575 90.1019 417.614 92.7774 419.964C95.688 422.266 98.761 424.355 101.973 426.214C101.558 426.801 102.284 427.423 102.215 428.044C101.419 428.044 100.175 427.388 99.4145 427.388C100.936 429.046 106.847 430.462 109.094 433.777C109.785 433.12 111.099 434.433 112.17 435.054C114.659 434.087 122.022 437.713 124.719 439.405C124.373 439.854 120.156 437.299 121.469 438.542C122.956 439.232 124.511 439.923 124.131 440.752C123.198 440.476 121.331 439.06 121.02 439.612C122.437 440.752 125.928 441.788 124.477 443.065C126.516 444.239 124.235 441.719 126.447 442.686C126.447 442.927 126.723 443.203 127.346 443.411C127.346 444.965 125.894 444.308 125.03 444.619C127.035 446.38 127.622 445.31 127.899 444.965C129.212 446.415 126.17 445.379 127.277 446.588C128.977 447.78 130.839 448.722 132.808 449.385C132.409 449.198 132.099 448.863 131.943 448.452C132.842 448.97 134.432 448.452 134.605 449.419C133.948 449.419 133.119 448.832 132.911 449.108C135.608 450.973 140.655 452.009 142.003 453.943C143.42 453.943 141.311 452.769 142.901 453.01C146.082 453.666 145.356 454.944 147.361 455.807C147.776 455.496 147.153 454.115 148.294 454.564C150.126 455.393 153.652 455.531 152.961 456.809C152.304 456.809 148.709 455.945 150.057 456.636C153.272 456.912 155.277 458.086 156.971 457.223C159.079 458.121 156.21 458.639 158.215 459.329C159.01 459.329 158.561 458.259 159.563 458.466C160.186 459.191 165.717 461.919 163.297 459.985C165.249 460.696 167.247 461.273 169.277 461.712C169.277 461.332 169.277 460.607 170.038 460.711C174.326 461.959 178.725 462.792 183.174 463.197C187.425 463.68 191.505 464.233 195.584 464.992C195.86 464.509 194.823 464.198 195.584 464.129C198.116 464.992 200.864 464.992 203.396 464.129C203.396 464.544 203.119 464.751 202.808 464.992C205.273 464.784 207.754 465.078 210.102 465.856C208.547 466.995 205.678 465.856 204.986 467.72C208.927 467.72 210.655 465.372 215.149 466.028C215.91 465.407 213.697 464.889 215.149 464.854C215.703 465.093 216.306 465.196 216.907 465.154C217.509 465.112 218.091 464.926 218.606 464.613C218.606 465.614 220.3 465.614 221.441 465.959C225.865 464.647 230.29 466.374 234.266 464.336C236.512 464.336 239.001 464.336 241.594 464.336C244.187 464.336 246.848 463.646 249.441 463.197C254.025 462.377 258.542 461.223 262.957 459.744C263.614 460.434 266.068 459.329 266.034 460.538C268.903 458.708 271.081 460.02 272.947 458.155C272.256 458.155 271.634 458.397 271.703 457.879C272.896 457.346 274.134 456.918 275.402 456.601C275.609 457.016 275.644 457.568 276.75 457.154C277.96 454.875 282.834 455.462 285.496 455.048C285.496 454.426 284.597 454.668 284.148 454.495C286.222 453.804 289.921 452.112 291.061 453.39C289.817 454.184 288.78 452.907 288.296 454.081C289.056 454.081 289.125 454.495 289.644 454.53C294.978 451.312 300.722 448.826 306.721 447.14C308.069 446.622 308.311 445.413 308.899 445.172C310.489 444.481 312.355 445.172 314.81 443.273C314.36 443.583 315.536 442.962 316.849 442.271C317.333 442.029 322.311 438.818 324.178 439.301C324.731 439.819 320.444 441.615 322.069 441.304C323.29 440.406 324.659 439.728 326.114 439.301C325.526 438.714 326.114 438.127 326.839 437.679C327.561 437.199 328.395 436.914 329.259 436.85C327.98 438.197 325.802 439.405 325.526 440.579C328.499 438.68 333.304 433.984 334.341 436.504C334.341 436.228 334.998 435.676 335.309 435.917C333.719 437.748 334.825 437.782 333.477 439.371C335.838 436.829 338.713 434.816 341.911 433.466C345.045 432.245 347.626 429.925 349.171 426.939C349.585 427.319 349.171 427.872 349.413 428.252C350.83 427.216 350.139 426.525 352.247 425.386C352.489 425.904 353.146 425.386 353.423 425.973C354.512 425.172 355.469 424.204 356.257 423.107C354.321 424.729 353.077 424.902 352.178 424.35C355.635 422.416 356.084 420.275 359.749 419.308C357.778 420.482 358.953 421.035 356.983 422.209C357.847 422.381 358.262 423.521 359.887 422.209C359.679 421.829 359.057 421.484 359.61 420.966C360.094 422.174 366.524 418.065 368.771 415.855C368.494 414.612 367.146 416.166 366.766 415.303C367.798 414.788 368.724 414.086 369.497 413.231C369.082 414.543 369.289 414.232 370.257 414.923C371.778 413.852 370.257 413.68 371.363 412.713C372.055 413.576 373.991 411.124 374.82 411.47C375.996 409.052 377.102 409.122 377.378 409.916C378.415 407.844 379.245 407.464 379.694 405.738C380.801 405.496 379.936 406.048 380.524 406.566C381.304 405.429 382.397 404.542 383.67 404.011C384.085 403.182 384.085 402.423 384.43 401.559C385.571 401.214 386.159 399.971 385.467 401.559C390.203 397.243 388.924 393.479 391.621 391.683C390.238 390.026 392.588 388.61 394.593 387.471C394.593 386.469 392.761 387.885 393.66 386.746C395.169 385.887 396.376 384.585 397.117 383.016C398.154 383.223 397.29 384.294 397.601 384.812C397.981 383.534 399.502 382.395 399.433 381.911C398.976 382.387 398.362 382.681 397.705 382.74C398.5 381.704 398.292 381.117 399.502 379.839L400.228 380.392C401.818 375.592 406.969 370.999 407.142 368.548C408.006 366.925 408.49 367.995 409.216 367.201C409.05 367.116 408.866 367.072 408.68 367.072C408.494 367.072 408.31 367.116 408.144 367.201C408.524 365.82 413.779 361.193 410.633 363.403C412.12 361.193 413.537 361.089 413.779 359.363C413.018 360.468 412.431 360.088 413.018 358.914C413.018 359.846 413.606 359.777 414.366 358.396C414.413 357.405 414.647 356.432 415.058 355.53C415.058 357.222 416.855 353.527 417.063 352.733C416.786 353.078 416.475 353.699 416.233 353.561C416.683 352.525 417.72 349.625 418.791 349.176C418.999 349.659 417.754 351.075 418.169 351.42C419.586 350.005 419.102 349.038 419.932 347.242C422.006 347.242 421.246 341.614 423.389 342.028C422.235 343.643 421.542 345.541 421.384 347.518C421.004 349.176 420.589 350.592 418.86 351.213C420.278 352.077 418.446 353.251 417.581 355.702C418.722 355.702 417.754 356.807 418.031 357.256C419.586 355.081 418.584 355.668 418.688 354.977C418.791 354.287 419.828 353.216 420.347 353.941C420.036 354.528 419.448 355.322 419.725 355.564C420.727 353.389 421.626 352.525 422.525 352.491C423.03 351.074 423.715 349.728 424.564 348.485C425.714 346.423 426.73 344.289 427.606 342.097C427.606 340.923 426.431 342.442 427.018 340.578C431.443 334.328 432.135 327.214 434.52 321.966C434.105 320.584 432.584 322.38 433.448 319.79C434.312 318.582 434.762 319.169 435.315 319.79C436.006 314.472 438.772 311.814 440.362 306.358C438.633 303.423 442.885 296.413 441.779 292.545C441.733 295.035 440.912 297.449 439.429 299.452C438.945 297.103 440.189 290.646 441.917 291.855C441.641 288.643 444.475 286.468 442.954 284.949C445.063 284.707 445.996 278.284 445.927 274.589C445.927 275.142 446.377 273.795 446.55 272.379C446.999 268.65 447.621 264.472 448.071 260.363C448.28 257.258 448.28 254.143 448.071 251.039C448.424 250.961 448.789 250.961 449.142 251.039C448.866 247.586 448.624 244.133 448.382 240.68C448.425 240.716 448.48 240.737 448.537 240.737C448.594 240.737 448.649 240.716 448.693 240.68C448.367 239.379 448.17 238.049 448.105 236.709C448.105 235.569 447.898 234.395 447.829 233.256C448.44 231.469 448.823 229.613 448.969 227.731C448.969 228.836 449.834 228.387 449.695 229.941C449.155 232.417 449.447 235.002 450.525 237.296C450.352 238.47 450.041 238.505 449.661 237.883C450.387 244.513 449.453 249.451 450.698 255.528C449.695 254.009 449.661 261.088 450.698 259.534C449.722 264.037 448.995 268.591 448.52 273.174C448.278 275.591 448.14 278.008 448.071 280.287C448.071 281.426 448.071 282.531 448.071 283.74C448.071 284.949 448.071 285.777 448.071 286.675C448.451 283.844 450.11 278.871 449.315 276.316C450.387 277.801 449.903 273.83 449.315 273.415H450.179C451.907 261.027 452.693 248.525 452.53 236.018ZM369.877 76.3476C370.88 75.8987 371.502 77.3835 371.882 78.1777C371.294 78.5921 369.981 76.7274 369.877 76.3476ZM127.415 431.808C127.415 430.289 129.938 432.533 130.146 432.119C131.356 433.259 128.659 432.603 127.415 431.808ZM144.181 441.65C144.906 440.13 145.805 442.133 147.637 442.616C147.395 443.169 145.287 441.857 144.181 441.65ZM148.363 437.23C148.605 436.47 150.887 437.23 151.405 437.989C151.302 438.576 149.297 437.368 148.363 437.23ZM184.591 452.078C185.296 451.919 186.029 451.919 186.734 452.078C186.734 452.492 186.734 452.907 187.183 453.01C186.7 453.632 183.83 452.838 184.591 452.078ZM201.529 455.324C201.184 454.495 202.601 454.771 202.636 454.219C198.453 453.183 194.028 453.804 192.714 451.422C195.333 452.101 198.092 452.017 200.665 451.18C201.356 451.491 201.668 452.009 202.739 452.147C201.91 452.803 201.426 452.561 200.077 452.147C200.458 453.286 201.875 453.943 204.26 454.115C204.571 455.393 203.361 455.531 201.529 455.186V455.324ZM430.441 293.029C431.098 293.029 430.095 294.928 430.06 295.722C429.861 295.43 429.72 295.101 429.646 294.755L430.233 293.34C430.233 293.34 430.372 293.374 430.441 293.167V293.029ZM425.705 331.013C424.97 332.321 424.334 333.683 423.804 335.087C422.974 335.743 422.041 334.811 423.181 332.981C424.08 335.191 424.08 330.633 425.705 330.875V331.013ZM283.975 439.509C283.975 440.234 281.278 440.683 280.103 441.132C280.518 439.509 281.866 440.13 283.906 439.474L283.975 439.509ZM256.528 451.733C253.968 451.833 251.404 451.763 248.853 451.525C250.374 449.972 253.52 450.662 256.631 449.661C256.597 450.317 256.009 450.835 256.528 451.733ZM240.28 451.94C239.9 452.941 238.483 451.94 238.137 451.94C237.895 451.284 239.624 451.525 239.624 450.973C241.456 450.628 238.414 452.112 240.28 451.905V451.94ZM246.676 451.56C246.434 452.285 245.051 452.596 244.809 453.321C243.945 452.561 240.246 453.977 239.866 452.872C242.285 453.356 243.876 451.318 246.676 451.525V451.56ZM242.735 447.382C240.759 447.95 238.75 448.4 236.72 448.728C235.475 447.209 237.93 446.691 240.972 445.931C244.014 445.172 247.885 444.757 249.164 444.343C251.446 444.757 252.103 445.862 249.164 446.726C249.164 446.484 249.648 446.38 249.579 446.07C246.226 446.553 244.394 446.933 242.735 447.347V447.382ZM237.722 452.147C233.885 453.148 224.932 453.183 227.041 451.629C229.737 452.734 233.228 451.249 237.722 452.147ZM252.068 445.241C251.757 444.516 253.002 444.308 253.935 444.032C254.004 444.826 252.967 445.724 251.999 445.344L252.068 445.241ZM255.974 436.366C252.518 436.884 248.819 437.23 246.019 437.61C244.843 438.093 246.641 438.818 247.713 438.507C247.367 439.405 245.604 438.784 244.74 438.991C244.74 438.473 245.258 438.3 245.051 437.748C244.843 437.195 242.597 438.024 241.594 438.024C244.77 436.221 248.318 435.169 251.965 434.951L258.083 434.295C260.226 433.915 262.508 433.397 264.997 432.706C264.997 433.121 264.997 433.535 265.723 433.431C264.31 434.137 262.841 434.726 261.333 435.192L258.809 435.917L255.974 436.366ZM138.442 401.559C138.656 401.493 138.885 401.493 139.099 401.559C139.099 401.559 139.099 401.559 139.099 401.766C138.707 401.713 138.323 401.609 137.958 401.456C138.08 401.534 138.207 401.603 138.338 401.663L138.442 401.559ZM110.787 389.784L110.338 390.199L109.923 389.991L110.131 389.681L110.373 389.37L110.787 389.784ZM199.282 67.1624C198.763 67.6077 198.1 67.8527 197.416 67.853H197.001C196.476 67.7488 195.936 67.7488 195.411 67.853C196.545 67.3336 197.8 67.1308 199.04 67.266L199.282 67.1624ZM440.293 182.841C440.459 183.216 440.521 183.628 440.473 184.036C440.424 184.443 440.266 184.829 440.016 185.154C439.601 183.635 439.498 181.977 439.014 180.458C438.959 180.185 438.959 179.903 439.014 179.629C439.878 183.013 438.564 182.737 440.051 182.944L440.293 182.841ZM440.984 185.569C441.192 186.57 441.33 187.295 441.468 187.917H441.295C441.088 187.641 440.915 187.364 440.742 187.088C440.258 186.259 440.051 185.465 440.742 185.845L440.984 185.569ZM439.117 258.671C439.199 258.15 439.075 257.617 438.772 257.186C438.833 256.018 439.018 254.861 439.325 253.733C439.532 254.078 439.705 254.458 439.912 254.838C439.903 254.177 439.834 253.518 439.705 252.869V252.628V252.144C439.715 252.027 439.752 251.913 439.812 251.812C439.871 251.71 439.953 251.623 440.051 251.557C440.051 252.593 440.846 252.593 440.5 254.32C438.219 256.599 439.567 255.425 438.875 258.774L439.117 258.671ZM257.219 70.2356C257.119 70.2932 257.006 70.3235 256.89 70.3235C256.775 70.3235 256.662 70.2932 256.562 70.2356L257.253 70.063C257.253 70.063 257.253 70.2356 257.219 70.2356ZM398.119 126.037C397.221 126.037 396.425 125.727 396.391 124.622C396.997 125.056 397.574 125.529 398.119 126.037ZM438.219 241.889L438.011 239.23C437.996 239.161 437.996 239.091 438.011 239.022C438.32 238.34 438.781 237.738 439.359 237.261C439.359 238.159 439.359 239.092 439.359 239.955C439.406 241.898 439.58 243.836 439.878 245.756C439.394 245.756 438.841 245.756 438.945 246.826C439.359 246.826 440.016 246.826 440.085 247.379C439.961 248.755 439.598 250.098 439.014 251.35C438.469 248.226 438.203 245.06 438.219 241.889ZM439.29 234.154V234.603C439.28 234.457 439.316 234.312 439.394 234.188L439.29 234.154ZM410.564 139.643C410.407 139.485 410.289 139.293 410.219 139.082C410.148 138.871 410.127 138.647 410.157 138.427C410.187 138.206 410.268 137.996 410.392 137.812C410.517 137.627 410.682 137.474 410.875 137.364C410.875 137.364 410.875 137.364 411.082 137.364C412.107 138.63 413.021 139.981 413.813 141.404C412.742 141.542 412.016 140.955 410.564 139.643ZM409.596 135.637C409.122 135.499 408.688 135.248 408.333 134.905C407.977 134.562 407.711 134.138 407.557 133.669C408.317 134.285 409.044 134.942 409.734 135.637H409.596ZM438.357 257.773C438.477 258.47 438.477 259.182 438.357 259.879C438.426 259.189 438.461 258.36 438.495 257.773H438.357ZM445.132 206.978C445.305 206.563 445.513 206.115 445.72 205.7C445.832 206.412 445.671 207.139 445.271 207.738C445.132 207.496 445.132 207.22 445.132 206.978ZM444.476 201.556C444.458 201.373 444.458 201.188 444.476 201.004C444.733 201.323 444.932 201.686 445.063 202.074C444.805 201.943 444.571 201.768 444.372 201.556H444.476ZM442.713 195.617C441.987 197.206 443.024 199.07 443.542 199.07C443.542 199.761 443.266 200.003 443.058 200.037C442.851 200.072 442.574 199.416 442.332 199.105C442.09 198.794 442.332 198.69 442.332 198.518C442.059 198.182 441.759 197.87 441.433 197.585C441.261 197.275 441.088 196.998 441.019 196.826C440.95 196.653 441.468 195.479 442.194 195.548C442.378 195.529 442.563 195.529 442.747 195.548L442.713 195.617ZM438.599 179.837C438.551 179.644 438.551 179.442 438.599 179.25C438.574 179.447 438.54 179.643 438.495 179.837H438.599ZM202.394 67.9911C202.077 67.9678 201.77 67.8733 201.495 67.7149L202.394 67.9911ZM272.602 440.096C273.017 441.339 271.046 440.372 269.663 441.201C270.182 440.303 271.254 440.234 272.602 440.096ZM385.882 385.848C386.435 386.815 384.361 387.471 383.151 389.301C382.806 388.921 382.253 389.301 381.907 388.956C383.133 387.799 384.463 386.758 385.882 385.848ZM388.579 382.395C388.855 382.705 389.166 382.982 389.616 382.395C390.272 382.947 388.095 385.192 387.299 385.502C386.885 384.846 387.403 383.741 388.579 382.36V382.395ZM431.305 290.473C431.305 290.473 431.512 290.473 431.582 290.681C431.27 291.475 431.132 291.544 430.959 291.406C430.786 291.268 431.305 290.784 431.305 290.473ZM437.735 268.719C437.735 268.305 437.735 267.856 437.562 267.476C437.732 267.33 437.918 267.203 438.115 267.096C438.05 267.65 437.923 268.194 437.735 268.719ZM438.806 265.266C438.665 264.42 438.573 263.567 438.53 262.711C438.71 261.831 438.988 260.974 439.359 260.155C439.18 261.83 439.088 263.513 439.083 265.197L438.806 265.266ZM445.72 217.337C445.984 215.899 445.984 214.424 445.72 212.986C447.345 213.608 446.688 217.51 445.72 218.891V217.337ZM445.271 209.084C445.871 210.07 446.238 211.181 446.342 212.33C445.374 212.744 445.132 209.74 445.34 208.843L445.271 209.084ZM441.088 181.701L439.982 182.012C439.532 181.08 440.189 179.491 439.256 179.284C439.048 177.385 439.982 179.733 440.224 179.56C440.396 178.87 440.016 178.421 439.532 177.903C439.722 177.736 439.896 177.551 440.051 177.35C440.879 178.554 441.269 180.004 441.157 181.46L441.088 181.701ZM438.945 172.033C438.564 172.033 438.357 170.997 438.115 170.202C438.262 170.173 438.4 170.111 438.519 170.022C438.639 169.932 438.737 169.817 438.806 169.685C439.67 171.307 438.806 171.169 438.945 172.033ZM434.174 166.577C434.255 166.537 434.343 166.517 434.433 166.517C434.523 166.517 434.612 166.537 434.693 166.577C435.187 166.869 435.612 167.264 435.94 167.734C436.268 168.205 436.491 168.741 436.594 169.305C436.67 169.553 436.827 169.77 437.04 169.92C437.253 170.07 437.509 170.145 437.769 170.133C437.813 170.65 437.813 171.17 437.769 171.687C437.493 171.687 437.562 172.24 437.354 172.412C436.628 169.892 435.246 170.755 436.94 171.964L437.147 172.999C436.214 173.051 435.28 173.051 434.347 172.999C434.07 172.999 433.656 172.274 433.725 171.964C433.794 171.653 434.693 170.306 434.554 169.615C434.416 168.925 433.414 168.234 433.621 167.198C433.667 167.067 433.741 166.948 433.836 166.847C433.931 166.746 434.046 166.665 434.174 166.611V166.577ZM424.391 148.344C424.231 148.263 424.053 148.22 423.873 148.22C423.693 148.22 423.515 148.263 423.354 148.344C423.163 147.894 422.944 147.455 422.697 147.032C422.697 146.652 422.697 146.307 422.697 145.962C423.078 146.583 423.734 147.516 424.391 148.344ZM386.677 96.8244L387.334 97.6186V97.8603C386.09 97.6186 385.537 95.9956 384.811 94.4072C385.364 95.2705 385.986 96.0647 386.677 96.8244ZM366.628 90.4362C366.735 90.5305 366.818 90.6488 366.87 90.7815L366.144 90.4707C366.208 90.4095 366.291 90.3726 366.379 90.3663C366.468 90.36 366.556 90.3847 366.628 90.4362ZM191.124 68.44C191.141 68.6814 191.141 68.9237 191.124 69.1651C191.36 69.1692 191.592 69.1022 191.789 68.9728C191.987 68.8435 192.14 68.6578 192.23 68.44H195.065C194.667 69.1489 194.081 69.7343 193.371 70.132C192.23 70.8572 191.47 70.4428 191.09 69.2687C190.67 69.3547 190.264 69.494 189.88 69.6831C188.082 70.6155 187.425 70.5809 186.423 69.3378C187.936 68.8048 189.521 68.5022 191.124 68.44ZM177.643 70.5809C179.123 70.2894 180.628 70.1391 182.137 70.132C181.704 70.4708 181.164 70.6425 180.616 70.6154C180.166 70.6154 179.544 70.6154 179.302 70.8917C177.746 72.8945 175.257 71.237 173.529 72.4801C173.363 72.6521 173.16 72.7837 172.936 72.8647C172.711 72.9456 172.471 72.9739 172.234 72.9472C171.996 72.9205 171.768 72.8395 171.567 72.7106C171.366 72.5817 171.198 72.4083 171.075 72.2039C173.225 71.5322 175.419 71.0129 177.643 70.65V70.5809ZM62.6684 348.52C62.6684 348.52 62.2882 347.829 62.3573 347.484C62.3793 347.29 62.4643 347.108 62.5993 346.966L62.9449 346.483C63.1655 346.802 63.34 347.151 63.4635 347.518C63.5326 348.14 63.4635 348.693 62.6684 348.52ZM69.029 365.785C69.029 366.096 68.545 366.303 68.303 366.579C68.0611 366.856 67.8882 366.234 67.8882 366.062C67.8882 365.889 67.8882 364.853 67.8882 364.231L66.9549 363.782C66.9183 363.635 66.9183 363.481 66.9549 363.334C67.7154 363.334 67.7499 363.748 67.8191 364.231C68.787 364.335 69.3055 364.853 69.029 365.889V365.785ZM73.2117 369.584L72.1401 368.962C72.5204 368.755 72.9006 368.41 73.2809 368.444C73.6611 368.479 74.0068 368.824 74.3871 369.031L73.2117 369.584ZM75.9772 372.553C75.9772 373.071 75.9772 373.589 75.1476 373.451C75.1476 373.451 75.1476 373.037 75.1476 373.002L76.0463 372.553C75.9524 372.151 75.9535 371.733 76.0495 371.331C76.1455 370.93 76.3338 370.556 76.5994 370.24C77.0143 369.86 78.3624 369.86 78.3624 370.24C78.3427 370.599 78.223 370.946 78.0167 371.241C77.4982 371.863 77.0488 372.622 76.0463 372.553H75.9772ZM81.4736 373.831C80.5057 376.041 78.4661 377.768 78.2587 380.357C77.9015 380.59 77.4682 380.677 77.0488 380.599C76.7377 380.599 76.1846 379.977 76.2538 379.77C76.9118 377.169 78.0875 374.726 79.7106 372.588C79.7106 372.588 80.5402 372.588 80.9896 372.588L81.3353 372.899C81.439 373.52 81.5427 373.762 81.4736 373.935V373.831ZM102.215 391.096C101.973 391.614 101.627 391.822 101.108 391.649C101.172 391.398 101.313 391.173 101.512 391.006C101.71 390.838 101.956 390.737 102.215 390.717C103.39 390.509 103.874 391.235 103.77 392.27C103.77 392.27 103.77 392.512 103.77 392.616C103.77 392.719 102.906 391.753 102.18 391.096H102.215ZM110.822 393.237V392.961H111.099L110.822 393.237ZM157.524 429.633C153.235 427.443 148.68 425.818 143.973 424.799C142.23 423.915 140.544 422.923 138.926 421.829L138.338 421.449L140.689 421.967C142.59 422.347 144.388 422.761 146.255 423.314C148.264 423.839 150.229 424.52 152.131 425.351C155.588 423.797 160.566 430.013 163.884 429.529C162.571 427.423 168.171 429.115 171.386 429.529C170.902 430.462 171.386 431.67 171.386 433.397C166.617 432.769 161.955 431.503 157.524 429.633ZM222.201 440.476C223.238 439.819 223.86 441.166 225.658 440.855C225.658 440.579 225.036 440.855 224.656 440.648C224.275 440.441 226.142 440.441 226.107 439.958C225.52 439.336 222.962 439.958 221.614 439.958C223.653 438.473 228.527 438.611 230.394 437.679C230.524 437.785 230.629 437.92 230.701 438.072C230.773 438.224 230.811 438.391 230.811 438.559C230.811 438.727 230.773 438.894 230.701 439.046C230.629 439.198 230.524 439.333 230.394 439.44C230.912 440.407 231.5 439.44 232.433 439.889C233.782 439.44 230.809 439.405 231.293 438.507C235.095 438.231 235.994 438.507 237.653 437.506C239.278 437.748 237.653 437.989 240.626 437.506C241.145 439.44 237.515 438.438 236.34 439.198C238.172 440.441 242.596 437.195 242.908 439.198C241.257 439.385 239.619 439.661 237.999 440.027L232.745 440.821C229.238 441.351 225.665 441.234 222.201 440.476ZM223.342 452.423C222.858 453.356 224.552 452.907 225.485 452.907C222.947 453.407 220.364 453.65 217.776 453.632C214.596 453.632 211.105 453.356 207.994 453.632C211.692 451.387 217.742 453.459 223.342 452.423ZM206.369 454.357C208.662 454.667 210.97 454.851 213.283 454.909C210.275 453.459 219.954 454.219 220.749 454.909C218.037 455.577 215.225 455.741 212.453 455.393C210.04 455.083 207.59 455.224 205.228 455.807C204.848 454.84 206.127 454.909 206.369 454.357ZM204.71 456.947C205.159 455.945 206.576 456.671 207.406 456.947C207.233 457.741 205.021 457.119 204.71 456.947ZM241.179 458.639V457.706L240.453 457.914L236.996 458.432C234.473 458.742 231.811 459.019 229.08 459.191C223.588 459.728 218.05 459.588 212.591 458.777C211.969 458.777 212.211 459.329 211.485 459.329C210.386 459.167 209.3 458.925 208.236 458.604C208.236 457.706 210.932 458.224 212.591 458.19C212.591 457.776 212.591 457.361 212.038 457.292C219.503 457.43 226.96 456.723 234.266 455.186C235.821 455.238 237.345 455.639 238.725 456.36C240.246 455.98 238.275 455.427 238.517 454.909C239.866 454.599 241.145 455.773 241.767 454.909C243.357 454.909 242.424 455.255 242.458 456.014C244.49 455.216 246.616 454.682 248.784 454.426C249.164 453.39 247.056 454.426 246.019 454.426C248.125 453.268 250.569 452.878 252.932 453.321C253.555 454.357 250.789 455.6 253.866 455.22C251.688 456.636 245.189 455.635 244.256 457.05C248.439 457.05 255.525 454.944 258.083 456.325C252.448 458.155 247.298 457.258 241.179 458.639ZM265.861 451.733C265.861 451.215 265.1 451.284 265.066 450.731C267.071 449.903 266.863 451.18 268.868 450.351C268.488 450.766 266.725 451.042 265.861 451.733ZM280.069 446.415C273.673 447.416 268.177 449.074 261.678 450.386C261.678 450.869 263.476 450.11 263.891 450.386C263.891 451.318 260.814 451.733 260.676 450.835C259.328 451.664 259.258 451.94 260.053 453.01C257.668 452.389 257.15 451.664 258.014 450.973C259.933 450.011 262.002 449.38 264.133 449.108C263.579 448.798 262.37 449.108 261.402 449.108C260.952 448.28 263.718 448.28 263.752 447.589C264.478 447.589 264.375 448.21 264.582 448.59C269.525 447.002 269.836 446.795 275.229 445.137C276.266 446.035 277.856 444.447 279.204 445.137C280.518 444.516 277.441 445.137 278.824 444.032C282.523 443.273 282.281 444.032 286.118 442.271C285.911 441.442 282.938 443.791 283.318 442.271C285.441 441.922 287.453 441.082 289.195 439.819C289.36 440.045 289.45 440.317 289.45 440.596C289.45 440.876 289.36 441.148 289.195 441.373C290.543 440.959 290.681 440.372 290.266 439.716C290.917 439.299 291.658 439.043 292.428 438.971C293.198 438.899 293.974 439.012 294.691 439.301C293.032 442.478 283.076 443.963 280.069 446.242V446.415ZM328.119 433.5C328.119 431.981 330.227 431.843 331.575 430.462C331.886 431.187 329.121 432.326 328.119 433.328V433.5ZM343.363 430.254C342.499 432.43 342.568 429.875 341.116 430.98C341.116 430.565 342.188 430.047 342.879 429.529C343.087 429.909 343.259 430.289 343.847 429.978C343.951 430.116 343.467 430.22 343.363 430.082V430.254ZM341.635 425.834L343.501 424.626L344.02 425.351C343.052 425.662 341.946 426.387 341.635 425.662V425.834ZM343.813 424.108C343.432 423.452 344.953 422.52 346.129 421.656L346.647 422.347C345.838 423.128 344.872 423.729 343.813 424.108ZM343.017 422.692C340.114 424.695 337.175 426.56 335.654 427.837C335.862 426.663 338.316 424.764 341.324 422.727C344.331 420.689 347.546 418.169 349.724 416.408C347.759 418.723 345.506 420.777 343.017 422.52V422.692ZM363.758 418.307C362.721 417.685 362.583 417.685 362.86 416.408C363.758 416.166 365.418 416.649 363.586 418.134L363.758 418.307ZM365.418 415.89C364.934 415.89 364.208 416.477 363.931 415.89C364.45 415.89 364.968 415.544 364.83 415.199C365.349 414.854 365.521 415.372 366.075 414.888C366.075 415.268 366.075 415.648 366.075 415.924C365.625 416.166 364.588 416.304 365.245 415.717L365.418 415.89ZM373.334 411.884C373.334 411.47 374.233 410.744 374.82 410.123C374.544 409.916 373.887 410.641 373.368 411.055C372.85 411.47 373.956 409.191 372.573 410.227C372.573 409.501 374.924 409.329 375.685 409.329C374.094 410.606 375.028 410.71 373.161 411.711L373.334 411.884ZM383.359 394.619L384.016 395.206L382.114 397.277C381.146 396.759 382.909 395.447 383.186 394.55L383.359 394.619ZM386.47 398.072C386.816 396.725 385.882 397.761 384.88 398.935C384.465 397.657 387.369 396.483 388.544 395.482C388.821 395.862 386.85 397.243 386.366 398.106L386.47 398.072ZM388.164 390.509C388.012 391.972 387.492 393.373 386.652 394.581C385.812 395.789 384.679 396.764 383.359 397.416C383.739 395.793 387.196 393.583 385.986 391.476C389.443 388.299 391.621 385.157 393.522 383.879C393.172 385.339 392.491 386.699 391.532 387.854C390.573 389.01 389.362 389.93 387.991 390.544L388.164 390.509ZM398.154 379.045C396.218 381.221 395.146 381.739 394.351 383.949L393.176 383.051C395.492 380.944 397.221 377.215 399.882 374.763C399.744 376.455 397.463 377.526 397.981 379.218L398.154 379.045ZM420.934 343.064C419.967 343.064 420.589 341.786 419.586 341.786C420.451 341.234 421.211 338.333 422.11 339.231C421.522 338.092 423.631 335.778 424.53 334.155C422.801 337.47 422.594 340.75 420.934 343.064ZM421.315 352.802C420.9 352.56 420.451 352.802 419.967 353.389C419.448 353.009 420.139 351.869 420.9 350.661C420.9 351.8 421.626 350.661 421.66 351.697C422.317 350.799 423.043 348.52 423.596 349.452C422.68 350.447 421.922 351.577 421.349 352.802H421.315ZM424.391 346.655C424.391 344.86 425.152 344.514 426.154 343.202C426.293 344.687 425.463 345.136 424.391 346.655ZM426.431 325.937C426.264 324.98 426.422 323.996 426.88 323.14C427.848 323.243 427.26 325.315 426.465 325.868L426.431 325.937ZM425.947 318.064C425.947 316.613 426.707 316.095 427.157 313.851C428.021 314.093 426.638 317.373 425.981 317.995L425.947 318.064ZM428.885 306.323C429.68 307.083 428.09 308.395 428.159 310.122C426.984 310.156 428.712 307.497 428.92 306.254L428.885 306.323ZM428.885 315.543C428.726 313.462 428.937 311.369 429.507 309.362C429.68 310.26 429.196 313.16 430.441 310.225C431.305 311.261 429.3 313.609 428.781 315.474L428.885 315.543ZM433.068 291.578C432.391 294.871 432.147 298.237 432.342 301.592C432.1 302.836 431.374 301.938 431.063 302.939C432.619 302.456 431.547 306.392 430.821 309.189C429.888 308.706 429.369 308.706 429.3 308.153C429.909 307.198 430.189 306.07 430.095 304.942C429.058 306.254 429.611 303.112 428.954 302.905C429.404 301.869 429.68 301.938 429.957 302.628C430.337 298.554 432.307 293.858 432.619 289.817C432.93 289.817 433.033 290.888 433.448 289.817C432.238 290.439 433.725 287.987 432.999 288.056C432.584 288.643 432.377 288.436 432.238 288.056C432.653 286.813 433.068 285.57 433.414 284.292C434.485 283.913 432.895 286.606 433.656 286.606C434.105 284.223 436.179 280.598 435.142 279.7C434.52 282.048 434.589 283.153 433.448 284.154C433.463 284.086 433.463 284.015 433.448 283.947C433.932 281.875 434.312 279.734 434.624 277.524C435.076 277.501 435.505 277.317 435.833 277.006C436.172 277.656 436.373 278.368 436.427 279.098C436.48 279.828 436.384 280.562 436.144 281.254C435.617 282.705 435.336 284.234 435.315 285.777C435.169 286.099 434.959 286.387 434.697 286.625C434.436 286.862 434.128 287.044 433.794 287.158C434.162 289.552 433.973 291.998 433.241 294.306C432.204 294.41 433.552 291.889 432.964 291.509L433.068 291.578ZM433.068 318.72C433.967 316.89 433.344 315.957 434.382 314.99C435.661 314.68 433.863 319.687 432.93 318.651L433.068 318.72ZM434.485 313.816C435.695 313.022 436.698 310.743 437.942 310.778C436.87 312.711 435.799 314.68 434.347 313.609L434.485 313.816ZM447.621 217.717C447.898 216.854 447.898 220.065 448.209 222.171C446.792 221.55 447.068 218.995 447.483 217.648L447.621 217.717Z" fill="#231F33"/>
<path fill-rule="evenodd" clip-rule="evenodd" d="M127.104 42.0586C126.309 43.3362 120.916 44.9937 120.605 45.5117C121.607 45.4081 128.694 42.3003 127.104 42.0586Z" fill="#231F33"/>
<path fill-rule="evenodd" clip-rule="evenodd" d="M243.53 1.8992C243.184 1.20858 240.315 1.58842 240.073 0.966864C243.737 0.172654 246.122 2.69341 249.821 3.03872C249.821 2.69341 249.821 2.17544 250.478 2.24451C250.952 2.76584 251.486 3.22946 252.068 3.62574C256.009 3.45309 263.337 5.80119 266.621 4.76526C265.792 4.10917 262.404 3.83293 264.547 3.17684C261.678 2.58981 264.063 3.97105 262.612 4.04011C262.612 3.79839 262.162 3.62574 261.505 3.55668C262.542 2.38263 257.737 2.76247 255.836 1.83014C254.35 1.83014 256.769 2.83153 255.11 2.90059C253.935 1.72654 251.653 1.20858 251.653 2.38263C251.999 2.00279 247.021 1.8992 248.853 1.10499C245.431 0.467052 241.963 0.0975955 238.483 0C238.932 1.07046 238.483 0.725148 238.967 1.7956C241.179 1.31217 242.009 2.24451 243.53 1.8992Z" fill="#231F33"/>
<path fill-rule="evenodd" clip-rule="evenodd" d="M309.728 46.4784C311.18 47.1028 312.684 47.5996 314.222 47.9632C313.081 47.238 310.316 46.064 309.728 46.4784Z" fill="#231F33"/>
<path fill-rule="evenodd" clip-rule="evenodd" d="M331.057 47.7215C330.538 48.6193 328.326 46.7892 327.22 46.8237C327.946 47.7215 332.163 48.9301 331.057 47.7215Z" fill="#231F33"/>
<path fill-rule="evenodd" clip-rule="evenodd" d="M346.094 38.7781C346.371 38.3637 347.581 39.4687 347.892 39.1925C347.027 38.8126 346.785 37.2242 347.892 37.8803C348.514 38.8126 349.24 38.1911 350.761 38.5364C347.926 37.604 343.847 34.8416 342.568 35.3595C344.884 35.7394 347.442 38.1911 346.094 38.7781Z" fill="#231F33"/>
<path fill-rule="evenodd" clip-rule="evenodd" d="M347.338 67.8188C346.613 68.4059 347.684 69.2346 348.929 70.0979C348.618 68.6821 351.556 71.5137 350.277 70.0979C349.205 69.3382 348.618 69.5799 348.756 68.6131C348.998 68.7857 349.378 68.7857 348.756 68.3713C348.315 68.497 347.848 68.497 347.408 68.3713C347.65 68.1987 347.719 68.026 347.338 67.8188Z" fill="#231F33"/>
<path fill-rule="evenodd" clip-rule="evenodd" d="M351.176 71.41C353.595 74.2416 356.499 78.8687 359.541 79.2831C359.265 78.9723 358.781 78.5924 358.953 78.3853C360.198 79.3521 360.924 78.9378 362.41 80.7334C363.032 80.2499 362.099 79.4212 361.408 78.6615C359.472 77.7637 352.489 73.1711 353.111 71.41C352.489 71.41 351.798 71.0302 351.176 71.41Z" fill="#231F33"/>
<path fill-rule="evenodd" clip-rule="evenodd" d="M371.467 61.5342C372.228 63.3988 378.139 66.5757 378.104 68.6821C379.107 69.6144 379.694 69.4417 380.835 70.7885C380.317 70.7885 379.729 70.7885 379.21 70.7885C380.17 71.4124 381.082 72.1049 381.941 72.8603C382.84 73.689 383.704 74.5868 384.569 75.5192C386.332 77.4184 388.025 79.5248 389.857 81.6311C393.121 85.654 396.705 89.407 400.574 92.8537C400.919 96.3068 405.759 97.4117 405.31 100.002C405.759 99.1383 405.517 99.3455 406.45 99.1038C403.65 96.9899 401.759 93.8914 401.161 90.4365C401.161 90.4365 401.161 90.2639 401.161 89.9531C401.111 90.1103 401.111 90.2793 401.161 90.4365C401.472 90.6782 403.235 90.1603 403.305 92.0595C404.272 92.2667 403.305 90.1603 404.203 91.2998C404.501 92.3625 404.709 93.4483 404.826 94.5457C405.624 95.3958 406.479 96.1918 407.384 96.9283C407.176 97.2046 406.658 97.3772 407.038 97.9297C408.075 96.4794 409.147 100.036 409.7 100.968C409.907 99.5181 407.798 96.9283 408.179 95.5471C407.073 95.7543 407.418 94.7874 406.174 93.4407C406.381 93.1299 406.9 92.9918 406.519 92.4048C406.139 91.8178 405.413 89.9185 403.789 89.3661C404.411 90.4365 404.203 90.6437 403.477 90.402C402.095 87.8122 399.364 85.7749 398.223 82.6671C396.806 83.5649 395.976 81.4585 394.766 79.6284C394.351 79.8701 394.109 80.5262 393.487 80.0082C392.865 79.4902 393.28 78.627 393.176 77.9363C393.798 78.696 395.907 80.0773 395.008 78.5924C394.317 79.1104 392.45 75.4847 391.793 76.0026C392.692 76.9004 392.899 77.522 392.346 77.9018C391.932 76.3479 391.067 77.4184 389.788 75.5537C389.097 75.9335 388.44 76.486 387.541 76.1753C387.541 74.1034 384.949 74.2761 383.601 72.7222C382.987 71.5068 382.746 70.1372 382.909 68.7857C381.423 67.6807 381.181 67.1627 380.559 67.0246C381.388 67.8879 380.904 68.4058 381.077 69.0619C378.637 67.5115 376.475 65.5621 374.682 63.2953C374.035 63.3324 373.39 63.187 372.822 62.8756C372.253 62.5642 371.784 62.0993 371.467 61.5342ZM394.282 83.2541C395.127 83.7238 395.858 84.3719 396.425 85.1533C396.114 86.6727 394.317 82.7707 394.006 84.2555C393.591 83.8756 394.075 83.6685 394.282 83.3922V83.2541Z" fill="#231F33"/>
<path fill-rule="evenodd" clip-rule="evenodd" d="M369.082 86.4999C369.556 87.275 369.705 88.2055 369.497 89.0897C370.326 90.2637 370.638 89.435 371.363 90.1947C370.983 90.54 371.087 91.0234 371.363 91.5759C372.401 89.8494 369.704 88.5372 370.154 86.8452C370.05 87.1214 369.497 86.3617 369.082 86.4999Z" fill="#231F33"/>
<path fill-rule="evenodd" clip-rule="evenodd" d="M430.648 146.653C430.441 143.683 432.584 147.516 432.791 145.651C431.789 145.962 430.925 143.959 429.957 143.821C431.305 145.582 429.715 145.168 430.648 146.653Z" fill="#231F33"/>
<path fill-rule="evenodd" clip-rule="evenodd" d="M431.305 156.77C430.89 156.77 430.51 156.252 430.026 156.77C430.683 158.255 430.199 158.773 430.199 159.705C430.51 159.464 431.72 162.157 431.409 160.431C429.922 158.462 431.754 158.221 431.305 156.77Z" fill="#231F33"/>
<path fill-rule="evenodd" clip-rule="evenodd" d="M415.438 359.363C416.441 358.672 417.996 358.845 417.581 358.603C417.996 357.084 416.06 358.051 415.438 359.363Z" fill="#231F33"/>
<path fill-rule="evenodd" clip-rule="evenodd" d="M396.737 386.124C395.319 387.885 393.522 388.68 393.591 390.199C394.593 389.577 396.598 387.713 396.253 389.405C396.564 387.954 400.712 385.261 399.709 385.434C398.465 386.124 395.527 388.369 396.737 386.124Z" fill="#231F33"/>
<path fill-rule="evenodd" clip-rule="evenodd" d="M416.752 408.88C416.752 409.536 416.752 409.502 416.406 411.919C418.1 409.605 419.621 407.361 418.653 406.256C418.169 407.05 416.199 408.535 416.752 408.88Z" fill="#231F33"/>
<path fill-rule="evenodd" clip-rule="evenodd" d="M344.435 436.712C343.64 437.333 342.914 437.126 342.948 437.61C344.988 437.023 341.289 439.129 341.462 439.578C342.775 439.164 345.921 437.023 345.264 436.885C343.225 438.197 343.985 437.472 344.435 436.712Z" fill="#231F33"/>
<path fill-rule="evenodd" clip-rule="evenodd" d="M277.994 463.819C278.824 463.819 280.138 463.508 280.483 464.06C277.856 464.889 273.57 464.302 274.883 465.545C275.678 464.647 278.34 464.993 279.066 465.338C279.515 464.544 284.666 462.196 283.111 462.714C280.691 463.957 278.79 462.886 277.994 463.819Z" fill="#231F33"/>
<path fill-rule="evenodd" clip-rule="evenodd" d="M264.478 464.578C264.478 465.959 262.37 467.513 264.72 468.031C264.444 467.513 265.377 467.341 265.654 466.926C263.856 466.615 264.063 464.889 267.417 464.371C267.728 463.335 265.584 464.44 264.478 464.578Z" fill="#231F33"/>
<path fill-rule="evenodd" clip-rule="evenodd" d="M254.557 467.445C253.416 467.928 255.871 468.446 255.525 469.378L253.244 469.758L252.967 468.308C251.239 469.516 247.851 469.724 249.268 470.656C248.778 470.535 248.265 470.538 247.776 470.665C247.288 470.791 246.838 471.038 246.468 471.381C250.893 471.139 251.999 469.862 255.629 469.965C255.629 469.585 255.629 469.24 256.666 469.171C255.007 468.688 256.562 467.375 254.557 467.445Z" fill="#231F33"/>
<path fill-rule="evenodd" clip-rule="evenodd" d="M230.048 484.019C231.189 484.399 234.093 483.743 233.194 485.297C237.722 484.882 231.466 482.81 230.048 484.019Z" fill="#231F33"/>
<path fill-rule="evenodd" clip-rule="evenodd" d="M206.092 468.411C206.687 468.542 207.258 468.764 207.786 469.067C214.112 468.998 207.337 468.377 206.092 468.411Z" fill="#231F33"/>
<path fill-rule="evenodd" clip-rule="evenodd" d="M202.636 469.723C203.119 470.621 205.712 470.967 207.199 470.828C206.749 470.172 204.71 469.654 206.058 468.998C203.752 468.766 201.424 468.859 199.144 469.275C200.803 470.345 197.45 470.276 198.522 470.69C199.642 470.304 200.859 470.304 201.979 470.69C202.774 470.172 201.771 469.965 202.636 469.723Z" fill="#231F33"/>
<path fill-rule="evenodd" clip-rule="evenodd" d="M194.789 466.995C194.789 467.721 193.855 467.859 193.026 467.997C193.026 467.375 190.537 467.582 190.226 467.03C189.603 467.237 189.949 468.1 188.463 467.686C180.393 466.694 172.393 465.206 164.507 463.232L154.136 460.504L148.64 459.019L142.763 456.981C142.418 458.915 141 456.084 139.894 456.602C140.482 458.432 141.795 458.57 144.284 460.055C145.01 459.33 143.04 458.984 142.971 458.363C143.523 458.569 144.11 458.663 144.699 458.639C143.558 459.606 147.223 460.435 145.287 460.711C149.331 461.816 153.894 462.403 158.837 463.473C161.292 463.957 163.884 464.509 166.615 465.165L170.764 466.167L175.223 467.03C175.223 466.512 175.776 466.339 176.467 466.339C177.746 467.272 177.954 466.823 180.408 467.203C179.648 467.962 179.924 468.238 181.376 468.825C181.376 468.515 181.376 467.997 182.033 468.031C185.47 468.485 188.939 468.647 192.403 468.515C194.828 468.452 197.229 468.022 199.524 467.237C198.384 467.41 196.24 466.892 194.789 466.995Z" fill="#231F33"/>
<path fill-rule="evenodd" clip-rule="evenodd" d="M122.437 419.101C124.442 419.861 126.62 421.346 124.338 421C125.41 421.829 126.827 422.761 127.795 422.243C129.212 423.59 129.385 425.696 131.563 426.283C131.517 426.501 131.407 426.7 131.247 426.854C131.087 427.008 130.884 427.11 130.664 427.147C132.254 427.665 133.119 427.147 134.467 427.147C135.815 427.147 134.467 428.39 136.022 428.839C136.748 428.321 139.479 428.839 141.795 429.909C141.647 430.016 141.548 430.178 141.519 430.358C141.558 430.768 141.675 431.167 141.864 431.532C142.106 431.29 142.487 431.049 142.487 430.807C142.537 430.58 142.537 430.344 142.487 430.116C145.218 431.256 147.534 432.706 146.566 433.259C148.004 433.655 149.413 434.152 150.783 434.744C150.783 434.744 150.437 435.02 150.264 435.158C150.092 435.296 150.057 435.849 150.679 436.021C151.924 436.332 153.41 436.021 154.378 437.126C155.553 436.297 156.556 436.677 157.835 437.299C159.114 437.92 159.045 437.299 159.321 436.574H159.598H159.391C159.427 436.31 159.427 436.043 159.391 435.779C160.255 435.779 161.188 436.194 161.361 435.779L159.391 435.365C159.391 434.744 159.01 433.88 158.665 434.122C158.188 434.437 157.663 434.671 157.109 434.813L155.726 434.467L149.953 432.43L139.583 428.597C139.956 428.32 140.399 428.152 140.862 428.114C142.279 428.563 142.798 430.047 143.697 429.15C142.579 428.717 141.531 428.124 140.585 427.388C139.79 428.079 138.442 427.734 137.129 427.216C136.068 426.588 134.893 426.177 133.672 426.007C133.826 426.004 133.977 425.955 134.104 425.868C134.232 425.78 134.331 425.658 134.389 425.515C134.448 425.372 134.464 425.215 134.435 425.063C134.405 424.911 134.332 424.771 134.225 424.661C132.091 424.011 130.162 422.822 128.625 421.207C128.901 420.862 129.593 421.207 129.904 420.828C127.533 419.827 125.007 419.243 122.437 419.101Z" fill="#231F33"/>
<path fill-rule="evenodd" clip-rule="evenodd" d="M135.4 442.202C138.177 442.272 140.876 443.135 143.178 444.688C143.222 444.514 143.223 444.332 143.181 444.158C143.139 443.983 143.055 443.822 142.936 443.687C143.202 443.829 143.499 443.903 143.8 443.903C144.102 443.903 144.399 443.829 144.664 443.687C141.415 442.962 139.929 442.133 136.817 441.477C140.136 442.651 136.195 442.237 135.4 442.202Z" fill="#231F33"/>
<path fill-rule="evenodd" clip-rule="evenodd" d="M130.561 438.68C129.869 438.412 129.235 438.013 128.694 437.506C127.83 438.059 130.353 440.372 129.731 439.267C128.175 438.439 130.561 439.164 130.561 438.68Z" fill="#231F33"/>
<path fill-rule="evenodd" clip-rule="evenodd" d="M118.911 440.441C117.563 442.064 123.44 443.377 123.647 444.93L123.889 444.378C124.2 444.378 124.511 444.62 124.511 444.378C123.336 443.653 121.607 442.997 119.533 441.754C119.672 441.374 120.19 440.821 118.911 440.441Z" fill="#231F33"/>
<path fill-rule="evenodd" clip-rule="evenodd" d="M101.765 453.632C102.284 453.632 104.047 453.218 102.941 452.596C101.523 453.011 100.866 451.94 99.7257 452.251C100.624 452.769 101.005 453.183 101.074 453.632C99.1726 453.149 99.2763 452.7 97.375 451.56C96.9948 451.975 97.6861 452.493 97.375 452.907C95.9941 451.976 94.4014 451.406 92.7429 451.25C94.333 452.078 94.0565 452.769 95.6466 453.598C97.6516 453.39 99.1034 454.634 102.56 456.015C102.56 455.393 103.563 455.842 104.047 455.739C103.131 455.226 102.349 454.504 101.765 453.632Z" fill="#231F33"/>
<path fill-rule="evenodd" clip-rule="evenodd" d="M116.111 399.039C117.286 399.315 117.736 400.8 118.116 400.247C116.353 399.073 117.355 398.797 117.252 398.037C116.318 398.279 116.111 398.003 116.111 399.039Z" fill="#231F33"/>
<path fill-rule="evenodd" clip-rule="evenodd" d="M358.366 46.5129C360.405 48.1358 361.304 47.6869 362.825 48.3085C364 49.4825 364.035 50.4839 364.761 51.5889C366.14 52.2406 367.401 53.1157 368.494 54.1787C369.873 55.5929 371.39 56.8654 373.023 57.9771C372.335 57.4795 371.752 56.8514 371.307 56.1285C370.862 55.4056 370.564 54.6023 370.43 53.7644C368.356 52.9356 367.596 51.6235 365.729 51.2436C366.109 50.8293 365.729 50.4494 364.968 50.3113C365.487 49.7588 365.902 49.2063 364.968 48.4121C363.482 48.4121 361.235 46.8237 359.714 46.7201C359.58 46.0181 359.335 45.3419 358.988 44.7173C358.877 44.863 358.728 44.9754 358.557 45.0424C358.387 45.1094 358.201 45.1283 358.02 45.0971C358.712 45.6842 358.884 46.1331 358.366 46.5129Z" fill="#231F33"/>
<path fill-rule="evenodd" clip-rule="evenodd" d="M146.566 463.301C145.317 462.433 144.012 461.648 142.659 460.953C139.751 459.401 136.546 458.483 133.257 458.259C133.084 460.677 130.699 460.849 127.553 460.228C128.244 458.915 124.753 458.052 124.407 456.775C124.165 458.052 122.195 456.775 122.264 457.431C122.029 456.781 121.578 456.232 120.985 455.877C120.605 457.292 117.321 455.186 115.178 454.461C114.797 455.497 115.454 455.531 114.486 456.084C117.376 458.326 120.439 460.335 123.647 462.092C129.247 462.507 135.262 468.998 142.383 470.656C147.119 471.726 150.265 469.62 149.297 465.718C148.465 464.828 147.55 464.019 146.566 463.301Z" fill="#231F33"/>
</g>
</mask>
<g mask="url(#mask0_9_1593)">
<rect x="-129.306" y="7.01904" width="712" height="472" fill="#D9D9D9"/>
</g>
</svg>
