<svg width="27" height="48" viewBox="0 0 27 48" fill="none" xmlns="http://www.w3.org/2000/svg">
<path d="M25.5441 44.2735C25.7468 44.4762 25.9076 44.7169 26.0173 44.9817C26.127 45.2466 26.1834 45.5304 26.1834 45.8171C26.1834 46.1037 26.127 46.3876 26.0173 46.6524C25.9076 46.9173 25.7468 47.1579 25.5441 47.3606C25.3414 47.5633 25.1007 47.7241 24.8359 47.8338C24.571 47.9435 24.2872 48 24.0005 48C23.7138 48 23.43 47.9435 23.1651 47.8338C22.9003 47.7241 22.6596 47.5633 22.4569 47.3606L0.639865 25.5436C0.437018 25.3409 0.276098 25.1003 0.166305 24.8355C0.0565125 24.5706 0 24.2867 0 24C0 23.7133 0.0565125 23.4294 0.166305 23.1645C0.276098 22.8997 0.437018 22.6591 0.639865 22.4564L22.4569 0.639363C22.8663 0.229985 23.4216 -1.14124e-08 24.0005 0C24.5794 1.14124e-08 25.1347 0.229985 25.5441 0.639363C25.9534 1.04874 26.1834 1.60397 26.1834 2.18292C26.1834 2.76187 25.9534 3.3171 25.5441 3.72648L5.26781 24L25.5441 44.2735Z" fill="#F8F1E1"/>
</svg>
