<svg width="42" height="40" viewBox="0 0 42 40" fill="none" xmlns="http://www.w3.org/2000/svg">
<path d="M40.5132 31.0174C41.5496 28.8677 42.0582 26.5017 41.9966 24.1159C41.935 21.7302 41.3051 19.3936 40.1591 17.3002C39.0131 15.2068 37.3842 13.4171 35.4076 12.0797C33.431 10.7423 31.1639 9.89577 28.7944 9.61053C28.006 7.77747 26.8598 6.12013 25.4229 4.73557C23.986 3.35101 22.2873 2.26707 20.4262 1.54721C18.5652 0.827347 16.5792 0.486043 14.5846 0.543282C12.59 0.600521 10.6269 1.05515 8.81017 1.88055C6.99347 2.70595 5.35971 3.88553 4.00457 5.35021C2.64942 6.81489 1.60014 8.53524 0.918153 10.4105C0.23617 12.2858 -0.064802 14.2782 0.0328617 16.2713C0.130525 18.2643 0.624862 20.2178 1.48692 22.0174L0.123798 26.6505C-0.028611 27.1678 -0.0388019 27.7165 0.0942975 28.239C0.227397 28.7615 0.498866 29.2385 0.880145 29.6198C1.26142 30.0011 1.73842 30.2726 2.26094 30.4057C2.78346 30.5388 3.3322 30.5286 3.84942 30.3762L8.48255 29.013C9.97025 29.7278 11.5652 30.1933 13.2038 30.3912C13.9999 32.2564 15.1659 33.9409 16.6315 35.3427C18.097 36.7445 19.8316 37.8346 21.7304 38.547C23.6292 39.2595 25.6527 39.5795 27.6787 39.4877C29.7047 39.3959 31.691 38.8942 33.5175 38.013L38.1507 39.3762C38.6677 39.5284 39.2162 39.5385 39.7385 39.4055C40.2608 39.2725 40.7376 39.0012 41.1188 38.6202C41.5 38.2392 41.7715 37.7625 41.9048 37.2402C42.0381 36.718 42.0283 36.1695 41.8763 35.6524L40.5132 31.0174ZM8.62505 25.9062C8.48171 25.9065 8.33911 25.9267 8.2013 25.9662L3.00005 27.4999L4.53192 22.2949C4.64087 21.9189 4.59848 21.5151 4.4138 21.1699C3.05688 18.6322 2.65706 15.6915 3.28723 12.8836C3.9174 10.0758 5.53559 7.58796 7.84682 5.87356C10.158 4.15915 13.0084 3.33239 15.8783 3.54397C18.7481 3.75555 21.4464 4.99139 23.4812 7.02621C25.5161 9.06102 26.7519 11.7593 26.9635 14.6292C27.1751 17.4991 26.3483 20.3494 24.6339 22.6606C22.9195 24.9719 20.4316 26.5901 17.6238 27.2202C14.816 27.8504 11.8752 27.4506 9.33755 26.0937C9.11933 25.9729 8.87444 25.9085 8.62505 25.9062ZM37.4607 31.293L39 36.4999L33.7951 34.968C33.419 34.8591 33.0153 34.9015 32.6701 35.0862C29.9079 36.5611 26.6788 36.8988 23.6712 36.0274C20.6636 35.156 18.1153 33.1443 16.5694 30.4212C18.6233 30.2068 20.6106 29.5703 22.4069 28.5516C24.2031 27.5329 25.7694 26.1541 27.0076 24.5014C28.2458 22.8488 29.1291 20.9582 29.6021 18.9481C30.0751 16.938 30.1276 14.8519 29.7563 12.8205C31.5458 13.2423 33.2144 14.0697 34.6334 15.2387C36.0524 16.4078 37.1838 17.8872 37.9403 19.5629C38.6968 21.2386 39.0581 23.0657 38.9964 24.9031C38.9347 26.7406 38.4516 28.5394 37.5844 30.1605C37.3977 30.5078 37.3553 30.9147 37.4663 31.293H37.4607Z" fill="#F8F1E1"/>
</svg>
