<svg width="40" height="44" viewBox="0 0 40 44" fill="none" xmlns="http://www.w3.org/2000/svg">
<path opacity="0.2" d="M20 19.5C20 19.5 3.125 1.5 20 1.5C36.875 1.5 20 19.5 20 19.5ZM2 19.5C2 36.375 20 19.5 20 19.5C20 19.5 2 2.625 2 19.5ZM20 37.5C36.875 37.5 20 19.5 20 19.5C20 19.5 3.125 37.5 20 37.5ZM20 19.5C20 19.5 38 36.375 38 19.5C38 2.625 20 19.5 20 19.5Z" fill="#5DA65B"/>
<path d="M35.6862 28.0387C38.2175 26.9437 39.5 24.0694 39.5 19.5C39.5 14.9306 38.2175 12.0562 35.6862 10.9594C33.5019 10.0219 30.5787 10.5413 26.975 12.525C28.9587 8.92125 29.4856 5.99813 28.5406 3.81375C27.4438 1.2825 24.5694 0 20 0C15.4306 0 12.5562 1.2825 11.4594 3.81375C10.5144 6 11.0413 8.92125 13.025 12.525C9.42125 10.5413 6.5 10.0125 4.31375 10.9594C1.7825 12.0562 0.5 14.9306 0.5 19.5C0.5 24.0694 1.7825 26.9437 4.31375 28.0387C5.05232 28.3521 5.84776 28.5091 6.65 28.5C8.45 28.5 10.5875 27.8213 13.025 26.4769C11.0413 30.0769 10.5144 33 11.4594 35.1844C12.5562 37.7156 15.4306 39 20 39C24.5694 39 27.4438 37.7156 28.5406 35.1844C28.9087 34.2952 29.0591 33.3309 28.9794 32.3719C30.9387 35.415 32.6619 38.8369 33.545 42.3713C33.6275 42.6944 33.8154 42.9808 34.0789 43.1852C34.3424 43.3896 34.6665 43.5004 35 43.5C35.1233 43.5001 35.2461 43.485 35.3656 43.455C35.7515 43.3585 36.0832 43.1127 36.2878 42.7716C36.4925 42.4305 36.5533 42.0221 36.4569 41.6362C35.1556 36.4312 32.2812 31.5487 29.3581 27.6131C30.8294 28.2044 32.16 28.5 33.35 28.5C34.1522 28.5091 34.9477 28.3521 35.6862 28.0387ZM34.4919 13.7137C36.1512 14.4375 36.5 17.25 36.5 19.5C36.5 21.75 36.1512 24.5625 34.4938 25.2863C32.9263 25.9669 30.0837 25.0406 26.4912 22.6781C25.0219 21.6984 23.6108 20.6341 22.265 19.4906C25.7169 16.5694 31.7 12.5025 34.4919 13.7137ZM14.2137 5.00625C14.9375 3.34875 17.75 3 20 3C22.25 3 25.0625 3.34875 25.7863 5.00625C26.4669 6.57375 25.5406 9.41625 23.1781 13.0087C22.1984 14.4781 21.1341 15.8892 19.9906 17.235C17.0694 13.7831 13.0044 7.79813 14.2137 5.00625ZM5.50812 25.2863C3.84875 24.5625 3.5 21.75 3.5 19.5C3.5 17.25 3.84875 14.4375 5.50625 13.7137C5.88099 13.5616 6.28321 13.4888 6.6875 13.5C8.32812 13.5 10.6888 14.4694 13.5125 16.3256C14.9818 17.3053 16.393 18.3696 17.7388 19.5131C14.2831 22.4287 8.29812 26.4975 5.50812 25.2863ZM25.7863 33.9919C25.0625 35.6512 22.25 36 20 36C17.75 36 14.9375 35.6512 14.2137 33.9938C13.5331 32.4263 14.4594 29.5837 16.8219 25.9912C17.8016 24.5219 18.8659 23.1108 20.0094 21.765C22.9306 25.2169 26.9956 31.2019 25.7863 33.9919Z" fill="#5DA65B"/>
</svg>
