<svg width="34" height="42" viewBox="0 0 34 42" fill="none" xmlns="http://www.w3.org/2000/svg">
<path d="M30.5 39H21.2262C22.784 37.6088 24.2531 36.1216 25.625 34.5469C30.7719 28.6275 33.5 22.3875 33.5 16.5C33.5 12.1239 31.7616 7.92709 28.6673 4.83274C25.5729 1.73839 21.3761 0 17 0C12.6239 0 8.42709 1.73839 5.33274 4.83274C2.23839 7.92709 0.5 12.1239 0.5 16.5C0.5 22.3875 3.22062 28.6275 8.375 34.5469C9.74693 36.1216 11.216 37.6088 12.7738 39H3.5C3.10218 39 2.72064 39.158 2.43934 39.4393C2.15804 39.7206 2 40.1022 2 40.5C2 40.8978 2.15804 41.2794 2.43934 41.5607C2.72064 41.842 3.10218 42 3.5 42H30.5C30.8978 42 31.2794 41.842 31.5607 41.5607C31.842 41.2794 32 40.8978 32 40.5C32 40.1022 31.842 39.7206 31.5607 39.4393C31.2794 39.158 30.8978 39 30.5 39ZM17 10.5C18.1867 10.5 19.3467 10.8519 20.3334 11.5112C21.3201 12.1705 22.0892 13.1075 22.5433 14.2039C22.9974 15.3003 23.1162 16.5067 22.8847 17.6705C22.6532 18.8344 22.0818 19.9035 21.2426 20.7426C20.4035 21.5818 19.3344 22.1532 18.1705 22.3847C17.0067 22.6162 15.8003 22.4974 14.7039 22.0433C13.6075 21.5892 12.6705 20.8201 12.0112 19.8334C11.3519 18.8467 11 17.6867 11 16.5C11 14.9087 11.6321 13.3826 12.7574 12.2574C13.8826 11.1321 15.4087 10.5 17 10.5Z" fill="#48302B"/>
</svg>
