<svg width="28" height="28" viewBox="0 0 28 28" fill="none" xmlns="http://www.w3.org/2000/svg">
<path d="M27.75 1.5V9C27.75 9.33152 27.6183 9.64946 27.3839 9.88388C27.1495 10.1183 26.8315 10.25 26.5 10.25C26.1685 10.25 25.8505 10.1183 25.6161 9.88388C25.3817 9.64946 25.25 9.33152 25.25 9V4.51719L18.6344 11.1344C18.3998 11.3689 18.0817 11.5007 17.75 11.5007C17.4183 11.5007 17.1002 11.3689 16.8656 11.1344C16.6311 10.8998 16.4993 10.5817 16.4993 10.25C16.4993 9.91829 16.6311 9.60017 16.8656 9.36562L23.4828 2.75H19C18.6685 2.75 18.3505 2.6183 18.1161 2.38388C17.8817 2.14946 17.75 1.83152 17.75 1.5C17.75 1.16848 17.8817 0.850537 18.1161 0.616117C18.3505 0.381696 18.6685 0.25 19 0.25H26.5C26.8315 0.25 27.1495 0.381696 27.3839 0.616117C27.6183 0.850537 27.75 1.16848 27.75 1.5ZM9.36562 16.8656L2.75 23.4828V19C2.75 18.6685 2.6183 18.3505 2.38388 18.1161C2.14946 17.8817 1.83152 17.75 1.5 17.75C1.16848 17.75 0.850537 17.8817 0.616117 18.1161C0.381696 18.3505 0.25 18.6685 0.25 19V26.5C0.25 26.8315 0.381696 27.1495 0.616117 27.3839C0.850537 27.6183 1.16848 27.75 1.5 27.75H9C9.33152 27.75 9.64946 27.6183 9.88388 27.3839C10.1183 27.1495 10.25 26.8315 10.25 26.5C10.25 26.1685 10.1183 25.8505 9.88388 25.6161C9.64946 25.3817 9.33152 25.25 9 25.25H4.51719L11.1344 18.6344C11.3689 18.3998 11.5007 18.0817 11.5007 17.75C11.5007 17.4183 11.3689 17.1002 11.1344 16.8656C10.8998 16.6311 10.5817 16.4993 10.25 16.4993C9.91829 16.4993 9.60017 16.6311 9.36562 16.8656ZM26.5 17.75C26.1685 17.75 25.8505 17.8817 25.6161 18.1161C25.3817 18.3505 25.25 18.6685 25.25 19V23.4828L18.6344 16.8656C18.3998 16.6311 18.0817 16.4993 17.75 16.4993C17.4183 16.4993 17.1002 16.6311 16.8656 16.8656C16.6311 17.1002 16.4993 17.4183 16.4993 17.75C16.4993 18.0817 16.6311 18.3998 16.8656 18.6344L23.4828 25.25H19C18.6685 25.25 18.3505 25.3817 18.1161 25.6161C17.8817 25.8505 17.75 26.1685 17.75 26.5C17.75 26.8315 17.8817 27.1495 18.1161 27.3839C18.3505 27.6183 18.6685 27.75 19 27.75H26.5C26.8315 27.75 27.1495 27.6183 27.3839 27.3839C27.6183 27.1495 27.75 26.8315 27.75 26.5V19C27.75 18.6685 27.6183 18.3505 27.3839 18.1161C27.1495 17.8817 26.8315 17.75 26.5 17.75ZM4.51719 2.75H9C9.33152 2.75 9.64946 2.6183 9.88388 2.38388C10.1183 2.14946 10.25 1.83152 10.25 1.5C10.25 1.16848 10.1183 0.850537 9.88388 0.616117C9.64946 0.381696 9.33152 0.25 9 0.25H1.5C1.16848 0.25 0.850537 0.381696 0.616117 0.616117C0.381696 0.850537 0.25 1.16848 0.25 1.5V9C0.25 9.33152 0.381696 9.64946 0.616117 9.88388C0.850537 10.1183 1.16848 10.25 1.5 10.25C1.83152 10.25 2.14946 10.1183 2.38388 9.88388C2.6183 9.64946 2.75 9.33152 2.75 9V4.51719L9.36562 11.1344C9.60017 11.3689 9.91829 11.5007 10.25 11.5007C10.5817 11.5007 10.8998 11.3689 11.1344 11.1344C11.3689 10.8998 11.5007 10.5817 11.5007 10.25C11.5007 9.91829 11.3689 9.60017 11.1344 9.36562L4.51719 2.75Z" fill="#F8F1E1"/>
</svg>
