<svg width="46" height="37" viewBox="0 0 46 37" fill="none" xmlns="http://www.w3.org/2000/svg">
<path d="M37.5144 22.8257C35.7162 23.9189 33.6508 24.4938 31.5463 24.487C29.7833 24.4731 28.0402 24.1125 26.4163 23.4257C25.1648 25.1926 24.495 27.3055 24.5001 29.4707V35.0001C24.5005 35.2057 24.4587 35.4093 24.3772 35.5981C24.2957 35.7868 24.1762 35.9568 24.0262 36.0975C23.8762 36.2382 23.6989 36.3465 23.5053 36.4158C23.3117 36.485 23.1059 36.5137 22.9007 36.5001C22.5151 36.4666 22.1565 36.2885 21.8968 36.0016C21.637 35.7147 21.4953 35.3402 21.5001 34.9532V32.6207L14.2588 25.3795C13.1824 25.7811 12.0439 25.9911 10.8951 26.0001C9.31343 26.0042 7.76137 25.5714 6.41007 24.7495C2.32444 22.267 0.12507 16.5539 0.550695 9.46074C0.572125 9.09378 0.727558 8.74745 0.987483 8.48753C1.24741 8.2276 1.59373 8.07217 1.96069 8.05074C9.05382 7.63261 14.7669 9.82449 17.2419 13.9101C18.2143 15.5115 18.6389 17.386 18.4513 19.2501C18.4397 19.3945 18.3864 19.5325 18.298 19.6473C18.2096 19.7621 18.0899 19.8489 17.9532 19.8971C17.8166 19.9453 17.6689 19.9528 17.528 19.9189C17.3871 19.8849 17.2591 19.8109 17.1594 19.7057L13.5594 15.937C13.2759 15.6676 12.8982 15.5196 12.5071 15.5246C12.1159 15.5296 11.7422 15.6872 11.4656 15.9638C11.189 16.2404 11.0314 16.6141 11.0264 17.0053C11.0214 17.3964 11.1694 17.774 11.4388 18.0576L21.5413 28.417C21.5526 28.2707 21.5657 28.1245 21.5807 27.9801C21.9087 25.199 23.1359 22.6011 25.0757 20.5814L34.5613 10.5576C34.8428 10.2764 35.001 9.8949 35.0012 9.49703C35.0014 9.09916 34.8435 8.71751 34.5623 8.43605C34.281 8.15459 33.8995 7.99637 33.5017 7.99619C33.1038 7.99602 32.7222 8.1539 32.4407 8.43512L23.2532 18.1514C23.1612 18.2488 23.0449 18.3198 22.9162 18.357C22.7875 18.3942 22.6512 18.3963 22.5214 18.363C22.3916 18.3297 22.2732 18.2622 22.1783 18.1676C22.0834 18.073 22.0156 17.9548 21.9819 17.8251C21.0932 14.5476 21.4851 11.2851 23.1819 8.48387C26.5307 2.95637 34.3232 -0.00238466 44.0282 0.567615C44.3952 0.589046 44.7415 0.744479 45.0014 1.0044C45.2613 1.26433 45.4168 1.61065 45.4382 1.97762C46.0007 11.6845 43.0419 19.477 37.5144 22.8257Z" fill="#48302B"/>
</svg>
