<svg width="40" height="41" viewBox="0 0 40 41" fill="none" xmlns="http://www.w3.org/2000/svg">
<path opacity="0.2" d="M38 20.9999C38.0027 23.5242 37.473 26.0208 36.4456 28.3266C35.4182 30.6324 33.9162 32.6957 32.0375 34.3817C30.908 32.16 29.1855 30.2944 27.0608 28.9915C24.9362 27.6886 22.4923 26.9992 20 26.9999C21.4833 26.9999 22.9334 26.56 24.1667 25.7359C25.4001 24.9118 26.3614 23.7404 26.9291 22.37C27.4967 20.9995 27.6452 19.4915 27.3559 18.0367C27.0665 16.5818 26.3522 15.2455 25.3033 14.1966C24.2544 13.1477 22.918 12.4334 21.4631 12.144C20.0083 11.8546 18.5003 12.0031 17.1298 12.5708C15.7594 13.1384 14.5881 14.0997 13.7639 15.3331C12.9398 16.5665 12.5 18.0165 12.5 19.4999C12.5 21.489 13.2901 23.3966 14.6967 24.8032C16.1032 26.2097 18.0108 26.9999 20 26.9999C17.5076 26.9992 15.0638 27.6886 12.9391 28.9915C10.8145 30.2944 9.09198 32.16 7.96247 34.3817C4.52649 31.2911 2.41091 26.9973 2.05389 22.3896C1.69687 17.782 3.12577 13.2135 6.04464 9.63047C8.96351 6.04743 13.1487 3.72435 17.7334 3.14237C22.3181 2.5604 26.9509 3.76412 30.6725 6.50424C30.4857 7.03736 30.4533 7.61237 30.5789 8.16311C30.7045 8.71385 30.983 9.21794 31.3825 9.61738C31.7819 10.0168 32.286 10.2954 32.8367 10.421C33.3875 10.5466 33.9625 10.5141 34.4956 10.3274C36.777 13.4175 38.0055 17.1588 38 20.9999Z" fill="#5DA65B"/>
<path d="M38.7969 8.82563L37.9231 8.32125C38.0256 7.77855 38.0256 7.22145 37.9231 6.67875L38.7969 6.17438C39.1415 5.97546 39.393 5.6478 39.496 5.26347C39.599 4.87913 39.5451 4.46962 39.3462 4.125C39.1473 3.78038 38.8197 3.5289 38.4353 3.42587C38.051 3.32285 37.6415 3.37671 37.2969 3.57563L36.4212 4.08188C36.0022 3.72229 35.5204 3.44323 35 3.25875V2.25C35 1.85218 34.8419 1.47064 34.5606 1.18934C34.2793 0.908035 33.8978 0.75 33.5 0.75C33.1022 0.75 32.7206 0.908035 32.4393 1.18934C32.158 1.47064 32 1.85218 32 2.25V3.25875C31.4796 3.44323 30.9977 3.72229 30.5787 4.08188L29.7031 3.57563C29.5325 3.47713 29.3441 3.41322 29.1488 3.38752C28.9534 3.36183 28.7549 3.37486 28.5646 3.42587C28.3743 3.47689 28.196 3.56488 28.0397 3.68484C27.8834 3.8048 27.7522 3.95436 27.6537 4.125C27.5552 4.29564 27.4913 4.484 27.4656 4.67934C27.4399 4.87468 27.453 5.07316 27.504 5.26347C27.555 5.45377 27.643 5.63216 27.763 5.78845C27.8829 5.94475 28.0325 6.07588 28.2031 6.17438L29.0769 6.67875C28.9744 7.22145 28.9744 7.77855 29.0769 8.32125L28.2031 8.82563C27.917 8.99065 27.6933 9.24551 27.5668 9.55064C27.4404 9.85578 27.4181 10.1941 27.5036 10.5132C27.5891 10.8322 27.7775 11.1142 28.0396 11.3152C28.3017 11.5162 28.6228 11.6251 28.9531 11.625C29.2165 11.626 29.4754 11.5567 29.7031 11.4244L30.5787 10.9181C30.9977 11.2777 31.4796 11.5568 32 11.7413V12.75C32 13.1478 32.158 13.5294 32.4393 13.8107C32.7206 14.092 33.1022 14.25 33.5 14.25C33.8978 14.25 34.2793 14.092 34.5606 13.8107C34.8419 13.5294 35 13.1478 35 12.75V11.7413C35.5204 11.5568 36.0022 11.2777 36.4212 10.9181L37.2969 11.4244C37.5246 11.5567 37.7835 11.626 38.0469 11.625C38.3772 11.6251 38.6983 11.5162 38.9604 11.3152C39.2225 11.1142 39.4109 10.8322 39.4963 10.5132C39.5818 10.1941 39.5596 9.85578 39.4331 9.55064C39.3066 9.24551 39.083 8.99065 38.7969 8.82563ZM32 7.5C32 7.20333 32.088 6.91332 32.2528 6.66665C32.4176 6.41997 32.6519 6.22771 32.926 6.11418C33.2001 6.00065 33.5017 5.97094 33.7926 6.02882C34.0836 6.0867 34.3509 6.22956 34.5606 6.43934C34.7704 6.64912 34.9133 6.91639 34.9712 7.20737C35.029 7.49834 34.9993 7.79994 34.8858 8.07403C34.7723 8.34811 34.58 8.58238 34.3333 8.7472C34.0867 8.91203 33.7967 9 33.5 9C33.1022 9 32.7206 8.84196 32.4393 8.56066C32.158 8.27936 32 7.89783 32 7.5ZM37.5031 16.5206C37.1108 16.5863 36.7606 16.8051 36.5295 17.129C36.2985 17.4528 36.2056 17.8551 36.2712 18.2475C36.4234 19.1571 36.4999 20.0778 36.5 21C36.5035 25.0391 35.019 28.938 32.33 31.9519C30.6571 29.5276 28.3047 27.6522 25.5687 26.5613C27.0384 25.4037 28.1108 23.817 28.6369 22.0217C29.1629 20.2264 29.1164 18.3118 28.5039 16.5441C27.8913 14.7765 26.7432 13.2437 25.2191 12.1588C23.695 11.0739 21.8708 10.491 20 10.491C18.1292 10.491 16.3049 11.0739 14.7809 12.1588C13.2568 13.2437 12.1086 14.7765 11.4961 16.5441C10.8836 18.3118 10.8371 20.2264 11.3631 22.0217C11.8892 23.817 12.9616 25.4037 14.4312 26.5613C11.6953 27.6522 9.34292 29.5276 7.66999 31.9519C5.56009 29.5743 4.18187 26.6379 3.70107 23.4957C3.22027 20.3535 3.65734 17.1393 4.95974 14.2396C6.26214 11.3399 8.37442 8.87815 11.0426 7.15032C13.7108 5.4225 16.8212 4.50217 20 4.5C20.9222 4.50006 21.8429 4.57657 22.7525 4.72875C23.1431 4.79038 23.5422 4.69529 23.863 4.46417C24.1839 4.23305 24.4005 3.88459 24.4657 3.49459C24.531 3.1046 24.4396 2.70461 24.2114 2.38165C23.9833 2.05868 23.6369 1.83886 23.2475 1.77C19.1739 1.08472 14.988 1.71175 11.2941 3.56058C7.6001 5.4094 4.58929 8.38434 2.69633 12.0559C0.803373 15.7274 0.126215 19.9055 0.762631 23.987C1.39905 28.0685 3.31611 31.8421 6.23701 34.763C9.15792 37.6839 12.9315 39.6009 17.013 40.2374C21.0945 40.8738 25.2726 40.1966 28.9441 38.3037C32.6156 36.4107 35.5906 33.3999 37.4394 29.7059C39.2882 26.012 39.9153 21.826 39.23 17.7525C39.1643 17.3602 38.9455 17.01 38.6217 16.7789C38.2978 16.5479 37.8955 16.455 37.5031 16.5206ZM14 19.5C14 18.3133 14.3519 17.1533 15.0112 16.1666C15.6705 15.1799 16.6075 14.4108 17.7039 13.9567C18.8002 13.5026 20.0066 13.3838 21.1705 13.6153C22.3344 13.8468 23.4035 14.4182 24.2426 15.2574C25.0817 16.0965 25.6532 17.1656 25.8847 18.3295C26.1162 19.4933 25.9974 20.6997 25.5433 21.7961C25.0891 22.8925 24.3201 23.8295 23.3334 24.4888C22.3467 25.1481 21.1867 25.5 20 25.5C18.4087 25.5 16.8826 24.8679 15.7573 23.7426C14.6321 22.6174 14 21.0913 14 19.5ZM9.88999 34.0313C10.9751 32.3342 12.47 30.9375 14.2368 29.9701C16.0037 29.0027 17.9856 28.4956 20 28.4956C22.0143 28.4956 23.9963 29.0027 25.7631 29.9701C27.53 30.9375 29.0249 32.3342 30.11 34.0313C27.2194 36.2794 23.6619 37.4999 20 37.4999C16.3381 37.4999 12.7806 36.2794 9.88999 34.0313Z" fill="#5DA65B"/>
</svg>
