<svg width="565" height="572" viewBox="0 0 565 572" fill="none" xmlns="http://www.w3.org/2000/svg">
<path d="M564.666 286.552C564.666 323.293 557.736 360.035 544.177 394.066C530.618 428.399 510.429 460.021 484.818 486.824C459.206 513.628 427.869 535.311 393.519 549.767C359.169 564.223 321.806 571.451 284.443 571.15C247.08 570.547 210.018 562.717 175.969 547.96C159.096 540.732 142.825 531.698 127.458 521.157C112.09 510.616 97.9286 498.871 84.9721 485.62C59.059 459.419 37.9669 428.399 23.805 394.368C21.9972 390.151 20.1893 385.935 18.6827 381.418C17.1761 376.9 15.6695 372.684 14.163 368.166C12.9577 363.649 11.4511 359.433 10.2459 354.915C9.04059 350.398 7.83533 345.88 6.93138 341.363C3.01428 323.293 1.20639 304.922 0.905074 286.25C0.302443 249.207 6.93138 211.863 21.0932 177.531C35.255 143.198 56.0458 111.275 82.5616 84.7731C108.776 58.2708 140.414 36.8883 174.764 22.4325C209.415 7.67564 246.778 0.447754 284.142 0.447754C321.505 0.748916 359.169 7.9768 393.519 22.7337C427.869 37.1895 459.206 59.1743 484.818 85.9778C510.429 112.781 530.919 144.403 544.177 178.736C557.736 213.068 564.666 249.81 564.666 286.552ZM563.461 286.552C563.461 268.181 561.653 250.111 557.736 232.041C553.819 214.273 548.395 196.805 541.164 179.94C526.701 146.511 505.307 116.395 479.093 91.3987C453.18 66.7034 422.445 46.8267 388.999 33.5755C355.855 20.3244 319.998 13.0965 284.142 13.3977C248.285 13.3977 212.73 20.6256 179.585 33.8767C146.44 47.429 116.008 67.6069 90.3958 92.6033C65.0853 117.901 44.2945 148.318 30.1327 181.145C16.2722 214.273 8.43796 250.111 7.83533 286.552C7.53401 322.691 13.8616 359.132 27.7221 392.862C34.6524 409.727 43.0892 425.688 53.334 441.048C63.2774 456.106 75.0287 470.26 87.9852 483.21C100.942 495.859 115.104 507.303 130.471 517.242C145.838 527.18 161.808 535.311 178.681 541.937C212.429 555.188 248.586 561.814 284.443 561.211C320.299 560.91 356.156 553.682 389.602 540.13C393.82 538.624 397.738 536.516 401.956 534.709C406.174 532.902 410.091 530.794 414.009 528.686C417.926 526.578 421.843 524.47 425.76 522.06C429.677 519.952 433.293 517.242 437.21 515.134C452.276 505.195 466.437 494.052 479.695 481.705C505.91 456.708 527.002 426.291 541.465 393.163C548.697 376.599 554.12 359.132 558.037 341.062C561.352 322.992 563.16 304.621 563.461 286.552Z" fill="#996D4E"/>
</svg>
