<svg width="32" height="32" viewBox="0 0 32 32" fill="none" xmlns="http://www.w3.org/2000/svg">
<path d="M19.7225 18.6047L23.2056 20.3434C23.0405 21.1685 22.5943 21.9107 21.9431 22.4435C21.2919 22.9763 20.476 23.2666 19.6346 23.265C16.7437 23.2618 13.9721 22.1118 11.928 20.0675C9.8838 18.0231 8.73398 15.2513 8.73077 12.3601C8.73053 11.5197 9.02148 10.7052 9.5541 10.0551C10.0867 9.4051 10.8281 8.95972 11.6521 8.79479L13.3906 12.2783L11.9111 14.4805C11.8005 14.6463 11.7326 14.8369 11.7133 15.0353C11.694 15.2338 11.724 15.4339 11.8005 15.6179C12.6673 17.6783 14.3063 19.3174 16.3665 20.1843C16.5511 20.2643 16.7527 20.297 16.9531 20.2796C17.1535 20.2621 17.3464 20.195 17.5144 20.0844L19.7225 18.6047ZM31.75 15.9951C31.7506 18.7145 31.0472 21.3878 29.7082 23.7547C28.3692 26.1216 26.4404 28.1015 24.1093 29.5017C21.7782 30.9019 19.1244 31.6746 16.4061 31.7448C13.6878 31.8149 10.9976 31.18 8.5975 29.9018L3.44089 31.6208C3.01395 31.7632 2.5558 31.7839 2.11778 31.6805C1.67976 31.5771 1.27918 31.3538 0.960947 31.0355C0.642713 30.7173 0.419395 30.3167 0.316025 29.8786C0.212655 29.4405 0.233318 28.9823 0.375697 28.5554L2.09457 23.3983C0.97109 21.2858 0.343587 18.9451 0.259688 16.5539C0.17579 14.1627 0.637701 11.7837 1.61036 9.59772C2.58302 7.41168 4.04086 5.47599 5.87323 3.93756C7.7056 2.39913 9.86433 1.2984 12.1856 0.718924C14.5068 0.139448 16.9296 0.0964538 19.2699 0.593205C21.6102 1.08996 23.8066 2.1134 25.6924 3.58584C27.5782 5.05829 29.1038 6.94104 30.1534 9.09119C31.203 11.2413 31.749 13.6024 31.75 15.9951ZM25.6923 19.63C25.6925 19.4049 25.6299 19.1842 25.5117 18.9927C25.3935 18.8011 25.2242 18.6463 25.0229 18.5456L20.1768 16.1223C19.986 16.0272 19.7736 15.9841 19.5608 15.9974C19.3481 16.0107 19.1427 16.0799 18.9652 16.198L16.7406 17.6823C15.7193 17.1208 14.8789 16.2803 14.3175 15.259L15.8016 13.0341C15.9197 12.8566 15.9889 12.6511 16.0022 12.4384C16.0154 12.2257 15.9724 12.0132 15.8773 11.8224L13.4543 6.9758C13.3538 6.77295 13.1986 6.6023 13.0061 6.48317C12.8137 6.36405 12.5917 6.30122 12.3654 6.30181C10.7588 6.30181 9.21799 6.94009 8.08195 8.07624C6.94591 9.21239 6.30769 10.7533 6.30769 12.3601C6.3117 15.8937 7.71707 19.2815 10.2155 21.7801C12.7139 24.2788 16.1013 25.6843 19.6346 25.6883C20.4301 25.6883 21.2178 25.5316 21.9528 25.2271C22.6877 24.9227 23.3555 24.4764 23.9181 23.9139C24.4806 23.3513 24.9268 22.6834 25.2312 21.9484C25.5356 21.2134 25.6923 20.4256 25.6923 19.63Z" fill="#5DA65B"/>
</svg>
