<svg width="33" height="29" viewBox="0 0 33 29" fill="none" xmlns="http://www.w3.org/2000/svg">
<path d="M31.8122 1.05771C31.6379 0.907197 31.4258 0.807096 31.1988 0.768191C30.9718 0.729286 30.7385 0.753052 30.524 0.836929L2.02497 11.9899C1.62107 12.147 1.27913 12.431 1.05061 12.7992C0.822096 13.1674 0.719381 13.5999 0.757929 14.0315C0.796477 14.4632 0.974201 14.8706 1.26435 15.1925C1.55449 15.5144 1.94135 15.7333 2.36669 15.8163L9.7509 17.2661V25.4997C9.74945 25.9482 9.88273 26.3868 10.1335 26.7586C10.3842 27.1305 10.7408 27.4184 11.1572 27.5852C11.5728 27.755 12.03 27.7957 12.4691 27.7021C12.9082 27.6086 13.3091 27.3851 13.6195 27.0607L17.1801 23.3679L22.829 28.3122C23.2366 28.6737 23.7622 28.8738 24.307 28.8747C24.5457 28.8746 24.783 28.8371 25.0101 28.7636C25.3813 28.6459 25.7151 28.4329 25.9784 28.146C26.2417 27.859 26.4251 27.5081 26.5106 27.1282L32.2186 2.29662C32.2696 2.07267 32.2588 1.83905 32.1872 1.6208C32.1156 1.40255 31.9859 1.2079 31.8122 1.05771ZM24.3098 26.6247L12.6829 16.4294L29.4173 4.43552L24.3098 26.6247Z" fill="#5DA65B"/>
</svg>
