<svg width="32" height="25" viewBox="0 0 32 25" fill="none" xmlns="http://www.w3.org/2000/svg">
<path d="M30.9527 4.40126C30.8202 3.88284 30.5663 3.40335 30.212 3.00236C29.8577 2.60137 29.4131 2.29037 28.915 2.09501C24.0944 0.23313 16.4219 0.250005 16 0.250005C15.5781 0.250005 7.90562 0.23313 3.085 2.09501C2.58685 2.29037 2.1423 2.60137 1.78801 3.00236C1.43372 3.40335 1.17985 3.88284 1.04734 4.40126C0.683125 5.80469 0.25 8.36969 0.25 12.625C0.25 16.8803 0.683125 19.4453 1.04734 20.8488C1.17965 21.3674 1.43343 21.8472 1.78773 22.2484C2.14203 22.6497 2.58669 22.9609 3.085 23.1564C7.70312 24.9381 14.9312 25 15.9072 25H16.0928C17.0688 25 24.3011 24.9381 28.915 23.1564C29.4133 22.9609 29.858 22.6497 30.2123 22.2484C30.5666 21.8472 30.8204 21.3674 30.9527 20.8488C31.3169 19.4425 31.75 16.8803 31.75 12.625C31.75 8.36969 31.3169 5.80469 30.9527 4.40126ZM20.583 13.5419L14.958 17.4794C14.7897 17.5973 14.5924 17.6668 14.3874 17.6805C14.1824 17.6942 13.9776 17.6514 13.7951 17.557C13.6127 17.4625 13.4596 17.3199 13.3525 17.1446C13.2454 16.9692 13.1883 16.768 13.1875 16.5625V8.68751C13.1876 8.4817 13.2441 8.27986 13.3509 8.10395C13.4577 7.92803 13.6107 7.78479 13.7933 7.68981C13.9758 7.59482 14.181 7.55174 14.3863 7.56525C14.5917 7.57875 14.7894 7.64833 14.958 7.76641L20.583 11.7039C20.7309 11.8077 20.8517 11.9456 20.9351 12.1059C21.0185 12.2662 21.062 12.4443 21.062 12.625C21.062 12.8057 21.0185 12.9838 20.9351 13.1441C20.8517 13.3045 20.7309 13.4423 20.583 13.5461V13.5419Z" fill="#5DA65B"/>
</svg>
