<svg width="126" height="138" viewBox="0 0 126 138" fill="none" xmlns="http://www.w3.org/2000/svg">
<g clip-path="url(#clip0_9_1787)">
<mask id="mask0_9_1787" style="mask-type:luminance" maskUnits="userSpaceOnUse" x="0" y="0" width="150" height="138">
<path d="M149.211 0H0V138H149.211V0Z" fill="white"/>
</mask>
<g mask="url(#mask0_9_1787)">
<path d="M29.7071 64.2627C30.0754 64.2494 30.4438 64.0603 30.8003 64.1546C32.9868 64.641 35.1851 65.195 37.4072 65.7084C38.0845 65.8705 38.8331 65.9112 39.76 66.0871C34.7217 60.804 34.4247 55.6024 34.6742 52.2792C35.0426 52.4413 35.4348 52.5626 35.72 52.7788C39.9146 55.9 42.2315 60.2911 42.5167 65.952C42.5523 67.0327 42.9921 67.6001 43.7647 67.9513C44.6674 68.3433 45.5705 68.7348 46.4621 69.0595C50.0386 70.4241 53.6035 71.7209 57.4058 73.1396C57.204 72.694 57.1091 72.3291 56.9309 72.0181C55.6713 69.2486 54.2691 66.5464 53.1521 63.709C51.9874 60.7774 50.6329 57.9941 48.8623 55.481C48.28 54.6301 47.698 53.9543 46.6047 54.2382C46.2246 54.36 45.8441 54.3055 45.464 54.2515C44.2873 54.2382 43.0041 52.5626 43.2064 51.2525C43.242 50.9278 43.6698 50.5496 43.9665 50.4822C44.4419 50.3742 44.965 50.5363 45.5353 50.6173C45.1192 49.8338 44.7391 49.0769 44.3947 48.3474C44.0975 47.7127 44.0855 46.9425 44.5845 46.6182C44.9766 46.3884 45.7256 46.4291 46.1176 46.7263C46.7116 47.1183 47.1157 47.8341 47.6504 48.4152C47.9355 47.9288 48.1138 47.3615 48.4942 47.0643C48.8984 46.7263 49.5159 46.5505 50.0154 46.5775C50.6686 46.6049 50.9421 47.2804 50.9421 47.9829C50.9894 49.4826 50.6806 50.8875 49.8131 52.1037C49.4446 52.6441 49.0525 53.2248 48.6128 53.8869C48.8387 54.2922 49.0525 54.8056 49.3377 55.1975C51.5953 58.1969 52.8549 61.8448 54.364 65.3305C55.469 67.9247 56.8832 70.343 58.1191 72.8021C58.832 74.2207 60.1865 74.545 61.2915 75.2067C62.9436 76.166 64.7495 76.7742 66.4132 77.6254C67.4945 78.1521 68.5166 78.8683 69.574 79.4356C73.2458 81.341 76.9769 83.2323 80.6727 85.097C81.6231 85.5833 82.5859 86.1374 83.6196 86.5697C81.1597 83.3001 79.6983 79.382 77.7971 75.5991C76.3353 75.5446 74.8738 75.4906 73.4596 75.5313C70.7506 75.5854 68.6236 74.0316 66.5085 72.3698C65.1776 71.3024 64.025 70.0188 63.3117 68.2489C62.7298 66.871 62.0641 65.5467 61.2799 63.8986C64.3338 63.6957 66.9599 64.574 69.479 65.8983C72.0339 67.2492 74.2086 69.249 76.2524 71.5593C75.5154 69.303 74.7433 67.0198 74.0063 64.7632L73.9471 64.7769C74.5771 64.8442 74.684 65.4523 74.8738 66.0064C76.5495 70.2624 78.1179 74.6127 79.9835 78.7199C81.1954 81.3951 82.8711 83.8945 84.4987 86.2995C85.2477 87.3939 86.2814 88.3529 87.5646 88.7989C88.4914 89.1501 89.3829 89.8255 90.2976 90.2853C90.8087 90.5555 91.4146 90.6635 92.2701 90.9607C88.8362 84.2594 86.1508 77.7742 88.2659 69.7761C89.2047 70.5463 90.0365 71.0596 90.5948 71.7754C93.5658 75.491 95.966 79.6522 96.9997 84.6514C97.2256 85.7591 97.4274 86.9076 97.5344 88.0424C97.6889 90.3256 97.7839 92.6225 97.9144 95.2977C103.963 99.2968 110.214 103.391 116.749 107.701C115.834 105.836 114.99 104.377 114.349 102.837C113.065 99.5807 111.949 96.2168 110.641 93.0012C109.94 91.2987 108.978 89.6909 108.253 88.2049C106.625 88.2589 105.282 88.3533 103.951 88.34C103.119 88.3533 102.585 87.7722 102.371 86.9076C102.014 85.4079 102.537 84.6917 103.916 84.8002C104.355 84.8405 104.771 84.9216 105.116 84.9486C104.605 83.9759 104.094 83.0033 103.618 82.0572C103.226 81.2334 103.44 80.5172 104.106 80.0849C104.712 79.6659 105.318 79.9498 105.805 80.4361C106.102 80.72 106.292 81.0983 106.613 81.5169C107.362 80.8551 107.635 79.4228 108.918 79.6929C110.986 82.3141 109.964 84.7595 108.431 87.1104C109.191 88.6235 109.964 90.0288 110.57 91.5418C112.079 95.2034 113.41 98.9053 114.919 102.566C116.38 106.133 118.448 109.106 121.871 110.997C121.526 110.092 121.276 109.376 121.027 108.66C120.255 106.377 119.28 104.175 118.781 101.864C117.985 98.0407 118.52 94.2307 119.756 90.5422C120.195 89.1775 120.789 87.8133 121.395 86.516C121.597 86.0838 122.108 85.4756 122.417 85.4756C122.762 85.5027 123.119 86.1245 123.439 86.5431C123.558 86.6919 123.594 86.8943 123.653 87.0564C124.235 89.6643 124.996 92.231 125.4 94.8792C126.041 99.0541 125.554 103.134 124.449 107.214C124.033 108.714 123.724 110.295 123.308 111.97C128.869 115.132 133.717 119.333 138.316 124.049C138.055 123.968 137.746 123.968 137.591 123.792C135.358 121.806 133.206 119.766 130.949 117.82C129.642 116.712 128.216 115.807 126.849 114.888C125.067 113.713 123.154 113.727 121.264 114.402C118.531 115.375 115.834 116.55 113.136 117.55C111.806 118.063 110.451 118.441 109.048 118.725C108.039 118.955 107.432 119.549 107.088 120.576C106.648 121.941 106.149 123.319 105.615 124.67C105.353 125.291 105.068 125.953 104.664 126.467C103.808 127.574 102.358 127.237 102.073 125.791C101.859 124.751 101.919 123.683 101.847 122.576C100.196 122.143 99.7443 121.684 99.7323 120.211C99.6967 118.779 100.742 118.401 101.717 117.968C101.61 117.361 101.384 116.78 101.372 116.185C101.384 115.375 101.253 114.456 102.169 114.037C103 113.672 103.856 113.618 104.569 114.334C105.757 115.469 107.04 116.617 107.587 118.495C109.666 117.847 111.722 117.415 113.683 116.618C116.974 115.307 120.1 113.578 123.914 113.132C117.07 108.295 110.368 104.093 102.276 102.702C102.798 109.713 101.432 115.996 96.916 121.062C94.6227 123.656 93.1969 124.683 91.4855 124.967C91.0221 122.157 91.6521 119.414 92.1035 116.712C92.5669 113.902 93.4344 111.105 94.9082 108.768C96.3697 106.539 98.2709 104.701 100.113 102.526C99.3643 102.485 98.6986 102.391 98.0214 102.404C95.217 102.445 92.5909 103.323 89.9292 104.174C88.4677 104.647 87.0179 105.187 85.5445 105.417C82.0272 105.971 79.3535 107.984 77.1551 110.942C75.4558 113.226 74.0892 115.82 73.1621 118.63C72.794 119.698 73.0792 120.265 74.0772 120.67C74.7068 120.913 75.3961 121.143 75.9548 121.508C76.4061 121.792 76.8936 122.278 77.0834 122.832C77.238 123.359 77.2144 124.102 77.0005 124.642C76.751 125.331 76.0974 125.304 75.515 125.156C75.1942 125.088 74.897 124.98 74.4693 124.831C74.4929 125.669 74.5999 126.453 74.4813 127.182C74.398 127.763 74.1601 128.52 73.7921 128.709C73.1144 129.074 72.6274 128.412 72.3779 127.696C72.0334 126.79 71.7363 125.804 71.4034 124.791C71.0947 124.966 70.7382 125.223 70.3341 125.385C69.443 125.764 68.6227 125.494 68.195 124.818C67.7196 124.048 67.7316 122.886 68.3496 122.183C69.1458 121.265 69.9064 120.319 71.1183 120.184C71.7243 120.116 72.2233 119.792 72.4135 119.116C73.7328 114.847 75.7289 111.091 78.7235 108.092C78.8544 107.957 78.9257 107.835 79.2109 107.524C78.5452 107.606 78.0819 107.606 77.6065 107.714C74.7072 108.443 71.8432 109.375 68.8963 110.01C65.4624 110.686 62.0637 111.74 58.5465 111.24C56.2292 110.888 54.3516 111.456 53.0564 113.752C52.8902 114.036 52.7119 114.252 52.5097 114.509C50.87 116.603 49.5035 116.387 48.2911 113.887C49.0401 112.523 49.0994 112.51 50.7394 111.294C50.359 110.713 49.8599 110.861 49.3729 110.902C48.2439 110.983 47.5783 110.361 47.1389 109.267C46.8654 108.591 46.5209 107.862 47.1033 107.308C47.531 106.93 48.1962 106.673 48.7906 106.714C49.4442 106.741 50.0618 107.092 50.8107 107.308C50.6682 106.322 50.5015 105.376 50.3233 104.363C50.8223 104.214 51.1436 104.106 51.4403 104.038C52.7712 103.7 53.104 103.836 53.6271 105.052C54.3516 106.714 54.9575 108.402 55.6945 110.307C58.9386 110.659 62.2896 110.915 65.9494 109.767C63.0858 108.416 60.4953 107.214 58.5821 104.768C56.6333 102.295 55.5875 99.3367 54.9696 95.9994C55.4213 95.932 55.7542 95.7159 55.9324 95.851C60.4361 98.2693 64.2741 101.647 66.8405 106.578C67.3039 107.457 67.5895 108.727 68.2427 109.105C68.8963 109.483 69.942 108.929 70.7975 108.7C73.412 108.105 76.0024 107.551 78.5693 106.862C81.2547 106.147 83.8808 105.268 86.5425 104.417C86.6851 104.35 86.8161 104.215 87.1369 103.931C83.5123 102.472 81.4329 99.4315 79.6506 95.9728C79.5197 95.7566 79.615 95.4191 79.627 94.784C81.0051 95.4191 82.2767 95.7974 83.3581 96.4998C85.5208 97.9052 87.3623 99.7694 88.5627 102.377C89.1093 103.552 89.2639 103.552 90.4166 103.255C92.484 102.715 94.5754 101.958 96.6789 101.796C99.2453 101.634 101.824 101.891 104.391 102.256C106.328 102.553 108.193 103.323 110.178 103.891C109.714 103.539 109.346 103.202 108.93 102.945C105.852 100.905 102.834 98.8508 99.7563 96.8108C98.1403 95.703 96.465 94.6086 94.849 93.5008C94.1477 93.0278 93.1733 92.7576 93.1973 91.4878C93.2089 91.3797 92.8765 91.2442 92.5196 90.974C92.508 91.4338 92.496 91.7172 92.484 91.8253C91.5693 91.7172 90.6425 91.5414 89.7393 91.5011C86.2574 91.3793 82.8947 92.1088 79.6386 93.271C78.2128 93.7706 76.8579 94.6759 75.5511 95.5002C74.4933 96.1619 74.3984 97.5536 74.2915 98.702C74.2082 99.8098 73.7328 100.445 73.0319 101.026C71.6293 102.188 70.6197 101.715 70.2748 99.7557C70.2035 99.3505 70.1443 99.0125 70.1202 98.702C69.3601 98.2427 68.6708 97.837 68.0408 97.4185C67.5418 97.0402 67.3159 96.4591 67.4349 95.7296C67.5895 95.0272 67.9459 94.5944 68.6115 94.5134C69.0629 94.4461 69.4907 94.419 69.8827 94.365C69.9184 94.0408 69.9781 93.8517 69.9424 93.8246C69.467 93.2302 68.6828 92.8113 69.3004 91.7575C69.7998 90.9063 70.9881 90.4603 71.8436 90.9333C73.1032 91.5954 73.8874 92.8923 74.5526 94.2166C74.6123 94.3787 74.7313 94.5271 74.8738 94.811C79.4604 91.7305 84.5228 90.8256 90.1194 90.5014C89.0977 89.9606 88.4085 89.5554 87.6956 89.1908C86.9466 88.7989 86.1861 88.3396 85.4139 87.9883C84.5941 87.5423 83.7622 87.2048 82.9424 86.7588C79.5557 85.07 76.1334 83.3541 72.7704 81.6245C71.2377 80.814 69.7522 79.922 68.2431 79.0711C66.8409 78.3009 66.746 78.463 65.7836 79.8409C64.9634 80.9761 64.0246 81.962 63.0858 82.9484C62.6464 83.4347 62.1234 83.7997 61.648 84.259C59.6162 86.2313 57.3702 87.5149 54.6848 87.8798C53.9599 87.9742 53.223 88.177 52.4981 88.2714C51.7139 88.3795 50.9297 88.3121 50.3353 87.5689C52.5577 83.867 55.5759 81.3539 59.2357 79.8546C61.2559 79.0437 63.2881 78.4763 65.5341 77.7198C65.0823 77.4363 64.7615 77.1931 64.4287 77.0576C61.3272 75.5849 58.1904 74.0852 55.0413 72.6936C53.366 71.9508 51.619 71.329 49.9196 70.8023C49.397 70.6402 48.7313 70.8967 48.1254 70.9644C47.175 75.9229 45.2377 80.1922 41.9223 83.2992C38.6071 86.4067 34.6382 88.0818 30.0752 87.7846C29.5998 86.6632 30.396 85.5692 30.8476 84.6231C33.1767 79.7732 36.2782 75.6253 40.5917 72.923C42.0653 71.9911 43.705 71.4778 45.2738 70.7346C45.7608 70.5184 46.2362 70.2345 46.7232 70.0184C46.6996 69.8833 46.7352 69.7349 46.7116 69.5998C46.0103 69.3026 45.2974 68.9377 44.5248 68.7618C42.0057 68.1404 39.8075 66.5326 37.2527 66.0596C35.5891 65.7354 34.0918 65.8302 32.4876 66.3705C29.2198 67.465 26.2372 69.3022 23.2189 70.937C22.9694 71.0991 22.7079 71.1935 22.4109 71.2612C20.2007 71.6935 19.0836 73.4227 18.2993 75.6386C17.6695 77.3274 16.9565 77.8407 15.6257 77.6516C14.9008 77.5706 14.5324 77.0572 14.3185 76.3681C14.1759 75.7329 14.3423 75.2736 14.8295 74.8821C15.2098 74.5849 15.5663 74.1522 16.0416 73.6928C14.9365 73.5578 14.0334 73.5174 13.1897 73.2876C12.8332 73.1932 12.3935 72.8013 12.2034 72.423C11.7519 71.6125 12.0133 71.1665 12.8451 70.9773C13.9502 70.7612 15.0316 70.5854 16.2912 70.3692C15.8159 69.7748 15.4713 69.3966 15.1504 68.9776C14.7226 68.4779 14.4612 67.8698 14.8177 67.2617C15.2336 66.6403 15.8634 66.5322 16.5051 66.8431C17.6221 67.3972 18.5133 68.2481 19.1787 69.3966C19.4996 69.991 19.8204 70.5858 20.2244 71.3015C24.4904 69.9103 28.0791 66.9512 32.25 65.195C31.4301 64.9249 30.5626 64.5599 29.7071 64.2627ZM46.9731 49.4826C46.4385 47.4965 46.2718 47.2534 45.0006 47.4018C45.1789 48.2393 45.1312 49.1987 46.3075 49.0366C46.4621 49.0366 46.6643 49.3068 46.8185 49.4826C46.9375 49.9822 47.0208 50.4552 47.1634 50.9145C47.3888 50.6173 47.4129 50.4012 47.3532 50.2391C47.2463 49.9822 47.0801 49.739 46.9731 49.4826ZM97.558 106.971C98.0093 106.376 98.4611 105.782 98.9125 105.188C98.8412 105.134 98.7699 105.08 98.7343 105.053C98.3542 105.701 97.9501 106.39 97.57 107.039C96.1202 107.579 95.3716 108.943 94.7893 110.375C94.1477 111.997 93.577 113.672 93.102 115.361C92.6502 117.009 92.2701 118.712 92.6266 120.563C93.969 115.901 95.3832 111.294 97.558 106.971ZM89.3236 75.964C89.157 75.8963 88.9672 75.8693 88.8362 75.8289C88.682 75.3019 88.5631 74.8018 88.4085 74.2752C87.8618 81.0031 90.9633 88.9747 95.5262 92.6088C93.1617 89.1771 91.5216 85.651 90.2504 81.9354C89.8819 80.895 89.8343 79.747 89.6324 78.5985C89.763 78.8146 89.9176 78.9901 89.9889 79.2199C90.7494 82.4895 92.0446 85.4619 93.5297 88.2855C94.1361 89.4477 94.5162 90.9067 95.9183 91.3257C96.0373 91.1228 96.1558 90.92 96.2748 90.7176C96.2391 90.3393 96.2627 89.9473 96.1678 89.5828C94.9439 85.4349 93.6963 81.3277 91.8784 77.4908C91.1415 75.937 90.3337 74.5046 89.5375 72.9646C89.5135 73.0049 89.4306 73.059 89.4065 73.0997C89.6088 74.2482 89.8227 75.464 90.0245 76.6125C89.775 76.4233 89.5491 76.1935 89.3236 75.964ZM123.189 106.728C123.308 106.876 123.463 107.052 123.653 107.255C125.614 101.54 125.649 95.9466 123.594 90.4071C123.57 91.8527 123.546 93.2984 123.522 94.7441C123.368 93.1633 123.154 91.5963 123 90.0155C122.916 89.5425 122.833 89.0695 122.809 88.5831C122.69 88.6102 122.596 88.5969 122.441 88.5969C122.37 89.4211 122.322 90.2046 122.251 91.0285C122.084 90.2587 121.918 89.4884 121.692 88.3807C121.466 89.2046 121.229 89.7856 121.181 90.3938C120.849 92.7173 120.575 95.028 120.302 97.3382C120.207 96.9733 120.052 96.6221 120.088 96.2978C120.136 95.1631 120.243 94.0146 120.302 92.5959C118.817 95.5683 119.019 101.459 120.599 104.472C120.54 103.783 120.362 103.121 120.278 102.472C120.1 100.756 119.542 98.9863 120.255 97.2435C120.409 99.0001 120.504 100.77 120.777 102.499C121.003 103.958 121.372 105.35 121.787 107.187C122.084 106.593 122.203 106.39 122.286 106.161C122.381 106.35 122.536 106.525 122.607 106.755C122.892 107.674 123.023 106.836 123.189 106.728ZM100.243 106.957C100.553 108.011 100.006 108.768 99.6614 109.619C99.174 110.889 98.6273 112.172 98.045 113.429C97.2728 115.185 96.441 116.955 95.5971 118.658C95.0268 119.806 94.3139 120.846 93.6723 121.94C94.9078 120.711 95.8943 119.292 96.8451 117.847C97.2131 117.306 97.4983 116.645 97.9024 116.131C100.208 113.429 100.588 109.97 100.957 106.268C100.624 106.66 100.41 106.849 100.232 107.066C100.243 106.43 100.255 105.795 100.291 104.944C98.9125 106.065 98.045 107.282 97.3677 108.7C95.5615 112.483 94.2903 116.496 93.2205 120.603C93.1612 120.792 93.1612 120.968 93.1016 121.157C94.4088 119.454 95.5735 117.82 96.429 116.009C97.8431 112.983 99.0078 109.943 100.243 106.957ZM46.3904 73.2207C42.8255 78.7735 38.3338 82.921 33.4261 86.812C39.4627 85.826 45.3687 80.2325 46.3904 73.2207ZM45.309 73.9231C41.4116 75.6523 33.1885 83.7045 32.5468 86.3797C33.3073 85.9607 34.0678 85.7176 34.7214 85.2179C35.3749 84.7179 35.8622 83.9747 36.4801 83.448C39.1894 81.1108 41.7085 78.5707 43.9545 75.7063C44.3586 75.193 44.7271 74.6526 45.309 73.9231ZM39.2014 75.2067C39.0944 75.1256 38.9875 75.0446 38.9043 74.9228C36.6228 77.0572 34.4125 79.2461 33.1172 82.4209C33.8659 81.5834 34.5907 80.7861 35.5533 79.7594C34.9235 81.6241 33.3074 82.2725 32.8915 83.9477C34.864 81.9886 36.7297 79.9486 38.726 78.1246C40.5679 76.4765 42.5644 75.0038 44.4892 73.4771C44.9766 73.0856 45.3923 72.6396 45.8557 72.2883C41.7445 73.1529 38.9281 76.2874 36.1474 79.4489C36.0642 79.3272 35.9811 79.2058 35.8979 79.084C36.9911 77.7464 38.0963 76.4765 39.2014 75.2067ZM63.4663 65.4386C65.2846 68.9244 72.5329 73.5993 75.0761 73.1263C71.2497 70.5189 67.8394 67.4654 63.4663 65.4386ZM96.7265 89.069C96.8807 83.6243 93.4232 75.0317 90.1314 73.1808C93.138 78.3283 95.0036 83.665 96.7265 89.069ZM56.574 98.6206C58.3919 103.336 61.7193 105.565 65.1296 107.741C62.9668 104.052 60.0319 101.242 56.574 98.6206ZM76.4899 73.6126C73.3531 68.4247 67.1381 64.5337 63.9417 64.9793C68.3264 67.2492 72.2718 70.3567 76.4899 73.6126ZM74.7433 74.3966C70.8576 73.0319 67.4473 70.681 64.0486 67.5194C65.51 71.7887 71.202 75.3422 74.7433 74.3966ZM55.944 97.3237C57.2036 98.3371 58.5108 99.269 59.6991 100.404C60.911 101.499 62.0281 102.755 63.1451 104.011C64.1908 105.214 65.1296 106.511 66.1512 107.754C64.7731 103.431 59.5922 98.0399 55.944 97.3237ZM52.8545 87.1366C56.8948 87.2717 59.9014 84.8667 62.9196 81.827C59.414 83.6779 56.1342 85.4075 52.8545 87.1366ZM51.6185 110.145C51.0482 109.713 50.6561 109.416 49.9432 108.875C51.369 108.902 52.106 110.28 53.4605 109.902C53.0804 109.497 52.8665 109.159 52.593 109.01C51.6426 108.524 50.6682 108.078 49.6937 107.632C49.4915 107.537 49.254 107.416 49.0637 107.389C48.4578 107.281 47.8162 107.146 47.4597 107.929C47.2102 108.443 47.6616 109.429 48.3152 109.807C48.624 109.983 48.9568 110.118 49.266 110.118C49.9548 110.172 50.6561 110.118 51.6185 110.145ZM104.854 121.576C102.988 122.386 102.454 123.386 102.798 124.994C102.905 125.426 103.226 126.021 103.547 126.088C103.868 126.156 104.414 125.75 104.569 125.399C105.187 123.994 105.638 122.522 106.161 121.103C106.09 121.049 105.959 121.009 105.888 120.955C105.424 121.832 104.985 122.67 104.521 123.548C104.414 123.467 104.343 123.413 104.236 123.332C104.391 122.805 104.557 122.346 104.854 121.576ZM41.0077 65.1007C39.6412 61.723 38.4411 58.2373 36.219 55.4403C36.9438 59.2099 38.75 62.2767 41.0077 65.1007ZM52.5337 85.6639C52.617 85.7853 52.6647 85.8801 52.7239 86.0422C53.734 85.2857 54.6964 84.4344 55.7542 83.7727C56.8591 83.0295 58.0595 82.4754 59.1765 81.7999C60.1865 81.2193 61.2559 80.6244 62.266 80.0438C58.4636 80.7325 55.2551 82.6915 52.5337 85.6639ZM37.1696 55.4C38.6193 58.3724 40.069 61.3448 41.5186 64.3172C41.1741 60.6016 39.7244 57.6292 37.1696 55.4ZM52.3435 111.807C52.2602 111.685 52.1773 111.564 52.0939 111.442C51.2977 112.009 50.4895 112.51 49.6937 113.077C49.254 113.388 48.9332 113.847 49.2063 114.523C49.5035 115.158 50.0261 115.144 50.5015 115.036C50.9413 114.901 51.369 114.698 51.6778 114.347C52.3911 113.482 53.0327 112.564 53.71 111.672C52.9374 112.023 52.4027 112.672 51.8204 113.226C51.6662 113.401 51.3098 113.307 50.8344 113.415C51.476 112.672 51.8921 112.226 52.3435 111.807ZM105.567 118.076C104.83 117.226 103.796 117.145 104.058 115.82C104.771 116.361 105.341 116.793 105.947 117.253C105.448 116.347 104.878 115.564 104.236 114.902C103.713 114.388 102.608 114.604 102.251 115.212C101.931 115.847 102.228 116.658 102.976 117.05C103.689 117.415 104.438 117.631 105.567 118.076ZM104.628 119.063C103.286 118.631 102.347 118.387 101.36 118.928C100.802 119.266 100.422 119.738 100.671 120.454C100.849 121.117 101.348 121.495 102.002 121.346C102.477 121.238 102.976 121.09 103.464 120.873C103.582 120.846 103.63 120.59 103.689 120.4C103.309 120.346 102.964 120.319 102.62 120.292C102.596 120.157 102.572 120.022 102.584 119.914C103.107 119.725 103.713 119.482 104.628 119.063ZM68.0649 95.797C68.0528 97.1346 68.8134 97.4185 69.5027 97.4725C70.3225 97.5668 71.2493 97.5668 71.8672 96.3377C71.19 96.5269 70.691 96.6753 70.0373 96.8241C70.2156 95.3784 71.3918 96.0946 71.9385 95.3377C70.5007 95.0675 69.2768 94.9594 68.0649 95.797ZM48.7081 51.9682C49.6469 50.6311 50.8111 49.3475 49.9557 47.4695C49.1238 47.3074 48.8627 47.753 48.5655 48.5232C48.0901 49.685 49.2071 50.7661 48.7081 51.9682ZM69.6685 121.954C69.5379 122.089 69.3953 122.156 69.2648 122.291C68.5158 123.129 68.3732 123.899 68.8606 124.385C69.312 124.845 70.2985 124.656 70.7855 123.913C71.2729 123.17 71.546 122.264 71.9025 121.481C71.7955 121.4 71.6886 121.319 71.546 121.211C71.1896 121.643 70.8331 122.075 70.441 122.48C69.8707 123.102 69.811 122.413 69.6685 121.954ZM52.3078 107.916C52.2602 107.119 52.2485 106.7 52.2009 106.254C52.2602 106.24 52.3198 106.227 52.3791 106.213C52.8781 107.119 53.3772 108.024 53.8405 108.902C53.9475 108.808 54.0905 108.74 54.1974 108.646C53.71 107.457 53.2466 106.227 52.6763 105.092C52.3319 104.363 51.4644 104.173 51.1552 104.7C50.9413 105.065 51.0006 105.754 51.1431 106.213C51.369 106.795 51.8088 107.186 52.3078 107.916ZM108.692 82.2738C108.669 83.3678 108.633 84.0437 108.621 84.8542C109.596 83.1924 109.596 82.4899 108.597 80.6793C107.255 81.652 107.183 81.9492 107.908 83.611C108.122 83.2464 108.289 82.9625 108.692 82.2738ZM99.9582 113.942C98.544 116.09 97.1659 118.266 95.7753 120.373C97.5223 118.536 99.4828 116.861 99.9582 113.942ZM72.4255 99.8638C72.295 99.8235 72.2001 99.8098 72.0931 99.7287C72.2117 99.1746 72.295 98.594 72.4139 97.8645C71.9265 98.256 71.4988 98.4589 71.3682 98.7694C71.2016 99.2287 71.071 99.8908 71.2372 100.31C71.5108 100.985 72.0811 100.715 72.5325 100.472C73.6495 99.7965 73.6379 98.675 73.3884 97.4318C73.0676 98.2427 72.7468 99.0533 72.4255 99.8638ZM55.6116 84.3671C55.6352 84.5022 55.6592 84.6373 55.6829 84.7723C57.2396 84.4884 60.4004 82.6105 61.541 81.1922C59.3903 82.3133 57.5012 83.34 55.6116 84.3671ZM15.0434 76.0979C16.2554 77.5436 16.9209 77.2867 17.8359 75.1115C17.42 75.3817 17.0873 75.5978 16.3862 76.0031C16.7902 75.1385 16.9803 74.6389 17.3012 74.0038C16.5407 74.5982 15.9703 75.0442 15.3999 75.4898C15.2692 75.6249 15.2098 75.814 15.0434 76.0979ZM35.6605 56.4807C35.7555 59.4801 36.8844 61.8581 38.4291 62.7364C37.5617 60.7907 36.6943 58.845 35.6605 56.4807ZM15.6495 71.2882C14.6988 71.5044 13.8076 71.7068 12.857 71.923C13.9146 73.0174 14.9959 72.842 16.101 72.8013C16.2436 72.2069 14.8771 72.3419 15.6495 71.2882ZM72.5205 124.115C72.2353 126.358 72.3422 126.615 73.5425 127.642C74.6952 125.939 72.9125 125.291 72.5205 124.115ZM72.426 92.6629C71.2733 91.5547 71.2733 91.5547 70.0137 92.2979C70.4058 93.6488 71.3446 94.0678 72.6278 94.1626C72.0931 93.5815 71.677 93.1492 71.2849 92.6762C71.3326 92.5951 71.3802 92.5141 71.4275 92.433C71.7483 92.5008 72.0695 92.5681 72.426 92.6629ZM73.7921 121.859C74.885 122.629 74.8258 124.399 76.3585 124.156C76.3705 122.643 75.7053 122.021 73.7921 121.859ZM106.482 83.4086C106.245 81.8818 105.639 81.0713 104.557 80.5442C103.975 81.9762 104.842 82.6924 105.544 83.5166C105.472 83.1114 105.341 82.7194 105.27 82.3141C105.353 82.2601 105.437 82.206 105.52 82.152C105.77 82.5165 106.019 82.8815 106.482 83.4086ZM103.155 85.57C103.155 87.502 103.678 87.8399 105.425 87.2318C105.128 86.9483 104.581 86.6511 104.486 86.2862C104.367 85.2595 103.821 85.4889 103.155 85.57ZM15.3643 67.7347C15.7208 69.2344 16.7189 69.6397 17.6339 70.099C16.8853 69.3562 17.2894 67.2621 15.3643 67.7347ZM58.6057 103.323C59.6635 105.295 60.8634 106.322 62.2539 106.673C61.7549 106.119 61.2318 105.43 60.6379 104.863C60.0556 104.363 59.3899 103.917 58.6057 103.323ZM82.8707 99.3505C83.1915 100.823 84.0233 101.161 84.9621 101.404C84.3562 100.769 83.7262 100.175 82.8707 99.3505ZM83.5007 98.3645C83.4294 98.4859 83.3225 98.5807 83.2512 98.702C83.9641 99.4182 84.677 100.134 85.3542 100.823C85.4255 100.702 85.5088 100.648 85.5801 100.526C84.8672 99.8102 84.1543 99.094 83.5007 98.3645ZM44.0619 52.2521C44.7271 52.1711 45.2618 52.0493 45.7728 51.9682C45.7848 51.8602 45.8325 51.7791 45.8205 51.7118C45.2738 51.59 44.7035 51.5089 44.1568 51.3876C44.1448 51.671 44.0975 51.9279 44.0619 52.2521Z" fill="#B98A44"/>
<path d="M74.054 64.6826C73.4124 63.318 72.6162 62.1287 71.5348 61.2509C69.1462 59.2648 66.6983 57.2921 64.3814 55.1843C62.4682 53.4414 60.3888 52.1578 58.0955 51.0634C57.3942 51.4687 56.6337 51.8876 55.8731 52.3066C55.0297 52.7792 54.1025 52.7792 53.259 52.374C52.0828 51.8336 51.9874 51.1174 52.9262 50.1311C53.0572 49.996 53.1998 49.9286 53.3896 49.7798C52.9859 48.537 51.5124 47.7127 52.2369 46.0376C53.4493 45.5513 54.3524 46.4699 55.3625 46.9429C55.4097 46.3348 55.3861 45.8485 55.4218 45.3484C55.5523 44.1596 55.9921 43.6733 56.7406 43.7136C57.4896 43.7544 58.1784 44.5109 58.2261 45.4835C58.2854 46.6998 58.4043 47.9023 58.3094 49.1181C58.2854 50.0367 58.5349 50.5771 59.2482 50.942C63.6922 53.3741 67.4946 56.9001 71.4515 60.2508C71.808 60.5214 72.1288 60.7645 72.7708 61.2509C72.0223 58.2244 71.309 55.5762 70.1207 53.2119C68.2435 49.3883 66.1877 45.6053 64.2032 41.8764C62.3853 38.3907 60.0324 35.3778 57.5965 32.4189C56.218 30.7301 55.9685 30.7166 54.2811 31.8379C50.8112 34.2428 47.2939 33.7428 43.7767 32.0134C42.9685 31.6351 42.1371 31.2973 41.0317 30.8109C41.4714 30.3245 41.7329 29.8787 42.0417 29.7031C42.9328 29.3248 43.836 29.014 44.7391 28.7033C47.0444 27.9332 49.3261 28.4332 51.5837 28.798C52.3443 28.9061 53.1405 29.0412 53.9011 29.1493C53.9723 29.0277 54.0436 28.9061 54.0793 28.7575C53.497 28.2576 52.8313 27.8117 52.3799 27.1767C50.8232 25.0015 48.5179 24.1908 46.4981 22.8938C44.5493 21.6508 42.6717 20.9887 40.6516 23.0288C39.7841 23.8935 38.4057 23.6097 37.2293 23.0692C36.0767 22.4883 35.9578 21.4615 36.956 20.6374C37.3125 20.3807 37.7878 20.2726 38.3939 20.0294C36.7778 19.0971 35.2687 18.2459 34.5795 16.4355C35.6133 14.7602 35.6133 14.7602 40.3903 16.2735C40.3665 15.6115 40.2833 14.963 40.2714 14.3685C40.2477 13.0039 40.7111 12.1257 41.4834 11.9501C42.2917 11.8015 43.4203 12.7743 43.6582 13.9497C44.0146 15.4494 44.0619 16.9491 43.7767 18.4893C43.4082 20.4348 43.4082 20.4348 45.0247 21.367C46.6051 22.2723 48.316 23.0424 49.8251 24.0693C51.1324 25.0015 52.392 26.1905 53.5326 27.4064C55.6597 29.6627 57.7391 32.0001 59.8185 34.3374C59.9018 34.459 60.0921 34.4861 60.4129 34.7292C60.068 32.9458 59.6879 31.311 59.4977 29.7033C59.1296 27.0822 58.7848 24.4207 58.6306 21.7861C58.5473 20.435 58.0483 19.8811 57.0026 19.5568C56.4795 19.3947 55.9332 19.0974 55.5171 18.6651C55.125 18.1922 54.7329 17.5437 54.6496 16.8952C54.4241 15.2604 55.5648 14.3687 56.86 15.0578C57.2044 15.2604 57.5252 15.5036 57.8344 15.6793C58.1909 14.72 58.488 13.7743 58.9278 12.9366C59.3315 12.072 60.0448 12.2611 60.71 12.5314C61.3873 12.8691 61.3757 13.5041 61.3044 14.1526C61.1854 14.8822 61.0429 15.6523 60.8762 16.463C62.1242 16.3549 63.2528 15.7469 64.3106 16.49C64.5601 19.3137 62.2904 21.1646 59.2482 20.381C59.2366 21.016 59.1653 21.6645 59.2125 22.286C59.4148 27.1228 60.2106 31.8245 61.684 36.337C61.8266 36.7964 62.0882 37.2288 62.3497 37.6611C63.8588 40.2687 65.3915 42.8358 67.0196 45.592C66.6751 41.5252 66.39 37.6206 67.6732 33.8512C68.9684 30.1493 70.8696 26.9068 73.7216 24.1507C75.5159 28.5551 75.3613 32.9461 74.5294 37.3505C73.6619 41.9034 70.9053 45.0246 68.1125 48.1184C70.5604 52.1986 71.7607 56.738 73.2458 61.1428C73.5073 61.9263 73.8522 62.6558 74.1133 63.4393C74.4461 63.9261 74.6956 64.4664 74.054 64.6826ZM57.1091 46.3348C57.6914 45.9566 57.6322 45.4432 57.2401 44.9702C57.0498 44.7678 56.6813 44.7811 56.3842 44.673C56.2536 45.1593 56.1587 45.6727 56.0397 46.0509C56.5268 46.186 56.8476 46.2537 57.1327 46.2945C57.2873 46.997 56.6934 47.8345 57.4179 48.618C57.5368 47.0103 57.5368 47.0103 57.1091 46.3348ZM73.567 31.3518C73.2106 32.3111 72.8541 33.2703 72.5333 34.2566C72.0936 35.7968 71.7491 37.3505 71.345 38.9177C71.4756 38.9582 71.5469 39.0123 71.6778 39.0528C71.9153 38.6475 72.1528 38.2422 72.3907 37.8369C72.3074 38.4178 72.2954 39.0529 72.0459 39.5662C71.2973 41.1064 70.4419 42.5656 69.6577 44.0786C69.4438 44.4435 69.3725 44.9166 69.1583 45.6323C73.7689 41.6332 75.2543 33.7432 74.0664 28.9199C73.9831 29.6765 73.7929 30.5277 73.567 31.3518ZM73.3772 26.7582C73.2106 26.6906 73.068 26.5826 72.9018 26.515C72.45 27.6364 71.9037 28.7442 71.4876 29.8926C70.4419 32.5542 69.4082 35.2833 69.123 38.2286C68.9208 40.0661 68.6833 41.8764 68.481 43.714C68.4217 44.0786 68.4574 44.4568 68.493 44.8355C71.0358 39.0933 72.8305 33.1352 73.3772 26.7582ZM71.1788 29.1901C68.1009 33.2973 67.1145 38.053 67.8514 43.2951C68.8495 38.6069 68.8258 33.554 71.1788 29.1901ZM41.626 19.7863C41.7209 19.6242 41.8163 19.462 41.9468 19.3269C40.6754 17.5435 39.1188 16.2464 37.0274 15.9492C36.6115 15.8681 36.1599 16.2869 35.7321 16.4896C35.9698 16.9625 36.053 17.611 36.4094 17.8812C37.5858 18.7729 38.8811 19.462 40.5565 19.8538C39.8792 19.1648 39.392 18.6784 38.9405 18.219C39.0118 18.0974 39.0593 18.0163 39.1306 17.8947C39.9505 18.5162 40.7705 19.1377 41.626 19.7863ZM41.6737 12.8553C40.5328 14.6252 40.723 15.5304 43.0402 18.5163C43.1471 17.3679 43.3966 16.3276 43.3133 15.3278C43.1828 14.2334 43.0282 13.004 41.6737 12.8553ZM52.891 30.7841C49.1479 29.8788 44.3827 29.8382 43.1231 30.5813C46.4861 30.7299 49.6946 31.5811 52.891 30.7841ZM44.9414 31.4325C44.9294 31.5405 44.8937 31.6891 44.8461 31.7702C47.3296 32.5403 49.8488 33.3375 52.6887 31.919C49.9441 31.7703 47.4365 31.5676 44.9414 31.4325ZM63.5736 17.2196C61.8034 16.9899 61.8034 16.9899 60.8762 18.0437C61.1141 18.1653 61.3396 18.2193 61.7081 18.3814C61.1257 18.7597 60.6508 19.0435 60.0684 19.4218C61.0545 20.1108 61.8507 19.719 62.552 19.3137C63.2292 18.9489 63.7403 18.341 63.5736 17.2196ZM55.7073 16.5845C57.1095 16.8277 57.0618 18.4895 58.0242 18.6922C58.1909 16.652 57.2997 15.6252 55.6597 15.963C55.5527 17.8139 55.5884 17.841 56.9433 18.3408C56.5985 17.7869 56.242 17.341 55.7073 16.5845ZM59.094 14.9362C59.3435 14.9497 59.6287 14.9903 59.8546 15.0443C59.7356 15.7739 59.6166 16.3278 59.5338 16.9088C59.6287 16.9223 59.7592 16.9628 59.8546 16.9763C60.2346 15.8009 61.1614 14.7471 60.5911 13.2609C59.3435 13.5446 59.3435 13.5446 59.094 14.9362ZM52.6767 46.9562C53.1165 48.2261 53.7224 49.037 55.1366 48.9963C54.2691 48.2801 54.5543 46.3888 52.6767 46.9562ZM37.0273 22.0965C37.562 22.3262 38.0255 22.5018 38.3225 22.6099C38.7622 21.9479 39.083 21.4886 39.4752 20.9076C38.5721 21.0427 37.6809 20.7184 37.0273 22.0965ZM39.2019 22.3397C40.402 22.664 40.5446 22.5964 41.4359 20.9887C40.5446 21.5426 39.9267 21.8939 39.2019 22.3397ZM53.0572 51.4013C53.6868 51.6445 54.1742 51.7796 54.6732 51.9824C54.2811 51.5094 54.1502 50.0637 53.0572 51.4013ZM45.7732 29.1356C45.7612 29.2437 45.7848 29.3788 45.7732 29.4869C46.3552 29.4599 46.8782 29.4464 47.4606 29.4194C47.4606 29.2437 47.4365 29.1087 47.4365 28.933C46.9259 29.0141 46.3552 29.1087 45.7732 29.1356Z" fill="#B98A44"/>
<path d="M29.6953 64.1956C29.315 65.0195 28.6377 64.8573 28.0554 64.709C24.0509 63.7226 19.9751 63.0334 16.1251 61.3446C15.1863 60.9256 14.1762 60.8042 13.19 60.4663C12.6671 60.3042 12.1443 60.1421 11.6571 59.8312C10.9322 59.3989 10.2906 59.615 9.72016 60.061C8.43682 61.02 7.07026 61.5063 5.57301 61.6011C4.8125 61.6684 3.99259 61.574 3.24397 61.3579C2.32899 61.074 2.13888 60.1687 2.86374 59.5473C3.67178 58.8718 4.63431 58.3722 5.54931 57.7774C4.95516 57.3858 4.26597 56.9805 3.64805 56.4535C3.10144 55.9805 2.36471 55.4808 2.70932 54.4537C2.97075 53.6569 3.95704 53.1165 4.86012 53.3327C5.44241 53.4811 6.00088 53.846 6.49999 54.2243C6.85643 54.4945 7.14163 54.8864 7.53377 55.359C7.39119 54.1973 7.17732 53.1569 7.21296 52.1302C7.22486 51.6709 7.47441 50.9817 7.8309 50.7252C8.43695 50.3062 9.07859 50.6172 9.34 51.4007C9.69649 52.3733 10.0292 53.3867 10.2431 54.4271C10.4451 55.3998 10.5402 56.4672 10.5639 57.4806C10.6114 58.6286 11.2412 59.2235 12.1205 59.4799C15.4834 60.507 18.8106 61.5067 22.1972 62.4931C23.5043 62.8983 24.8352 63.2633 26.1304 63.6008C26.4513 63.6686 26.784 63.6278 27.1999 63.5335C24.2173 61.3313 21.615 58.6561 19.9989 55.0893C18.4185 51.5495 17.979 45.5374 19.096 43.4565C19.6545 43.9969 20.2011 44.4699 20.7833 44.9696C25.2988 49.2122 27.3782 54.8864 28.412 61.1151C28.6021 62.3713 29.1843 63.2225 29.6953 64.1956ZM23.1241 56.3458C24.4074 58.0209 25.3462 60.0207 26.9504 61.4123C25.7146 58.2508 24.3243 55.2647 22.9222 52.2116C22.3161 50.874 21.6864 49.5768 21.0566 48.2799C23.754 51.6709 25.1324 55.9946 27.2118 60.088C27.3782 55.7647 23.0767 47.1181 20.308 45.7805C20.5813 46.6314 20.8308 47.5234 21.0685 48.3472C20.7595 47.996 20.4268 47.6855 20.0109 47.2532C20.1178 48.0367 20.1535 48.5904 20.2248 49.1715C19.9634 48.7392 19.7019 48.3069 19.2385 47.6044C19.5593 52.7653 20.8188 56.9402 24.6095 60.0477C24.051 58.6291 23.5994 57.4669 23.1241 56.3458ZM5.71568 56.6156C5.52556 55.1836 6.58313 56.2781 6.77325 55.778C5.54935 53.738 4.70565 53.5081 3.54112 54.9675C4.18279 55.9805 4.18279 55.9805 5.71568 56.6156ZM9.42314 55.3861C9.99354 53.3597 9.37565 51.7789 7.80711 51.468C7.90215 52.7113 7.6526 53.9271 8.44876 55.1159C8.62702 54.7243 8.75771 54.4134 8.93597 54.0219C9.07855 54.3053 9.19738 54.4541 9.22117 54.5892C9.29246 54.8187 9.36375 55.0485 9.42314 55.3861ZM5.98894 59.0476C4.51549 59.2771 4.51549 59.2771 3.70741 60.4796C5.24032 60.9389 7.34356 60.7768 7.22478 60.1013C6.8445 60.0473 6.44047 60.034 6.03648 60.0203C6.00083 59.642 5.97704 59.3311 5.98894 59.0476Z" fill="#B98A44"/>
</g>
</g>
<defs>
<clipPath id="clip0_9_1787">
<rect width="126" height="138" fill="white"/>
</clipPath>
</defs>
</svg>
