<svg width="147" height="138" viewBox="0 0 147 138" fill="none" xmlns="http://www.w3.org/2000/svg">
<path d="M88.5489 33.4938C88.4496 33.8488 88.5178 34.2572 88.3195 34.5681C87.1917 36.5033 85.9956 38.4292 84.8312 40.3902C84.4709 40.9862 84.2045 41.687 83.7553 42.5166C90.3198 39.3224 95.3656 40.6204 98.4557 41.8683C98.1893 42.1699 97.9545 42.5066 97.6619 42.7126C93.4134 45.7602 88.5259 46.6329 83.0461 45.184C82.0057 44.8894 81.3315 45.1359 80.7621 45.7652C80.1143 46.5061 79.4667 47.2475 78.8865 47.9982C76.4994 50.9907 74.1804 53.9928 71.6731 57.1841C72.159 57.1272 72.5355 57.1477 72.8859 57.0724C75.9073 56.7142 78.9078 56.1997 81.9504 55.9979C85.0974 55.7794 88.1607 55.3349 91.093 54.4119C92.0806 54.1157 92.9014 53.7668 92.9633 52.6388C92.9628 52.2397 93.1303 51.8938 93.2973 51.5481C93.6676 50.4311 95.6539 49.7179 96.8406 50.3088C97.139 50.4414 97.3694 50.9639 97.3433 51.2671C97.3018 51.7528 96.9884 52.2019 96.7378 52.7206C97.6107 52.5623 98.4474 52.4303 99.247 52.3239C99.9421 52.2336 100.679 52.4563 100.837 53.0303C100.937 53.4737 100.67 54.1748 100.268 54.458C99.7138 54.9047 98.9091 55.0722 98.193 55.4049C98.5696 55.8244 99.056 56.1666 99.2235 56.6195C99.4226 57.1072 99.4024 57.749 99.2248 58.2166C99.0002 58.8305 98.2735 58.8858 97.6043 58.6723C96.1612 58.2615 94.9165 57.5403 94.0215 56.3442C93.6187 55.8289 93.1847 55.2789 92.6875 54.6587C92.2328 54.7507 91.6787 54.7984 91.2186 54.951C87.6749 56.1902 83.8168 56.2814 80.0373 56.6597C77.23 56.9239 74.4962 57.5361 71.7779 57.9662C70.2096 58.2142 69.4891 59.4061 68.5228 60.2577C67.1067 61.54 65.9785 63.0756 64.6618 64.4018C63.8314 65.272 62.8384 66.028 61.9765 66.8629C59.0453 69.7819 56.1094 72.7616 53.2097 75.7159C52.4575 76.4735 51.637 77.2223 50.9109 78.0757C54.7735 76.726 58.9504 76.5246 63.1322 75.8631C63.6284 74.487 64.1241 73.1111 64.5151 71.7514C65.287 69.1542 67.4138 67.6 69.6398 66.0901C71.0613 65.1466 72.6344 64.4386 74.5374 64.297C76.027 64.1614 77.491 63.9298 79.2994 63.6836C78.5645 66.6546 76.9296 68.8895 74.9022 70.887C72.8387 72.9104 70.2726 74.3744 67.4504 75.6193C69.8239 75.603 72.2338 75.5613 74.6077 75.5452L74.6126 75.4845C74.357 76.0643 73.7451 75.9813 73.1596 75.9937C68.5956 76.2966 63.9744 76.4685 59.4946 76.9975C56.5776 77.339 53.6871 78.1757 50.9012 78.9954C49.6308 79.3763 48.4031 80.0696 47.5882 81.1565C46.9719 81.9327 46.0574 82.5767 45.3414 83.3085C44.9287 83.7132 44.6415 84.2577 44.0984 84.9824C51.5264 83.7477 58.5209 83.1605 65.4979 87.6065C64.4787 88.2667 63.7369 88.9032 62.8853 89.2175C58.4424 90.9186 53.7486 91.9405 48.6717 91.4058C47.5477 91.2843 46.3922 91.1276 45.2787 90.8846C43.0565 90.3379 40.8393 89.7302 38.251 89.0414C32.6027 93.5882 26.8027 98.2989 20.7102 103.215C22.7648 102.91 24.4111 102.55 26.0737 102.407C29.5657 102.174 33.1099 102.132 36.5707 101.864C38.4058 101.714 40.2301 101.285 41.8661 101.046C42.3093 99.4793 42.6276 98.1713 43.0448 96.9074C43.2849 96.1109 44.001 95.7781 44.8897 95.8371C46.4268 95.9534 46.9503 96.669 46.4279 97.9493C46.2559 98.356 46.0523 98.7274 45.9217 99.0478C47.0037 98.8565 48.0857 98.6653 49.1314 98.4999C50.0355 98.3768 50.6528 98.7982 50.8623 99.5637C51.0773 100.268 50.6226 100.759 50.0112 101.076C49.6505 101.272 49.2323 101.339 48.7361 101.517C49.139 102.431 50.4204 103.127 49.773 104.268C46.6474 105.441 44.6284 103.724 42.8545 101.549C41.182 101.814 39.6083 102.122 37.9827 102.24C34.0357 102.565 30.1044 102.707 26.1578 103.032C22.3155 103.34 18.8553 104.407 16.0129 107.092C16.9802 107.039 17.7379 107.019 18.4961 106.999C20.906 106.957 23.3001 106.698 25.6532 106.925C29.5376 107.329 33.0048 108.996 36.1432 111.295C37.3096 112.128 38.4287 113.109 39.4805 114.08C39.8308 114.405 40.2548 115.076 40.161 115.37C40.0306 115.69 39.3297 115.841 38.8334 116.02C38.6556 116.087 38.4519 116.06 38.2793 116.067C35.618 115.829 32.9415 115.774 30.2958 115.354C26.1234 114.696 22.3844 112.992 18.8332 110.699C17.5309 109.846 16.1187 109.072 14.6492 108.167C9.94705 112.504 4.47037 115.845 -1.41953 118.793C-1.26294 118.569 -1.16896 118.274 -0.954868 118.18C1.6161 116.656 4.21387 115.227 6.75332 113.667C8.20639 112.759 9.50182 111.676 10.7927 110.653C12.4543 109.312 13.0227 107.485 12.9536 105.48C12.8576 102.581 12.5576 99.6535 12.4251 96.7799C12.3405 95.356 12.3918 93.9506 12.5477 92.5281C12.636 91.4964 12.254 90.7381 11.3802 90.0978C10.2138 89.2641 9.05271 88.3698 7.92823 87.4499C7.4157 87.0118 6.87155 86.5389 6.50532 85.9979C5.71 84.8462 6.47221 83.5675 7.93617 83.7353C8.99235 83.8478 9.99125 84.2286 11.0683 84.4974C11.9821 83.0553 12.5569 82.7649 13.9635 83.201C15.339 83.6024 15.3815 84.7136 15.4972 85.7734C16.1086 85.8562 16.7309 85.8176 17.3007 85.9872C18.0694 86.2446 18.9846 86.3996 19.1052 87.3987C19.2001 88.3021 18.9915 89.1335 18.0925 89.595C16.6503 90.3822 15.1661 91.2556 13.2109 91.2056C13.1966 93.3838 12.9836 95.4737 13.1471 97.5841C13.3949 101.118 14.0927 104.621 13.3578 108.391C20.0464 103.34 26.0866 98.2322 29.872 90.9459C23.033 89.3126 17.4629 86.1012 14.0089 80.2593C12.2345 77.286 11.6898 75.6157 11.9395 73.899C14.7577 74.3117 17.179 75.7454 19.6162 76.9968C22.1527 78.2924 24.5533 79.9688 26.332 82.0834C28.0115 84.1532 29.1844 86.523 30.6968 88.9389C30.9627 88.238 31.2553 87.6327 31.4481 86.9833C32.2621 84.2994 32.2235 81.5306 32.2219 78.7361C32.2155 77.2001 32.1413 75.6546 32.3702 74.181C32.9117 70.6619 31.8066 67.5028 29.6561 64.5091C27.9973 62.1962 25.9413 60.1059 23.5457 58.3684C22.6407 57.6933 22.0135 57.7925 21.324 58.6202C20.901 59.1461 20.4725 59.7329 19.9554 60.1544C19.5478 60.4981 18.9363 60.8146 18.3507 60.8271C17.802 60.8143 17.1011 60.5659 16.6514 60.1979C16.0706 59.7507 16.295 59.1362 16.6138 58.6267C16.7755 58.3415 16.9687 58.0912 17.2405 57.729C16.4354 57.4969 15.656 57.3605 14.9971 57.0259C14.4692 56.77 13.8204 56.3133 13.7521 55.9052C13.6108 55.1488 14.3892 54.8859 15.1474 54.8659C16.1145 54.8129 17.1446 54.8296 18.2108 54.8204C18.1375 54.4729 18.0011 54.0553 17.9695 53.621C17.88 52.6571 18.3867 51.9577 19.1606 51.7557C20.0385 51.5367 21.1421 51.9014 21.6235 52.7037C22.2566 53.7414 22.9263 54.7534 22.6867 55.9491C22.5671 56.5469 22.7243 57.1209 23.3099 57.5074C26.9762 60.0619 29.9478 63.1052 31.8951 66.8697C31.984 67.0356 32.078 67.1404 32.2875 67.5065C32.4126 66.8477 32.5535 66.4063 32.595 65.9205C32.7812 62.9367 32.7635 59.9248 33.0545 56.9244C33.4547 53.4477 33.4835 49.8894 35.0289 46.6905C36.0678 44.5896 36.0979 42.6284 34.3037 40.6964C34.0838 40.4518 33.932 40.2163 33.7492 39.9457C32.2521 37.747 32.8738 36.5109 35.6234 36.1156C36.6958 37.2439 36.6905 37.3044 37.3503 39.2364C38.0195 39.0506 38.0298 38.53 38.139 38.0537C38.405 36.9534 39.1993 36.5082 40.3755 36.4223C41.1022 36.3669 41.9022 36.2607 42.2527 36.9837C42.483 37.5062 42.5256 38.218 42.3061 38.7719C42.0817 39.3864 41.5594 39.868 41.1258 40.5158C42.1089 40.6798 43.0604 40.8084 44.08 40.9467C44.0697 41.4672 44.075 41.8061 44.0494 42.1094C43.9668 43.48 43.7366 43.7559 42.4193 43.8847C40.6159 44.0698 38.8228 44.1338 36.7839 44.2568C35.4633 47.2407 34.2001 50.3551 34.1818 54.1908C36.3392 51.8733 38.2722 49.7709 41.1833 48.6914C44.1315 47.5864 47.268 47.4894 50.6353 47.915C50.5621 48.3659 50.6669 48.7486 50.484 48.8774C46.8113 52.433 42.4268 55.0628 36.9487 56.0089C35.9711 56.1834 34.6745 56.0695 34.1152 56.5768C33.5562 57.0845 33.7662 58.2491 33.7248 59.1339C33.4968 61.8055 33.237 64.4417 33.1134 67.0965C32.9791 69.8724 33.0176 72.6412 33.0196 75.4358C33.0404 75.5921 33.1293 75.7579 33.3023 76.1498C35.7939 73.1402 39.3222 72.0832 43.159 71.4365C43.4048 71.3774 43.6973 71.5708 44.2988 71.7753C43.2748 72.8952 42.528 73.9917 41.5301 74.8084C39.5338 76.4416 37.1981 77.6294 34.3492 77.9804C33.0631 78.144 33.0161 78.2913 32.9489 79.4797C32.8354 81.6135 32.9204 83.836 32.4355 85.8892C31.8099 88.3835 30.7814 90.7622 29.654 93.0964C28.7817 94.8516 27.4813 96.3949 26.3372 98.1129C26.8131 97.7779 27.2466 97.5299 27.6178 97.2115C30.4967 94.8997 33.3707 92.6485 36.2497 90.3363C37.7962 89.1335 39.3481 87.87 40.8946 86.6672C41.5584 86.1428 42.112 85.2966 43.3145 85.7055C43.4139 85.7494 43.644 85.4739 44.0099 85.216C43.5754 85.0652 43.309 84.9676 43.2097 84.9233C43.5907 84.0847 44.0399 83.2552 44.3528 82.4071C45.5271 79.1268 45.8542 75.7016 45.7367 72.2463C45.694 70.7361 45.2434 69.1701 44.8553 67.6746C44.5464 66.4657 43.2494 65.9523 42.1878 65.5014C41.1578 65.0853 40.6972 64.4394 40.357 63.5952C39.6761 61.9057 40.4336 61.0876 42.4048 61.3545C42.8125 61.4097 43.1525 61.456 43.4556 61.5275C44.1242 60.9429 44.7202 60.4095 45.3105 59.9366C45.8225 59.5761 46.4448 59.5375 47.1036 59.8726C47.7258 60.2334 48.0297 60.7045 47.9046 61.3633C47.8316 61.8137 47.7273 62.2294 47.6596 62.6194C47.9577 62.7519 48.1197 62.8662 48.1563 62.8405C48.867 62.5683 49.5046 61.9485 50.3207 62.8571C50.9799 63.5917 51.0437 64.8593 50.333 65.5306C49.3193 66.5293 47.8455 66.8822 46.3816 67.1135C46.209 67.121 46.0315 67.1893 45.7177 67.2388C47.2584 72.5447 46.5818 77.6426 45.1897 83.073C46.0154 82.264 46.611 81.7305 47.1749 81.1622C47.776 80.5678 48.4447 79.9828 49.0141 79.3539C49.6881 78.7084 50.2625 78.0185 50.9366 77.3731C53.5749 74.6599 56.2498 71.921 58.9197 69.2428C60.1577 68.0289 61.459 66.8849 62.7283 65.7058C63.8883 64.604 63.7627 64.4644 62.7425 63.1287C61.9103 62.0022 61.2563 60.8082 60.602 59.614C60.2722 59.0476 60.0835 58.4384 59.7904 57.8459C58.5289 55.3108 57.9888 52.7809 58.4573 50.1116C58.5877 49.3923 58.6184 48.6286 58.7489 47.9093C58.8843 47.1294 59.1868 46.4027 60.0755 46.0624C62.9267 49.3048 64.4036 52.9441 64.7196 56.8864C64.8782 59.0575 64.801 61.166 64.8391 63.5357C65.2465 63.1914 65.5756 62.9597 65.8059 62.6838C68.1516 60.1766 70.5337 57.6441 72.8167 55.0669C74.0336 53.6966 75.157 52.2213 76.1752 50.7624C76.4885 50.3138 76.4465 49.6017 76.5661 49.0038C72.1311 46.5913 68.6526 43.4481 66.7002 39.3452C64.7474 35.2422 64.3578 30.952 66.0279 26.6951C67.2407 26.5832 68.041 27.6742 68.8051 28.3919C72.7176 32.085 75.7266 36.3004 76.9899 41.2312C77.4299 42.9184 77.4206 44.6365 77.6518 46.357C77.7097 46.8866 77.8357 47.4258 77.8936 47.9555C78.0294 47.974 78.16 48.0531 78.2959 48.0716C78.7922 47.4939 79.3565 46.9256 79.7588 46.243C81.1165 44.0319 83.3164 42.4264 84.5435 40.1362C85.3581 38.6499 85.7228 37.1947 85.6956 35.5021C85.6462 32.0563 84.8024 28.6563 84.1624 25.2839C84.0837 24.997 84.0733 24.7192 84.0991 24.4156C84.359 22.1786 83.0512 20.5888 81.1785 19.1681C79.761 18.0548 79.4886 17.2195 80.0733 16.0091C80.3708 15.3431 80.9719 15.1483 81.6934 15.1539C82.3419 15.2111 82.7289 15.5092 82.9538 16.0924C83.1214 16.545 83.4253 17.0161 83.7184 17.6086C84.183 16.5968 84.4959 15.7487 84.9713 15.0148C85.1695 14.7039 85.6766 14.4041 86.0947 14.338C87.0042 14.1542 87.3496 14.5388 87.277 15.3887C87.147 16.5072 86.9858 17.5909 86.8089 18.8565C87.5197 18.5844 87.9848 18.3711 88.4814 18.1927C89.0874 17.9371 89.7462 17.8728 90.2172 18.3973C90.6828 18.9824 90.5944 19.6153 90.1031 20.1321C89.2358 21.0278 88.1543 21.6182 86.8579 21.9031C86.1941 22.0281 85.5299 22.153 84.7252 22.3203C84.754 26.8073 86.4824 31.1256 86.8877 35.633C87.3943 34.934 88.0057 34.2185 88.5489 33.4938ZM97.3819 54.4353C99.4365 54.5295 99.7188 54.4447 99.9638 53.1886C99.1117 53.1038 98.2122 52.7668 98.0091 53.9367C97.9621 54.084 97.6432 54.1945 97.4289 54.288C96.9167 54.2495 96.4408 54.1851 95.9598 54.1813C96.1744 54.4864 96.3731 54.575 96.5456 54.5674C96.8229 54.5436 97.105 54.4592 97.3819 54.4353ZM27.2385 85.1539C27.6676 85.7646 28.0966 86.3756 28.5257 86.9863C28.5988 86.9348 28.672 86.8833 28.7085 86.8576C28.2063 86.2984 27.673 85.7041 27.1703 85.1448C27.0962 83.5993 26.0241 82.4715 24.8364 81.4814C23.4871 80.3774 22.0643 79.3244 20.5997 78.3586C19.1669 77.4273 17.6604 76.5477 15.7887 76.3247C19.8213 79.0204 23.7808 81.768 27.2385 85.1539ZM59.2812 86.7334C59.3963 86.5952 59.4798 86.4226 59.558 86.3101C60.107 86.3234 60.6195 86.362 61.1682 86.3748C54.9248 83.8091 46.3877 84.341 41.5386 87.5835C45.5266 86.3738 49.3844 85.8831 53.3106 85.8013C54.4137 85.7665 55.522 86.0701 56.6775 86.2268C56.4319 86.2855 56.2178 86.3795 55.9771 86.3775C52.631 86.1083 49.4056 86.4389 46.2642 86.9955C44.9727 87.2199 43.4672 87.1385 42.6419 88.347C42.7989 88.522 42.9562 88.6966 43.1129 88.8714C43.4841 88.9525 43.8503 89.0941 44.2264 89.1145C48.5501 89.2092 52.8421 89.269 57.0501 88.7033C58.7544 88.4735 60.3645 88.1392 62.0737 87.8488C62.0426 87.8136 62.0163 87.7182 61.9848 87.6829C60.8292 87.5266 59.6059 87.3608 58.4504 87.204C58.7064 87.0238 58.994 86.8785 59.2812 86.7334ZM19.6793 109.647C19.5018 109.715 19.2874 109.808 19.0364 109.928C23.8849 113.533 29.203 115.267 35.1053 114.992C33.7352 114.53 32.3653 114.068 30.9952 113.606C32.5481 113.939 34.1061 114.212 35.6589 114.545C36.1349 114.61 36.6108 114.674 37.0813 114.799C37.0917 114.678 37.1333 114.592 37.1803 114.444C36.4167 114.126 35.6846 113.843 34.9215 113.524C35.7054 113.6 36.4897 113.675 37.6137 113.797C36.8975 113.331 36.4161 112.928 35.8512 112.698C33.7387 111.675 31.6204 110.712 29.5026 109.749C29.8791 109.77 30.2607 109.729 30.5588 109.862C31.6254 110.252 32.687 110.703 34.0204 111.191C31.6401 108.873 25.9671 107.275 22.6161 107.864C23.2907 108.017 23.9757 108.049 24.6188 108.167C26.3076 108.518 28.1635 108.524 29.6072 109.733C27.8869 109.346 26.1718 108.899 24.4414 108.634C22.9824 108.405 21.545 108.334 19.6679 108.171C20.1439 108.635 20.3011 108.809 20.4944 108.959C20.2853 108.992 20.0712 109.086 19.8306 109.084C18.8688 109.076 19.6269 109.455 19.6793 109.647ZM26.435 87.7163C25.3372 87.6906 24.7826 86.9398 24.0763 86.353C23.0147 85.5026 21.958 84.5917 20.9379 83.655C19.4995 82.3856 18.0662 81.0551 16.7007 79.7337C15.7802 78.8414 15.0057 77.846 14.1581 76.9021C14.9539 78.4529 16.0056 79.8239 17.0935 81.169C17.4969 81.684 18.0406 82.1568 18.4068 82.6978C20.2806 85.7154 23.46 87.1291 26.8748 88.6053C26.6025 88.1691 26.4873 87.9079 26.3356 87.6724C26.9371 87.8765 27.5386 88.081 28.3383 88.3735C27.6893 86.7195 26.7943 85.5234 25.649 84.4471C22.594 81.5765 19.1574 79.1458 15.5697 76.8783C15.4076 76.7643 15.2401 76.7109 15.078 76.5966C16.3027 78.3594 17.5062 79.9659 18.9707 81.3311C21.4241 83.5982 23.9661 85.6317 26.435 87.7163ZM74.944 46.6651C70.7373 41.5811 68.1513 36.0414 65.936 30.1832C65.0405 36.2339 68.5744 43.5606 74.944 46.6651ZM74.6034 45.4214C74.1406 41.1828 68.9687 30.9013 66.6151 29.4769C66.7831 30.3287 66.7836 31.1272 67.061 31.9017C67.3387 32.6763 67.8987 33.3664 68.2126 34.1151C69.6158 37.4067 71.2701 40.5786 73.3162 43.589C73.6825 44.13 74.0853 44.6453 74.6034 45.4214ZM75.2369 39.2126C75.3466 39.1353 75.4564 39.0581 75.5977 39.0159C74.2577 36.1935 72.8441 33.4225 70.2132 31.2236C70.7836 32.1914 71.3228 33.1242 72.0084 34.3533C70.4233 33.1865 70.2968 31.4498 68.8273 30.5444C70.0941 33.0191 71.4706 35.4165 72.6015 37.8728C73.6118 40.1285 74.408 42.4781 75.2775 44.7759C75.5024 45.3593 75.8009 45.8909 75.9947 46.4391C76.4206 42.2597 74.2904 38.6237 72.1236 35.0137C72.2649 34.9714 72.4058 34.9291 72.5471 34.8869C73.4892 36.3349 74.363 37.7738 75.2369 39.2126ZM77.1677 65.2984C73.2943 65.9712 66.6374 71.4557 66.3151 74.0224C69.9622 71.1695 73.9077 68.8486 77.1677 65.2984ZM44.5461 89.8029C49.6864 91.6047 58.9233 90.9224 61.6872 88.3489C55.8694 89.6487 50.2181 89.804 44.5461 89.8029ZM47.6505 48.6468C42.6058 48.9456 39.4707 51.438 36.3615 54.0257C40.5329 53.0864 44.1023 51.1445 47.6505 48.6468ZM65.422 75.2215C71.3179 73.8099 76.9138 69.0716 77.4608 65.891C73.9656 69.3783 69.8059 72.1925 65.422 75.2215ZM65.206 73.3192C67.6871 70.0321 70.9634 67.4977 75.0084 65.2208C70.4969 65.3155 65.3815 69.6581 65.206 73.3192ZM49.0775 48.4408C47.7292 49.3328 46.444 50.295 45.0014 51.082C43.5904 51.904 42.0538 52.5862 40.5176 53.2686C39.0541 53.8993 37.5329 54.3994 36.0383 54.995C40.5759 54.9961 47.2863 51.6987 49.0775 48.4408ZM59.7216 48.5938C58.3649 52.4019 59.7423 55.9972 61.7209 59.7965C61.023 55.8942 60.3721 52.2439 59.7216 48.5938ZM38.1772 40.423C38.7624 40.0111 39.1647 39.7279 39.8966 39.2131C39.4375 40.5632 37.9004 40.8463 37.849 42.2517C38.3507 42.0128 38.7376 41.9117 38.9625 41.6964C39.7147 40.9388 40.4354 40.1459 41.1565 39.3531C41.3082 39.1892 41.496 38.9998 41.5796 38.8268C41.8667 38.2824 42.1904 37.7122 41.5523 37.1344C41.1391 36.7407 40.0622 36.8709 39.5032 37.3786C39.2418 37.6194 39.012 37.8954 38.918 38.19C38.6571 38.8298 38.4955 39.5143 38.1772 40.423ZM11.1068 87.6656C10.9016 85.642 10.1118 84.8287 8.47536 84.6682C8.03102 84.6387 7.36684 84.7635 7.20519 85.0487C7.04313 85.3337 7.26346 85.9779 7.55109 86.2319C8.70173 87.2477 9.96756 88.1253 11.1601 89.0548C11.2333 89.0033 11.3115 88.8908 11.3846 88.8393C10.6891 88.131 10.0245 87.4573 9.32895 86.7491C9.43868 86.6718 9.51182 86.6203 9.62154 86.5431C10.0763 86.8504 10.4633 87.1484 11.1068 87.6656ZM84.3158 44.0051C87.949 43.7299 91.6346 43.6459 94.9747 42.3791C91.1631 41.9239 87.6924 42.7125 84.3158 44.0051ZM61.2221 48.7358C61.0812 48.7782 60.9764 48.7948 60.804 48.802C61.2177 49.9943 61.7362 51.1699 62.0451 52.3787C62.4173 53.6573 62.5803 54.9692 62.8843 56.2387C63.1305 57.3775 63.3722 58.577 63.6184 59.7158C64.1179 55.884 63.2268 52.2319 61.2221 48.7358ZM94.7241 43.297C91.4517 43.7747 88.1793 44.2524 84.907 44.73C88.5515 45.5311 91.8239 45.0534 94.7241 43.297ZM36.3737 40.6085C36.515 40.5662 36.6559 40.5241 36.7972 40.4817C36.4987 39.5508 36.2679 38.6288 35.9693 37.6982C35.8067 37.1847 35.4667 36.7395 34.7401 36.7944C34.0447 36.8845 33.899 37.3866 33.8574 37.8724C33.8525 38.3324 33.9153 38.8014 34.1565 39.2025C34.7633 40.1448 35.4435 41.0353 36.087 41.9515C35.9872 41.1087 35.532 40.4022 35.1811 39.679C35.0609 39.4788 35.2591 39.1679 35.3006 38.6822C35.8137 39.5193 36.1121 40.0513 36.3737 40.6085ZM14.224 89.4084C15.2585 88.9654 15.65 88.0048 16.8322 88.6565C16.1007 89.1714 15.515 89.5836 14.8933 90.0213C15.9074 89.821 16.8273 89.5155 17.6532 89.1055C18.3011 88.7636 18.4311 87.6448 17.9605 87.1205C17.453 86.6218 16.5904 86.6586 15.9895 87.2526C15.4251 87.8208 14.9916 88.4686 14.224 89.4084ZM13.5697 88.2142C14.3895 87.0667 14.9065 86.2462 14.6916 85.1422C14.5393 84.5076 14.2047 84.0015 13.4466 84.0215C12.7616 83.99 12.2495 84.3505 12.1926 85.0184C12.1511 85.5042 12.1408 86.0247 12.1986 86.5547C12.1883 86.6759 12.4185 86.7994 12.5807 86.9133C12.7477 86.5677 12.8782 86.2473 13.0087 85.9274C13.1445 85.946 13.2805 85.9641 13.3798 86.0084C13.4012 86.5638 13.4485 87.2154 13.5697 88.2142ZM46.8479 60.4523C45.5773 60.0343 45.0756 60.6726 44.8147 61.3128C44.4756 62.0652 44.1939 62.9481 45.177 63.9104C45.2027 63.2077 45.213 62.6872 45.2699 62.0193C46.593 62.6285 45.5532 63.5314 46.1081 64.2823C46.8026 62.9946 47.2775 61.8615 46.8479 60.4523ZM94.4865 55.3327C95.4751 56.6335 96.344 58.1328 98.3932 57.8886C98.8004 57.1454 98.4553 56.7612 97.8118 56.2439C96.8495 55.4379 95.48 56.1735 94.4865 55.3327ZM21.4412 54.0299C21.3522 53.8644 21.3314 53.7081 21.2423 53.5427C20.672 52.5746 19.9816 52.2047 19.3701 52.5212C18.7954 52.8116 18.6757 53.8089 19.2353 54.4986C19.7952 55.1889 20.5747 55.7242 21.2128 56.302C21.3225 56.2247 21.4323 56.1475 21.5786 56.0445C21.2751 55.5735 20.9716 55.1026 20.7046 54.6058C20.2856 53.8735 20.9603 54.0261 21.4412 54.0299ZM40.0915 41.7572C40.8655 41.9541 41.2682 42.0704 41.7072 42.1604C41.7022 42.2211 41.6967 42.282 41.6918 42.3426C40.6776 42.5429 39.6635 42.7431 38.6863 42.9178C38.7437 43.0483 38.7648 43.2051 38.8222 43.3357C40.1029 43.2326 41.4151 43.1649 42.6699 42.9666C43.4695 42.8602 43.9134 42.0912 43.5052 41.6364C43.2229 41.3219 42.5484 41.1689 42.0675 41.1651C41.4452 41.2037 40.9385 41.5036 40.0915 41.7572ZM47.3829 103.268C46.3478 102.913 45.7148 102.674 44.9462 102.416C46.2333 103.849 46.9025 104.063 48.9308 103.662C48.4123 102.087 48.1509 101.929 46.3473 102.115C46.6296 102.429 46.8495 102.674 47.3829 103.268ZM19.8673 85.3216C18.2506 83.3215 16.5973 81.3474 15.0118 79.382C16.2315 81.6049 17.2315 83.9817 19.8673 85.3216ZM41.6481 63.3706C41.7262 63.2585 41.7681 63.1722 41.8778 63.095C42.3697 63.3763 42.8976 63.6322 43.5564 63.9672C43.3315 63.3838 43.2683 62.9147 43.0121 62.6959C42.6252 62.3976 42.0341 62.072 41.5844 62.1029C40.8577 62.1583 40.9418 62.7837 41.0363 63.2876C41.3403 64.5571 42.4122 64.8869 43.6724 65.0271C42.9974 64.4749 42.3227 63.923 41.6481 63.3706ZM61.5222 52.0622C61.3863 52.0436 61.2503 52.0255 61.1144 52.0069C60.9117 53.5763 61.7401 57.1584 62.7446 58.6761C62.3303 56.2864 61.9264 54.1746 61.5222 52.0622ZM81.7305 15.9266C79.9848 16.6419 80.0273 17.354 81.8215 18.8868C81.6905 18.4085 81.5857 18.0258 81.4127 17.2347C82.1136 17.8824 82.5318 18.2154 83.0393 18.7141C82.7042 17.8089 82.4526 17.1299 82.2015 16.4511C82.1125 16.2855 81.9504 16.1714 81.7305 15.9266ZM94.1532 41.5308C91.2668 40.7097 88.6582 41.0624 87.352 42.2671C89.4693 42.0321 91.5866 41.7971 94.1532 41.5308ZM86.1284 17.9659C86.2114 16.9945 86.2894 16.084 86.3725 15.1126C85.0084 15.7875 84.8468 16.871 84.5497 17.9362C85.0727 18.2527 85.3593 16.9098 86.1284 17.9659ZM18.5152 56.09C16.465 55.1366 16.1878 55.1604 14.8449 55.9919C16.1165 57.6075 17.2761 56.1062 18.5152 56.09ZM48.5082 65.5597C49.9143 64.7983 49.9143 64.7983 49.5891 63.3725C48.1829 63.3354 47.4984 64.1024 47.0181 65.2961C47.7343 64.9634 48.2726 64.6983 48.8424 64.4685C48.9051 64.5386 48.9679 64.6086 49.0307 64.6783C48.8687 64.9633 48.7069 65.2489 48.5082 65.5597ZM20.2781 57.9872C19.2122 58.7943 17.544 58.1999 17.3098 59.7341C18.7476 60.2054 19.5422 59.7606 20.2781 57.9872ZM46.9736 100.818C48.5004 101.055 49.4567 100.724 50.2875 99.8541C49.1003 98.8641 48.1543 99.4729 47.1559 99.8905C47.5637 99.9458 47.9769 99.9401 48.3847 99.9954C48.4108 100.091 48.437 100.187 48.4632 100.283C48.04 100.41 47.6165 100.536 46.9736 100.818ZM45.9257 96.9908C44.0851 96.4036 43.6042 96.7992 43.6527 98.648C44.0131 98.451 44.4623 98.0205 44.8389 98.041C45.8532 98.2397 45.8006 97.6496 45.9257 96.9908ZM89.6005 18.7743C88.0633 18.6581 87.3739 19.4858 86.6582 20.2179C87.5934 19.7305 89.4656 20.7519 89.6005 18.7743ZM42.5534 49.1533C40.3529 49.5616 39.0097 50.3925 38.2524 51.6105C38.932 51.3035 39.7475 51.0147 40.4686 50.6213C41.122 50.2185 41.7488 49.7198 42.5534 49.1533ZM38.9624 73.4776C37.4619 73.3356 36.8871 74.0254 36.3701 74.8459C37.1594 74.4616 37.9172 74.0421 38.9624 73.4776ZM39.7103 74.3775C39.6163 74.2727 39.5585 74.142 39.4646 74.0372C38.5656 74.4987 37.6666 74.9602 36.8046 75.396C36.8985 75.5008 36.9247 75.5966 37.0191 75.7016C37.9176 75.2399 38.8166 74.7785 39.7103 74.3775ZM95.6282 50.82C95.5032 51.4784 95.4567 52.0247 95.3786 52.5362C95.4779 52.5805 95.5407 52.6506 95.6085 52.6596C95.8907 52.1758 96.1412 51.6571 96.423 51.1732C96.1566 51.0756 95.9262 50.9525 95.6282 50.82Z" fill="#5DA65B"/>
<path d="M74.6699 75.6151C76.165 75.4186 77.5399 75.0215 78.705 74.2582C81.323 72.5862 83.9464 70.8537 86.6588 69.2871C88.9007 67.9941 90.7555 66.4032 92.4952 64.5511C92.3223 63.7598 92.1543 62.9078 91.9863 62.0559C91.7924 61.1087 92.0742 60.2254 92.7167 59.545C93.589 58.5886 94.3003 58.7155 94.9546 59.9097C95.0435 60.0755 95.0643 60.2318 95.1484 60.4579C96.4551 60.451 97.6882 59.2978 99.0639 60.4972C99.1587 61.8 98.0091 62.3812 97.2514 63.1997C97.8164 63.4295 98.2869 63.5548 98.7525 63.7408C99.8453 64.2265 100.175 64.7933 99.9091 65.4941C99.6426 66.1953 98.7125 66.6216 97.7714 66.3714C96.5947 66.0582 95.4129 65.806 94.2835 65.3461C93.4156 65.044 92.825 65.1174 92.2605 65.6861C88.5928 69.1806 84.0779 71.7314 79.683 74.4828C79.3169 74.7401 78.9877 74.9718 78.3293 75.4356C81.4401 75.6424 84.1798 75.7677 86.7934 75.3542C91.0067 74.7281 95.2355 73.9193 99.3912 73.1621C103.265 72.4897 106.85 71.1638 110.409 69.7425C112.437 68.9425 112.526 68.7089 111.971 66.7605C110.734 62.7238 112.279 59.5249 114.996 56.6997C115.602 56.0447 116.177 55.3553 116.976 54.4501C117.306 55.0168 117.651 55.4015 117.724 55.749C117.814 56.713 117.836 57.6678 117.857 58.6227C117.89 61.053 116.72 63.0748 115.686 65.1147C115.352 65.8064 114.982 66.5239 114.647 67.2156C114.742 67.3205 114.836 67.4254 114.967 67.5045C115.62 67.1017 116.247 66.603 116.989 66.366C119.535 65.544 121.008 63.5942 122.857 62.0643C124.634 60.5854 125.835 58.9979 124.505 56.4532C123.945 55.364 124.635 54.1371 125.507 53.1806C126.411 52.259 127.425 52.4579 127.907 53.6594C128.043 54.077 128.002 54.5627 128.049 55.214C129.429 53.9577 130.698 52.7787 132.632 52.6724C133.914 54.1665 133.914 54.1665 131.021 58.2575C131.659 58.4361 132.302 58.554 132.872 58.7233C134.179 59.1154 134.875 59.8239 134.807 60.613C134.703 61.4282 133.433 62.2077 132.241 62.0771C130.704 61.9609 129.261 61.5501 127.88 60.8103C126.139 59.8679 126.139 59.8679 124.759 61.1245C123.417 62.355 122.163 63.751 120.726 64.8766C119.441 65.8386 117.925 66.6772 116.42 67.3943C113.624 68.735 110.765 70.0056 107.906 71.2762C107.765 71.3186 107.681 71.4916 107.352 71.7234C109.156 71.9369 110.829 72.0717 112.419 72.3791C115.028 72.8251 117.668 73.3056 120.225 73.9594C121.537 74.2907 122.217 73.9836 122.843 73.086C123.157 72.6369 123.606 72.2068 124.144 71.9418C124.714 71.712 125.451 71.5356 126.094 71.6533C127.72 71.9354 128.223 73.2931 127.173 74.3176C126.875 74.5841 126.546 74.8158 126.285 75.057C127.09 75.6881 127.901 76.2587 128.565 76.9323C129.266 77.5797 128.869 78.2017 128.41 78.7534C127.882 79.2959 127.281 79.0919 126.684 78.8268C126.026 78.4918 125.335 78.1219 124.614 77.7167C124.337 78.9385 124.573 80.1985 123.544 80.9803C120.778 80.3598 119.704 77.635 121.376 74.9748C120.774 74.7708 120.178 74.5057 119.572 74.3619C114.902 73.0845 110.181 72.4136 105.434 72.4457C104.953 72.442 104.462 72.5597 103.97 72.6775C101.028 73.3226 98.1161 74.0026 94.9954 74.7159C98.9745 75.6238 102.781 76.5389 105.982 78.9071C109.115 81.2662 111.626 84.063 113.385 87.6178C108.644 87.9884 104.508 86.5066 100.564 84.3754C96.4906 82.1651 94.3549 78.5902 92.2563 74.9893C87.6252 76.0812 82.9356 75.845 78.2879 75.921C77.4619 75.932 76.6621 76.0388 75.8363 76.0494C75.2715 76.2186 74.6808 76.2921 74.6699 75.6151ZM97.2999 65.0485C97.4833 65.7182 97.9904 65.8178 98.5602 65.588C98.8109 65.4683 98.9102 65.1132 99.1035 64.863C98.6798 64.5908 98.2196 64.3443 97.8954 64.116C97.6187 64.5389 97.4566 64.824 97.3312 65.0832C96.6149 65.017 95.9975 64.1966 95.0309 64.6487C96.5264 65.2507 96.5264 65.2507 97.2999 65.0485ZM106.572 85.2817C105.766 84.6506 104.961 84.0195 104.119 83.4141C102.785 82.527 101.409 81.7266 100.039 80.8653C99.9609 80.9773 99.8878 81.0288 99.8094 81.1413C100.123 81.4907 100.437 81.8402 100.751 82.19C100.223 81.9341 99.6216 81.7296 99.2084 81.3359C97.9685 80.1546 96.8384 78.8961 95.6354 77.6892C95.3527 77.3745 94.9237 77.1628 94.3069 76.7411C96.7155 82.3491 103.781 86.1624 108.737 86.4967C108.041 86.1874 107.288 85.7474 106.572 85.2817ZM111.006 86.4971C111.121 86.3589 111.267 86.2559 111.382 86.1181C110.451 85.3469 109.562 84.4897 108.594 83.7442C106.376 81.939 104.09 80.1247 101.371 78.9579C99.682 78.2067 98.0295 77.4302 96.3403 76.679C96.011 76.5117 95.6398 76.4307 95.2682 76.3496C99.9659 80.5173 105.097 84.038 111.006 86.4971ZM109.357 83.6636C106.38 79.483 102.149 77.0977 96.9308 76.2065C101.094 78.5823 105.915 80.0956 109.357 83.6636ZM127.298 58.3671C127.424 58.5068 127.55 58.6469 127.639 58.8124C129.724 58.1432 131.433 57.0544 132.352 55.1523C132.555 54.7807 132.294 54.2232 132.231 53.754C131.708 53.8367 131.065 53.7189 130.699 53.9764C129.492 54.8261 128.442 55.8506 127.559 57.3277C128.421 56.8919 129.033 56.5756 129.608 56.285C129.702 56.3899 129.765 56.4598 129.859 56.5647C129.018 57.1569 128.176 57.7491 127.298 58.3671ZM133.887 60.5191C132.548 58.8943 131.627 58.8003 128.078 60.1004C129.14 60.5513 130.055 61.1052 131.033 61.3297C132.115 61.538 133.334 61.7644 133.887 60.5191ZM113.397 65.7565C115.397 62.4656 116.884 57.9382 116.559 56.5123C115.395 59.6711 113.609 62.469 113.397 65.7565ZM115.196 57.9859C115.096 57.9416 114.965 57.8624 114.903 57.7924C113.414 59.9244 111.889 62.082 112.377 65.2188C113.353 62.6492 114.308 60.3219 115.196 57.9859ZM123.073 80.0565C123.83 78.4399 123.83 78.4399 123.108 77.2363C122.919 77.426 122.799 77.6243 122.533 77.9261C122.35 77.2563 122.224 76.7176 122.04 76.0478C121.084 76.7778 121.215 77.6554 121.388 78.4467C121.53 79.2028 121.954 79.8744 123.073 80.0565ZM126.069 72.7554C125.411 74.0173 123.842 73.4668 123.357 74.3221C125.25 75.1009 126.499 74.564 126.675 72.8989C124.945 72.2345 124.908 72.2602 124.02 73.3991C124.652 73.2389 125.186 73.0348 126.069 72.7554ZM126.61 76.4828C126.521 76.7164 126.396 76.9758 126.276 77.1746C125.617 76.8395 125.125 76.5578 124.597 76.3023C124.555 76.3886 124.477 76.5006 124.435 76.5873C125.439 77.3067 126.162 78.5099 127.751 78.4183C127.86 77.1435 127.86 77.1435 126.61 76.4828ZM98.0551 60.6369C96.7117 60.6699 95.7549 61.0007 95.3639 62.3604C96.3098 61.7516 98.025 62.5981 98.0551 60.6369ZM126.495 53.2838C126.114 53.7234 125.806 54.1115 125.612 54.3617C126.109 54.9818 126.45 55.4271 126.884 55.9772C127.03 55.0758 127.609 54.3253 126.495 53.2838ZM125.603 55.2816C124.929 56.3264 124.95 56.4828 126.211 57.8205C125.954 56.8031 125.807 56.1077 125.603 55.2816ZM93.7046 59.6484C93.2816 60.1743 93.0048 60.5976 92.6599 61.0113C93.2297 60.7815 94.6468 61.0962 93.7046 59.6484ZM117.131 59.4765C117.032 59.4322 116.896 59.4136 116.796 59.3697C116.645 59.9323 116.499 60.4347 116.348 60.9977C116.515 61.0511 116.651 61.0693 116.818 61.1227C116.896 60.6115 116.98 60.0391 117.131 59.4765Z" fill="#5DA65B"/>
<path d="M88.6165 33.503C87.9473 32.8904 88.3076 32.2943 88.6259 31.7847C90.7828 28.2695 92.6781 24.5959 95.4573 21.4414C96.1418 20.6743 96.5644 19.749 97.1861 18.9121C97.4995 18.4632 97.8128 18.0144 98.2571 17.6447C98.8892 17.0856 98.8783 16.4086 98.6268 15.7296C98.1033 14.2155 98.0553 12.7658 98.4201 11.3106C98.5871 10.5656 98.9262 9.81313 99.3597 9.16562C99.9082 8.38022 100.829 8.47426 101.2 9.35371C101.598 10.3288 101.782 11.3977 102.07 12.4502C102.624 12.0031 103.219 11.4697 103.909 11.0412C104.526 10.6643 105.226 10.1142 106.1 10.7547C106.779 11.246 106.994 12.3498 106.514 13.1445C106.196 13.6541 105.678 14.0753 105.166 14.4358C104.8 14.6933 104.34 14.8458 103.771 15.0758C104.921 15.293 105.977 15.4055 106.944 15.7515C107.378 15.9025 107.959 16.3497 108.095 16.7673C108.31 17.472 107.819 17.9888 106.993 17.9997C105.958 18.0437 104.891 18.0526 103.835 17.9402C102.847 17.837 101.801 17.6031 100.829 17.3177C99.7205 17.014 98.9624 17.4332 98.4508 18.193C96.4502 21.0846 94.4866 23.9505 92.5175 26.8771C91.7341 27.9992 90.982 29.1562 90.2667 30.2876C90.1047 30.5727 90.0423 30.9021 90.0058 31.3269C93.0104 29.1548 96.3499 27.4887 100.239 27.0332C104.092 26.6035 109.953 28.012 111.596 29.7086C110.911 30.0765 110.295 30.4535 109.642 30.8563C104.227 33.8686 98.1896 34.125 91.9413 33.2167C90.6868 33.016 89.6989 33.312 88.6165 33.503ZM98.0922 29.6286C96.1063 30.3421 93.9158 30.6286 92.1024 31.7339C95.49 31.5175 98.7574 31.1006 102.092 30.6928C103.551 30.522 104.978 30.3163 106.405 30.1105C102.355 31.6496 97.8164 31.6486 93.2846 32.3855C97.3528 33.8581 106.898 32.3881 109.014 30.157C108.12 30.1587 107.194 30.1253 106.337 30.1014C106.766 29.9138 107.163 29.6912 107.701 29.4263C106.922 29.2901 106.384 29.1557 105.808 29.047C106.3 28.9294 106.791 28.8117 107.601 28.5837C102.587 27.3207 98.2266 27.2518 94.114 29.9185C95.6353 29.8176 96.8797 29.7407 98.0922 29.6286ZM103.126 12.9618C104.548 13.2159 103.184 13.8908 103.603 14.2239C105.918 13.6779 106.394 12.944 105.357 11.391C104.197 11.6944 104.197 11.6944 103.126 12.9618ZM103.171 16.8676C104.928 18.0269 106.622 17.9187 107.395 16.5188C106.181 16.2315 105.099 15.6242 103.724 16.0214C104.043 16.3102 104.3 16.5292 104.619 16.8181C104.305 16.8677 104.127 16.9357 103.991 16.9173C103.751 16.9155 103.51 16.9136 103.171 16.8676ZM100.726 12.4829C100.956 11.0094 100.956 11.0094 100.056 9.87409C99.1521 11.1949 98.6672 13.2479 99.3468 13.34C99.5139 12.9941 99.6494 12.6133 99.7852 12.2326C100.156 12.3136 100.46 12.3854 100.726 12.4829Z" fill="#5DA65B"/>
</svg>
