<svg width="241" height="210" viewBox="0 0 241 210" fill="none" xmlns="http://www.w3.org/2000/svg">
<path d="M169.089 152.845C169.12 152.783 169.151 152.721 169.213 152.752C170.757 151.774 172.347 152.645 175.416 154.528C178.843 156.55 184.53 159.896 194.613 163.182C194.737 163.244 194.909 163.291 195.096 163.384C195.501 163.664 195.703 163.96 195.516 164.333C195.516 164.333 195.516 164.333 195.485 164.395C195.453 164.457 195.422 164.519 195.406 164.628C194.798 165.451 193.333 165.263 192.881 165.154C191.946 164.998 190.216 164.329 189.265 163.815C188.782 163.613 188.377 163.333 187.863 163.037L187.801 163.006C187.271 162.664 186.57 162.275 185.916 162.026C185.62 161.917 185.433 161.823 185.121 161.668C184.763 161.528 184.451 161.372 184.202 161.247C183.407 160.889 182.581 160.438 181.88 160.049C180.992 159.567 180.057 159.1 179.2 158.711C177.689 158.073 176.115 157.092 174.23 155.957C172.002 154.572 171.379 154.261 170.787 154.043C170.428 153.903 169.992 153.685 169.291 153.296C169.042 153.171 169.042 153.016 169.089 152.845ZM194.861 164.084C194.83 163.99 194.612 163.804 194.394 163.772C186.758 161.28 180.962 158.23 175.898 155.507L174.714 154.916C174.418 154.807 174.075 154.558 173.857 154.371C172.658 153.578 171.287 152.738 170.148 153.063C170.476 153.11 170.834 153.25 171.208 153.437C171.878 153.733 172.423 153.966 173.062 154.324L173.701 154.682C174.729 155.273 175.352 155.74 176.365 156.284C177.316 156.798 184.467 160.331 184.717 160.455C185.013 160.564 185.278 160.735 185.574 160.844C185.87 160.953 186.135 161.125 186.431 161.234C187.101 161.529 187.755 161.934 188.378 162.245C188.846 162.556 189.329 162.759 189.874 162.992C190.762 163.475 192.336 163.988 193.193 164.222C193.91 164.347 194.393 164.394 194.721 164.285C194.736 164.177 194.83 164.146 194.861 164.084Z" fill="#5DA65B"/>
<path d="M167.622 154.211C167.825 153.729 168.137 153.419 168.621 153.31C169.712 153 171.145 154.183 172.08 154.805L172.205 154.867C172.641 155.24 172.641 155.24 177.72 158.476L184.341 162.755C185.836 163.657 187.192 164.606 188.563 165.446L188.625 165.477C193.813 168.884 198.284 171.856 203.894 173.725C204.517 173.881 204.844 174.238 205.094 174.674C205.343 175.109 205.358 175.622 205.092 176.228C205.061 176.29 205.014 176.461 204.983 176.523C204.952 176.585 204.92 176.647 204.905 176.756C204.514 177.455 204.28 177.843 203.953 177.952C203.469 178.06 202.909 177.78 201.709 176.987C201.07 176.629 200.385 176.131 199.356 175.54C197.3 174.357 195.57 173.377 194.09 172.521C189.51 170 186.238 168.133 177.997 161.958C176.564 160.931 175.349 159.935 174.243 159.111C171.501 156.964 169.866 155.642 167.731 154.537C167.684 154.553 167.56 154.335 167.622 154.211ZM204.173 176.118C204.204 176.056 204.235 175.994 204.251 175.885C204.438 175.201 204.267 174.844 203.613 174.595L202.584 174.159C200.06 173.131 197.38 171.948 192.13 168.666C184.979 164.045 180.056 160.809 176.488 158.367C171.394 154.929 169.524 153.684 168.667 153.917C168.511 153.916 168.339 154.025 168.261 154.258C170.302 155.239 171.782 156.405 175.817 159.47L178.419 161.352C186.8 167.481 189.791 169.13 194.496 171.713C196.023 172.553 197.737 173.487 199.903 174.685L200.666 175.105C201.694 175.697 203.517 176.801 203.782 176.973C203.782 176.973 203.72 176.941 203.751 176.879L203.923 176.615C204.063 176.413 204.11 176.242 204.173 176.118Z" fill="#5DA65B"/>
<path d="M165.798 155.282C165.829 155.22 165.829 155.22 165.922 155.189C167.061 154.397 167.528 154.708 168.26 155.19C168.385 155.253 168.525 155.362 168.666 155.47C169.522 156.015 170.504 156.622 171.361 157.166C176.144 160.138 182.749 164.214 194.756 177.789C195.068 178.1 195.363 178.365 195.628 178.691C196.718 179.78 197.653 180.868 198.01 182.407L198.072 182.438L198.041 182.5C198.01 182.563 198.041 182.656 198.025 182.765C198.025 182.765 198.025 182.765 197.994 182.827C197.963 182.889 197.932 182.951 197.838 182.982C197.495 183.355 196.092 183.664 195.328 183.244C194.44 182.762 193.631 181.27 192.79 179.995C192.37 179.202 191.887 178.378 191.373 177.771C189.209 175.019 186.515 172.236 183.166 169.358C179.677 166.372 175.471 163.261 172.636 161.145C171.81 160.539 171.124 160.041 170.642 159.683C169.941 159.139 169.411 158.641 168.819 158.112C168.072 157.428 167.308 156.697 165.937 155.702C165.828 155.53 165.797 155.437 165.798 155.282ZM197.355 182.469L197.277 182.236C197.044 181.381 196.531 180.619 196.095 180.09C184.338 166.173 177 161.459 171.142 157.757L171.08 157.725C170.161 157.15 169.241 156.574 168.353 155.936C168.229 155.874 168.089 155.765 167.948 155.656C167.341 155.236 167.185 155.081 166.686 155.453C188.916 171.491 191.718 176.466 193.601 179.778C193.99 180.477 194.363 181.13 194.846 181.799C195.329 182.467 195.749 182.794 196.108 182.779C196.435 182.67 196.997 182.64 197.355 182.469Z" fill="#5DA65B"/>
<path d="M164.394 156.368C164.456 156.244 164.565 156.104 164.737 155.996C165.673 155.375 166.015 155.779 166.778 156.821C167.37 157.66 170.111 159.962 173.491 162.933C180.563 169.03 190.142 177.351 189.439 179.604C189.361 179.837 189.189 179.945 189.064 180.038C188.971 180.069 188.83 180.116 188.799 180.178L188.737 180.147C188.706 180.209 188.643 180.178 188.503 180.224C187.537 180.131 184.266 176.554 181.089 173.102C179.688 171.547 178.317 170.085 177.227 168.996C175.545 167.224 173.754 165.746 172.087 164.331C169.61 162.2 167.025 160.053 164.44 156.975L164.409 156.881C164.331 156.648 164.253 156.57 164.394 156.368ZM188.769 179.308C188.8 179.246 188.8 179.246 188.831 179.184C188.833 176.853 181.45 170.445 174.939 164.783C171.248 161.657 167.759 158.671 165.781 156.478C165.687 156.354 165.625 156.323 165.516 156.307C165.422 156.338 165.173 156.524 165.079 156.555L165.142 156.587C166.979 158.67 170.78 161.968 173.584 164.301C177.197 167.349 178.381 168.562 181.542 171.968C183.349 173.958 184.657 175.389 185.685 176.446L185.934 176.726C188.332 179.401 188.332 179.401 188.691 179.385C188.706 179.432 188.706 179.432 188.769 179.308Z" fill="#5DA65B"/>
<path d="M163.785 157.037C163.816 156.975 163.848 156.913 163.91 156.944C164.066 156.788 164.347 156.695 164.643 156.649C165.064 156.665 165.593 157.007 166.076 157.52C171.666 164.16 175.871 168.825 178.986 172.246C184.748 178.622 187.364 181.483 189.713 186.815C189.744 186.908 192.576 193.219 191.779 195.503C191.748 195.565 191.748 195.565 191.717 195.628L191.685 195.69C191.326 196.327 190.718 196.528 189.799 196.419L189.736 196.388C189.409 196.341 189.082 196.294 188.832 196.169C187.664 195.469 187.65 194.024 187.526 192.874C187.542 192.61 187.479 192.423 187.464 192.221C187.003 185.072 175.884 171.98 169.235 164.189C166.245 160.675 164.018 158.047 163.863 157.27C163.801 157.239 163.832 157.177 163.785 157.037ZM191.124 195.41C191.124 195.41 191.156 195.347 191.187 195.285C191.765 193.592 189.852 188.633 189.168 187.048C186.958 181.98 184.747 179.554 178.191 172.199C175.201 168.84 171.027 164.268 165.593 157.939C165.312 157.566 164.814 157.162 164.502 157.317C165.389 158.576 167.601 161.158 170.435 164.516C175.496 170.503 182.55 178.729 185.273 183.781C186.643 186.175 187.498 188.429 188.151 190.854C188.384 191.554 188.399 192.222 188.43 192.937C188.476 194.009 188.584 194.957 189.114 195.455C189.456 195.704 189.846 195.782 190.423 195.798C190.688 195.813 190.922 195.736 191.124 195.41Z" fill="#5DA65B"/>
<path d="M162.834 157.922C162.943 157.627 163.115 157.518 163.302 157.456C163.395 157.425 163.598 157.41 163.816 157.596C166.339 160.489 169.033 163.738 171.866 167.719C174.17 170.891 176.287 174.28 178.264 177.716C182.56 185.302 182.948 186.623 182.464 188.441L182.308 188.597C182.308 188.597 181.232 189.264 180.141 188.642C180.016 188.579 179.674 188.33 179.471 188.19C178.801 187.584 178.599 186.667 178.366 185.657C178.258 185.175 178.056 184.569 177.807 183.978C174.588 174.325 167.348 165.074 164.28 161.171C163.424 160.005 162.91 159.398 162.77 159.134C162.661 158.808 162.677 158.388 162.818 158.031C162.802 157.984 162.834 157.922 162.834 157.922ZM181.95 188.146C182.106 187.369 182.013 186.467 181.609 185.41C176.818 173.69 164.781 159.71 163.457 158.078C163.3 158.855 163.394 158.979 163.908 159.586C164.063 159.741 164.25 159.99 164.406 160.145C176.536 175.648 178.245 181.865 179.177 185.284C179.379 186.046 179.519 186.621 179.768 187.056C180.219 187.942 180.983 188.363 181.95 188.146Z" fill="#5DA65B"/>
<path d="M161.352 159.086C161.555 158.604 161.836 158.356 162.194 158.496C162.864 158.792 163.58 159.849 164 160.642L164.218 160.984C168.873 168.089 171.922 174.898 173.537 181.768C173.926 183.4 173.893 184.86 173.581 185.948C173.518 186.072 173.471 186.243 173.409 186.368C173.05 187.16 172.55 187.532 172.55 187.532C172.207 187.75 171.786 187.734 171.413 187.547C170.711 187.158 170.291 186.21 170.292 185.433C170.292 185.277 170.246 184.982 170.23 184.625C169.937 181.252 169.182 170.887 162.207 161.495L162.051 161.34C161.646 160.904 161.164 160.236 161.148 159.723C161.211 159.599 161.196 159.397 161.227 159.335C161.289 159.21 161.32 159.148 161.352 159.086ZM172.848 185.932C172.91 185.808 172.926 185.699 172.989 185.575C173.348 184.627 173.318 183.291 172.93 181.814C170.585 171.198 163.159 160.144 162.193 159.273L162.069 159.211C162.069 159.211 162.037 159.273 162.006 159.335C161.975 159.397 161.975 159.397 161.944 159.459C161.912 159.522 161.881 159.584 161.928 159.724C161.897 159.786 162.005 160.112 162.753 160.952L162.846 161.076C166.505 165.819 169.119 171.788 170.392 178.253C170.92 180.771 171.058 182.745 171.228 184.19C171.414 186.148 171.475 187.112 172.192 187.081L172.286 187.05C172.458 186.631 172.707 186.289 172.848 185.932Z" fill="#5DA65B"/>
<path d="M159.529 157.982C160.794 155.543 165.1 150.853 168.296 149.846C169.185 149.551 170.027 149.583 170.697 149.878C171.647 150.392 171.818 151.216 171.552 151.821C171.521 151.884 171.521 151.884 171.49 151.946C171.318 152.365 170.913 152.707 170.492 152.846C170.336 152.846 170.164 152.955 170.008 152.955C169.852 152.955 169.618 153.032 169.525 153.063C169.026 153.28 168.651 153.715 168.183 154.181C167.871 154.492 167.622 154.678 167.31 154.989C166.234 155.811 165.391 156.557 164.658 157.162C160.93 160.314 160.025 161.028 158.825 160.235C158.701 160.173 158.685 159.971 158.857 159.396C158.936 159.007 159.185 158.51 159.326 158.153C159.482 158.153 159.529 157.982 159.529 157.982ZM170.82 151.495C170.883 151.37 170.867 151.168 170.836 151.075C170.618 150.578 169.964 150.328 169.403 150.359C167.657 150.42 165.956 152.019 164.505 153.277L164.225 153.526C162.509 155.078 160.761 156.693 159.606 159.303C159.528 159.536 159.403 159.785 159.278 160.033C159.667 160.111 160.088 159.972 160.587 159.599C160.743 159.444 161.523 158.823 162.397 158.015C164.675 155.966 168.184 152.938 169.12 152.472C169.385 152.333 169.603 152.364 169.822 152.24C170.212 152.162 170.508 152.116 170.648 151.759C170.68 151.697 170.68 151.697 170.711 151.634L170.82 151.495Z" fill="#5DA65B"/>
<path d="M155.898 156.907C157.288 153.753 164.23 147.775 166.911 147.094C167.395 146.985 168.221 146.815 168.735 147.266C169.046 147.577 169.046 147.732 169.124 148.121C169.124 148.276 169.139 148.478 169.046 148.665C169.014 148.727 168.983 148.789 168.983 148.789C168.514 149.876 166.845 151.258 166.284 151.289C166.128 151.289 166.05 151.211 165.988 151.18L165.988 151.025C166.019 150.962 166.051 150.9 166.113 150.931C166.612 150.714 167.033 150.419 167.376 150.047C167.72 149.674 168.188 149.208 168.36 148.789C168.391 148.726 168.391 148.726 168.422 148.664C168.484 148.54 168.438 148.4 168.469 148.338C168.438 148.245 168.423 148.043 168.423 148.043C168.283 147.623 167.628 147.685 167.16 147.84C164.852 148.553 157.692 154.655 156.552 157.311C156.521 157.373 156.49 157.436 156.474 157.544C156.396 157.777 156.396 157.933 156.427 158.026C156.458 158.119 156.427 158.181 156.505 158.259C156.878 158.601 158.219 158.416 158.967 158.323L159.264 158.277L159.981 157.469C160.075 157.438 160.215 157.392 160.278 157.423C160.402 157.485 160.433 157.578 160.386 157.749L159.528 158.759C159.403 158.852 157.595 159.192 156.847 159.13C156.364 159.083 156.021 158.834 155.787 158.601C155.569 158.259 155.554 157.901 155.742 157.373C155.757 157.109 155.867 156.969 155.898 156.907Z" fill="#5DA65B"/>
<path d="M155.668 152.788C155.73 152.664 155.777 152.493 155.839 152.369C156.464 151.126 158.086 149.76 159.319 148.782C159.755 148.378 160.161 148.036 160.442 147.788C160.598 147.633 160.754 147.477 160.91 147.322C161.425 146.685 162.064 146.111 162.922 145.723C163.982 145.32 164.886 145.382 165.478 145.911C165.945 146.378 166.148 146.984 165.96 147.512C165.929 147.574 165.929 147.574 165.898 147.636C165.866 147.699 165.835 147.761 165.788 147.932C165.726 148.056 165.663 148.025 165.632 148.087C165.601 148.149 165.398 148.164 165.336 148.133C165.211 148.071 165.18 147.978 165.227 147.807C165.258 147.745 165.258 147.745 165.258 147.745C165.29 147.683 165.321 147.621 165.337 147.512C165.399 147.387 165.415 147.279 165.384 147.185C165.368 146.673 164.932 146.299 164.34 146.237C163.233 146.189 162.453 146.966 161.47 148.068C161.002 148.534 160.519 149.109 159.817 149.652C159.723 149.683 159.411 149.994 159.411 149.994C158.475 150.77 156.822 152.199 156.15 153.612C156.088 153.737 156.072 153.845 156.041 153.907C155.713 154.793 155.915 155.555 156.6 156.208C156.662 156.239 156.693 156.332 156.646 156.503C156.615 156.565 156.584 156.627 156.49 156.658C156.397 156.689 156.335 156.658 156.225 156.643C155.213 155.943 154.949 154.684 155.418 153.285C155.496 153.052 155.558 152.928 155.668 152.788Z" fill="#5DA65B"/>
<path d="M108.603 157.774L109.492 157.324C111.317 156.253 113.142 155.493 115.309 154.671C116.463 154.236 117.539 153.88 118.63 153.57C122.84 152.174 126.099 151.042 129.375 147.937C129.5 147.843 129.702 147.828 129.827 147.89C129.952 147.953 130.076 148.17 129.967 148.31C129.936 148.372 129.905 148.434 129.905 148.434C126.597 151.602 122.995 152.796 118.879 154.16C115.979 155.122 113.001 156.005 109.71 157.821L108.821 158.271L108.665 158.271C108.603 158.24 108.541 158.209 108.541 158.209L108.541 158.053L108.572 157.991L108.603 157.774Z" fill="#5DA65B"/>
<path d="M103.645 160.038C103.676 159.976 103.723 159.805 103.816 159.774C105.984 158.33 107.155 155.923 108.186 153.561C108.686 152.412 109.217 151.2 109.919 150.19C111.48 147.705 113.227 146.246 115.098 145.781C118.045 145.115 121.067 147.013 123.202 148.429L123.841 148.786C124.931 149.409 125.912 150.326 125.693 151.383C125.662 151.445 125.662 151.445 125.631 151.507C124.99 153.014 120.934 157.673 115.804 159.425C113.995 160.077 112.218 160.355 109.989 160.369C109.63 160.384 109.272 160.4 109.053 160.368L108.695 160.384C107.136 160.383 105.64 160.413 104.268 160.66C104.174 160.691 104.003 160.644 103.878 160.582C103.753 160.52 103.722 160.427 103.66 160.24C103.629 160.302 103.582 160.162 103.645 160.038ZM125.007 151.351C125.164 150.575 123.871 149.812 123.419 149.548L122.656 149.127C120.241 147.649 118.106 146.389 115.534 146.776C112.104 147.55 110.386 151.279 109.043 154.261C108.043 156.56 107.075 158.331 105.609 159.698C106.357 159.605 107.137 159.606 107.994 159.529L108.056 159.56C112.359 159.532 117.222 159.473 122.527 154.193C122.87 153.821 124.492 152.144 124.742 151.491L125.007 151.351Z" fill="#5DA65B"/>
<path d="M113.086 38.3209C113.118 38.2587 113.149 38.1966 113.211 38.2277L113.336 38.29C113.943 38.71 114.219 44.6776 114.188 44.7397C114.187 45.5167 114.217 46.387 114.185 47.2261C114.152 49.7746 114.227 52.805 114.755 55.012C115.004 56.0689 115.424 57.0172 115.813 57.8721C115.844 57.9654 115.891 58.1053 115.86 58.1674C115.797 58.2917 115.688 58.4315 115.485 58.4469C115.329 58.4468 115.158 58.4 115.142 58.198C114.365 56.488 114.085 55.3379 113.79 53.6749C113.511 51.5923 113.513 49.4167 113.531 47.2878C113.58 44.4751 113.66 41.6002 112.93 38.4762L113.086 38.3209Z" fill="#5DA65B"/>
<path d="M112.217 33.8448C112.295 33.6118 112.529 33.5342 112.685 33.5343C112.95 33.5501 113.106 33.7056 113.184 33.9387C113.727 36.037 115.409 37.6544 117.06 39.1786C117.87 39.894 118.634 40.6249 119.319 41.4335C121.296 43.7815 121.934 45.8488 121.199 47.8529C121.137 47.9772 121.09 48.1481 120.996 48.3345C120.169 50.2142 118.297 51.7668 116.596 53.0554C115.661 53.8317 114.678 54.4681 113.806 53.877C113.276 53.5347 109.975 48.7771 109.98 43.6489C109.951 41.2246 110.607 39.2981 111.154 37.5115C111.529 36.2996 111.936 35.181 112.108 33.9846L112.217 33.8448ZM120.139 48.2562C120.202 48.1319 120.248 47.961 120.311 47.8367C120.889 46.1433 120.361 44.247 118.523 42.1633C117.978 41.4636 117.246 40.8259 116.498 40.1416C115.081 38.8508 113.71 37.5444 112.792 35.881C112.776 36.3005 112.636 36.6578 112.511 37.0618L112.073 38.3979C110.948 41.7226 110.072 45.4827 112.624 50.7992C112.981 51.5609 113.433 52.2916 113.806 52.9446C114.118 53.411 114.414 53.52 114.757 53.4581C115.552 53.1945 118.001 51.0362 118.547 50.4927C119.312 49.6697 119.796 48.9397 120.139 48.2562Z" fill="#5DA65B"/>
<path d="M154.777 118.491C157.058 113.333 160.226 108.813 163.97 105.397C164.063 105.366 164.157 105.335 164.266 105.351C164.328 105.382 164.36 105.475 164.375 105.677L164.312 105.802C160.756 109 157.822 113.132 155.651 117.994C155.057 119.33 154.542 120.744 154.088 122.189C153.651 123.525 153.197 124.97 152.916 126.461C152.806 126.757 152.604 126.772 152.479 126.71C152.354 126.648 152.136 126.461 152.23 126.275C152.543 125.032 152.871 123.835 153.246 122.623C153.699 121.178 154.231 119.811 154.777 118.491Z" fill="#5DA65B"/>
<path d="M156.487 106.48C158.564 101.804 163.211 99.849 170.961 96.4514C171.195 96.3739 171.413 96.4051 171.506 96.5295C171.662 96.685 171.787 96.9027 171.646 97.1046C171.584 97.2289 171.475 97.3687 171.334 97.4152L171.209 97.5083C170.539 97.8342 170.414 97.9273 169.774 98.6572C169.493 99.0611 169.259 99.4494 168.963 100.117C168.853 100.413 168.681 100.677 168.603 101.065C168.525 101.298 168.462 101.578 168.306 101.888C168.041 102.65 167.915 103.364 167.775 104.033C167.649 104.747 167.446 105.54 167.196 106.348L167.008 107.031C166.946 107.156 166.93 107.264 166.836 107.451L166.696 107.808L166.555 108.165C166.414 108.523 166.352 108.647 165.931 109.253C165.072 110.573 164.042 111.846 162.872 112.856C162.311 113.353 161.936 113.632 161.297 114.051C161.032 114.191 160.735 114.393 160.408 114.501L160.221 114.563C156.088 116.503 155.854 117.046 155.854 117.046L155.823 117.108L155.792 117.171L155.075 117.201L155.044 117.108C154.829 112.725 155.034 109.758 155.847 107.365C156.159 107.21 156.346 106.837 156.487 106.48ZM168.59 98.6874C164.192 100.456 159.639 102.379 157.219 106.962C157.157 107.086 157.11 107.257 157.047 107.381C156.938 107.677 156.766 107.941 156.688 108.329C155.813 110.846 155.888 113.876 156.011 116.425C156.073 116.301 156.167 116.27 156.291 116.176C157.056 115.664 157.82 115.307 158.6 114.842C160.783 113.755 163.044 112.592 165.245 108.91C165.495 108.569 165.635 108.211 165.776 107.854C165.917 107.497 166.104 107.124 166.182 106.735C166.557 105.679 166.745 104.685 166.996 103.566C167.168 102.525 167.403 101.515 167.7 100.536C167.809 100.241 167.887 99.8524 168.059 99.5884C168.199 99.3865 168.387 99.0136 168.59 98.6874Z" fill="#5DA65B"/>
<path d="M115.428 88.8117C115.709 88.2524 121.433 84.698 124.551 84.0787C125.471 83.8773 126.344 83.8469 127.138 84.0495C128.978 84.4238 130.302 85.4349 131.548 86.5236L132.046 86.928C132.545 87.3324 132.981 87.7057 133.464 88.0634C135.302 89.3701 137.405 90.3818 139.384 91.3312C139.618 91.409 139.696 91.6422 139.664 91.8597C139.602 91.984 139.493 92.1238 139.29 92.1392C137.918 92.3868 136.702 92.6346 135.626 92.8358L135.392 92.9133C129 94.1518 129 94.1518 121.115 91.3799C119.604 90.8971 117.858 90.181 115.723 89.5422C115.427 89.4333 115.318 89.1068 115.428 88.8117ZM137.841 91.5321C133.93 89.4624 132.7 88.4203 131.594 87.4405C130.893 86.896 130.363 86.3984 129.195 85.6982C128.307 85.2158 127.605 84.9822 127.06 84.9041C124.8 84.514 121.401 85.8479 117.065 88.8906C119.028 89.4825 120.742 90.1054 122.114 90.4793L122.347 90.5572C129.375 92.94 129.375 92.94 135.284 91.9653L135.44 91.9654C136.079 91.8571 136.921 91.7334 137.841 91.5321Z" fill="#5DA65B"/>
<path d="M102.046 97.5974C102.077 97.5353 102.108 97.4732 102.171 97.5043C102.295 97.4112 102.436 97.3646 102.56 97.4269C102.685 97.4891 102.856 97.5359 102.903 97.6758C105.114 100.257 107.561 101.518 109.913 102.809C112.656 104.179 115.133 105.532 117.125 108.704C117.888 110.057 118.214 111.657 118.478 113.227C118.757 114.377 118.896 115.574 119.379 116.709C119.41 116.802 119.456 116.942 119.425 117.004C119.363 117.128 119.254 117.268 119.113 117.315C118.973 117.361 118.817 117.361 118.724 117.237C118.085 116.723 117.321 116.303 116.309 115.914C116.246 115.883 116.184 115.852 115.981 115.867C108.844 113.935 104.435 111.15 103.315 107.793C103.175 107.373 103.051 106.844 103.005 106.394C102.943 105.43 102.96 104.389 103.054 103.426C103.117 102.524 103.149 101.685 103.087 100.877C103.088 100.722 103.041 100.426 103.026 100.224C102.902 99.5406 102.715 99.1364 102.341 98.6388L102.201 98.3746L102.295 98.3436C101.983 97.8771 101.983 97.7217 102.046 97.5974ZM118.07 115.589C117.744 114.61 117.604 113.724 117.402 112.807C116.75 109.605 116.223 107.087 110.208 104.006L109.57 103.648C108.806 103.228 108.011 102.87 107.279 102.388C105.986 101.625 104.709 100.754 103.712 99.9452C103.96 101.002 103.897 102.059 103.787 103.131C103.724 104.032 103.676 104.98 103.707 105.85C103.722 106.363 103.924 107.125 104.173 107.716C105.355 110.483 110.388 113.112 113.504 114.047C113.894 114.125 114.268 114.312 114.595 114.359C115.858 114.717 116.995 115.013 118.07 115.589Z" fill="#5DA65B"/>
<path d="M92.7339 122.797C92.812 122.564 93.0459 122.486 93.1706 122.548C96.8799 123.235 99.4989 122.988 101.572 122.819C103.022 122.649 104.285 122.541 105.547 122.744C108.119 123.134 109.817 124.177 111.749 125.452C113.868 126.821 116.314 128.393 120.475 129.188C120.599 129.251 120.771 129.297 120.818 129.437C120.911 129.562 120.926 129.764 120.864 129.888C120.801 130.012 120.692 130.152 120.552 130.198C119.273 130.571 118.4 131.378 117.37 132.341C116.372 133.241 115.249 134.235 113.658 134.918C108.73 136.965 102.653 134.785 99.2887 131.706C97.7779 130.291 96.8752 128.674 96.1282 127.212C95.2879 125.627 94.5564 124.212 92.9983 123.434C92.749 123.309 92.6713 123.076 92.7339 122.797ZM118.806 129.793C115.331 128.874 113.244 127.443 111.312 126.167C108.944 124.518 106.778 123.164 102.85 123.379C102.491 123.394 102.039 123.441 101.587 123.487C99.888 123.688 97.612 123.872 94.6038 123.575C95.5384 124.353 96.1765 125.488 96.7991 126.576C98.2776 129.296 100.021 132.343 106.13 133.995C107.236 134.198 108.187 134.401 109.169 134.386C110.135 134.48 112.365 134.155 113.987 133.255C114.969 132.774 115.749 131.998 116.529 131.377C117.34 130.849 117.98 130.274 118.806 129.793Z" fill="#5DA65B"/>
<path d="M102.815 127.637L102.909 127.606L103.065 127.606L103.189 127.668C105.402 128.54 107.63 129.459 109.984 129.973C113.334 130.675 115.891 130.242 118.401 129.824C120.615 129.453 122.875 129.066 125.728 129.519C125.79 129.55 125.961 129.597 125.993 129.69C126.024 129.783 126.07 129.923 126.008 130.047C125.945 130.172 125.836 130.311 125.571 130.296C122.376 129.749 120.381 130.152 118.416 130.492C115.142 131.112 111.775 131.762 102.877 128.134C102.799 127.901 102.768 127.808 102.815 127.637Z" fill="#5DA65B"/>
<path d="M108.49 107.89L108.615 107.797L108.771 107.797C113.865 111.235 117.323 114.283 120.765 118.373L120.796 118.466L120.297 118.683C118.226 116.211 115.562 113.676 114.114 112.447C112.946 111.436 111.902 110.643 110.796 109.818C110.126 109.367 110.033 109.243 109.222 108.683L108.49 108.201C108.459 108.107 108.428 108.014 108.49 107.89Z" fill="#5DA65B"/>
<path d="M126.821 126.878C127.708 128.292 128.253 129.303 128.642 130.158L128.891 130.593C128.922 130.686 128.953 130.78 128.938 130.888C128.875 131.013 128.766 131.152 128.563 131.168C128.407 131.168 128.236 131.121 128.221 130.919L127.894 130.25C127.505 129.396 126.929 128.292 126.104 126.908L125.964 126.644L126.821 126.878Z" fill="#5DA65B"/>
<path d="M126.075 88.1824C126.137 88.0582 126.231 88.0271 126.402 88.0739L127.197 88.4319C131.872 90.3001 137.046 91.0188 142.05 91.6906L142.315 91.7064C143.515 91.8782 144.232 91.8476 144.902 91.6772C145.198 91.6308 145.23 91.5687 145.261 91.6619C145.354 91.6309 145.417 91.662 145.526 91.6777C145.619 91.802 145.666 91.9419 145.603 92.0662C145.541 92.1905 145.447 92.2215 145.322 92.3146C144.995 92.4232 144.746 92.4541 144.465 92.5471C143.919 92.6244 143.078 92.5927 142.158 92.4833L141.675 92.4363C139.929 92.1864 137.732 91.8273 135.612 91.3907C133.103 90.876 131.17 90.3773 129.144 89.7542C125.934 88.5397 125.997 88.4155 126.075 88.1824Z" fill="#5DA65B"/>
<path d="M85.6577 85.6821C85.6889 85.6199 85.7202 85.5578 85.7825 85.5889C89.1813 84.8766 92.7659 85.5008 99.9029 88.21C104.188 89.8448 108.302 91.7437 111.963 93.3781L113.179 93.9074C113.413 93.9852 113.428 94.1873 113.428 94.3427C113.365 94.4669 113.35 94.5757 113.256 94.6067C113.163 94.6377 113.1 94.6066 112.929 94.5598C112.259 94.2641 111.589 93.9683 110.888 93.5793L110.467 93.4081C102.271 89.5482 92.1119 84.7855 85.9847 86.0397C85.8912 86.0707 85.8289 86.0396 85.751 85.9618C85.5485 85.8218 85.6265 85.7442 85.6577 85.6821Z" fill="#5DA65B"/>
<path d="M81.6045 86.1451L81.6357 86.0829C82.6189 84.8249 83.6173 83.9243 84.8648 83.3037C87.1105 82.0932 93.3474 80.0776 96.9322 80.5464C102.684 81.281 105.577 87.6234 107.351 91.3854C107.382 91.4787 107.429 91.6185 107.366 91.7428C107.304 91.8671 107.21 91.8981 107.195 92.0069L105.215 92.6115C100.038 94.2238 99.3676 94.3943 94.1483 91.3602L93.2291 90.7845C89.7704 88.6685 86.1871 86.4903 82.2274 86.9225C82.0715 86.9224 81.9001 86.8757 81.8066 86.7513C81.5886 86.5646 81.5732 86.3626 81.6045 86.1451ZM106.307 91.2137C104.347 86.7367 101.794 82.0418 96.7914 81.2145C94.017 80.8395 86.5491 82.4346 83.1948 85.7733C85.7045 85.6663 88.5407 86.6941 91.797 88.5146C92.7161 89.0903 93.651 89.5572 94.2741 90.0238C99.3531 93.1045 99.3531 93.1045 104.841 91.4923L106.307 91.2137Z" fill="#5DA65B"/>
<path d="M103.243 65.5086C103.414 65.0892 103.664 64.5921 103.945 64.1883C104.008 64.064 104.101 64.033 104.273 64.0797C104.397 64.142 104.428 64.2352 104.381 64.4061C104.35 64.4683 104.35 64.4683 104.303 64.6392C104.194 64.9344 103.944 65.2761 103.819 65.5246C103.679 65.8819 103.491 66.2548 103.444 66.5811C102.694 68.8493 102.676 71.2891 103.376 73.5429C103.516 74.118 103.749 74.6621 103.827 75.0506C104.464 76.9625 104.558 77.2423 104.337 80.1636C104.274 80.9095 104.226 82.0128 104.568 82.7279C104.646 82.9611 104.677 83.0543 104.677 83.2097C104.646 83.2719 104.521 83.365 104.505 83.4738C104.412 83.5048 104.349 83.4737 104.24 83.458C104.178 83.4269 104.116 83.3958 104.085 83.3025C103.618 82.059 103.697 80.8935 103.838 79.7592C103.933 78.9512 103.996 78.05 103.872 77.2107C103.794 76.6667 103.53 76.0294 103.297 75.3299C102.659 73.2627 101.695 70.3715 102.945 66.7982C102.899 66.1921 103.055 65.8815 103.243 65.5086Z" fill="#5DA65B"/>
<path d="M98.5685 63.0185C99.4899 60.9524 100.801 58.9642 102.533 57.1473L102.626 57.1163C102.689 57.1475 102.72 57.2407 102.782 57.2718C102.876 57.3962 103.094 57.5829 103.218 57.6451L103.281 57.6762L103.218 57.8005C101.018 60.0833 99.9255 61.9473 99.0041 64.0134C98.8164 64.697 98.6447 64.9611 98.5666 65.1941C98.5041 65.3184 98.4885 65.4272 98.5196 65.5204C98.4571 65.6447 98.4725 65.8467 98.3632 66.1419C97.0789 73.1961 99.4161 74.2856 101.675 75.2974C102.595 75.7176 103.499 76.0913 104.137 76.9154C104.449 76.6048 104.683 76.2165 104.933 75.7194C104.995 75.5951 105.042 75.4242 105.105 75.2999C105.761 73.218 105.499 69.9389 105.159 66.4266C104.928 63.8624 104.681 61.0961 104.87 58.8585L104.901 58.7963L105.057 58.7964C105.353 58.9054 105.54 58.9988 105.883 59.0923L105.945 59.1234C105.756 61.6718 105.988 63.9253 106.173 66.1943C106.404 68.6031 106.605 71.0741 106.353 73.7468C106.259 74.3994 106.181 74.9433 105.993 75.4715C105.915 75.7045 105.821 75.891 105.712 76.0307C105.181 77.2425 104.463 77.8946 103.949 77.9098C103.793 77.9097 103.622 77.8629 103.528 77.7385C102.937 76.8989 102.142 76.5409 101.192 76.0274C100.709 75.825 100.101 75.5604 99.6024 75.156C97.4058 73.7092 96.1467 69.6213 97.741 64.5875C98.1311 64.0439 98.3187 63.5156 98.5685 63.0185Z" fill="#5DA65B"/>
<path d="M61.1963 108.601C61.2275 108.539 61.3211 108.508 61.4614 108.462C63.3475 108.51 65.0309 108.573 66.5272 108.698C70.4864 108.888 73.822 109.077 78.1715 108.567C82.3183 108.073 83.1913 108.042 85.732 108.184C85.9969 108.2 86.1528 108.2 86.2462 108.324C86.2773 108.418 86.3396 108.449 86.2927 108.62L86.2147 108.697C86.1523 108.822 86.043 108.961 85.8404 108.977C85.8404 108.977 85.0922 108.914 84.7649 108.867C82.8477 108.726 80.8523 108.973 78.7166 109.111C77.1109 109.281 75.3338 109.404 73.5723 109.418C71.0783 109.417 69.0675 109.306 65.1396 109.055L61.274 108.834L61.1494 108.772C61.1961 108.757 61.2274 108.695 61.1963 108.601Z" fill="#5DA65B"/>
<path d="M49.5358 109.308C49.5983 109.183 49.6918 109.152 49.8166 109.059C53.8085 107.477 56.5843 106.143 58.8455 104.979C64.5531 102.155 65.9253 101.596 70.2402 105.034C72.016 106.465 73.5894 107.6 75.3967 108.658C75.6304 108.736 75.6769 109.031 75.6145 109.156C75.552 109.28 75.5051 109.451 75.4739 109.513C74.1932 112.371 71.6973 114.545 68.844 115.336C67.8617 115.661 66.8172 115.8 65.9755 115.769C65.6169 115.784 65.3987 115.753 65.0714 115.706L64.8065 115.69C64.7441 115.659 64.4168 115.612 64.1518 115.596C62.9517 115.425 61.4401 114.942 59.6484 113.93C58.8226 113.479 58.0592 113.059 57.2957 112.639C55.4417 111.596 53.7435 110.554 51.6551 110.055C51.2032 109.946 50.7823 109.93 50.455 109.883C49.7381 109.758 49.4108 109.711 49.4267 109.292L49.5358 109.308ZM74.4609 109.279C72.1707 107.863 70.7999 106.712 69.694 105.733C68.2765 104.597 67.4198 103.897 66.0484 103.523C65.3937 103.43 65.082 103.429 64.3337 103.522C63.0553 103.739 61.839 104.297 59.8116 105.383C57.909 106.377 55.5075 107.587 51.5622 109.309C54.0715 109.824 56.2995 111.053 58.3405 112.189C60.3971 113.371 62.3447 114.383 64.2773 114.726C64.5423 114.742 64.8228 114.804 64.9319 114.82L65.0878 114.82C65.4151 114.867 65.7736 114.852 65.9918 114.883C66.8335 114.915 68.2834 114.745 70.1235 113.876C72.4784 112.526 73.602 111.066 74.4609 109.279Z" fill="#5DA65B"/>
<path d="M143.033 53.3546C143.065 53.2924 143.189 53.1993 143.299 53.2149C143.423 53.2771 143.454 53.3704 143.439 53.4792L143.047 56.043C142.953 56.6956 142.812 57.3637 142.78 58.0474C142.122 62.3049 141.526 65.9719 143.58 69.7962C143.612 69.8895 143.658 70.0294 143.627 70.0915C143.564 70.2158 143.455 70.3556 143.253 70.371C143.097 70.3709 142.925 70.3241 142.894 70.2309C140.637 66.4219 141.436 61.8071 142.47 56.027C142.72 55.0637 142.877 54.2868 143.033 53.3546Z" fill="#5DA65B"/>
<path d="M139.7 50.8346C140.528 48.9548 141.62 47.2462 142.65 45.5065C143.166 44.7144 143.618 43.8911 144.102 43.161C144.243 42.8037 144.539 42.7573 144.773 42.8352C145.006 42.9131 145.147 43.1773 145.099 43.5036L145.068 43.5658C145.006 43.6901 144.928 43.9231 144.865 44.0474C144.803 44.1717 144.725 44.4047 144.662 44.529C143.849 46.9215 144.549 49.6415 145.217 51.9575C145.357 52.5326 145.559 53.1388 145.668 53.6206C146.227 55.9209 146.163 57.7546 145.647 59.3237C145.569 59.5568 145.475 59.7432 145.35 59.9917C144.757 61.3277 143.867 62.3993 142.838 63.5175L142.323 64.1542C142.26 64.2785 142.058 64.2939 141.933 64.2316C141.808 64.1694 141.668 64.0605 141.715 63.8896C141.575 63.6253 140.921 62.7546 140.267 61.7285L140.236 61.6352C139.567 60.5625 138.96 59.6762 138.819 59.5674C138.601 59.2253 138.197 57.8575 138.323 56.2104C138.402 55.0449 138.606 53.7863 139.059 52.3415C139.122 52.2172 139.2 51.9841 139.2 51.8287C139.341 51.6268 139.481 51.2695 139.7 50.8346ZM144.399 60.0998C144.462 59.9755 144.54 59.7425 144.602 59.6182C144.79 58.9346 144.978 58.251 145.025 57.3031C144.995 55.6558 144.545 53.8373 144.094 52.1742C143.55 50.2313 143.053 48.2729 143.18 46.4704C142.024 48.4586 141.103 50.214 140.432 51.783C140.104 52.5132 139.838 53.119 139.635 53.756C138.744 56.3816 138.758 58.4484 139.63 59.8166C139.879 60.2519 140.392 61.0137 140.844 61.7444C141.358 62.5063 141.887 63.3147 142.12 63.7034C143.088 62.088 143.931 61.1873 144.399 60.0998Z" fill="#5DA65B"/>
<path d="M126.784 61.0194C126.815 60.9573 126.909 60.9263 126.94 60.8641C127.034 60.8331 127.096 60.8643 127.174 60.942C129.556 63.8808 132.157 66.3847 134.962 68.4069C135.086 68.4692 135.211 68.6868 135.101 68.8266C135.039 68.9509 134.945 68.9819 134.821 69.075C134.727 69.106 134.556 69.0593 134.493 69.0282C131.518 66.8038 128.777 64.0356 126.768 61.2836L126.784 61.0194Z" fill="#5DA65B"/>
<path d="M139.495 71.7199L139.588 71.6889L139.744 71.689C140.103 71.8292 140.835 72.156 140.835 72.156C142.05 72.6853 142.938 73.1677 143.671 73.65C143.795 73.7122 143.92 73.9299 143.811 74.0696C143.748 74.1939 143.654 74.2249 143.53 74.3181C143.436 74.3491 143.265 74.3023 143.202 74.2712C142.034 73.4157 141.909 73.3534 141.146 72.9333C140.788 72.7931 140.258 72.4509 139.494 72.0307C139.526 71.9686 139.385 71.8597 139.495 71.7199Z" fill="#5DA65B"/>
<path d="M118.076 55.1543C118.154 54.9213 118.419 54.7816 118.637 54.8128C129.625 55.9864 130.839 58.6912 132.457 62.6085C132.923 63.6966 133.39 64.7848 134.153 65.9819C134.853 67.1479 135.32 67.7699 135.632 68.0809C135.881 68.3608 135.975 68.4852 135.912 68.6095C135.881 68.6716 135.834 68.8425 135.74 68.8735L134.882 69.883C134.757 69.9761 134.617 70.0226 134.492 69.9604C132.56 69.3063 130.675 68.6367 129.038 68.0916C126.405 67.2039 124.316 66.5497 123.382 65.9274C120.78 64.3559 118.666 57.7033 118.122 55.2942C117.997 55.3873 118.013 55.2786 118.076 55.1543ZM135.008 68.5466C133.202 66.4008 132.377 64.5509 131.63 62.9342C130.028 59.3744 129.094 57.1981 119.166 55.9321C119.959 58.7765 121.84 63.9527 123.834 65.2595C124.504 65.7107 125.268 65.9754 126.141 66.2558L129.46 67.4858C133.698 68.9808 134.072 69.1675 134.586 69.3078L134.727 68.9505L135.008 68.5466Z" fill="#5DA65B"/>
<path d="M74.1918 59.7066C74.2543 59.5823 74.3012 59.4114 93.218 67.3817C93.5764 67.5218 93.5606 67.786 93.5294 67.8481C93.4669 67.9724 93.4512 68.0812 93.3577 68.1122C93.2641 68.1432 93.2018 68.1121 93.0615 68.1586C92.8745 68.0652 74.1136 60.095 74.1918 59.7066Z" fill="#5DA65B"/>
<path d="M63.7049 55.2075C63.7674 55.0832 63.8766 54.9434 64.0793 54.928L64.4378 54.9128C71.1718 54.8555 83.7044 54.8958 88.0604 65C88.0915 65.0932 88.1226 65.1865 88.0756 65.3574C88.0132 65.4817 87.9196 65.5127 87.8259 65.6991C81.9936 68.6163 76.5067 68.5191 72.8617 65.5327C71.5533 64.4129 70.4635 62.8581 69.4828 61.3189C68.0039 59.0645 66.4783 56.6703 63.8758 55.8758C63.7512 55.8136 63.6421 55.798 63.611 55.7047C63.6736 55.425 63.6425 55.3317 63.7049 55.2075ZM86.9537 64.9526C82.6746 56.1693 71.358 55.8813 65.9335 55.8152C67.7719 56.9665 68.9082 58.8166 70.0757 60.6045C71.0564 62.1437 72.0215 63.7916 73.3611 64.8493C77.9096 68.5201 83.8192 66.4576 86.9537 64.9526Z" fill="#5DA65B"/>
<path d="M89.696 48.2493C89.7272 48.1871 89.852 48.094 89.9611 48.1096C90.0858 48.1719 90.1169 48.2651 90.2103 48.3895L90.1631 48.8712C90.0848 49.2597 90.0536 49.3218 90.0689 49.6792C89.8646 51.5594 90.0501 53.3622 90.2978 55.3515C90.592 57.6361 90.8707 59.874 90.5254 62.5777L90.4942 62.6399C90.416 62.8729 90.1822 62.9504 90.0575 62.8882C89.9329 62.8259 89.6991 62.7481 89.7773 62.515C90.0446 59.7336 89.9062 57.6045 89.6897 55.5531C89.4267 53.2063 89.2259 51.0461 89.696 48.2493Z" fill="#5DA65B"/>
<path d="M85.0692 44.9671C85.5378 43.8796 86.209 42.7768 87.0049 41.7362C87.5823 40.9752 88.2377 40.1365 88.8462 39.4687C89.5951 38.599 90.2818 37.6982 90.9684 36.7974C91.1401 36.5334 91.4051 36.5491 91.5453 36.658C91.7791 36.7358 91.9503 36.938 91.8878 37.2177C91.1199 41.9257 91.9746 44.9566 92.7362 47.5524C93.187 49.0601 93.56 50.3346 93.5121 51.5933C93.5267 52.7277 93.1202 54.1571 92.7607 55.2602C92.4951 56.0215 92.2139 56.7361 91.9328 57.2953C91.8547 57.5284 91.761 57.7148 91.6518 57.8546C91.3396 58.3205 90.4501 59.5475 89.8733 59.5316C89.7174 59.5315 89.546 59.4847 89.5306 59.2827C89.0481 58.4587 88.3941 57.588 87.6779 56.6861C85.4824 53.8407 82.9912 50.5755 84.5851 46.0079C84.8037 45.573 84.9286 45.3244 85.0692 44.9671ZM91.6532 56.1452C91.8251 55.7257 92.0437 55.2907 92.1532 54.8402C92.5596 53.5662 92.8256 52.3387 92.8263 51.5617C92.8118 50.2719 92.4076 49.0595 91.91 47.5673C91.1326 45.2357 90.2775 42.671 90.6394 38.7707C90.3272 39.2367 89.9527 39.6715 89.7029 40.1686C89.1255 40.9297 88.439 41.6751 87.9239 42.4673C87.0968 43.57 86.5504 44.5797 86.113 45.605C85.9724 45.9623 85.8163 46.273 85.738 46.6614C84.4409 50.561 86.2314 52.971 88.349 55.7387C89.0029 56.6094 89.7192 57.5113 90.2794 58.5684C90.654 57.9781 91.1691 57.186 91.6532 56.1452Z" fill="#5DA65B"/>
<path d="M123.338 98.9807C123.369 98.9186 123.494 98.8254 123.603 98.841C123.665 98.8721 123.837 98.9189 123.743 99.1053C123.695 100.209 123.632 101.265 123.553 102.275C123.286 105.057 123.05 107.465 123.92 110.387C123.951 110.481 123.92 110.543 123.904 110.652C123.842 110.776 123.733 110.916 123.53 110.931C123.374 110.931 123.234 110.822 123.187 110.682C122.426 107.776 122.678 104.792 122.977 101.949C123.071 100.985 123.181 100.068 123.213 99.0738L123.338 98.9807Z" fill="#5DA65B"/>
<path d="M118.211 97.159C118.352 96.8017 118.539 96.4289 118.773 96.0405L119.476 94.8756C120.209 93.6484 120.209 93.6484 120.974 92.2038L121.739 90.9145L122.004 90.9303C122.238 91.0081 122.238 91.0081 122.363 91.0704L122.721 91.2105L122.658 91.3348C120.863 94.2084 119.63 96.4297 118.958 97.9987C118.818 98.356 118.662 98.6667 118.599 98.9464C117.927 101.137 118.628 101.992 120.387 103.998C121.166 104.931 122.163 106.051 123.299 107.59C123.846 106.736 124.454 105.602 124.923 104.514C125.204 103.955 125.392 103.427 125.564 102.852C125.673 102.557 125.751 102.168 125.845 101.827C126.69 98.5949 125.989 97.4289 125.008 95.8897C124.339 94.817 123.654 93.6976 123.188 91.6771L123.188 91.5217L123.453 91.5374C123.749 91.6464 124.123 91.8331 124.404 91.8955C124.839 93.2012 125.228 94.0562 125.555 94.7246L125.804 95.1599C126.193 95.8595 126.567 96.3571 126.753 96.9166C127.407 98.4089 127.312 100.305 126.53 102.635C126.389 103.148 126.155 103.692 125.921 104.235C125.124 106.053 124.141 107.466 123.439 108.476L123.408 108.538L123.314 108.569L122.971 108.32L122.878 108.351L122.815 108.32C122.473 107.76 121.616 106.75 120.635 105.677C119.327 104.246 117.988 102.722 117.63 101.805C117.226 100.748 117.242 99.5515 117.711 98.1532C117.93 97.7182 118.086 97.4076 118.211 97.159Z" fill="#5DA65B"/>
<path d="M133.772 92.4151C134.13 92.3999 134.348 92.4311 134.707 92.4158C140.794 102.102 156.855 131.733 158.269 136.287C159 138.479 160.307 140.842 161.257 142.754C161.708 143.64 162.237 144.448 162.517 145.132C162.657 145.397 162.766 145.568 162.875 145.894L162.953 146.127C162.984 146.22 163.031 146.36 162.999 146.422C162.937 146.547 162.828 146.686 162.625 146.702C162.469 146.702 162.298 146.655 162.204 146.531C158.266 139.861 157.753 138.322 157.131 136.768C156.835 136.037 156.54 135.307 156.011 134.032C155.591 133.084 142.348 107.231 133.616 92.7258L133.538 92.4927L133.772 92.4151Z" fill="#5DA65B"/>
<path d="M117.861 69.3112C117.892 69.2491 117.923 69.1869 118.017 69.1559C118.173 69.0006 118.5 69.0475 118.562 69.234L118.656 69.3584C121.63 73.1368 125.787 78.2836 131.251 86.7258L131.173 86.9588C130.877 86.8498 130.753 86.7876 130.644 86.6166C130.488 86.461 130.207 86.2433 129.475 85.9164C124.322 78.096 121.691 74.7219 117.86 69.7774C117.876 69.6686 117.845 69.5754 117.861 69.3112Z" fill="#5DA65B"/>
<path d="M143.224 67.4804C143.286 67.3561 143.505 67.232 143.567 67.2631C143.692 67.3253 143.863 67.3721 143.847 67.6363C143.749 72.4847 144.401 75.6864 144.96 79.0745C146.092 85.2758 147.193 91.6946 144.685 108.476C144.544 109.61 144.372 110.34 144.372 110.34C144.293 110.574 144.06 110.651 143.935 110.589C143.81 110.527 143.67 110.418 143.655 110.216C143.655 110.216 143.686 109.532 143.859 108.335C146.12 89.7202 145.158 84.3427 144.165 79.1827C143.544 76.0742 143.079 73.1213 143.161 67.6047L143.224 67.4804Z" fill="#5DA65B"/>
<path d="M65.708 82.4037C65.7392 82.3415 65.7392 82.3415 65.8328 82.3105C65.9888 82.1552 66.2538 82.1709 66.4095 82.3265L69.8515 85.7944C78.8845 94.9696 85.4102 101.61 92.5289 107.381C101.455 114.365 110.881 119.888 119.964 125.163C128.455 130.064 136.479 134.81 143.286 140.269C152.383 147.455 157.555 150.971 157.618 151.002C157.711 151.127 157.835 151.344 157.726 151.484C157.695 151.546 157.695 151.546 157.695 151.546C157.539 151.702 157.352 151.764 157.149 151.624C155.062 150.348 150.622 147.314 148.347 145.634C147.148 144.685 143.02 141.497 139.125 138.697C132.754 134.077 125.976 130.109 118.888 125.986C109.96 120.711 100.706 115.234 91.8111 108.188C84.5055 102.324 78.416 96.0571 72.0462 89.4168C71.0339 88.406 70.0839 87.4263 69.1339 86.4466C68.2617 85.5446 67.5453 84.7982 67.0781 84.3316C65.8321 83.0875 65.5206 82.7765 65.708 82.4037Z" fill="#5DA65B"/>
<path d="M67.8609 98.5207C68.2194 98.5054 68.5156 98.459 68.7807 98.3194C71.0711 99.5798 73.3614 100.84 75.5114 102.147L75.6361 102.209C80.2789 104.917 85.062 107.733 89.7366 109.757C94.4891 111.858 99.2109 113.4 101.174 113.992C101.626 114.101 102 114.288 102.063 114.319C102.296 114.397 102.312 114.599 102.312 114.754C102.234 114.987 102.14 115.018 101.937 115.034C100.348 114.784 96.1089 113.444 93.3663 112.386C91.2315 111.591 89.05 110.657 87.1334 109.739C83.4718 107.949 79.2808 105.507 75.2767 103.157C72.784 101.601 70.1665 100.139 67.7515 98.8159L67.3465 98.5359L67.8609 98.5207Z" fill="#5DA65B"/>
<path d="M49.8164 91.2968C49.8788 91.1725 49.9881 91.0327 50.2374 91.1572L50.7829 91.2353C52.7466 91.6719 54.7103 92.1084 57.7646 93.1674C57.8734 93.4938 58.0447 93.696 58.1225 93.9291L58.2002 94.1623L57.9352 94.1465C54.7719 92.9166 52.0913 92.3552 50.5328 92.0432L50.0808 91.9341C50.0185 91.903 49.9562 91.8719 49.9251 91.7786C49.8006 91.5609 49.7695 91.4677 49.8164 91.2968Z" fill="#5DA65B"/>
<path d="M83.9281 139.387C83.9906 139.263 84.2401 139.077 84.3648 139.139L87.4821 139.452C111.516 142.205 128.752 146.848 138.072 149.404C140.83 150.198 142.981 150.728 144.477 151.009C148.856 151.991 151.974 152.149 154.203 152.29L154.951 152.353C155.309 152.338 155.699 152.416 155.855 152.571C155.886 152.665 155.917 152.758 155.964 152.898C155.526 153.923 146.221 152.968 138.756 150.834L137.993 150.569C126.523 147.328 110.845 142.997 84.1771 139.823C84.1148 139.791 83.9434 139.745 83.8811 139.714C83.85 139.62 83.8189 139.527 83.7722 139.387L83.9281 139.387Z" fill="#5DA65B"/>
<path d="M78.3172 120.222C79.3776 119.819 97.1252 127.866 97.3122 127.959C97.5612 128.394 97.7013 128.659 97.8258 128.876L97.9659 129.141L97.6386 129.094C94.5067 127.646 86.3419 123.88 81.0594 121.747L78.5974 120.75C78.4727 120.688 78.3482 120.47 78.3483 120.315L78.3172 120.222Z" fill="#5DA65B"/>
<path d="M109.839 134.992C110.197 134.977 110.587 134.9 110.961 134.776C115.527 137.094 118.051 138.588 119.266 139.273L119.624 139.413L118.642 139.894L118.346 139.785C117.395 139.271 114.497 137.591 109.823 135.101L109.402 134.93L109.839 134.992Z" fill="#5DA65B"/>
<path d="M128.66 145.636C129.081 145.652 129.502 145.667 129.922 145.683C132.275 147.13 133.942 148.235 134.643 148.779C134.768 148.842 134.783 149.044 134.721 149.168C134.658 149.292 134.642 149.401 134.549 149.432C134.455 149.463 134.393 149.432 134.284 149.416C133.645 149.058 133.115 148.716 132.196 148.14C131.339 147.596 130.233 146.927 128.613 145.962L128.66 145.636Z" fill="#5DA65B"/>
<path d="M124.251 106.238C124.345 106.207 124.673 105.633 124.829 105.477L124.86 105.415L124.985 105.478C131.012 111.713 154.073 139.904 160.176 148.704C160.269 148.829 160.238 148.891 160.254 149.093C160.191 149.217 160.082 149.357 159.879 149.372C159.723 149.372 159.552 149.326 159.459 149.201L159.365 149.077C151.813 139.514 131.773 114.309 124.298 106.378L124.205 106.254L124.251 106.238Z" fill="#5DA65B"/>
<path d="M76.2922 46.2191C76.3547 46.0949 76.4639 45.9551 76.6042 45.9086C76.7601 45.9087 76.9315 45.9554 76.9626 46.0487C85.0607 54.9124 90.8522 63.2461 96.3634 71.362C102.84 80.815 108.896 89.786 118.412 99.0082C118.334 99.3967 118.318 99.8162 118.302 100.236L118.302 100.391L118.068 100.313C107.835 90.3447 101.67 81.2027 95.163 71.501C89.8231 63.5872 84.3277 55.3625 76.323 46.6232C76.3075 46.5766 76.2921 46.3745 76.2922 46.2191Z" fill="#5DA65B"/>
<path d="M88.6162 89.414C88.6474 89.3518 88.6787 89.2897 88.7722 89.2587C88.8658 89.2277 88.9281 89.2588 89.0372 89.2744C99.3359 94.923 107.143 97.3063 117.958 100.764L118.021 100.795L117.99 100.857C117.865 100.951 117.865 100.951 117.834 101.013C117.802 101.075 117.896 101.199 118.051 101.355L118.192 101.619L117.895 101.665C105.194 98.1596 95.0659 93.6456 89.8934 90.596L88.6003 89.8336C88.6783 89.7559 88.6004 89.6781 88.6162 89.414Z" fill="#5DA65B"/>
<path d="M122.601 122.01C122.71 121.715 124.113 121.561 124.644 121.437C128.416 121.222 131.454 122.701 134.446 124.195C136.892 125.455 139.338 126.716 142.393 126.998C142.456 127.029 142.627 127.075 142.689 127.107C142.721 127.2 142.767 127.34 142.705 127.464C142.627 127.697 142.533 127.728 142.33 127.743C139.4 127.368 136.798 126.108 134.18 124.8C130.55 122.949 127.044 121.159 122.913 122.321L122.757 122.321C122.694 122.29 122.632 122.259 122.663 122.197L122.601 122.01Z" fill="#5DA65B"/>
<path d="M115.916 119.255C115.979 119.131 116.088 118.991 116.228 118.945C125.459 115.937 129.48 116.779 133.949 122.547L134.26 122.858C134.976 123.76 135.381 124.196 136.004 124.973C136.097 125.097 136.144 125.237 136.082 125.362C136.05 125.424 136.019 125.486 136.019 125.486C135.894 125.579 130.593 127.285 130.453 127.331C124.699 128.927 122.208 126.128 119.638 123.252C118.579 122.101 117.489 120.857 116.134 119.908C115.9 119.83 115.807 119.55 115.916 119.255ZM134.991 125.05C134.492 124.49 133.994 123.93 133.558 123.402C130.179 119.343 127.905 116.731 117.521 119.707C118.627 120.531 119.515 121.635 120.356 122.6C122.676 125.352 124.887 127.933 130.204 126.585C131.295 126.275 132.34 125.98 133.4 125.577L133.494 125.546C134.071 125.407 134.523 125.205 134.991 125.05Z" fill="#5DA65B"/>
<path d="M133.09 105.484C133.121 105.422 133.215 105.391 133.355 105.344C133.496 105.298 133.589 105.422 133.511 105.5C134.117 107.474 134.552 109.712 135.142 112.105C135.748 114.856 136.415 117.638 137.084 119.954C137.115 120.048 137.084 120.11 137.068 120.219C137.006 120.343 136.896 120.483 136.694 120.498C136.538 120.498 136.398 120.389 136.351 120.249C135.698 117.824 135.124 115.011 134.503 112.369C133.975 110.006 133.54 107.768 133.074 105.748L133.09 105.484Z" fill="#5DA65B"/>
<path d="M129.493 101.705C130.914 98.4891 133.426 95.8957 134.487 94.8709C134.643 94.7156 134.986 94.6537 135.235 94.7782C135.531 94.8872 135.671 95.1515 135.624 95.4778C135.449 99.0052 135.789 102.828 136.691 105.688C137.779 109.263 137.294 110.77 136.778 112.495C136.497 113.52 136.153 114.515 136.121 116.131L136.089 116.193C136.027 116.317 135.933 116.348 135.824 116.333C135.762 116.301 135.591 116.255 135.575 116.053C135.466 115.726 134.797 115.12 134.189 114.7C133.815 114.358 133.441 114.015 133.286 113.86L132.663 112.927C129.362 109.102 128.474 107.998 128.523 105.807C128.523 104.874 128.665 103.895 129.055 102.886C129.242 102.513 129.336 102.015 129.493 101.705ZM135.685 115.291C135.779 114.328 135.952 113.287 136.186 112.432C136.561 111.065 136.75 109.76 136.564 108.423C136.486 107.879 136.284 107.273 136.02 106.48C135.382 104.568 134.496 101.755 134.329 96.891C132.597 98.7079 131.255 100.603 130.396 102.545C130.224 102.964 130.006 103.399 129.927 103.787C129.849 104.021 129.818 104.238 129.74 104.471C129.301 106.584 129.456 107.517 130.842 109.491C131.247 110.082 133.52 113.161 134.392 114.063L134.657 114.234C134.906 114.514 135.389 114.871 135.685 115.291Z" fill="#5DA65B"/>
<path d="M149.328 128.79C149.952 128.946 151.195 133.142 151.351 133.609C151.832 135.21 152.267 136.982 152.562 138.489C152.531 138.551 152.562 138.645 152.562 138.645C152.5 138.769 152.39 138.909 152.188 138.924C152.032 138.924 151.892 138.815 151.876 138.613C151.364 135.676 150.681 132.691 149.281 129.116L149.281 128.961L149.313 128.899L149.328 128.79Z" fill="#5DA65B"/>
<path d="M143.867 117.24C143.929 117.116 144.039 116.976 144.272 116.898C144.428 116.898 144.631 116.883 144.787 117.039C148.291 120.382 154.317 128.483 152.863 133.159L152.832 133.222C152.769 133.346 152.722 133.517 152.66 133.641C152.129 134.853 151.255 135.505 151.053 135.52L150.99 135.489L150.928 135.458C149.806 135.053 144.9 129.844 144.109 126.222C144 125.896 144.016 125.476 144 125.119L144.001 124.963C143.97 124.093 144.033 123.192 144.081 122.244C144.207 120.597 144.271 119.074 143.898 117.644C143.836 117.457 143.804 117.364 143.867 117.24ZM151.818 133.609C151.881 133.485 151.896 133.376 151.959 133.252C153.318 129.228 148.227 122.371 145.112 118.95C145.33 120.069 145.142 121.219 145.078 122.276C145.047 123.115 144.921 123.985 144.951 124.855L144.951 125.011C144.951 125.788 145.105 127.653 147.83 131.307C148.92 132.706 149.901 133.779 150.976 134.665C151.132 134.51 151.35 134.231 151.522 133.967C151.693 133.858 151.771 133.78 151.818 133.609Z" fill="#5DA65B"/>
<path d="M108.659 56.6704C109.158 56.4532 113.49 58.5388 113.552 58.5699C115.048 59.3169 116.668 60.2816 117.93 61.1061C118.055 61.1684 118.179 61.386 118.07 61.5258C118.008 61.6501 117.898 61.7899 117.789 61.7742C117.696 61.8053 117.633 61.7741 117.524 61.7585C114.954 60.1249 112.445 58.5225 108.815 56.9813C108.612 56.9967 108.581 56.9035 108.659 56.6704Z" fill="#5DA65B"/>
<path d="M96.4268 51.9216C96.505 51.6886 96.6765 51.5799 96.8947 51.6111C101.228 51.3657 105.717 52.0527 109.862 53.7341C111.607 54.4502 114.085 55.6486 114.753 58.2753C114.877 58.9592 114.83 59.5963 114.783 59.7672C114.455 60.4973 109.482 60.0741 109.404 60.1518C103.622 59.6347 101.924 57.8153 100.227 55.8405C99.3393 54.7365 98.327 53.7256 96.6755 52.8231C96.4107 52.4966 96.2707 52.2323 96.4268 51.9216ZM113.988 59.2538C114.035 58.9275 114.004 58.6788 113.895 58.3524C113.32 56.1609 111.108 55.1336 109.503 54.5264C105.919 53.2805 102.334 52.6563 98.5929 52.6536C99.6678 53.3847 100.415 54.2244 101.054 55.0485C102.626 56.9611 103.981 58.5316 109.436 59.1572C111.167 59.3605 112.616 59.346 113.988 59.2538Z" fill="#5DA65B"/>
<path d="M164.074 129.236C164.137 129.112 164.23 129.081 164.402 129.128C164.526 129.19 164.557 129.283 164.51 129.454C164.042 130.541 163.651 131.551 163.385 132.623C162.713 134.814 162.103 137.036 161.368 140.128L160.868 142.054C160.758 142.349 160.556 142.365 160.431 142.303C160.306 142.24 160.088 142.054 160.182 141.867C160.635 140.112 161.558 136.647 162.59 133.509C163.105 131.939 163.574 130.697 164.043 129.609L164.074 129.236Z" fill="#5DA65B"/>
<path d="M158.915 128.253C158.978 128.129 159.056 127.896 159.118 127.771C161.039 124.339 167.916 121.282 170.348 120.631C170.504 120.631 170.706 120.616 170.8 120.74C170.893 120.865 171.018 121.082 170.908 121.222L170.846 121.346C170.112 122.418 169.41 123.428 168.848 124.702C168.77 124.935 168.676 125.121 168.551 125.37L168.52 125.432C168.363 126.053 168.176 126.582 168.113 127.483C168.066 127.809 168.081 128.167 168.018 128.446C167.94 129.612 167.876 130.513 167.251 132.377L167.111 132.735C167.033 132.968 166.939 133.154 166.83 133.294C166.47 134.086 166.236 134.474 165.643 135.344C164.332 137.177 161.727 139.335 160.776 139.288C160.621 139.288 160.48 139.179 160.434 139.039C158.675 135.79 157.228 132.23 158.369 128.797C158.697 128.688 158.79 128.502 158.915 128.253ZM169.333 121.951C166.589 123.068 161.614 125.598 160.147 128.207C160.084 128.332 160.006 128.565 159.944 128.689C159.866 128.922 159.803 129.046 159.663 129.248C159.553 129.543 159.506 129.87 159.381 130.274C158.849 133.195 160.14 135.977 161.307 138.387C162.945 137.378 164.473 136.353 165.91 133.806C166.081 133.386 166.331 133.045 166.44 132.75C166.55 132.454 166.643 132.268 166.768 132.019C166.847 131.786 166.878 131.569 167.034 131.258C167.269 129.937 167.363 128.974 167.348 128.15C167.412 127.249 167.443 126.41 167.787 125.26C167.897 124.965 167.975 124.577 168.162 124.204C168.49 123.474 168.881 122.775 169.333 121.951Z" fill="#5DA65B"/>
<path d="M133.371 159.61C133.543 159.345 133.652 159.206 133.886 158.973C134.978 157.886 136.662 157.172 138.097 156.645L138.331 156.567C142.759 154.737 146.782 153.403 149.433 152.628L150.134 152.396C150.228 152.365 150.43 152.349 150.524 152.474C150.617 152.598 150.664 152.738 150.601 152.862C150.539 152.987 150.445 153.018 150.321 153.111L149.744 153.25C142.462 155.56 137.8 157.157 135.866 158.213C134.307 158.989 133.745 159.952 133.745 159.952C133.682 160.076 133.48 160.091 133.449 159.998C133.324 159.936 133.293 159.843 133.371 159.61Z" fill="#5DA65B"/>
<path d="M122.878 162.725C122.94 162.601 123.034 162.57 123.19 162.414C123.689 162.197 126.638 159.045 127.137 158.517L127.855 157.709C129.665 155.504 130.335 154.867 131.271 154.246C135.03 152.12 140.048 153.616 142.245 154.285C142.697 154.395 143.071 154.581 143.149 154.504L143.211 154.535L143.242 154.628L143.616 155.126L143.523 155.157C142.01 156.228 140.964 157.61 140.059 158.946C137.936 161.773 136.017 164.429 130.001 163.678C129.611 163.6 129.19 163.584 128.8 163.506C127.273 163.288 125.449 162.96 123.734 163.425C123.501 163.502 123.314 163.409 123.22 163.285C122.846 163.253 122.8 162.958 122.878 162.725ZM142.322 155.14C141.995 155.093 141.637 154.953 141.231 154.829C140.717 154.688 140.281 154.471 139.891 154.393C139.377 154.252 137.959 154.049 137.101 154.126C136.135 154.032 135.184 154.14 134.295 154.28C132.689 154.605 131.504 155.101 130.677 156.049C129.991 156.794 129.476 157.431 128.914 158.083C128.087 159.186 127.198 160.257 125.887 161.468C125.731 161.624 125.544 161.841 125.372 162.105L125.201 162.369C126.463 162.261 127.726 162.464 128.864 162.605C129.253 162.683 129.674 162.699 130.064 162.777C130.812 162.84 131.42 162.949 132.137 162.918C136.112 162.844 137.547 160.918 139.217 158.759C139.982 157.47 140.872 156.243 142.322 155.14Z" fill="#5DA65B"/>
<path d="M126.652 141.796C126.684 141.734 126.777 141.703 126.808 141.641C132.405 140.821 138.298 140.266 142.957 141.621C143.409 141.73 143.581 141.777 144.111 141.964L144.563 142.073C144.796 142.151 144.874 142.384 144.812 142.508C144.749 142.633 144.734 142.742 144.656 142.664C144.562 142.695 144.422 142.741 144.359 142.71C138.516 140.763 134.385 141.149 126.917 141.967L126.683 141.889C126.652 141.951 126.621 141.858 126.652 141.796Z" fill="#5DA65B"/>
<path d="M115.524 140.514C115.586 140.389 115.695 140.25 115.836 140.203C118.627 139.381 120.327 138.404 121.777 137.612C122.479 137.224 123.165 136.79 123.96 136.526C126.783 135.176 130.212 135.179 133.142 136.331C135.635 137.265 138.127 139.442 139.638 140.702L139.731 140.827C139.794 140.858 139.809 141.06 139.747 141.184L139.716 141.246C139.075 142.753 133.693 147.489 128.597 146.226C126.446 145.696 124.717 144.716 123.065 143.814C120.837 142.584 118.796 141.448 115.913 141.369C115.757 141.368 115.523 141.291 115.492 141.197C115.446 140.902 115.43 140.7 115.524 140.514ZM138.999 141.121C136.834 139.146 135.167 137.731 132.923 136.921C128.279 135.146 125.597 136.605 122.135 138.529C120.903 139.197 119.639 139.926 118.142 140.578C120.402 140.968 122.272 142.057 124.079 143.115C127.756 145.262 131.371 147.223 136.893 143.062C137.657 142.395 138.328 141.758 138.999 141.121Z" fill="#5DA65B"/>
<path d="M92.4574 118.072C92.4886 118.01 92.6134 117.917 92.7848 117.964C97.6315 119.257 101.84 119.26 106.783 118.192C106.876 118.161 107.047 118.207 107.172 118.27C107.266 118.394 107.312 118.534 107.25 118.658C107.187 118.782 107.094 118.813 106.969 118.907C102.323 119.929 97.6467 119.77 92.7689 118.383L92.6442 118.321C92.3949 118.197 92.4261 118.134 92.4574 118.072Z" fill="#5DA65B"/>
<path d="M76.5289 115.481C76.5601 115.419 76.5913 115.357 76.7006 115.217C78.8062 113.742 81.2698 112.874 83.7797 112.611C85.0424 112.503 86.3207 112.442 87.6454 112.676C90.7158 113.16 92.6789 114.374 94.673 115.681C96.7294 117.019 98.9573 118.403 102.48 118.841C102.604 118.903 102.714 118.919 102.745 119.012C102.776 119.105 102.807 119.199 102.76 119.37C102.697 119.494 102.604 119.525 102.479 119.618C99.1581 120.563 96.8816 121.37 95.2287 122.021C91.1122 123.541 90.3793 123.836 85.9863 120.632C83.4938 118.765 80.3002 116.509 76.9958 116.258C76.84 116.258 76.6998 116.149 76.5908 115.978C76.4038 115.885 76.4039 115.729 76.5289 115.481ZM100.609 119.306C98.1621 118.667 96.1991 117.453 94.3295 116.364C90.8395 114.31 87.5366 112.35 81.5805 114.117C80.4891 114.427 79.4443 114.877 78.3994 115.482C81.5009 116.059 84.1803 118.019 86.5481 119.824C90.4893 122.764 90.8948 122.578 94.7773 121.291C96.1339 120.686 97.9427 120.034 100.609 119.306Z" fill="#5DA65B"/>
<path d="M66.6216 125.808C66.6529 125.746 66.7464 125.715 66.8868 125.668L67.2453 125.653C68.087 125.684 68.9287 125.716 70.394 125.748C72.7321 125.75 76.3799 125.473 79.9342 125.227C86.2633 124.734 89.2564 124.519 89.6613 124.954L89.7547 125.079C89.7235 125.141 89.7235 125.141 89.6922 125.203C89.6298 125.327 89.5205 125.467 89.3179 125.482C84.8597 125.51 81.5081 125.741 78.5306 126.003C74.7269 126.28 71.4221 126.495 66.8239 126.258L66.6993 126.196C66.6369 126.165 66.6682 126.103 66.6215 125.963L66.6216 125.808Z" fill="#5DA65B"/>
<path d="M55.3838 124.665C55.4462 124.541 55.5398 124.51 55.6646 124.417L61.9018 121.935C63.2428 121.438 64.4124 120.895 65.722 120.617C66.2053 120.508 66.7822 120.369 67.2343 120.323C72.3633 119.658 77.6914 123.019 80.854 125.026C81.0878 125.103 81.1343 125.399 81.0718 125.523C81.0094 125.647 80.9937 125.756 80.9002 125.787C79.98 126.299 79.2312 127.014 78.3888 127.759C77.5152 128.566 76.6103 129.436 75.5031 130.01C72.0254 131.888 68.8623 130.502 64.4369 128.603C61.9438 127.514 59.0923 126.284 55.6638 125.349C55.5391 125.287 55.43 125.271 55.321 125.1C55.3212 124.945 55.2901 124.851 55.3838 124.665ZM79.7471 125.289C74.7929 122.115 71.5207 120.559 67.3428 120.96C65.472 121.269 63.9595 121.874 59.4062 123.798L57.2854 124.76C60.6984 125.648 63.3162 126.8 65.4977 127.734C70.4839 129.913 73.2574 131.22 77.7035 127.106L77.7971 127.075C78.3431 126.531 78.9984 125.848 79.7471 125.289Z" fill="#5DA65B"/>
<path d="M155.739 87.5672C155.802 87.4429 155.895 87.4119 156.067 87.4587C156.191 87.5209 156.222 87.6142 156.175 87.7851C156.175 87.7851 156.175 87.7851 155.754 88.7016C155.363 89.556 155.02 90.5504 154.738 91.5758C153.926 93.9683 153.253 96.4698 152.627 99.1111C151.83 102.017 151.095 104.953 150.063 108.091C149.985 108.48 149.766 108.915 149.626 109.272C149.548 109.505 149.314 109.583 149.189 109.52C149.064 109.458 148.846 109.271 148.94 109.085C149.128 108.401 149.378 107.749 149.674 107.081C150.768 103.818 151.503 101.193 152.144 98.7533C152.707 96.7025 153.239 94.7138 153.927 92.5697C154.458 90.8918 155.067 89.2917 155.739 87.5672Z" fill="#5DA65B"/>
<path d="M148.766 93.607C149.485 92.0225 150.702 90.3761 152.605 88.4506L152.73 88.3574C154.696 86.463 156.615 84.4286 159.174 80.732C159.253 80.499 159.549 80.4526 159.673 80.5148C159.907 80.5927 160.016 80.7637 160.078 80.9502L160.278 84.1982C160.538 89.8084 160.615 91.2847 160.161 93.1958C160.083 93.5842 160.005 93.9727 159.817 94.3455C159.677 94.7028 159.63 95.0291 159.442 95.4019C157.662 99.4099 153.591 102.624 151.111 104.533C150.986 104.626 150.783 104.642 150.659 104.58C150.534 104.517 150.394 104.408 150.378 104.206C150.192 103.181 149.772 102.232 149.352 101.284C148.418 99.2633 147.563 97.1648 148.454 94.3838C148.641 94.1664 148.688 93.84 148.766 93.607ZM158.741 95.1683C158.882 94.811 159.069 94.4382 159.147 94.0497C159.257 93.7546 159.335 93.3661 159.429 93.0243C159.805 91.1909 159.681 89.8854 159.327 84.3063L159.173 82.286C157.128 85.3459 155.303 87.1938 153.681 88.8709C152.76 89.8493 151.917 90.75 151.137 91.6818C150.529 92.505 149.998 93.2505 149.686 94.0273C149.607 94.2603 149.514 94.4467 149.389 94.6953C148.576 97.0878 149.447 99.0776 150.194 100.85C150.521 101.674 150.879 102.435 151.112 103.29C154.918 100.527 157.382 98.2598 158.741 95.1683Z" fill="#5DA65B"/>
<path d="M90.3705 133.937C90.4017 133.875 90.5265 133.782 90.6979 133.829L90.8226 133.891C91.3369 134.031 91.9135 134.203 92.6303 134.483C95.7936 135.713 98.9559 138.031 101.12 140.783L101.214 140.907C101.369 141.063 101.619 141.343 101.54 141.576C101.509 141.638 101.478 141.7 101.416 141.669C101.291 141.762 101.026 141.746 100.932 141.622L100.652 141.249C100.341 140.782 99.9048 140.253 99.0172 139.305C95.5598 135.635 90.8379 134.248 90.6197 134.217L90.495 134.155C90.308 134.062 90.3393 133.999 90.3705 133.937Z" fill="#5DA65B"/>
<path d="M79.6197 128.335C79.6979 128.102 79.8694 127.993 80.0876 128.024C82.1608 128.01 84.3588 127.903 86.5254 128.013C97.7637 128.69 99.1632 132.731 100.015 139.336C99.9836 139.399 100.046 139.43 100.015 139.492C99.9522 139.616 99.8587 139.647 99.7339 139.74C99.6403 139.771 99.4377 139.787 99.4066 139.693C98.6744 139.211 97.7392 139.055 96.8349 139.303C94.4025 140.109 92.2048 139.906 90.273 138.63C89.1824 138.008 88.0763 137.183 87.1263 136.203C85.6466 134.881 84.8057 133.917 83.9805 132.844C82.9527 131.632 82.0341 130.434 79.8532 128.723C79.5726 128.816 79.5416 128.568 79.6197 128.335ZM99.0645 138.667C97.5442 130.213 94.147 129.06 81.3494 129.004C82.985 130.326 83.8881 131.477 84.7601 132.534C85.9124 133.965 87.0179 135.411 89.6194 137.293C90.7878 138.149 91.1928 138.429 91.7382 138.662C93.6236 139.487 94.9645 139.146 96.1495 138.805C97.1629 138.573 98.0672 138.325 99.0645 138.667Z" fill="#5DA65B"/>
<path d="M93.2404 150.178C93.2716 150.116 93.3029 150.054 93.3652 150.085C94.8464 149.698 95.7351 149.403 98.1994 147.758C98.5738 147.478 98.9637 147.245 99.3693 146.904C101.88 145.088 104.922 142.837 108.975 142.995C109.068 142.964 109.209 143.073 109.271 143.104C109.302 143.197 109.349 143.337 109.286 143.461C109.224 143.586 109.114 143.725 108.912 143.741C105.218 143.567 102.675 145.29 99.9925 147.215C98.7604 148.038 97.5282 148.861 96.1091 149.59L95.4698 149.854C94.7056 150.21 94.7056 150.21 93.7858 150.412L93.4583 150.52C93.3648 150.551 93.3025 150.52 93.2246 150.443C93.2403 150.334 93.2092 150.24 93.2404 150.178Z" fill="#5DA65B"/>
<path d="M86.3025 151.65C86.4431 151.292 86.927 150.562 87.0673 150.516C91.2812 144.458 99.8409 142.242 103.845 144.592C103.97 144.654 104.094 144.872 103.985 145.012C101.987 148.367 97.5239 153.834 93.7202 154.11C92.3952 154.187 91.2421 153.689 90.0267 153.16C88.936 152.693 87.9231 152.304 86.8475 152.349C86.6916 152.349 86.5202 152.303 86.3955 152.24C86.3021 152.116 86.2555 151.976 86.1776 151.898L86.24 151.774C86.2713 151.712 86.3025 151.65 86.3025 151.65ZM103.127 145.089C102.894 145.011 102.644 144.886 102.364 144.824C99.0912 143.889 92.3405 145.298 87.7836 151.418C88.6876 151.481 89.5446 151.87 90.4484 152.243C90.9314 152.446 91.4768 152.679 91.9288 152.788C94.2663 153.567 95.935 152.651 98.4464 150.524C99.7256 149.375 100.942 148.195 101.941 146.828C102.331 146.285 102.691 145.648 103.127 145.089Z" fill="#5DA65B"/>
<path d="M76.1603 145.224C76.1915 145.162 76.2851 145.131 76.4254 145.084C78.3426 145.226 80.6659 144.404 83.4414 143.38C86.7315 142.186 90.3958 140.868 94.7294 140.622C94.823 140.591 94.9944 140.638 95.0255 140.731C95.0566 140.825 95.1032 140.965 95.1031 141.12C95.0406 141.244 94.9314 141.384 94.76 141.337C90.3328 141.614 86.6997 142.87 83.4721 143.94C80.7278 144.901 78.4357 145.661 76.425 145.551L76.3003 145.488C76.1757 145.426 76.1757 145.426 76.1603 145.224Z" fill="#5DA65B"/>
<path d="M61.7136 141.469C61.776 141.344 61.8696 141.313 61.9944 141.22C72.8632 136.426 80.9508 139.338 86.81 141.487L87.7606 141.845C87.9943 141.923 88.1344 142.187 88.0874 142.514C88.0561 142.576 88.0249 142.638 88.0249 142.638C87.3384 143.383 87.0572 144.098 86.6826 144.688C85.9019 146.242 85.2927 147.686 80.7399 148.988C78.1829 149.732 76.2655 149.747 74.021 149.558C69.2986 148.794 65.7309 146.507 61.8847 141.826C61.6976 141.888 61.6822 141.686 61.7136 141.469ZM86.513 142.466C81.1992 140.551 72.9868 137.732 62.9447 141.889C68.3481 148.28 73.88 150.382 80.3664 148.335C84.4515 147.033 84.9513 145.883 85.654 144.408C85.9351 143.848 86.1538 143.258 86.7 142.559L86.513 142.466Z" fill="#5DA65B"/>
<path d="M55.4832 99.7236L55.5767 99.6926C55.6703 99.6616 66.2086 98.5504 66.4112 98.6904L66.8009 98.613C67.1594 98.5977 67.5492 98.5203 67.8765 98.5672C67.9388 98.5983 68.2038 98.614 68.422 98.6453C68.687 98.661 69.0766 98.739 69.0766 98.739L69.1077 98.8323L69.1701 98.8634L69.2012 98.9566C68.6396 99.4535 67.8914 99.3908 67.2056 99.3592C66.8783 99.3123 66.6601 99.2811 66.3638 99.3275C55.6856 100.019 55.5141 99.9722 55.483 99.879L55.4519 99.7857L55.4832 99.7236Z" fill="#5DA65B"/>
<path d="M40.6138 97.817C40.692 97.584 40.9883 97.3822 41.2844 97.4912C42.9207 98.0363 44.4643 97.5246 46.2107 96.8421C48.0975 96.1131 50.2337 95.3532 53.2731 95.5886C55.0189 95.6831 56.4993 96.2281 57.029 96.5703C58.369 97.1618 59.3033 98.2503 59.7548 98.981C60.1126 99.7428 60.2212 100.38 60.0335 101.064C60.0023 101.126 59.9711 101.188 59.9554 101.297C58.9246 103.658 54.076 104.54 52.2524 104.368C51.4106 104.336 50.4755 104.18 49.4158 103.806C45.9719 102.669 43.4951 100.694 40.8158 98.5786C40.629 98.3299 40.5513 98.0967 40.6138 97.817ZM59.2543 100.908C59.2855 100.845 59.2855 100.845 59.3167 100.783C59.4573 100.426 59.411 99.9753 59.271 99.5557L58.9908 99.1825C58.9908 99.1825 58.7106 98.6539 57.7137 97.8451C54.9874 96.056 51.0123 96.2862 48.533 97.2634C48.112 97.403 47.7065 97.5891 47.2855 97.7287L47.192 97.7597C45.6639 98.318 44.3852 98.8454 43.0291 98.8289C45.3658 100.54 48.1699 102.562 51.1155 103.139C52.0506 103.295 52.7831 103.467 53.7808 103.343C55.9477 103.143 58.6764 102.29 59.2543 100.908Z" fill="#5DA65B"/>
<path d="M49.6819 84.661L49.7754 84.63L49.9313 84.6301C53.8737 86.1714 56.7403 88.0694 59.5749 90.8065L59.6683 90.9309L59.4812 90.9929C59.3253 90.9928 59.185 91.0393 59.0291 91.0392C56.2257 88.24 53.437 86.4198 49.7128 84.9097C49.6972 85.0184 49.6194 84.7853 49.6819 84.661Z" fill="#5DA65B"/>
<path d="M38.0459 75.0022C38.1241 74.7691 38.3268 74.5984 38.545 74.6296C38.8413 74.5832 39.0282 74.6766 39.2151 74.9254C41.6599 77.7399 44.8697 79.2651 47.8769 80.8058C51.0554 82.3932 54.2808 83.9651 56.71 86.8884C57.5352 87.9613 58.5316 89.3917 58.5939 89.4228C58.6873 89.5472 58.734 89.6871 58.6715 89.8114C58.6403 89.8735 58.5934 90.0444 58.4998 90.0754C57.6109 90.5254 53.5273 90.1184 50.0678 88.9348C43.3517 86.2415 41.6403 82.5106 40.0843 79.2461C39.4774 78.0491 38.9484 76.9298 38.2633 75.9658L38.2322 75.8726C37.9987 75.4839 37.9989 75.3285 38.0459 75.0022ZM57.503 89.1112C56.3991 85.8004 51.9741 83.5905 47.3464 81.3959C44.8689 80.1975 42.3915 78.9991 40.3507 77.5524L40.6621 78.0189C41.1597 79.3557 41.7197 80.7236 42.5136 82.014C45.7985 86.8804 50.9715 89.3084 57.503 89.1112Z" fill="#5DA65B"/>
<path d="M59.7022 69.5323C59.7335 69.4702 59.7647 69.408 59.827 69.4391L60.0608 69.517C64.6711 73.8405 67.3325 78.5511 68.7146 84.7215C68.7457 84.8147 68.7144 84.8768 68.7144 84.8768C68.652 85.0011 68.5427 85.1409 68.3401 85.1563C68.1842 85.1562 68.044 85.0473 68.0286 84.8453C66.6312 78.4729 64.2499 74.1355 59.8111 69.8587C59.6864 69.7965 59.6398 69.6566 59.7022 69.5323Z" fill="#5DA65B"/>
<path d="M54.9107 58.4334C54.9731 58.3091 55.0824 58.1693 55.3163 58.0918C55.4721 58.0919 55.7371 58.1077 55.7993 58.2942C58.5243 61.6373 60.7826 63.8922 62.6049 65.6185C67.1683 70.1129 68.6479 71.5903 67.6734 80.9757L67.6421 81.0378C67.5797 81.1621 67.4704 81.3019 67.2678 81.3173C67.2055 81.2862 67.1431 81.255 67.034 81.2394C66.2554 80.3065 65.1333 80.057 63.9021 79.7919C61.2838 79.2616 58.0889 78.56 55.6947 71.2234C54.653 68.0991 54.7493 64.8047 54.8768 61.6035C54.8776 60.6711 54.9564 59.6611 54.9572 58.7287C54.9106 58.5888 54.9106 58.5888 54.9107 58.4334ZM67.0193 80.2604C67.572 71.9469 65.7965 70.2051 61.8092 66.5037C60.1894 64.9174 58.2114 63.0356 55.8445 60.1435C55.922 60.6874 55.8591 61.2779 55.843 61.8529C55.7468 64.9919 55.5728 67.8977 56.5522 70.9909C58.7442 77.8767 61.5182 78.5625 64.043 79.1238C65.1028 79.3421 66.1002 79.5293 67.0193 80.2604Z" fill="#5DA65B"/>
<path d="M63.7034 93.3737C63.7347 93.3115 63.8282 93.2805 63.9686 93.234C70.4064 93.2232 74.2548 95.2618 75.5636 95.9154L75.8597 96.0244C76.9192 96.5535 77.9633 96.8806 78.9764 97.1145C79.7399 97.3792 80.5192 97.5352 81.1737 97.7843C81.4074 97.8622 81.4852 98.0953 81.4227 98.2196C81.3602 98.3439 81.3446 98.4527 81.251 98.4837C81.1575 98.5147 81.0951 98.4836 80.9548 98.5301C80.2224 98.2032 79.4744 97.9851 78.6796 97.7825C77.5887 97.4709 76.6537 97.1594 75.5786 96.5836C75.454 96.5214 75.2202 96.4435 75.1113 96.2725C73.8181 95.5101 71.6368 94.4207 66.8206 93.8422C65.6828 93.7015 64.8411 93.6698 64.2644 93.6538L63.9994 93.6381L63.8747 93.5758C63.7033 93.5291 63.6722 93.4358 63.7034 93.3737Z" fill="#5DA65B"/>
<path d="M55.2104 90.6483C55.2885 90.4152 55.4601 90.3066 55.6783 90.3378C56.4577 90.3384 57.3306 90.3079 58.1257 90.1997C65.0937 89.9096 73.0593 89.6513 75.9224 95.5896C75.9535 95.6829 75.9846 95.7761 75.9377 95.9471C75.8752 96.0713 75.766 96.2111 75.6257 96.2576C74.6746 96.5211 73.6766 96.9555 72.7254 97.3744C72.086 97.6381 71.5246 97.9796 70.9165 98.1811C65.4433 100.306 59.6936 97.7067 55.3035 91.0835C55.1944 91.0678 55.0854 90.8968 55.2104 90.6483ZM74.8 95.651C71.9514 91.0024 65.2017 91.1684 58.5612 91.35C57.8441 91.3806 57.2674 91.3646 56.5503 91.3952C61.4699 98.5161 66.5047 98.6596 69.0616 98.071C70.2153 97.7921 71.2914 97.2801 72.3986 96.7059C73.1159 96.3646 73.9736 95.9767 74.8 95.651Z" fill="#5DA65B"/>
<path d="M80.0123 88.6927C80.0436 88.6305 80.1371 88.5995 80.1684 88.5374C80.2619 88.5064 80.3242 88.5375 80.4021 88.6153C82.8777 91.9892 84.7596 96.8546 85.3172 101.02C85.286 101.082 85.3483 101.113 85.3171 101.175C85.2546 101.299 85.1454 101.439 84.9427 101.455C84.7869 101.454 84.6467 101.346 84.5689 101.112C83.9648 96.652 82.3475 92.2686 80.0122 88.8481L80.0123 88.6927Z" fill="#5DA65B"/>
<path d="M71.1552 74.2805C71.1865 74.2184 71.3113 74.1252 71.5296 74.0011C71.6855 74.0012 71.9505 74.0169 72.0281 74.4055L72.0592 74.4987C72.1831 75.338 73.3203 76.2557 74.6131 77.3289C75.3141 77.8733 75.9994 78.5265 76.5601 79.1174C77.4633 80.1126 78.3977 81.2011 79.1917 82.3361C82.2898 86.7984 83.9694 91.3683 84.464 96.2793C84.4327 96.3415 84.4638 96.4347 84.4638 96.4347C84.4014 96.559 84.2921 96.6988 84.1518 96.7453C84.0583 96.7763 83.8556 96.7917 83.7309 96.7295C83.4349 96.6205 83.0922 96.3716 82.6714 96.2003C80.4745 95.0643 75.9873 92.6679 72.6241 88.1899C69.4478 83.9607 70.105 81.1018 70.653 78.2273C70.9659 76.9843 71.2007 75.819 71.0927 74.5602C71.1707 74.4825 71.1396 74.3893 71.1552 74.2805ZM83.467 95.4705C83.0188 91.0102 81.4946 87.062 78.7081 82.7553C76.6841 79.9567 75.1574 78.8056 74.0048 77.8413C73.3038 77.2969 72.743 76.8613 72.1512 76.1771C72.1664 76.69 72.0723 77.3426 71.9157 78.1194L71.775 78.6322C71.3681 80.5278 71.2114 81.46 71.5374 83.0609C71.8635 84.5063 72.5014 85.952 73.7003 87.5224C76.783 91.7827 80.9586 94.0235 83.1399 95.2683L83.467 95.4705Z" fill="#5DA65B"/>
<path d="M71.3667 45.7805C71.4603 45.7495 71.6317 45.7963 71.7095 46.0294C75.7425 50.9585 80.0886 54.3339 85.9628 57.1509C86.1965 57.2288 86.212 57.4308 86.2118 57.5862C86.1494 57.7105 86.1337 57.8193 86.0401 57.8503C85.9466 57.8813 85.8843 57.8502 85.7128 57.8034C76.2081 53.2899 71.2572 46.2311 71.3978 45.8738L71.3667 45.7805Z" fill="#5DA65B"/>
<path d="M57.6559 38.3112C57.7183 38.1869 57.8119 38.1559 57.9679 38.0006C58.0615 37.9696 58.2641 37.9542 58.3888 38.0165L58.4511 38.0476C59.8533 38.8256 61.5208 39.3086 63.2506 39.8227C67.879 41.2402 73.0217 42.798 76.8818 49.3898L77.2709 50.0894C78.0959 51.473 78.9051 52.9654 80.2449 53.8677C80.3696 53.93 80.4941 54.1477 80.3849 54.2874C80.3224 54.4117 80.2132 54.5515 80.0105 54.5669C69.3333 54.0151 63.1936 51.804 59.3518 41.9954C58.5121 39.6327 58.1072 39.1973 58.0293 39.1196C57.593 38.9017 57.5777 38.5442 57.6559 38.3112ZM78.8889 53.6958C77.9856 52.856 77.3162 51.7832 76.5847 50.524C74.6389 47.3368 72.2105 43.4811 63.9977 41.1286L63.6081 41.0506C62.3302 40.6456 60.912 40.2872 59.5408 39.7578C59.6808 40.0221 59.8832 40.3175 59.9608 40.706C61.3762 44.3279 63.6781 50.2969 71.1273 52.3848C73.5584 53.1325 76.6444 53.5077 78.8889 53.6958Z" fill="#5DA65B"/>
<path d="M113.273 75.6482C113.304 75.586 113.429 75.4929 113.6 75.5396C113.725 75.6019 113.756 75.6952 113.74 75.8039C112.488 81.3974 112.782 83.682 112.921 85.8111L112.952 85.9043C112.967 86.2618 113.045 86.6503 113.029 87.0699L113.091 87.878C113.276 89.9916 113.383 92.0274 113.958 93.9081C114.067 94.39 114.254 94.6387 114.223 94.7009C114.254 94.7941 114.222 94.8563 114.207 94.965C114.144 95.0893 114.129 95.1981 114.035 95.2291C113.942 95.2601 113.879 95.229 113.77 95.2134C113.708 95.1822 113.645 95.1511 113.614 95.0579C112.79 92.8972 112.652 90.4573 112.482 88.0796L112.452 87.2093C112.468 86.7897 112.39 86.4012 112.375 86.0438C112.081 83.7592 111.849 81.3503 113.273 75.6482Z" fill="#5DA65B"/>
<path d="M108.612 75.0697C108.753 74.7124 108.909 74.4017 109.127 74.1221C109.611 73.3921 110.282 72.9109 110.875 72.5072C112.637 71.2498 114.072 69.9455 115.664 68.0197C115.82 67.8644 116.101 67.7714 116.21 67.9424C116.334 68.0047 116.521 68.2534 116.49 68.471C116.036 70.0713 115.833 71.1745 115.955 73.5677C116.017 74.2204 116.032 74.8886 116.172 75.6191C116.466 78.0591 116.744 80.7633 115.9 83.218C115.838 83.3422 115.791 83.5132 115.729 83.6374C115.666 83.7617 115.65 83.8705 115.588 83.9947C115.229 84.787 114.838 85.486 114.355 86.2161L114.042 86.682C113.761 87.0859 113.527 87.6296 113.262 88.2354C113.184 88.4685 113.059 88.717 112.934 88.9656L112.902 89.0277C112.84 89.152 112.731 89.2918 112.59 89.3383C112.435 89.3382 112.232 89.3536 112.138 89.2292C108.042 85.6675 106.956 79.6061 108.222 75.7687C108.534 75.4581 108.55 75.194 108.612 75.0697ZM115.183 83.4039C115.261 83.1709 115.386 82.9223 115.511 82.6738C115.777 81.9125 115.871 81.1045 115.903 80.2654C116.013 79.0378 115.78 77.5613 115.657 75.9451C115.425 74.3132 115.27 72.6037 115.334 70.9254C115.35 70.5059 115.397 70.1796 115.382 69.8221C114.18 71.2043 112.948 72.1824 111.576 73.2071C111.045 73.6418 110.406 74.0609 110.078 74.6356C109.906 74.8997 109.734 75.1637 109.594 75.5211C109.516 75.7541 109.422 75.9405 109.297 76.1891C108.516 78.5195 108.513 82.2491 110.832 85.9337C111.86 87.302 112.093 87.5353 112.638 87.9242C113.029 87.2252 113.45 86.464 113.918 85.8428C114.278 85.0505 114.793 84.2583 115.183 83.4039Z" fill="#5DA65B"/>
<path d="M131.8 83.0741C132.753 80.9458 134.017 78.8177 135.5 76.4101L136.655 74.5773C136.718 74.453 136.811 74.422 136.983 74.4687C137.107 74.531 137.138 74.6242 137.091 74.7951L136.311 76.1932C134.734 78.7872 133.563 80.8842 132.673 82.8882C132.376 83.5562 132.111 84.1621 131.876 84.8612C131.611 85.6225 131.423 86.3061 131.282 86.9742L131.251 87.0363L131.095 87.0362C130.971 86.974 130.799 86.9272 130.628 86.7251C130.691 85.9792 130.863 85.4044 131.004 84.8917C131.238 84.3479 131.503 83.7421 131.8 83.0741Z" fill="#5DA65B"/>
<path d="M132.917 71.7774C134.697 67.7694 136.819 65.0981 140.485 62.2259C140.641 62.0706 140.906 62.0863 141.062 62.2418C141.217 62.3973 141.342 62.615 141.201 62.8169C141.092 63.1121 140.998 63.2985 140.936 63.5782C139.873 66.7786 139.824 69.5913 139.728 72.1087C139.68 74.1444 139.663 75.9626 139.084 77.656C139.006 77.8891 138.881 78.1376 138.756 78.3862C138.257 79.5358 137.476 80.4676 136.462 81.3215C135.932 81.7563 135.355 82.2065 134.793 82.548C134.014 83.169 133.483 83.6037 132.984 83.9763C131.783 84.8923 131.377 85.2339 131.081 85.1249C130.848 85.047 130.77 84.6585 130.739 83.9436C130.755 83.6794 130.693 83.4929 130.647 83.1976L130.647 82.4206C130.617 81.5504 130.617 81.5503 130.617 80.7734L130.618 79.9964C130.823 77.3392 131.026 76.5468 131.839 73.688C132.354 73.0513 132.651 72.3833 132.917 71.7774ZM138.227 78.1993C138.305 77.9663 138.398 77.7798 138.523 77.5313C139.039 75.9621 139.087 74.0818 139.074 72.015C139.107 69.6219 139.047 66.949 139.876 63.9814C137.177 66.4814 135.257 68.9819 133.836 72.1976C133.446 73.0521 133.102 74.0464 132.758 75.0407L132.68 75.4291L132.554 76.1439C132.398 76.9207 132.398 76.9207 132.194 77.7131L132.069 78.4279L132.006 79.1737C131.912 79.9818 131.912 79.9818 131.911 80.7588L131.848 81.5046L131.879 82.2195C131.878 82.9965 131.878 82.9965 131.94 83.8046L131.971 83.8979L133.188 82.8731C136.198 80.6842 136.993 80.1098 137.727 79.0381C137.805 78.9605 138.055 78.6187 138.227 78.1993Z" fill="#5DA65B"/>
<path d="M146.328 83.0225C147.187 81.0807 148.201 80.0713 149.402 79C150.182 78.2235 151.056 77.4161 151.946 76.1891C152.773 75.0864 153.6 73.9836 154.629 73.1763C155.035 72.8347 155.596 72.4933 156.049 72.2916C156.142 72.2606 156.204 72.2917 156.314 72.3073C156.376 72.3384 156.407 72.4317 156.36 72.6026L156.235 72.6957C154.535 73.6735 153.583 74.8694 152.319 76.5312C150.977 78.4261 150.26 79.0783 149.604 79.6062C149.074 80.0409 148.669 80.3825 147.966 81.3921C147.56 81.889 147.201 82.5259 146.951 83.1784C146.811 83.5357 146.623 83.9085 146.545 84.297C146.28 85.0583 146.154 85.773 145.982 86.3479C145.873 86.643 145.67 86.6584 145.514 86.6583C145.39 86.5961 145.172 86.4094 145.265 86.223C145.391 85.5083 145.609 84.9179 145.766 84.2964C146 83.9081 146.156 83.442 146.328 83.0225Z" fill="#5DA65B"/>
<path d="M147.894 74.632C148.862 72.3949 150.251 70.7953 152.154 69.6468C153.323 68.9483 154.306 68.6227 155.35 68.639C155.709 68.6237 156.036 68.6706 156.254 68.7019C156.737 68.7488 157.361 68.7493 158.327 68.6878C159.138 68.6263 159.808 68.4558 160.323 68.4407C161.165 68.317 161.601 68.224 161.882 68.4418C162.006 68.5041 162.037 68.5973 162.1 68.7838C162.131 68.8771 162.099 68.9392 162.084 69.048C162.084 69.048 162.084 69.048 162.053 69.1101C162.021 69.1723 162.021 69.1723 161.99 69.2344C161.007 70.4924 160.258 71.8283 159.258 73.6613C158.806 74.4846 158.478 75.2147 158.087 75.9137C155.121 81.6614 155.121 81.6614 151.145 82.5131C150.459 82.6369 149.695 82.8384 148.838 83.0709C148.448 83.1483 147.98 83.3033 147.559 83.4429C146.92 83.7066 146.795 83.7998 146.795 83.7998L146.14 83.706L146.078 83.6749L146.188 82.6027C146.392 80.7226 146.675 78.4539 147.409 76.139C147.535 75.5797 147.675 75.0669 147.894 74.632ZM160.041 69.6215C159.496 69.6988 158.934 69.7295 158.404 69.8534C157.297 69.9614 156.752 69.8832 156.128 69.8828C155.863 69.8671 155.583 69.8047 155.287 69.8511C153.042 69.8184 150.733 71.7747 149.485 73.6386C149.141 74.1667 148.86 74.7259 148.548 75.3473C148.376 75.7668 148.158 76.2017 148.032 76.7611C147.36 78.9517 147.031 81.3912 146.842 83.0073C146.967 82.9141 147.108 82.8676 147.217 82.7278C148.932 82.1075 150.164 81.9064 151.224 81.6585C153.594 81.1319 154.17 80.9924 155.857 77.9478C156.309 77.1246 156.7 76.2701 157.152 75.4469C158.105 73.474 159.058 71.5011 160.306 69.6372L160.041 69.6215Z" fill="#5DA65B"/>
<path d="M94.5146 100.405C94.5458 100.343 94.6394 100.312 94.6706 100.249C94.7642 100.218 94.8265 100.25 94.9044 100.327L95.7607 101.493C99.015 105.645 100.619 107.806 102.3 110.201C104.324 112.999 105.46 114.849 106.348 116.264C107.36 117.897 107.873 118.658 108.699 119.265C109.042 119.514 109.229 119.607 109.525 119.716C109.758 119.794 109.774 119.996 109.774 120.152C109.711 120.276 109.696 120.385 109.602 120.416C109.508 120.447 109.446 120.416 109.275 120.369C107.826 119.762 107.654 119.404 105.989 116.901C104.37 114.382 101.396 109.827 94.4365 100.638L94.5146 100.405Z" fill="#5DA65B"/>
<path d="M89.1912 91.45C89.2536 91.3257 89.4409 91.1083 89.5968 91.1084C89.7526 91.1085 89.9864 91.1864 90.0798 91.3107C91.3409 93.0677 92.8206 94.3897 94.3782 95.7894C97.0417 98.169 99.8143 100.564 102.241 105.974C102.988 107.746 103.594 109.72 104.185 112.114C104.216 112.207 104.184 112.269 104.169 112.378C104.106 112.502 104.013 112.533 103.888 112.626C103.826 112.595 103.732 112.626 102.189 112.05L102.127 112.019C98.4184 110.555 89.6772 106.307 89.0919 98.1631C89.0927 97.2307 89.1403 96.2829 89.2034 95.3816C89.3448 94.0919 89.4237 92.9264 89.1441 91.7763C89.1131 91.683 89.1287 91.5742 89.1912 91.45ZM103.312 111.678C100.872 102.803 97.3832 99.8165 93.9564 96.8614C92.7103 95.7726 91.4019 94.6528 90.2029 93.2378C90.2647 93.8905 90.1861 94.5898 90.1543 95.2735C89.934 97.7286 89.6823 100.401 92.1266 103.837C94.8822 107.895 99.7124 110.23 102.33 111.226L103.312 111.678Z" fill="#5DA65B"/>
<path d="M85.5428 74.2758C85.574 74.2136 85.6988 74.1205 85.8702 74.1672C87.9897 74.7593 89.8605 74.4499 91.7313 74.1405C93.9451 73.7691 96.1744 73.4444 98.5428 74.6272C98.7765 74.7051 98.7919 74.9071 98.6827 75.0469C98.6202 75.1712 98.6046 75.2799 98.511 75.3109C98.4174 75.3419 98.3551 75.3108 98.1837 75.2641C95.8621 74.0658 93.929 74.3441 91.8087 74.6844C89.9379 74.9938 88.0516 75.2566 85.7607 74.6178L85.6673 74.4934C85.5426 74.4312 85.4803 74.4001 85.5428 74.2758Z" fill="#5DA65B"/>
<path d="M71.1575 71.6389C71.22 71.5146 71.3292 71.3748 71.5319 71.3595C73.5427 71.3143 75.3354 71.2379 77.0345 71.1926C86.4031 70.9353 89.5519 70.8754 93.1359 72.2766C93.1359 72.2766 96.4238 73.5689 96.1425 74.4389C95.1435 75.9611 86.971 81.2076 81.392 79.4319C79.3973 78.9021 77.9021 77.3781 76.329 75.9317C74.8805 74.5476 73.4165 73.1169 71.4064 72.2296C71.1103 72.1206 71.0638 71.8253 71.1575 71.6389ZM94.7241 74.2358C90.876 71.8865 86.636 71.9455 77.2519 72.1562L76.4725 72.1556C75.3969 72.2015 74.3058 72.2007 73.1211 72.2309C74.5856 73.04 75.5512 74.0664 76.5791 75.1238C77.8872 76.5545 79.289 77.9541 81.5174 78.7172C85.5069 79.7768 91.2143 77.2635 94.7241 74.2358Z" fill="#5DA65B"/>
<path d="M159.404 158.696C162.104 154.487 168.109 150.684 170.166 151.245C170.166 151.245 170.68 151.385 170.836 151.541L170.773 151.665L170.68 151.696C170.617 151.665 169.854 151.245 168.638 151.648C165.504 152.687 161.416 156.942 160.121 158.355C159.622 158.883 159.622 158.883 159.45 158.836L159.419 158.743L159.404 158.696Z" fill="#5DA65B"/>
<path d="M157.206 158.338C157.237 158.276 157.268 158.213 157.378 157.918L157.44 157.794C159.548 153.988 163.136 150.728 166.831 149.347C166.831 149.347 168.172 148.851 168.313 148.96L168.297 149.224C165.474 150.574 161.856 152.498 159.344 155.713C158.548 156.754 157.783 157.888 157.518 158.338C157.346 158.602 157.346 158.602 157.237 158.586L157.206 158.493L157.206 158.338Z" fill="#5DA65B"/>
<path d="M156.164 155.058C156.508 154.685 156.773 154.39 157.272 153.551L157.444 153.132C158.428 151.252 158.662 151.019 163.31 147.821C163.31 147.821 164.854 146.844 165.072 146.875L165.103 146.968L165.134 147.061C165.103 147.123 164.277 147.449 163.497 148.07C160.143 150.632 160.143 150.632 160.081 150.601C159.067 151.61 158.349 152.573 157.896 153.396C157.381 154.189 157.022 154.825 156.32 155.213L156.226 155.244L156.102 155.182L156.164 155.058Z" fill="#5DA65B"/>
<path d="M119.762 106.484C119.793 106.422 119.918 106.329 120.043 106.235C120.167 106.142 120.308 106.251 120.339 106.344C124.98 111.227 129.215 116.763 132.936 121.536L133.761 122.609L133.605 122.764C133.076 122.267 132.515 121.676 131.752 121.1C131.721 121.007 131.596 120.945 131.487 120.929L131.394 120.805C131.394 120.805 131.144 120.525 130.958 120.276C124.402 111.988 121.179 108.396 119.715 106.81C119.699 106.763 119.699 106.608 119.762 106.484Z" fill="#5DA65B"/>
<path d="M135.131 124.537C144.77 136.929 149.287 141.129 152.962 144.519C154.847 146.276 156.529 147.894 158.632 150.149C158.663 150.242 158.694 150.335 158.709 150.537C158.647 150.661 158.553 150.692 158.428 150.786C158.335 150.817 158.163 150.77 158.101 150.739C155.282 148.359 144.986 138.825 135.068 125.905L135.037 125.811C135.13 125.78 135.162 125.718 135.162 125.718C135.193 125.656 135.115 125.423 135.084 125.33L135.053 125.236L135.131 125.003C135.131 125.003 135.162 124.941 135.1 124.91L135.131 124.537Z" fill="#5DA65B"/>
<path d="M143.339 96.1827C143.371 96.1206 143.402 96.0584 143.495 96.0274C143.62 95.9343 143.854 96.0121 143.947 96.1365C149.27 105.402 150.761 112.054 152.438 119.732C153.789 125.654 155.295 132.353 158.717 141.679C160.288 145.301 161.564 147.727 161.564 147.727C161.595 147.82 161.564 147.882 161.548 147.991C161.486 148.115 161.47 148.224 161.392 148.146C161.267 148.239 161.034 148.161 160.94 148.037C160.94 148.037 160.489 147.306 159.788 145.985C155.882 138.632 154.158 131.124 152.404 123.213C150.432 114.649 148.444 105.728 143.308 96.5556C143.324 96.4469 143.292 96.3536 143.339 96.1827Z" fill="#5DA65B"/>
<path d="M135.364 144.397C135.629 144.258 135.8 144.149 136.066 144.009C139.571 145.799 144.012 147.745 147.799 149.13C148.983 149.566 151.352 150.438 155.98 151.856L156.214 151.934C156.448 152.012 156.525 152.245 156.463 152.369C156.385 152.602 156.291 152.633 156.088 152.649C153.969 152.212 143.746 149.283 135.504 144.661L135.27 144.584L135.364 144.397Z" fill="#5DA65B"/>
<path d="M117.028 131.47C117.153 131.377 117.34 131.16 117.465 131.067C120.222 132.638 122.528 134.411 125.207 136.527L125.332 136.589L125.207 136.682C124.973 136.76 124.786 136.822 124.646 137.024L124.147 136.619C121.842 134.846 119.567 133.166 117.152 131.688L117.028 131.626L117.028 131.47Z" fill="#5DA65B"/>
<path d="M107.187 46.9567C107.218 46.8946 107.343 46.8014 107.452 46.817C107.545 46.786 107.717 46.8328 107.748 46.926C112.654 52.1355 116.11 57.2041 118.724 62.7071C119.393 63.9353 120.466 66.5312 120.979 67.9147C122.037 70.9302 122.954 74.1476 123.093 75.1889L123.093 75.3443C123.031 75.4686 122.937 75.4996 122.812 75.5928C122.656 75.5927 122.485 75.5459 122.47 75.3439C122.392 75.1107 122.252 74.8464 122.096 74.2247C121.428 72.0642 120.138 67.5722 117.913 63.0795C115.392 57.7008 111.126 51.606 108.183 48.3871L107.28 47.3919C107.171 47.2209 107.124 47.081 107.187 46.9567Z" fill="#5DA65B"/>
</svg>
