<svg width="292" height="254" viewBox="0 0 292 254" fill="none" xmlns="http://www.w3.org/2000/svg">
<path d="M110.205 197.599C110.285 197.625 110.365 197.651 110.339 197.731C111.789 199.403 111.031 201.46 109.328 205.469C107.521 209.933 104.536 217.336 102.414 229.986C102.362 230.146 102.336 230.36 102.258 230.6C101.996 231.135 101.678 231.43 101.198 231.273C101.198 231.273 101.198 231.273 101.118 231.247C101.038 231.22 100.957 231.194 100.824 231.195C99.7285 230.615 99.6895 228.829 99.7389 228.269C99.7575 227.122 100.248 224.933 100.693 223.704C100.848 223.09 101.111 222.555 101.372 221.887L101.398 221.807C101.713 221.112 102.053 220.203 102.234 219.375C102.311 219.002 102.389 218.761 102.52 218.361C102.623 217.907 102.753 217.506 102.858 217.185C103.144 216.171 103.536 215.102 103.876 214.193C104.294 213.044 104.685 211.842 104.997 210.747C105.489 208.825 106.381 206.767 107.402 204.308C108.66 201.394 108.921 200.593 109.076 199.845C109.179 199.391 109.362 198.83 109.701 197.922C109.806 197.601 109.992 197.574 110.205 197.599ZM101.378 230.445C101.485 230.391 101.669 230.097 101.667 229.83C103.278 220.249 105.89 212.768 108.241 206.222L108.736 204.7C108.814 204.326 109.05 203.871 109.235 203.577C109.969 201.999 110.729 200.209 110.134 198.906C110.137 199.306 110.034 199.76 109.877 200.24C109.644 201.095 109.462 201.789 109.148 202.618L108.834 203.446C108.311 204.782 107.864 205.611 107.394 206.921C106.949 208.15 104.004 217.339 103.9 217.659C103.822 218.033 103.665 218.381 103.588 218.754C103.51 219.128 103.353 219.475 103.276 219.849C103.042 220.704 102.675 221.559 102.414 222.361C102.126 222.975 101.97 223.59 101.788 224.284C101.37 225.433 101.038 227.408 100.912 228.475C100.891 229.355 100.922 229.941 101.111 230.313C101.244 230.313 101.298 230.419 101.378 230.445Z" fill="#B98A44"/>
<path d="M108.304 196.091C108.918 196.247 109.346 196.564 109.563 197.123C110.131 198.373 108.972 200.299 108.395 201.529L108.343 201.689C107.974 202.278 107.974 202.278 105.011 208.934L101.077 217.623C100.265 219.574 99.3715 221.366 98.6116 223.156L98.5855 223.237C95.4371 230.054 92.6817 235.936 91.4522 242.982C91.3777 243.755 91.008 244.211 90.5313 244.587C90.0545 244.963 89.4428 245.073 88.6691 244.865C88.589 244.838 88.3758 244.813 88.2957 244.787C88.2157 244.761 88.1356 244.735 88.0024 244.735C87.0946 244.394 86.5872 244.184 86.3982 243.812C86.1813 243.253 86.416 242.532 87.1507 240.954C87.4645 240.126 87.9376 239.217 88.4609 237.881C89.5076 235.208 90.3709 232.963 91.1298 231.039C93.3257 225.107 94.974 220.858 100.89 209.892C101.862 207.993 102.836 206.361 103.625 204.89C105.703 201.225 106.993 199.031 107.932 196.279C107.905 196.226 108.144 196.038 108.304 196.091ZM88.6347 243.745C88.7148 243.771 88.7948 243.797 88.928 243.797C89.7809 243.898 90.1785 243.629 90.3591 242.802L90.6963 241.493C91.473 238.289 92.408 234.871 95.3963 228.001C99.6454 218.618 102.636 212.148 104.921 207.442C108.123 200.731 109.278 198.271 108.845 197.287C108.817 197.101 108.656 196.915 108.363 196.863C107.555 199.481 106.424 201.461 103.478 206.837L101.691 210.287C95.8566 221.413 94.4188 225.288 92.1708 231.38C91.4388 233.357 90.6286 235.575 89.5829 238.38L89.2169 239.369C88.6935 240.705 87.6981 243.084 87.5407 243.432C87.5407 243.432 87.5668 243.351 87.6468 243.378L87.9941 243.536C88.2613 243.667 88.4746 243.693 88.6347 243.745Z" fill="#B98A44"/>
<path d="M106.692 194.1C106.772 194.127 106.772 194.127 106.826 194.233C107.98 195.453 107.691 196.068 107.245 197.03C107.193 197.19 107.088 197.377 106.983 197.565C106.484 198.687 105.934 199.971 105.436 201.093C102.736 207.348 99.0413 215.982 84.9371 232.782C84.6205 233.211 84.3569 233.612 84.0133 233.987C82.9053 235.487 81.7693 236.8 79.9899 237.504L79.9638 237.584L79.8838 237.558C79.8037 237.532 79.6975 237.586 79.5644 237.586C79.5644 237.586 79.5644 237.586 79.4843 237.56C79.4042 237.534 79.3242 237.508 79.2702 237.402C78.7618 237.058 78.1381 235.435 78.5041 234.447C78.9222 233.298 80.5647 232.062 81.9409 230.827C82.8153 230.182 83.7157 229.457 84.3498 228.733C87.2578 225.65 90.108 221.927 92.9528 217.404C95.9028 212.694 98.8733 207.104 100.898 203.333C101.476 202.237 101.949 201.327 102.291 200.685C102.817 199.749 103.318 199.026 103.845 198.223C104.53 197.206 105.269 196.162 106.215 194.343C106.4 194.182 106.506 194.128 106.692 194.1ZM79.7981 236.732L80.0635 236.597C81.0458 236.165 81.8662 235.413 82.4211 234.797C96.9797 218.234 101.307 208.61 104.689 200.938L104.715 200.858C105.24 199.655 105.764 198.452 106.368 197.275C106.42 197.115 106.526 196.928 106.631 196.74C107.025 195.938 107.183 195.724 106.647 195.194C91.4319 224.665 85.9755 228.91 82.3468 231.758C81.5786 232.349 80.8635 232.913 80.1493 233.61C79.4352 234.308 79.1195 234.87 79.2023 235.296C79.3913 235.668 79.5291 236.334 79.7981 236.732Z" fill="#B98A44"/>
<path d="M105.138 192.617C105.298 192.669 105.485 192.774 105.646 192.96C106.558 193.968 106.136 194.45 105.025 195.55C104.125 196.409 101.861 200.101 98.9097 204.678C92.8776 214.232 84.632 227.185 81.8062 226.748C81.5129 226.697 81.3518 226.511 81.2177 226.379C81.1637 226.272 81.0828 226.113 81.0027 226.087L81.0288 226.007C80.9487 225.98 80.9748 225.9 80.8938 225.741C80.8324 224.568 84.5291 220.014 88.0936 215.593C89.7045 213.637 91.2092 211.736 92.3173 210.236C94.1386 207.906 95.5866 205.497 96.9825 203.25C99.0897 199.904 101.196 196.426 104.42 192.781L104.526 192.727C104.791 192.592 104.87 192.485 105.138 192.617ZM82.0399 225.894C82.12 225.92 82.12 225.92 82.2001 225.946C84.9934 225.53 91.3421 215.547 96.9534 206.742C100.035 201.765 102.985 197.055 105.256 194.296C105.388 194.161 105.414 194.081 105.413 193.948C105.359 193.842 105.091 193.577 105.037 193.47L105.011 193.55C102.845 196.123 99.5785 201.261 97.2878 205.034C94.2856 209.904 93.0453 211.538 89.5339 215.931C87.4742 218.45 85.9955 220.271 84.9135 221.691L84.623 222.039C81.85 225.388 81.85 225.388 81.9329 225.815C81.8798 225.842 81.8798 225.842 82.0399 225.894Z" fill="#B98A44"/>
<path d="M104.228 192.009C104.308 192.035 104.388 192.061 104.362 192.141C104.576 192.3 104.738 192.619 104.847 192.965C104.904 193.471 104.589 194.166 104.061 194.836C97.1119 202.716 92.2792 208.583 88.7408 212.923C82.1389 220.961 79.1816 224.604 73.2158 228.372C73.1097 228.426 66.0574 232.947 63.1775 232.404C63.0975 232.378 63.0975 232.378 63.0174 232.352L62.9373 232.326C62.1096 232.011 61.7586 231.32 61.7242 230.2L61.7503 230.12C61.7475 229.72 61.7448 229.32 61.8491 228.999C62.4776 227.476 64.2067 227.199 65.5624 226.845C65.8817 226.816 66.094 226.708 66.3333 226.653C74.8157 224.817 88.5017 209.165 96.6391 199.812C100.312 195.605 103.059 192.469 103.963 192.144C103.989 192.063 104.069 192.09 104.228 192.009ZM63.172 231.605C63.172 231.605 63.2521 231.631 63.3321 231.657C65.4652 232.044 71.0622 228.865 72.8388 227.761C78.5131 224.208 81.0216 221.127 88.6543 211.964C92.1405 207.784 96.8671 201.97 103.472 194.333C103.868 193.93 104.263 193.262 104.021 192.916C102.672 194.204 99.9772 197.313 96.463 201.306C90.201 208.435 81.6149 218.351 76.0514 222.517C73.4293 224.585 70.8827 226.013 68.0949 227.23C67.2988 227.634 66.5009 227.772 65.6498 227.937C64.3733 228.185 63.2569 228.485 62.7559 229.207C62.5194 229.662 62.4961 230.142 62.5808 230.835C62.6096 231.155 62.7446 231.42 63.172 231.605Z" fill="#B98A44"/>
<path d="M102.996 191.03C103.37 191.107 103.531 191.293 103.639 191.506C103.693 191.612 103.747 191.852 103.563 192.146C100.552 195.683 97.1428 199.489 92.8838 203.594C89.4981 206.92 85.8183 210.061 82.0574 213.043C73.7406 219.544 72.2275 220.247 69.9622 219.993L69.748 219.835C69.748 219.835 68.7546 218.667 69.3041 217.251C69.3562 217.091 69.5927 216.636 69.724 216.369C70.3302 215.459 71.3926 215.052 72.5612 214.592C73.1189 214.376 73.8089 214.025 74.4718 213.621C85.4581 208.037 95.2398 197.714 99.3638 193.344C100.607 192.11 101.241 191.387 101.532 191.172C101.904 190.983 102.41 190.926 102.863 191.03C102.916 191.003 102.996 191.03 102.996 191.03ZM70.2238 219.325C71.1829 219.373 72.2462 219.1 73.4399 218.426C86.6209 210.59 101.204 193.68 102.922 191.803C101.963 191.756 101.83 191.89 101.196 192.613C101.038 192.828 100.774 193.096 100.615 193.31C84.2242 210.604 77.0826 213.766 73.1533 215.495C72.2771 215.874 71.6132 216.144 71.1365 216.52C70.156 217.219 69.79 218.208 70.2238 219.325Z" fill="#B98A44"/>
<path d="M101.334 189.466C101.948 189.623 102.296 189.914 102.193 190.368C101.959 191.222 100.821 192.269 99.9467 192.914L99.5761 193.236C91.9008 200.08 84.2916 204.951 76.3511 208.118C74.4656 208.875 72.7095 209.099 71.3502 208.92C71.19 208.868 70.9768 208.843 70.8166 208.79C69.8027 208.503 69.2664 207.973 69.2664 207.973C68.9443 207.601 68.8875 207.095 69.044 206.614C69.3839 205.706 70.4444 205.033 71.3755 204.894C71.5618 204.866 71.9072 204.758 72.3327 204.675C76.3206 203.718 88.6046 200.953 98.6014 190.922L98.7597 190.708C99.2085 190.145 99.9227 189.448 100.534 189.338C100.695 189.39 100.934 189.335 101.014 189.362C101.174 189.414 101.254 189.44 101.334 189.466ZM71.2375 208.041C71.3977 208.094 71.5308 208.093 71.691 208.145C72.8911 208.405 74.487 208.129 76.1863 207.399C88.4835 202.687 100.392 191.818 101.262 190.507L101.314 190.346C101.314 190.346 101.234 190.32 101.154 190.294C101.073 190.268 101.074 190.268 100.993 190.242C100.913 190.215 100.833 190.189 100.674 190.27C100.594 190.244 100.222 190.433 99.3509 191.478L99.2187 191.612C94.1952 196.841 87.5134 201.039 79.9956 203.723C77.0738 204.807 74.7339 205.328 73.0328 205.791C70.72 206.365 69.5766 206.611 69.7422 207.463L69.7962 207.57C70.3298 207.7 70.7841 207.937 71.2375 208.041Z" fill="#B98A44"/>
<path d="M102.33 187.088C105.48 188.162 111.874 192.47 113.657 196.112C114.17 197.122 114.283 198.135 114.05 198.989C113.605 200.218 112.649 200.571 111.875 200.362C111.795 200.336 111.795 200.336 111.715 200.31C111.182 200.179 110.699 199.756 110.456 199.277C110.429 199.091 110.267 198.905 110.24 198.719C110.212 198.532 110.077 198.266 110.023 198.16C109.673 197.602 109.084 197.232 108.442 196.756C108.013 196.439 107.745 196.174 107.317 195.856C106.137 194.717 105.093 193.843 104.235 193.075C99.7877 189.182 98.7692 188.228 99.5039 186.651C99.556 186.491 99.7953 186.436 100.515 186.538C100.995 186.562 101.635 186.772 102.089 186.876C102.117 187.062 102.33 187.088 102.33 187.088ZM112.135 199.427C112.295 199.48 112.535 199.425 112.641 199.371C113.198 199.021 113.378 198.193 113.241 197.528C112.853 195.45 110.631 193.704 108.863 192.195L108.515 191.903C106.345 190.13 104.096 188.33 100.761 187.417C100.468 187.365 100.147 187.26 99.8269 187.156C99.8036 187.636 100.047 188.114 100.583 188.644C100.797 188.803 101.682 189.624 102.806 190.524C105.672 192.88 109.932 196.534 110.658 197.57C110.873 197.862 110.875 198.128 111.063 198.367C111.226 198.819 111.335 199.165 111.788 199.269C111.868 199.295 111.868 199.295 111.948 199.322L112.135 199.427Z" fill="#B98A44"/>
<path d="M102.964 182.551C106.993 183.647 115.405 190.876 116.704 193.961C116.921 194.52 117.274 195.478 116.826 196.173C116.51 196.602 116.323 196.63 115.872 196.792C115.686 196.82 115.446 196.875 115.206 196.796C115.126 196.77 115.046 196.744 115.046 196.744C113.659 196.379 111.703 194.631 111.565 193.965C111.537 193.778 111.616 193.671 111.642 193.591L111.828 193.563C111.908 193.59 111.988 193.616 111.962 193.696C112.312 194.254 112.742 194.705 113.25 195.048C113.758 195.392 114.401 195.868 114.934 195.998C115.014 196.024 115.014 196.024 115.094 196.05C115.255 196.103 115.414 196.022 115.494 196.048C115.6 195.994 115.839 195.939 115.839 195.939C116.317 195.697 116.125 194.924 115.855 194.393C114.585 191.761 105.985 184.293 102.597 183.407C102.517 183.38 102.437 183.354 102.304 183.355C102.011 183.303 101.824 183.331 101.718 183.385C101.612 183.439 101.532 183.413 101.453 183.52C101.11 184.029 101.574 185.599 101.82 186.477L101.928 186.823L103.025 187.537C103.079 187.643 103.16 187.803 103.134 187.883C103.082 188.043 102.976 188.097 102.763 188.071L101.399 187.226C101.265 187.094 100.531 184.992 100.471 184.086C100.441 183.499 100.677 183.045 100.915 182.723C101.285 182.401 101.711 182.319 102.378 182.448C102.697 182.42 102.884 182.525 102.964 182.551Z" fill="#B98A44"/>
<path d="M107.857 181.536C108.017 181.588 108.23 181.614 108.391 181.666C109.992 182.19 111.921 183.885 113.315 185.183C113.877 185.633 114.359 186.057 114.708 186.348C114.922 186.506 115.136 186.665 115.35 186.824C116.206 187.325 117.009 187.987 117.628 188.943C118.302 190.139 118.39 191.232 117.863 192.035C117.388 192.677 116.698 193.028 116.031 192.899C115.951 192.873 115.951 192.873 115.871 192.846C115.791 192.82 115.711 192.794 115.498 192.769C115.338 192.716 115.364 192.636 115.284 192.61C115.204 192.584 115.149 192.344 115.175 192.264C115.227 192.104 115.333 192.05 115.546 192.075C115.626 192.101 115.626 192.101 115.626 192.101C115.706 192.127 115.786 192.154 115.92 192.153C116.08 192.205 116.213 192.204 116.319 192.151C116.931 192.04 117.3 191.452 117.268 190.732C117.126 189.4 116.055 188.606 114.557 187.628C113.914 187.152 113.139 186.677 112.361 185.935C112.307 185.829 111.879 185.511 111.879 185.511C110.78 184.531 108.771 182.81 106.957 182.261C106.796 182.209 106.663 182.21 106.583 182.183C105.463 181.95 104.587 182.328 103.928 183.266C103.902 183.346 103.795 183.4 103.582 183.374C103.502 183.348 103.422 183.322 103.368 183.215C103.314 183.109 103.34 183.029 103.339 182.896C103.996 181.559 105.457 181.017 107.216 181.326C107.51 181.378 107.67 181.43 107.857 181.536Z" fill="#B98A44"/>
<path d="M93.4126 126.138L94.1118 127.121C95.7234 129.111 96.9625 131.156 98.3376 133.601C99.0656 134.903 99.6866 136.126 100.254 137.376C102.684 142.16 104.627 145.855 108.938 149.215C109.072 149.348 109.127 149.588 109.075 149.748C109.023 149.908 108.784 150.096 108.597 149.991C108.517 149.964 108.437 149.938 108.437 149.938C104.046 146.552 101.967 142.458 99.5915 137.779C97.9176 134.483 96.3229 131.08 93.555 127.47L92.8558 126.488L92.8278 126.302C92.8539 126.222 92.88 126.141 92.88 126.141L93.0662 126.114L93.1463 126.14L93.4126 126.138Z" fill="#B98A44"/>
<path d="M89.8059 120.614C89.8859 120.64 90.0992 120.666 90.1532 120.772C92.2731 123.106 95.3689 124.074 98.3837 124.882C99.8511 125.274 101.399 125.691 102.735 126.35C105.993 127.77 108.057 129.598 108.95 131.752C110.279 135.157 108.549 139.113 107.236 141.92L106.923 142.749C106.373 144.165 105.45 145.503 104.145 145.431C104.065 145.405 104.065 145.405 103.985 145.379C102.064 144.884 95.7515 140.868 92.7286 135.047C91.6226 133.001 90.9691 130.925 90.5512 128.262C90.4684 127.835 90.3855 127.409 90.3837 127.143L90.3008 126.717C90.0216 124.852 89.7163 123.067 89.1727 121.471C89.1187 121.365 89.1438 121.151 89.196 120.991C89.2481 120.831 89.3543 120.777 89.5666 120.669C89.4865 120.643 89.6457 120.562 89.8059 120.614ZM104.059 144.605C105.018 144.653 105.699 142.969 105.935 142.381L106.301 141.393C107.637 138.239 108.763 135.459 107.837 132.452C106.291 128.488 101.515 127.103 97.6993 126.033C94.7646 125.25 92.4686 124.411 90.5674 122.902C90.8131 123.781 90.9527 124.713 91.1994 125.725L91.1733 125.805C91.9812 130.946 92.9269 136.753 100.208 142.148C100.716 142.492 103.018 144.131 103.844 144.313L104.059 144.605Z" fill="#B98A44"/>
<path d="M237.344 110.035C237.424 110.062 237.504 110.088 237.478 110.168L237.426 110.328C237.032 111.13 229.932 112.532 229.852 112.506C228.92 112.645 227.883 112.838 226.872 112.95C223.812 113.368 220.195 114.003 217.646 115.031C216.424 115.518 215.364 116.191 214.409 116.81C214.303 116.864 214.144 116.945 214.064 116.919C213.904 116.866 213.716 116.761 213.662 116.521C213.634 116.335 213.659 116.121 213.898 116.067C215.807 114.829 217.135 114.288 219.074 113.636C221.519 112.929 224.126 112.54 226.68 112.178C230.059 111.732 233.518 111.311 237.13 109.877L237.344 110.035Z" fill="#B98A44"/>
<path d="M242.551 108.192C242.844 108.243 242.979 108.509 243.007 108.695C243.036 109.015 242.878 109.229 242.612 109.364C240.196 110.392 238.561 112.694 237.032 114.943C236.321 116.04 235.582 117.085 234.737 118.049C232.279 120.837 229.917 121.971 227.384 121.452C227.223 121.4 227.01 121.375 226.77 121.296C224.369 120.644 222.172 118.684 220.322 116.882C219.223 115.902 218.284 114.841 218.835 113.691C219.15 112.996 224.256 108.193 230.401 107.277C233.301 106.807 235.727 107.245 237.966 107.579C239.486 107.81 240.899 108.095 242.364 108.086L242.551 108.192ZM226.71 120.257C226.87 120.309 227.083 120.334 227.243 120.387C229.376 120.774 231.553 119.801 233.719 117.229C234.459 116.451 235.092 115.461 235.777 114.444C237.068 112.517 238.387 110.642 240.215 109.245C239.709 109.302 239.256 109.198 238.749 109.121L237.07 108.837C232.883 108.089 228.221 107.717 222.31 111.724C221.461 112.289 220.667 112.96 219.952 113.524C219.449 113.981 219.372 114.354 219.508 114.753C219.967 115.657 222.994 118.199 223.743 118.754C224.867 119.521 225.829 119.968 226.71 120.257Z" fill="#B98A44"/>
<path d="M148.791 174.308C155.381 176.109 161.367 179.086 166.134 182.951C166.188 183.057 166.242 183.163 166.243 183.297C166.217 183.377 166.111 183.431 165.871 183.485L165.711 183.433C161.238 179.753 155.76 176.986 149.543 175.264C147.836 174.794 146.049 174.431 144.236 174.149C142.556 173.865 140.744 173.583 138.906 173.514C138.532 173.436 138.477 173.196 138.529 173.036C138.582 172.876 138.766 172.581 139.006 172.66C140.552 172.811 142.044 172.988 143.564 173.219C145.377 173.502 147.11 173.892 148.791 174.308Z" fill="#B98A44"/>
<path d="M163.49 174.194C169.467 175.839 172.645 181.046 178.111 189.705C178.246 189.971 178.248 190.238 178.116 190.372C177.957 190.586 177.719 190.774 177.452 190.642C177.292 190.59 177.104 190.484 177.023 190.325L176.889 190.192C176.378 189.449 176.244 189.316 175.254 188.682C174.72 188.419 174.213 188.208 173.359 187.974C172.985 187.896 172.638 187.738 172.159 187.714C171.865 187.662 171.519 187.638 171.119 187.507C170.159 187.326 169.28 187.304 168.454 187.256C167.575 187.235 166.589 187.134 165.576 186.98L164.723 186.878C164.563 186.826 164.43 186.827 164.189 186.748L163.736 186.644L163.283 186.54C162.829 186.436 162.669 186.384 161.867 185.989C160.131 185.199 158.42 184.196 157 182.978C156.303 182.396 155.901 181.998 155.284 181.308C155.069 181.016 154.774 180.698 154.585 180.326L154.477 180.113C151.409 175.519 150.715 175.337 150.715 175.337L150.635 175.31L150.555 175.284L150.39 174.432L150.496 174.378C155.708 173.334 159.301 173.046 162.314 173.588C162.556 173.933 163.037 174.091 163.49 174.194ZM175.005 187.271C172.095 182.329 168.97 177.228 163.044 175.157C162.884 175.105 162.671 175.079 162.51 175.027C162.137 174.949 161.79 174.791 161.31 174.767C158.137 174.173 154.52 174.807 151.488 175.412C151.648 175.464 151.702 175.571 151.836 175.703C152.588 176.525 153.153 177.375 153.851 178.224C155.546 180.64 157.347 183.136 162.154 185.107C162.609 185.344 163.062 185.448 163.515 185.552C163.969 185.656 164.449 185.813 164.929 185.837C166.262 186.096 167.487 186.142 168.873 186.24C170.151 186.26 171.404 186.359 172.63 186.538C173.003 186.616 173.483 186.64 173.83 186.798C174.097 186.929 174.578 187.086 175.005 187.271Z" fill="#B98A44"/>
<path d="M177.269 121.909C177.989 122.145 183.278 128.352 184.582 131.971C184.989 133.035 185.182 134.073 185.082 135.06C184.965 137.327 183.992 139.093 182.912 140.779L182.517 141.448C182.122 142.117 181.753 142.705 181.412 143.347C180.177 145.781 179.343 148.479 178.562 151.016C178.511 151.31 178.245 151.444 177.979 151.446C177.819 151.394 177.632 151.288 177.577 151.049C177.033 149.452 176.518 148.042 176.083 146.791L175.948 146.526C173.313 139.103 173.313 139.103 175.215 129.173C175.522 127.278 176.065 125.062 176.446 122.394C176.524 122.02 176.895 121.831 177.269 121.909ZM178.044 149.206C179.819 144.156 180.846 142.497 181.821 140.999C182.348 140.062 182.849 139.339 183.477 137.816C183.895 136.667 184.049 135.786 184.044 135.12C184.105 132.347 181.895 128.52 177.469 123.881C177.113 126.336 176.675 128.498 176.474 130.206L176.423 130.499C174.833 139.334 174.833 139.334 177.064 146.226L177.092 146.412C177.337 147.157 177.637 148.142 178.044 149.206Z" fill="#B98A44"/>
<path d="M164.333 107.481C164.413 107.508 164.493 107.534 164.467 107.614C164.601 107.747 164.682 107.906 164.63 108.066C164.578 108.227 164.553 108.44 164.393 108.521C161.699 111.63 160.629 114.782 159.505 117.828C158.357 121.354 157.181 124.561 153.74 127.514C152.256 128.669 150.397 129.347 148.564 129.944C147.236 130.485 145.827 130.867 144.554 131.648C144.448 131.701 144.289 131.782 144.209 131.756C144.049 131.704 143.861 131.598 143.78 131.439C143.699 131.279 143.672 131.093 143.804 130.959C144.304 130.103 144.67 129.114 144.954 127.833C144.98 127.752 145.006 127.672 144.951 127.433C145.981 118.548 148.525 112.774 152.346 110.832C152.824 110.589 153.434 110.346 153.966 110.209C155.109 109.962 156.36 109.795 157.531 109.735C158.622 109.648 159.634 109.536 160.591 109.317C160.777 109.289 161.122 109.18 161.362 109.125C162.159 108.854 162.609 108.558 163.138 108.022L163.43 107.807L163.484 107.913C163.987 107.457 164.173 107.429 164.333 107.481ZM145.66 129.881C146.775 129.315 147.811 128.989 148.874 128.583C152.593 127.227 155.514 126.144 158.124 118.396L158.438 117.568C158.804 116.579 159.089 115.564 159.536 114.602C160.216 112.918 161.03 111.234 161.82 109.896C160.598 110.383 159.321 110.497 158.016 110.558C156.925 110.645 155.781 110.758 154.743 110.951C154.132 111.061 153.256 111.44 152.593 111.844C149.49 113.755 147.245 120.247 146.686 124.143C146.663 124.623 146.506 125.104 146.509 125.504C146.307 127.078 146.157 128.492 145.66 129.881Z" fill="#B98A44"/>
<path d="M132.464 100.872C132.757 100.923 132.892 101.189 132.84 101.349C132.685 105.909 133.452 108.998 134.028 111.447C134.493 113.151 134.85 114.642 134.834 116.188C134.829 119.334 133.885 121.553 132.705 124.093C131.446 126.873 130.003 130.081 129.799 135.201C129.747 135.361 129.722 135.575 129.562 135.656C129.43 135.79 129.191 135.845 129.031 135.792C128.871 135.74 128.684 135.634 128.603 135.475C127.927 134.012 126.802 133.113 125.463 132.054C124.204 131.022 122.812 129.857 121.707 128.077C118.367 122.551 119.885 114.89 122.969 110.313C124.393 108.251 126.168 106.881 127.784 105.725C129.533 104.435 131.096 103.306 131.748 101.302C131.852 100.982 132.118 100.847 132.464 100.872ZM128.774 133.314C129.25 128.992 130.589 126.238 131.77 123.698C133.319 120.57 134.551 117.736 133.587 113.076C133.504 112.65 133.367 112.118 133.231 111.585C132.684 109.589 132.053 106.9 131.868 103.248C131.104 104.506 129.859 105.473 128.668 106.413C125.674 108.67 122.337 111.303 121.457 118.907C121.414 120.267 121.342 121.44 121.536 122.612C121.598 123.785 122.388 126.393 123.759 128.171C124.512 129.26 125.582 130.054 126.467 130.875C127.245 131.75 128.049 132.412 128.774 133.314Z" fill="#B98A44"/>
<path d="M128.479 113.799L128.533 113.906L128.561 114.092L128.509 114.253C127.863 117.056 127.163 119.886 126.97 122.793C126.733 126.927 127.712 129.908 128.664 132.835C129.508 135.416 130.378 138.05 130.349 141.543C130.323 141.623 130.298 141.837 130.192 141.891C130.085 141.945 129.926 142.026 129.766 141.973C129.606 141.921 129.419 141.815 129.39 141.496C129.469 137.576 128.628 135.261 127.866 132.973C126.535 129.168 125.15 125.257 127.894 113.963C128.16 113.828 128.266 113.774 128.479 113.799Z" fill="#B98A44"/>
<path d="M153.161 117.039L153.295 117.172L153.323 117.358C150.121 124.069 147.091 128.753 142.81 133.604L142.704 133.658L142.354 133.1C144.943 130.179 147.501 126.538 148.713 124.584C149.714 123.005 150.477 121.614 151.265 120.143C151.685 119.261 151.817 119.127 152.343 118.057L152.789 117.095C152.895 117.041 153.001 116.987 153.161 117.039Z" fill="#B98A44"/>
<path d="M133.71 142.377C132.175 143.692 131.062 144.525 130.108 145.144L129.631 145.52C129.525 145.574 129.419 145.628 129.285 145.629C129.125 145.577 128.938 145.471 128.883 145.231C128.855 145.045 128.88 144.831 129.12 144.777L129.862 144.266C130.816 143.647 132.035 142.76 133.544 141.524L133.836 141.309L133.71 142.377Z" fill="#B98A44"/>
<path d="M179.939 134.531C180.099 134.583 180.153 134.69 180.128 134.903L179.842 135.918C178.445 141.845 178.516 148.164 178.611 154.269L178.64 154.588C178.65 156.055 178.816 156.907 179.141 157.678C179.25 158.024 179.33 158.05 179.224 158.104C179.278 158.211 179.252 158.291 179.252 158.424C179.12 158.558 178.961 158.639 178.801 158.587C178.641 158.534 178.587 158.428 178.453 158.295C178.264 157.923 178.182 157.631 178.02 157.312C177.829 156.673 177.715 155.66 177.681 154.541L177.65 153.954C177.636 151.821 177.67 149.128 177.812 146.515C177.977 143.421 178.227 141.02 178.608 138.485C179.486 134.427 179.646 134.479 179.939 134.531Z" fill="#B98A44"/>
<path d="M175.66 85.7385C175.74 85.7646 175.82 85.7908 175.794 85.871C177.259 89.8082 177.157 94.2081 175.195 103.231C174.008 108.651 172.473 113.912 171.174 118.586L170.759 120.135C170.707 120.428 170.468 120.483 170.282 120.511C170.122 120.458 169.988 120.459 169.934 120.353C169.881 120.246 169.907 120.166 169.932 119.953C170.165 119.098 170.399 118.244 170.739 117.335L170.869 116.801C174.018 106.304 177.896 93.2972 175.29 86.1939C175.236 86.0876 175.262 86.0074 175.342 85.9003C175.473 85.6329 175.58 85.7123 175.66 85.7385Z" fill="#B98A44"/>
<path d="M174.375 80.9738L174.455 80.9999C176.14 81.9498 177.398 82.9822 178.367 84.3628C180.221 86.8314 183.759 93.9292 183.843 98.3012C183.998 105.312 176.919 109.913 172.731 112.711C172.625 112.765 172.466 112.846 172.306 112.794C172.145 112.741 172.091 112.635 171.958 112.636L170.877 110.376C168.014 104.474 167.689 103.703 170.385 96.9145L170.909 95.7116C172.822 91.1944 174.787 86.517 173.556 81.8585C173.528 81.672 173.553 81.4585 173.685 81.3244C173.87 81.0301 174.109 80.9753 174.375 80.9738ZM172.749 111.431C177.76 108.282 182.926 104.386 183.017 98.2528C182.967 94.867 179.711 86.2212 175.107 82.8091C175.687 85.7918 174.966 89.3687 173.371 93.5907C172.847 94.7936 172.455 95.9957 172.009 96.8249C169.232 103.453 169.232 103.453 172.151 109.728L172.749 111.431Z" fill="#B98A44"/>
<path d="M202.997 103.147C203.53 103.277 204.171 103.486 204.705 103.75C204.865 103.802 204.919 103.909 204.894 104.122C204.842 104.282 204.736 104.336 204.523 104.311C204.443 104.285 204.443 104.285 204.229 104.259C203.856 104.181 203.402 103.944 203.081 103.839C202.628 103.736 202.147 103.578 201.748 103.581C198.895 103.091 195.969 103.508 193.394 104.75C192.73 105.021 192.12 105.397 191.669 105.56C189.493 106.666 189.174 106.828 185.634 107.089C184.729 107.148 183.399 107.289 182.604 107.827C182.338 107.962 182.232 108.016 182.046 108.043C181.966 108.017 181.832 107.885 181.699 107.885C181.645 107.779 181.671 107.699 181.67 107.566C181.696 107.485 181.722 107.405 181.828 107.351C183.234 106.57 184.645 106.455 186.029 106.42C187.014 106.387 188.106 106.301 189.089 106.002C189.727 105.812 190.443 105.381 191.239 104.976C193.601 103.842 196.892 102.17 201.398 103.023C202.116 102.859 202.516 102.99 202.997 103.147Z" fill="#B98A44"/>
<path d="M205.139 97.1087C207.78 97.8396 210.398 99.0505 212.887 100.795L212.941 100.902C212.915 100.982 212.809 101.036 212.783 101.116C212.65 101.25 212.466 101.544 212.414 101.705L212.388 101.785L212.228 101.733C209.096 99.5115 206.666 98.5394 204.025 97.8085C203.172 97.7069 202.825 97.549 202.531 97.4974C202.371 97.445 202.238 97.4458 202.132 97.4997C201.972 97.4474 201.733 97.5021 201.359 97.4243C192.676 97.1558 191.791 100.147 190.986 103.031C190.648 104.207 190.363 105.355 189.49 106.266C189.918 106.584 190.426 106.794 191.066 107.004C191.227 107.056 191.44 107.081 191.6 107.134C194.212 107.545 198.094 106.642 202.241 105.604C205.272 104.866 208.542 104.074 211.257 103.898L211.337 103.924L211.365 104.111C211.288 104.484 211.21 104.725 211.159 105.152L211.133 105.232C208.046 105.463 205.388 106.146 202.702 106.775C199.858 107.485 196.933 108.169 193.685 108.348C192.887 108.352 192.221 108.356 191.554 108.227C191.261 108.175 191.021 108.097 190.834 107.991C189.286 107.574 188.376 106.833 188.265 106.22C188.237 106.034 188.262 105.82 188.394 105.686C189.294 104.828 189.58 103.813 190.024 102.584C190.179 101.97 190.387 101.195 190.782 100.526C192.12 97.639 196.791 95.3984 203.11 96.4008C203.831 96.7698 204.498 96.8992 205.139 97.1087Z" fill="#B98A44"/>
<path d="M143.796 60.5986C143.876 60.6247 143.93 60.7311 144.011 60.8906C144.293 63.1551 144.52 65.1801 144.639 66.9924C145.125 71.762 145.499 75.7857 146.892 80.8965C148.231 85.7677 148.425 86.8064 148.712 89.8708C148.741 90.1905 148.769 90.377 148.637 90.5111C148.531 90.565 148.504 90.6452 148.291 90.6198L148.184 90.5404C148.024 90.4881 147.837 90.3825 147.782 90.1429C147.782 90.1429 147.722 89.2367 147.72 88.8368C147.544 86.5183 146.888 84.1759 146.338 81.6463C145.846 79.7562 145.379 77.6527 145.044 75.5484C144.598 72.5649 144.368 70.1401 143.962 65.3967L143.53 60.7334L143.583 60.5732C143.61 60.6263 143.69 60.6525 143.796 60.5986Z" fill="#B98A44"/>
<path d="M140.851 46.7783C141.011 46.8307 141.065 46.937 141.199 47.0696C143.813 51.5599 145.912 54.6403 147.713 57.1358C152.124 63.4552 153.04 64.9962 149.698 70.7749C148.303 73.1561 147.226 75.2421 146.284 77.5939C146.232 77.8875 145.887 77.9961 145.727 77.9438C145.567 77.8914 145.353 77.866 145.273 77.8398C141.618 76.8216 138.564 74.2269 137.103 70.9561C136.537 69.8397 136.182 68.6153 136.068 67.6029C135.985 67.1768 135.984 66.9101 135.981 66.5102L135.952 66.1905C135.978 66.1103 135.975 65.7104 135.946 65.3906C135.936 63.9243 136.243 62.0295 137.132 59.7047C137.524 58.6359 137.89 57.6472 138.256 56.6586C139.171 54.2536 140.115 52.0351 140.337 49.4476C140.386 48.8874 140.329 48.3811 140.326 47.9812C140.347 47.1013 140.344 46.7014 140.85 46.645L140.851 46.7783ZM145.371 76.5861C146.655 73.5924 147.788 71.746 148.763 70.2472C149.868 68.3477 150.552 67.1972 150.754 65.4896C150.748 64.6898 150.692 64.3169 150.446 63.4385C149.957 61.9483 149.069 60.5938 147.402 58.3641C145.87 56.2669 143.987 53.6119 141.214 49.2024C141.049 52.2962 139.977 55.182 138.983 57.8274C137.937 60.4998 137.075 63.0111 137.012 65.3843C137.04 65.7041 137.016 66.0509 137.017 66.1842L137.045 66.3706C137.048 66.7705 137.131 67.1966 137.133 67.4632C137.246 68.4757 137.711 70.1793 139.083 72.2242C141.125 74.7983 143.076 75.8798 145.371 76.5861Z" fill="#B98A44"/>
<path d="M224.722 148.557C224.802 148.583 224.936 148.715 224.937 148.849C224.885 149.009 224.779 149.063 224.646 149.064L221.503 149.056C220.704 149.06 219.878 149.012 219.053 149.097C213.834 149.074 209.333 149.021 205.12 152.165C205.014 152.219 204.855 152.3 204.775 152.274C204.615 152.222 204.428 152.116 204.373 151.877C204.345 151.69 204.37 151.477 204.476 151.423C208.634 148.039 214.307 148.165 221.418 148.363C222.618 148.489 223.577 148.537 224.722 148.557Z" fill="#B98A44"/>
<path d="M227.141 144.116C229.542 144.769 231.786 145.769 234.056 146.688C235.098 147.162 236.166 147.556 237.128 148.003C237.581 148.107 237.69 148.453 237.639 148.747C237.588 149.04 237.296 149.255 236.897 149.258L236.817 149.232C236.657 149.179 236.363 149.128 236.203 149.075C236.043 149.023 235.75 148.971 235.59 148.919C232.577 148.377 229.443 149.702 226.789 150.917C226.125 151.188 225.435 151.538 224.877 151.755C222.222 152.837 220.013 153.09 218.04 152.755C217.747 152.704 217.507 152.625 217.186 152.52C215.479 152.051 214.035 151.179 212.51 150.149L211.654 149.647C211.494 149.595 211.439 149.355 211.491 149.195C211.543 149.035 211.648 148.847 211.862 148.873C212.153 148.658 213.079 147.719 214.19 146.753L214.297 146.699C215.461 145.705 216.414 144.82 216.519 144.633C216.89 144.31 218.456 143.581 220.452 143.436C221.863 143.321 223.407 143.339 225.22 143.621C225.38 143.674 225.674 143.725 225.86 143.697C226.127 143.829 226.581 143.933 227.141 144.116ZM216.886 151.402C217.046 151.455 217.339 151.506 217.499 151.559C218.352 151.66 219.205 151.762 220.349 151.649C222.318 151.317 224.415 150.451 226.327 149.614C228.557 148.614 230.814 147.667 232.997 147.494C230.406 146.47 228.137 145.684 226.136 145.162C225.203 144.901 224.429 144.692 223.629 144.564C220.323 143.97 217.849 144.358 216.366 145.647C215.89 146.023 215.069 146.774 214.275 147.445C213.455 148.197 212.581 148.975 212.158 149.324C214.268 150.192 215.498 151.037 216.886 151.402Z" fill="#B98A44"/>
<path d="M212.613 130.498C212.693 130.524 212.747 130.631 212.827 130.657C212.881 130.763 212.855 130.843 212.776 130.951C209.684 134.328 207.152 137.889 205.234 141.607C205.182 141.767 204.943 141.955 204.756 141.849C204.596 141.797 204.542 141.691 204.408 141.558C204.354 141.452 204.379 141.238 204.405 141.158C206.535 137.2 209.358 133.424 212.294 130.527L212.613 130.498Z" fill="#B98A44"/>
<path d="M202.08 147.624L202.134 147.73L202.162 147.917C202.058 148.371 201.798 149.306 201.798 149.306C201.383 150.854 200.965 152.003 200.519 152.966C200.467 153.126 200.228 153.314 200.041 153.209C199.881 153.156 199.827 153.05 199.693 152.917C199.639 152.811 199.664 152.598 199.69 152.517C200.505 150.966 200.557 150.806 200.923 149.817C201.027 149.363 201.341 148.668 201.707 147.68C201.787 147.706 201.893 147.519 202.08 147.624Z" fill="#B98A44"/>
<path d="M218.073 119.028C218.366 119.08 218.581 119.372 218.583 119.638C219.155 132.992 216.132 134.93 211.73 137.569C210.51 138.323 209.291 139.076 207.993 140.204C206.722 141.251 206.061 141.922 205.745 142.35C205.454 142.698 205.322 142.832 205.162 142.78C205.082 142.754 204.869 142.729 204.815 142.622L203.451 141.777C203.317 141.645 203.236 141.485 203.288 141.325C203.724 138.896 204.186 136.52 204.545 134.465C205.135 131.156 205.543 128.54 206.12 127.311C207.534 123.916 215.125 120.192 217.914 119.109C217.78 118.976 217.913 118.976 218.073 119.028ZM205.074 141.687C207.32 139.141 209.388 137.823 211.191 136.639C215.168 134.082 217.607 132.575 217.337 120.472C214.072 121.931 208.209 125.112 207.002 127.732C206.582 128.614 206.402 129.575 206.223 130.669L205.347 134.86C204.318 140.199 204.162 140.68 204.087 141.32L204.54 141.424L205.074 141.687Z" fill="#B98A44"/>
<path d="M204.719 67.3566C204.88 67.409 205.093 67.4344 198.948 91.493C198.845 91.9469 198.525 91.9754 198.445 91.9493C198.285 91.8969 198.152 91.8977 198.098 91.7913C198.044 91.685 198.07 91.6049 197.989 91.4454C198.067 91.205 204.24 67.3328 204.719 67.3566Z" fill="#B98A44"/>
<path d="M208.222 54.0048C208.382 54.0572 208.569 54.1627 208.624 54.4023L208.707 54.8284C209.988 62.8727 212.195 77.8702 200.873 84.896C200.767 84.9499 200.661 85.0039 200.448 84.9785C200.287 84.9261 200.233 84.8198 199.993 84.7412C195.448 78.2893 194.577 71.709 197.499 66.8126C198.605 65.0464 200.272 63.4635 201.94 62.0139C204.374 59.8398 206.969 57.5849 207.452 54.3293C207.504 54.169 207.503 54.0357 207.609 53.9818C207.956 54.0064 208.062 53.9524 208.222 54.0048ZM200.731 83.5638C210.484 76.8672 208.792 63.2797 207.895 56.7796C206.847 59.1853 204.834 60.8769 202.902 62.5947C201.235 64.0443 199.434 65.4947 198.408 67.2872C194.828 73.3872 198.363 80.0851 200.731 83.5638Z" fill="#B98A44"/>
<path d="M221.238 83.8422C221.318 83.8684 221.452 84.0009 221.453 84.1342C221.401 84.2945 221.295 84.3485 221.162 84.4826L220.577 84.5127C220.097 84.4889 220.017 84.4627 219.592 84.5452C217.302 84.6387 215.175 85.1846 212.836 85.8383C210.152 86.6007 207.521 87.3362 204.219 87.409L204.139 87.3828C203.846 87.3313 203.711 87.0654 203.763 86.9052C203.815 86.7449 203.866 86.4513 204.16 86.5029C207.54 86.3229 210.067 85.7747 212.486 85.1472C215.25 84.4109 217.802 83.7826 221.238 83.8422Z" fill="#B98A44"/>
<path d="M224.338 77.7184C225.725 78.0835 227.167 78.6881 228.557 79.4531C229.573 80.007 230.696 80.6402 231.606 81.2481C232.783 81.9876 233.985 82.647 235.188 83.3065C235.536 83.4644 235.565 83.7841 235.459 83.9714C235.408 84.265 235.197 84.5062 234.85 84.4816C229.071 84.4092 225.593 85.9761 222.62 87.3535C220.895 88.1635 219.435 88.8387 217.918 89.0077C216.562 89.229 214.776 88.9996 213.389 88.7679C212.429 88.5869 211.523 88.379 210.802 88.1433C210.509 88.0917 210.268 88.0132 210.081 87.9076C209.467 87.618 207.837 86.7744 207.752 86.0817C207.724 85.8953 207.749 85.6818 207.988 85.6271C208.889 84.9019 209.814 83.9633 210.766 82.9445C213.78 79.8072 217.244 76.2407 223.004 77.3264C223.564 77.5097 223.884 77.6144 224.338 77.7184ZM212.13 87.6022C212.663 87.7324 213.224 87.9157 213.783 87.9657C215.383 88.2228 216.902 88.3205 217.833 88.1817C219.375 87.9326 220.755 87.2312 222.454 86.368C225.107 85.0192 228.026 83.5355 232.765 83.2675C232.15 82.9778 231.562 82.6081 230.921 82.3986C229.906 81.8447 228.889 81.1575 227.847 80.6838C226.377 79.8926 225.069 79.4204 223.761 79.0816C223.308 78.9776 222.908 78.8467 222.428 78.8228C217.522 77.972 214.957 80.5468 212.022 83.5769C211.096 84.5156 210.145 85.5343 208.979 86.3944C209.754 86.7364 210.796 87.2102 212.13 87.6022Z" fill="#B98A44"/>
<path d="M166.508 133.197C166.588 133.224 166.722 133.356 166.723 133.489C166.697 133.569 166.672 133.783 166.432 133.704C165.101 133.846 163.824 133.96 162.6 134.047C159.219 134.227 156.29 134.378 152.946 135.944C152.84 135.998 152.76 135.972 152.627 135.972C152.466 135.92 152.279 135.814 152.224 135.575C152.196 135.388 152.302 135.201 152.461 135.12C155.806 133.687 159.426 133.453 162.887 133.299C164.059 133.238 165.177 133.205 166.374 133.065L166.508 133.197Z" fill="#B98A44"/>
<path d="M167.768 126.738C168.222 126.842 168.702 126.999 169.21 127.209L170.732 127.84C172.334 128.497 172.334 128.497 174.203 129.153L175.885 129.836L175.914 130.156C175.863 130.449 175.863 130.449 175.811 130.609L175.708 131.063L175.547 131.011C171.781 129.38 168.898 128.304 166.897 127.783C166.443 127.679 166.043 127.548 165.697 127.523C162.951 127.113 162.052 128.105 159.966 130.57C158.988 131.669 157.826 133.062 156.186 134.698C157.308 135.198 158.776 135.723 160.164 136.088C160.884 136.323 161.551 136.453 162.271 136.555C162.644 136.633 163.124 136.657 163.55 136.708C167.574 137.137 168.845 136.09 170.513 134.64C171.678 133.647 172.896 132.626 175.233 131.706L175.419 131.678L175.448 131.998C175.37 132.372 175.214 132.853 175.19 133.199C173.704 133.955 172.749 134.573 172.007 135.084L171.53 135.461C170.762 136.052 170.233 136.588 169.596 136.912C167.926 137.961 165.637 138.188 162.704 137.672C162.065 137.596 161.371 137.414 160.678 137.231C158.356 136.605 156.486 135.683 155.15 135.024L155.07 134.998L155.016 134.892L155.252 134.437L155.198 134.331L155.224 134.251C155.833 133.74 156.89 132.534 157.999 131.168C159.478 129.346 161.063 127.471 162.097 126.878C163.291 126.204 164.728 126.009 166.487 126.319C167.048 126.502 167.448 126.633 167.768 126.738Z" fill="#B98A44"/>
<path d="M176.253 144.498C176.336 144.924 176.338 145.19 176.421 145.617C165.911 154.637 133.299 179.172 128.097 181.683C125.603 182.951 123.007 184.939 120.886 186.418C119.906 187.117 119.033 187.895 118.263 188.353C117.972 188.568 117.787 188.729 117.415 188.918L117.15 189.053C117.044 189.107 116.884 189.188 116.804 189.162C116.644 189.109 116.457 189.004 116.402 188.764C116.374 188.578 116.399 188.364 116.532 188.23C123.814 182.321 125.565 181.431 127.316 180.408C128.138 179.923 128.96 179.438 130.392 178.576C131.453 177.904 160.045 157.418 175.853 144.367L176.118 144.232L176.253 144.498Z" fill="#B98A44"/>
<path d="M201.072 121.315C201.152 121.341 201.232 121.367 201.286 121.474C201.5 121.632 201.503 122.032 201.291 122.14L201.159 122.274C197.167 126.51 191.748 132.408 182.617 140.461L182.323 140.409C182.401 140.035 182.453 139.875 182.638 139.714C182.796 139.5 183.007 139.125 183.267 138.191C191.709 130.622 195.278 126.868 200.513 121.398C200.646 121.397 200.753 121.343 201.072 121.315Z" fill="#B98A44"/>
<path d="M207.831 151.323C207.991 151.375 208.179 151.614 208.153 151.694C208.101 151.854 208.076 152.068 207.756 152.096C201.929 152.851 198.211 154.206 194.252 155.482C187.025 157.951 179.533 160.422 158.974 160.437C157.59 160.472 156.684 160.397 156.684 160.397C156.39 160.346 156.255 160.08 156.308 159.92C156.36 159.759 156.465 159.572 156.704 159.517C156.704 159.517 157.529 159.432 158.994 159.424C181.705 158.783 187.975 156.666 193.979 154.551C197.592 153.25 201.046 152.163 207.671 151.27L207.831 151.323Z" fill="#B98A44"/>
<path d="M175.997 61.2876C176.077 61.3138 176.077 61.3138 176.131 61.4201C176.345 61.5789 176.374 61.8986 176.215 62.1129L172.68 66.8529C163.312 79.3061 156.531 88.3046 150.898 97.8562C144.137 109.787 139.215 122.054 134.53 133.867C130.186 144.904 125.944 155.353 120.628 164.477C113.655 176.649 110.374 183.467 110.348 183.547C110.215 183.681 109.977 183.869 109.79 183.764C109.71 183.738 109.71 183.738 109.71 183.738C109.496 183.579 109.388 183.366 109.519 183.099C110.672 180.373 113.507 174.517 115.111 171.495C116.032 169.89 119.109 164.379 121.763 159.218C126.152 150.766 129.686 141.947 133.35 132.727C138.063 121.101 142.96 109.048 149.801 97.1429C155.512 87.3508 161.925 78.9411 168.735 70.129C169.763 68.7365 170.766 67.4242 171.769 66.1118C172.693 64.9065 173.458 63.9155 173.933 63.2728C175.2 61.559 175.516 61.1305 175.997 61.2876Z" fill="#B98A44"/>
<path d="M157.074 66.7587C157.157 67.1848 157.266 67.5307 157.481 67.8227C156.383 70.7887 155.285 73.7547 154.106 76.5611L154.054 76.7214C151.645 82.7612 149.132 88.9883 147.549 94.9433C145.887 101.005 144.889 106.93 144.533 109.385C144.484 109.945 144.327 110.426 144.301 110.506C144.25 110.8 144.011 110.855 143.825 110.882C143.531 110.831 143.477 110.724 143.422 110.485C143.435 108.538 144.277 103.228 145.052 99.7572C145.62 97.061 146.346 94.2838 147.101 91.8265C148.587 87.1252 150.759 81.6734 152.853 76.4619C154.269 73.2008 155.55 69.8072 156.7 66.6809L156.963 66.1461L157.074 66.7587Z" fill="#B98A44"/>
<path d="M162.481 43.8776C162.641 43.9299 162.828 44.0355 162.724 44.356L162.729 45.0226C162.559 47.4498 162.389 49.877 161.67 53.7206C161.299 53.9094 161.088 54.1506 160.822 54.2855L160.557 54.4204L160.528 54.1006C161.432 50.096 161.622 46.7888 161.716 44.8686L161.765 44.3084C161.791 44.2282 161.817 44.1481 161.923 44.0942C162.162 43.9061 162.268 43.8522 162.481 43.8776Z" fill="#B98A44"/>
<path d="M111.001 93.3201C111.161 93.3725 111.429 93.6375 111.377 93.7978L111.563 97.5827C112.591 126.825 110.13 148.275 108.746 159.881C108.29 163.323 108.042 165.991 107.975 167.831C107.587 173.246 107.959 177.003 108.19 179.694L108.25 180.6C108.333 181.027 108.31 181.507 108.151 181.721C108.045 181.775 107.939 181.829 107.78 181.91C106.472 181.571 105.941 170.269 107.155 160.957L107.335 159.996C109.153 145.695 111.521 126.164 110.524 93.6962C110.55 93.6161 110.575 93.4026 110.601 93.3225C110.708 93.2685 110.814 93.2146 110.973 93.1336L111.001 93.3201Z" fill="#B98A44"/>
<path d="M132.954 83.1651C133.628 84.3609 127.181 107.035 127.102 107.275C126.626 107.651 126.334 107.866 126.096 108.055L125.804 108.27L125.802 107.87C126.972 103.863 130.016 93.4206 131.62 86.719L132.371 83.5952C132.423 83.4349 132.661 83.2468 132.848 83.2191L132.954 83.1651Z" fill="#B98A44"/>
<path d="M120.93 123.522C121.013 123.948 121.176 124.401 121.392 124.826C119.435 130.703 118.1 133.991 117.498 135.567L117.395 136.021L116.642 134.932L116.719 134.559C117.163 133.33 118.655 129.561 120.797 123.523L120.926 122.989L120.93 123.522Z" fill="#B98A44"/>
<path d="M111.566 147.947C111.622 148.453 111.679 148.959 111.736 149.465C110.426 152.539 109.402 154.732 108.876 155.668C108.824 155.828 108.585 155.883 108.425 155.83C108.264 155.778 108.131 155.779 108.077 155.673C108.023 155.566 108.049 155.486 108.049 155.353C108.362 154.524 108.677 153.829 109.201 152.626C109.7 151.504 110.302 150.06 111.166 147.949L111.566 147.947Z" fill="#B98A44"/>
<path d="M157.977 135.594C158.031 135.701 158.778 135.989 158.992 136.148L159.072 136.174L159.02 136.335C152.633 144.664 123.007 177.314 113.562 186.195C113.429 186.329 113.349 186.303 113.11 186.357C112.95 186.305 112.763 186.199 112.708 185.96C112.68 185.773 112.705 185.56 112.837 185.426L112.969 185.292C123.068 174.541 149.66 146.042 157.817 135.675L157.95 135.541L157.977 135.594Z" fill="#B98A44"/>
<path d="M221.257 67.4453C221.418 67.4976 221.605 67.6032 221.686 67.7627C221.714 67.9491 221.688 68.1626 221.582 68.2165C212.42 79.4954 203.477 87.9201 194.745 95.9704C184.584 105.415 174.926 114.271 165.589 127.311C165.109 127.287 164.604 127.343 164.098 127.399L163.912 127.427L163.963 127.134C174.065 113.103 183.909 104.086 194.362 94.5596C202.883 86.7505 211.748 78.6995 220.779 67.5547C220.832 67.5278 221.071 67.473 221.257 67.4453Z" fill="#B98A44"/>
<path d="M171.721 89.9477C171.801 89.9739 171.881 90.0001 171.935 90.1065C171.989 90.2128 171.963 90.2929 171.964 90.4262C167.05 103.76 165.6 113.526 163.403 127.084L163.377 127.164L163.297 127.137C163.163 127.005 163.163 127.005 163.083 126.979C163.003 126.953 162.871 127.087 162.713 127.301L162.421 127.516L162.312 127.17C164.227 111.348 167.812 98.4227 170.535 91.6878L171.216 90.0041C171.323 90.0834 171.402 89.9763 171.721 89.9477Z" fill="#B98A44"/>
<path d="M138.782 136.454C139.155 136.532 139.593 138.183 139.837 138.794C140.773 143.268 139.549 147.168 138.297 151.015C137.227 154.167 136.157 157.319 136.369 161.024C136.343 161.104 136.318 161.318 136.292 161.398C136.186 161.452 136.026 161.533 135.866 161.48C135.573 161.429 135.519 161.323 135.464 161.083C135.386 157.511 136.428 154.172 137.523 150.806C139.089 146.131 140.602 141.616 138.465 136.883L138.438 136.696C138.464 136.616 138.49 136.536 138.57 136.562L138.782 136.454Z" fill="#B98A44"/>
<path d="M140.88 127.963C141.04 128.016 141.228 128.121 141.309 128.281C146.574 138.781 146.289 143.742 140.182 150.124L139.865 150.552C138.913 151.571 138.465 152.133 137.645 153.018C137.513 153.152 137.354 153.233 137.194 153.181C137.114 153.154 137.033 153.128 137.033 153.128C136.899 152.996 133.902 146.961 133.821 146.802C130.872 140.207 133.777 136.724 136.762 133.134C137.95 131.66 139.244 130.133 140.137 128.341C140.189 128.048 140.507 127.886 140.88 127.963ZM137.371 151.82C137.952 151.123 138.533 150.427 139.088 149.81C143.342 145.039 146.063 141.85 140.628 129.965C139.839 131.436 138.676 132.696 137.672 133.875C134.792 137.144 132.098 140.253 134.67 146.37C135.238 147.62 135.779 148.817 136.453 150.012L136.507 150.119C136.778 150.784 137.101 151.288 137.371 151.82Z" fill="#B98A44"/>
<path d="M160.472 146.031C160.552 146.057 160.606 146.163 160.687 146.323C160.768 146.482 160.636 146.616 160.529 146.537C158.273 147.617 155.669 148.539 152.908 149.675C149.721 150.893 146.507 152.192 143.853 153.408C143.747 153.462 143.667 153.436 143.533 153.436C143.373 153.384 143.186 153.278 143.131 153.039C143.103 152.852 143.208 152.665 143.368 152.584C146.155 151.368 149.423 150.175 152.477 148.958C155.212 147.902 157.816 146.98 160.153 146.059L160.472 146.031Z" fill="#B98A44"/>
<path d="M164.352 141.049C168.461 142.171 172.021 144.709 173.439 145.794C173.654 145.953 173.79 146.352 173.685 146.672C173.608 147.046 173.316 147.261 172.917 147.263C168.659 147.689 164.14 148.782 160.875 150.374C156.787 152.318 154.895 152.009 152.735 151.702C151.456 151.55 150.203 151.317 148.261 151.569L148.181 151.542C148.02 151.49 147.966 151.384 147.965 151.25C147.992 151.17 148.017 150.957 148.256 150.902C148.628 150.713 149.234 149.803 149.628 149.001C149.97 148.492 150.313 147.984 150.471 147.77L151.477 146.857C155.466 142.221 156.629 140.961 159.263 140.626C160.38 140.459 161.579 140.452 162.859 140.738C163.339 140.895 163.952 140.918 164.352 141.049ZM149.188 150.897C150.359 150.836 151.638 150.855 152.704 150.982C154.41 151.186 156.007 151.176 157.575 150.714C158.213 150.523 158.903 150.173 159.805 149.714C161.981 148.608 165.193 147.043 170.991 145.968C168.502 144.223 165.99 142.959 163.509 142.28C162.975 142.15 162.415 141.967 161.935 141.943C161.642 141.891 161.376 141.893 161.082 141.841C158.472 141.697 157.382 142.05 155.266 144.062C154.631 144.652 151.351 147.924 150.427 149.13L150.27 149.477C149.98 149.825 149.638 150.467 149.188 150.897Z" fill="#B98A44"/>
<path d="M135.47 169.641C135.396 170.415 130.591 172.656 130.06 172.926C128.229 173.79 126.184 174.629 124.431 175.252C124.351 175.226 124.245 175.28 124.245 175.28C124.084 175.228 123.897 175.122 123.842 174.883C123.814 174.696 123.92 174.509 124.159 174.454C127.586 173.314 131.039 171.96 135.071 169.644L135.257 169.616L135.337 169.642L135.47 169.641Z" fill="#B98A44"/>
<path d="M148.326 161.033C148.486 161.086 148.673 161.191 148.808 161.457C148.836 161.644 148.891 161.883 148.733 162.097C145.357 166.89 136.736 175.553 130.871 174.654L130.791 174.628C130.631 174.576 130.418 174.55 130.258 174.498C128.71 174.08 127.772 173.153 127.717 172.913L127.743 172.833L127.769 172.753C128.052 171.338 133.411 164.534 137.607 162.936C137.979 162.748 138.484 162.691 138.91 162.609L139.096 162.581C140.133 162.388 141.225 162.302 142.369 162.188C144.365 162.043 146.201 161.846 147.848 161.143C148.06 161.035 148.166 160.981 148.326 161.033ZM130.144 173.485C130.304 173.538 130.437 173.537 130.597 173.589C135.663 174.493 142.963 167.171 146.501 162.83C145.199 163.291 143.788 163.273 142.51 163.387C141.499 163.5 140.434 163.506 139.397 163.699L139.211 163.727C138.28 163.866 136.073 164.385 132.185 168.301C130.705 169.856 129.596 171.222 128.727 172.667C128.941 172.826 129.315 173.037 129.663 173.195C129.824 173.381 129.931 173.46 130.144 173.485Z" fill="#B98A44"/>
<path d="M214.561 108.037C214.911 108.595 213.192 114.151 213.166 114.231C212.54 116.155 211.676 118.266 210.916 119.924C210.863 120.084 210.625 120.272 210.438 120.166C210.278 120.114 210.091 120.008 210.09 119.875C210.036 119.769 210.062 119.689 210.061 119.555C211.555 116.187 213.024 112.899 214.217 108.279C214.162 108.04 214.268 107.986 214.561 108.037Z" fill="#B98A44"/>
<path d="M218.049 92.553C218.343 92.6046 218.504 92.7902 218.505 93.0568C219.58 98.1962 219.564 103.689 218.296 108.949C217.752 111.165 216.762 114.343 213.735 115.614C212.938 115.886 212.166 115.944 211.953 115.918C211.019 115.657 210.631 109.634 210.524 109.554C210.103 102.545 211.977 100.188 214.038 97.8024C215.201 96.5424 216.23 95.1499 217.014 93.0123C217.357 92.637 217.649 92.422 218.049 92.553ZM212.425 114.876C212.825 114.873 213.117 114.791 213.488 114.603C216.011 113.521 216.843 110.69 217.282 108.661C218.13 104.15 218.232 99.7506 217.562 95.2754C216.88 96.6925 216.008 97.7374 215.136 98.6491C213.127 100.874 211.489 102.777 211.722 109.414C211.789 111.52 212.068 113.251 212.425 114.876Z" fill="#B98A44"/>
<path d="M137.59 187.359C137.75 187.411 137.804 187.517 137.779 187.731C137.727 187.891 137.621 187.945 137.408 187.92C136.02 187.555 134.74 187.269 133.408 187.144C130.662 186.733 127.89 186.403 124.053 186.079L121.655 185.827C121.281 185.749 121.226 185.509 121.278 185.349C121.331 185.189 121.515 184.894 121.755 184.973C123.94 185.2 128.258 185.681 132.204 186.351C134.177 186.686 135.75 187.023 137.138 187.388L137.59 187.359Z" fill="#B98A44"/>
<path d="M137.839 181.012C137.999 181.064 138.292 181.116 138.453 181.168C142.912 182.848 147.811 190.524 149.029 193.317C149.057 193.503 149.112 193.743 148.98 193.877C148.847 194.011 148.609 194.199 148.422 194.093L148.262 194.041C146.846 193.356 145.51 192.698 143.882 192.254C143.589 192.202 143.349 192.124 143.028 192.019L142.948 191.993C142.175 191.917 141.509 191.788 140.418 191.874C140.018 191.877 139.593 191.959 139.246 191.935C137.836 192.05 136.744 192.136 134.398 191.724L133.945 191.62C133.651 191.568 133.411 191.489 133.224 191.384C132.21 191.097 131.703 190.886 130.554 190.333C128.122 189.094 125.067 186.366 124.953 185.221C124.925 185.034 125.03 184.847 125.189 184.766C128.766 182.079 132.77 179.709 137.09 180.456C137.279 180.828 137.519 180.907 137.839 181.012ZM147.265 192.341C145.433 189.259 141.506 183.763 138.115 182.477C137.955 182.424 137.662 182.373 137.502 182.32C137.209 182.269 137.048 182.216 136.781 182.084C136.408 182.007 136.008 182.009 135.502 181.932C131.906 181.82 128.805 183.865 126.128 185.694C127.631 187.471 129.134 189.115 132.445 190.375C132.978 190.505 133.433 190.743 133.806 190.821C134.179 190.898 134.419 190.977 134.74 191.082C135.033 191.133 135.299 191.132 135.7 191.263C137.324 191.306 138.496 191.246 139.48 191.08C140.571 190.994 141.582 190.881 143.022 191.086C143.395 191.164 143.875 191.187 144.355 191.345C145.289 191.606 146.197 191.947 147.265 192.341Z" fill="#B98A44"/>
<path d="M95.6705 156.093C96.0178 156.251 96.205 156.356 96.5262 156.594C98.0252 157.705 99.1833 159.591 100.073 161.212L100.208 161.478C103.199 166.446 105.521 171.018 106.926 174.049L107.331 174.847C107.385 174.953 107.44 175.193 107.308 175.327C107.176 175.461 107.017 175.542 106.856 175.49C106.696 175.437 106.642 175.331 106.508 175.198L106.237 174.533C102.159 166.239 99.4058 160.95 97.7933 158.826C96.583 157.1 95.3279 156.601 95.3279 156.601C95.1677 156.549 95.1128 156.309 95.219 156.255C95.2711 156.095 95.3773 156.041 95.6705 156.093Z" fill="#B98A44"/>
<path d="M90.0484 144.101C90.2086 144.154 90.2626 144.26 90.4767 144.419C90.8268 144.977 95.1347 147.937 95.8572 148.44L96.954 149.153C99.9222 150.922 100.806 151.61 101.718 152.617C104.942 156.731 104.054 163.002 103.647 165.75C103.597 166.31 103.441 166.791 103.548 166.871L103.522 166.951L103.416 167.005L102.887 167.541L102.833 167.435C101.277 165.818 99.4326 164.815 97.6691 163.973C93.9002 161.942 90.3724 160.123 90.1885 152.792C90.2118 152.312 90.155 151.806 90.1783 151.326C90.1654 149.46 90.2298 147.22 89.364 145.252C89.229 144.986 89.3072 144.746 89.4395 144.612C89.4097 144.159 89.7551 144.05 90.0484 144.101ZM102.636 165.996C102.634 165.596 102.737 165.142 102.813 164.635C102.889 163.995 103.071 163.434 103.095 162.954C103.17 162.314 103.158 160.581 102.911 159.569C102.85 158.396 102.549 157.278 102.223 156.24C101.544 154.378 100.736 153.05 99.4519 152.231C98.4352 151.544 97.5796 151.042 96.697 150.488C95.2268 149.696 93.7827 148.825 92.0957 147.475C91.8815 147.317 91.5873 147.132 91.24 146.974L90.8928 146.816C91.2493 148.307 91.2334 149.853 91.2696 151.24C91.2463 151.72 91.303 152.226 91.2797 152.706C91.3393 153.612 91.3178 154.359 91.4835 155.211C92.2886 159.952 94.8546 161.323 97.7418 162.932C99.4243 163.616 101.055 164.459 102.636 165.996Z" fill="#B98A44"/>
<path d="M115.805 144.855C115.885 144.882 115.939 144.988 116.019 145.014C118.009 151.561 119.734 158.51 118.949 164.327C118.9 164.887 118.875 165.1 118.746 165.768L118.697 166.328C118.645 166.621 118.38 166.756 118.22 166.704C118.06 166.651 117.927 166.652 118.006 166.545C117.952 166.439 117.871 166.279 117.897 166.199C119.178 158.86 117.972 153.988 115.648 145.203L115.699 144.909C115.619 144.883 115.725 144.829 115.805 144.855Z" fill="#B98A44"/>
<path d="M115.338 131.314C115.499 131.366 115.686 131.472 115.767 131.631C117.254 134.822 118.731 136.68 119.94 138.272C120.532 139.042 121.176 139.785 121.635 140.688C123.76 143.822 124.375 147.924 123.522 151.635C122.851 154.785 120.691 158.157 119.453 160.191L119.321 160.325C119.295 160.405 119.056 160.46 118.895 160.408L118.815 160.382C116.895 159.886 110.252 154.3 110.847 147.978C111.095 145.31 111.958 143.065 112.742 140.928C113.814 138.042 114.808 135.396 114.384 131.933C114.356 131.746 114.407 131.453 114.514 131.399C114.859 131.29 115.098 131.236 115.338 131.314ZM118.836 159.502C120.813 156.557 122.209 154.309 122.775 151.48C124.066 145.606 121.835 142.66 118.906 138.865C117.885 137.511 116.783 136.131 115.733 134.458C115.672 137.231 114.704 139.663 113.762 142.015C111.851 146.799 110.152 151.474 116.131 157.331C117.069 158.126 117.952 158.814 118.836 159.502Z" fill="#B98A44"/>
<path d="M138.075 99.6919C138.155 99.7181 138.289 99.8506 138.264 100.064C137.587 106.094 138.34 111.128 140.51 116.848C140.564 116.954 140.539 117.167 140.487 117.328C140.355 117.462 140.196 117.543 140.036 117.49C139.875 117.438 139.821 117.332 139.687 117.199C137.626 111.826 136.975 106.204 137.758 100.12L137.81 99.9601C137.915 99.6395 137.995 99.6657 138.075 99.6919Z" fill="#B98A44"/>
<path d="M138.312 80.1741C138.393 80.2003 138.473 80.2265 138.66 80.332C140.806 82.5855 142.29 85.3762 143.056 88.3312C143.412 89.8221 143.716 91.34 143.674 92.9667C143.647 96.7261 142.546 99.2922 141.339 101.912C140.106 104.612 138.848 107.526 138.958 111.818C138.906 111.978 138.906 112.111 138.8 112.165C138.694 112.219 138.588 112.273 138.375 112.248C138.215 112.195 138.161 112.089 138.027 111.957C136.296 108.154 134.92 105.576 133.842 103.716C131.28 99.0656 130.795 98.242 133.843 92.4116C135.631 89.095 137.759 84.8698 137.465 80.8723C137.437 80.6858 137.542 80.4986 137.728 80.3375C137.806 80.0971 137.992 80.0693 138.312 80.1741ZM138.064 109.663C138.389 106.622 139.49 104.056 140.458 101.624C142.291 97.0808 144.045 92.7778 140.856 85.9713C140.288 84.7215 139.561 83.5527 138.647 82.4117C138.514 86.2251 136.648 89.7822 134.912 92.9385C132.099 98.1809 132.395 98.6324 134.636 103.045C135.605 104.559 136.711 106.605 138.064 109.663Z" fill="#B98A44"/>
<path d="M124.156 70.1797C124.236 70.2059 124.29 70.3122 124.371 70.4717L124.454 70.8978C124.567 71.9103 124.681 72.9228 124.906 74.6811C125.325 77.4781 126.313 81.7915 127.248 85.9985C128.977 93.4802 129.774 97.0215 129.325 97.5841L129.193 97.7182C129.113 97.692 129.113 97.692 129.033 97.6658C128.873 97.6134 128.686 97.5079 128.631 97.2682C127.795 91.9408 126.915 87.9734 126.066 84.4591C125.049 79.9593 124.196 76.045 123.652 70.5026L123.704 70.3423C123.73 70.2622 123.81 70.2884 123.97 70.2075L124.156 70.1797Z" fill="#B98A44"/>
<path d="M123.502 56.5327C123.662 56.5851 123.716 56.6914 123.85 56.824L127.947 63.8384C128.783 65.3532 129.644 66.6545 130.214 68.1709C130.431 68.7295 130.701 69.3944 130.838 69.9268C132.558 75.9422 129.49 82.9191 127.655 87.0626C127.604 87.3561 127.258 87.4648 127.098 87.4125C126.938 87.3601 126.805 87.3609 126.751 87.2545C125.971 86.246 124.981 85.4787 123.936 84.605C122.811 83.7052 121.607 82.7792 120.719 81.558C117.844 77.7357 118.934 73.7033 120.413 68.0689C121.27 64.8911 122.23 61.2594 122.733 56.9905C122.785 56.8303 122.784 56.697 122.969 56.5359C123.156 56.5081 123.262 56.4542 123.502 56.5327ZM127.14 85.7858C130.051 79.2898 131.327 75.0963 130.094 70.1712C129.387 67.9891 128.39 66.2887 125.265 61.1881L123.731 58.8243C123.281 63.0662 122.372 66.4043 121.646 69.1814C119.932 75.5371 118.865 79.0894 124.595 83.668L124.649 83.7743C125.399 84.3298 126.336 84.9907 127.14 85.7858Z" fill="#B98A44"/>
<path d="M186.016 169.902C186.176 169.954 186.23 170.06 186.205 170.274C186.153 170.434 186.047 170.488 185.834 170.463C185.834 170.463 185.834 170.463 184.66 170.123C183.566 169.81 182.312 169.577 181.033 169.425C178.02 168.883 174.902 168.528 171.624 168.254C168 167.822 164.349 167.471 160.403 166.801C159.923 166.777 159.363 166.594 158.91 166.49C158.616 166.438 158.481 166.172 158.533 166.012C158.586 165.852 158.77 165.557 159.01 165.636C159.863 165.737 160.69 165.919 161.544 166.154C165.65 166.876 168.928 167.283 171.966 167.612C174.525 167.917 177.003 168.195 179.696 168.633C181.802 168.967 183.829 169.408 186.016 169.902Z" fill="#B98A44"/>
<path d="M177.524 162.647C179.552 163.221 181.744 164.382 184.393 166.312L184.528 166.445C187.151 168.455 189.934 170.385 194.824 172.783C195.117 172.834 195.226 173.18 195.174 173.34C195.123 173.634 194.938 173.795 194.725 173.903L190.87 174.726C184.195 176.045 182.439 176.402 180.068 176.203C179.588 176.179 179.109 176.155 178.629 175.998C178.175 175.894 177.776 175.896 177.295 175.739C172.172 174.33 167.589 170.038 164.854 167.414C164.72 167.282 164.665 167.042 164.718 166.882C164.77 166.722 164.875 166.534 165.114 166.48C166.31 166.073 167.37 165.4 168.431 164.727C170.684 163.247 173.045 161.847 176.537 162.413C176.831 162.598 177.231 162.595 177.524 162.647ZM177.449 174.858C177.902 174.962 178.383 175.119 178.862 175.143C179.236 175.221 179.715 175.245 180.142 175.296C182.406 175.416 183.948 175.033 190.569 173.608L192.962 173.06C188.928 171.164 186.385 169.313 184.083 167.674C182.745 166.749 181.515 165.903 180.258 165.137C179.162 164.557 178.173 164.056 177.186 163.822C176.893 163.77 176.653 163.692 176.332 163.587C173.319 163.045 171.092 164.445 169.103 165.656C168.175 166.195 167.327 166.76 166.344 167.192C170.34 171.248 173.5 173.789 177.449 174.858Z" fill="#B98A44"/>
<path d="M118.69 100.047C118.77 100.073 118.905 100.205 118.879 100.419L118.827 100.579C118.752 101.219 118.65 101.94 118.444 102.848C117.539 106.852 115.331 111.051 112.423 114.134L112.291 114.269C112.133 114.483 111.842 114.831 111.549 114.78C111.469 114.753 111.389 114.727 111.415 114.647C111.281 114.514 111.252 114.195 111.384 114.061L111.781 113.658C112.284 113.202 112.839 112.586 113.815 111.353C117.59 106.559 118.402 100.662 118.4 100.395L118.452 100.235C118.53 99.9942 118.61 100.02 118.69 100.047Z" fill="#B98A44"/>
<path d="M123.468 86.1808C123.761 86.2324 123.922 86.4181 123.924 86.6847C124.314 89.1619 124.838 91.7717 125.096 94.383C126.308 107.947 121.718 110.347 113.957 112.552C113.877 112.526 113.851 112.606 113.771 112.58C113.611 112.528 113.557 112.421 113.423 112.289C113.369 112.183 113.314 111.943 113.42 111.889C113.866 110.926 113.884 109.78 113.425 108.743C112.021 105.978 111.869 103.313 113.05 100.773C113.599 99.3568 114.388 97.8858 115.391 96.5734C116.708 94.566 117.712 93.3869 118.849 92.2071C120.117 90.7598 121.387 89.4459 123.044 86.5299C122.882 86.211 123.174 86.1292 123.468 86.1808ZM114.587 111.295C124.444 107.958 125.213 103.687 122.977 88.37C121.687 90.5639 120.471 91.8509 119.361 93.0839C117.855 94.7192 116.321 96.3013 114.534 99.7512C113.719 101.302 113.457 101.837 113.275 102.532C112.626 104.935 113.276 106.477 113.898 107.834C114.358 109.004 114.818 110.041 114.587 111.295Z" fill="#B98A44"/>
<path d="M99.747 106.398C99.8271 106.424 99.9072 106.45 99.8811 106.53C100.612 108.232 101.125 109.242 103.54 111.894C103.942 112.292 104.291 112.716 104.774 113.14C107.402 115.817 110.647 119.051 111.186 123.927C111.24 124.033 111.135 124.22 111.109 124.3C111.003 124.354 110.844 124.435 110.683 124.383C110.523 124.331 110.336 124.225 110.281 123.985C109.824 119.536 107.302 116.804 104.513 113.941C103.305 112.615 102.098 111.29 100.968 109.723L100.537 109.006C99.9722 108.156 99.9722 108.156 99.5654 107.092L99.3764 106.72C99.3224 106.613 99.3485 106.533 99.4276 106.426C99.5608 106.425 99.6669 106.371 99.747 106.398Z" fill="#B98A44"/>
<path d="M96.7354 98.3637C97.1889 98.4676 98.1506 98.9152 98.2316 99.0747C106.248 103.027 110.444 112.867 108.35 118.078C108.297 118.238 108.059 118.426 107.872 118.321C103.492 116.534 96.1387 112.178 95.1222 107.678C94.7918 106.107 95.1811 104.638 95.5964 103.09C95.9596 101.701 96.2437 100.42 95.9952 99.1413C95.9672 98.9548 95.9924 98.7414 96.0445 98.5811C96.1768 98.447 96.336 98.366 96.4151 98.2589L96.5753 98.3113C96.6553 98.3375 96.7354 98.3637 96.7354 98.3637ZM107.625 117.309C107.676 117.015 107.781 116.695 107.805 116.348C108.336 112.266 105.432 104.444 97.28 100.093C97.3675 101.186 97.0555 102.281 96.7705 103.429C96.615 104.043 96.4334 104.738 96.384 105.298C95.8717 108.234 97.2692 110.065 100.27 112.687C101.877 114.01 103.51 115.254 105.327 116.203C106.049 116.572 106.877 116.887 107.625 117.309Z" fill="#B98A44"/>
<path d="M102.609 85.078C102.689 85.1041 102.743 85.2105 102.824 85.37C102.999 87.6885 104.402 90.3197 106.129 93.4556C108.152 97.1762 110.391 101.322 111.465 106.462C111.519 106.568 111.494 106.781 111.387 106.835C111.281 106.889 111.122 106.97 110.936 106.998C110.776 106.946 110.589 106.84 110.614 106.627C109.486 101.381 107.327 97.2611 105.464 93.5928C103.818 90.4831 102.495 87.8781 102.265 85.4532L102.317 85.293C102.369 85.1327 102.369 85.1327 102.609 85.078Z" fill="#B98A44"/>
<path d="M104.508 67.1234C104.668 67.1757 104.722 67.2821 104.856 67.4146C112.557 79.5534 110.523 89.7503 109.004 97.1446L108.746 98.3459C108.694 98.6395 108.403 98.8545 108.003 98.8569C107.923 98.8307 107.843 98.8045 107.843 98.8045C106.827 98.1173 105.92 97.9094 105.145 97.5674C103.143 96.9127 101.303 96.4436 98.923 91.232C97.5712 88.3072 97.2091 86.0165 97.0305 83.298C97.097 77.512 99.195 72.8338 104.111 67.3923C104.003 67.1797 104.242 67.1249 104.508 67.1234ZM107.777 96.9652C109.116 90.2652 111.015 79.9358 104.226 68.6714C97.5412 76.2829 96.0184 83.2773 99.6381 90.6679C101.934 95.3201 103.401 95.7114 105.296 96.2867C106.017 96.5224 106.763 96.6779 107.699 97.2056L107.777 96.9652Z" fill="#B98A44"/>
<path d="M153.404 52.1699L153.458 52.2762C153.512 52.3825 156.741 64.7878 156.609 65.0552L156.772 65.5075C156.855 65.9336 157.018 66.3859 157.021 66.7858C156.995 66.8659 157.023 67.1857 157.025 67.4523C157.054 67.7721 157.031 68.2521 157.031 68.2521L156.925 68.3061L156.899 68.3862L156.792 68.4402C156.096 67.8577 156.037 66.9516 155.951 66.1256C155.948 65.7257 155.946 65.4591 155.837 65.1131C153.087 52.465 153.112 52.2516 153.218 52.1976L153.324 52.1437L153.404 52.1699Z" fill="#B98A44"/>
<path d="M153.012 34.042C153.306 34.0936 153.601 34.4118 153.524 34.7855C153.165 36.8406 154.056 38.595 155.188 40.5613C156.401 42.687 157.696 45.1056 157.961 48.7833C158.162 50.8884 157.776 52.757 157.461 53.4521C156.993 55.1612 155.857 56.4744 155.063 57.1456C154.215 57.7105 153.471 57.9549 152.618 57.8533C152.538 57.8271 152.458 57.8009 152.325 57.8017C149.31 56.9931 147.38 51.3522 147.258 49.14C147.145 48.1275 147.163 46.9809 147.421 45.6463C148.163 41.3227 150.084 38.0053 152.136 34.4204C152.401 34.1523 152.666 34.0174 153.012 34.042ZM152.665 56.8932C152.745 56.9194 152.745 56.9194 152.825 56.9456C153.278 57.0495 153.81 56.9131 154.288 56.6703L154.684 56.268C154.684 56.268 155.267 55.838 156.057 54.5002C157.71 50.9178 156.718 46.2045 155.101 43.4146C154.858 42.9361 154.562 42.4846 154.319 42.0061L154.265 41.8998C153.321 40.1724 152.459 38.7377 152.235 37.1127C150.605 40.2151 148.687 43.9325 148.526 47.5594C148.507 48.706 148.433 49.6129 148.761 50.7841C149.391 53.3399 150.904 56.4504 152.665 56.8932Z" fill="#B98A44"/>
<path d="M170.407 42.5243L170.461 42.6306L170.489 42.8171C169.352 47.8096 167.594 51.5793 164.825 55.4616L164.693 55.5957L164.585 55.3831C164.557 55.1966 164.476 55.0371 164.448 54.8506C167.297 50.9945 168.976 47.3319 170.115 42.606C169.982 42.6068 170.247 42.4719 170.407 42.5243Z" fill="#B98A44"/>
<path d="M179.886 26.871C180.179 26.9225 180.42 27.1344 180.422 27.401C180.531 27.747 180.453 27.9874 180.188 28.2556C177.256 31.6856 176.007 35.799 174.702 39.6726C173.372 43.7598 172.069 47.9001 169.004 51.3309C167.867 52.5108 166.332 53.9596 166.306 54.0397C166.174 54.1738 166.015 54.2547 165.855 54.2024C165.775 54.1762 165.561 54.1508 165.507 54.0445C164.808 53.0621 164.561 48.1045 165.356 43.7539C167.374 35.2368 171.537 32.5194 175.168 30.0716C176.493 29.1306 177.739 28.2967 178.77 27.3041L178.877 27.2502C179.3 26.9011 179.487 26.8733 179.886 26.871ZM166.483 52.6789C170.251 50.7636 172.103 45.0737 173.899 39.1442C174.889 35.9655 175.879 32.7869 177.245 30.086L176.742 30.5422C175.23 31.3777 173.692 32.2933 172.289 33.4747C167.049 38.2782 165.071 44.902 166.483 52.6789Z" fill="#B98A44"/>
<path d="M190.338 51.7911C190.418 51.8173 190.498 51.8435 190.472 51.9236L190.421 52.2172C186.07 58.5085 180.905 62.5384 173.761 65.3002C173.655 65.3541 173.575 65.3279 173.575 65.3279C173.414 65.2755 173.227 65.17 173.172 64.9304C173.144 64.7439 173.25 64.5567 173.489 64.5019C180.873 61.6854 185.641 58.0578 189.966 51.98C190.018 51.8197 190.178 51.7388 190.338 51.7911Z" fill="#B98A44"/>
<path d="M202.774 44.0656C202.934 44.1179 203.121 44.2235 203.256 44.4893C203.284 44.6758 203.313 44.9955 203.101 45.1034C199.586 48.9636 197.29 52.0699 195.55 54.5598C190.986 60.8256 189.482 62.8608 178.062 63.3817L177.982 63.3555C177.821 63.3031 177.634 63.1976 177.579 62.958C177.605 62.8778 177.632 62.7977 177.631 62.6644C178.608 61.5655 178.705 60.1785 178.801 58.6582C178.965 55.4311 179.231 51.4836 187.59 47.3015C191.146 45.4942 195.111 45.0174 198.969 44.5947C200.087 44.4281 201.311 44.3408 202.428 44.1743C202.588 44.0933 202.588 44.0933 202.774 44.0656ZM178.801 62.4708C188.861 61.6381 190.629 59.2014 194.346 53.767C195.955 51.5446 197.854 48.8405 200.893 45.4898C200.255 45.6802 199.536 45.7111 198.845 45.7952C195.066 46.2441 191.553 46.5582 188.023 48.2855C180.167 52.1446 179.845 55.5859 179.627 58.7066C179.556 60.0135 179.511 61.2402 178.801 62.4708Z" fill="#B98A44"/>
<path d="M162.492 60.8611C162.572 60.8873 162.626 60.9936 162.707 61.1531C163.879 68.8514 162.129 73.8209 161.582 75.5038L161.504 75.8775C161.061 77.2399 160.857 78.5475 160.759 79.8012C160.579 80.7621 160.533 81.7222 160.352 82.5498C160.301 82.8434 160.036 82.9783 159.875 82.9259C159.715 82.8735 159.582 82.8743 159.528 82.768C159.474 82.6617 159.5 82.5815 159.419 82.422C159.679 81.4873 159.806 80.5534 159.905 79.5663C160.082 78.2055 160.287 77.0312 160.784 75.6418C160.836 75.4816 160.887 75.188 161.072 75.0269C161.753 73.3432 162.666 70.5383 162.492 64.6737C162.456 63.2875 162.342 62.2751 162.257 61.5824L162.229 61.2626L162.281 61.1023C162.306 60.8889 162.412 60.8349 162.492 60.8611Z" fill="#B98A44"/>
<path d="M164.229 50.2127C164.523 50.2643 164.684 50.45 164.685 50.7166C164.825 51.6489 165.019 52.6876 165.291 53.6191C166.893 61.9015 168.637 71.3827 162.037 75.8743C161.931 75.9283 161.825 75.9822 161.611 75.9568C161.451 75.9045 161.264 75.7989 161.183 75.6394C160.696 74.5492 159.996 73.4335 159.323 72.371C158.892 71.6537 158.382 71.0435 158.031 70.3524C154.499 64.1878 156.579 56.8435 163.725 50.4023C163.724 50.269 163.909 50.1079 164.229 50.2127ZM161.761 74.5429C166.818 70.3004 165.404 62.2569 163.992 54.3467C163.826 53.4945 163.741 52.8018 163.575 51.9496C155.929 59.1136 156.663 65.1614 157.829 68.114C158.371 69.4439 159.178 70.6389 160.065 71.8601C160.603 72.6567 161.222 73.6129 161.761 74.5429Z" fill="#B98A44"/>
<path d="M171.037 79.5271C171.117 79.5533 171.171 79.6596 171.251 79.6858C171.305 79.7922 171.279 79.8723 171.199 79.9794C167.602 83.5467 162.112 86.672 157.221 88.0874C157.141 88.0612 157.115 88.1413 157.035 88.1151C156.875 88.0628 156.688 87.9572 156.633 87.7176C156.605 87.5311 156.71 87.3439 156.976 87.209C162.211 85.6849 167.172 82.9627 170.85 79.5549L171.037 79.5271Z" fill="#B98A44"/>
<path d="M186.71 66.3434C186.79 66.3696 186.924 66.5021 187.113 66.741C187.14 66.9274 187.169 67.2472 186.718 67.4098L186.612 67.4638C185.628 67.7629 184.733 69.2879 183.68 71.0272C183.154 71.9634 182.495 72.9005 181.888 73.6773C180.858 74.9365 179.722 76.2496 178.505 77.4033C173.716 81.9108 168.543 84.7409 162.748 86.215C162.668 86.1888 162.561 86.2428 162.561 86.2428C162.401 86.1904 162.214 86.0848 162.133 85.9254C162.079 85.819 162.024 85.5794 162.076 85.4191C162.154 85.0454 162.39 84.5907 162.52 84.0567C163.485 81.2249 165.549 75.4271 170.309 70.5997C174.805 66.0406 178.348 66.3129 181.891 66.4519C183.437 66.6027 184.875 66.6742 186.364 66.3188C186.471 66.3981 186.577 66.3442 186.71 66.3434ZM163.537 84.8772C168.801 83.5396 173.257 81.0071 177.916 76.9002C180.905 73.9764 182.009 71.9436 182.957 70.3916C183.483 69.4553 183.904 68.7063 184.617 67.8755C184.005 67.9858 183.207 67.9905 182.248 67.9429L181.608 67.8667C179.263 67.7206 178.118 67.7007 176.259 68.3783C174.586 69.028 172.968 70.0508 171.302 71.767C166.753 76.2198 164.82 81.6169 163.721 84.4496L163.537 84.8772Z" fill="#B98A44"/>
<path d="M220.897 61.4751C220.951 61.5814 220.925 61.7948 220.66 61.9297C215.48 67.6393 212.218 73.4442 209.9 80.9766C209.849 81.2702 209.61 81.3249 209.423 81.3527C209.263 81.3003 209.13 81.3011 209.076 81.1948C209.022 81.0884 209.048 81.0083 209.073 80.7949C212.77 68.6152 220.337 61.425 220.79 61.529L220.897 61.4751Z" fill="#B98A44"/>
<path d="M227.378 43.7334C227.538 43.7857 227.592 43.8921 227.806 44.0508C227.86 44.1571 227.915 44.3967 227.863 44.557L227.837 44.6371C227.157 46.4542 226.879 48.5354 226.574 50.6968C225.709 56.4876 224.768 62.9186 217.565 68.7202L216.796 69.3113C215.287 70.5467 213.645 71.7829 212.805 73.5475C212.752 73.7078 212.514 73.8959 212.327 73.7903C212.167 73.7379 211.98 73.6324 211.925 73.3928C210.664 60.5226 212.208 52.7815 223.269 46.4239C225.949 44.9949 226.397 44.4324 226.477 44.3253C226.659 43.7643 227.085 43.6818 227.378 43.7334ZM212.767 71.8947C213.61 70.6633 214.775 69.6699 216.152 68.5686C219.621 65.6686 223.803 62.0712 225.144 51.8251L225.167 51.3451C225.422 49.7438 225.597 47.9831 225.984 46.2478C225.693 46.4628 225.375 46.758 224.923 46.9206C220.839 49.2644 214.101 53.0903 212.94 62.3754C212.482 65.4176 212.588 69.1763 212.767 71.8947Z" fill="#B98A44"/>
<path d="M192.653 116.966C192.733 116.992 192.867 117.124 192.842 117.338C192.79 117.498 192.684 117.552 192.551 117.553C185.624 117.061 182.939 117.823 180.413 118.371L180.307 118.425C179.881 118.508 179.43 118.67 178.924 118.727L177.967 118.946C175.468 119.547 173.048 120.041 170.898 121.067C170.34 121.284 170.076 121.552 169.996 121.526C169.89 121.58 169.81 121.553 169.677 121.554C169.516 121.502 169.383 121.503 169.329 121.396C169.275 121.29 169.301 121.21 169.3 121.076C169.326 120.996 169.353 120.916 169.459 120.862C171.899 119.488 174.798 118.884 177.616 118.254L178.653 118.062C179.159 118.005 179.611 117.843 180.036 117.76C182.72 116.998 185.565 116.288 192.653 116.966Z" fill="#B98A44"/>
<path d="M192.507 111.287C192.961 111.391 193.361 111.522 193.736 111.733C194.697 112.181 195.395 112.897 195.985 113.533C197.809 115.415 199.63 116.898 202.224 118.455C202.438 118.614 202.6 118.933 202.415 119.094C202.363 119.254 202.098 119.523 201.832 119.524C199.833 119.269 198.474 119.224 195.629 119.801C194.858 119.992 194.06 120.13 193.21 120.428C190.339 121.218 187.149 122.037 184.056 121.469C183.896 121.417 183.683 121.391 183.523 121.339C183.363 121.286 183.229 121.287 183.069 121.235C182.055 120.948 181.148 120.606 180.186 120.159L179.571 119.869C179.037 119.606 178.343 119.423 177.57 119.214C177.276 119.163 176.956 119.058 176.636 118.953L176.556 118.927C176.395 118.875 176.208 118.769 176.127 118.61C176.099 118.423 176.044 118.184 176.177 118.05C179.707 112.51 186.774 110.122 191.6 110.946C192.028 111.264 192.347 111.235 192.507 111.287ZM183.704 120.645C183.998 120.696 184.318 120.801 184.638 120.906C185.598 121.087 186.583 121.054 187.594 120.941C189.085 120.853 190.812 120.309 192.727 119.871C194.64 119.3 196.661 118.808 198.683 118.583C199.189 118.527 199.588 118.524 200.013 118.442C198.141 117.253 196.747 115.955 195.273 114.497C194.656 113.941 194.039 113.251 193.291 112.963C192.944 112.805 192.597 112.647 192.143 112.543C191.85 112.491 191.61 112.413 191.29 112.308C188.357 111.792 183.887 112.458 179.89 115.895C178.436 117.37 178.198 117.691 177.83 118.413C178.738 118.754 179.726 119.122 180.555 119.57C181.569 119.857 182.61 120.331 183.704 120.645Z" fill="#B98A44"/>
<path d="M187.09 140.461C189.812 141.218 192.589 142.348 195.741 143.689L198.145 144.741C198.305 144.794 198.359 144.9 198.334 145.113C198.282 145.274 198.176 145.328 197.963 145.302L196.147 144.62C192.755 143.2 190.032 142.177 187.47 141.472C186.617 141.237 185.843 141.028 184.963 140.873C184.003 140.692 183.15 140.591 182.324 140.542L182.244 140.516L182.216 140.33C182.268 140.17 182.294 139.956 182.505 139.715C183.41 139.656 184.13 139.759 184.769 139.835C185.463 140.017 186.237 140.226 187.09 140.461Z" fill="#B98A44"/>
<path d="M200.827 139.766C205.95 141.176 209.532 143.234 213.634 147.103C213.848 147.261 213.877 147.581 213.718 147.795C213.56 148.009 213.322 148.197 213.054 148.066C212.681 147.988 212.441 147.909 212.094 147.885C208.069 147.189 204.69 147.635 201.656 147.973C199.208 148.281 197.027 148.587 194.894 148.2C194.6 148.148 194.28 148.044 193.96 147.939C192.492 147.548 191.235 146.782 190.03 145.723C189.413 145.166 188.77 144.557 188.26 143.947C187.375 143.125 186.759 142.569 186.223 142.039C184.909 140.767 184.427 140.343 184.504 139.97C184.555 139.676 185.007 139.513 185.858 139.348C186.177 139.32 186.389 139.212 186.735 139.103L187.666 138.964C188.703 138.772 188.703 138.772 189.634 138.633L190.565 138.494C193.786 138.262 194.772 138.362 198.344 138.821C199.199 139.323 200.053 139.558 200.827 139.766ZM194.088 147.272C194.381 147.323 194.622 147.402 194.942 147.506C196.915 147.841 199.177 147.561 201.651 147.173C204.524 146.783 207.716 146.231 211.42 146.689C207.939 143.91 204.598 142.064 200.489 140.941C199.395 140.628 198.142 140.395 196.888 140.163L196.409 140.139L195.53 140.118C194.571 140.07 194.571 140.07 193.585 139.969L192.706 139.948L191.801 140.006C190.816 140.039 190.816 140.039 189.885 140.178L188.98 140.236L188.129 140.401C187.198 140.54 187.198 140.54 186.24 140.759L186.134 140.813L187.581 142.084C190.746 145.292 191.577 146.14 192.993 146.825C193.1 146.904 193.555 147.141 194.088 147.272Z" fill="#B98A44"/>
<path d="M189.767 157.829C192.249 158.507 193.641 159.539 195.14 160.783C196.211 161.576 197.336 162.476 198.966 163.32C200.436 164.111 201.906 164.902 203.059 165.988C203.541 166.412 204.052 167.022 204.375 167.527C204.429 167.633 204.403 167.713 204.403 167.847C204.377 167.927 204.271 167.981 204.058 167.955L203.924 167.823C202.446 165.965 200.842 165.042 198.623 163.828C196.111 162.563 195.201 161.822 194.45 161.134C193.834 160.577 193.352 160.154 192.016 159.495C191.347 159.099 190.52 158.784 189.693 158.602C189.239 158.498 188.759 158.341 188.279 158.317C187.319 158.136 186.44 158.115 185.721 158.012C185.347 157.935 185.292 157.695 185.265 157.509C185.317 157.348 185.501 157.054 185.741 157.132C186.62 157.154 187.367 157.31 188.14 157.385C188.647 157.595 189.234 157.698 189.767 157.829Z" fill="#B98A44"/>
<path d="M200.102 158.194C202.957 158.95 205.124 160.324 206.842 162.393C207.89 163.667 208.457 164.783 208.625 166.035C208.708 166.461 208.711 166.861 208.713 167.128C208.743 167.714 208.855 168.46 209.103 169.605C209.322 170.564 209.647 171.335 209.758 171.947C210.058 172.932 210.248 173.438 210.037 173.812C209.985 173.972 209.879 174.026 209.667 174.134C209.56 174.188 209.48 174.162 209.347 174.163C209.347 174.163 209.347 174.163 209.267 174.137C209.187 174.11 209.187 174.11 209.107 174.084C207.423 173.134 205.687 172.478 203.311 171.612C202.243 171.219 201.309 170.958 200.401 170.616C192.981 168.101 192.981 168.101 191.245 163.499C190.973 162.7 190.594 161.823 190.161 160.839C189.998 160.387 189.728 159.855 189.485 159.376C189.054 158.659 188.92 158.527 188.92 158.527L188.914 157.727L188.941 157.647L190.245 157.586C192.535 157.492 195.304 157.422 198.21 157.885C198.902 157.934 199.542 158.01 200.102 158.194ZM208.292 171.823C208.102 171.184 207.964 170.518 207.72 169.907C207.391 168.602 207.387 167.936 207.275 167.19C207.246 166.87 207.27 166.523 207.161 166.177C206.797 163.487 204.037 161.077 201.579 159.918C200.884 159.602 200.164 159.367 199.363 159.105C198.83 158.975 198.269 158.791 197.576 158.742C194.831 158.332 191.848 158.376 189.878 158.441C190.012 158.573 190.093 158.733 190.28 158.838C191.332 160.779 191.795 162.216 192.283 163.439C193.34 166.179 193.611 166.844 197.563 168.314C198.631 168.707 199.725 169.021 200.793 169.414C203.328 170.199 205.863 170.984 208.321 172.143L208.292 171.823Z" fill="#B98A44"/>
<path d="M159.614 98.9779C159.694 99.0041 159.748 99.1104 159.828 99.1366C159.882 99.2429 159.856 99.323 159.777 99.4301L158.534 100.664C154.145 105.302 151.844 107.609 149.278 110.05C146.289 112.974 144.277 114.666 142.741 115.981C140.968 117.485 140.147 118.236 139.569 119.333C139.332 119.787 139.254 120.028 139.177 120.402C139.126 120.695 138.886 120.75 138.7 120.778C138.54 120.725 138.407 120.726 138.353 120.62C138.299 120.513 138.325 120.433 138.35 120.22C138.817 118.377 139.214 118.108 141.914 115.666C144.64 113.277 149.563 108.902 159.32 98.9263L159.614 98.9779Z" fill="#B98A44"/>
<path d="M169.385 91.0013C169.545 91.0537 169.839 91.2386 169.867 91.425C169.895 91.6115 169.844 91.9051 169.712 92.0392C167.834 93.8633 166.516 95.8707 165.119 97.9853C162.748 101.599 160.377 105.345 154.332 109.22C152.343 110.432 150.087 111.512 147.325 112.648C147.219 112.702 147.139 112.676 147.006 112.677C146.846 112.624 146.792 112.518 146.658 112.385C146.684 112.305 146.63 112.199 147.042 110.25L147.068 110.17C148.154 105.471 151.672 94.2523 161.324 92.0888C162.441 91.9222 163.585 91.8088 164.676 91.7224C166.247 91.6598 167.658 91.5448 168.986 91.0037C169.092 90.9497 169.225 90.9489 169.385 91.0013ZM147.69 111.526C157.885 107.013 160.835 102.303 163.759 97.6734C164.839 95.9873 165.945 94.2211 167.425 92.5326C166.654 92.7238 165.802 92.7555 164.977 92.8404C161.996 93.018 158.748 93.1972 155.071 96.7383C150.705 100.763 148.777 106.96 148.055 110.271L147.69 111.526Z" fill="#B98A44"/>
<path d="M189.306 83.5514C189.386 83.5776 189.52 83.7101 189.495 83.9236C189.167 86.565 189.875 88.7471 190.582 90.9292C191.426 93.5104 192.216 96.1185 191.225 99.1639C191.174 99.4574 190.935 99.5122 190.747 99.4066C190.587 99.3543 190.454 99.355 190.4 99.2487C190.346 99.1424 190.372 99.0623 190.397 98.8488C191.415 95.8567 190.734 93.5944 189.944 91.1196C189.237 88.9375 188.582 86.7284 188.936 83.8735L189.068 83.7394C189.12 83.5792 189.146 83.499 189.306 83.5514Z" fill="#B98A44"/>
<path d="M189.876 65.8713C190.036 65.9237 190.223 66.0292 190.278 66.2689C190.694 68.666 191.109 70.7965 191.469 72.8206C193.463 83.9801 194.102 87.7356 193.068 92.2743C193.068 92.2743 192.112 96.4392 191.019 96.259C189.015 95.3377 181.258 86.5052 182.381 79.5132C182.657 77.032 184.214 74.9699 185.663 72.8283C187.061 70.8471 188.512 68.8389 189.213 66.2752C189.29 65.9015 189.636 65.7928 189.876 65.8713ZM191.007 94.5261C193.129 89.5011 192.295 84.4403 190.353 73.2538L190.214 72.3215C189.965 71.0432 189.77 69.7379 189.52 68.3263C188.814 70.2235 187.758 71.5628 186.676 72.9823C185.198 74.8041 183.773 76.7321 183.26 79.5347C182.708 84.497 186.747 90.8719 191.007 94.5261Z" fill="#B98A44"/>
<path d="M101.451 187.066C106.98 189.54 112.618 196.038 112.316 198.6C112.316 198.6 112.24 199.24 112.082 199.454L111.922 199.402L111.868 199.296C111.894 199.215 112.26 198.227 111.558 196.844C109.749 193.283 103.915 189.158 101.989 187.863C101.266 187.36 101.266 187.361 101.292 187.147L101.398 187.093L101.451 187.066Z" fill="#B98A44"/>
<path d="M101.485 184.373C101.565 184.399 101.646 184.425 102.019 184.503L102.179 184.556C107.118 186.393 111.671 190.098 113.99 194.271C113.99 194.271 114.826 195.785 114.721 195.973L114.402 196.001C112.276 192.868 109.319 188.886 105.015 186.458C103.625 185.693 102.129 184.982 101.541 184.746C101.194 184.588 101.194 184.588 101.193 184.455L101.299 184.401L101.485 184.373Z" fill="#B98A44"/>
<path d="M105.228 182.538C105.736 182.881 106.137 183.146 107.232 183.592L107.766 183.723C110.195 184.561 110.516 184.799 115.184 189.784C115.184 189.784 116.634 191.455 116.636 191.722L116.529 191.776L116.423 191.83C116.343 191.804 115.804 190.874 114.92 190.052C111.247 186.501 111.247 186.501 111.273 186.421C109.881 185.39 108.598 184.704 107.53 184.311C106.488 183.837 105.66 183.522 105.069 182.752L105.015 182.646L105.067 182.485L105.228 182.538Z" fill="#B98A44"/>
<path d="M156.874 130.268C156.955 130.295 157.089 130.427 157.223 130.56C157.357 130.692 157.252 130.879 157.145 130.933C152.13 137.362 146.26 143.422 141.211 148.731L140.074 149.911L139.86 149.752C140.36 149.029 140.968 148.253 141.52 147.236C141.626 147.182 141.678 147.022 141.677 146.889L141.809 146.755C141.809 146.755 142.1 146.406 142.364 146.138C151.114 136.808 154.838 132.307 156.475 130.271C156.528 130.244 156.714 130.216 156.874 130.268Z" fill="#B98A44"/>
<path d="M138.01 151.896C124.897 165.651 120.679 171.808 117.278 176.814C115.512 179.384 113.876 181.687 111.553 184.607C111.447 184.661 111.341 184.715 111.102 184.769C110.942 184.717 110.888 184.611 110.753 184.478C110.699 184.372 110.725 184.158 110.751 184.078C113.094 180.278 122.664 166.251 136.36 152.066L136.466 152.012C136.52 152.118 136.601 152.144 136.601 152.144C136.681 152.171 136.946 152.036 137.052 151.982L137.158 151.928L137.452 151.979C137.452 151.979 137.532 152.006 137.558 151.925L138.01 151.896Z" fill="#B98A44"/>
<path d="M173.461 156.619C173.541 156.645 173.621 156.671 173.675 156.777C173.809 156.91 173.758 157.203 173.626 157.337C163.482 165.369 155.78 168.348 146.882 171.733C140.03 174.413 132.275 177.419 121.716 183.187C117.659 185.717 114.983 187.679 114.983 187.679C114.877 187.733 114.797 187.707 114.664 187.708C114.504 187.655 114.371 187.656 114.45 187.549C114.316 187.416 114.367 187.123 114.499 186.989C114.499 186.989 115.293 186.318 116.751 185.242C124.858 179.249 133.542 175.838 142.705 172.318C152.612 168.42 162.943 164.439 173.009 156.648C173.142 156.647 173.248 156.593 173.461 156.619Z" fill="#B98A44"/>
<path d="M114.256 155.743C114.471 156.035 114.632 156.22 114.847 156.512C113.334 161.027 111.802 166.689 110.823 171.467C110.514 172.962 109.896 175.952 109.03 181.742L108.979 182.036C108.928 182.329 108.662 182.464 108.502 182.412C108.209 182.36 108.155 182.254 108.1 182.014C108.242 179.401 109.911 166.646 113.965 155.958L114.016 155.664L114.256 155.743Z" fill="#B98A44"/>
<path d="M126.445 131.488C126.579 131.621 126.873 131.806 127.007 131.938C125.62 135.519 123.911 138.595 121.858 142.18L121.806 142.34L121.672 142.208C121.537 141.942 121.429 141.729 121.162 141.598L121.557 140.929C123.266 137.853 124.87 134.83 126.206 131.676L126.258 131.516L126.445 131.488Z" fill="#B98A44"/>
<path d="M225.935 104.531C226.015 104.557 226.149 104.689 226.15 104.823C226.204 104.929 226.179 105.143 226.073 105.196C220.714 112 215.263 117.045 209.14 121.16C207.789 122.182 204.872 123.932 203.306 124.794C199.884 126.601 196.194 128.276 194.971 128.63L194.785 128.657C194.625 128.605 194.571 128.499 194.437 128.366C194.409 128.18 194.434 127.966 194.673 127.912C194.938 127.777 195.23 127.562 195.947 127.264C198.415 126.076 203.565 123.726 208.548 120.257C214.539 116.276 221.073 110.079 224.4 105.98L225.43 104.72C225.616 104.559 225.775 104.478 225.935 104.531Z" fill="#B98A44"/>
</svg>
