<svg width="112" height="138" viewBox="0 0 112 138" fill="none" xmlns="http://www.w3.org/2000/svg">
<g clip-path="url(#clip0_9_3106)">
<mask id="mask0_9_3106" style="mask-type:luminance" maskUnits="userSpaceOnUse" x="19" y="0" width="83" height="139">
<path d="M53.8787 138.3L101.047 125.191L66.4374 0.157025L19.2692 13.2659L53.8787 138.3Z" fill="white"/>
</mask>
<g mask="url(#mask0_9_3106)">
<path d="M91.3381 92.0574C90.7263 92.2722 90.1904 92.6 89.7722 93.0294C87.6846 94.0569 85.5325 95.0129 83.3114 95.7197C80.8409 96.4957 78.2811 96.6256 75.7531 97.194C72.8095 97.8778 70.4647 99.9163 69.0334 102.506C68.603 83.1659 61.678 63.4834 55.0281 45.6031C55.0696 45.5915 55.1112 45.58 55.1413 45.5271C55.1828 45.5155 55.1828 45.5155 55.2129 45.4626C57.1069 46.3227 59.3741 45.7823 60.8966 44.3303C63.9187 41.343 64.5602 34.7678 69.5737 34.4478C70.2731 34.3877 70.2466 33.3217 69.5887 33.3702C69.067 33.4255 68.5984 33.5112 68.1412 33.6383C68.035 33.5781 67.8873 33.5295 67.7211 33.5757C67.2224 33.7143 66.7237 33.8529 66.2366 34.0333C66.1632 33.6065 65.8704 33.1954 65.4504 33.1333C65.492 33.1218 65.5335 33.1102 65.5865 33.1401C65.7759 33.1771 65.9377 32.9533 65.9332 32.7758C65.9102 32.6925 65.8987 32.6511 65.8871 32.6092C66.0004 32.5332 66.1552 32.4456 66.2682 32.3691C66.4045 32.3763 66.5477 32.2468 66.5963 32.0991C66.5848 32.0577 66.5848 32.0577 66.6148 32.0042C66.6449 31.9513 66.7165 31.8868 66.7351 31.792C66.7652 31.7391 66.7953 31.6861 66.7722 31.6029C66.8642 31.9349 66.9562 32.2675 67.0066 32.6111C67.05 33.0915 67.7609 33.0727 67.7176 32.5929C67.6698 31.935 67.4972 31.3117 67.2002 30.7236C66.9905 30.2894 66.3831 30.6822 66.5812 31.0744C66.6157 31.1991 66.6918 31.3122 66.7147 31.3949C66.5742 31.2106 66.2373 31.1254 66.0869 31.3906C66.0569 31.4441 66.0569 31.4441 66.0268 31.497C65.9738 31.4672 65.9323 31.4787 65.8791 31.4484C65.8677 31.407 65.8562 31.3656 65.8031 31.3352C65.7386 31.264 65.674 31.1923 65.5794 31.174C65.5262 31.1437 65.4732 31.1139 65.3671 31.0537C65.7226 31.0445 65.7923 30.4882 65.3911 30.3318C65.001 30.2163 64.7614 29.8356 64.6578 29.4616C64.6464 29.4202 64.6348 29.3783 64.6233 29.3369C64.7366 29.2609 64.8913 29.1733 65.0044 29.0968C65.1478 28.9678 65.1203 28.707 65.0027 28.6054C64.8736 28.4625 64.6542 28.4783 64.5111 28.6078C64.2962 28.8017 64.0053 28.8826 63.6914 28.8802C63.6498 28.8917 63.6082 28.9033 63.5666 28.9148C64.2298 28.2386 64.8929 27.562 65.5976 26.8742C65.9141 26.5624 65.4092 26.032 65.1042 26.3853C64.6444 26.8261 64.1961 27.3083 63.7363 27.7491C63.686 27.4055 63.1713 27.3246 63.014 27.7265C62.9168 28.022 62.7894 28.3705 62.6922 28.666C62.5649 29.0144 62.9778 29.2127 63.2458 29.0491C63.2988 29.0789 63.3819 29.0558 63.465 29.0328C63.3032 29.2565 63.4067 29.6305 63.7621 29.6209C63.8568 29.6396 63.9815 29.605 64.0646 29.5819C64.076 29.6233 64.076 29.6233 64.0459 29.6762C64.0575 29.7181 64.069 29.7595 64.0805 29.8009C63.8267 29.6926 63.4687 30.016 63.6437 30.325C63.8418 30.7172 64.0515 31.1514 64.2911 31.5321C64.3787 31.6866 64.5264 31.7352 64.651 31.7005L64.704 31.7304C64.757 31.7602 64.8102 31.7906 64.8633 31.8204C65.0108 31.8685 65.17 31.9585 65.3592 31.9956C65.2346 32.0302 65.0569 32.035 64.9207 32.0278C64.5007 31.9657 64.4724 32.5105 64.7908 32.6905C64.5458 32.9374 64.377 33.2974 64.3859 33.6531C64.0994 33.9115 63.8545 34.1584 63.6326 34.4886C63.3691 34.8303 63.8739 35.3606 64.126 34.9775C64.2277 34.8602 64.3595 34.6893 64.4611 34.5714C64.4841 34.6546 64.5486 34.7258 64.5716 34.8091C63.1375 35.6104 61.9085 36.6678 60.8847 37.9812C60.8076 36.571 60.6545 35.0477 60.8312 33.7459C60.8613 33.6929 60.8914 33.64 60.9214 33.5865C61.0231 33.4692 60.9772 33.3031 60.9126 33.2314C60.9983 32.8945 61.0841 32.5576 61.2229 32.2505C61.3546 32.0797 61.4749 31.8675 61.6482 31.685C61.6781 31.6316 61.7383 31.5257 61.7268 31.4839C61.8886 31.2601 62.1034 31.0661 62.3183 30.8721C62.8728 30.4501 62.3058 29.5337 61.7515 29.9563C61.167 30.4318 60.7303 30.9559 60.4411 31.5281C59.3802 33.0311 58.1831 34.5269 57.039 36.0526C57.222 35.4202 57.4164 34.8291 57.6525 34.2271C57.8399 33.7723 57.1245 33.6129 56.9787 34.0562C56.5738 35.0188 56.305 35.988 56.0894 36.9877C56.0894 36.9877 56.0479 36.9992 56.0593 37.0406C55.9391 37.2528 55.9436 37.431 55.9595 37.6499C55.6775 38.0864 55.4068 38.5638 55.1779 39.0302C55.7497 35.1135 56.7531 31.3009 58.1879 27.5917C58.2664 27.3904 58.1905 27.2779 58.0313 27.1879C58.0384 27.0516 57.9092 26.9082 57.7616 26.8601C57.5723 26.823 57.3761 26.9227 57.339 27.1118C57.339 27.1118 57.339 27.1118 57.2858 27.0814C56.8243 27.0309 56.842 27.7418 57.3036 27.7923C57.3451 27.7807 57.3451 27.7807 57.3867 27.7692C56.0421 31.3191 55.0874 34.9846 54.5642 38.7535C54.0274 37.7841 53.4492 36.8269 52.7575 35.9451C52.4763 35.576 51.8574 35.9268 52.1385 36.296C53.0812 37.5998 53.8993 38.9383 54.6156 40.3941C54.5971 40.489 54.537 40.5953 54.5069 40.6483C54.2699 39.9538 53.9081 39.2934 53.3918 38.7217C51.5197 36.6473 48.973 35.2077 46.6942 33.604C46.1937 33.2512 45.5765 34.0934 46.0355 34.4583C47.659 35.7963 48.3427 37.6194 47.9344 39.7014C47.8158 40.405 47.342 41.1183 47.3181 41.8407C46.7602 41.28 46.2439 40.7082 45.6672 40.2418C44.332 39.1368 42.5042 38.8393 40.8146 39.0409L40.7614 39.0106C40.6138 38.9625 40.4891 38.9971 40.4289 39.103C40.3043 39.1376 40.2097 39.1193 40.085 39.154C40.0019 39.1771 39.9188 39.2002 39.8471 39.2647C39.8056 39.2762 39.7526 39.2464 39.6694 39.2695C39.3971 39.2555 39.2583 39.5626 39.3574 39.759C39.0823 40.0588 39.2434 40.6407 39.7465 40.6797C43.6194 40.7664 44.2954 45.6336 47.62 46.8119C49.8997 47.6099 52.0492 46.9679 54.1067 45.9934C60.8672 64.1115 67.9373 84.1562 68.0396 103.766C63.85 101.889 61.3499 97.7075 57.6342 95.1166C52.8759 91.8313 47.9376 93.0696 42.8278 94.9818C42.6615 95.028 42.5598 95.1457 42.5112 95.2935C42.0126 95.4321 42.0763 96.3091 42.7156 96.355C45.6512 96.6128 48.3137 97.6622 50.6916 99.4619C52.7811 101.028 54.1359 103.336 56.3687 104.773C59.2842 106.737 63.1297 106.563 66.6339 106.126C66.816 106.299 67.0654 106.229 67.1971 106.058C67.4995 106.019 67.7603 105.991 68.0627 105.952C67.8424 115.989 65.7458 125.877 60.7621 135.359C60.443 135.985 61.3865 136.483 61.7172 135.899C66.8096 126.163 68.9619 115.991 69.1017 105.663C69.1317 105.61 69.1317 105.61 69.1618 105.557C73.3237 102.969 78.202 103.939 82.7115 102.284C84.4525 101.621 85.7902 100.31 86.9157 98.8784C87.9396 97.5649 88.9067 95.2383 90.3276 93.9039C90.8448 93.6707 91.3091 93.4075 91.8263 93.1743C92.0642 93.0635 92.1313 92.8211 92.0739 92.6134C92.0464 92.3526 91.7953 91.9303 91.3381 92.0574ZM55.883 44.6497C57.5171 44.7325 59.1264 44.2407 60.4199 43.2546C59.1999 44.6676 57.7242 45.4804 55.883 44.6497ZM65.1479 31.07C65.1063 31.0816 65.0232 31.1047 64.9816 31.1162C64.8756 31.0566 64.7995 30.9435 64.7765 30.8602C64.8525 30.9733 65.0002 31.0219 65.1479 31.07ZM64.9624 34.119C65.004 34.1074 64.9925 34.0661 65.0225 34.0126C65.0526 33.9597 65.1357 33.9366 65.1658 33.8836C65.3549 33.9202 65.5071 34.1464 65.5231 34.3659C65.4098 34.4419 65.2436 34.4881 65.1304 34.5642C65.0013 34.4212 64.9554 34.2552 64.9624 34.119ZM61.0794 39.4929C61.8051 38.396 62.6301 37.4961 63.6256 36.727C62.8309 37.5745 62.1536 38.5231 61.5939 39.5733C61.395 39.9867 61.99 40.3578 62.2306 39.9333C62.6099 39.2018 63.0838 38.4885 63.6222 37.8465C62.9609 39.0145 62.2182 40.6971 61.259 42.0822C61.1599 41.8858 60.9061 41.7775 60.7027 42.0129C60.0813 42.678 59.3191 43.1583 58.5109 43.472C59.4392 42.9455 60.1741 42.2049 60.556 41.1591C60.7018 40.7158 60.7831 40.2013 60.8645 39.6869C60.906 39.6753 60.9776 39.6103 61.0794 39.4929ZM59.4087 34.5891C59.1081 35.1199 58.8189 35.6921 58.5829 36.2947C58.3955 36.7495 59.1108 36.9083 59.2567 36.4651C59.3954 36.158 59.4926 35.8625 59.643 35.5973C59.6661 35.6806 59.636 35.7335 59.6589 35.8163C59.7838 37.8844 60.2225 39.9544 58.845 41.7688C58.1978 42.6644 57.0687 43.1125 55.9466 43.4244C57.1642 42.3256 58.2226 41.1369 59.1286 39.7214C59.3806 39.3383 58.7441 38.9788 58.492 39.3619C57.6459 40.6705 56.6592 41.7947 55.5549 42.8174C56.073 41.7789 56.6971 40.7999 57.4274 39.8812C57.7324 39.5279 57.186 39.0091 56.934 39.3922C56.2037 40.3109 55.568 41.248 55.0499 42.2866C55.6369 39.3951 57.5528 36.9386 59.4087 34.5891ZM48.6419 40.8021C48.9379 40.0932 49.0149 39.4011 49.0802 38.6672C49.1262 38.8332 49.1838 39.0411 49.2297 39.2072C49.3146 39.6755 50.0211 39.4791 49.9362 39.0108C49.8283 38.4593 49.6674 37.8779 49.4764 37.3494C49.845 37.8731 50.2023 38.3553 50.571 38.879C50.8107 39.2597 51.4296 38.9088 51.19 38.5281C51.0379 38.3019 50.8973 38.1176 50.7452 37.8914C52.634 39.3796 53.5024 41.0617 53.7149 43.2843C53.1409 42.504 52.7332 41.6782 52.4688 40.7228C52.3422 40.2656 51.6358 40.4619 51.7624 40.9192C51.9923 41.7499 52.3354 42.5045 52.7501 43.1942C52.063 42.4906 51.5607 41.6459 51.2547 40.7021C51.1283 40.2454 50.4218 40.4417 50.5482 40.8984C50.8773 41.9255 51.3911 42.8116 52.1012 43.5985C51.6837 43.2221 51.3265 42.7398 51.0408 42.1931C50.8313 41.7595 50.2238 42.1517 50.4219 42.5439C50.8066 43.287 51.3461 43.9426 52.0287 44.4686C50.1895 44.1298 47.6932 43.0338 48.6419 40.8021ZM44.4994 42.4904C44.0775 41.9364 43.6372 41.4772 43.1137 41.0412C44.357 41.8142 45.4084 42.8639 46.3166 44.043C46.5978 44.4122 47.2168 44.0614 46.9355 43.6922C46.2741 42.7575 45.5109 41.9408 44.6575 41.2828C45.135 41.5528 45.571 41.8344 46.0298 42.1987C46.083 42.2291 46.136 42.2589 46.2306 42.2772C46.9178 42.9814 47.5447 43.7908 48.4052 44.3126C49.3831 44.9354 50.3451 45.3387 51.3559 45.5948C50.2365 45.5929 49.1197 45.2771 48.1602 44.5595C47.7773 44.3078 47.4467 44.892 47.7995 45.1967C48.5238 45.7112 49.3382 46.0664 50.1896 46.232C50.0119 46.2368 49.8872 46.2715 49.7095 46.2763C47.2628 46.3296 45.7533 44.1099 44.4994 42.4904ZM53.5407 100.862C51.0876 98.1439 48.0404 96.3514 44.5397 95.6692C46.4231 95.6825 48.2323 96.0744 49.9972 96.7918C50.4102 96.9901 50.7709 96.3531 50.3579 96.1547C49.2367 95.6611 48.0669 95.3152 46.8483 95.117C48.1941 94.9666 49.5859 94.9825 50.9821 95.176C51.4437 95.2267 51.6152 94.5527 51.1536 94.502C50.4498 94.3845 49.8105 94.3385 49.0881 94.3156C50.2862 94.1168 51.4772 94.0542 52.6957 94.2524C55.2459 94.5726 57.3929 96.3468 59.203 98.0358C61.8595 100.518 64.2223 103.396 67.5445 104.888C66.8407 104.771 66.1784 104.642 65.493 104.429C63.323 102.572 60.9611 100.992 58.4675 99.5823C58.3914 99.4692 58.2738 99.3677 58.1076 99.4139C57.2057 98.904 56.2736 98.4473 55.3001 98.0021C54.8871 97.8038 54.5264 98.4408 54.9393 98.6392C57.86 99.9748 60.6004 101.629 63.179 103.507C62.4061 103.14 61.6518 102.679 60.9807 102.194C60.5978 101.943 60.2786 102.568 60.62 102.831C61.7386 103.639 62.9359 104.245 64.1402 104.716C63.3117 104.633 62.5618 104.349 61.8076 103.888C61.4247 103.637 61.064 104.274 61.4468 104.525C62.1481 104.956 62.8979 105.24 63.6548 105.388C62.5469 105.427 61.4575 105.372 60.3867 105.222C57.4466 104.787 55.4773 103.008 53.5407 100.862ZM82.9112 101.065C80.4886 102.499 77.262 102.322 74.5704 102.623C74.0072 102.69 73.497 102.787 72.9868 102.884C75.3538 101.734 77.7208 100.584 80.0878 99.4339C80.5219 99.2238 80.1302 98.6169 79.7376 98.8155C76.7401 100.275 73.7012 101.746 70.7037 103.205C72.1131 101.829 73.8567 100.853 75.8515 100.298C76.3086 100.171 76.1131 99.4649 75.656 99.5919C73.5251 100.139 71.6798 101.234 70.1687 102.727C72.0855 99.4658 75.4844 98.1634 79.4041 97.6108C81.8534 97.2433 84.1692 96.5549 86.3858 95.6705C85.5105 96.2269 84.5706 96.7118 83.5546 97.0836C83.109 97.2522 83.3045 97.9584 83.7501 97.7898C84.4336 97.5104 85.0755 97.2425 85.6945 96.8915C84.8766 97.6557 83.0004 99.6086 82.2506 99.3249C81.8076 99.1796 81.6361 99.8536 82.0791 99.9989C83.1243 100.379 84.2498 98.9483 85.0305 98.3734C85.7582 97.7685 86.4859 97.1637 87.202 96.5173C86.0023 98.327 84.7866 99.9174 82.9112 101.065Z" fill="#D5A864"/>
<path d="M40.053 34.5106C40.106 34.5405 40.1891 34.5174 40.2421 34.5472C40.106 34.5405 39.9813 34.5751 39.8452 34.5684C39.3951 34.5592 39.3713 35.2816 39.8629 35.2792C39.9045 35.2677 39.9575 35.2975 39.999 35.286C40.3475 35.4131 40.7259 35.4867 41.0468 35.3524C40.9566 35.5117 41.0027 35.6783 41.1619 35.7683C41.0672 35.7495 40.9841 35.7726 40.9311 35.7427C40.6171 35.7403 40.5199 36.0358 40.6305 36.2736C40.6004 36.3265 40.5819 36.4213 40.6049 36.5046C40.6738 36.7534 40.7959 37.0331 40.948 37.2593C40.6499 37.4758 40.811 38.0577 41.215 37.9003C41.4228 37.8426 41.589 37.7964 41.7668 37.7921C41.4989 37.9557 41.2195 38.0784 40.9515 38.242C40.559 38.4408 40.9092 39.0592 41.3018 38.8605C41.8075 38.5857 42.3132 38.3109 42.7774 38.0476C42.819 38.0361 42.819 38.0361 42.8491 37.9831C43.163 37.9856 43.392 37.5192 43.0206 37.3094C42.6077 37.1111 42.1761 37.0071 41.7377 37.0398C41.6845 37.0095 41.62 36.9383 41.5668 36.9079C41.8162 36.8386 42.0656 36.7693 42.3149 36.7C42.4396 36.6654 42.4697 36.6125 42.5414 36.548C43.033 36.5456 43.5361 36.5846 44.0277 36.5822C44.2584 36.6072 44.3902 36.4363 44.3857 36.2587C44.5449 36.3488 44.7642 36.3324 44.8844 36.1201C45.1134 35.6538 45.2477 35.1691 45.2876 34.6662C45.2973 34.2162 44.5748 34.1931 44.5767 34.685C44.5554 35.0931 44.4698 35.4305 44.2593 35.802C44.2292 35.8549 44.2407 35.8963 44.2107 35.9498C44.1576 35.9194 44.116 35.931 44.063 35.9012C43.3937 35.9084 42.7543 35.8621 42.1265 35.8578C42.4475 35.724 42.6809 35.4352 42.7666 35.0983C42.8869 34.8861 42.7948 34.5535 42.4811 34.5516C42.4395 34.5632 42.4395 34.5632 42.398 34.5747C42.3635 34.45 42.2988 34.3783 42.1512 34.3302C41.5304 34.1891 40.9097 34.0486 40.2889 33.9081C39.7814 33.6915 39.6214 34.4066 40.053 34.5106Z" fill="#D5A864"/>
<path d="M45.2045 36.791C45.0217 37.4239 44.8387 38.0563 44.6557 38.6887C44.5097 39.1315 45.2366 39.3322 45.3294 38.8591C45.5124 38.2267 45.6954 37.5943 45.8784 36.9619C46.0242 36.5186 45.3089 36.3598 45.2045 36.791Z" fill="#D5A864"/>
<path d="M43.9849 33.1943C43.74 33.4411 43.3545 33.5037 42.9946 33.3353C42.5816 33.137 42.2209 33.7742 42.6339 33.9725C43.259 34.2906 43.9885 34.1775 44.4784 33.6838C44.8364 33.3603 44.3015 32.8829 43.9849 33.1943Z" fill="#D5A864"/>
<path d="M47.1115 31.8776C47.0354 31.7645 46.9594 31.6514 46.8533 31.5918C46.5836 31.264 46.1238 31.7048 46.299 32.0143C46.7367 32.7873 47.4007 33.4077 48.1966 33.8577C48.6095 34.056 48.9818 33.4607 48.5573 33.2205C47.9852 32.9322 47.5562 32.5144 47.199 32.0321C47.146 32.0023 47.1231 31.9195 47.1115 31.8776Z" fill="#D5A864"/>
<path d="M50.8624 33.7872C50.9729 31.9228 51.2309 30.1064 51.6366 28.3381C51.7408 27.9064 51.0557 27.6947 50.9628 28.1678C50.5385 30.0303 50.2504 31.8996 50.1515 33.806C50.1418 34.256 50.8528 34.2377 50.8624 33.7872Z" fill="#D5A864"/>
<path d="M52.096 35.0099C52.2542 33.8029 52.4238 32.6372 52.582 31.4302C52.6333 30.9686 51.9596 30.7983 51.9083 31.2598C51.7501 32.4669 51.5804 33.6325 51.4222 34.8396C51.371 35.3011 52.0447 35.4715 52.096 35.0099Z" fill="#D5A864"/>
<path d="M49.7001 28.2948C49.3844 27.801 49.1102 27.2957 48.8059 26.8433C48.5663 26.4626 47.9475 26.8139 48.1871 27.1946C48.5028 27.6884 48.777 28.1938 49.0811 28.6457C49.3323 29.0683 49.9513 28.7174 49.7001 28.2948Z" fill="#D5A864"/>
<path d="M52.9435 27.8861C53.1424 27.4726 53.3529 27.1011 53.6579 26.7478C53.9629 26.3946 53.4279 25.9172 53.1645 26.2589C52.8294 26.6651 52.5358 27.0597 52.3484 27.5145C52.1079 27.939 52.7446 28.299 52.9435 27.8861Z" fill="#D5A864"/>
<path d="M49.364 25.3016C49.3455 25.3965 49.3154 25.4494 49.3384 25.5327C49.2942 25.858 49.6126 26.038 49.8204 25.9803C49.9609 26.1646 50.06 26.361 50.2005 26.5453C50.4402 26.926 51.1007 26.5636 50.8195 26.1945C50.7665 26.1646 50.7435 26.0813 50.6905 26.0515L50.6789 26.0096C50.64 25.7074 50.5896 25.3638 50.5091 25.0731C50.5551 25.2391 50.5896 25.3638 50.6771 25.5182C50.8822 25.7743 51.2147 25.6819 51.335 25.4697C51.3809 25.6357 51.3739 25.7719 51.4198 25.9379C51.5048 26.4067 52.2113 26.2104 52.1263 25.7416C52.1105 25.5226 52.0645 25.3566 52.0069 25.1487C52.0901 25.1256 52.1732 25.1025 52.2033 25.0495C52.335 24.8787 52.4137 24.678 52.4808 24.4354C52.5268 24.6015 52.4896 24.7906 52.388 24.9085C52.083 25.2618 52.5764 25.7507 52.8814 25.3975C53.0247 25.2685 53.1034 25.0679 53.1521 24.9201C53.122 24.973 53.1034 25.0679 53.1149 25.1092C53.0106 25.5409 53.6012 25.7344 53.7701 25.3744C53.7816 25.4158 53.7816 25.4158 53.7932 25.4577C53.9612 25.9029 54.6676 25.7065 54.4996 25.2614C54.4421 25.0534 54.4907 24.9057 54.6339 24.7762C54.786 25.0024 54.8666 25.2936 54.7693 25.5886C54.7323 25.7783 54.8083 25.8914 54.9143 25.951C54.81 26.3827 55.5183 26.6778 55.7244 26.1286C55.7545 26.0757 55.7429 26.0338 55.7314 25.9924C55.7314 25.9924 55.7314 25.9924 55.7615 25.9395C55.8906 26.0825 56.1513 26.0545 56.2947 25.9256C56.3062 25.967 56.2761 26.0199 56.2991 26.1032C56.3035 26.2807 56.4442 26.4656 56.6634 26.4492C56.8411 26.4444 57.0675 26.2923 57.01 26.0844C57.0056 25.9068 56.9896 25.6873 57.0382 25.5396C57.1028 25.6113 57.1259 25.6946 57.1903 25.7658C57.3424 25.992 57.6448 25.9525 57.7765 25.7817C57.758 25.8765 57.7695 25.9179 57.751 26.0127C57.6997 26.4743 58.4106 26.4555 58.4619 25.9939C58.476 25.7215 58.4902 25.4496 58.5459 25.1657C58.5617 25.3847 58.6608 25.581 58.7483 25.7355C58.7571 26.0907 58.8191 26.4762 58.8281 26.8319C58.8599 27.2703 59.5822 27.293 59.5389 26.8131C59.5302 26.458 59.4797 26.1138 59.4708 25.7587C59.4893 25.6638 59.5078 25.569 59.4434 25.4978C59.4274 25.2783 59.4115 25.0594 59.407 24.8812C59.414 24.745 59.3496 24.6738 59.2966 24.644C59.3708 24.2652 58.7916 24.1131 58.6227 24.4731C58.6528 24.4202 58.6298 24.3369 58.6599 24.284C58.7615 24.166 58.8217 24.0602 58.9119 23.9009C59.1637 23.5173 58.5271 23.1578 58.2752 23.5409C58.0231 23.9239 57.8127 24.2955 57.5492 24.6372C57.5191 24.6901 57.5006 24.785 57.5121 24.8263C57.4476 24.7551 57.4246 24.6719 57.36 24.6001C57.2194 24.4158 56.9886 24.3903 56.8454 24.5197C56.9312 24.1829 56.5253 23.8484 56.2503 24.1482C56.1788 24.2132 56.1185 24.319 56.0469 24.3835C55.8833 24.1159 55.4677 24.2314 55.4121 24.5154C55.3131 24.3195 55.1839 24.176 55.0548 24.0331C55.0018 24.0033 54.9488 23.9735 54.8956 23.9431C54.9558 23.8373 54.9743 23.7424 54.8982 23.6293C54.7877 23.3916 54.6657 23.1124 54.5551 22.8747C54.4676 22.7202 54.2253 22.6533 54.0705 22.7408C53.8743 22.8405 53.8486 23.071 53.9361 23.2255C54.0467 23.4633 54.1687 23.7424 54.2793 23.9801C54.2909 24.0221 54.3439 24.0519 54.3439 24.0519C54.2723 24.1164 54.2007 24.1814 54.129 24.2458C54.1475 24.151 54.1776 24.0981 54.1961 24.0033C54.3005 23.5715 53.6153 23.3598 53.5224 23.8329C53.4668 24.1168 53.3695 24.4124 53.3137 24.6958C53.3465 24.3291 53.2544 23.9965 53.0379 23.6991C52.8972 23.5142 52.6894 23.572 52.5462 23.7015C52.5117 23.5768 52.4471 23.5051 52.3712 23.3925C52.242 23.249 52.0828 23.159 51.8866 23.2587C51.8035 23.2818 51.7848 23.3761 51.7549 23.4295C51.6628 23.0969 51.5709 22.7649 51.4789 22.4323C51.3524 21.9755 50.6459 22.1719 50.7724 22.6286C50.8759 23.0026 51.0324 23.4064 51.0943 23.7919C50.7247 24.0734 50.5488 24.5696 50.6222 24.9965C50.6107 24.9552 50.5993 24.9138 50.5877 24.8719C50.5718 24.6529 50.3296 24.586 50.1633 24.6322C50.0802 24.6553 50.0501 24.7082 49.9784 24.7727C49.9254 24.7429 49.8839 24.7544 49.8309 24.7246C49.7662 24.6529 49.6717 24.6346 49.6186 24.6048C49.4709 24.5561 49.3161 24.6437 49.2145 24.7616C49.1244 24.9209 49.1589 25.0456 49.2048 25.2116C49.1747 25.2646 49.2694 25.2834 49.364 25.3016ZM57.8535 25.0896C57.865 25.131 57.8465 25.2258 57.8579 25.2672C57.7933 25.1955 57.7704 25.1127 57.7173 25.0829C57.7173 25.0829 57.7704 25.1127 57.8535 25.0896ZM56.4988 24.8846C56.4087 25.0439 56.36 25.1916 56.3114 25.3394C56.2998 25.2975 56.2769 25.2147 56.2653 25.1728C56.3671 25.0554 56.4386 24.9904 56.4988 24.8846ZM51.2526 24.6871C51.2757 24.7703 51.2987 24.8536 51.3216 24.9364C51.2572 24.8652 51.2341 24.7819 51.2526 24.6871Z" fill="#D5A864"/>
<path d="M54.6081 36.325C54.5038 34.6545 54.1915 33.0412 53.6184 31.4559C53.4503 31.0102 52.7438 31.2065 52.912 31.6522C53.462 33.1543 53.8044 34.7146 53.8858 36.3024C53.9291 36.7822 54.6516 36.8054 54.6081 36.325Z" fill="#D5A864"/>
<path d="M53.7722 30.0706C53.8067 30.1953 53.8528 30.3618 53.9058 30.3917C53.9933 30.5461 54.0508 30.7541 54.1383 30.9086C54.2834 31.271 54.4815 31.6632 54.6266 32.0256C54.7946 32.4708 55.4019 32.0781 55.2454 31.6743C55.0244 31.1993 54.8334 30.6708 54.6123 30.1953C54.4903 29.9162 54.4168 29.4893 54.1099 29.3506C53.9622 29.302 53.7845 29.3068 53.6829 29.4248C53.5396 29.5537 53.5325 29.6899 53.5786 29.8565C53.56 29.9508 53.6776 30.0523 53.7722 30.0706Z" fill="#D5A864"/>
<path d="M58.8609 30.6701C58.5629 30.8872 58.265 31.1042 57.967 31.3213C57.5974 31.6028 57.9476 32.2213 58.3172 31.9398C58.6152 31.7227 58.9132 31.5056 59.2111 31.2886C59.5807 31.0071 59.2305 30.3886 58.8609 30.6701Z" fill="#D5A864"/>
<path d="M59.4161 29.4426C59.4718 29.1586 59.516 28.8333 59.5301 28.5609C59.5673 28.3717 59.4682 28.1754 59.279 28.1388C59.0897 28.1017 58.8518 28.2124 58.8564 28.3905C58.8006 28.6739 58.7565 28.9998 58.7424 29.2722C58.7052 29.4614 58.8042 29.6572 58.9935 29.6943C59.1828 29.7314 59.379 29.6317 59.4161 29.4426Z" fill="#D5A864"/>
<path d="M54.7209 27.8399C54.8084 27.9943 54.8845 28.1075 54.972 28.2619C55.2116 28.6426 55.8306 28.2918 55.5909 27.9111C55.5034 27.7566 55.4274 27.6435 55.3399 27.4891C55.1302 27.0549 54.5228 27.4476 54.7209 27.8399Z" fill="#D5A864"/>
<path d="M43.8817 25.7074C44.2302 25.8345 44.6086 25.9082 44.9454 25.9933C45.3885 26.1387 45.59 25.4115 45.117 25.3196C44.7801 25.2344 44.3901 25.1189 44.0532 25.0337C43.6102 24.8883 43.4387 25.5621 43.8817 25.7074Z" fill="#D5A864"/>
<path d="M46.3275 24.3563C46.7563 24.7735 47.2985 25.1153 47.829 25.4151C47.8864 25.6226 47.9554 25.8719 48.013 26.0798C48.128 26.4951 48.7628 26.3633 48.7008 25.9778C48.8255 25.9431 48.9273 25.8257 48.9228 25.6481C48.9369 25.3757 48.9812 25.0504 48.9953 24.778C49.0164 24.3693 48.4186 24.3116 48.2913 24.66C48.1738 24.559 47.996 24.5633 47.8298 24.6095C47.4584 24.3996 47.1171 24.1369 46.8059 23.8206C46.506 23.5458 45.9747 24.0516 46.3275 24.3563Z" fill="#D5A864"/>
<path d="M41.2603 29.6564C41.4912 29.6819 41.6343 29.5525 41.6715 29.3633C41.6945 29.4466 41.7476 29.4764 41.8006 29.5062C42.0244 29.668 42.1349 29.9058 42.1738 30.208C42.1828 30.5637 42.6558 30.6556 42.8176 30.4318C42.8636 30.5979 43.0342 30.7292 43.242 30.6715C43.3251 30.6484 43.4082 30.6253 43.4914 30.6022C43.8654 30.4982 43.7805 30.03 43.5267 29.9217C43.6283 29.8038 43.6655 29.6146 43.4833 29.4413C43.2481 29.2382 43.066 29.0655 42.8307 28.8623C42.944 28.7863 43.0155 28.7213 43.0225 28.5851C43.0808 27.9874 43.1277 27.3482 43.1444 26.762C43.1542 26.312 42.4317 26.2889 42.4336 26.7808C42.4283 27.4084 42.4115 27.9946 42.3116 28.6039C42.3232 28.6458 42.2931 28.6987 42.3046 28.7401C42.2215 28.7632 42.1498 28.8277 42.1313 28.9225C42.1313 28.9225 42.1199 28.8811 42.0783 28.8926C41.8545 28.7309 41.6282 28.8835 41.5609 29.1256C41.538 29.0428 41.4319 28.9826 41.3373 28.9643C40.7696 28.8536 40.262 28.6365 39.8446 28.2607C39.4918 27.956 39.002 28.4503 39.3549 28.7549C39.9729 29.2093 40.5981 29.5274 41.2603 29.6564ZM43.0466 29.9655C43.005 29.977 42.9334 30.0415 42.9034 30.0949C42.8803 30.0116 42.8874 29.8754 42.8643 29.7922C42.9289 29.8639 42.982 29.8937 43.0466 29.9655Z" fill="#D5A864"/>
<path d="M61.0064 22.7375C60.865 23.3584 60.7535 23.9258 60.6121 24.5466C60.5193 25.0197 61.1932 25.1906 61.286 24.7175C61.4275 24.0967 61.5387 23.5287 61.6802 22.9079C61.7844 22.4762 61.1107 22.3058 61.0064 22.7375Z" fill="#D5A864"/>
<path d="M56.3792 22.1896C56.3155 21.3127 56.1687 20.459 55.844 19.6095C55.6761 19.1643 55.0111 19.3491 55.1375 19.8058C55.3976 20.5836 55.5745 21.3844 55.6683 22.2084C55.7002 22.6468 56.411 22.6281 56.3792 22.1896Z" fill="#D5A864"/>
<path d="M49.1797 22.5348C49.2353 22.2508 49.2496 21.9789 49.3167 21.7363C49.4095 21.2632 48.6943 21.1044 48.643 21.566C48.5872 21.8494 48.5731 22.1218 48.506 22.3644C48.4017 22.7961 49.0754 22.9665 49.1797 22.5348Z" fill="#D5A864"/>
<path d="M52.2729 22.391C52.4435 22.5224 52.6213 22.5181 52.7645 22.3886C52.9078 22.2597 52.9219 21.9873 52.7627 21.8973C52.6036 21.8073 52.4745 21.6643 52.3153 21.5743C52.1445 21.4424 51.9669 21.4472 51.8237 21.5767C51.6804 21.7057 51.6663 21.9781 51.8254 22.0681C51.9846 22.1581 52.1437 22.2481 52.2729 22.391Z" fill="#D5A864"/>
<path d="M45.1164 19.0117C45.105 18.9704 45.0819 18.8871 45.0705 18.8457C44.944 18.389 44.2376 18.5853 44.364 19.042C44.3755 19.0834 44.3985 19.1667 44.41 19.2081C44.5249 19.6234 45.2314 19.4271 45.1164 19.0117Z" fill="#D5A864"/>
<path d="M43.2986 20.3664C43.2225 20.2533 43.1049 20.1518 43.0288 20.0387C42.9643 19.9675 42.9413 19.8842 42.8767 19.8125L42.8652 19.7711C42.8837 19.6763 42.9024 19.5819 42.8378 19.5102C42.6397 19.118 42.0278 19.3326 42.1013 19.76C42.1332 20.1984 42.562 20.6157 42.8317 20.9435C43.1316 21.2183 43.6213 20.724 43.2986 20.3664Z" fill="#D5A864"/>
<path d="M52.5366 12.8338C52.7029 12.7876 52.8645 12.5633 52.777 12.4089C52.7425 12.2842 52.7196 12.2014 52.7267 12.0652C52.7779 11.6037 52.1041 11.4328 52.0528 11.8943C52.0272 12.1254 52.0015 12.3559 52.1121 12.5937C52.158 12.7597 52.3288 12.8916 52.5366 12.8338Z" fill="#D5A864"/>
<path d="M51.6658 15.671C51.6542 15.6291 51.6427 15.5877 51.6728 15.5348C51.7771 15.1031 51.0918 14.8908 50.999 15.3639C50.9318 15.6065 50.9477 15.8254 51.0583 16.0632C51.2563 16.4554 51.8639 16.0632 51.6658 15.671Z" fill="#D5A864"/>
<path d="M62.7897 32.5752C62.5192 33.0531 62.1955 33.5007 61.8189 33.9184C61.5139 34.2717 62.0604 34.791 62.3124 34.4079C62.6775 33.9483 63.0313 33.4478 63.3733 32.9049C63.6784 32.5521 63.0417 32.1921 62.7897 32.5752Z" fill="#D5A864"/>
<path d="M61.1187 34.7846C60.6316 34.9651 60.6378 35.6341 61.1338 35.8093C61.1338 35.8093 61.1338 35.8093 61.1754 35.7977C61.263 35.9527 61.362 36.1486 61.4495 36.3031C61.6592 36.7372 62.2666 36.3445 62.0685 35.9522C61.8819 35.6014 61.7068 35.2924 61.5617 34.93C61.4857 34.8169 61.285 34.7384 61.1187 34.7846Z" fill="#D5A864"/>
<path d="M60.4374 28.4428C60.6425 28.6989 60.8892 28.9434 61.0944 29.1994C61.4173 29.5575 61.8956 29.0218 61.5843 28.7056C61.3791 28.4496 61.1324 28.2051 60.9272 27.9485C60.646 27.5794 60.1562 28.0737 60.4374 28.4428Z" fill="#D5A864"/>
<path d="M63.4735 23.0812C63.4035 23.637 63.2808 24.1636 63.2108 24.7194C63.1597 25.1815 63.8334 25.3519 63.8847 24.8903C63.9545 24.3339 64.066 23.7665 64.1472 23.2515C64.2515 22.8198 63.5362 22.661 63.4735 23.0812Z" fill="#D5A864"/>
<path d="M65.4678 29.6392C65.4678 29.6392 65.4263 29.6507 65.4377 29.6921C65.366 29.7566 65.329 29.9463 65.3519 30.029C65.3635 30.0709 65.3635 30.0709 65.375 30.1123C65.474 30.3082 65.5916 30.4097 65.7994 30.352C66.4759 30.2091 67.162 29.6157 67.7394 29.2764C68.6146 28.7195 69.5316 28.1516 70.4069 27.5953C70.788 27.3551 70.4378 26.7367 70.0567 26.9768C69.4192 27.4225 68.7288 27.8383 68.0797 28.2421C67.4723 28.6348 66.6429 29.3572 65.9063 29.6064C65.7056 29.528 65.5695 29.5213 65.4678 29.6392Z" fill="#D5A864"/>
<path d="M66.1393 23.0103C66.5965 22.8833 66.401 22.1772 65.9439 22.3043C65.4867 22.4314 65.6821 23.1374 66.1393 23.0103Z" fill="#D5A864"/>
<path d="M61.9018 18.3723C61.8903 18.3309 61.8903 18.3309 61.8787 18.289C61.7523 17.8323 61.0458 18.0287 61.1722 18.4854C61.1838 18.5273 61.1838 18.5273 61.1953 18.5687C61.3217 19.0254 62.0282 18.829 61.9018 18.3723Z" fill="#D5A864"/>
<path d="M64.2028 20.8645C64.6271 21.1042 64.9463 20.4785 64.5635 20.2273C64.5105 20.1974 64.4043 20.1373 64.3513 20.1074C63.9268 19.8672 63.6076 20.4929 63.9904 20.7441C64.0966 20.8043 64.1496 20.8341 64.2028 20.8645Z" fill="#D5A864"/>
<path d="M63.9791 22.8062C64.3019 23.1638 64.7802 22.6281 64.4689 22.3119C64.1346 21.9129 63.7589 21.5255 63.436 21.1674C63.1132 20.8098 62.6349 21.3455 62.9462 21.6617C63.2804 22.0606 63.6148 22.4601 63.9791 22.8062Z" fill="#D5A864"/>
<path d="M65.8009 26.6386C65.8238 26.7214 65.93 26.7815 66.0246 26.7998C66.0246 26.7998 66.0246 26.7998 66.0362 26.8417C66.1007 26.9129 66.1352 27.0376 66.1998 27.1093C66.2987 27.3052 66.4508 27.5314 66.55 27.7278C66.7896 28.1085 67.4086 27.7576 67.1689 27.3769C67.0698 27.1806 66.9177 26.9543 66.8188 26.7585C66.7196 26.5621 66.609 26.3243 66.4384 26.193C66.0625 25.805 65.6028 26.2464 65.8009 26.6386Z" fill="#D5A864"/>
<path d="M69.1879 30.3049C69.026 30.5287 68.8528 30.7111 68.6149 30.8218C68.2223 31.0206 68.584 31.6804 68.9651 31.4403C69.3162 31.2536 69.561 31.0062 69.7829 30.676C70.065 30.24 69.4283 29.88 69.1879 30.3049Z" fill="#D5A864"/>
<path d="M37.7566 36.4014C38.1326 36.7894 38.4784 37.2303 38.8541 37.6177C39.1769 37.9753 39.6552 37.4396 39.344 37.1239C38.9681 36.736 38.6223 36.2951 38.2465 35.9077C37.9653 35.5385 37.4339 36.0438 37.7566 36.4014Z" fill="#D5A864"/>
<path d="M39.019 34.171C38.5231 33.9957 38.027 33.8205 37.531 33.6454C37.0879 33.5 36.9164 34.1738 37.3594 34.3191C37.8555 34.4943 38.3515 34.6695 38.8477 34.8452C39.2606 35.0435 39.4621 34.3163 39.019 34.171Z" fill="#D5A864"/>
<path d="M36.2849 31.085C37.0719 31.1793 37.8703 31.315 38.6573 31.4099C39.1189 31.4605 39.2904 30.7867 38.8287 30.7356C38.0418 30.6413 37.2434 30.5055 36.4563 30.4107C35.9948 30.3601 35.8234 31.0344 36.2849 31.085Z" fill="#D5A864"/>
<path d="M40.4562 25.9432C40.1795 25.7517 40.0044 25.4427 39.9539 25.0985C39.9495 24.921 39.8088 24.7361 39.5896 24.7525C39.4119 24.7573 39.1855 24.9094 39.243 25.1173C39.3208 25.7218 39.595 26.2271 40.0956 26.5804C40.4784 26.8317 40.8507 26.2363 40.4562 25.9432Z" fill="#D5A864"/>
<path d="M49.7475 33.9641C49.598 33.4241 49.3652 32.9067 49.0196 32.4663C48.7384 32.0972 48.1194 32.448 48.4006 32.8172C48.7348 33.2161 48.9445 33.6503 49.041 34.1604C49.1674 34.6172 49.8739 34.4208 49.7475 33.9641Z" fill="#D5A864"/>
<path d="M59.2237 21.3094C59.2122 21.268 59.2008 21.2266 59.1892 21.1847C59.0628 20.728 58.3562 20.9244 58.4827 21.3811C58.4943 21.423 58.5057 21.4644 58.5172 21.5058C58.6437 21.963 59.3502 21.7667 59.2237 21.3094Z" fill="#D5A864"/>
<path d="M40.2383 8.8256C40.333 8.8444 40.4461 8.76786 40.5293 8.74475C40.6124 8.72165 40.6955 8.69856 40.7557 8.59271C40.929 8.41029 40.8785 8.06616 40.7379 7.88184C40.5858 7.65564 40.3321 7.54734 40.0596 7.53337C39.882 7.53818 39.7802 7.65558 39.7316 7.80335C39.5743 8.20523 39.6521 8.80971 40.2383 8.8256Z" fill="#D5A864"/>
<path d="M58.613 13.606C59.0842 13.2065 58.6951 12.2858 58.1204 12.3113C57.9009 12.3271 57.7879 12.4037 57.6861 12.5211C57.6445 12.5326 57.6445 12.5326 57.603 12.5442C57.4783 12.5788 57.3767 12.6968 57.3582 12.7916C57.2724 13.1285 57.4175 13.4909 57.6942 13.6819C58.0125 13.862 58.3566 13.8115 58.613 13.606Z" fill="#D5A864"/>
<path d="M68.9801 19.0445C69.3374 19.5268 70.0068 19.5201 70.448 19.1736C70.8893 18.8275 70.7653 18.0565 70.3595 17.722C69.9004 17.3572 69.2355 17.542 68.9234 18.0314C68.7616 18.2552 68.7475 18.5276 68.8581 18.7654C68.8811 18.8487 68.9156 18.9733 68.9801 19.0445Z" fill="#D5A864"/>
<path d="M40.4489 33.1921C40.6771 33.5314 41.1731 33.7066 41.5427 33.4251C41.656 33.349 41.7461 33.1897 41.7116 33.0651C41.8478 33.0718 41.9841 33.0791 42.1202 33.0858C42.3925 33.0998 42.5012 32.8456 42.4322 32.5963C42.5268 32.6146 42.5684 32.6031 42.6515 32.58C42.8593 32.5222 42.938 32.3215 42.892 32.1555C42.8345 31.9476 42.6337 31.8691 42.4675 31.9153C42.3428 31.95 42.2324 31.7127 42.2395 31.5765C42.281 31.565 42.2925 31.6063 42.334 31.5948C42.8602 31.7171 43.3747 31.7974 43.9008 31.9197C44.374 32.0121 44.5454 31.3378 44.0724 31.2459C43.5462 31.1236 43.0317 31.0433 42.5056 30.921C42.3693 30.9137 42.2861 30.9369 42.2146 31.0019C42.097 30.9003 41.9608 30.893 41.8061 30.9811C41.6999 30.921 41.6469 30.8911 41.5408 30.831C41.3816 30.7409 41.2569 30.7756 41.1854 30.8406C41.1439 30.8522 41.1138 30.9051 41.0421 30.9696C40.8802 31.1933 40.8661 31.4657 40.9237 31.6737C40.7531 31.5423 40.654 31.3459 40.6911 31.1568C40.7839 30.6837 40.0685 30.5243 40.0173 30.9859C39.9244 31.459 40.051 31.9162 40.4454 32.2093C40.4613 32.4283 40.5072 32.5943 40.678 32.7263C40.4586 32.7421 40.2969 32.9664 40.4489 33.1921ZM41.7009 32.218L41.7425 32.2065C41.7539 32.2479 41.8186 32.3196 41.8716 32.3494C41.83 32.361 41.83 32.361 41.777 32.3311C41.724 32.3013 41.7124 32.2594 41.7009 32.218ZM41.3641 32.1328C41.3225 32.1444 41.281 32.1559 41.281 32.1559C41.2394 32.1675 41.1978 32.179 41.1748 32.0958C41.1818 31.9596 41.1174 31.8884 41.0528 31.8166C41.1403 31.9711 41.2579 32.0727 41.3641 32.1328Z" fill="#D5A864"/>
<path d="M43.2497 27.6275C43.2241 27.8585 43.27 28.0245 43.3992 28.1675C43.2029 28.2671 43.1056 28.5621 43.2878 28.7354C43.4169 28.8783 43.5459 29.0213 43.6752 29.1647C43.7211 29.3308 43.7671 29.4968 43.8131 29.6628C43.9396 30.1201 44.6461 29.9237 44.5195 29.4665C44.4391 29.1758 44.3586 28.8851 44.2896 28.6358C44.3311 28.6242 44.3727 28.6127 44.4257 28.6425C44.668 28.7094 44.9174 28.6401 45.0906 28.4577C45.7937 29.3809 46.4552 30.3155 47.1583 31.2387C47.4395 31.6078 48.0585 31.257 47.7771 30.8873C47.0626 29.9228 46.3366 28.9169 45.5805 27.964C45.4399 27.7791 45.2206 27.7955 45.0658 27.8831C44.9183 27.835 44.7406 27.8398 44.6388 27.9572C44.5671 28.0217 44.431 28.0149 44.3965 27.8903C44.4106 27.6179 44.1569 27.5096 43.9491 27.5673C43.8757 27.1404 43.3124 27.2073 43.2497 27.6275Z" fill="#D5A864"/>
<path d="M45.545 26.5424C45.4804 26.4707 45.416 26.3995 45.3514 26.3277C45.2223 26.1848 45.0561 26.231 44.9314 26.2657C44.8483 26.2887 44.7466 26.4067 44.728 26.501C44.5221 27.0506 45.0084 27.6758 45.5832 27.6503C45.6248 27.6388 45.7079 27.6157 45.7494 27.6041C45.9917 27.671 46.2781 27.4121 46.2092 27.1633C46.4099 27.2418 46.5947 27.1007 46.6433 26.953C47.1634 28.5085 47.8381 29.9759 48.6676 31.3558C48.9072 31.7365 49.5262 31.3856 49.2865 31.005C48.7082 30.0472 48.243 29.0134 47.8194 27.968C48.2765 27.841 48.0811 27.1349 47.6239 27.262C47.5824 27.2735 47.5824 27.2735 47.5408 27.2851C47.4833 27.0771 47.3728 26.8399 47.3153 26.632C47.3153 26.632 47.3153 26.632 47.3568 26.6204C47.532 26.9299 48.0536 26.8741 48.0332 26.477C48.02 25.9442 47.7573 25.4803 47.3099 25.1573C47.1392 25.0259 46.9429 25.1251 46.8413 25.243C46.7148 24.7857 46.0083 24.9821 46.1348 25.4393C46.1577 25.5221 46.1922 25.6468 46.2153 25.73L46.1621 25.6997C45.6705 25.7021 45.4415 26.1684 45.545 26.5424ZM46.21 26.3576C46.1985 26.3162 46.1569 26.3278 46.1453 26.2859C46.1869 26.2743 46.1985 26.3162 46.21 26.3576ZM45.9677 26.2907C45.9677 26.2907 46.0092 26.2792 45.9978 26.2378C45.9677 26.2907 45.9677 26.2907 45.9677 26.2907Z" fill="#D5A864"/>
<path d="M59.7925 24.8195C59.8845 25.1515 59.9765 25.4841 60.0684 25.8162C59.8422 25.9688 59.7794 26.3889 60.1579 26.4626C60.4833 26.5064 60.7555 26.5198 61.0695 26.5223C61.1154 26.6883 61.2029 26.8428 61.249 27.0093L61.2605 27.0507C61.3711 27.2885 61.4401 27.5378 61.5506 27.7756C61.5735 27.8583 61.6266 27.8881 61.6912 27.9599C61.6611 28.0128 61.6426 28.1076 61.6125 28.1606C61.5339 28.3618 61.6744 28.5461 61.8637 28.5831C62.0528 28.6197 62.2492 28.5206 62.2864 28.3314C62.4322 27.8882 62.6312 27.4753 62.777 27.032C62.8557 26.8313 62.7151 26.6465 62.5257 26.6094C62.5257 26.6094 62.4842 26.621 62.4727 26.5796C62.6346 26.3558 62.7549 26.1436 62.7689 25.8712C62.8317 25.451 62.1993 25.2685 62.0836 25.6589C62.019 25.5871 61.913 25.5275 61.7582 25.6151C61.4372 25.7488 61.0933 25.7999 60.7378 25.809C60.6344 25.4355 60.5193 25.0197 60.4159 24.6462C60.3425 24.2193 59.6776 24.4041 59.7925 24.8195ZM62.0776 27.0921C62.0661 27.0508 62.0661 27.0508 62.0776 27.0921V27.0921Z" fill="#D5A864"/>
</g>
</g>
<defs>
<clipPath id="clip0_9_3106">
<rect width="112" height="138" fill="white"/>
</clipPath>
</defs>
</svg>
