<svg width="125" height="132" viewBox="0 0 125 132" fill="none" xmlns="http://www.w3.org/2000/svg">
<g clip-path="url(#clip0_150_2163)">
<mask id="mask0_150_2163" style="mask-type:luminance" maskUnits="userSpaceOnUse" x="-8" y="-6" width="143" height="142">
<path d="M82.3955 -5.98574L-7.49805 47.189L44.4618 135.029L134.355 81.854L82.3955 -5.98574Z" fill="white"/>
</mask>
<g mask="url(#mask0_150_2163)">
<path d="M81.1832 13.3565C80.7575 14.3192 76.7981 21.5664 74.6152 23.2842C76.4762 19.3398 77.6044 15.118 78.0933 10.7768C78.1289 10.1159 77.1424 10.1307 77.1068 10.7916C76.6825 14.8814 75.6188 18.8517 73.8535 22.5973C73.6614 21.4314 73.2179 20.2009 73.0763 19.3605C72.4688 15.8099 71.8088 12.2905 71.2014 8.73996C71.1005 8.08874 70.1333 8.3765 70.2342 9.02773C70.6807 11.465 71.1056 13.9861 71.5521 16.4233C71.7345 17.4528 71.9481 18.535 72.0779 19.5956C72.2099 20.2995 72.3419 21.0034 72.4739 21.7073C72.5029 22.1167 72.5845 22.495 72.6972 22.9259C69.5494 19.5273 67.1604 15.6089 65.5614 11.2231C65.324 10.5815 64.3569 10.8693 64.5942 11.5109C66.2652 16.1384 68.8314 20.2364 72.1876 23.8671C68.7632 22.7649 65.9128 20.47 64.0438 17.3103C63.7011 16.731 62.8059 17.2606 63.1485 17.8399C65.183 21.3993 68.3997 23.8329 72.2121 24.9901C72.6014 33.2193 71.8054 41.3677 69.8457 49.3514C68.7917 53.4582 67.4023 57.4791 65.7304 61.3827C64.3671 64.6061 62.6166 69.3382 59.9027 72.081C61.0183 61.4686 60.5371 51.1611 59.596 40.5569C59.6176 40.4731 59.6918 40.3581 59.6822 40.2216C63.7661 38.2324 66.0535 34.8888 67.5074 30.6166C67.7106 29.9987 66.7048 29.7406 66.5016 30.3585C65.3371 33.6776 63.6622 36.3744 60.9431 38.2672C61.2087 37.7547 61.3592 37.168 61.5506 36.7704C62.457 34.4571 63.112 32.0792 63.4005 29.5626C63.52 28.9232 62.5142 28.6651 62.3948 29.3044C62.1752 30.8561 61.8933 32.3024 61.4223 33.7895C61.1115 34.8264 60.421 37.8652 59.2602 38.9073C57.9444 36.2022 57.4905 33.2717 57.8244 30.2308C57.86 29.5699 56.8735 29.5847 56.8379 30.2456C56.5256 33.2028 56.9482 36.0807 58.0963 38.7427C55.622 36.723 53.7174 34.2241 52.4135 31.2988C52.1235 30.6884 51.2282 31.2179 51.5182 31.8284C52.7502 34.5119 54.3938 36.8097 56.5328 38.7434C53.276 37.6842 50.5072 35.7676 48.9853 32.4736C48.6953 31.8632 47.8527 32.3616 48.09 33.0032C49.9428 37.0967 53.7173 39.2714 57.9509 40.1793C58.2446 43.5601 58.5071 46.8881 58.6643 50.2784C57.6007 49.2015 56.4845 48.1556 55.4209 47.0787C56.1722 46.0655 55.3735 42.9125 55.105 42.2183C54.8676 41.5767 53.9005 41.8644 54.1378 42.506C54.3751 43.1476 54.5813 43.7365 54.6295 44.4189C54.6799 44.7445 54.6777 45.1013 54.6755 45.458C54.654 45.5418 54.6636 45.6783 54.6206 45.8459L54.5894 45.7933C54.2275 44.9411 53.7602 44.1511 53.2403 43.3924C52.9073 42.9495 52.213 43.218 52.3354 43.7854C52.3451 43.9219 52.3762 43.9746 52.3859 44.1111C52.4578 44.3529 52.5728 44.427 52.7404 44.47C52.8961 44.7334 53.083 45.0493 53.2388 45.3126C53.3946 45.5759 53.4665 45.8177 53.6223 46.081C53.6534 46.1337 53.6534 46.1337 53.6846 46.1864C52.7938 46.0024 51.9675 45.567 51.3734 44.9232C50.9566 44.4589 50.2386 45.168 50.6554 45.6323C51.4268 46.4556 52.368 46.9651 53.4791 47.161C53.1008 47.2426 52.7441 47.2403 52.3873 47.2381C51.8102 47.224 50.6035 47.2269 50.493 46.4393C50.3921 45.788 49.4056 45.8028 49.5065 46.4541C49.6556 47.7877 50.7763 48.12 51.9089 48.232C52.8738 48.301 53.8603 48.2861 54.6406 47.6824C55.9653 48.9604 57.2373 50.2695 58.5619 51.5475C58.6242 51.6528 58.7081 51.6743 58.7919 51.6959C59.1255 58.7495 59.0186 65.7794 58.239 72.994C52.0302 67.4251 46.245 61.2503 40.9768 54.6276C43.6477 52.0524 44.7714 48.5441 45.7275 44.9929C45.9308 44.375 44.925 44.1169 44.7218 44.7347C43.9066 47.5628 43.0914 50.391 41.3039 52.6569C42.1309 49.6084 42.3809 46.5459 41.9916 43.364C41.8907 42.7128 40.9042 42.7276 41.0051 43.3788C41.3729 46.6446 41.1637 49.8962 40.1787 53.0381C39.6388 50.4428 38.7206 47.9292 37.4864 45.6024C37.1437 45.0231 36.3012 45.5216 36.5912 46.132C37.8253 48.4587 38.7124 50.9197 39.2211 53.4623C36.2877 52.7094 32.9545 52.122 30.722 50.0303C30.2525 49.5971 29.5345 50.3062 30.004 50.7394C32.2988 52.9363 35.6105 53.6076 38.6278 54.382C37.6294 54.6171 36.6407 54.9887 35.6327 55.0873C34.11 55.2772 32.5702 54.8373 31.253 54.0526C30.7093 53.7344 30.1686 54.623 30.7649 54.91C31.9984 55.6732 33.3394 56.0174 34.7449 56.1101C36.4545 56.2363 37.9291 55.364 39.5883 55.1645L39.6409 55.1334C39.6506 55.2699 39.6914 55.459 39.8375 55.5858C44.8662 61.9238 50.328 67.7923 56.3068 73.2128C45.3882 72.4205 34.9999 69.0396 25.6329 63.4195C26.2886 62.6052 26.6543 61.1803 26.9317 60.4475C27.7328 58.1965 27.9375 55.6583 27.6587 53.2641C27.5578 52.6129 26.5713 52.6277 26.6722 53.2789C26.8502 55.0219 26.7982 56.6166 26.4518 58.3144C26.3754 58.7861 25.8162 60.9652 25.1894 62.189C25.5217 61.0683 25.2384 59.3876 25.1375 58.7364C24.6451 55.26 23.2262 52.2605 20.881 49.7379C20.4642 49.2736 19.7462 49.9827 20.163 50.447C21.6746 52.0409 22.6714 53.7261 23.4457 55.7562C23.7454 56.5031 23.887 57.3435 24.0813 58.1527C24.2949 59.2348 24.0346 60.5973 24.2482 61.6795C22.1514 58.0147 19.4635 54.9128 16.1748 52.2374C15.6527 51.8354 14.9347 52.5445 15.4568 52.9465C18.391 55.2629 20.8082 58.0273 22.7826 61.1247C19.4583 59.1101 16.134 57.0956 12.8623 55.0499C12.3186 54.7317 11.8306 55.5891 12.3743 55.9073C15.9596 58.1229 19.5977 60.3073 23.1831 62.5228C18.7417 62.9462 14.4242 62.0168 10.5563 59.6841C10.0126 59.3659 9.52455 60.2233 10.0682 60.5415C13.9673 62.9269 18.4836 63.952 22.9776 63.4974C22.1172 66.8499 14.6341 65.376 12.4335 64.9005C11.7941 64.7811 11.5048 65.7342 12.1753 65.9063C15.2141 66.5969 22.7187 67.9869 23.9403 63.9231C34.1002 70.2827 45.578 73.9432 57.5885 74.6584C57.6723 74.6799 57.725 74.6487 57.7776 74.6176C67.2335 86.1565 73.6209 100.079 84.69 110.379C85.4206 111.014 86.4976 109.95 85.7358 109.263C74.9901 99.2693 68.6628 85.8087 59.6045 74.4611C59.626 74.3773 59.6475 74.2935 59.6378 74.157C62.6418 72.0246 64.1987 68.0469 65.7823 64.8353C67.7271 60.9124 69.1905 56.7767 70.4865 52.5979C70.551 52.3464 70.6155 52.095 70.6801 51.8436C70.9745 51.7405 71.1755 51.4794 71.4077 51.271L71.4604 51.2398C73.5809 49.4167 75.2105 47.2443 76.4329 44.744C77.0173 45.2514 78.0446 45.4257 78.6646 45.2721C80.4195 44.8739 81.587 42.7615 82.4771 41.3819C82.8479 40.8071 81.9379 40.3502 81.6197 40.8939C81.1005 41.6986 80.5286 42.5345 79.8944 43.2651C79.4397 43.8184 78.9754 44.2352 78.2404 44.3146C78.1877 44.3457 77.9363 44.2812 77.6011 44.1952C77.759 44.1017 77.8859 43.9556 78.0127 43.8095C78.8049 42.9855 79.3886 41.9293 79.8359 40.8827C80.0703 40.3176 79.1817 39.7768 78.9785 40.3947C78.6914 40.991 78.457 41.5562 78.0862 42.131C78.012 42.246 77.4401 43.0819 77.0811 43.4364C77.1308 42.1985 77.0967 40.9391 77.6493 39.8302C77.9364 39.2339 77.079 38.7458 76.7919 39.3422C76.2608 40.3672 76.1488 41.4998 76.1206 42.6539C75.6534 41.864 75.3441 40.9806 75.6119 40.1113C75.8151 39.4935 74.8093 39.2353 74.6061 39.8532C74.1566 41.2565 74.9235 42.7933 75.7453 43.9422C74.6498 46.2964 73.1255 48.4065 71.1941 50.1888C73.4075 41.9129 74.2272 33.3239 73.8186 24.8217C73.8186 24.8217 73.8713 24.7906 73.8401 24.7379C74.9609 25.0702 76.7921 24.2002 77.7282 23.8598C80.5267 22.702 82.7644 20.5963 84.3436 18.0983C84.7144 17.5235 83.8044 17.0665 83.4862 17.6102C82.3736 19.3347 81.0429 20.6905 79.3674 21.8238C79.0514 22.0107 77.1771 23.0483 75.7048 23.5638C78.5003 21.1993 81.5934 14.8911 82.189 13.6146C82.3277 13.2482 81.4703 12.7602 81.1832 13.3565Z" fill="#A7B76B"/>
<path d="M29.198 47.0931C29.8685 47.2652 30.074 46.2906 29.4562 46.0874C29.2885 46.0444 29.2047 46.0228 29.0371 45.9798C28.3666 45.8077 28.1611 46.7823 28.779 46.9856C28.9466 47.0286 29.0831 47.019 29.198 47.0931Z" fill="#A7B76B"/>
<path d="M31.0066 43.1799C30.9443 43.0746 30.9132 43.0219 30.8509 42.9166C30.5082 42.3373 29.6129 42.8669 29.9556 43.4462C30.0179 43.5515 30.0491 43.6042 30.1114 43.7095C30.5067 44.2576 31.3493 43.7592 31.0066 43.1799Z" fill="#A7B76B"/>
<path d="M32.3698 46.5673C32.5375 46.6104 32.6213 46.6319 32.7889 46.6749C33.4594 46.847 33.6649 45.8724 33.047 45.6691C32.8794 45.6261 32.7956 45.6046 32.628 45.5616C31.9886 45.4422 31.7305 46.4479 32.3698 46.5673Z" fill="#A7B76B"/>
<path d="M34.8988 41.5881C34.8365 41.4828 34.8054 41.4301 34.7431 41.3248C34.4004 40.7455 33.5052 41.2751 33.8478 41.8544C33.9101 41.9597 33.9413 42.0124 34.0036 42.1177C34.3677 42.6132 35.2103 42.1147 34.8988 41.5881Z" fill="#A7B76B"/>
<path d="M37.7484 42.3196C37.6861 42.2142 37.655 42.1616 37.5927 42.0563C37.25 41.477 36.3548 42.0065 36.6974 42.5858C36.7597 42.6911 36.7909 42.7438 36.8532 42.8491C37.2174 43.3446 38.0599 42.8462 37.7484 42.3196Z" fill="#A7B76B"/>
<path d="M36.995 38.6422C37.6655 38.8143 37.8709 37.8397 37.2531 37.6364C37.0855 37.5934 37.0017 37.5719 36.834 37.5289C36.1635 37.3568 35.9581 38.3314 36.5759 38.5346C36.7435 38.5777 36.8585 38.6518 36.995 38.6422Z" fill="#A7B76B"/>
<path d="M39.9526 40.518C40.1729 40.5299 40.362 40.4891 40.635 40.4698C41.3173 40.4216 41.2714 39.3825 40.6201 39.4833C40.3999 39.4714 40.2107 39.5122 39.9378 39.5315C39.2769 39.4959 39.2702 40.5662 39.9526 40.518Z" fill="#A7B76B"/>
<path d="M43.6935 42.9967C44.364 43.1688 44.5694 42.1942 43.9516 41.9909C43.784 41.9479 43.7001 41.9264 43.5325 41.8834C42.862 41.7113 42.6565 42.6859 43.2744 42.8891C43.442 42.9322 43.5785 42.9225 43.6935 42.9967Z" fill="#A7B76B"/>
<path d="M44.1336 39.8937C44.4162 40.0109 44.6891 39.9916 44.8063 39.709C44.9546 39.4791 44.8731 39.1008 44.6216 39.0363C44.5067 38.9621 44.339 38.9191 44.2552 38.8976C44.0253 38.7492 43.6997 38.7997 43.5513 39.0296C43.403 39.2595 43.4846 39.6378 43.736 39.7023C43.851 39.7765 44.0186 39.8195 44.1336 39.8937Z" fill="#A7B76B"/>
<path d="M47.4484 43.3353C47.5537 43.273 47.6064 43.2418 47.7117 43.1795C48.291 42.8369 47.7614 41.9416 47.1821 42.2843C47.0768 42.3466 47.0242 42.3777 46.9188 42.44C46.3707 42.8353 46.8691 43.6779 47.4484 43.3353Z" fill="#A7B76B"/>
<path d="M48.7564 28.8414C48.663 28.6834 48.5695 28.5255 48.4449 28.3148C48.1022 27.7355 47.207 28.2651 47.5497 28.8444C47.6431 29.0024 47.7366 29.1603 47.8612 29.371C48.2565 29.9191 49.0991 29.4207 48.7564 28.8414Z" fill="#A7B76B"/>
<path d="M49.5285 31.2282C49.6961 31.2713 49.78 31.2928 49.9476 31.3358C50.6181 31.5079 50.8236 30.5333 50.2057 30.33C50.0381 30.287 49.9543 30.2655 49.7867 30.2225C49.1473 30.1031 48.8892 31.1088 49.5285 31.2282Z" fill="#A7B76B"/>
<path d="M46.6194 31.5983C47.2899 31.7703 47.4954 30.7957 46.8775 30.5925C46.7099 30.5495 46.6261 30.528 46.4585 30.4849C45.788 30.3129 45.5825 31.2875 46.2004 31.4907C46.368 31.5337 46.5045 31.5241 46.6194 31.5983Z" fill="#A7B76B"/>
<path d="M52.0889 27.8653C52.1941 27.8031 52.2468 27.7719 52.3521 27.7096C52.9314 27.367 52.4018 26.4717 51.8225 26.8144C51.7172 26.8767 51.6646 26.9078 51.5593 26.9701C50.9801 27.3127 51.5096 28.208 52.0889 27.8653Z" fill="#A7B76B"/>
<path d="M54.1556 24.5097C55.1851 24.3273 54.2194 22.6948 53.5326 23.4565C53.3316 23.7176 53.4035 23.9594 53.5808 24.1389C53.6527 24.3807 53.83 24.5602 54.1556 24.5097Z" fill="#A7B76B"/>
<path d="M53.9957 30.0075C54.1633 30.0506 54.2471 30.0721 54.4148 30.1151C55.0853 30.2872 55.2907 29.3126 54.6729 29.1093C54.5053 29.0663 54.4214 29.0448 54.2538 29.0018C53.5833 28.8297 53.3252 29.8355 53.9957 30.0075Z" fill="#A7B76B"/>
<path d="M57.2719 26.2923C57.9424 26.4644 58.1478 25.4898 57.53 25.2866C57.3624 25.2436 57.2786 25.2221 57.1109 25.179C56.4404 25.007 56.235 25.9816 56.8528 26.1848C57.0204 26.2278 57.1881 26.2708 57.2719 26.2923Z" fill="#A7B76B"/>
<path d="M59.3897 29.8733C59.5573 29.9163 59.6412 29.9379 59.8088 29.9809C60.4793 30.153 60.6848 29.1784 60.0669 28.9751C59.8993 28.9321 59.8155 28.9106 59.6478 28.8676C59.0612 28.717 58.803 29.7227 59.3897 29.8733Z" fill="#A7B76B"/>
<path d="M61.7014 26.0892C62.3719 26.2613 62.5774 25.2867 61.9595 25.0835C61.7919 25.0404 61.7081 25.0189 61.5404 24.9759C60.8699 24.8038 60.6645 25.7784 61.2823 25.9817C61.3973 26.0558 61.5649 26.0989 61.7014 26.0892Z" fill="#A7B76B"/>
<path d="M60.7395 22.1796C61.41 22.3516 61.6154 21.377 60.9976 21.1738C60.83 21.1308 60.7462 21.1093 60.5785 21.0662C59.908 20.8942 59.7026 21.8688 60.3204 22.072C60.488 22.115 60.603 22.1892 60.7395 22.1796Z" fill="#A7B76B"/>
<path d="M65.018 27.6103C65.1856 27.6534 65.2694 27.6749 65.437 27.7179C66.1075 27.89 66.313 26.9154 65.6952 26.7121C65.5275 26.6691 65.4437 26.6476 65.2761 26.6046C64.6367 26.4852 64.3475 27.4382 65.018 27.6103Z" fill="#A7B76B"/>
<path d="M65.438 29.2813C64.7675 29.1092 64.5621 30.0838 65.1799 30.2871C65.3475 30.3301 65.4313 30.3516 65.599 30.3946C66.2695 30.5667 66.4749 29.5921 65.8571 29.3889C65.6895 29.3459 65.6057 29.3244 65.438 29.2813Z" fill="#A7B76B"/>
<path d="M68.6306 32.1555C68.3888 32.2274 68.2405 32.4574 68.2598 32.7303C68.4422 33.7598 70.1274 32.763 69.313 32.1073C69.0831 31.959 68.8101 31.9782 68.6306 32.1555Z" fill="#A7B76B"/>
<path d="M64.5562 32.7178C64.7238 32.7608 64.8076 32.7823 64.9752 32.8253C65.6457 32.9974 65.8512 32.0228 65.2334 31.8196C65.0657 31.7765 64.9819 31.755 64.8143 31.712C64.1749 31.5926 63.8857 32.5457 64.5562 32.7178Z" fill="#A7B76B"/>
<path d="M19.0962 53.2103C19.6754 52.8676 19.1459 51.9724 18.5666 52.315C18.0185 52.7103 18.5169 53.5529 19.0962 53.2103Z" fill="#A7B76B"/>
<path d="M15.8701 50.6407C15.9754 50.5784 16.0281 50.5472 16.1334 50.4849C16.7127 50.1423 16.1831 49.247 15.6038 49.5897C15.4985 49.652 15.4458 49.6831 15.3405 49.7454C14.7612 50.0881 15.2908 50.9834 15.8701 50.6407Z" fill="#A7B76B"/>
<path d="M18.4403 47.4141C18.5456 47.3518 18.5983 47.3207 18.7036 47.2584C19.2829 46.9157 18.7533 46.0205 18.174 46.3631C18.0687 46.4254 18.016 46.4566 17.9107 46.5189C17.3314 46.8615 17.861 47.7568 18.4403 47.4141Z" fill="#A7B76B"/>
<path d="M18.1451 51.0008C18.2504 50.9385 18.303 50.9073 18.4084 50.845C18.9876 50.5024 18.4581 49.6071 17.8788 49.9498C17.7735 50.0121 17.7208 50.0433 17.6155 50.1056C17.0674 50.5009 17.5658 51.3435 18.1451 51.0008Z" fill="#A7B76B"/>
<path d="M23.0506 50.1608C23.0194 50.1081 22.9883 50.0555 22.9571 50.0028C22.6145 49.4235 21.7192 49.9531 22.0619 50.5324C22.093 50.585 22.1242 50.6377 22.1553 50.6903C22.5506 51.2385 23.3932 50.7401 23.0506 50.1608Z" fill="#A7B76B"/>
<path d="M22.2518 47.0077C22.9223 47.1798 23.1278 46.2052 22.5099 46.0019C22.3423 45.9589 22.2585 45.9374 22.0909 45.8944C21.4204 45.7223 21.2149 46.6969 21.8327 46.9001C22.0004 46.9431 22.1153 47.0173 22.2518 47.0077Z" fill="#A7B76B"/>
<path d="M25.7476 51.8354C25.6853 51.7301 25.6541 51.6775 25.5918 51.5721C25.2492 50.9929 24.3539 51.5224 24.6966 52.1017C24.7589 52.207 24.79 52.2597 24.8523 52.365C25.2165 52.8605 26.0591 52.3621 25.7476 51.8354Z" fill="#A7B76B"/>
<path d="M26.1296 49.4768C26.0673 49.3715 26.0361 49.3188 25.9738 49.2135C25.6312 48.6342 24.7359 49.1638 25.0786 49.7431C25.1409 49.8484 25.172 49.901 25.2343 50.0064C25.577 50.5856 26.4723 50.0561 26.1296 49.4768Z" fill="#A7B76B"/>
<path d="M13.2301 53.2683C13.3354 53.206 13.3881 53.1749 13.4934 53.1126C14.0727 52.7699 13.5431 51.8746 12.9638 52.2173C12.8585 52.2796 12.8058 52.3108 12.7005 52.3731C12.1739 52.6846 12.7035 53.5798 13.2301 53.2683Z" fill="#A7B76B"/>
<path d="M9.55308 54.0218C10.1324 53.6791 9.60279 52.7839 9.02351 53.1265C8.47538 53.5219 8.9738 54.3645 9.55308 54.0218Z" fill="#A7B76B"/>
<path d="M9.18655 48.836C8.9685 48.4674 8.59022 48.549 8.35807 48.7574C8.06361 48.8605 7.89375 49.1742 8.13332 49.4591C8.53828 50.1437 9.53885 49.5518 9.18655 48.836Z" fill="#A7B76B"/>
<path d="M11.434 51.9139C11.5393 51.8516 11.592 51.8204 11.6973 51.7581C12.2766 51.4155 11.747 50.5202 11.1677 50.8629C11.0624 50.9252 11.0098 50.9563 10.9044 51.0186C10.3252 51.3613 10.8547 52.2565 11.434 51.9139Z" fill="#A7B76B"/>
<path d="M13.0967 47.8738C13.0344 47.7684 13.0032 47.7158 12.9409 47.6105C12.5983 47.0312 11.703 47.5607 12.0457 48.14C12.108 48.2453 12.1391 48.298 12.2014 48.4033C12.5441 48.9826 13.4394 48.453 13.0967 47.8738Z" fill="#A7B76B"/>
<path d="M13.3048 59.764C13.4102 59.7017 13.4628 59.6705 13.5682 59.6082C14.1474 59.2656 13.6179 58.3703 13.0386 58.713C12.9333 58.7753 12.8806 58.8064 12.7753 58.8687C12.196 59.2114 12.7256 60.1066 13.3048 59.764Z" fill="#A7B76B"/>
<path d="M6.358 61.5992C7.0285 61.7713 7.23397 60.7967 6.61613 60.5935C6.4485 60.5505 6.36469 60.5289 6.19707 60.4859C5.52657 60.3138 5.3211 61.2884 5.93894 61.4917C6.10656 61.5347 6.27419 61.5777 6.358 61.5992Z" fill="#A7B76B"/>
<path d="M5.58848 55.3718C5.42085 55.3288 5.33704 55.3073 5.16941 55.2642C4.49891 55.0922 4.29345 56.0668 4.91129 56.27C5.07891 56.313 5.16272 56.3345 5.33035 56.3776C5.9697 56.497 6.25898 55.5439 5.58848 55.3718Z" fill="#A7B76B"/>
<path d="M8.27632 58.4736C8.89416 58.6768 9.15229 57.671 8.53445 57.4678C8.36682 57.4248 8.28301 57.4033 8.11538 57.3603C7.49754 57.157 7.23941 58.1628 7.85725 58.366C7.99373 58.3564 8.16135 58.3994 8.27632 58.4736Z" fill="#A7B76B"/>
<path d="M8.22301 61.9884C7.92855 62.0915 7.75869 62.4052 7.99826 62.69C8.45589 63.3435 9.45647 62.7516 9.10417 62.0359C8.83345 61.6984 8.42403 61.7273 8.22301 61.9884ZM8.57978 61.9906C8.49597 61.9691 8.54863 61.9379 8.57978 61.9906C8.49597 61.9691 8.49597 61.9691 8.57978 61.9906Z" fill="#A7B76B"/>
<path d="M4.05894 66.7265C4.12124 66.8318 4.15239 66.8844 4.21469 66.9898C4.55735 67.569 5.4526 67.0395 5.10994 66.4602C5.04764 66.3549 5.01649 66.3022 4.95419 66.1969C4.61152 65.6176 3.71628 66.1472 4.05894 66.7265Z" fill="#A7B76B"/>
<path d="M8.36239 68.2328C7.74455 68.0296 7.48642 69.0353 8.10426 69.2386C8.27189 69.2816 8.3557 69.3031 8.52333 69.3461C9.19383 69.5182 9.39929 68.5436 8.78145 68.3404C8.61383 68.2973 8.53002 68.2758 8.36239 68.2328Z" fill="#A7B76B"/>
<path d="M11.6833 67.4771C11.578 67.5394 11.5253 67.5706 11.42 67.6329C10.8407 67.9756 11.3703 68.8708 11.9496 68.5281C12.0549 68.4658 12.1075 68.4347 12.2129 68.3724C12.7395 68.0609 12.2099 67.1656 11.6833 67.4771Z" fill="#A7B76B"/>
<path d="M8.82295 65.0457C8.71763 65.108 8.66497 65.1392 8.55964 65.2015C7.98036 65.5442 8.50993 66.4394 9.08921 66.0967C9.19453 66.0344 9.24719 66.0033 9.35252 65.941C9.90065 65.5457 9.40223 64.7031 8.82295 65.0457Z" fill="#A7B76B"/>
<path d="M60.5689 15.8824C61.1482 15.5397 60.6186 14.6445 60.0393 14.9871C59.46 15.3298 59.9896 16.2251 60.5689 15.8824Z" fill="#A7B76B"/>
<path d="M61.9941 17.8116C61.963 17.7589 61.9318 17.7062 61.9007 17.6536C61.6633 17.012 60.6961 17.2998 60.9335 17.9413C60.9646 17.994 60.9958 18.0467 61.0269 18.0993C61.2331 18.6882 62.2003 18.4005 61.9941 17.8116Z" fill="#A7B76B"/>
<path d="M62.3067 14.8544C62.9246 15.0576 63.1827 14.0518 62.5649 13.8486C62.4811 13.8271 62.3973 13.8056 62.3134 13.7841C61.6956 13.5808 61.4375 14.5866 62.0553 14.7898C62.1918 14.7802 62.2756 14.8017 62.3067 14.8544Z" fill="#A7B76B"/>
<path d="M65.2743 16.8668C65.327 16.8356 65.3797 16.8045 65.4323 16.7733C66.0116 16.4307 65.482 15.5354 64.9027 15.8781C64.8501 15.9092 64.7974 15.9404 64.7448 15.9715C64.1655 16.3142 64.695 17.2094 65.2743 16.8668Z" fill="#A7B76B"/>
<path d="M61.9738 9.36425C61.9115 9.25892 61.8492 9.1536 61.818 9.10094C61.4754 8.52166 60.5801 9.05123 60.9228 9.6305C60.9851 9.73583 61.0474 9.84115 61.0785 9.89381C61.4427 10.3893 62.2853 9.89086 61.9738 9.36425Z" fill="#A7B76B"/>
<path d="M66.7645 8.44994C66.786 8.36612 66.8075 8.28231 66.829 8.1985C67.0011 7.52799 66.0265 7.32253 65.8233 7.94037C65.8018 8.02418 65.7802 8.10799 65.7587 8.19181C65.6393 8.83116 66.5612 9.06777 66.7645 8.44994Z" fill="#A7B76B"/>
<path d="M67.9938 11.4902C68.0153 11.4064 68.0368 11.3226 68.0583 11.2388C68.2304 10.5683 67.2558 10.3628 67.0526 10.9806C67.0311 11.0645 67.0096 11.1483 66.988 11.2321C66.8686 11.8714 67.7906 12.1081 67.9938 11.4902Z" fill="#A7B76B"/>
<path d="M64.265 8.79109C64.8443 8.44842 64.3147 7.55318 63.7354 7.89584C63.1561 8.2385 63.6857 9.13375 64.265 8.79109Z" fill="#A7B76B"/>
<path d="M69.3384 2.94636C69.9176 2.6037 69.3881 1.70845 68.8088 2.05111C68.2295 2.39377 68.7591 3.28902 69.3384 2.94636Z" fill="#A7B76B"/>
<path d="M69.3687 6.48298C69.948 6.14032 69.4184 5.24507 68.8391 5.58773C68.291 5.98305 68.7894 6.82564 69.3687 6.48298Z" fill="#A7B76B"/>
<path d="M72.5065 3.13402C72.4442 3.0287 72.3819 2.92338 72.3507 2.87071C72.0081 2.29144 71.1128 2.821 71.4555 3.40028C71.5178 3.5056 71.5801 3.61093 71.6112 3.66359C71.9227 4.1902 72.818 3.66064 72.5065 3.13402Z" fill="#A7B76B"/>
<path d="M73.0572 8.99286C73.0883 9.04552 73.1195 9.09819 73.1506 9.15085C73.4933 9.73013 74.3885 9.20056 74.0459 8.62128C74.0147 8.56862 73.9836 8.51596 73.9524 8.4633C73.6409 7.93668 72.7457 8.46625 73.0572 8.99286Z" fill="#A7B76B"/>
<path d="M79.6714 5.15185C79.724 5.1207 79.7767 5.08955 79.8293 5.0584C80.4086 4.71574 79.879 3.82049 79.2998 4.16315C79.2471 4.1943 79.1945 4.22545 79.1418 4.2566C78.6152 4.56811 79.1447 5.46336 79.6714 5.15185Z" fill="#A7B76B"/>
<path d="M82.3583 1.64271C82.3895 1.69537 82.4206 1.74803 82.4518 1.8007C82.7944 2.37998 83.6897 1.85041 83.347 1.27113C83.3159 1.21847 83.2847 1.16581 83.2536 1.11315C82.8582 0.565018 82.0157 1.06343 82.3583 1.64271Z" fill="#A7B76B"/>
<path d="M82.1365 8.59846C82.7157 8.2558 82.1862 7.36055 81.6069 7.70321C81.0276 8.04587 81.5572 8.94112 82.1365 8.59846Z" fill="#A7B76B"/>
<path d="M77.2575 5.15761C77.2048 5.18876 77.1522 5.21991 77.0995 5.25106C76.5202 5.59372 77.0498 6.48897 77.6291 6.14631C77.6817 6.11516 77.7344 6.08401 77.7871 6.05286C78.3663 5.7102 77.8368 4.81495 77.2575 5.15761Z" fill="#A7B76B"/>
<path d="M76.8355 8.8907C77.4148 8.54803 76.8852 7.65279 76.3059 7.99545C75.7266 8.33811 76.2562 9.23336 76.8355 8.8907Z" fill="#A7B76B"/>
<path d="M80.4957 12.5548C81.075 12.2121 80.5454 11.3168 79.9661 11.6595C79.418 12.0548 79.9164 12.8974 80.4957 12.5548Z" fill="#A7B76B"/>
<path d="M86.0259 10.8473C85.4511 10.4765 84.9942 11.3866 85.5379 11.7048C85.6528 11.7789 85.7678 11.8531 85.8516 11.8746C86.4264 12.2455 86.8833 11.3354 86.3397 11.0172C86.2559 10.9957 86.1409 10.9215 86.0259 10.8473Z" fill="#A7B76B"/>
<path d="M82.5642 17.3735C83.1435 17.0309 82.614 16.1356 82.0347 16.4783C81.5392 16.8425 82.0376 17.685 82.5642 17.3735Z" fill="#A7B76B"/>
<path d="M85.449 20.9279C85.3964 20.959 85.3437 20.9902 85.291 21.0213C84.7117 21.364 85.2413 22.2592 85.8206 21.9166C85.8733 21.8854 85.9259 21.8543 85.9786 21.8231C86.5579 21.4805 86.0283 20.5852 85.449 20.9279Z" fill="#A7B76B"/>
<path d="M86.943 16.8449C86.9742 16.8975 87.0053 16.9502 87.0365 17.0028C87.3791 17.5821 88.2744 17.0526 87.9317 16.4733C87.9006 16.4206 87.8694 16.368 87.8383 16.3153C87.4956 15.736 86.6004 16.2656 86.943 16.8449Z" fill="#A7B76B"/>
<path d="M94.4895 14.9403C94.353 14.95 94.2165 14.9596 94.1327 14.9381C93.4504 14.9863 93.4963 16.0255 94.1475 15.9246C94.284 15.915 94.4205 15.9053 94.5043 15.9268C95.134 15.9098 95.1192 14.9233 94.4895 14.9403Z" fill="#A7B76B"/>
<path d="M88.7268 11.8084C88.1475 12.1511 88.6771 13.0463 89.2564 12.7037C89.8357 12.361 89.3061 11.4658 88.7268 11.8084Z" fill="#A7B76B"/>
<path d="M97.8303 36.2103C97.251 36.553 97.7806 37.4482 98.3598 37.1055C98.9391 36.7629 98.4096 35.8676 97.8303 36.2103Z" fill="#A7B76B"/>
<path d="M51.3655 42.8662C52.036 43.0383 52.2414 42.0637 51.6236 41.8605C51.5398 41.839 51.5398 41.839 51.456 41.8175C50.7855 41.6454 50.58 42.62 51.1978 42.8232C51.2505 42.7921 51.3343 42.8136 51.3655 42.8662Z" fill="#A7B76B"/>
<path d="M50.3843 43.731C50.566 43.197 49.917 42.9411 49.5268 43.243C49.0959 43.3557 48.9861 44.1315 49.5417 44.2295C49.9296 44.2843 50.2456 44.0974 50.3843 43.731ZM49.4527 43.3579C49.4527 43.3579 49.4312 43.4418 49.3785 43.4729C49.4312 43.4418 49.4 43.3891 49.4527 43.3579Z" fill="#A7B76B"/>
<path d="M48.5637 46.3013C48.6475 46.3228 48.6476 46.3228 48.7314 46.3443C49.3492 46.5476 49.6073 45.5418 48.9895 45.3386C48.9057 45.3171 48.9057 45.3171 48.8219 45.2956C48.204 45.0923 47.9459 46.0981 48.5637 46.3013Z" fill="#A7B76B"/>
<path d="M53.955 41.4763C54.113 41.3828 54.2087 41.1841 54.2518 41.0165C54.2636 40.7962 54.139 40.5856 53.9402 40.4899C53.8253 40.4157 53.605 40.4038 53.447 40.4972C53.447 40.4972 53.447 40.4972 53.3943 40.5284C53.131 40.6841 53.1288 41.0409 53.2534 41.2516C53.378 41.4622 53.6391 41.6632 53.955 41.4763Z" fill="#A7B76B"/>
<path d="M82.39 40.1535L82.4211 40.2061C82.7638 40.7853 83.659 40.2558 83.3164 39.6765L83.2852 39.6239C82.9426 39.0446 82.0473 39.5742 82.39 40.1535Z" fill="#A7B76B"/>
<path d="M80.4916 40.0684C81.0709 39.7258 80.5413 38.8305 79.962 39.1732C79.3828 39.5158 79.9123 40.4111 80.4916 40.0684Z" fill="#A7B76B"/>
<path d="M80.0778 35.7636C80.1089 35.8162 80.1401 35.8689 80.1713 35.9215C80.5139 36.5008 81.4092 35.9713 81.0665 35.392C81.0353 35.3393 81.0042 35.2867 80.973 35.234C80.6304 34.6547 79.7351 35.1843 80.0778 35.7636Z" fill="#A7B76B"/>
<path d="M77.3346 38.0966L77.3131 38.1805C77.141 38.851 78.1156 39.0564 78.3188 38.4386L78.3403 38.3548C78.4598 37.7154 77.454 37.4573 77.3346 38.0966Z" fill="#A7B76B"/>
<path d="M75.3479 38.7034C75.9272 38.3608 75.3976 37.4655 74.8183 37.8082C74.239 38.1509 74.7686 39.0461 75.3479 38.7034Z" fill="#A7B76B"/>
</g>
</g>
<defs>
<clipPath id="clip0_150_2163">
<rect width="125" height="132" fill="white"/>
</clipPath>
</defs>
</svg>
