<svg width="125" height="132" viewBox="0 0 125 132" fill="none" xmlns="http://www.w3.org/2000/svg">
<g clip-path="url(#clip0_9_3161)">
<mask id="mask0_9_3161" style="mask-type:luminance" maskUnits="userSpaceOnUse" x="-10" y="-9" width="147" height="147">
<path d="M-9.33341 58.4656L59.0558 137.404L136.191 70.5776L67.8017 -8.36107L-9.33341 58.4656Z" fill="white"/>
</mask>
<g mask="url(#mask0_9_3161)">
<path d="M9.91387 56.2003C10.9372 56.447 18.7755 59.0469 20.8558 60.8875C16.6423 59.7617 12.2868 59.4064 7.92815 59.7016C7.27157 59.7847 7.46251 60.7526 8.11909 60.6695C12.2188 60.3558 16.3154 60.6925 20.3162 61.7598C19.2034 62.1572 18.072 62.8136 17.2705 63.1032C13.8857 64.3356 10.541 65.6142 7.15627 66.8466C6.53358 67.0623 6.98962 67.9624 7.61232 67.7468C9.93049 66.8718 12.335 66.0029 14.6531 65.1279C15.6334 64.7644 16.66 64.3607 17.6803 64.0434C18.3493 63.7877 19.0182 63.532 19.6871 63.2762C20.0848 63.1746 20.4424 63.0267 20.8462 62.8387C18.0652 66.5434 14.6369 69.5944 10.6077 71.9518C10.0189 72.3 10.475 73.2002 11.0638 72.852C15.318 70.3806 18.8912 67.123 21.8634 63.1718C21.3911 66.7382 19.6428 69.9529 16.8682 72.3567C16.3595 72.7974 17.0406 73.5836 17.5493 73.1428C20.6877 70.5048 22.507 66.9048 22.9639 62.947C30.9909 61.0928 39.1504 60.4191 47.3558 60.9199C51.5849 61.2228 55.7894 61.8709 59.9289 62.818C63.3442 63.583 68.313 64.4593 71.4968 66.6392C60.856 67.4388 50.8005 69.755 40.5354 72.5767C40.4491 72.5705 40.3227 72.518 40.1901 72.5519C37.5028 68.8895 33.8042 67.2366 29.3409 66.57C28.6966 66.4805 28.6225 67.5162 29.2667 67.6057C32.7405 68.1581 35.6933 69.3238 38.0418 71.6607C37.49 71.4911 36.8859 71.4478 36.4605 71.3306C34.0224 70.8524 31.5657 70.6331 29.038 70.7991C28.3876 70.7959 28.3135 71.8316 28.9639 71.8348C30.5298 71.7734 32.0032 71.7922 33.5506 71.9897C34.6263 72.1101 37.7396 72.2463 38.9724 73.2021C36.5462 74.9803 33.7441 75.9507 30.6924 76.166C30.0358 76.2491 30.2267 77.217 30.8833 77.1339C33.8487 76.9125 36.6047 75.9822 39.0185 74.3766C37.4737 77.1722 35.3556 79.4929 32.7106 81.2987C32.1618 81.6932 32.8429 82.4794 33.3917 82.0849C35.8117 80.393 37.7787 78.3651 39.2988 75.9148C38.8389 79.3085 37.4481 82.3754 34.4793 84.4617C33.9306 84.8561 34.5716 85.596 35.1604 85.2478C38.8568 82.6931 40.3217 78.5906 40.4581 74.2628C43.7318 73.3695 46.9593 72.5162 50.2669 71.7554C49.3974 72.9944 48.568 74.2797 47.6986 75.5187C46.5674 74.9605 43.608 76.3101 42.9729 76.6984C42.3841 77.0466 42.8402 77.9468 43.429 77.5986C44.0178 77.2504 44.5603 76.9422 45.2231 76.7728C45.5345 76.665 45.8859 76.6034 46.2373 76.5418C46.3236 76.548 46.4561 76.5141 46.6288 76.5264L46.5825 76.5665C45.8087 77.075 45.1151 77.6759 44.4615 78.3231C44.0853 78.73 44.4736 79.365 45.01 79.1432C45.1426 79.1093 45.1888 79.0692 45.3214 79.0353C45.5464 78.9213 45.5988 78.795 45.6112 78.6223C45.8424 78.422 46.1199 78.1816 46.3511 77.9813C46.5823 77.781 46.8073 77.667 47.0386 77.4667C47.0848 77.4266 47.0848 77.4266 47.131 77.3865C47.1093 78.2959 46.8287 79.1867 46.3014 79.8863C45.9191 80.3794 46.7451 80.9591 47.1274 80.4659C47.7996 79.5598 48.1327 78.5426 48.1267 77.4145C48.2746 77.7721 48.3362 78.1235 48.3978 78.4749C48.487 79.0452 48.7057 80.2319 47.9504 80.4815C47.3277 80.6972 47.5187 81.6651 48.1414 81.4494C49.4268 81.0643 49.5534 79.9023 49.4612 78.7679C49.3565 77.8062 49.1656 76.8382 48.4321 76.1784C49.4526 74.6466 50.5133 73.1611 51.5338 71.6293C51.6263 71.5491 51.6325 71.4628 51.6387 71.3765C58.519 69.7872 65.4548 68.6356 72.6925 68.1128C68.3234 75.2171 63.2824 82.0131 57.7082 88.3805C54.697 86.213 51.0443 85.7346 47.3793 85.4287C46.7351 85.3392 46.6609 86.3749 47.3052 86.4644C50.2334 86.7609 53.1617 87.0573 55.7107 88.411C52.5636 88.1422 49.5057 88.4438 46.4446 89.3957C45.8219 89.6114 46.0129 90.5793 46.6356 90.3637C49.7829 89.4179 53.0196 89.0424 56.2869 89.4499C53.83 90.4451 51.521 91.7979 49.4524 93.4281C48.9437 93.8688 49.5847 94.6087 50.1335 94.2143C52.2021 92.584 54.4649 91.2713 56.8755 90.3161C56.6592 93.3369 56.6771 96.7215 55.0183 99.292C54.6761 99.8313 55.5021 100.411 55.8443 99.8716C57.5956 97.221 57.664 93.8426 57.8865 90.7355C58.2963 91.6758 58.8387 92.5821 59.1159 93.5562C59.575 95.0205 59.4175 96.6141 58.8809 98.0504C58.665 98.6422 59.6359 99.0154 59.8117 98.3773C60.3421 97.0273 60.441 95.6464 60.281 94.2469C60.0994 92.5422 58.9776 91.2474 58.4847 89.6506L58.4446 89.6044C58.5772 89.5705 58.756 89.4965 58.8547 89.3301C64.1915 83.2493 68.9889 76.8263 73.2532 69.9747C74.4257 80.8591 72.9565 91.6845 69.1017 101.905C68.1832 101.406 66.7159 101.301 65.9453 101.159C63.5873 100.773 61.0535 101.025 58.7477 101.728C58.125 101.943 58.3159 102.911 58.9386 102.696C60.6217 102.209 62.2 101.975 63.9323 102.012C64.4101 102.003 66.6541 102.164 67.9703 102.562C66.8082 102.435 65.2052 103.014 64.5825 103.23C61.2502 104.336 58.5527 106.268 56.49 109.027C56.1077 109.52 56.9337 110.099 57.316 109.606C58.6141 107.834 60.0939 106.552 61.9528 105.427C62.6341 104.999 63.4356 104.709 64.197 104.373C65.2235 103.97 66.6107 103.982 67.6372 103.579C64.4063 106.297 61.8349 109.496 59.7906 113.21C59.4884 113.796 60.3144 114.375 60.6166 113.79C62.3711 110.489 64.6588 107.616 67.3533 105.12C65.9656 108.751 64.5778 112.382 63.15 115.966C62.9341 116.558 63.865 116.885 64.0809 116.293C65.6197 112.37 67.1185 108.4 68.6573 104.476C69.868 108.77 69.7254 113.184 68.1218 117.407C67.9059 117.999 68.8368 118.326 69.0526 117.734C70.7025 113.471 70.9037 108.844 69.653 104.504C73.1053 104.751 72.993 112.377 72.9186 114.627C72.9154 115.278 73.9049 115.392 73.9543 114.701C74.0905 111.588 74.1165 103.956 69.8997 103.481C74.3405 92.3475 75.89 80.4001 74.4464 68.4553C74.4526 68.369 74.4125 68.3227 74.3724 68.2765C84.0349 56.91 96.5914 48.1364 104.747 35.4042C105.24 34.572 104.001 33.7025 103.462 34.5748C95.5497 46.9341 83.4372 55.5659 73.8919 66.5071C73.8056 66.5009 73.7193 66.4947 73.5867 66.5286C70.9516 63.9543 66.7596 63.1336 63.3167 62.1497C59.1093 60.9375 54.7786 60.237 50.4354 59.7091C50.1765 59.6905 49.9176 59.672 49.6586 59.6535C49.5046 59.3822 49.2117 59.2311 48.9652 59.0399L48.9251 58.9937C46.7523 57.2332 44.3235 56.0183 41.645 55.2626C42.0397 54.5969 42.0275 53.555 41.7656 52.9723C41.06 51.3169 38.773 50.5459 37.2565 49.9168C36.6246 49.6547 36.3378 50.6318 36.9296 50.8477C37.8142 51.2146 38.7389 51.6279 39.571 52.1212C40.1967 52.4696 40.6898 52.8519 40.8993 53.561C40.9394 53.6072 40.9209 53.8661 40.8961 54.2113C40.7759 54.0726 40.6095 53.9739 40.4431 53.8753C39.4907 53.2432 38.3472 52.8577 37.2375 52.6047C36.6395 52.4752 36.2664 53.4461 36.9106 53.5356C37.5487 53.7114 38.1466 53.841 38.7785 54.1031C38.9049 54.1555 39.8295 54.5687 40.2425 54.8586C39.0157 55.031 37.7826 55.2897 36.5929 54.9442C35.9548 54.7684 35.6279 55.6993 36.266 55.8751C37.3694 56.2143 38.5038 56.1221 39.6443 55.9435C38.9507 56.5444 38.1368 57.0067 37.2337 56.8986C36.5895 56.8091 36.5153 57.8448 37.1595 57.9343C38.6206 58.1257 39.9955 57.0964 40.979 56.0824C43.4911 56.7394 45.8398 57.8619 47.9387 59.4435C39.4003 58.7454 30.8032 59.4744 22.511 61.3964C22.511 61.3964 22.4709 61.3502 22.4247 61.3903C22.5513 60.2282 21.3679 58.5819 20.8656 57.7218C19.2262 55.1754 16.7544 53.3502 14.0143 52.2431C13.3824 51.981 13.0955 52.958 13.6873 53.1739C15.5829 53.9603 17.1548 55.0271 18.5694 56.473C18.8098 56.7505 20.1658 58.4091 20.9362 59.7655C18.1099 57.4378 11.3504 55.5224 9.98803 55.1645C9.60274 55.0936 9.27583 56.0244 9.91387 56.2003Z" fill="#D5A864"/>
<path d="M52.4009 101.316C52.4504 100.626 51.4547 100.598 51.3652 101.242C51.3529 101.415 51.3467 101.501 51.3343 101.674C51.2849 102.364 52.2805 102.392 52.37 101.748C52.3824 101.575 52.3485 101.443 52.4009 101.316Z" fill="#D5A864"/>
<path d="M48.2275 100.237C48.1351 100.317 48.0888 100.357 47.9963 100.437C47.4876 100.878 48.1687 101.664 48.6774 101.223C48.7699 101.143 48.8161 101.103 48.9086 101.023C49.3773 100.536 48.7362 99.796 48.2275 100.237Z" fill="#D5A864"/>
<path d="M51.3165 98.2899C51.3289 98.1173 51.335 98.031 51.3474 97.8583C51.3968 97.1679 50.4012 97.14 50.3117 97.7842C50.2993 97.9568 50.2932 98.0431 50.2808 98.2157C50.2776 98.8661 51.3133 98.9403 51.3165 98.2899Z" fill="#D5A864"/>
<path d="M45.9655 96.6918C45.873 96.7719 45.8267 96.812 45.7342 96.8921C45.2256 97.3328 45.9066 98.119 46.4153 97.6783C46.5078 97.5981 46.5541 97.5581 46.6465 97.4779C47.0689 97.0311 46.4279 96.2912 45.9655 96.6918Z" fill="#D5A864"/>
<path d="M46.1757 93.7572C46.0832 93.8374 46.0369 93.8774 45.9444 93.9575C45.4358 94.3982 46.1168 95.1844 46.6255 94.7437C46.718 94.6636 46.7643 94.6235 46.8568 94.5434C47.2791 94.0965 46.6381 93.3566 46.1757 93.7572Z" fill="#D5A864"/>
<path d="M42.6922 95.1562C42.7416 94.4657 41.746 94.4378 41.6565 95.082C41.6441 95.2546 41.638 95.341 41.6256 95.5136C41.5762 96.204 42.5718 96.2319 42.6613 95.5877C42.6737 95.4151 42.7261 95.2887 42.6922 95.1562Z" fill="#D5A864"/>
<path d="M44.009 91.9108C43.9813 91.6919 43.9073 91.5131 43.8396 91.248C43.6701 90.5852 42.656 90.8163 42.8716 91.439C42.8993 91.6578 42.9733 91.8366 43.0411 92.1017C43.1242 92.7583 44.1784 92.5735 44.009 91.9108Z" fill="#D5A864"/>
<path d="M45.7791 87.787C45.8286 87.0966 44.8329 87.0687 44.7434 87.7129C44.7311 87.8855 44.7249 87.9718 44.7125 88.1444C44.6631 88.8349 45.6587 88.8628 45.7482 88.2186C45.7606 88.046 45.7267 87.9134 45.7791 87.787Z" fill="#D5A864"/>
<path d="M42.6473 87.9087C42.7121 87.6098 42.6443 87.3447 42.3453 87.2799C42.0926 87.175 41.735 87.3229 41.7164 87.5818C41.664 87.7082 41.6516 87.8808 41.6455 87.9671C41.5406 88.2199 41.6484 88.5312 41.9012 88.6361C42.1539 88.7409 42.5115 88.593 42.5301 88.3341C42.5825 88.2077 42.5949 88.0351 42.6473 87.9087Z" fill="#D5A864"/>
<path d="M45.4407 84.0321C45.3606 83.9396 45.3205 83.8934 45.2404 83.8009C44.7997 83.2922 44.0136 83.9733 44.4543 84.482C44.5344 84.5745 44.5745 84.6207 44.6546 84.7132C45.1415 85.1818 45.8814 84.5408 45.4407 84.0321Z" fill="#D5A864"/>
<path d="M30.9466 85.3362C30.8078 85.4564 30.6691 85.5766 30.4841 85.7368C29.9754 86.1775 30.6565 86.9637 31.1652 86.523C31.3039 86.4028 31.4427 86.2826 31.6276 86.1223C32.0963 85.6354 31.4552 84.8955 30.9466 85.3362Z" fill="#D5A864"/>
<path d="M33.157 84.1502C33.1693 83.9776 33.1755 83.8913 33.1879 83.7187C33.2373 83.0282 32.2417 83.0003 32.1522 83.6445C32.1398 83.8171 32.1336 83.9034 32.1213 84.0761C32.1181 84.7265 33.1538 84.8006 33.157 84.1502Z" fill="#D5A864"/>
<path d="M34.0412 86.9462C34.0906 86.2558 33.095 86.2278 33.0055 86.8721C32.9931 87.0447 32.987 87.131 32.9746 87.3036C32.9252 87.9941 33.9208 88.022 34.0103 87.3778C34.0227 87.2052 33.9888 87.0726 34.0412 86.9462Z" fill="#D5A864"/>
<path d="M29.3904 82.2323C29.3104 82.1399 29.2703 82.0937 29.1902 82.0012C28.7495 81.4925 27.9633 82.1736 28.404 82.6823C28.4842 82.7748 28.5242 82.821 28.6043 82.9134C29.045 83.4221 29.8311 82.741 29.3904 82.2323Z" fill="#D5A864"/>
<path d="M25.7196 80.7986C25.356 79.8183 23.9225 81.0603 24.7947 81.5998C25.0875 81.7509 25.3126 81.6369 25.4575 81.4304C25.6825 81.3164 25.8274 81.1099 25.7196 80.7986Z" fill="#D5A864"/>
<path d="M31.1572 79.9732C31.1695 79.8006 31.1757 79.7142 31.1881 79.5416C31.2375 78.8512 30.2419 78.8232 30.1524 79.4675C30.14 79.6401 30.1338 79.7264 30.1215 79.899C30.072 80.5895 31.1077 80.6636 31.1572 79.9732Z" fill="#D5A864"/>
<path d="M26.9162 77.414C26.9656 76.7235 25.97 76.6956 25.8805 77.3398C25.8681 77.5125 25.862 77.5988 25.8496 77.7714C25.8002 78.4618 26.7958 78.4898 26.8853 77.8455C26.8977 77.6729 26.91 77.5003 26.9162 77.414Z" fill="#D5A864"/>
<path d="M30.0608 74.6899C30.0732 74.5173 30.0794 74.4309 30.0917 74.2583C30.1412 73.5679 29.1455 73.5399 29.056 74.1842C29.0437 74.3568 29.0375 74.4431 29.0251 74.6157C28.9819 75.2199 30.0176 75.294 30.0608 74.6899Z" fill="#D5A864"/>
<path d="M25.9244 73.0917C25.9738 72.4013 24.9782 72.3734 24.8887 73.0176C24.8763 73.1902 24.8701 73.2765 24.8578 73.4491C24.8083 74.1396 25.804 74.1675 25.8935 73.5233C25.9459 73.3969 25.9583 73.2243 25.9244 73.0917Z" fill="#D5A864"/>
<path d="M22.2498 74.7372C22.2993 74.0468 21.3036 74.0189 21.2141 74.6631C21.2018 74.8357 21.1956 74.922 21.1832 75.0946C21.1338 75.7851 22.1294 75.813 22.2189 75.1688C22.2313 74.9962 22.2837 74.8698 22.2498 74.7372Z" fill="#D5A864"/>
<path d="M26.8281 69.5569C26.8405 69.3843 26.8467 69.298 26.859 69.1253C26.9085 68.4349 25.9128 68.407 25.8233 69.0512C25.811 69.2238 25.8048 69.3101 25.7924 69.4827C25.7892 70.1331 26.7787 70.2474 26.8281 69.5569Z" fill="#D5A864"/>
<path d="M28.3972 68.8446C28.3478 69.5351 29.3434 69.563 29.4329 68.9188C29.4453 68.7462 29.4514 68.6599 29.4638 68.4872C29.5132 67.7968 28.5176 67.7689 28.4281 68.4131C28.4158 68.5857 28.4096 68.672 28.3972 68.8446Z" fill="#D5A864"/>
<path d="M30.6543 65.1898C30.7683 65.4148 31.0211 65.5197 31.2862 65.4519C32.2665 65.0883 30.9844 63.6085 30.4849 64.527C30.3801 64.7798 30.4478 65.0449 30.6543 65.1898Z" fill="#D5A864"/>
<path d="M31.9359 69.0979C31.9483 68.9253 31.9545 68.839 31.9668 68.6664C32.0163 67.9759 31.0206 67.948 30.9311 68.5922C30.9188 68.7648 30.9126 68.8511 30.9002 69.0237C30.897 69.6741 31.8865 69.7884 31.9359 69.0979Z" fill="#D5A864"/>
<path d="M60.2256 110.162C59.7849 109.653 58.9988 110.334 59.4395 110.843C59.9264 111.312 60.6663 110.671 60.2256 110.162Z" fill="#D5A864"/>
<path d="M58.274 113.796C58.1939 113.703 58.1538 113.657 58.0737 113.565C57.633 113.056 56.8468 113.737 57.2875 114.246C57.3676 114.338 57.4077 114.384 57.4878 114.477C57.9285 114.986 58.7147 114.304 58.274 113.796Z" fill="#D5A864"/>
<path d="M54.6399 111.844C54.5598 111.751 54.5198 111.705 54.4396 111.612C53.9989 111.104 53.2128 111.785 53.6535 112.294C53.7336 112.386 53.7737 112.432 53.8538 112.525C54.2945 113.033 55.0807 112.352 54.6399 111.844Z" fill="#D5A864"/>
<path d="M58.2219 111.493C58.1417 111.401 58.1017 111.354 58.0215 111.262C57.5808 110.753 56.7947 111.434 57.2354 111.943C57.3155 112.035 57.3556 112.082 57.4357 112.174C57.9227 112.643 58.6626 112.002 58.2219 111.493Z" fill="#D5A864"/>
<path d="M56.5182 106.817C56.472 106.857 56.4257 106.897 56.3795 106.937C55.8708 107.378 56.5519 108.164 57.0606 107.723C57.1068 107.683 57.1531 107.643 57.1993 107.603C57.6679 107.116 57.0269 106.376 56.5182 106.817Z" fill="#D5A864"/>
<path d="M53.5588 108.166C53.6082 107.475 52.6126 107.448 52.5231 108.092C52.5107 108.264 52.5045 108.351 52.4922 108.523C52.4427 109.214 53.4384 109.242 53.5279 108.597C53.5402 108.425 53.5927 108.299 53.5588 108.166Z" fill="#D5A864"/>
<path d="M57.6837 103.864C57.5912 103.944 57.545 103.984 57.4525 104.064C56.9438 104.505 57.6249 105.291 58.1336 104.85C58.2261 104.77 58.2723 104.73 58.3648 104.65C58.7872 104.203 58.1462 103.463 57.6837 103.864Z" fill="#D5A864"/>
<path d="M55.2948 103.91C55.2023 103.99 55.1561 104.03 55.0636 104.11C54.5549 104.551 55.236 105.337 55.7447 104.896C55.8372 104.816 55.8834 104.776 55.9759 104.696C56.4846 104.255 55.8035 103.469 55.2948 103.91Z" fill="#D5A864"/>
<path d="M61.3314 115.923C61.2512 115.831 61.2112 115.785 61.1311 115.692C60.6903 115.183 59.9042 115.864 60.3449 116.373C60.425 116.466 60.4651 116.512 60.5452 116.604C60.9459 117.067 61.732 116.386 61.3314 115.923Z" fill="#D5A864"/>
<path d="M62.7302 119.406C62.2895 118.897 61.5033 119.579 61.944 120.087C62.431 120.556 63.1709 119.915 62.7302 119.406Z" fill="#D5A864"/>
<path d="M57.6933 120.694C57.3696 120.975 57.5175 121.332 57.7641 121.523C57.9182 121.795 58.2572 121.906 58.4946 121.619C59.0958 121.098 58.3346 120.219 57.6933 120.694Z" fill="#D5A864"/>
<path d="M60.32 117.933C60.2399 117.84 60.1998 117.794 60.1197 117.701C59.679 117.193 58.8928 117.874 59.3335 118.382C59.4137 118.475 59.4537 118.521 59.5339 118.614C59.9746 119.122 60.7607 118.441 60.32 117.933Z" fill="#D5A864"/>
<path d="M56.0476 117.019C55.9551 117.099 55.9089 117.139 55.8164 117.219C55.3077 117.66 55.9888 118.446 56.4975 118.005C56.59 117.925 56.6362 117.885 56.7287 117.805C57.2374 117.364 56.5563 116.578 56.0476 117.019Z" fill="#D5A864"/>
<path d="M67.7092 114.688C67.629 114.596 67.589 114.55 67.5088 114.457C67.0681 113.948 66.282 114.63 66.7227 115.138C66.8028 115.231 66.8429 115.277 66.923 115.369C67.3637 115.878 68.1499 115.197 67.7092 114.688Z" fill="#D5A864"/>
<path d="M70.7567 121.195C70.8061 120.505 69.8105 120.477 69.721 121.121C69.7086 121.294 69.7024 121.38 69.6901 121.553C69.6406 122.243 70.6362 122.271 70.7258 121.627C70.7381 121.454 70.7505 121.282 70.7567 121.195Z" fill="#D5A864"/>
<path d="M64.7672 123.065C64.7549 123.238 64.7487 123.324 64.7363 123.497C64.6869 124.187 65.6825 124.215 65.772 123.571C65.7844 123.399 65.7906 123.312 65.8029 123.14C65.8061 122.489 64.8167 122.375 64.7672 123.065Z" fill="#D5A864"/>
<path d="M67.3385 119.866C67.428 119.222 66.3923 119.148 66.3028 119.792C66.2905 119.965 66.2843 120.051 66.2719 120.224C66.1824 120.868 67.2181 120.942 67.3076 120.298C67.2737 120.165 67.2861 119.993 67.3385 119.866Z" fill="#D5A864"/>
<path d="M70.8062 119.291C70.9603 119.562 71.2993 119.673 71.5367 119.386C72.0978 118.819 71.3366 117.941 70.6954 118.415C70.4117 118.742 70.5134 119.14 70.8062 119.291ZM70.7446 118.939C70.7384 119.026 70.6984 118.979 70.7446 118.939C70.7384 119.026 70.7384 119.026 70.7446 118.939Z" fill="#D5A864"/>
<path d="M76.2123 122.541C76.3048 122.46 76.3511 122.42 76.4435 122.34C76.9522 121.9 76.2711 121.113 75.7625 121.554C75.67 121.634 75.6237 121.674 75.5312 121.754C75.0226 122.195 75.7036 122.981 76.2123 122.541Z" fill="#D5A864"/>
<path d="M76.9251 118.037C76.8356 118.682 77.8713 118.756 77.9608 118.111C77.9732 117.939 77.9794 117.853 77.9917 117.68C78.0412 116.989 77.0455 116.962 76.956 117.606C76.9437 117.778 76.9375 117.865 76.9251 118.037Z" fill="#D5A864"/>
<path d="M75.5879 114.905C75.6681 114.997 75.7081 115.044 75.7882 115.136C76.229 115.645 77.0151 114.964 76.5744 114.455C76.4943 114.362 76.4542 114.316 76.3741 114.224C75.9734 113.761 75.1873 114.442 75.5879 114.905Z" fill="#D5A864"/>
<path d="M73.7071 118.154C73.7872 118.246 73.8273 118.293 73.9074 118.385C74.3481 118.894 75.1342 118.213 74.6935 117.704C74.6134 117.612 74.5733 117.565 74.4932 117.473C74.0063 117.004 73.2664 117.645 73.7071 118.154Z" fill="#D5A864"/>
<path d="M16.0845 76.0311C15.6438 75.5225 14.8577 76.2036 15.2984 76.7122C15.7391 77.2209 16.5252 76.5398 16.0845 76.0311Z" fill="#D5A864"/>
<path d="M17.7279 74.2838C17.6816 74.3239 17.6354 74.3639 17.5891 74.404C17.0003 74.7522 17.4564 75.6524 18.0452 75.3042C18.0914 75.2641 18.1377 75.224 18.1839 75.184C18.7265 74.8758 18.2704 73.9757 17.7279 74.2838Z" fill="#D5A864"/>
<path d="M14.7626 74.5049C14.8521 73.8606 13.8164 73.7865 13.7269 74.4307C13.7207 74.517 13.7145 74.6033 13.7083 74.6896C13.6188 75.3338 14.6545 75.408 14.744 74.7638C14.7101 74.6312 14.7163 74.5449 14.7626 74.5049Z" fill="#D5A864"/>
<path d="M16.2118 71.2255C16.1718 71.1792 16.1317 71.133 16.0917 71.0868C15.651 70.5781 14.8648 71.2592 15.3055 71.7678C15.3456 71.8141 15.3856 71.8603 15.4257 71.9066C15.8664 72.4153 16.6526 71.7342 16.2118 71.2255Z" fill="#D5A864"/>
<path d="M9.4203 75.8139C9.32781 75.894 9.23532 75.9741 9.18908 76.0142C8.68039 76.4549 9.36148 77.241 9.87016 76.8003C9.96265 76.7202 10.0551 76.6401 10.1014 76.6C10.5238 76.1531 9.88274 75.4132 9.4203 75.8139Z" fill="#D5A864"/>
<path d="M7.66418 71.2639C7.57787 71.2577 7.49156 71.2515 7.40525 71.2454C6.71479 71.1959 6.68687 72.1916 7.33109 72.2811C7.4174 72.2872 7.50371 72.2934 7.59002 72.2996C8.24042 72.3028 8.3084 71.3534 7.66418 71.2639Z" fill="#D5A864"/>
<path d="M10.4357 69.511C10.3494 69.5048 10.263 69.4986 10.1767 69.4924C9.48627 69.443 9.45836 70.4386 10.1026 70.5281C10.1889 70.5343 10.2752 70.5405 10.3615 70.5467C11.0119 70.5499 11.0799 69.6005 10.4357 69.511Z" fill="#D5A864"/>
<path d="M8.44671 73.662C8.00601 73.1533 7.21986 73.8344 7.66056 74.3431C8.10126 74.8518 8.88741 74.1707 8.44671 73.662Z" fill="#D5A864"/>
<path d="M1.78924 69.7157C1.34854 69.207 0.562387 69.8881 1.00309 70.3968C1.44379 70.9055 2.22994 70.2244 1.78924 69.7157Z" fill="#D5A864"/>
<path d="M5.26336 69.0536C4.82266 68.5449 4.03651 69.226 4.47721 69.7347C4.96416 70.2033 5.70406 69.5623 5.26336 69.0536Z" fill="#D5A864"/>
<path d="M1.40748 66.5648C1.31499 66.645 1.2225 66.7251 1.17626 66.7652C0.667573 67.2059 1.34866 67.992 1.85734 67.5513C1.94983 67.4712 2.04232 67.3911 2.08856 67.351C2.55101 66.9503 1.86992 66.1642 1.40748 66.5648Z" fill="#D5A864"/>
<path d="M7.07339 64.9759C7.11964 64.9358 7.16588 64.8958 7.21213 64.8557C7.72081 64.415 7.03972 63.6288 6.53104 64.0695C6.4848 64.1096 6.43855 64.1497 6.39231 64.1897C5.92987 64.5904 6.61095 65.3765 7.07339 64.9759Z" fill="#D5A864"/>
<path d="M2.11165 59.1547C2.07158 59.1085 2.03152 59.0622 1.99146 59.016C1.55076 58.5073 0.764606 59.1884 1.20531 59.6971C1.24537 59.7433 1.28543 59.7895 1.3255 59.8358C1.72614 60.2982 2.51229 59.6171 2.11165 59.1547Z" fill="#D5A864"/>
<path d="M5.06219 56.1132C4.62149 55.6045 3.83534 56.2856 4.27604 56.7943C4.71674 57.303 5.50289 56.6219 5.06219 56.1132Z" fill="#D5A864"/>
<path d="M2.54891 61.5286C2.58898 61.5748 2.62904 61.6211 2.66911 61.6673C3.10981 62.176 3.89596 61.4949 3.45526 60.9862C3.41519 60.94 3.37513 60.8937 3.33506 60.8475C2.89436 60.3388 2.10821 61.0199 2.54891 61.5286Z" fill="#D5A864"/>
<path d="M6.2973 61.2763C5.85659 60.7676 5.07044 61.4487 5.51115 61.9574C5.95185 62.466 6.738 61.785 6.2973 61.2763Z" fill="#D5A864"/>
<path d="M9.24798 57.0204C8.80728 56.5117 8.02113 57.1928 8.46183 57.7015C8.94878 58.1701 9.68868 57.5291 9.24798 57.0204Z" fill="#D5A864"/>
<path d="M6.57946 51.8845C6.31734 52.5163 7.29444 52.8032 7.51032 52.2114C7.56274 52.085 7.61516 51.9586 7.62134 51.8723C7.88346 51.2405 6.90637 50.9536 6.69049 51.5454C6.68431 51.6317 6.63189 51.7581 6.57946 51.8845Z" fill="#D5A864"/>
<path d="M13.6195 54.1234C13.1788 53.6148 12.3926 54.2959 12.8333 54.8045C13.2802 55.2269 14.0201 54.5859 13.6195 54.1234Z" fill="#D5A864"/>
<path d="M16.6008 50.6497C16.6409 50.6959 16.6809 50.7422 16.721 50.7884C17.1617 51.2971 17.9478 50.616 17.5071 50.1073C17.4671 50.0611 17.427 50.0148 17.3869 49.9686C16.9462 49.4599 16.1601 50.141 16.6008 50.6497Z" fill="#D5A864"/>
<path d="M12.3163 49.9097C12.3626 49.8696 12.4088 49.8296 12.4551 49.7895C12.9637 49.3488 12.2827 48.5627 11.774 49.0034C11.7277 49.0434 11.6815 49.0835 11.6352 49.1236C11.1266 49.5643 11.8076 50.3504 12.3163 49.9097Z" fill="#D5A864"/>
<path d="M9.09324 42.8255C9.12713 42.958 9.16101 43.0906 9.15483 43.1769C9.32425 43.8397 10.3384 43.6087 10.1228 42.986C10.0889 42.8534 10.055 42.7209 10.0612 42.6346C9.93182 42.018 8.96389 42.209 9.09324 42.8255Z" fill="#D5A864"/>
<path d="M7.04228 49.055C7.48298 49.5637 8.26913 48.8826 7.82842 48.3739C7.38772 47.8652 6.60157 48.5463 7.04228 49.055Z" fill="#D5A864"/>
<path d="M29.4234 35.7357C29.8641 36.2444 30.6502 35.5633 30.2095 35.0546C29.7688 34.5459 28.9827 35.227 29.4234 35.7357Z" fill="#D5A864"/>
<path d="M44.2791 80.2618C44.3286 79.5713 43.3329 79.5434 43.2434 80.1876C43.2373 80.2739 43.2373 80.2739 43.2311 80.3602C43.1816 81.0507 44.1773 81.0786 44.2668 80.4344C44.2267 80.3882 44.2329 80.3019 44.2791 80.2618Z" fill="#D5A864"/>
<path d="M45.3054 81.0725C44.7475 80.9892 44.6118 81.6734 44.9785 82.0033C45.1665 82.4072 45.9495 82.3765 45.9465 81.8124C45.9311 81.4209 45.6907 81.1435 45.3054 81.0725ZM45.1049 82.0558C45.1049 82.0558 45.1912 82.0619 45.2313 82.1082C45.1912 82.0619 45.145 82.102 45.1049 82.0558Z" fill="#D5A864"/>
<path d="M48.1597 82.4044C48.1658 82.3181 48.1658 82.3181 48.172 82.2318C48.2615 81.5876 47.2258 81.5134 47.1363 82.1576C47.1302 82.2439 47.1302 82.2439 47.124 82.3303C47.0345 82.9745 48.0702 83.0486 48.1597 82.4044Z" fill="#D5A864"/>
<path d="M42.4487 77.9626C42.3285 77.8239 42.1158 77.7652 41.9432 77.7529C41.7243 77.7806 41.5394 77.9408 41.4808 78.1535C41.4283 78.2799 41.456 78.4988 41.5762 78.6375C41.5762 78.6375 41.5762 78.6375 41.6163 78.6838C41.8166 78.915 42.168 78.8534 42.353 78.6931C42.538 78.5328 42.689 78.2401 42.4487 77.9626Z" fill="#D5A864"/>
<path d="M36.0635 50.2222L36.1097 50.1822C36.6184 49.7415 35.9373 48.9553 35.4286 49.396L35.3824 49.4361C34.8737 49.8768 35.5548 50.6629 36.0635 50.2222Z" fill="#D5A864"/>
<path d="M36.3191 52.1054C35.8784 51.5967 35.0923 52.2778 35.533 52.7865C35.9737 53.2951 36.7599 52.6141 36.3191 52.1054Z" fill="#D5A864"/>
<path d="M32.1576 53.2818C32.2039 53.2417 32.2501 53.2016 32.2964 53.1616C32.8051 52.7209 32.124 51.9347 31.6153 52.3754C31.569 52.4155 31.5228 52.4556 31.4766 52.4956C30.9679 52.9363 31.649 53.7225 32.1576 53.2818Z" fill="#D5A864"/>
<path d="M34.9436 55.5639L35.03 55.5701C35.7204 55.6196 35.7483 54.6239 35.1041 54.5344L35.0178 54.5282C34.3674 54.525 34.2932 55.5607 34.9436 55.5639Z" fill="#D5A864"/>
<path d="M35.8958 57.4101C35.4551 56.9014 34.669 57.5825 35.1097 58.0911C35.5504 58.5998 36.3365 57.9187 35.8958 57.4101Z" fill="#D5A864"/>
</g>
</g>
<defs>
<clipPath id="clip0_9_3161">
<rect width="125" height="132" fill="white"/>
</clipPath>
</defs>
</svg>
