<svg width="129" height="162" viewBox="0 0 129 162" fill="none" xmlns="http://www.w3.org/2000/svg">
<g clip-path="url(#clip0_9_1612)">
<mask id="mask0_9_1612" style="mask-type:luminance" maskUnits="userSpaceOnUse" x="-17" y="0" width="157" height="158">
<path d="M139.423 119.062L99.5609 0.193359L-16.5628 39.0709L23.2994 157.94L139.423 119.062Z" fill="white"/>
</mask>
<g mask="url(#mask0_9_1612)">
<path d="M74.4157 20.1674C74.5788 20.0953 74.7919 20.0584 74.9698 20.0714C75.496 20.0678 75.6739 20.0808 75.8665 20.1789C75.9665 20.2493 76.1444 20.2623 76.337 20.3604C76.5296 20.4585 77.069 20.2773 77.4452 20.1683L78.1977 19.9502L78.3608 19.8781C79.2837 19.6304 79.7895 19.7619 80.1878 19.7805C80.4657 19.8639 80.7288 19.8621 81.0977 19.7105C81.2608 19.6384 81.346 19.6236 81.4739 19.6015C81.7501 19.4221 81.9985 19.3352 82.2895 19.2409C83.8223 18.7123 85.4748 19.1271 87.7182 19.6587C88.3518 19.768 89.0854 19.9477 89.819 20.1274C92.4255 20.7275 98.055 22.5569 98.8927 24.6033C99.1558 24.6015 99.4484 24.7699 99.5263 24.7126C101.136 25.1349 102.423 26.2268 103.157 27.6774C103.157 27.6774 103.229 27.8402 103.352 28.0382C103.546 28.399 103.892 29.128 103.906 29.2131C103.906 29.2131 104.156 29.3889 105.736 30.6492C107.201 31.7541 108.551 32.7036 110.072 34.8944C111.778 37.1408 113.156 40.277 113.821 43.0985C114.013 44.2049 113.934 45.2705 113.477 46.1824C114.117 47.3425 114.226 47.7181 114.309 48.4489C114.298 48.8892 114.201 49.3443 114.06 49.544C114.167 49.6569 114.534 50.2509 114.671 50.534C115.408 52.51 114.327 53.6179 113.691 54.2541L113.578 54.3614L113.593 54.4465C114.304 56.7777 113.435 58.8569 112.538 61.0286C112.427 61.3985 112.273 61.7759 112.069 62.1181L111.887 62.5879C109.558 68.9088 109.558 68.9088 104.956 74.5279C104.335 75.2492 102.789 77.2265 102.789 77.2265C99.8181 80.8535 99.1557 81.845 99.0074 82.0022C98.9369 82.102 98.9237 82.2796 98.8959 82.3721C98.7844 82.7421 98.6229 83.0769 98.2483 83.4487C98.1778 83.5485 97.8163 83.7427 97.8163 83.7427C97.6253 83.9073 97.4548 83.9368 97.2917 84.009C97.0007 84.1032 96.6524 84.1198 96.3114 84.1789C96.2261 84.1937 96.1483 84.251 96.0204 84.2731C95.4811 84.4543 94.9302 85.0758 94.2236 85.8119C94.0474 86.0616 93.8638 86.2687 93.5875 86.4481C89.5964 90.7779 87.4365 92.248 85.7086 93.4242C84.0938 94.493 82.9963 95.2531 81.1913 97.7575C79.9076 99.4702 78.7306 100.025 77.5535 100.58C76.8231 100.925 76.1281 101.221 75.4772 101.772C74.8543 102.231 74.2182 102.867 73.5673 103.418C72.3083 104.513 71.1066 105.686 70.2205 106.146C69.7812 106.398 69.4197 106.592 69.0434 106.701C68.1426 107.076 67.2418 107.451 64.7032 109.776C63.6351 110.706 62.6318 111.757 61.649 112.672C59.6555 114.596 57.5136 116.677 55.1627 118.311C54.9718 118.476 54.6955 118.655 54.4193 118.835C53.257 119.474 52.9807 119.654 52.775 119.733C52.3209 119.9 51.9594 120.094 45.9191 124.253C45.8339 124.268 45.8339 124.268 45.756 124.325C45.5076 124.412 45.2298 124.328 45.1076 124.13C44.9281 123.855 44.997 123.492 45.2732 123.313L50.7742 119.335C51.4898 118.904 51.9365 118.695 52.3759 118.444C53.1062 118.098 53.8013 117.802 55.153 116.735C56.9645 115.281 59.0358 113.301 60.9441 111.392C62.9229 109.383 64.8385 107.517 66.4459 106.406C67.3451 105.768 67.9976 105.479 68.5222 105.213C68.8132 105.119 69.132 104.932 69.4083 104.753C70.046 104.379 71.305 103.284 72.4641 102.119C73.1854 101.468 73.8994 100.775 74.465 100.238C75.1863 99.5873 76.0798 99.1695 76.888 98.7664C77.6183 98.4206 78.256 98.0471 78.7937 97.6033C79.4167 97.1446 79.7897 96.5102 80.311 95.7185C80.8397 94.9694 81.3758 94.2628 82.0119 93.6266C82.6627 93.0755 83.2005 92.6316 83.9865 92.1009C84.8857 91.4629 85.9481 90.7528 87.4407 89.4859C89.8031 87.4109 91.2294 85.7611 92.331 84.5182C93.5885 83.1606 94.3934 82.2321 95.4721 81.8698C95.5574 81.855 95.6352 81.7977 95.7205 81.7829C95.8057 81.7682 95.9688 81.696 96.1467 81.7091C96.3098 81.6369 96.5729 81.6352 96.7008 81.613C96.7861 81.5982 96.8639 81.5409 96.8918 81.4484C97.1664 81.0063 97.1664 81.0063 97.1517 80.9212C97.0795 80.7584 97.0574 80.6307 101.376 75.1485C102.095 74.2348 102.745 73.421 103.366 72.6996C106.816 68.2883 107.536 67.3746 108.767 64.093C109.207 62.8332 109.592 61.7585 109.956 60.8188C111.138 57.7647 111.734 56.3903 111.207 55.1229C110.664 53.5077 111.385 52.8567 111.908 52.3277C112.085 52.078 112.283 51.956 112.374 51.721L112.444 51.6212L112.515 51.5213C112.5 51.4362 112.428 51.2734 112.069 50.7219C111.638 50.0077 111.249 49.2861 111.635 48.474C111.817 48.0042 111.451 47.4102 111.077 46.7737C110.646 46.0595 110.187 45.4377 110.81 44.9791C111.872 44.269 111.085 42.2578 110.556 40.7277L110.484 40.5649C108.367 35.19 106.017 33.5372 104.188 32.1011C102.938 31.222 101.93 30.4761 101.359 28.9534C100.651 27.1476 99.4467 26.7865 98.3926 26.5309C97.559 26.2809 96.7828 26.1086 96.741 25.1077L96.6058 25.0873C93.5984 22.9349 90.4435 22.2107 88.1149 21.6939C87.4812 21.5845 86.9255 21.4179 86.505 21.2716C84.3321 20.6401 83.5001 20.6528 82.8755 20.8488C82.6272 20.9356 82.4993 20.9578 82.2657 21.1298C82.0173 21.2167 81.9042 21.3239 81.6132 21.4182L81.528 21.433C80.9034 21.6289 80.5329 21.5178 80.0919 21.5066C79.7288 21.438 79.3583 21.3269 78.8189 21.5081C78.6558 21.5802 78.4427 21.6171 78.1943 21.704L78.0312 21.7761C77.3287 22.0294 76.4984 22.3048 75.6927 21.9623L75.5927 21.892C75.4148 21.879 75.2222 21.7809 75.1222 21.7105L75.0222 21.6402L75.0369 21.7253C74.8738 21.7974 74.7755 21.9898 74.5845 22.1544C74.4714 22.2617 74.2951 22.5114 74.0615 22.6834C73.609 23.1124 73.0697 23.2936 72.0836 23.6837L69.2606 24.8743C65.3737 26.5123 63.4089 27.335 61.3252 28.4851C55.8251 31.4547 53.4636 34.8007 51.1225 38.0117C49.9593 39.6598 48.6756 41.3725 47.0715 43.0093C46.8805 43.1739 46.3502 43.6603 45.8108 43.8415C45.3567 44.0079 45.1641 43.9098 45.0051 43.499C44.9108 43.2085 45.0723 42.8737 45.3633 42.7795C46.2789 42.4893 48.1822 39.7925 50.0577 37.1882C50.7627 36.1893 51.4824 35.2756 52.0464 34.4766C56.5482 28.7872 60.2146 27.1435 68.9803 23.2573L71.0582 22.3273C71.5828 22.061 72.7747 21.5915 72.9509 21.3418C73.1419 21.1772 73.2402 20.9848 73.396 20.8701C73.6148 20.613 73.9616 20.3338 74.4157 20.1674Z" fill="#A7B76B"/>
<path d="M33.5516 22.2537C37.7032 20.8766 43.5852 22.1363 45.231 23.7796C45.5105 24.1256 45.8532 24.3292 46.1327 24.6753C48.2933 26.7553 49.6817 28.1802 49.2415 31.7192C49.0628 32.7145 48.9693 33.6949 48.8037 34.5126C48.4454 37.5114 48.1617 39.9274 46.4526 42.9851C46.3821 43.0849 46.2764 43.2348 46.1059 43.2643C45.9428 43.3364 45.7575 43.2809 45.6649 43.2531C45.3723 43.0846 45.2354 42.8016 45.4043 42.5093L45.5731 42.217C46.915 39.5737 47.1708 37.2502 47.4455 34.5289C47.539 33.5484 47.6398 32.6105 47.8038 31.5301C47.9792 30.0094 47.8727 28.8883 46.8121 27.5819C46.3678 27.0452 44.0851 24.7672 43.5573 24.508C42.381 24.0545 38.2114 22.5418 34.89 23.6435L34.6417 23.7304C32.0375 24.6639 31.7515 25.5463 31.3949 26.5285C31.2055 26.9558 31.1088 27.4109 30.7489 27.8678C30.4743 28.3098 30.0997 28.6816 29.6677 28.9756C29.3784 29.3326 28.9464 29.6266 28.7423 29.9688C28.2767 30.5755 28.1316 31.2581 28.1365 32.0462C28.0676 32.4088 28.0414 32.764 27.9725 33.1266C27.8069 33.9443 27.434 34.5787 27.1462 35.1984C26.9569 35.6257 26.6749 36.0252 26.5355 36.4877C26.3404 37.1351 26.429 37.6458 26.4675 38.1212C26.5781 38.7595 26.7609 39.5606 26.0961 41.2976C25.569 42.3094 25.6681 43.388 25.6747 44.4389C25.6632 44.8792 25.7443 45.3472 25.6623 45.8874C25.5516 47.5284 25.136 48.1702 24.7557 48.7621C24.5794 49.0118 24.4811 49.2042 24.2975 49.4113C23.8687 50.2308 23.8564 51.6793 23.7793 53.0076C23.6875 54.2508 23.6883 55.5218 23.3374 56.2839C22.8972 57.5436 22.912 57.6287 23.1431 58.2023C23.23 58.4502 23.2537 58.8406 23.3922 59.3864C23.9471 62.8406 23.3831 63.6396 22.7765 64.446C22.4872 64.803 22.2404 65.1526 22.0453 65.8001C20.9485 70.1103 16.9762 74.0423 11.9228 79.0822C10.7637 80.2474 9.56205 81.42 8.3325 82.685C6.35375 84.6936 5.1947 85.8588 5.1947 85.8588C5.10945 85.8736 5.08158 85.9661 5.00371 86.0234C4.71272 86.1177 4.46273 85.9418 4.29798 85.7512C4.13323 85.5606 4.1316 85.2979 4.39308 85.0335C5.04392 84.4823 12.436 76.977 15.6926 73.4759C19.5649 69.4735 20.3879 66.8763 20.9117 65.3391C21.0085 64.884 21.1773 64.5917 21.3388 64.2569C21.4372 64.0646 21.5855 63.9073 21.6987 63.8001C22.2495 63.1786 22.7651 62.6071 21.8013 58.5664C21.5521 57.3823 21.712 56.7848 21.9645 56.2151C22.0759 55.8451 22.2301 55.4677 22.312 54.9275C22.3235 54.4872 22.3908 53.8619 22.3801 53.294C22.3925 51.8454 22.4884 50.1194 22.8303 49.052C23.0122 48.5822 23.1737 48.2473 23.3852 47.9477C23.4557 47.8478 23.5614 47.698 23.6598 47.5056C24.1885 46.7565 24.1246 45.628 24.096 44.4495C24.0796 44.1017 24.0984 43.7039 24.0821 43.3561C24.0944 41.9076 24.4231 41.0178 24.7035 40.3556C24.7871 40.0781 24.9633 39.8284 24.9691 39.6082C25.0805 39.2383 25.0347 38.7202 24.8683 38.2669C24.7814 38.019 24.7871 37.7989 24.7576 37.6287C24.6716 36.3725 25.2266 35.2682 25.6405 34.3636C25.7389 34.1712 25.9151 33.9215 25.9135 33.6588C26.2012 33.0392 26.2685 32.4139 26.3431 31.8311C26.3545 31.3908 26.3587 30.908 26.5185 30.3105C26.8735 29.0655 27.7079 28.3072 28.344 27.671C28.5202 27.4213 28.7186 27.2992 28.9522 27.1273C29.3973 26.6556 29.5867 26.2283 29.7539 25.6734C29.8375 25.3959 29.999 25.0611 30.1826 24.8539C30.8154 23.6923 31.9335 22.7972 33.5516 22.2537Z" fill="#A7B76B"/>
<path d="M45.8863 42.2505C46.0494 42.1784 46.1494 42.2488 46.2494 42.3191C46.4994 42.4949 46.5937 42.7854 46.4174 43.0351C42.3434 51.1925 27.7372 66.2162 26.2897 66.7301C26.2897 66.7301 26.1265 66.8022 26.1118 66.7171C26.097 66.632 26.0397 66.5542 26.1102 66.4544C26.1102 66.4544 27.4528 65.082 29.3594 62.9106C36.8745 54.595 40.8148 48.9591 43.1616 45.528C44.6846 43.4231 45.347 42.4317 45.8863 42.2505Z" fill="#A7B76B"/>
<path d="M3.52019 85.3164C4.80463 84.8746 5.61363 85.7424 7.05212 87.2025C7.48162 87.654 7.95373 88.0982 8.4906 88.6626C10.1291 90.2633 11.9307 91.792 14.1044 93.6944C19.2444 98.0194 26.1582 103.965 37.3046 115.84L38.7579 117.385C41.2275 119.982 41.2275 119.982 41.9348 120.517C42.2848 120.763 42.6422 121.051 43.3995 121.621C44.829 122.776 46.2806 124.059 45.8552 125.404C45.5691 126.286 43.3403 128.119 41.8854 128.59C41.637 128.677 41.5092 128.699 41.3313 128.686C40.1657 128.8 39.4215 128.053 38.2404 126.811C37.883 126.522 37.5035 126.106 37.074 125.654C36.9666 125.542 36.4224 124.935 35.5208 124.039C30.6963 119.002 15.9656 103.672 4.89125 94.2394C1.89541 91.6467 -0.178304 89.8146 0.189769 88.392C0.481607 87.2895 1.55704 86.4018 2.18001 85.9431C2.70461 85.6769 3.10133 85.4328 3.52019 85.3164ZM44.7437 125.07C44.8142 124.97 44.8273 124.793 44.8273 124.793C44.6577 123.814 42.6503 122.365 41.293 121.373C40.943 121.127 40.643 120.916 40.393 120.74C40.143 120.564 8.03728 90.0999 5.53818 87.3334L5.37342 87.1428C4.82918 86.5359 4.4423 86.077 3.72508 86.2451L3.63983 86.2599C2.56113 86.6222 1.27421 87.8095 1.10862 88.6272C0.857773 89.4596 2.90936 91.1641 6.89943 94.6803C11.5116 98.7461 19.2196 105.475 29.8054 116.395C30.5496 117.143 31.6234 118.271 32.7193 119.528C35.8905 122.879 40.2149 127.565 41.2174 127.522C41.3027 127.508 41.3805 127.45 41.5084 127.428C42.5871 127.066 44.3986 125.612 44.7437 125.07Z" fill="#A7B76B"/>
<path d="M45.3109 124.797C45.4741 124.725 45.6593 124.78 45.7667 124.893C45.8741 125.006 45.9314 125.084 45.8757 125.269C45.5896 126.151 43.7499 136.814 44.3785 140.694C45.0251 145.184 47.725 147.083 48.6349 147.013C48.7201 146.998 48.798 146.941 48.9259 146.919C49.671 146.658 50.6538 145.742 50.6358 145.132L50.621 145.047L50.721 145.117C50.6489 144.954 50.8046 144.84 50.9677 144.768C51.053 144.753 51.1309 144.695 51.2309 144.766C51.5087 144.849 51.5809 145.012 51.5899 145.317C50.8004 147.602 49.4373 149.109 47.7766 149.66C45.7045 150.37 43.3463 149.683 41.2799 147.893C38.8415 145.73 36.6383 141.378 37.7475 135.619C38.1066 133.891 38.4615 132.646 38.8238 131.444C39.1788 130.199 39.4706 129.096 39.7461 127.646C39.7592 127.469 39.915 127.354 40.0354 127.289C40.1207 127.274 40.1986 127.217 40.2986 127.287C40.4764 127.3 40.6559 127.576 40.6428 127.754C40.533 128.386 40.3952 129.112 40.3001 129.829C40.1345 130.647 39.9263 131.472 39.6828 132.347C38.6786 136.685 37.6039 141.123 40.7095 145.362C42.7045 148.26 45.4938 149.661 47.7717 148.872C48.6021 148.596 49.3103 148.123 49.8316 147.331C49.6554 147.581 49.3996 147.625 49.1939 147.705C49.0308 147.777 48.8177 147.814 48.6398 147.801C47.5594 147.901 46.2726 146.809 45.4693 145.721C42.1859 141.468 43.3926 134.246 44.6363 127.237C44.7314 126.519 44.9117 125.786 44.9921 124.984C45.0347 124.976 45.1904 124.862 45.3109 124.797Z" fill="#A7B76B"/>
<path d="M45.7511 123.537C45.9142 123.465 46.029 123.62 46.0437 123.705C46.0437 123.705 46.1527 124.081 46.3913 124.697C46.9347 126.312 47.7485 127.968 48.6419 129.83C51.3664 135.669 54.4719 142.188 50.189 147.62C50.1037 147.635 50.1185 147.72 50.0758 147.727C49.9906 147.742 49.8127 147.729 49.798 147.644C49.7832 147.559 49.7111 147.396 49.7816 147.296C51.0284 145.371 51.503 142.79 51.1441 139.959C50.8753 137.902 49.3221 134.007 47.9501 130.651C46.5781 127.295 45.4077 124.342 45.6954 123.722C45.6454 123.687 45.6733 123.594 45.7511 123.537Z" fill="#A7B76B"/>
<path d="M44.5017 130.766C44.7648 130.764 44.8591 131.055 44.9607 131.388C44.9754 131.473 45.0328 131.551 45.0328 131.551C45.2934 132.295 45.6614 133.151 46.0221 133.965C46.6491 135.303 47.2982 136.769 47.5801 138.648C48.0456 142.6 46.6898 144.15 45.7742 144.44C45.4832 144.534 45.2201 144.536 45.0275 144.438C44.9275 144.368 44.7775 144.262 44.748 144.092C44.6611 143.844 44.8169 143.729 44.8595 143.722C44.9447 143.707 45.1226 143.72 45.1521 143.89C45.1669 143.976 45.33 143.903 45.4152 143.889C45.6636 143.802 45.8824 143.545 46.0366 143.167C46.6546 141.921 46.8441 139.214 45.4851 135.68L45.3983 135.432C44.7622 133.789 44.023 131.551 44.2254 130.946C44.3959 130.916 44.4238 130.824 44.5017 130.766Z" fill="#A7B76B"/>
<path d="M46.3156 102.225C47.1329 102.127 47.8665 102.307 48.4033 102.871C49.0254 103.421 49.2082 104.222 49.0279 104.955C48.8623 105.772 48.2262 106.408 47.5663 106.654C47.4032 106.726 47.2753 106.749 47.0975 106.736C46.9196 106.723 46.8196 106.652 46.8327 106.475C46.818 106.39 46.8311 106.212 47.0016 106.182C47.995 105.835 48.2738 104.91 48.1631 104.272C48.0525 103.633 47.4582 102.991 46.3632 103.006C46.1 103.007 45.9353 102.817 45.9058 102.647C45.9058 102.647 45.982 102.327 46.3156 102.225Z" fill="#A7B76B"/>
<path d="M55.7271 101.558C56.2665 101.377 56.9001 101.486 57.3575 101.845C57.8296 102.289 58.0107 102.828 57.9935 103.488C57.8279 104.306 57.0861 105.092 56.3762 105.302C56.1278 105.389 55.9074 105.384 55.7647 105.321C55.6647 105.25 55.6574 105.208 55.6574 105.208C55.5852 105.045 55.741 104.93 55.9041 104.858L55.9893 104.843C56.918 104.376 57.091 103.601 56.9025 103.02C56.7935 102.644 56.4288 102.313 55.9747 102.479L55.8894 102.494C55.8763 102.672 55.7205 102.786 55.6001 102.851C55.3517 102.938 55.1591 102.84 54.9869 102.607L54.9722 102.521C54.8853 102.273 54.9837 102.081 55.082 101.889C55.3657 101.752 55.4788 101.645 55.7271 101.558Z" fill="#A7B76B"/>
<path d="M52.0941 85.663C52.3425 85.5761 52.5482 85.4966 52.8113 85.4948C54.4458 85.2992 55.9556 85.6511 56.8146 86.5542C57.4367 87.1038 57.6195 87.9049 57.5539 88.7929C57.3883 89.6106 56.9358 90.0396 56.6595 90.219L56.5891 90.3189L56.4891 90.2486L56.6522 90.1765L56.1948 89.8174L56.1801 89.7323C56.1801 89.7323 56.4563 89.553 56.6456 89.1257C56.9186 88.4209 56.808 87.7826 56.3785 87.3311C55.4769 86.4354 53.3982 86.0944 52.199 86.5214C51.8228 86.6305 51.5465 86.8098 51.5482 87.0725C51.4498 87.2649 51.3793 87.3648 51.2588 87.4295C51.1736 87.4443 51.0957 87.5016 50.9957 87.4313C50.8178 87.4183 50.6457 87.1851 50.7014 87.0002C50.5851 86.582 51.1785 85.9532 52.0941 85.663Z" fill="#A7B76B"/>
<path d="M66.8349 88.8939L66.9202 88.8791C68.4694 88.6982 69.4562 89.5791 69.8316 90.4783C70.2865 91.5829 70.0315 92.8982 69.1897 93.614L69.1045 93.6287C69.0192 93.6435 68.8414 93.6305 68.8266 93.5454C68.8119 93.4603 68.7397 93.2975 68.8102 93.1976C69.2684 92.5484 69.3619 91.5679 68.9882 90.9314C68.6423 90.2024 67.907 89.76 66.9825 89.7449C66.6341 89.7615 66.512 89.5635 66.5251 89.3859C66.503 89.2582 66.5013 88.9955 66.8349 88.8939Z" fill="#A7B76B"/>
<path d="M70.3616 77.3246C71.2772 77.0344 72.2608 77.3899 72.6493 78.1115C73.023 78.748 72.9164 79.9061 71.6426 80.9159L71.5574 80.9306C71.4721 80.9454 71.3664 81.0952 71.2812 81.11C71.1959 81.1248 71.1033 81.097 71.0033 81.0267C70.8385 80.8361 70.9869 80.6789 71.1853 80.5568L71.2558 80.457C71.9623 79.7208 72.1779 78.9383 71.8763 78.4646C71.6821 78.1038 71.2411 78.0926 70.6165 78.2885C70.3255 78.3828 69.964 78.577 69.5394 78.9135C69.4263 79.0208 69.2632 79.0929 69.1001 79.165C68.9369 79.2371 68.7517 79.1816 68.6722 78.9762C68.6574 78.8911 68.5853 78.7283 68.6558 78.6284C68.7525 78.1733 69.6665 77.6204 70.1058 77.3689C70.1911 77.3542 70.2763 77.3394 70.3616 77.3246Z" fill="#A7B76B"/>
<path d="M58.2246 77.7189C59.1402 77.4287 60.1369 77.6066 60.8312 78.3191C61.4828 79.0389 61.7303 79.9603 61.4442 80.8427C61.3458 81.035 61.3327 81.2126 61.1696 81.2847C61.0844 81.2995 61.0065 81.3569 60.9917 81.2717C60.7991 81.1736 60.827 81.0811 60.8827 80.8962L60.9532 80.7963C61.0631 80.1636 60.8524 79.455 60.3377 79.0182C59.8656 78.5741 59.232 78.4648 58.6074 78.6607C58.359 78.7476 58.0828 78.9269 57.8918 79.0915C57.8065 79.1063 57.7787 79.1988 57.7008 79.2561C57.4524 79.343 57.2598 79.2449 57.2303 79.0747C57.1361 78.7842 57.3959 78.257 58.2115 77.8965C57.9762 77.8058 58.0615 77.791 58.2246 77.7189Z" fill="#A7B76B"/>
<path d="M45.8608 72.4983C46.5632 72.2451 47.5731 72.2454 48.3231 72.7728C48.9583 73.1449 49.3321 73.7814 49.487 74.675C49.5714 75.6685 49.1426 76.4879 48.6754 76.8319L48.5902 76.8467C48.5049 76.8614 48.3271 76.8484 48.3123 76.7633C48.2975 76.6782 48.2254 76.5154 48.2959 76.4155C48.4722 76.1658 48.5558 75.8883 48.6394 75.6108C48.8197 74.8783 48.5665 74.1771 48.0017 73.7051C47.3944 73.2406 46.7108 73.0961 45.923 73.3642C45.8378 73.3789 45.6747 73.451 45.6747 73.451C45.4263 73.5379 45.2337 73.4398 45.0616 73.2067C45.0468 73.1216 44.9747 72.9587 45.0452 72.8588C45.3788 72.7572 45.5698 72.5926 45.8608 72.4983Z" fill="#A7B76B"/>
<path d="M55.9773 66.2741C56.2257 66.1872 56.4315 66.1077 56.6946 66.1059C57.4413 66.108 58.147 66.3801 58.5765 66.8316C59.2281 67.5515 59.2978 68.4599 59.1027 69.1073C59.0338 69.4699 58.8576 69.7196 58.7297 69.7418C58.6445 69.7566 58.5518 69.7288 58.4666 69.7436C58.3592 69.6307 58.3797 69.4956 58.3928 69.318L58.4633 69.2181C58.5732 68.5855 58.4626 67.9472 58.0052 67.5881C57.5331 67.144 56.8995 67.0347 56.3601 67.2158C56.2749 67.2306 56.197 67.2879 56.0691 67.3101L56.0839 67.3952C57.2617 70.3907 57.2617 70.3907 57.2617 70.3907C57.1764 70.4055 57.1617 70.3204 56.8141 69.3287L56.0912 67.4378C56.0781 67.6154 55.9224 67.73 55.7166 67.8095C55.2904 67.8834 55.0125 67.8001 54.9962 67.4522C54.8872 67.0767 55.2323 66.5347 55.9773 66.2741Z" fill="#A7B76B"/>
<path d="M81.0339 71.267C82.0273 70.9195 83.7339 70.8867 85.197 71.7289C86.6674 72.6136 86.8445 73.6349 86.8199 74.2528C86.7395 75.0557 86.1887 75.6771 85.8977 75.7714C85.8124 75.7861 85.7346 75.8435 85.6346 75.7732C85.5346 75.7028 85.5272 75.6603 85.4698 75.5826C85.3977 75.4197 85.5534 75.3051 85.7165 75.233C85.8018 75.2182 85.8297 75.1257 85.8297 75.1257C86.1895 74.6688 86.2715 74.1287 85.9125 73.5772C85.1945 72.4744 83.1978 71.5933 81.0256 72.2328C80.7773 72.3196 80.5699 72.1364 80.4978 71.9736C80.4256 71.8108 80.424 71.5481 80.7576 71.4464C80.8281 71.3465 80.9912 71.2744 81.0339 71.267Z" fill="#A7B76B"/>
<path d="M68.2497 63.6211C69.2579 63.3586 70.312 63.6142 71.0562 64.3619C71.9579 65.2575 72.166 66.7117 71.7832 68.0492C71.7127 68.149 71.6701 68.1564 71.5922 68.2138C71.5143 68.2711 71.4143 68.2008 71.3291 68.2155C71.2291 68.1452 71.2217 68.1027 71.2422 67.9676C71.3119 66.5968 70.9496 65.52 70.1423 64.9148C69.5849 64.4854 68.9513 64.3761 68.3267 64.572C68.0784 64.6589 67.8874 64.8235 67.689 64.9455C67.6038 64.9603 67.6038 64.9603 67.5259 65.0176C67.3628 65.0897 67.1775 65.0342 67.0701 64.9213C66.9628 64.8084 66.9054 64.7307 66.9611 64.5457C67.0726 64.1757 67.6677 63.8096 68.0366 63.658L68.2497 63.6211Z" fill="#A7B76B"/>
<path d="M56.5573 53.156C56.6426 53.1412 56.7204 53.0839 56.8057 53.0691C58.077 52.8049 59.0885 53.0679 59.768 53.6952C60.1401 54.0691 60.3212 54.6075 60.3392 55.218C60.3278 55.6583 60.1737 56.0356 59.9122 56.3001C59.799 56.4074 59.7212 56.4647 59.7212 56.4647L59.6359 56.4795C59.4728 56.5516 59.3728 56.4813 59.3433 56.3111C59.2712 56.1482 59.3417 56.0484 59.4122 55.9485C59.4827 55.8486 59.5884 55.6988 59.6573 55.3362C59.6688 54.8959 59.4598 54.45 59.2098 54.2741L59.1024 54.1613C58.4672 53.7892 57.6778 53.7946 56.8606 53.8924C56.5122 53.9089 56.3901 53.7109 56.318 53.5481C56.2106 53.4352 56.309 53.2429 56.5573 53.156Z" fill="#A7B76B"/>
<path d="M69.0246 49.8551C69.4008 49.746 69.8271 49.6722 70.1049 49.7555C71.2017 50.0037 72.0164 50.6514 72.3787 51.7283C72.8352 53.0956 72.3835 54.7956 71.2244 55.9608L71.1392 55.9756C71.0539 55.9903 70.8761 55.9773 70.8613 55.8922C70.8466 55.8071 70.7744 55.6443 70.8449 55.5444C71.8229 53.8408 71.9483 52.285 71.1319 51.3746C70.6729 50.7528 69.8467 50.5454 69.1369 50.7561L69.0516 50.7709C68.7606 50.8651 68.5254 50.7744 68.4385 50.5265C68.4238 50.4414 68.3516 50.2786 68.4221 50.1787C68.4853 50.0362 68.7689 49.8994 69.0246 49.8551Z" fill="#A7B76B"/>
<path d="M78.9859 58.6917C79.0712 58.6769 79.2343 58.6048 79.2769 58.5975C80.0089 58.5144 80.6441 58.8864 80.9236 59.2325C81.0884 59.4231 81.1752 59.671 81.1195 59.856C81.0506 60.2186 80.5104 61.408 80.1416 61.5596C80.0563 61.5744 79.9785 61.6317 79.8785 61.5614C79.7785 61.491 79.7137 61.3708 79.7842 61.2709C79.9662 60.801 80.0629 60.3459 80.2097 59.926C79.8597 59.6799 79.4039 59.5836 78.9351 59.6648C78.6441 59.7591 78.4793 59.5685 78.4072 59.4057C78.4482 59.1356 78.4818 58.8229 78.9859 58.6917Z" fill="#A7B76B"/>
<path d="M81.3312 48.1602C82.1616 47.8848 83.4919 47.961 84.3083 48.8715C85.0173 49.669 85.1943 50.6903 84.9492 51.3026C84.8787 51.4024 84.8361 51.4098 84.7582 51.4672C84.6729 51.4819 84.5803 51.4542 84.4951 51.4689C84.3951 51.3986 84.3877 51.3561 84.4082 51.221C84.4107 50.4755 83.9795 49.7612 83.4222 49.3319C82.8648 48.9025 82.146 48.8079 81.4435 49.0612C81.2804 49.1333 81.1951 49.1481 81.0673 49.1702C80.8189 49.2571 80.6263 49.159 80.5115 49.0036C80.4968 48.9185 80.4247 48.7557 80.4951 48.6558C80.6009 48.506 80.8771 48.3266 81.3312 48.1602Z" fill="#A7B76B"/>
<path d="M89.8622 59.1297C90.8704 58.8673 91.8671 59.0451 92.6892 59.7354C93.4966 60.3406 93.9646 61.2676 93.8842 62.0705C93.899 62.1556 93.7859 62.2629 93.708 62.3202C93.5449 62.3923 93.4449 62.322 93.4154 62.1518C92.7777 60.2461 91.0605 59.7109 89.7761 60.1527C89.6908 60.1675 89.613 60.2248 89.4851 60.247C89.3999 60.2618 89.322 60.3191 89.2367 60.3339L89.1515 60.3486C88.9884 60.4208 88.7105 60.3374 88.681 60.1672C88.6089 60.0044 88.572 59.7916 88.8482 59.6122C88.8482 59.6122 89.195 59.333 89.6491 59.1666L89.8622 59.1297Z" fill="#A7B76B"/>
<path d="M96.8123 52.6213C96.8976 52.6065 96.8976 52.6065 96.9755 52.5492C98.4263 52.5607 99.15 53.4434 99.2475 54.2593C99.4156 54.9753 99 55.6171 98.5032 55.7909L98.418 55.8057C98.3327 55.8204 98.2549 55.8778 98.1549 55.8074C97.9918 55.8795 97.877 55.7241 97.8049 55.5613C97.7901 55.4762 97.8032 55.2986 97.9737 55.269C98.1369 55.1969 98.4131 55.0175 98.332 54.5495C98.3172 54.4644 98.3303 54.2868 98.2377 54.259L98.223 54.1739C98.1156 54.061 97.9582 53.9129 97.8508 53.8001C97.5582 53.6316 97.323 53.5409 97.1303 53.4428C96.7025 53.254 96.4246 53.1707 96.5787 52.7933C96.6214 52.7859 96.6492 52.6934 96.8123 52.6213Z" fill="#A7B76B"/>
<path d="M73.3725 37.7052C73.7488 37.5962 74.4766 37.996 74.893 38.6251C75.1446 39.0636 75.6274 40.0757 74.702 41.0689L74.6167 41.0837C74.5315 41.0985 74.4388 41.0707 74.3388 41.0004C74.2388 40.9301 74.2667 40.8376 74.252 40.7525C74.679 39.6703 74.1405 38.8432 73.4201 38.4859C73.2274 38.3878 73.1406 38.1399 73.2389 37.9475C73.2521 37.7699 73.2947 37.7625 73.3725 37.7052Z" fill="#A7B76B"/>
<path d="M61.4257 41.2228C61.7167 41.1285 62.1724 41.2248 62.5076 41.3859C63.2134 41.658 63.6724 42.2798 63.883 42.9884C64.051 43.7044 63.8707 44.437 63.3625 45.051C63.101 45.3155 62.8247 45.4949 62.6337 45.6595C62.4706 45.7316 62.3706 45.6613 62.3411 45.4911C62.3264 45.4059 62.2543 45.2431 62.41 45.1285C62.8625 44.6994 63.1576 44.1223 63.0543 43.5265C62.951 42.9308 62.6215 42.5496 62.1363 42.2831C62.0363 42.2127 61.8584 42.1997 61.7658 42.1719C61.488 42.0886 61.2101 42.0053 61.2363 41.6501C61.1494 41.4022 61.2552 41.2523 61.4257 41.2228Z" fill="#A7B76B"/>
<path d="M85.0406 37.3923C85.289 37.3054 85.4669 37.3184 85.7726 37.3093C86.7546 37.402 87.4078 38.3846 87.4758 39.0303C87.4922 39.3781 87.3939 39.5705 87.1881 39.6499L87.025 39.7221C86.6766 39.7386 86.3856 39.8329 86.2209 39.6423C86.2061 39.5572 86.1135 39.5294 86.1488 39.4795C86.134 39.3943 86.1619 39.3019 86.325 39.2297C86.4881 39.1576 86.5734 39.1429 86.7012 39.1207C86.5775 38.66 86.0922 38.3935 85.3734 38.2989C84.9472 38.3728 84.7472 38.2321 84.6677 38.0268C84.5029 37.8362 84.6718 37.5439 85.0406 37.3923Z" fill="#A7B76B"/>
<path d="M67.1324 34.8859C67.2955 34.8138 67.3955 34.8841 67.5734 34.8971C67.9234 35.1433 68.4898 35.8779 68.5562 36.2608C68.5709 36.346 68.543 36.4384 68.4725 36.5383L68.4021 36.6382C68.2111 36.8028 68.0275 37.01 67.8643 37.0821C67.7012 37.1542 67.6012 37.0838 67.5865 36.9987C67.4791 36.8859 67.5701 36.6509 67.7816 36.3513C67.6816 36.281 67.6742 36.2384 67.5316 36.1755L67.5463 36.2606C67.6406 36.551 67.5496 36.786 67.3012 36.8729C67.1381 36.945 67.0381 36.8746 66.9381 36.8043C66.8307 36.6914 66.6734 36.5434 66.6717 36.2807C66.4685 35.6146 66.7562 34.9949 67.1324 34.8859Z" fill="#A7B76B"/>
<path d="M79.4277 29.0729C79.6761 28.986 79.8687 29.0841 80.0761 29.2673C80.4335 29.556 80.6998 30.0796 80.6326 30.7049C82.09 31.7673 82.09 31.7673 82.0973 31.8098C82.0121 31.8246 81.9047 31.7117 80.6547 30.8326L80.64 30.7475C80.6269 30.9251 80.5285 31.1175 80.3801 31.2747C80.2818 31.467 80.1187 31.5391 79.9482 31.5687C79.785 31.6408 79.685 31.5705 79.6703 31.4854C79.5703 31.415 79.5834 31.2374 79.6539 31.1376C79.8433 30.7103 79.7326 30.072 79.4753 29.8536L79.4605 29.7685L79.3531 29.6556C79.1605 29.5575 79.1015 29.2171 79.2573 29.1024C79.2146 29.1098 79.2999 29.095 79.4277 29.0729Z" fill="#A7B76B"/>
<path d="M95.3177 34.1205C96.5612 33.9488 98.4768 34.3619 99.9284 35.6444C101.63 37.1027 101.099 38.5974 99.743 40.1473C99.6577 40.1621 99.6725 40.2472 99.6299 40.2546C99.5446 40.2693 99.3667 40.2563 99.352 40.1712C99.3372 40.0861 99.2651 39.9233 99.3356 39.8234C99.7791 39.0891 100.314 38.1198 100.146 37.4038C99.948 36.5176 98.0538 34.9612 95.5079 34.9642C95.2448 34.966 95.08 34.7754 95.1358 34.5904C95.0636 34.4276 95.2046 34.2278 95.4104 34.1483L95.3177 34.1205Z" fill="#A7B76B"/>
<path d="M100.427 44.8506C101.535 44.6585 102.611 45.0418 103.307 46.0169C103.945 46.9144 104.017 48.0855 103.425 48.977C103.34 48.9918 103.354 49.0769 103.312 49.0843C103.226 49.0991 103.134 49.0713 103.034 49.001C102.934 48.9306 102.926 48.8881 102.947 48.753C103.306 47.0252 102.29 45.9741 101.158 45.7758C100.702 45.6795 100.439 45.6813 100.439 45.6813C100.176 45.6831 100.011 45.4925 99.9815 45.3222C100.122 45.1225 100.136 44.9449 100.427 44.8506Z" fill="#A7B76B"/>
<path d="M104.329 55.9644C104.705 55.8554 105.255 56.2422 105.579 56.8435C105.83 57.2821 106.381 58.9398 104.129 60.3822C103.965 60.4543 103.865 60.384 103.765 60.3137C103.751 60.2286 103.679 60.0657 103.749 59.9659L103.847 59.7735C104.32 59.2094 104.912 58.3178 104.772 57.5093C104.756 57.1615 104.576 56.8858 104.341 56.7951L104.269 56.6323C103.976 56.4638 103.975 56.2011 104.073 56.0087C104.123 56.0439 104.166 56.0365 104.329 55.9644Z" fill="#A7B76B"/>
<path d="M97.3782 69.3107C97.6692 69.2165 98.275 69.4183 98.5692 69.8494C99.0135 70.386 99.0389 71.0391 98.7511 71.6588C98.4765 72.1009 98.0167 72.4874 97.3995 72.7259C97.1085 72.8201 96.7601 72.8367 96.497 72.8385C96.3191 72.8255 96.3044 72.7404 96.2322 72.5775C96.1601 72.4147 96.3159 72.3001 96.4011 72.2853L96.5642 72.2132C97.3093 71.9525 97.8397 71.4661 97.9216 70.9259C97.9905 70.5634 97.811 70.2877 97.4758 70.1266C97.1126 70.0581 96.9479 69.8675 96.9463 69.6048C97.102 69.4901 97.2077 69.3403 97.3782 69.3107Z" fill="#A7B76B"/>
<path d="M42.4596 58.4485C43.1621 58.1952 43.9104 58.46 44.2489 59.1465C44.6801 59.8607 44.3513 60.7505 43.7989 61.1092C43.6357 61.1813 43.5357 61.111 43.4357 61.0406C43.421 60.9555 43.3489 60.7927 43.4194 60.6928C43.7087 60.3359 43.6128 59.7827 43.2481 59.4514C43.1481 59.3811 43.1481 59.3811 43.0702 59.4384C42.8924 59.4254 42.7219 59.455 42.6014 59.5197C42.4383 59.5918 42.353 59.6066 42.3251 59.6991C42.3251 59.6991 42.2399 59.7138 42.2546 59.7989C42.1841 59.8988 42.1415 59.9062 42.0636 59.9635C41.9005 60.0356 41.8005 59.9653 41.7005 59.895C41.6005 59.8247 41.5358 59.7044 41.5063 59.5342C41.5047 59.2715 41.794 58.9145 42.1129 58.7277C42.2686 58.6131 42.2965 58.5206 42.4596 58.4485Z" fill="#A7B76B"/>
<path d="M45.0541 49.101C45.5935 48.9198 46.5771 49.2753 47.1566 49.8323C47.7787 50.3819 47.9893 51.0906 47.7942 51.738C47.7237 51.8379 47.6959 51.9304 47.618 51.9877C47.5327 52.0025 47.4549 52.0598 47.4401 51.9747C47.3401 51.9044 47.3401 51.9044 47.3327 51.8618C46.9705 50.785 46.2336 50.08 45.0885 50.0593C44.9885 49.9889 44.8959 49.9612 44.7959 49.8908C44.6959 49.8205 44.6312 49.7002 44.7017 49.6004C44.7353 49.2877 44.8836 49.1305 45.0541 49.101Z" fill="#A7B76B"/>
<path d="M27.6493 73.8144C28.5649 73.5242 29.7427 74.2405 30.4739 75.1657C30.7681 75.5969 31.1271 76.1483 31.0287 76.3406L30.9582 76.4405C30.8599 76.6329 30.7689 76.8678 30.5984 76.8974C30.5132 76.9122 30.4353 76.9695 30.4205 76.8844C30.2279 76.7863 30.3394 76.4163 30.3525 76.2387C29.2567 74.9822 28.464 74.4621 27.9247 74.6433C27.5485 74.7523 27.3165 75.187 27.1197 75.5718C27.0214 75.7642 26.9435 75.8215 26.8583 75.8363C26.6951 75.9084 26.5099 75.8528 26.4025 75.7399C26.2951 75.627 26.223 75.4642 26.2935 75.3643C26.6796 74.5523 27.11 73.9956 27.6493 73.8144Z" fill="#A7B76B"/>
<path d="M23.0833 85.2127C23.5374 85.0463 24.0784 85.1279 24.5357 85.4869C24.6431 85.5998 24.7857 85.6628 24.8931 85.7756C26.5275 85.58 26.5275 85.58 26.5423 85.6651C26.5423 85.6651 26.5423 85.6651 26.457 85.6799C26.2939 85.752 25.9882 85.7611 24.9226 85.9458C25.2021 86.2919 25.2685 86.6748 25.1849 86.9523C25.1144 87.0522 25.0865 87.1447 25.0086 87.202C24.8455 87.2741 24.7455 87.2038 24.716 87.0336C24.5349 86.4952 23.8996 86.1232 23.4308 86.2044L23.0824 86.221C22.8193 86.2227 22.6267 86.1246 22.6251 85.8619C22.616 85.5567 22.7923 85.307 23.0833 85.2127Z" fill="#A7B76B"/>
<path d="M34.3661 84.7037C34.5292 84.6316 34.6145 84.6169 34.7424 84.5947C36.2063 84.4286 37.0227 85.339 37.1923 86.3178C37.4546 87.3242 37.0013 88.7616 35.6742 89.2108C35.5111 89.2829 35.4111 89.2125 35.3816 89.0423C35.3668 88.9572 35.2947 88.7944 35.4504 88.6797C36.0029 88.321 36.3333 87.6939 36.3505 87.0335C36.362 86.5932 36.2382 86.1325 35.8956 85.9289C35.4235 85.4847 34.8046 85.4605 34.4284 85.5696C34.3431 85.5843 34.2653 85.6417 34.2653 85.6417C34.18 85.6564 34.1522 85.7489 34.0743 85.8063C33.989 85.821 33.989 85.821 33.9112 85.8784C33.748 85.9505 33.5628 85.8949 33.4407 85.6969C33.3333 85.5841 33.3538 85.449 33.4243 85.3491C33.5505 85.0643 33.9899 84.8128 34.3661 84.7037Z" fill="#A7B76B"/>
<path d="M29.5151 93.6968C29.6004 93.682 29.6782 93.6247 29.8061 93.6025C30.4176 93.5842 31.0528 93.9562 31.4266 94.5927C31.8725 95.3921 31.9569 96.3856 31.4281 97.1347C31.3429 97.1494 31.3576 97.2345 31.315 97.2419C31.2298 97.2567 31.1372 97.2289 31.0372 97.1586C30.9372 97.0883 30.9298 97.0457 30.9503 96.9107C31.1306 96.1781 30.9626 95.4621 30.5757 95.0032C30.3962 94.7275 30.1036 94.5591 29.9258 94.5461C29.8405 94.5608 29.8405 94.5608 29.8405 94.5608C29.77 94.6607 29.7421 94.7532 29.579 94.8253C29.4938 94.8401 29.3159 94.8271 29.2159 94.7568C29.1159 94.6864 29.0233 94.6587 29.0217 94.3959C29.0217 94.3959 28.9495 94.2331 29.0348 94.2183C28.9627 94.0555 29.2315 93.8336 29.5151 93.6968Z" fill="#A7B76B"/>
<path d="M43.1602 93.392C43.4512 93.2977 43.9085 93.6568 44.1733 93.9177C44.6028 94.3692 44.8282 95.163 44.7831 95.9159C44.688 96.6337 44.3576 97.2608 43.8052 97.6195C43.642 97.6916 43.6142 97.7841 43.6142 97.7841C43.451 97.8562 43.351 97.7859 43.3215 97.6157C43.2494 97.4528 43.2347 97.3677 43.3904 97.2531C43.9412 96.6316 44.0011 95.9638 43.9273 95.5383C43.9093 94.9277 43.6503 94.4467 43.3003 94.2005C43.193 94.0876 42.8282 93.7564 43.1323 93.4845C43.0823 93.4493 43.1602 93.392 43.1602 93.392Z" fill="#A7B76B"/>
<path d="M79.3278 83.967C79.7819 83.8006 80.7934 84.0636 81.4303 84.6983C82.0671 85.333 82.1646 86.1489 81.8785 87.0313C81.5072 87.9285 80.8121 88.2243 80.6916 88.289C80.4006 88.3833 80.2228 88.3703 80.1506 88.2074C80.1359 88.1223 80.0638 87.9595 80.4252 87.7654C80.8925 87.4214 81.2302 86.8369 81.1696 86.2338C81.1532 85.8859 80.922 85.3124 80.1589 84.9625C79.9811 84.9495 79.8811 84.8792 79.7032 84.8662C79.3401 84.7976 79.0696 84.7568 79.0958 84.4016C79.0442 84.1038 79.1573 83.9965 79.3278 83.967Z" fill="#A7B76B"/>
<path d="M65.0682 100.99C65.4444 100.881 66.0797 101.253 66.5239 101.79C66.8034 102.136 67.3288 103.141 66.4607 104.212C66.1714 104.569 65.923 104.655 65.923 104.655C65.7599 104.728 65.6599 104.657 65.5599 104.587C65.5451 104.502 65.473 104.339 65.6287 104.224C65.9755 103.945 66.0722 103.49 65.9985 103.064C65.9247 102.639 65.7378 102.321 65.4583 101.975C65.3583 101.904 65.2657 101.877 65.2083 101.799C64.9583 101.623 64.6657 101.455 64.9198 101.148C64.8772 101.155 64.8977 101.02 65.0682 100.99Z" fill="#A7B76B"/>
<path d="M45.5268 112.618C45.8178 112.524 46.2441 112.45 46.6867 112.724C47.2293 113.068 47.4883 113.549 47.4358 114.259C47.4333 115.005 46.912 115.797 46.2743 116.17C46.1112 116.242 46.0112 116.172 45.9112 116.102C45.8964 116.016 45.8243 115.854 45.8948 115.754C46.544 114.94 46.526 114.329 46.5317 114.109C46.4448 113.861 46.4227 113.734 46.1875 113.643L46.1727 113.558C45.9948 113.545 45.8096 113.489 45.7317 113.547C45.5686 113.619 45.5407 113.711 45.4702 113.811C45.3997 113.911 45.3719 114.003 45.2088 114.076C45.1235 114.09 44.9456 114.077 44.8604 114.092C44.6678 113.994 44.5956 113.831 44.6088 113.654C44.6555 113.163 45.0727 112.784 45.5268 112.618Z" fill="#A7B76B"/>
<path d="M37.4835 108.007C37.7319 107.92 37.9393 108.104 38.1188 108.379C38.3852 108.903 38.3696 109.826 37.8318 110.27L37.7466 110.285C37.6613 110.3 37.5687 110.272 37.4687 110.201C37.3687 110.131 37.3613 110.089 37.3818 109.954C37.3933 109.513 37.3696 109.123 37.2974 108.96C37.2106 108.712 37.1163 108.422 37.2147 108.229C37.1926 108.102 37.313 108.037 37.4835 108.007Z" fill="#A7B76B"/>
<path d="M13.5816 87.3855C14.1209 87.2044 15.1357 87.9927 15.4947 88.5442C15.7889 88.9753 16.3291 90.0651 16.1471 90.535C16.0766 90.6348 16.034 90.6422 15.9561 90.6996L15.8708 90.7143C15.7856 90.7291 15.6782 90.6162 15.6208 90.5385C15.1881 89.5616 14.5365 88.8417 13.3734 88.2106C13.2734 88.1402 13.266 88.0977 13.1939 87.9348C13.1791 87.8497 13.1922 87.6721 13.2627 87.5723C13.3758 87.465 13.4185 87.4576 13.5816 87.3855Z" fill="#A7B76B"/>
<path d="M31.5248 43.9946C32.2272 43.7414 33.224 43.9192 33.5346 44.6982C33.8805 45.4272 33.7001 46.1598 33.2755 46.4963L33.1903 46.5111C33.105 46.5259 33.0124 46.4981 32.9124 46.4278C32.8124 46.3575 32.8255 46.1799 32.896 46.08C33.0649 45.7877 33.0616 45.2623 32.6042 44.9033C32.519 44.9181 32.5042 44.833 32.5042 44.833C32.5042 44.833 32.4043 44.7626 32.2264 44.7496C32.0485 44.7366 31.8633 44.6811 31.7002 44.7532C31.7002 44.7532 31.6149 44.7679 31.537 44.8253L31.4518 44.8401L31.4665 44.9252C31.3813 44.9399 31.3813 44.9399 31.3034 44.9973C31.0551 45.0841 30.8624 44.986 30.8329 44.8158C30.7608 44.653 30.7387 44.5253 30.7592 44.3903C30.9575 44.2683 31.2338 44.0889 31.5248 43.9946Z" fill="#A7B76B"/>
<path d="M29.9455 35.8966C30.3996 35.7302 30.9553 35.8969 31.3979 36.1708C31.7553 36.4595 31.9495 36.8203 31.9381 37.2606C31.8676 37.3605 31.8397 37.453 31.7618 37.5103C31.5987 37.5824 31.4987 37.5121 31.4839 37.427C31.1249 36.8756 30.5692 36.7089 30.193 36.818L30.0299 36.8901C29.9446 36.9049 29.8667 36.9622 29.8667 36.9622C29.7815 36.977 29.7815 36.977 29.7036 37.0343C29.5405 37.1064 29.4126 37.1286 29.2758 36.8455C29.2036 36.6826 29.1889 36.5975 29.2594 36.4977C29.3577 36.3053 29.534 36.0556 29.7823 35.9687C29.8397 36.0464 29.8676 35.9539 29.9455 35.8966Z" fill="#A7B76B"/>
<path d="M38.379 39.2127C39.1241 38.9521 40.6192 39.2189 41.1741 40.3938C41.6347 41.2783 41.5265 42.1736 41.1666 42.6305C41.0814 42.6453 41.0961 42.7304 41.0535 42.7378C40.9683 42.7525 40.8757 42.7248 40.7757 42.6544C40.6757 42.5841 40.6683 42.5416 40.6888 42.4065C40.8691 41.674 40.6159 40.9727 40.229 40.5138C39.7995 40.0623 39.1233 39.9603 38.4413 40.0785C38.1929 40.1654 37.9856 39.9822 37.8987 39.7343C37.8266 39.5715 38.0102 39.3643 38.379 39.2127Z" fill="#A7B76B"/>
<path d="M30.3589 53.2259C31.1892 52.9505 32.6974 53.0397 33.2392 54.3922C33.6719 55.3692 33.3227 56.394 32.785 56.8378L32.6997 56.8526C32.6145 56.8674 32.4366 56.8544 32.4219 56.7693C32.4071 56.6842 32.335 56.5214 32.4055 56.4215C32.7785 55.787 32.7531 55.134 32.3088 54.5973C31.8646 54.0607 31.231 53.9514 30.6064 54.1473C30.5211 54.1621 30.4433 54.2194 30.358 54.2342C30.2728 54.249 30.2728 54.249 30.2728 54.249C30.0244 54.3358 29.8318 54.2377 29.8023 54.0675C29.7302 53.9047 29.7154 53.8196 29.7859 53.7197C29.7916 53.4996 29.99 53.3775 30.3589 53.2259Z" fill="#A7B76B"/>
<path d="M36.3862 46.9655C36.6772 46.8712 37.1903 47.0453 37.5476 47.334C38.0198 47.7781 38.364 48.2444 38.282 48.7846C38.2115 48.8845 38.1837 48.977 38.1058 49.0343C37.9427 49.1064 37.8427 49.0361 37.8132 48.8659C37.4394 48.2294 36.8042 47.8573 36.3837 47.711C36.0911 47.5426 35.9263 47.352 36.1026 47.1023C36.1952 47.1301 36.3009 46.9803 36.3862 46.9655Z" fill="#A7B76B"/>
<path d="M37.8884 25.4907C38.513 25.2948 39.8097 25.6836 40.3376 25.9428C40.7802 26.2167 42.1376 27.2087 42.1408 27.7341C42.1556 27.8192 42.1277 27.9117 42.0425 27.9265C41.8793 27.9986 41.7793 27.9283 41.7646 27.8432C40.7777 26.9623 39.5089 26.4809 38.6048 26.3308C38.5195 26.3456 38.4269 26.3178 38.3417 26.3326C38.0638 26.2493 37.7154 26.2658 37.6359 26.0604C37.6212 25.9753 37.5638 25.8976 37.5417 25.77C37.5269 25.6848 37.6401 25.5776 37.8884 25.4907Z" fill="#A7B76B"/>
<path d="M33.9932 30.3735C34.2842 30.2793 34.5473 30.2775 34.8957 30.2609C35.8776 30.3537 37.176 31.0053 37.9997 31.9583C38.444 32.4949 38.7177 33.0611 38.6505 33.6864C38.6374 33.864 38.5669 33.9639 38.5816 34.049C38.5111 34.1489 38.4833 34.2414 38.4054 34.2987C38.3201 34.3135 38.2275 34.2857 38.1275 34.2154C38.0275 34.145 38.0202 34.1025 38.0406 33.9674C38.0406 33.9674 38.303 32.6947 35.9784 31.695C35.3579 31.4081 34.9948 31.3395 34.7317 31.3413L34.6465 31.3561C34.5612 31.3709 34.3981 31.443 34.3555 31.4504C33.9014 31.6167 33.6473 31.9238 33.6341 32.1014C33.5505 32.3788 33.4448 32.5287 33.3595 32.5434C33.2743 32.5582 33.1964 32.6155 33.0964 32.5452C32.9185 32.5322 32.7464 32.2991 32.8022 32.1141C32.6415 31.4406 33.1202 30.6563 33.9932 30.3735Z" fill="#A7B76B"/>
<path d="M42.7144 33.07C43.1685 32.9036 43.8873 32.9982 44.5316 33.6754C45.1832 34.3953 45.0881 35.1131 45.075 35.2907C44.9913 35.5682 44.8856 35.718 44.8003 35.7328C44.7151 35.7475 44.7151 35.7475 44.6225 35.7198C44.5225 35.6494 44.5151 35.6069 44.5282 35.4293C44.3586 34.4506 43.516 33.8953 42.9897 33.8989C42.8119 33.8859 42.7266 33.9006 42.6266 33.8303C42.5266 33.76 42.4619 33.6397 42.4324 33.4695C42.3176 33.3141 42.4234 33.1642 42.7144 33.07Z" fill="#A7B76B"/>
<path d="M52.2889 39.1684C52.9913 38.9151 54.0012 38.9154 54.7528 39.7056C55.4044 40.4254 55.5019 41.2413 55.2921 41.8036C55.2216 41.9035 55.179 41.9109 55.1011 41.9682C55.0158 41.983 54.938 42.0403 54.838 41.97C54.738 41.8997 54.7306 41.8571 54.6732 41.7794C54.5905 41.0486 54.3241 40.525 53.6888 40.153C53.2183 39.9715 52.7774 39.9603 52.3159 40.0841C52.1528 40.1562 52.0675 40.171 51.9544 40.2783C51.706 40.3652 51.5134 40.2671 51.3987 40.1116C51.3265 39.9488 51.3118 39.8637 51.3823 39.7638C51.6364 39.4568 51.9126 39.2774 52.2889 39.1684Z" fill="#A7B76B"/>
<path d="M37.0396 67.4527C37.7421 67.1994 38.8371 67.1849 39.6797 67.7402C40.415 68.1825 40.8461 68.8968 40.9658 69.8403C41.0395 70.2658 40.978 70.671 40.887 70.9059C40.8165 71.0058 40.7739 71.0132 40.696 71.0705C40.6108 71.0853 40.5182 71.0575 40.4329 71.0723C40.3329 71.0019 40.3256 70.9594 40.346 70.8243C40.3453 69.5534 39.542 68.4653 38.4174 68.3096C37.8764 68.2281 37.5281 68.2446 37.1592 68.3962C37.074 68.411 36.9109 68.4831 36.8682 68.4905C36.6199 68.5774 36.4273 68.4793 36.2551 68.2461C36.2404 68.161 36.1683 67.9982 36.2387 67.8983C36.4019 67.8262 36.6207 67.5691 37.0396 67.4527Z" fill="#A7B76B"/>
<path d="M69.995 26.3248C70.0802 26.31 70.2433 26.2379 70.3433 26.3083C70.7712 26.4971 71.4081 27.1318 71.5318 27.5925C71.604 27.7553 71.5335 27.8552 71.463 27.9551C71.2162 28.3047 70.94 28.4841 70.649 28.5783C70.4859 28.6504 70.4006 28.6652 70.2228 28.6522C69.9597 28.654 69.7523 28.4708 69.6802 28.308C69.6654 28.2229 69.6933 28.1304 69.7638 28.0305C69.7638 28.0305 69.7638 28.0305 69.849 28.0157C69.9343 28.0009 70.0121 27.9436 70.0121 27.9436C70.0121 27.9436 70.0974 27.9288 70.1753 27.8715C70.2605 27.8567 70.3663 27.7069 70.522 27.5922C70.3572 27.4016 70.1499 27.2184 70.0777 27.0556C69.7835 26.6245 69.6335 26.519 69.895 26.2545C69.8319 26.3969 69.9171 26.3822 69.995 26.3248Z" fill="#A7B76B"/>
<path d="M89.1722 24.7541C89.8747 24.5009 91.5419 25.0008 92.0558 26.4459C92.3459 27.3598 92.1524 28.27 91.7147 28.7842C91.6295 28.799 91.6442 28.8841 91.6016 28.8915C91.5163 28.9062 91.4237 28.8785 91.3237 28.8081C91.2237 28.7378 91.2516 28.6453 91.2368 28.5602C91.5024 27.8129 91.4123 27.0395 90.968 26.5029C90.609 25.9515 89.9033 25.6793 89.1566 25.6773C88.8935 25.679 88.7287 25.4884 88.7271 25.2257C88.8328 25.0759 88.9665 24.8336 89.1722 24.7541Z" fill="#A7B76B"/>
<path d="M78.0529 92.8225C78.216 92.7504 78.4792 92.7487 78.7718 92.9171C79.2423 93.0985 79.5865 93.5648 79.675 94.0755C79.7709 94.6286 79.5963 95.1411 79.1217 95.4425C79.0086 95.5497 78.8455 95.6218 78.6824 95.694C78.5192 95.7661 78.3914 95.7882 78.2414 95.6827C78.1414 95.6124 78.134 95.5698 78.1545 95.4348C78.1397 95.3497 78.1676 95.2572 78.3307 95.1851C78.607 95.0057 78.7758 94.7135 78.7021 94.2879C78.6857 93.9401 78.4209 93.6792 78.0652 93.6532C77.7873 93.5699 77.5947 93.4718 77.5931 93.2091C77.7062 93.1018 77.8046 92.9094 78.0529 92.8225Z" fill="#A7B76B"/>
<path d="M15.2851 77.7107C15.7392 77.5443 16.8081 77.8851 17.3597 78.5346C17.8039 79.0712 17.8293 79.7243 17.5269 80.2588C17.358 80.5511 17.1523 80.6306 16.9039 80.7175L16.8186 80.7322L16.8039 80.6471L16.8891 80.6324L16.8744 80.5473L16.7891 80.562L16.6818 80.4491C16.5744 80.3363 16.5744 80.3363 16.5744 80.3363C16.6449 80.2364 16.6875 80.229 16.8211 79.9867C16.9047 79.7092 16.8031 79.3762 16.6531 79.2707L16.6384 79.1856C16.531 79.0727 16.2662 78.8118 15.7531 78.6377L15.5753 78.6247C15.2974 78.5414 15.0195 78.4581 14.94 78.2527C14.9253 78.1676 14.8679 78.0899 14.9236 77.9049C15.0794 77.7902 15.1146 77.7403 15.2851 77.7107Z" fill="#A7B76B"/>
</g>
</g>
<defs>
<clipPath id="clip0_9_1612">
<rect width="129" height="162" fill="white"/>
</clipPath>
</defs>
</svg>
