<svg width="217" height="202" viewBox="0 0 217 202" fill="none" xmlns="http://www.w3.org/2000/svg">
<g clip-path="url(#clip0_8_20)">
<mask id="mask0_8_20" style="mask-type:luminance" maskUnits="userSpaceOnUse" x="-17" y="-21" width="241" height="237">
<path d="M192.034 -20.1152L-16.4384 11.8264L14.6379 215.606L223.11 183.665L192.034 -20.1152Z" fill="white"/>
</mask>
<g mask="url(#mask0_8_20)">
<path d="M9.44413 59.2747C9.37149 58.9834 9.37149 58.6193 9.44413 58.328C9.58943 57.4542 9.66208 57.1629 9.88002 56.8716C10.0253 56.726 10.098 56.4347 10.3159 56.1435C10.5339 55.8522 10.3886 54.9055 10.3159 54.2502L10.1706 52.9394L10.098 52.6481C9.95267 51.0461 10.3159 50.2451 10.4612 49.5897C10.6792 49.1528 10.7518 48.7159 10.6065 48.0605C10.5339 47.7693 10.5339 47.6236 10.5339 47.4052C10.3159 46.8954 10.2433 46.4585 10.1706 45.9488C9.73473 43.2545 10.8971 40.633 12.4227 37.0649C12.7859 36.0454 13.2945 34.8803 13.803 33.7152C15.5466 29.5645 20.1961 20.7534 23.8285 19.9524C23.9011 19.5155 24.2644 19.0786 24.1917 18.9329C25.3541 16.3843 27.5335 14.5638 30.1489 13.7628C30.1489 13.7628 30.4394 13.69 30.8027 13.5443C31.4565 13.3259 32.7642 12.9618 32.9095 12.9618C32.9095 12.9618 33.2727 12.5977 35.8154 10.3403C38.0675 8.22852 40.029 6.26241 44.0973 4.36911C48.3109 2.18454 53.9048 0.800981 58.7722 0.509705C60.6611 0.509705 62.4046 0.946619 63.7849 1.96609C65.8917 1.2379 66.5456 1.16508 67.7806 1.2379C68.5071 1.38353 69.2335 1.67481 69.5241 1.96609C69.7421 1.82045 70.8318 1.38353 71.3403 1.2379C74.8275 0.582524 76.3531 2.69428 77.2248 3.9322L77.3701 4.15066H77.5154C81.5837 3.64092 84.7803 5.67986 88.1221 7.79161C88.7033 8.08288 89.2844 8.44698 89.793 8.88389L90.5195 9.32081C100.327 15.0007 100.327 15.0007 108.318 24.2487C109.335 25.4866 112.169 28.6179 112.169 28.6179C117.327 34.589 118.78 35.9726 118.998 36.2639C119.143 36.4095 119.433 36.4823 119.579 36.5551C120.16 36.8464 120.668 37.2105 121.177 37.9387C121.322 38.0843 121.54 38.7397 121.54 38.7397C121.758 39.1038 121.758 39.3951 121.831 39.6863C121.903 40.1961 121.831 40.7786 121.831 41.3612C121.831 41.5068 121.903 41.6525 121.903 41.8709C122.049 42.8176 122.921 43.9099 123.938 45.2934C124.301 45.6575 124.591 46.0216 124.809 46.5313C130.839 54.3958 132.655 58.4008 134.108 61.6049C135.416 64.5905 136.36 66.6294 139.993 70.3432C142.463 72.9647 143.044 75.0764 143.625 77.1882C143.988 78.4989 144.279 79.7368 145.006 80.9747C145.587 82.1399 146.459 83.3778 147.185 84.6157C148.638 87.0187 150.236 89.3489 150.745 90.951C151.035 91.752 151.253 92.4073 151.326 93.0627C151.689 94.6647 152.052 96.2667 155.176 101.146C156.411 103.185 157.864 105.151 159.099 107.044C161.715 110.903 164.548 115.054 166.582 119.423C166.8 119.787 167.018 120.297 167.236 120.807C167.962 122.919 168.18 123.428 168.253 123.792C168.398 124.593 168.616 125.249 173.774 136.463C173.774 136.608 173.774 136.609 173.847 136.754C173.92 137.191 173.702 137.628 173.338 137.774C172.83 137.992 172.249 137.774 172.031 137.264L167.018 126.996C166.509 125.686 166.291 124.885 166.001 124.084C165.638 122.773 165.347 121.535 163.967 118.986C162.078 115.564 159.39 111.559 156.775 107.845C154.014 103.986 151.471 100.272 150.091 97.2862C149.292 95.6114 149.001 94.4463 148.711 93.4996C148.638 92.9899 148.42 92.4073 148.202 91.8976C147.766 90.7325 146.313 88.3295 144.715 86.0721C143.843 84.6885 142.899 83.305 142.172 82.2127C141.301 80.8291 140.865 79.2271 140.429 77.7707C140.065 76.46 139.63 75.2949 139.048 74.2754C138.467 73.1103 137.523 72.3093 136.36 71.217C135.271 70.1247 134.254 69.0324 133.382 67.7945C132.655 66.5566 132.074 65.5371 131.42 64.0807C130.621 62.4059 129.749 60.4398 128.079 57.5998C125.318 53.0851 122.993 50.2451 121.25 48.0605C119.361 45.5847 118.053 43.9827 117.763 42.0894C117.763 41.9437 117.69 41.7981 117.69 41.6525C117.69 41.5068 117.617 41.2155 117.69 40.9243C117.617 40.633 117.69 40.1961 117.69 39.9776C117.69 39.832 117.617 39.6863 117.472 39.6135C116.818 39.031 116.818 39.031 116.673 39.031C116.382 39.1038 116.164 39.1038 108.318 30.3655C107.011 28.9091 105.848 27.5984 104.831 26.3605C98.5107 19.3698 97.2031 17.9135 92.1177 14.9279C90.1562 13.8356 88.4853 12.8889 87.0323 12.0151C82.3102 9.17517 80.2034 7.79161 77.9513 8.30134C75.118 8.73826 74.2463 7.35469 73.5198 6.33523C73.1565 5.97113 73.0113 5.60704 72.648 5.38858L72.5027 5.24294L72.3574 5.0973C72.2121 5.0973 71.9215 5.17012 70.9045 5.60704C69.5968 6.11677 68.2891 6.55369 67.0541 5.67986C66.3276 5.24294 65.2379 5.67986 64.0755 6.11677C62.7679 6.6265 61.6055 7.20906 61.0243 6.04395C60.1525 4.07784 56.5928 4.80603 53.9048 5.24294L53.6142 5.31576C44.0973 7.28188 40.6828 10.7044 37.7769 13.3259C35.9607 15.1463 34.4351 16.6027 31.7471 17.1124C28.5506 17.7678 27.6062 19.6611 26.8797 21.3359C26.2259 22.6467 25.7173 23.8846 24.0464 23.6662L23.9738 23.8846C19.5422 28.2538 17.4354 33.2783 15.9098 36.992C15.5466 38.0115 15.1107 38.8853 14.7474 39.5407C13.0765 42.9632 12.8586 44.3468 13.0039 45.4391C13.0765 45.876 13.0765 46.0944 13.2945 46.5313C13.3671 46.9683 13.5124 47.1867 13.5851 47.6964V47.8421C13.7304 48.9344 13.4398 49.5169 13.2945 50.2451C13.0765 50.8277 12.7859 51.4102 12.9312 52.3569C13.0039 52.6481 13.0039 53.0122 13.0765 53.4492L13.1492 53.7404C13.3671 54.9784 13.5851 56.4347 12.7859 57.6727L12.6407 57.8183C12.568 58.1096 12.3501 58.4008 12.2048 58.5465L12.0595 58.6921H12.2048C12.2774 58.9834 12.568 59.2019 12.7859 59.566C12.9312 59.7844 13.2945 60.1485 13.5124 60.5854C14.0936 61.4592 14.2389 62.4059 14.6022 64.1535L15.7645 69.1781C17.3628 76.0959 18.1619 79.5912 19.4696 83.3778C22.8114 93.354 27.6788 98.2329 32.3283 103.039C34.7257 105.442 37.1957 108.063 39.4478 111.195C39.6658 111.559 40.3196 112.578 40.4649 113.525C40.6102 114.326 40.3922 114.617 39.6658 114.763C39.1572 114.836 38.6487 114.472 38.576 113.962C38.3581 112.36 34.4351 108.428 30.6574 104.568C29.2044 103.112 27.8968 101.655 26.7344 100.49C18.5978 91.3879 16.9269 84.8342 13.0039 69.1781L12.0595 65.4643C11.7689 64.5176 11.333 62.4059 10.9697 62.0418C10.7518 61.6777 10.4612 61.4592 10.3159 61.168C9.95267 60.7311 9.58943 60.0757 9.44413 59.2747Z" fill="#B98A44"/>
<path d="M1.16227 127.652C0.0725455 120.37 3.85025 110.976 7.04677 108.719C7.7006 108.355 8.13649 107.845 8.79032 107.481C12.8586 104.495 15.6192 102.602 21.3584 104.35C22.9567 104.932 24.555 105.369 25.8626 105.879C30.7301 107.335 34.6531 108.5 39.2299 112.214C39.3752 112.36 39.5931 112.578 39.5931 112.869C39.6658 113.161 39.5205 113.452 39.4478 113.598C39.0846 114.035 38.5761 114.18 38.1402 113.816L37.7043 113.452C33.7086 110.466 29.9309 109.374 25.4994 108.136C23.9011 107.699 22.3755 107.262 20.632 106.68C18.1619 105.952 16.2731 105.806 13.803 107.19C12.786 107.772 8.35443 110.903 7.77325 111.704C6.68353 113.525 2.97847 120.006 3.85025 125.831L3.9229 126.268C4.72203 130.856 6.10234 131.584 7.62795 132.458C8.28179 132.895 9.00827 133.186 9.6621 133.914C10.3159 134.497 10.8245 135.225 11.1877 136.026C11.6962 136.608 12.0595 137.409 12.568 137.846C13.4398 138.793 14.5295 139.23 15.8372 139.448C16.4184 139.667 16.9996 139.813 17.5807 140.031C18.8884 140.541 19.8328 141.342 20.7773 141.997C21.4311 142.434 22.0123 143.017 22.7388 143.381C23.7558 143.89 24.6276 143.89 25.4267 143.963C26.5165 143.963 27.8968 143.89 30.5848 145.492C32.1104 146.657 33.9266 146.803 35.6701 147.094C36.3966 147.24 37.1957 147.24 38.0675 147.531C40.7555 148.187 41.6999 149.061 42.5717 149.862C42.9349 150.226 43.2255 150.444 43.5161 150.808C44.7512 151.755 47.1485 152.192 49.328 152.701C51.3621 153.211 53.4689 153.575 54.6313 154.376C56.5928 155.469 56.7381 155.469 57.7552 155.25C58.1911 155.177 58.8449 155.25 59.7893 155.177C65.6738 155.25 66.8362 156.415 67.9986 157.653C68.5071 158.236 69.0156 158.745 70.0327 159.255C76.8616 162.314 82.2376 170.032 89.1392 179.863C90.7374 182.12 92.3357 184.451 94.0792 186.854C96.8399 190.713 98.4381 192.97 98.4381 192.97C98.4381 193.116 98.5834 193.189 98.6561 193.334C98.7287 193.844 98.3655 194.208 98.0022 194.427C97.639 194.645 97.2031 194.572 96.8399 194.063C96.1134 192.825 85.7973 178.407 80.9299 171.999C75.4087 164.425 71.3404 162.314 68.943 161.003C68.2165 160.712 67.7806 160.347 67.2721 159.983C66.9815 159.765 66.7635 159.474 66.6182 159.255C65.7465 158.163 64.9473 157.143 57.9731 157.58C55.939 157.653 54.9945 157.216 54.1228 156.634C53.5416 156.342 52.9604 155.978 52.0886 155.687C51.3621 155.541 50.3451 155.25 49.4006 155.104C47.0032 154.668 44.17 154.012 42.4991 153.138C41.7726 152.701 41.264 152.337 40.8282 151.9C40.6829 151.755 40.4649 151.536 40.1743 151.318C39.0846 150.226 37.1957 150.007 35.2342 149.716C34.6531 149.643 33.9992 149.497 33.418 149.425C31.0207 148.988 29.6403 148.187 28.6233 147.531C28.1874 147.313 27.8241 146.949 27.4609 146.876C26.8797 146.585 26.0079 146.512 25.2088 146.657C24.7729 146.73 24.4097 146.657 24.1191 146.657C22.0123 146.439 20.3414 145.201 18.9611 144.254C18.6705 144.036 18.3072 143.672 17.8713 143.599C16.9269 142.944 15.9098 142.652 14.9654 142.361C14.2389 142.216 13.4398 142.07 12.4954 141.633C10.5339 140.686 9.5168 139.084 8.64503 137.846C8.28178 137.482 8.13649 137.118 7.91854 136.681C7.26471 135.807 6.61088 135.371 5.7391 134.934C5.30321 134.715 4.79467 134.351 4.50408 133.987C2.76053 132.603 1.59816 130.492 1.16227 127.652Z" fill="#B98A44"/>
<path d="M37.8495 112.942C37.7769 112.651 37.9222 112.505 38.0675 112.36C38.4307 111.996 38.9392 111.923 39.3025 112.287C51.6527 121.389 72.3574 149.934 72.7933 152.483C72.7933 152.483 72.8659 152.774 72.7206 152.774C72.5753 152.774 72.43 152.847 72.2847 152.701C72.2847 152.701 70.3959 150.08 67.3447 146.293C55.721 131.438 47.5117 123.283 42.499 118.404C39.4478 115.273 37.9948 113.889 37.8495 112.942Z" fill="#B98A44"/>
<path d="M97.0578 195.592C96.6946 193.335 98.3655 192.242 101.199 190.276C102.071 189.694 102.942 189.038 104.032 188.31C107.156 186.053 110.207 183.504 113.985 180.446C122.63 173.164 134.472 163.406 157.356 148.332L160.334 146.366C165.347 143.017 165.347 143.017 166.437 141.997C166.945 141.487 167.527 140.978 168.689 139.885C171.014 137.846 173.556 135.807 175.663 136.9C177.043 137.628 179.441 141.851 179.804 144.4C179.877 144.837 179.877 145.056 179.804 145.347C179.659 147.313 178.206 148.332 175.808 149.934C175.227 150.444 174.428 150.954 173.556 151.536C173.338 151.682 172.176 152.41 170.432 153.648C160.698 160.202 131.057 180.227 112.241 195.883C107.083 200.107 103.451 203.019 101.199 202C99.4552 201.199 98.2928 199.16 97.7117 197.995C97.4211 197.048 97.1305 196.32 97.0578 195.592ZM174.791 138.647C174.646 138.502 174.355 138.429 174.355 138.429C172.685 138.429 169.706 141.342 167.672 143.308C167.163 143.818 166.727 144.254 166.364 144.619C166.001 144.983 106.284 189.475 100.981 192.825L100.618 193.043C99.4552 193.771 98.5834 194.281 98.6561 195.519V195.665C98.9467 197.558 100.545 200.034 101.853 200.544C103.16 201.199 106.575 198.286 113.549 192.679C121.613 186.198 134.98 175.348 156.121 160.93C157.574 159.911 159.753 158.454 162.151 156.998C168.616 152.702 177.625 146.876 177.843 145.201C177.843 145.055 177.77 144.91 177.77 144.691C177.479 142.798 175.59 139.376 174.791 138.647Z" fill="#B98A44"/>
<path d="M174.501 137.628C174.428 137.337 174.573 137.045 174.791 136.9C175.009 136.754 175.155 136.681 175.445 136.827C176.825 137.555 193.97 143.672 200.581 143.745C208.209 143.963 212.132 140.031 212.278 138.502C212.278 138.356 212.205 138.21 212.205 137.992C211.987 136.681 210.752 134.788 209.735 134.642H209.59L209.735 134.497C209.444 134.57 209.299 134.278 209.227 133.987C209.227 133.841 209.154 133.696 209.299 133.55C209.517 133.113 209.808 133.04 210.316 133.113C213.876 135.079 215.983 137.774 216.419 140.686C217 144.327 215.184 148.041 211.624 150.954C207.338 154.376 199.492 156.779 190.265 153.284C187.505 152.192 185.543 151.245 183.654 150.298C181.693 149.352 179.949 148.551 177.625 147.677C177.334 147.604 177.189 147.313 177.116 147.094C177.116 146.949 177.043 146.803 177.189 146.657C177.261 146.366 177.77 146.148 178.06 146.221C179.078 146.585 180.24 147.022 181.402 147.386C182.71 147.895 184.018 148.478 185.398 149.133C192.3 152.046 199.346 155.105 207.265 151.172C212.641 148.696 215.765 144.473 215.111 140.468C214.893 139.011 214.312 137.701 213.15 136.608C213.513 136.973 213.513 137.409 213.585 137.774C213.658 138.065 213.658 138.429 213.585 138.72C213.44 140.541 211.261 142.361 209.227 143.381C201.235 147.604 189.612 143.526 178.351 139.448C177.189 139.084 176.026 138.575 174.719 138.21C174.719 138.138 174.573 137.846 174.501 137.628Z" fill="#B98A44"/>
<path d="M172.539 136.536C172.467 136.244 172.757 136.099 172.902 136.099C172.902 136.099 173.556 136.026 174.646 135.807C177.479 135.371 180.458 134.497 183.8 133.55C194.261 130.71 205.957 127.433 213.731 136.099C213.731 136.244 213.876 136.244 213.876 136.317C213.876 136.463 213.803 136.754 213.658 136.754C213.513 136.754 213.222 136.827 213.077 136.681C210.244 134.06 206.103 132.531 201.308 132.312C197.821 132.167 190.919 133.623 184.962 134.934C179.005 136.244 173.774 137.337 172.83 136.681C172.757 136.754 172.612 136.681 172.539 136.536Z" fill="#B98A44"/>
<path d="M184.163 140.686C184.236 140.249 184.744 140.177 185.325 140.104C185.471 140.104 185.616 140.031 185.616 140.031C186.924 139.812 188.449 139.448 189.902 139.084C192.3 138.429 194.915 137.774 198.111 137.846C204.795 138.21 206.974 140.905 207.192 142.507C207.265 143.017 207.192 143.453 206.974 143.745C206.829 143.89 206.611 144.109 206.321 144.109C205.885 144.182 205.739 143.89 205.739 143.818C205.739 143.672 205.812 143.381 206.103 143.381C206.248 143.381 206.175 143.089 206.175 142.944C206.103 142.507 205.739 142.07 205.158 141.706C203.269 140.322 198.838 139.23 192.59 140.468L192.154 140.541C189.248 141.123 185.325 141.706 184.381 141.196C184.381 140.905 184.236 140.832 184.163 140.686Z" fill="#B98A44"/>
<path d="M137.378 129.472C137.45 128.089 137.959 126.924 139.048 126.195C140.138 125.322 141.518 125.249 142.681 125.758C143.989 126.268 144.86 127.506 145.078 128.671C145.151 128.963 145.151 129.181 145.078 129.472C145.006 129.764 144.86 129.909 144.57 129.836C144.424 129.836 144.134 129.764 144.134 129.472C143.843 127.725 142.39 126.996 141.301 126.996C140.211 126.996 138.976 127.797 138.685 129.618C138.613 130.055 138.249 130.273 137.959 130.273C137.959 130.273 137.45 130.055 137.378 129.472Z" fill="#B98A44"/>
<path d="M138.976 113.67C138.83 112.724 139.194 111.704 139.92 111.049C140.792 110.394 141.736 110.248 142.826 110.466C144.134 110.976 145.224 112.433 145.369 113.67C145.441 114.107 145.369 114.472 145.224 114.69C145.078 114.836 145.006 114.836 145.006 114.836C144.715 114.908 144.57 114.617 144.497 114.326V114.18C143.989 112.505 142.753 111.996 141.736 112.141C141.083 112.214 140.429 112.724 140.574 113.525V113.67C140.865 113.743 141.01 114.035 141.083 114.253C141.155 114.69 140.937 114.981 140.501 115.2H140.356C139.92 115.273 139.63 115.054 139.339 114.836C139.194 114.326 139.048 114.107 138.976 113.67Z" fill="#B98A44"/>
<path d="M111.587 115.127C111.515 114.69 111.442 114.326 111.515 113.889C111.66 111.122 112.677 108.719 114.421 107.554C115.51 106.68 116.891 106.607 118.344 106.971C119.651 107.481 120.233 108.355 120.451 108.864L120.596 109.01L120.451 109.156L120.378 108.864L119.651 109.52H119.506C119.506 109.52 119.288 109.01 118.634 108.573C117.545 107.918 116.455 107.918 115.583 108.5C113.84 109.738 112.677 113.088 113.04 115.2C113.113 115.855 113.331 116.365 113.767 116.438C114.058 116.656 114.203 116.802 114.275 117.02C114.275 117.166 114.348 117.311 114.203 117.457C114.13 117.748 113.694 117.967 113.404 117.821C112.677 117.894 111.805 116.729 111.587 115.127Z" fill="#B98A44"/>
<path d="M121.177 91.6063V91.4607C121.322 88.8392 123.066 87.4557 124.664 87.0916C126.626 86.6546 128.732 87.4557 129.677 89.0577V89.2033C129.677 89.349 129.604 89.6402 129.459 89.6402C129.314 89.6402 129.023 89.713 128.878 89.5674C127.933 88.6208 126.335 88.1838 125.173 88.6208C123.865 88.9849 122.921 90.0771 122.63 91.6063C122.557 92.1889 122.194 92.3345 121.903 92.2617C121.686 92.2617 121.25 92.1889 121.177 91.6063Z" fill="#B98A44"/>
<path d="M103.015 82.4311C102.797 80.8291 103.669 79.2999 104.976 78.863C106.139 78.4261 108.028 78.9358 109.335 81.3388V81.4845C109.335 81.6301 109.553 81.8486 109.553 81.9942C109.553 82.1398 109.481 82.2855 109.335 82.4311C108.972 82.6496 108.754 82.3583 108.609 81.9942L108.464 81.8486C107.446 80.465 106.211 79.8825 105.34 80.2465C104.686 80.465 104.541 81.1932 104.686 82.2855C104.759 82.7952 104.976 83.4506 105.412 84.2516C105.558 84.4701 105.63 84.7613 105.703 85.0526C105.776 85.3439 105.63 85.6352 105.267 85.708C105.122 85.708 104.831 85.7808 104.686 85.6352C103.959 85.3439 103.306 83.669 103.015 82.868C103.015 82.7224 103.015 82.5768 103.015 82.4311Z" fill="#B98A44"/>
<path d="M100.182 102.675C99.9637 101.073 100.545 99.4708 101.925 98.5241C103.306 97.6503 104.904 97.5047 106.284 98.2328C106.575 98.4513 106.865 98.5241 106.938 98.8154C106.938 98.961 107.011 99.1067 106.865 99.1067C106.647 99.398 106.502 99.3251 106.211 99.1795L106.066 99.0339C105.049 98.6698 103.814 98.8154 102.942 99.5436C102.071 100.199 101.707 101.218 101.853 102.311C101.925 102.748 102.143 103.257 102.361 103.621C102.361 103.767 102.506 103.84 102.579 103.986C102.652 104.422 102.434 104.714 102.143 104.714C101.635 104.787 100.836 104.204 100.472 102.748C100.254 103.112 100.254 102.966 100.182 102.675Z" fill="#B98A44"/>
<path d="M87.9767 121.681C87.7588 120.443 88.0494 118.768 89.1391 117.676C89.9382 116.729 91.1006 116.292 92.6262 116.292C94.2971 116.438 95.5321 117.384 95.968 118.258V118.404C95.968 118.549 95.8954 118.841 95.7501 118.841C95.6048 118.841 95.3142 118.913 95.1689 118.768C94.8057 118.404 94.3698 118.185 93.9339 117.967C92.7715 117.457 91.5365 117.676 90.5921 118.477C89.6476 119.35 89.2117 120.443 89.4297 121.826C89.4297 121.972 89.5023 122.263 89.5023 122.263C89.575 122.7 89.357 122.991 88.9212 123.21C88.7759 123.21 88.4853 123.283 88.34 123.137C88.2673 122.554 88.0494 122.19 87.9767 121.681Z" fill="#B98A44"/>
<path d="M80.5667 103.112C80.4941 102.675 80.4214 102.311 80.4941 101.874C80.712 100.636 81.3659 99.5436 82.2376 98.9611C83.6179 98.0872 85.1436 98.2329 86.1606 98.7426C86.7418 98.9611 87.1051 99.3252 87.1051 99.5436C87.1051 99.6893 87.0324 99.8349 87.0324 99.9805C86.8145 100.126 86.5965 100.053 86.3059 99.9805L86.1606 99.8349C85.1436 99.4708 84.0538 99.4708 83.3274 100.126C82.4556 100.782 82.0923 101.801 82.2376 102.748C82.2376 102.893 82.3103 103.039 82.3103 103.257H82.4556C87.7589 102.165 87.7589 102.165 87.7589 102.165C87.7589 102.311 87.6136 102.311 85.87 102.602L82.5282 103.257C82.8188 103.33 82.9641 103.621 83.0368 103.986C83.0368 104.714 82.8188 105.151 82.2376 105.078C81.5838 105.151 80.7847 104.422 80.5667 103.112Z" fill="#B98A44"/>
<path d="M96.0407 62.9884C95.7501 61.2408 96.186 58.4008 98.0022 56.2162C99.891 54.0317 101.635 54.0317 102.652 54.2501C103.959 54.6142 104.831 55.7065 104.904 56.2162C104.904 56.3619 104.976 56.5075 104.831 56.6532C104.686 56.7988 104.613 56.7988 104.468 56.8716C104.177 56.9444 104.032 56.6532 103.959 56.3619C103.959 56.2163 103.814 56.1434 103.814 56.1434C103.16 55.4152 102.288 55.124 101.271 55.5609C99.2372 56.4347 97.203 59.4931 97.6389 63.2797C97.7116 63.7166 97.3484 64.0079 97.0578 64.0807C96.7672 64.1535 96.3313 64.0807 96.2586 63.4982C96.1133 63.3525 96.0407 63.0612 96.0407 62.9884Z" fill="#B98A44"/>
<path d="M79.6949 81.9942C79.5496 80.2466 80.2761 78.5717 81.729 77.5523C83.4726 76.3143 85.9426 76.3871 88.0494 77.4066C88.1947 77.5523 88.1947 77.6251 88.2674 77.7707C88.34 77.9163 88.1947 78.062 88.1947 78.2076C88.0494 78.3533 87.9768 78.3533 87.7588 78.2804C85.5067 77.7707 83.6179 78.062 82.3829 79.2271C81.5111 80.0281 81.1478 81.0476 81.2931 82.1399C81.3658 82.5768 81.5837 82.9409 81.729 83.305C81.729 83.4506 81.729 83.4506 81.8017 83.5962C81.8743 83.8875 81.729 84.1788 81.5111 84.3244C81.2931 84.4701 81.1478 84.5429 80.8573 84.3972C80.2761 84.106 79.8402 83.0137 79.6949 82.3583V81.9942Z" fill="#B98A44"/>
<path d="M58.9902 98.3785C58.9902 98.2329 58.9176 98.0872 58.9176 97.9416C58.8449 95.757 59.5714 94.155 60.8064 93.2083C61.5329 92.6986 62.4773 92.553 63.4944 92.6986C64.2209 92.8442 64.8021 93.2083 65.1653 93.7181C65.3106 93.9365 65.3833 94.0822 65.3833 94.0822V94.2278C65.4559 94.5191 65.3106 94.6647 65.02 94.6647C64.7294 94.7375 64.5841 94.5919 64.4388 94.4463C64.2935 94.3006 64.0756 94.0822 63.4944 93.8637C62.7679 93.7181 61.9688 93.9365 61.6056 94.3006L61.3876 94.4463C60.5885 95.3929 60.3705 96.7036 60.2979 98.0872C60.2252 98.6698 59.862 98.8154 59.5714 98.8882C59.3535 99.0339 59.0629 98.8154 58.9902 98.3785Z" fill="#B98A44"/>
<path d="M57.1013 76.7512C57.0287 76.0958 57.0287 75.3677 57.2466 74.9307C57.9731 73.1831 59.2808 72.018 61.1696 71.7267C63.567 71.3626 66.255 72.6005 67.8532 74.8579V75.0036C67.8532 75.1492 67.7806 75.4405 67.6353 75.4405C67.49 75.4405 67.1994 75.5133 67.0541 75.3677C64.5114 73.2559 61.9687 72.6005 60.2252 73.6928C59.0628 74.2754 58.4816 75.5861 58.6269 76.824V76.9697C58.6996 77.4794 58.4816 77.8435 58.0457 77.9163C57.9004 77.9163 57.6098 77.9891 57.4646 77.8435C57.2466 77.6979 57.1013 77.1881 57.1013 76.7512Z" fill="#B98A44"/>
<path d="M74.6095 62.77C74.6095 62.6243 74.5369 62.3331 74.5369 62.2602C74.6095 61.0223 75.4086 60.0757 76.0625 59.7116C76.4257 59.4931 76.8616 59.4203 77.1522 59.5659C77.7334 59.7844 79.5496 61.0223 79.6949 61.6777C79.6949 61.8233 79.7675 61.969 79.6222 62.1146C79.4769 62.2602 79.259 62.3331 79.1137 62.1874C78.3872 61.7505 77.6607 61.4592 77.0069 61.0951C76.4984 61.6049 76.2078 62.3331 76.2078 63.1341C76.2804 63.6438 75.9172 63.8623 75.6266 63.9351C75.1907 63.7894 74.6822 63.6438 74.6095 62.77Z" fill="#B98A44"/>
<path d="M57.8278 55.8522C57.6099 54.3958 58.1184 52.2112 59.862 51.1189C61.3876 50.1723 63.1312 50.1723 64.0756 50.7548C64.2209 50.9005 64.2209 50.9733 64.2935 51.1189C64.2935 51.2646 64.2209 51.4102 64.2209 51.5558C64.0756 51.7015 64.0029 51.7015 63.785 51.6287C62.55 51.4102 61.2423 51.9199 60.3705 52.7209C59.4987 53.522 59.1355 54.6871 59.3534 55.925C59.4261 56.2163 59.4261 56.3619 59.4261 56.5804C59.4987 57.0173 59.2808 57.3085 58.9902 57.4542C58.8449 57.4542 58.5543 57.527 58.409 57.3814C58.1911 57.1629 57.9731 56.6532 57.8278 55.8522Z" fill="#B98A44"/>
<path d="M78.4598 44.8565C78.3145 43.1089 78.8957 41.5068 80.276 40.3417C81.5111 39.1766 83.182 38.6669 84.4896 39.031C84.6349 39.031 84.7802 39.2495 84.8529 39.3951C84.9255 39.6864 84.7802 39.832 84.4896 39.832C81.1478 40.3417 79.7675 43.036 80.1307 45.2934C80.1307 45.4391 80.2034 45.5847 80.2034 45.8032C80.2034 45.9488 80.276 46.0944 80.276 46.2401V46.3857C80.3487 46.677 80.1307 47.1139 79.8401 47.1139C79.5496 47.1867 79.1863 47.1867 78.9684 46.677C78.9684 46.677 78.6051 46.0216 78.4598 45.2206V44.8565Z" fill="#B98A44"/>
<path d="M69.6694 31.4578C69.6694 31.3121 69.6694 31.3121 69.5968 31.1665C70.0327 28.7635 71.7036 27.8168 73.0839 27.8896C74.3189 27.8168 75.2634 28.6906 75.4087 29.5645V29.7101C75.4087 29.8557 75.4813 30.0014 75.336 30.147C75.4086 30.4383 75.1181 30.5839 74.8275 30.6568C74.6822 30.6568 74.3916 30.5839 74.3916 30.2927C74.3189 30.0014 74.101 29.4917 73.3019 29.4917C73.1566 29.4917 72.866 29.4188 72.7933 29.5645H72.648C72.4301 29.7101 72.1395 29.9286 71.9215 30.0742C71.5583 30.5111 71.3404 30.8752 71.1224 31.1665C70.6865 31.8219 70.4686 32.2588 69.8874 31.8947C69.8874 31.8219 69.7421 31.749 69.6694 31.4578Z" fill="#B98A44"/>
<path d="M38.2128 66.0468C38.1402 65.3915 39.012 64.2992 40.1743 63.7895C40.9735 63.4982 42.7897 62.9884 44.17 64.8089V64.9546C44.17 65.1002 44.0973 65.2458 43.9521 65.3915C43.8068 65.5371 43.6615 65.4643 43.5162 65.4643C41.8453 64.4448 40.3196 65.1002 39.5205 66.1925C39.3026 66.4838 38.8667 66.5566 38.5761 66.3381C38.2855 66.2653 38.2855 66.1925 38.2128 66.0468Z" fill="#B98A44"/>
<path d="M40.6102 86.8731C40.5376 86.3633 40.8281 85.6351 41.1914 85.1254C41.8452 84.0331 43.0076 83.4506 44.2426 83.3049C45.4776 83.2321 46.64 83.7419 47.5118 84.7613C47.875 85.2711 48.093 85.7808 48.3109 86.1449C48.3836 86.4362 48.2383 86.5818 47.9477 86.5818C47.8024 86.5818 47.5118 86.6546 47.3665 86.3633C46.7853 85.4895 45.9135 84.8341 44.8964 84.8341C43.8794 84.8341 43.1529 85.2711 42.5717 85.9992C42.4264 86.1449 42.3538 86.4362 42.2811 86.5818C42.0632 87.0187 41.8452 87.4556 41.264 87.31C40.8281 87.3828 40.6102 87.1644 40.6102 86.8731Z" fill="#B98A44"/>
<path d="M41.0461 46.6042C40.9734 46.1673 41.0461 45.876 41.1187 45.3663C41.5546 43.7642 43.3708 42.9632 44.4605 43.0361C45.0417 43.1089 45.3323 43.3273 45.405 43.6914L45.4776 43.9827C45.405 44.5653 45.4776 45.075 45.1144 45.2934C44.9691 45.2934 44.8964 45.4391 44.8238 45.3663C44.6785 45.3663 44.5332 45.2934 44.4605 45.0022C44.3879 44.7109 44.3879 44.5653 44.3879 44.3468C43.5888 44.4196 43.0076 45.1478 42.6443 46.3129C42.6443 47.0411 42.3537 47.3324 41.9905 47.4052C41.6273 47.6236 41.1914 47.2596 41.0461 46.6042Z" fill="#B98A44"/>
<path d="M31.7471 75.5861C31.6744 75.2948 31.8197 75.1492 31.8924 74.8579C32.4009 74.3482 33.7812 73.62 34.4351 73.62C34.5804 73.62 34.7257 73.6928 34.871 73.8385L35.0163 73.9841C35.2342 74.3482 35.5248 74.7123 35.5974 75.0036C35.6701 75.2948 35.5248 75.4405 35.3795 75.4405C35.1616 75.5861 34.7983 75.3677 34.3624 74.9307C34.2171 75.0764 34.1445 75.0764 33.9992 75.2948H34.1445C34.653 75.222 35.0163 75.4405 35.0889 75.8774C35.1616 76.1687 35.0163 76.3143 34.871 76.4599C34.653 76.6056 34.3624 76.824 33.9265 76.7512C32.7642 76.8969 31.8197 76.2415 31.7471 75.5861Z" fill="#B98A44"/>
<path d="M25.6447 53.5219C25.572 53.085 25.79 52.7937 26.1532 52.5025C26.7344 51.9927 27.6788 51.7015 28.6959 51.9927C30.8753 49.881 30.8753 49.881 30.948 49.881C30.948 50.0266 30.73 50.1723 28.9138 51.9927H28.7685C29.0591 52.0656 29.3497 52.284 29.5677 52.5753C29.8583 52.7937 29.9309 53.085 29.9309 53.3763C30.0035 53.6676 29.8583 53.8132 29.713 53.8132C29.5677 53.9588 29.2771 53.886 29.1318 53.7404C28.4779 53.3035 27.3882 53.3035 26.9523 53.6676H26.807L26.5891 53.8132C26.3711 54.1045 25.79 54.1045 25.6447 53.8132C25.6447 53.886 25.6447 53.7404 25.6447 53.5219Z" fill="#B98A44"/>
<path d="M38.576 28.6178C38.6487 26.5061 39.8837 23.4477 42.4264 21.4088C45.3323 19.0057 47.6571 20.3165 49.8365 23.0108C49.8365 23.1564 49.9818 23.1564 49.9818 23.2292C49.9818 23.3749 49.9092 23.6662 49.7639 23.6662C49.6186 23.6662 49.328 23.739 49.1827 23.5933C48.093 22.6467 46.64 21.4816 45.405 21.5544C43.8794 21.6272 40.7555 24.3215 40.029 28.545C39.9564 28.9819 39.5931 29.2004 39.3025 29.0548C39.0119 29.1276 38.7213 28.8363 38.6487 28.4722L38.576 28.6178Z" fill="#B98A44"/>
<path d="M57.8278 23.2292C57.8278 21.3359 58.7722 19.6611 60.5884 18.7873C62.2593 17.9863 64.2208 18.2047 65.5285 19.4426C65.5285 19.5883 65.6738 19.5883 65.6738 19.6611C65.6738 19.8067 65.6011 19.9524 65.4558 20.098C65.3105 20.2437 65.2379 20.2437 65.0199 20.1708C62.2593 19.0785 60.2251 20.4621 59.5713 22.2826C59.2807 23.0108 59.2081 23.4477 59.2081 23.4477C59.1354 23.8846 58.7722 24.1031 58.4816 24.1031C58.191 23.8118 57.9004 23.739 57.8278 23.2292Z" fill="#B98A44"/>
<path d="M77.3702 19.9524C77.2975 19.297 78.0967 18.496 79.1864 18.1319C79.9855 17.8407 82.8914 17.4037 84.635 21.5544C84.7076 21.8457 84.5623 21.9913 84.4171 22.137C84.2718 22.137 83.9812 22.2098 83.8359 22.0642L83.5453 21.8457C82.7461 20.8991 81.4385 19.6611 80.0582 19.6611C79.477 19.5883 78.9684 19.8068 78.7505 20.1709L78.4599 20.2437C78.0967 20.6806 77.6608 20.6078 77.3702 20.3893C77.4428 20.3165 77.4428 20.2437 77.3702 19.9524Z" fill="#B98A44"/>
<path d="M97.4937 35.3172C97.4211 34.8075 97.9296 33.8608 98.7287 33.4967C99.7458 32.9142 100.836 33.0598 101.78 33.7152C102.434 34.2977 102.942 35.1716 103.16 36.2638C103.233 36.7736 103.16 37.3561 103.088 37.793C103.015 38.0843 102.87 38.0843 102.579 38.1571C102.288 38.23 102.143 37.9387 102.143 37.793L102.071 37.5018C101.853 36.191 101.199 35.1716 100.327 34.8803C99.7458 34.6618 99.2373 34.8803 98.874 35.39C98.6561 35.9726 98.2928 36.191 97.8569 36.1182C97.7116 35.8269 97.4937 35.6085 97.4937 35.3172Z" fill="#B98A44"/>
<path d="M63.7123 123.283C63.4944 122.045 64.1482 120.88 65.3833 120.515C66.6909 120.006 68.0712 120.807 68.5071 121.826C68.5798 122.117 68.4345 122.263 68.2892 122.409C68.1439 122.409 67.8533 122.482 67.708 122.336C67.1995 121.753 66.255 121.753 65.6012 122.263C65.4559 122.409 65.4559 122.409 65.5286 122.554C65.4559 122.846 65.4559 123.137 65.5286 123.355C65.6012 123.647 65.6012 123.792 65.7465 123.865C65.7465 123.865 65.7465 124.011 65.8918 124.011C66.0371 124.156 66.0371 124.229 66.1097 124.375C66.1824 124.666 66.0371 124.812 65.8918 124.957C65.7465 125.103 65.5286 125.176 65.238 125.176C64.8021 125.103 64.2935 124.521 64.0756 123.938C63.9303 123.647 63.785 123.574 63.7123 123.283Z" fill="#B98A44"/>
<path d="M48.9647 116.292C48.8194 115.345 49.6912 113.816 50.7809 113.015C51.8706 112.141 53.1057 111.996 54.1227 112.505C54.268 112.651 54.4133 112.724 54.486 112.869C54.486 113.015 54.5586 113.161 54.4133 113.161C54.268 113.306 54.268 113.306 54.1954 113.306C52.3065 113.598 50.9262 114.617 50.563 116.51C50.4177 116.656 50.345 116.802 50.1997 116.947C50.0544 117.093 49.8365 117.166 49.6912 117.02C49.1827 116.874 48.9647 116.583 48.9647 116.292Z" fill="#B98A44"/>
<path d="M84.9256 152.265C84.7077 150.663 86.2333 148.915 87.9768 147.968C88.776 147.604 89.793 147.167 90.0836 147.386L90.2289 147.531C90.5195 147.75 90.8828 147.968 90.8828 148.26C90.8828 148.405 90.9554 148.551 90.8101 148.551C90.5922 148.842 90.011 148.551 89.7204 148.478C87.323 149.934 86.2333 151.099 86.3786 152.046C86.4512 152.702 87.105 153.211 87.6862 153.648C87.9768 153.867 88.0495 154.012 88.0495 154.158C88.1221 154.449 87.9768 154.74 87.7589 154.886C87.5409 155.032 87.2503 155.105 87.1051 154.959C85.87 154.085 85.0709 153.211 84.9256 152.265Z" fill="#B98A44"/>
<path d="M102.506 163.115C102.361 162.314 102.652 161.44 103.378 160.784C103.596 160.639 103.741 160.42 103.959 160.275C104.105 157.508 104.105 157.508 104.25 157.508C104.25 157.508 104.25 157.508 104.25 157.653C104.323 157.944 104.25 158.454 104.25 160.275C104.904 159.911 105.558 159.911 105.994 160.129C106.139 160.275 106.284 160.348 106.357 160.493C106.429 160.784 106.284 160.93 105.994 160.93C105.049 161.076 104.25 162.022 104.25 162.823L104.177 163.406C104.105 163.843 103.887 164.134 103.451 164.061C102.942 163.988 102.579 163.624 102.506 163.115Z" fill="#B98A44"/>
<path d="M104.904 144.254C104.831 143.963 104.831 143.818 104.831 143.599C104.976 141.123 106.72 140.031 108.391 140.031C110.134 139.885 112.387 141.05 112.75 143.381C112.822 143.672 112.677 143.818 112.387 143.818C112.241 143.818 111.951 143.89 111.805 143.599C111.37 142.58 110.425 141.851 109.335 141.633C108.609 141.487 107.81 141.56 107.374 142.07C106.502 142.725 106.284 143.745 106.357 144.4C106.357 144.546 106.429 144.691 106.429 144.691C106.429 144.837 106.575 144.91 106.647 145.055C106.647 145.201 106.647 145.201 106.72 145.347C106.793 145.638 106.647 145.929 106.284 146.075C106.066 146.221 105.848 146.148 105.703 146.002C105.267 145.711 104.976 144.91 104.904 144.254Z" fill="#B98A44"/>
<path d="M118.416 154.886C118.416 154.74 118.344 154.595 118.344 154.376C118.489 153.357 119.288 152.41 120.451 151.973C121.904 151.464 123.574 151.609 124.664 152.701C124.664 152.847 124.809 152.847 124.809 152.92C124.809 153.066 124.737 153.211 124.591 153.357C124.446 153.502 124.374 153.502 124.156 153.43C122.993 152.92 121.758 152.993 120.886 153.502C120.378 153.721 120.015 154.158 119.942 154.449C119.942 154.595 119.942 154.595 119.942 154.595C120.087 154.74 120.233 154.813 120.305 155.104C120.305 155.25 120.233 155.541 120.087 155.687C119.942 155.833 119.869 155.978 119.433 155.906C119.433 155.906 119.143 155.978 119.143 155.833C118.852 155.906 118.562 155.396 118.416 154.886Z" fill="#B98A44"/>
<path d="M121.831 132.167C121.758 131.657 122.485 131.001 122.993 130.637C123.865 130.055 125.245 129.909 126.48 130.2C127.643 130.565 128.587 131.293 129.023 132.312C129.096 132.603 129.241 132.676 129.241 132.676C129.314 132.968 129.168 133.113 128.878 133.113C128.587 133.186 128.442 133.186 128.297 132.895C127.425 131.802 126.335 131.511 125.609 131.511C124.591 131.366 123.72 131.657 123.211 132.167C122.993 132.312 122.339 132.822 121.976 132.239C121.904 132.312 121.831 132.167 121.831 132.167Z" fill="#B98A44"/>
<path d="M116.6 69.4693C116.455 68.6683 117.181 67.0663 118.416 66.1925C119.651 65.3186 121.032 65.3915 122.412 66.1196C123.792 66.9935 124.083 68.2314 124.156 68.4499C124.228 68.9596 124.156 69.2509 123.865 69.3237C123.72 69.3237 123.429 69.3965 123.211 68.7411C122.775 67.8673 121.903 67.1391 120.886 67.0663C120.305 66.9935 119.288 67.2119 118.489 68.377C118.416 68.6683 118.271 68.8139 118.198 69.1052C117.98 69.6878 117.835 70.1247 117.254 69.9791C116.745 69.9791 116.6 69.7606 116.6 69.4693Z" fill="#B98A44"/>
<path d="M140.719 98.0144C140.647 97.359 141.446 96.4124 142.463 95.8298C143.117 95.4658 144.933 94.8832 146.459 96.6309C146.967 97.2134 147.04 97.6503 147.04 97.6503C147.112 97.9416 146.967 98.0872 146.822 98.2329C146.676 98.2329 146.386 98.3057 146.241 98.0144C145.877 97.359 145.151 97.0678 144.424 97.0678C143.698 97.0678 143.117 97.2862 142.463 97.6503C142.318 97.796 142.245 97.9416 142.1 98.0144C141.736 98.3785 141.373 98.8154 140.937 98.3057C140.937 98.3785 140.719 98.3057 140.719 98.0144Z" fill="#B98A44"/>
<path d="M154.377 133.769C154.305 133.259 154.305 132.531 154.886 131.875C155.612 131.074 156.484 130.783 157.646 131.074C158.881 131.293 160.044 132.385 160.48 133.55C160.552 133.841 160.407 133.987 160.262 134.133C160.116 134.133 159.826 134.205 159.681 134.06C158.518 132.749 157.501 132.603 157.138 132.531C156.702 132.603 156.484 132.603 156.266 132.968H156.121C156.048 133.259 155.903 133.55 155.975 133.696C156.048 133.987 156.193 134.06 156.339 134.205C156.484 134.351 156.629 134.424 156.702 134.715C156.702 134.861 156.629 135.152 156.629 135.298C156.411 135.589 156.121 135.662 155.83 135.589C155.031 135.371 154.523 134.57 154.377 133.769Z" fill="#B98A44"/>
<path d="M144.424 145.784C144.352 145.347 144.715 145.055 145.224 144.837C146.168 144.546 147.694 144.837 148.275 145.857V146.002C148.275 146.148 148.202 146.293 148.057 146.439C147.912 146.585 147.839 146.585 147.621 146.512C146.894 146.366 146.241 146.293 145.95 146.366C145.514 146.439 145.006 146.512 144.715 146.293C144.497 146.293 144.424 146.075 144.424 145.784Z" fill="#B98A44"/>
<path d="M103.378 179.499C103.233 178.552 104.831 177.096 105.848 176.659C106.647 176.295 108.609 175.712 109.335 176.149C109.481 176.295 109.481 176.368 109.553 176.513V176.659C109.553 176.805 109.335 176.95 109.19 177.023C107.446 177.46 106.066 178.334 104.686 180.081C104.541 180.227 104.468 180.227 104.177 180.3C104.032 180.3 103.741 180.227 103.596 180.081C103.451 179.863 103.451 179.79 103.378 179.499Z" fill="#B98A44"/>
<path d="M36.6145 137.264C36.3966 136.026 36.9778 134.424 38.3581 134.133C39.6657 133.769 40.8281 134.278 41.264 135.079V135.225C41.264 135.371 41.1914 135.516 41.0461 135.662C40.9008 135.807 40.6102 135.735 40.4649 135.589C40.029 135.225 39.1572 135.079 38.4307 135.735C38.4307 135.88 38.2854 135.88 38.2854 135.88C38.2854 135.88 38.1401 136.026 38.0675 136.317C37.9948 136.608 37.8495 136.9 37.9222 137.191C37.9222 137.191 37.9222 137.337 37.9948 137.482V137.628H38.1401C38.1401 137.774 38.1401 137.774 38.2128 137.919C38.2854 138.356 38.0675 138.647 37.7769 138.647C37.4863 138.72 37.2684 138.72 37.0504 138.647C36.9051 138.283 36.6872 137.774 36.6145 137.264Z" fill="#B98A44"/>
<path d="M22.7387 137.555C22.5934 136.754 23.0293 135.88 23.6105 135.225C24.1917 134.715 24.8455 134.497 25.572 134.642C25.7173 134.788 25.8626 134.861 25.9353 135.006C26.0079 135.298 25.8626 135.443 25.7173 135.443C24.7002 135.88 24.2643 136.754 24.337 137.41L24.4096 137.701C24.4096 137.846 24.4823 137.992 24.4823 137.992C24.4823 138.138 24.4823 138.138 24.5549 138.283C24.6276 138.575 24.6276 138.793 24.119 138.939C23.8285 139.012 23.6832 139.012 23.5379 138.866C23.2473 138.647 22.884 138.283 22.8114 137.846C22.9567 137.774 22.8114 137.701 22.7387 137.555Z" fill="#B98A44"/>
<path d="M30.6574 124.521C30.4395 123.21 31.3113 120.807 33.4181 120.224C35.0163 119.714 36.4693 120.151 37.1231 120.88C37.1231 121.025 37.2684 121.025 37.2684 121.098C37.2684 121.244 37.1958 121.389 37.0505 121.535C36.9052 121.681 36.8325 121.681 36.6146 121.608C35.4522 121.098 34.2172 121.317 33.3454 121.826C32.4736 122.409 32.1104 123.501 32.1104 124.666C32.183 125.103 31.8198 125.394 31.3839 125.467C31.0933 125.54 30.8027 125.176 30.6574 124.521Z" fill="#B98A44"/>
<path d="M51.5801 141.851C51.3622 140.395 51.9434 137.919 54.3408 137.41C56.0843 136.973 57.6826 137.846 58.2638 138.866V139.012C58.2638 139.157 58.1911 139.448 58.0458 139.448C57.9005 139.448 57.6099 139.521 57.4646 139.376C56.5202 138.575 55.4305 138.429 54.4134 139.012C53.3963 139.594 53.0331 140.614 53.1784 141.706C53.1784 141.851 53.251 141.997 53.251 142.143C53.251 142.288 53.251 142.288 53.251 142.288C53.3237 142.725 53.1057 143.017 52.8151 143.017C52.5246 143.089 52.3793 143.089 52.234 142.944C51.8707 142.871 51.7254 142.507 51.5801 141.851Z" fill="#B98A44"/>
<path d="M42.9349 130.055C42.8623 129.545 43.2982 128.744 43.8794 128.234C44.7511 127.579 45.6229 127.142 46.4947 127.433C46.64 127.579 46.7853 127.652 46.8579 127.797C46.9306 128.089 46.7853 128.234 46.4947 128.234C45.3323 128.671 44.5332 129.618 44.1699 130.273C43.8067 130.71 43.4435 130.929 43.0802 130.564C43.1529 130.419 42.9349 130.2 42.9349 130.055Z" fill="#B98A44"/>
<path d="M7.77319 121.389C7.6279 120.297 8.64497 118.258 9.22616 117.457C9.80734 116.802 11.8415 114.836 12.7133 114.981C12.8586 114.981 13.0039 115.054 13.0039 115.2C13.0765 115.491 12.9312 115.637 12.7859 115.637C11.0424 117.02 9.87999 118.986 9.37145 120.443C9.37145 120.588 9.29881 120.734 9.29881 120.88C9.08086 121.317 9.00821 121.899 8.64497 121.972C8.49968 121.972 8.35438 122.045 8.13644 122.045C7.99114 122.045 7.84584 121.826 7.77319 121.389Z" fill="#B98A44"/>
<path d="M14.7475 129.254C14.6749 128.744 14.7475 128.307 14.8201 127.725C15.256 126.123 16.709 124.156 18.5252 123.064C19.5423 122.482 20.5594 122.19 21.5764 122.482C21.867 122.554 22.0123 122.7 22.1576 122.7C22.3029 122.846 22.4482 122.918 22.5209 123.064C22.5209 123.21 22.4482 123.355 22.3029 123.501C22.1576 123.647 22.085 123.647 21.867 123.574C21.867 123.574 19.8329 122.773 17.5081 126.341C16.8543 127.288 16.6364 127.87 16.5637 128.307V128.453C16.5637 128.598 16.6364 128.89 16.6364 128.962C16.7816 129.763 17.2175 130.273 17.5081 130.346C17.944 130.564 18.162 130.783 18.162 130.929C18.162 131.074 18.2346 131.22 18.0893 131.365C18.0167 131.657 17.5808 131.875 17.2902 131.73C16.1278 131.802 14.9654 130.783 14.7475 129.254Z" fill="#B98A44"/>
<path d="M21.7217 115.564C21.5764 114.763 21.9397 113.598 23.2474 112.724C24.6277 111.85 25.79 112.214 26.0806 112.287C26.5165 112.505 26.7345 112.724 26.7345 112.869C26.7345 113.015 26.7345 113.015 26.6618 113.161C26.5165 113.306 26.4439 113.306 26.1533 113.234C24.4824 113.234 23.32 114.471 23.1747 115.345C23.1021 115.637 23.1021 115.782 22.9568 115.928C22.8115 116.074 22.5935 116.146 22.3029 116.146C22.0123 116.292 21.7944 116.074 21.7217 115.564Z" fill="#B98A44"/>
<path d="M34.5804 101.437C34.3625 100.199 34.6531 98.5241 36.1787 97.5047C37.559 96.6308 38.9393 96.7036 39.8111 97.2134C39.9564 97.359 39.9564 97.4318 40.029 97.5775C40.029 97.7231 40.1017 97.8688 39.9564 98.0144C39.8111 98.16 39.7384 98.16 39.5931 98.2328C38.3581 98.16 37.4137 98.4513 36.6146 99.398C36.1787 100.126 36.0334 100.854 36.106 101.655C36.1787 101.947 36.1787 102.092 36.324 102.311C36.3966 102.748 36.1787 103.039 35.8881 103.185C35.5975 103.257 35.4522 103.257 35.3069 103.112C34.871 102.602 34.6531 102.092 34.5804 101.437Z" fill="#B98A44"/>
<path d="M77.0795 134.861C76.8616 133.623 77.1522 131.802 78.3146 130.564C79.259 129.472 80.5666 128.962 82.1649 129.035C82.8914 129.035 83.5452 129.254 83.9085 129.472C84.0538 129.618 84.0538 129.691 84.1264 129.836C84.1264 129.982 84.0538 130.128 84.0538 130.273C83.9085 130.419 83.8358 130.419 83.6179 130.346C81.5111 129.982 79.4769 131.001 78.8957 132.822C78.6051 133.696 78.5325 134.278 78.6778 134.934C78.6778 135.079 78.7504 135.371 78.7504 135.443C78.8231 135.88 78.6051 136.172 78.1693 136.39C78.024 136.39 77.7334 136.463 77.5881 136.317C77.5154 136.026 77.1522 135.589 77.0795 134.861Z" fill="#B98A44"/>
<path d="M18.3799 68.377C18.3799 68.2314 18.3073 67.9401 18.4526 67.7945C18.8885 67.1391 20.1235 66.2653 20.9226 66.1925C21.2132 66.1196 21.3585 66.2653 21.5038 66.4109C22.0123 66.9207 22.2303 67.4304 22.3029 67.9401C22.3756 68.2314 22.3756 68.377 22.3029 68.6683C22.2303 69.1052 21.867 69.3965 21.5764 69.4693C21.4311 69.4693 21.2858 69.3965 21.1405 69.2509C21.1405 69.2509 21.1405 69.2509 21.1405 69.1052C21.1405 68.9596 21.0679 68.8139 21.0679 68.8139C21.0679 68.8139 21.0679 68.6683 20.9952 68.5227C20.9952 68.377 20.7773 68.1586 20.632 67.8673C20.2688 68.0858 19.9055 68.377 19.6149 68.4499C18.8158 68.8139 18.5979 69.0324 18.2346 68.5227C18.4526 68.6683 18.4526 68.5227 18.3799 68.377Z" fill="#B98A44"/>
<path d="M21.2858 36.1182C21.0678 34.8803 22.3755 32.2588 24.9182 31.8219C26.5165 31.6034 27.9694 32.186 28.6959 33.0598C28.6959 33.2054 28.8412 33.2054 28.8412 33.2783C28.8412 33.4239 28.7685 33.5695 28.6233 33.7152C28.478 33.8608 28.3327 33.788 28.1874 33.788C27.025 33.1326 25.7173 33.0598 24.7003 33.6424C23.6832 34.0793 23.0293 35.1716 22.8114 36.4095C22.7388 36.8464 22.3755 37.0649 21.9396 36.992C21.7217 36.7736 21.3584 36.4823 21.2858 36.1182Z" fill="#B98A44"/>
<path d="M130.912 74.1298C130.839 73.8385 130.912 73.4016 131.275 72.9647C131.711 72.2365 132.583 71.7996 133.454 71.7996C134.399 71.7996 135.198 72.2365 135.561 73.1103C135.707 73.3288 135.779 73.62 135.852 73.9113C135.925 74.2026 135.925 74.421 135.707 74.6395C135.561 74.7851 135.489 74.7851 135.271 74.7123C135.125 74.7123 134.98 74.6395 134.907 74.3482C134.689 73.8385 134.254 73.4744 133.527 73.4744C132.946 73.4016 132.437 73.7657 132.292 74.3482C132.074 74.7851 131.856 75.0764 131.42 75.0036C131.275 74.7851 130.984 74.5667 130.912 74.1298Z" fill="#B98A44"/>
<path d="M87.8315 173.892C87.6862 173.091 88.558 171.416 89.793 170.688C90.8101 170.105 91.8998 170.251 92.6989 170.906C93.1348 171.27 93.2074 171.634 93.2801 172.071V172.217H93.1348V172.071H92.9895V172.217L92.7716 172.363C92.5536 172.508 92.5536 172.508 92.5536 172.508C92.4083 172.363 92.4083 172.29 92.0451 171.999C91.6092 171.78 91.028 171.853 90.8101 172.071H90.6648C90.4468 172.217 89.9383 172.581 89.5024 173.382L89.4297 173.673C89.2118 174.11 88.9939 174.547 88.6306 174.62C88.4853 174.62 88.34 174.693 88.0494 174.547C87.9041 174.256 87.8315 174.183 87.8315 173.892Z" fill="#B98A44"/>
</g>
</g>
<defs>
<clipPath id="clip0_8_20">
<rect width="217" height="202" fill="white"/>
</clipPath>
</defs>
</svg>
