<svg
                class="price__contacts__socialButton__img"
                viewBox="0 0 56 56"
                fill="none"
                xmlns="http://www.w3.org/2000/svg"
              >
                <g clip-path="url(#clip0_5_457)">
                  <rect width="56" height="56" rx="28" fill="#F8F1E1" />
                  <g filter="url(#filter0_dd_5_457)">
                    <path
                      d="M32.2542 30.9767L36.235 32.9639C36.0463 33.9068 35.5363 34.7551 34.7921 35.364C34.0478 35.9729 33.1154 36.3047 32.1538 36.3028C28.85 36.2992 25.6825 34.985 23.3463 32.6485C21.0101 30.3121 19.696 27.1443 19.6923 23.8401C19.692 22.8796 20.0246 21.9488 20.6333 21.2059C21.242 20.463 22.0893 19.954 23.031 19.7655L25.0179 23.7466L23.3269 26.2634C23.2006 26.453 23.1229 26.6708 23.1009 26.8975C23.0788 27.1243 23.1131 27.353 23.2006 27.5633C24.1912 29.9181 26.0643 31.7913 28.4188 32.7821C28.6298 32.8735 28.8602 32.9109 29.0893 32.891C29.3183 32.871 29.5388 32.7943 29.7308 32.6679L32.2542 30.9767ZM46 27.9943C46.0007 31.1023 45.1968 34.1575 43.6665 36.8625C42.1363 39.5676 39.9318 41.8303 37.2678 43.4305C34.6037 45.0307 31.5707 45.9139 28.4641 45.994C25.3575 46.0741 22.283 45.3485 19.54 43.8878L13.6467 45.8524C13.1588 46.0151 12.6352 46.0387 12.1346 45.9206C11.634 45.8025 11.1762 45.5472 10.8125 45.1835C10.4488 44.8197 10.1936 44.3619 10.0755 43.8613C9.95732 43.3606 9.98093 42.837 10.1437 42.349L12.1081 36.4552C10.8241 34.0409 10.107 31.3658 10.0111 28.633C9.91519 25.9002 10.4431 23.1814 11.5547 20.6831C12.6663 18.1848 14.3324 15.9726 16.4265 14.2144C18.5207 12.4561 20.9878 11.1982 23.6407 10.5359C26.2935 9.87365 29.0623 9.82452 31.737 10.3922C34.4117 10.96 36.9219 12.1296 39.0771 13.8124C41.2323 15.4952 42.9758 17.6469 44.1753 20.1042C45.3749 22.5615 45.9989 25.2598 46 27.9943ZM39.0769 32.1486C39.0771 31.8913 39.0056 31.6391 38.8705 31.4202C38.7354 31.2013 38.542 31.0244 38.3119 30.9092L32.7735 28.1397C32.5555 28.0311 32.3126 27.9819 32.0695 27.9971C31.8264 28.0123 31.5916 28.0913 31.3888 28.2263L28.8463 29.9226C27.6792 29.2809 26.7187 28.3204 26.0771 27.1531L27.7733 24.6104C27.9082 24.4076 27.9873 24.1727 28.0025 23.9296C28.0177 23.6865 27.9684 23.4436 27.8598 23.2256L25.0906 17.6866C24.9758 17.4548 24.7984 17.2598 24.5784 17.1236C24.3585 16.9875 24.1048 16.9157 23.8462 16.9164C22.01 16.9164 20.2491 17.6458 18.9508 18.9443C17.6525 20.2427 16.9231 22.0038 16.9231 23.8401C16.9277 27.8785 18.5338 31.7502 21.3891 34.6058C24.2445 37.4615 28.1158 39.0677 32.1538 39.0723C33.063 39.0723 33.9632 38.8932 34.8032 38.5453C35.6431 38.1973 36.4063 37.6873 37.0492 37.0444C37.6921 36.4015 38.202 35.6382 38.5499 34.7982C38.8979 33.9582 39.0769 33.0578 39.0769 32.1486Z"
                      fill="#5DA65B"
                    />
                  </g>
                </g>
                <defs>
                  <filter
                    id="filter0_dd_5_457"
                    x="1.2"
                    y="4.2"
                    width="53.6"
                    height="53.6"
                    filterUnits="userSpaceOnUse"
                    color-interpolation-filters="sRGB"
                  >
                    <feFlood flood-opacity="0" result="BackgroundImageFix" />
                    <feColorMatrix
                      in="SourceAlpha"
                      type="matrix"
                      values="0 0 0 0 0 0 0 0 0 0 0 0 0 0 0 0 0 0 127 0"
                      result="hardAlpha"
                    />
                    <feOffset dy="3" />
                    <feGaussianBlur stdDeviation="4.4" />
                    <feComposite in2="hardAlpha" operator="out" />
                    <feColorMatrix type="matrix" values="0 0 0 0 0.36335 0 0 0 0 0.65 0 0 0 0 0.3575 0 0 0 0.2 0" />
                    <feBlend mode="normal" in2="BackgroundImageFix" result="effect1_dropShadow_5_457" />
                    <feColorMatrix
                      in="SourceAlpha"
                      type="matrix"
                      values="0 0 0 0 0 0 0 0 0 0 0 0 0 0 0 0 0 0 127 0"
                      result="hardAlpha"
                    />
                    <feOffset dy="3" />
                    <feGaussianBlur stdDeviation="4.4" />
                    <feComposite in2="hardAlpha" operator="out" />
                    <feColorMatrix type="matrix" values="0 0 0 0 0.36335 0 0 0 0 0.65 0 0 0 0 0.3575 0 0 0 0.3 0" />
                    <feBlend mode="normal" in2="effect1_dropShadow_5_457" result="effect2_dropShadow_5_457" />
                    <feBlend mode="normal" in="SourceGraphic" in2="effect2_dropShadow_5_457" result="shape" />
                  </filter>
                  <clipPath id="clip0_5_457">
                    <rect width="56" height="56" rx="28" fill="white" />
                  </clipPath>
                </defs>
              </svg>
              