<svg width="1024" height="1443" viewBox="0 0 1024 1443" fill="none" xmlns="http://www.w3.org/2000/svg">
<g clip-path="url(#clip0_554_2346)">
<path fill-rule="evenodd" clip-rule="evenodd" d="M566 7C465.003 7 364.946 15.2967 271.522 23.0434C197.979 29.1415 128.546 34.8988 66 36C41.3254 36.4344 17.1456 37.2915 -7.34045 38.1595C-121.144 42.1936 -241.561 46.4622 -449 9.61627V51H0V7348H1024V51H1471V30.3363C1452.63 18.9671 1344.52 13.5 1271.5 13.5C1235.66 13.5 1188.86 21.5096 1139.09 30.0247C1101.26 36.4983 1061.72 43.264 1024 47.0245V47H920.103C891.702 43.9331 861.137 38.8457 827.878 33.3098C755.266 21.2236 669.812 7 566 7Z" fill="#F8F1E1"/>
<path fill-rule="evenodd" clip-rule="evenodd" d="M0 684.309C50.5383 664.57 96.6819 648.858 135 640C217.836 620.851 285.858 577.629 357.592 532.049C452.56 471.707 554.034 407.23 705 389C851.468 371.313 890.761 210.098 918.699 46.8469C919.167 46.8985 919.635 46.9495 920.103 47H1024V47.0245C1061.72 43.264 1101.26 36.4983 1139.09 30.0247C1188.86 21.5096 1235.66 13.5 1271.5 13.5C1298.48 13.5 1330.24 14.2461 1360.5 15.7603V39.4887C1357.84 41.9338 1353.6 45.7402 1347.63 51H1024V672.174C1006.2 810.396 981.105 917.475 895.5 889.489C513.273 764.531 398.135 864.253 255.759 987.566C194.196 1040.89 127.541 1098.62 32 1144.5C22.701 1148.97 11.9662 1153.21 0 1157.24V684.309Z" fill="#FFEACA"/>
</g>
<defs>
<clipPath id="clip0_554_2346">
<rect width="1024" height="1443" fill="white"/>
</clipPath>
</defs>
</svg>
