<svg width="1920" height="1913" viewBox="0 0 1920 1913" fill="none" xmlns="http://www.w3.org/2000/svg">
  <path d="M-246.25 267.053C-421.978 390.424 -485.97 140.422 -496 0V1165.25C-470.172 1222.67 -384.064 1327.89 -246.25 1289.38C-73.9819 1241.23 74.9656 1099.81 247.233 1337.52C419.501 1575.23 697.085 1099.05 768.55 1425.53C840.014 1752.02 1210.41 1363.39 1496.74 1425.53C1770.56 1484.96 1957.87 1448.39 2023.32 1680.09C2075.68 1865.44 2316.95 1827.74 2416 1913V1484.96C2398.2 1490.98 2340.02 1460.29 2249.75 1289.38C2136.91 1075.73 2273.07 986.214 1893.18 998.25C1513.29 1010.29 1637.41 968.16 1423.77 695.089C1210.13 422.018 1186.05 623.624 603.805 540.123C21.5552 456.622 289.36 469.411 128.376 267.053C56.7914 177.07 -26.5895 112.839 -246.25 267.053Z" fill="#FFEACA" />
</svg>