<svg width="150" height="132" viewBox="0 0 150 132" fill="none" xmlns="http://www.w3.org/2000/svg">
<path d="M30.3629 59.0218C30.7679 59.0068 31.1729 58.7942 31.5648 58.9003C33.9686 59.4471 36.3854 60.0701 38.8284 60.6472C39.5731 60.8295 40.3961 60.8753 41.4151 61.073C35.876 55.1329 35.5495 49.2844 35.8238 45.5479C36.2288 45.7302 36.66 45.8666 36.9735 46.1097C41.5851 49.619 44.1324 54.5562 44.4459 60.9211C44.4851 62.1362 44.9685 62.7742 45.8179 63.1691C46.8104 63.6098 47.8033 64.0501 48.7834 64.4151C52.7154 65.9494 56.6347 67.4076 60.8151 69.0026C60.5931 68.5016 60.4888 68.0913 60.2928 67.7417C58.9081 64.6277 57.3665 61.5894 56.1385 58.3993C54.858 55.103 53.3689 51.9736 51.4222 49.148C50.782 48.1913 50.1423 47.4313 48.9402 47.7506C48.5223 47.8875 48.104 47.8263 47.6862 47.7655C46.3925 47.7506 44.9817 45.8666 45.2041 44.3935C45.2433 44.0285 45.7136 43.6032 46.0398 43.5275C46.5625 43.406 47.1375 43.5883 47.7645 43.6794C47.307 42.7985 46.8892 41.9474 46.5105 41.1272C46.1838 40.4135 46.1706 39.5475 46.7192 39.183C47.1503 38.9245 47.9737 38.9703 48.4048 39.3045C49.0577 39.7452 49.502 40.55 50.0899 41.2034C50.4034 40.6566 50.5993 40.0186 51.0176 39.6845C51.4619 39.3045 52.1408 39.1068 52.6899 39.1372C53.4081 39.168 53.7088 39.9275 53.7088 40.7173C53.7608 42.4035 53.4213 43.9832 52.4676 45.3507C52.0625 45.9582 51.6314 46.6111 51.1479 47.3556C51.3963 47.8113 51.6314 48.3885 51.9449 48.8292C54.427 52.2017 55.8117 56.3032 57.4709 60.2224C58.6857 63.1392 60.2404 65.8583 61.5993 68.6231C62.383 70.2182 63.8722 70.5828 65.087 71.3268C66.9033 72.4055 68.8887 73.0892 70.7178 74.0464C71.9066 74.6385 73.0303 75.4437 74.1927 76.0817C78.2295 78.224 82.3315 80.3505 86.3948 82.4471C87.4396 82.9939 88.4982 83.6169 89.6346 84.1029C86.9302 80.4267 85.3235 76.0214 83.2333 71.768C81.6261 71.7068 80.0194 71.646 78.4647 71.6918C75.4864 71.7526 73.1479 70.0056 70.8226 68.1371C69.3594 66.9369 68.0922 65.4937 67.3079 63.5037C66.6682 61.9544 65.9364 60.4654 65.0742 58.6124C68.4316 58.3843 71.3188 59.3718 74.0884 60.8608C76.8972 62.3797 79.2881 64.6282 81.535 67.2257C80.7248 64.6889 79.8759 62.1218 79.0657 59.5845L79.0005 59.5999C79.6932 59.6756 79.8107 60.3594 80.0194 60.9823C81.8617 65.7676 83.586 70.659 85.637 75.2769C86.9694 78.2848 88.8117 81.095 90.6011 83.7991C91.4245 85.0297 92.561 86.1079 93.9717 86.6093C94.9906 87.0043 95.9708 87.7637 96.9764 88.2806C97.5383 88.5844 98.2045 88.7059 99.145 89.0401C95.3697 81.5053 92.4174 74.2137 94.7427 65.2208C95.7748 66.0868 96.6894 66.664 97.3032 67.4688C100.569 71.6465 103.208 76.3252 104.345 81.9461C104.593 83.1916 104.815 84.4829 104.933 85.7588C105.102 88.3259 105.207 90.9086 105.35 93.9165C112 98.4129 118.872 103.016 126.057 107.862C125.051 105.765 124.124 104.125 123.418 102.393C122.007 98.7321 120.779 94.9498 119.342 91.3343C118.571 89.42 117.513 87.6123 116.716 85.9415C114.927 86.0023 113.45 86.1083 111.987 86.0934C111.073 86.1083 110.485 85.455 110.25 84.4829C109.858 82.7967 110.432 81.9914 111.948 82.1134C112.432 82.1587 112.889 82.2499 113.268 82.2802C112.706 81.1866 112.144 80.093 111.621 79.0293C111.19 78.103 111.425 77.2977 112.157 76.8117C112.823 76.3406 113.49 76.6598 114.025 77.2066C114.352 77.5258 114.561 77.9511 114.914 78.4217C115.737 77.6777 116.037 76.0672 117.448 76.371C119.721 79.3181 118.598 82.0676 116.913 84.7109C117.748 86.4121 118.598 87.9923 119.264 89.6934C120.923 93.8104 122.386 97.9726 124.045 102.089C125.652 106.099 127.925 109.442 131.688 111.568C131.309 110.551 131.034 109.746 130.76 108.941C129.911 106.373 128.84 103.897 128.291 101.299C127.416 97.0005 128.004 92.7168 129.363 88.5694C129.846 87.0351 130.499 85.5012 131.165 84.0426C131.388 83.5566 131.949 82.8728 132.289 82.8728C132.668 82.9032 133.06 83.6024 133.413 84.073C133.543 84.2403 133.582 84.4679 133.648 84.6502C134.288 87.5824 135.124 90.4683 135.568 93.4458C136.273 98.14 135.737 102.728 134.523 107.315C134.065 109.001 133.726 110.779 133.269 112.662C139.382 116.217 144.712 120.941 149.768 126.243C149.481 126.152 149.141 126.152 148.971 125.955C146.516 123.722 144.151 121.427 141.669 119.24C140.231 117.994 138.664 116.977 137.161 115.943C135.202 114.622 133.099 114.637 131.021 115.397C128.017 116.49 125.051 117.812 122.085 118.936C120.622 119.513 119.133 119.938 117.591 120.258C116.481 120.516 115.814 121.184 115.436 122.339C114.952 123.873 114.404 125.422 113.816 126.941C113.528 127.64 113.215 128.384 112.771 128.962C111.83 130.207 110.236 129.828 109.923 128.202C109.687 127.032 109.753 125.832 109.674 124.587C107.858 124.101 107.362 123.584 107.349 121.928C107.31 120.318 108.459 119.893 109.531 119.407C109.413 118.723 109.165 118.07 109.152 117.402C109.165 116.49 109.021 115.457 110.027 114.986C110.942 114.576 111.882 114.515 112.666 115.32C113.973 116.596 115.383 117.888 115.984 119.999C118.271 119.27 120.531 118.784 122.686 117.888C126.305 116.415 129.741 114.47 133.935 113.969C126.41 108.53 119.042 103.806 110.145 102.241C110.72 110.125 109.217 117.189 104.253 122.885C101.731 125.802 100.164 126.956 98.2824 127.275C97.773 124.116 98.4656 121.032 98.9618 117.994C99.4713 114.834 100.425 111.69 102.045 109.062C103.652 106.555 105.742 104.489 107.767 102.043C106.944 101.998 106.213 101.891 105.468 101.907C102.385 101.952 99.4977 102.94 96.5713 103.896C94.9646 104.428 93.3707 105.036 91.7508 105.294C87.8839 105.917 84.9444 108.18 82.5275 111.507C80.6592 114.074 79.1568 116.991 78.1375 120.151C77.7329 121.351 78.0464 121.989 79.1436 122.444C79.8358 122.718 80.5936 122.976 81.2078 123.386C81.7041 123.705 82.2399 124.252 82.4486 124.875C82.6186 125.467 82.5926 126.303 82.3575 126.91C82.0832 127.685 81.3646 127.655 80.7244 127.488C80.3717 127.412 80.045 127.29 79.5747 127.123C79.6007 128.065 79.7182 128.946 79.5879 129.766C79.4963 130.419 79.2348 131.27 78.8301 131.483C78.0851 131.893 77.5497 131.149 77.2754 130.344C76.8967 129.326 76.57 128.217 76.2041 127.078C75.8646 127.275 75.4727 127.564 75.0284 127.746C74.0487 128.171 73.147 127.868 72.6767 127.108C72.154 126.242 72.1673 124.935 72.8467 124.146C73.722 123.113 74.5582 122.049 75.8906 121.898C76.5568 121.821 77.1054 121.457 77.3146 120.697C78.765 115.897 80.9595 111.674 84.2517 108.302C84.3957 108.15 84.4741 108.013 84.7876 107.664C84.0558 107.755 83.5464 107.755 83.0237 107.876C79.8363 108.697 76.6875 109.745 73.4477 110.459C69.6724 111.218 65.9359 112.403 62.0691 111.841C59.5214 111.446 57.4572 112.084 56.0332 114.666C55.8505 114.985 55.6545 115.228 55.4322 115.517C53.6295 117.872 52.1272 117.628 50.7943 114.818C51.6177 113.284 51.6829 113.269 53.486 111.902C53.0677 111.248 52.519 111.415 51.9836 111.461C50.7424 111.552 50.0106 110.853 49.5275 109.623C49.2268 108.863 48.8481 108.043 49.4884 107.42C49.9586 106.995 50.69 106.706 51.3434 106.752C52.062 106.782 52.741 107.177 53.5644 107.42C53.4076 106.311 53.2244 105.248 53.0285 104.109C53.5771 103.942 53.9303 103.82 54.2565 103.744C55.7197 103.364 56.0856 103.516 56.6607 104.883C57.4572 106.752 58.1234 108.651 58.9336 110.793C62.5001 111.188 66.1843 111.476 70.2079 110.185C67.0596 108.666 64.2116 107.314 62.1083 104.565C59.9657 101.784 58.816 98.4578 58.1366 94.7054C58.6333 94.6296 58.9992 94.3866 59.1951 94.5385C64.1465 97.2576 68.366 101.055 71.1876 106.6C71.697 107.588 72.011 109.015 72.7291 109.441C73.4477 109.866 74.5974 109.243 75.5379 108.985C78.4123 108.317 81.2602 107.694 84.0822 106.919C87.0345 106.114 89.9217 105.127 92.848 104.17C93.0048 104.094 93.1488 103.942 93.5015 103.623C89.5166 101.983 87.2305 98.5643 85.2711 94.6754C85.1271 94.4324 85.2319 94.0529 85.2451 93.3388C86.7602 94.0529 88.1582 94.4782 89.3471 95.2681C91.7248 96.8482 93.7494 98.9443 95.069 101.876C95.67 103.198 95.84 103.198 97.1072 102.864C99.3801 102.256 101.679 101.405 103.992 101.223C106.814 101.041 109.649 101.33 112.47 101.74C114.6 102.074 116.651 102.94 118.833 103.578C118.323 103.183 117.918 102.803 117.461 102.514C114.077 100.221 110.759 97.9114 107.375 95.6176C105.599 94.3721 103.757 93.1416 101.98 91.8961C101.209 91.3642 100.138 91.0604 100.164 89.6327C100.177 89.5112 99.8116 89.3588 99.4193 89.055C99.4065 89.5719 99.3933 89.8907 99.3801 90.0122C98.3745 89.8907 97.3556 89.693 96.3626 89.6476C92.5345 89.5107 88.8376 90.3309 85.2579 91.6376C83.6903 92.1994 82.2007 93.2173 80.764 94.1441C79.6011 94.8881 79.4968 96.4528 79.3792 97.7441C79.2876 98.9896 78.765 99.7037 77.9944 100.357C76.4524 101.663 75.3424 101.132 74.9633 98.9289C74.8849 98.4732 74.8197 98.0932 74.7933 97.7441C73.9576 97.2277 73.1998 96.7715 72.5072 96.3009C71.9586 95.8756 71.7102 95.2223 71.841 94.402C72.011 93.6122 72.4028 93.1257 73.1347 93.0346C73.6309 92.9588 74.1011 92.9285 74.5322 92.8677C74.5714 92.5032 74.637 92.2905 74.5978 92.2602C74.0752 91.5918 73.213 91.1207 73.892 89.936C74.4411 88.9788 75.7475 88.4774 76.688 89.0092C78.0728 89.7537 78.9349 91.2119 79.6663 92.7009C79.7319 92.8831 79.8627 93.05 80.0194 93.3692C85.0619 89.9056 90.6275 88.8882 96.7805 88.5236C95.6573 87.9156 94.8995 87.4599 94.1157 87.0501C93.2923 86.6093 92.4562 86.0929 91.6072 85.698C90.7059 85.1965 89.7914 84.817 88.89 84.3156C85.1667 82.4167 81.4042 80.4874 77.7069 78.5428C76.0218 77.6314 74.3887 76.6285 72.7296 75.6718C71.188 74.8058 71.0837 74.9881 70.0256 76.5374C69.1238 77.8137 68.0917 78.9223 67.0596 80.0313C66.5766 80.5781 66.0015 80.9885 65.4789 81.5049C63.2452 83.7225 60.7759 85.1657 57.8236 85.576C57.0266 85.6821 56.2164 85.9102 55.4194 86.0163C54.5573 86.1378 53.6951 86.0621 53.0417 85.2264C55.485 81.0642 58.8032 78.2385 62.8269 76.5528C65.0478 75.641 67.282 75.003 69.7513 74.1524C69.2546 73.8337 68.9019 73.5603 68.536 73.4079C65.1262 71.7521 61.6776 70.0659 58.2154 68.5012C56.3736 67.666 54.4529 66.9668 52.5847 66.3747C52.0101 66.1924 51.2782 66.4808 50.612 66.557C49.5672 72.1321 47.4374 76.9323 43.7924 80.4258C40.1476 83.9197 35.7842 85.8032 30.7676 85.469C30.245 84.2081 31.1203 82.978 31.6168 81.9143C34.1774 76.4612 37.5872 71.7974 42.3295 68.7591C43.9496 67.7113 45.7523 67.1342 47.477 66.2985C48.0124 66.0555 48.5351 65.7363 49.0705 65.4933C49.0445 65.3414 49.0837 65.1745 49.0577 65.0226C48.2867 64.6885 47.503 64.2781 46.6536 64.0804C43.884 63.3817 41.4674 61.574 38.6586 61.0422C36.8296 60.6776 35.1835 60.7842 33.4199 61.3917C29.8272 62.6223 26.5481 64.688 23.2298 66.5261C22.9555 66.7084 22.668 66.8145 22.3414 66.8907C19.9115 67.3767 18.6835 69.3209 17.8212 71.8124C17.1288 73.7113 16.3449 74.2884 14.8817 74.0758C14.0848 73.9847 13.6798 73.4075 13.4447 72.6326C13.2879 71.9185 13.4708 71.402 14.0065 70.9618C14.4245 70.6276 14.8164 70.1411 15.339 69.6247C14.1241 69.4728 13.1312 69.4275 12.2036 69.169C11.8117 69.0629 11.3283 68.6222 11.1193 68.1969C10.6229 67.2856 10.9103 66.7841 11.8248 66.5715C13.0398 66.3284 14.2286 66.1307 15.6134 65.8877C15.0908 65.2194 14.712 64.7941 14.3593 64.323C13.889 63.7612 13.6016 63.0775 13.9935 62.3938C14.4508 61.6951 15.1432 61.5735 15.8486 61.9231C17.0766 62.5461 18.0564 63.5028 18.788 64.7941C19.1407 65.4624 19.4935 66.1312 19.9376 66.936C24.6276 65.3717 28.5731 62.0446 33.1586 60.0701C32.2572 59.7663 31.3035 59.3559 30.3629 59.0218ZM49.3453 42.4035C48.7575 40.1705 48.5743 39.8971 47.1767 40.064C47.3727 41.0057 47.3203 42.0843 48.6135 41.9021C48.7834 41.9021 49.0058 42.2058 49.1753 42.4035C49.3061 42.9653 49.3977 43.4971 49.5544 44.0136C49.8023 43.6794 49.8287 43.4364 49.7631 43.2541C49.6456 42.9653 49.4628 42.6919 49.3453 42.4035ZM104.958 107.041C105.455 106.373 105.951 105.705 106.448 105.036C106.369 104.976 106.291 104.915 106.252 104.884C105.834 105.613 105.39 106.388 104.972 107.117C103.378 107.725 102.555 109.259 101.915 110.869C101.209 112.692 100.582 114.576 100.06 116.475C99.5628 118.328 99.145 120.242 99.5369 122.323C101.013 117.082 102.568 111.902 104.958 107.041ZM95.9056 72.1783C95.7224 72.1021 95.5137 72.0718 95.3697 72.0264C95.2002 71.4338 95.0694 70.8716 94.8995 70.2795C94.2984 77.8441 97.7083 86.807 102.725 90.8931C100.125 87.0346 98.322 83.0701 96.9245 78.8924C96.5194 77.7226 96.467 76.4317 96.2451 75.1404C96.3886 75.3834 96.5586 75.5807 96.637 75.8391C97.4731 79.5154 98.8971 82.8574 100.53 86.0322C101.196 87.3389 101.614 88.9793 103.156 89.4504C103.287 89.2223 103.417 88.9943 103.548 88.7667C103.509 88.3414 103.535 87.9007 103.43 87.4908C102.085 82.827 100.713 78.2091 98.7144 73.8949C97.9042 72.1479 97.0161 70.5374 96.1407 68.8059C96.1143 68.8512 96.0232 68.912 95.9967 68.9578C96.2191 70.2491 96.4542 71.6161 96.6761 72.9074C96.4018 72.6948 96.1535 72.4363 95.9056 72.1783ZM133.138 106.768C133.269 106.935 133.438 107.133 133.647 107.361C135.803 100.935 135.842 94.646 133.582 88.4175C133.556 90.043 133.53 91.6685 133.504 93.2939C133.334 91.5166 133.099 89.7547 132.929 87.9773C132.838 87.4454 132.746 86.9136 132.72 86.3668C132.589 86.3972 132.485 86.3822 132.315 86.3822C132.237 87.309 132.185 88.1899 132.106 89.1162C131.923 88.2507 131.74 87.3847 131.492 86.1392C131.244 87.0655 130.982 87.7188 130.93 88.4026C130.564 91.0151 130.264 93.6131 129.963 96.2107C129.859 95.8004 129.689 95.4055 129.728 95.0409C129.78 93.765 129.898 92.4737 129.964 90.8786C128.33 94.2207 128.552 100.844 130.29 104.231C130.225 103.457 130.029 102.712 129.937 101.983C129.741 100.054 129.127 98.0638 129.911 96.1042C130.081 98.0792 130.186 100.069 130.486 102.013C130.734 103.654 131.139 105.219 131.596 107.285C131.923 106.616 132.053 106.388 132.145 106.13C132.249 106.343 132.419 106.54 132.498 106.799C132.811 107.832 132.955 106.89 133.138 106.768ZM107.911 107.026C108.251 108.211 107.65 109.062 107.271 110.019C106.735 111.447 106.134 112.89 105.494 114.303C104.645 116.277 103.73 118.267 102.803 120.181C102.176 121.472 101.392 122.642 100.687 123.873C102.045 122.49 103.129 120.895 104.175 119.27C104.579 118.662 104.893 117.918 105.337 117.341C107.872 114.303 108.29 110.414 108.695 106.251C108.329 106.692 108.094 106.905 107.898 107.148C107.911 106.434 107.924 105.72 107.963 104.763C106.448 106.023 105.494 107.391 104.749 108.985C102.764 113.239 101.366 117.751 100.19 122.369C100.125 122.581 100.125 122.779 100.059 122.992C101.496 121.077 102.777 119.239 103.717 117.204C105.272 113.801 106.552 110.383 107.911 107.026ZM48.7046 69.0938C44.7853 75.3372 39.8472 80.0005 34.4517 84.3754C41.0883 83.2668 47.5814 76.9776 48.7046 69.0938ZM47.5157 69.8836C43.2309 71.8278 34.1904 80.8814 33.4849 83.8893C34.321 83.4182 35.1571 83.1448 35.8757 82.5831C36.5942 82.0208 37.1298 81.1852 37.8092 80.5931C40.7879 77.9651 43.5573 75.1091 46.0266 71.8886C46.4709 71.3114 46.876 70.7038 47.5157 69.8836ZM40.801 71.3268C40.6834 71.2357 40.5658 71.1445 40.4744 71.0076C37.966 73.4075 35.5361 75.8686 34.112 79.4382C34.9351 78.4965 35.732 77.6001 36.7902 76.4458C36.0978 78.5423 34.3211 79.2714 33.8638 81.1548C36.0325 78.9522 38.0836 76.6584 40.2784 74.6076C42.3033 72.7546 44.4983 71.0987 46.6144 69.3821C47.1503 68.9419 47.6073 68.4404 48.1168 68.0455C43.5969 69.0176 40.5005 72.5419 37.4434 76.0966C37.352 75.9597 37.2606 75.8232 37.1691 75.6863C38.371 74.1823 39.586 72.7546 40.801 71.3268ZM67.4779 60.3439C69.477 64.2632 77.4458 69.5195 80.2418 68.9877C76.035 66.056 72.2857 62.6228 67.4779 60.3439ZM104.044 86.9131C104.214 80.7912 100.413 71.13 96.7937 69.0489C100.099 74.8366 102.15 80.837 104.044 86.9131ZM59.9005 97.6525C61.8991 102.954 65.5573 105.461 69.3065 107.907C66.9288 103.759 63.7022 100.6 59.9005 97.6525ZM81.7961 69.5345C78.3476 63.7014 71.5147 59.3265 68.0006 59.8275C72.8212 62.3797 77.1587 65.8737 81.7961 69.5345ZM79.8759 70.4159C75.604 68.8816 71.8547 66.2382 68.1181 62.6835C69.7248 67.4837 75.9826 71.4792 79.8759 70.4159ZM59.2079 96.1944C60.5927 97.3338 62.0299 98.3816 63.3363 99.6579C64.6687 100.888 65.8967 102.301 67.1248 103.714C68.2744 105.066 69.3065 106.524 70.4298 107.922C68.9147 103.061 63.2187 96.9996 59.2079 96.1944ZM55.8113 84.7404C60.2532 84.8923 63.5587 82.1882 66.8769 78.7704C63.0228 80.8515 59.417 82.7962 55.8113 84.7404ZM54.4525 110.61C53.8255 110.124 53.3944 109.79 52.6106 109.182C54.1782 109.213 54.9883 110.762 56.4775 110.337C56.0596 109.881 55.8245 109.501 55.5238 109.334C54.4789 108.787 53.4076 108.286 52.3363 107.785C52.114 107.678 51.8529 107.542 51.6437 107.511C50.9775 107.39 50.2721 107.238 49.8802 108.119C49.6059 108.696 50.1021 109.805 50.8208 110.23C51.1602 110.428 51.5261 110.58 51.8661 110.58C52.6234 110.641 53.3944 110.58 54.4525 110.61ZM112.98 123.463C110.929 124.374 110.341 125.498 110.72 127.306C110.837 127.792 111.19 128.461 111.543 128.536C111.895 128.612 112.496 128.156 112.666 127.761C113.346 126.182 113.842 124.526 114.417 122.931C114.339 122.87 114.195 122.825 114.116 122.764C113.607 123.751 113.123 124.693 112.614 125.68C112.496 125.589 112.418 125.528 112.3 125.437C112.47 124.845 112.653 124.329 112.98 123.463ZM42.7868 59.964C41.2845 56.1662 39.9651 52.247 37.5221 49.1022C38.319 53.3406 40.3047 56.7888 42.7868 59.964ZM55.4586 83.0845C55.5502 83.221 55.6026 83.3276 55.6678 83.5098C56.7782 82.6593 57.8363 81.7021 58.9992 80.9581C60.214 80.1224 61.5336 79.4995 62.7617 78.74C63.8722 78.0871 65.0478 77.4183 66.1583 76.7654C61.9779 77.5398 58.4506 79.7425 55.4586 83.0845ZM38.5673 49.0568C40.1611 52.3989 41.7548 55.7409 43.3486 59.083C42.9698 54.9053 41.376 51.5632 38.5673 49.0568ZM55.2494 112.479C55.1579 112.342 55.0667 112.205 54.9751 112.069C54.0998 112.707 53.2112 113.269 52.3363 113.907C51.8529 114.256 51.5002 114.773 51.8004 115.532C52.1272 116.246 52.7018 116.231 53.2244 116.109C53.7079 115.957 54.1782 115.73 54.5176 115.334C55.3018 114.362 56.0072 113.329 56.7518 112.327C55.9024 112.722 55.3146 113.451 54.6744 114.074C54.5049 114.271 54.113 114.165 53.5903 114.287C54.2957 113.451 54.7532 112.95 55.2494 112.479ZM113.763 119.528C112.954 118.571 111.817 118.48 112.104 116.991C112.888 117.599 113.516 118.085 114.182 118.602C113.633 117.584 113.006 116.703 112.3 115.958C111.726 115.381 110.51 115.624 110.119 116.307C109.766 117.022 110.093 117.933 110.916 118.374C111.699 118.784 112.523 119.027 113.763 119.528ZM112.731 120.637C111.255 120.151 110.223 119.878 109.139 120.485C108.525 120.865 108.107 121.397 108.381 122.202C108.577 122.946 109.126 123.372 109.844 123.204C110.367 123.083 110.916 122.916 111.451 122.673C111.582 122.642 111.634 122.354 111.699 122.141C111.281 122.08 110.902 122.05 110.524 122.02C110.498 121.868 110.471 121.716 110.484 121.594C111.059 121.382 111.726 121.108 112.731 120.637ZM72.5336 94.4778C72.5204 95.9817 73.3566 96.3009 74.1144 96.3617C75.0157 96.4678 76.0346 96.4678 76.714 95.0858C75.9694 95.2984 75.4208 95.4653 74.7022 95.6326C74.8981 94.0071 76.1913 94.8124 76.7924 93.9613C75.2116 93.6575 73.866 93.536 72.5336 94.4778ZM51.2527 45.1983C52.2848 43.6948 53.5648 42.2516 52.6243 40.1401C51.7098 39.9579 51.4227 40.4589 51.096 41.3249C50.5733 42.6311 51.8014 43.8467 51.2527 45.1983ZM74.2966 123.888C74.1531 124.039 73.9963 124.115 73.8528 124.267C73.0294 125.209 72.8726 126.075 73.4085 126.622C73.9047 127.138 74.9893 126.925 75.5247 126.09C76.0605 125.255 76.3608 124.237 76.7527 123.356C76.6351 123.265 76.5176 123.173 76.3608 123.052C75.9689 123.538 75.5771 124.024 75.146 124.48C74.519 125.179 74.4534 124.404 74.2966 123.888ZM55.2103 108.104C55.1579 107.208 55.1451 106.737 55.0927 106.235C55.1579 106.22 55.2235 106.205 55.2886 106.19C55.8373 107.208 56.3859 108.225 56.8953 109.213C57.0129 109.106 57.1701 109.03 57.2877 108.924C56.7518 107.588 56.2424 106.205 55.6154 104.929C55.2367 104.109 54.283 103.896 53.943 104.489C53.7079 104.898 53.7731 105.673 53.9298 106.19C54.1782 106.843 54.6616 107.283 55.2103 108.104ZM117.2 79.2728C117.174 80.5029 117.135 81.2628 117.121 82.1741C118.193 80.3056 118.193 79.5158 117.095 77.48C115.619 78.5736 115.541 78.9078 116.338 80.7763C116.573 80.3664 116.756 80.0472 117.2 79.2728ZM107.597 114.88C106.043 117.295 104.527 119.741 102.999 122.111C104.919 120.044 107.075 118.161 107.597 114.88ZM77.3278 99.0504C77.1842 99.005 77.0799 98.9896 76.9623 98.8985C77.0926 98.2755 77.1842 97.6226 77.315 96.8024C76.7791 97.2426 76.3089 97.4707 76.1653 97.8198C75.9822 98.3362 75.8386 99.0807 76.0213 99.5518C76.3221 100.311 76.9491 100.008 77.4453 99.7341C78.6734 98.9746 78.6606 97.7137 78.3863 96.3159C78.0336 97.2277 77.6809 98.139 77.3278 99.0504ZM58.8424 81.6264C58.8684 81.7783 58.8948 81.9302 58.9208 82.0821C60.6323 81.7629 64.1073 79.6513 65.3613 78.0567C62.9968 79.3172 60.9199 80.4716 58.8424 81.6264ZM14.2416 72.3288C15.5741 73.9543 16.3057 73.6655 17.3117 71.2198C16.8544 71.5236 16.4887 71.7666 15.7178 72.2223C16.162 71.2502 16.3711 70.6884 16.7238 69.9743C15.8877 70.6426 15.2606 71.1441 14.6335 71.6451C14.4899 71.797 14.4245 72.0096 14.2416 72.3288ZM36.9081 50.2719C37.0126 53.6444 38.2537 56.3181 39.952 57.3057C38.9983 55.118 38.0447 52.9303 36.9081 50.2719ZM14.9079 66.921C13.8628 67.1641 12.883 67.3917 11.8379 67.6347C13.0006 68.8652 14.1894 68.668 15.4043 68.6222C15.5611 67.9539 14.0587 68.1058 14.9079 66.921ZM77.4321 126.318C77.1186 128.84 77.2362 129.128 78.5558 130.283C79.823 128.369 77.8632 127.639 77.4321 126.318ZM77.3282 90.9539C76.061 89.7079 76.061 89.7079 74.6762 90.5436C75.1073 92.0625 76.1394 92.5336 77.5501 92.6401C76.9623 91.9867 76.5048 91.5007 76.0738 90.9688C76.1262 90.8777 76.1786 90.7866 76.2305 90.6954C76.5832 90.7716 76.9363 90.8473 77.3282 90.9539ZM78.8301 123.781C80.0317 124.647 79.9666 126.637 81.6517 126.364C81.6649 124.662 80.9335 123.963 78.8301 123.781ZM114.77 80.5487C114.509 78.8321 113.842 77.9207 112.653 77.3281C112.013 78.9382 112.967 79.7434 113.738 80.6702C113.66 80.2145 113.516 79.7738 113.437 79.3181C113.529 79.2574 113.62 79.1966 113.712 79.1359C113.986 79.5457 114.261 79.9561 114.77 80.5487ZM111.112 82.9789C111.112 85.1512 111.687 85.5312 113.607 84.8474C113.28 84.5287 112.679 84.1945 112.575 83.7842C112.444 82.6298 111.844 82.8878 111.112 82.9789ZM14.5944 62.9256C14.9864 64.6118 16.0837 65.0675 17.0897 65.5839C16.2666 64.7488 16.7109 62.3942 14.5944 62.9256ZM62.1342 102.939C63.2971 105.157 64.6163 106.312 66.1451 106.707C65.5964 106.084 65.0214 105.309 64.3684 104.671C63.7282 104.109 62.9964 103.608 62.1342 102.939ZM88.8112 98.4732C89.1639 100.129 90.0784 100.509 91.1105 100.782C90.4444 100.068 89.7517 99.3999 88.8112 98.4732ZM89.5038 97.3646C89.4255 97.5011 89.3079 97.6076 89.2295 97.7441C90.0133 98.5494 90.797 99.3546 91.5416 100.129C91.62 99.9925 91.7116 99.9318 91.79 99.7949C91.0062 98.9901 90.2224 98.1848 89.5038 97.3646ZM46.1446 45.5175C46.876 45.4264 47.4638 45.2895 48.0256 45.1983C48.0389 45.0768 48.0913 44.9857 48.078 44.91C47.477 44.773 46.85 44.6819 46.249 44.5454C46.2358 44.8642 46.1838 45.153 46.1446 45.5175Z" fill="#B98A44"/>
<path d="M79.1182 59.4939C78.4128 57.9596 77.5374 56.6225 76.3486 55.6354C73.7225 53.4024 71.0313 51.1843 68.4841 48.8144C66.3807 46.8547 64.0946 45.4115 61.5734 44.181C60.8024 44.6367 59.9662 45.1078 59.13 45.5789C58.2027 46.1102 57.1834 46.1102 56.2561 45.6546C54.9629 45.047 54.8581 44.2418 55.8902 43.1327C56.0342 42.9808 56.1909 42.9051 56.3996 42.7378C55.9558 41.3404 54.3359 40.4136 55.1324 38.5302C56.4652 37.9834 57.4582 39.0162 58.5686 39.5481C58.6206 38.8644 58.5946 38.3176 58.6338 37.7553C58.7773 36.4187 59.2608 35.8719 60.0838 35.9172C60.9072 35.963 61.6645 36.8136 61.7169 37.9072C61.7821 39.2747 61.9128 40.6268 61.8085 41.9938C61.7821 43.0266 62.0564 43.6342 62.8406 44.0445C67.7263 46.779 71.9067 50.7436 76.257 54.511C76.6489 54.8152 77.0016 55.0886 77.7074 55.6354C76.8845 52.2326 76.1002 49.2551 74.7938 46.5968C72.7301 42.2976 70.4699 38.0441 68.2882 33.8515C66.2896 29.9322 63.7027 26.5447 61.0247 23.2178C59.5091 21.319 59.2348 21.3038 57.3798 22.5646C53.5649 25.2685 49.698 24.7064 45.8312 22.7619C44.9426 22.3365 44.0285 21.9567 42.8133 21.4098C43.2967 20.863 43.5843 20.3617 43.9237 20.1642C44.9034 19.7389 45.8963 19.3895 46.8893 19.0401C49.4237 18.1743 51.9322 18.7364 54.4143 19.1466C55.2504 19.2681 56.1258 19.42 56.9619 19.5416C57.0403 19.4049 57.1187 19.2682 57.1579 19.101C56.5177 18.539 55.7858 18.0377 55.2896 17.3237C53.5781 14.878 51.0436 13.9665 48.8231 12.5081C46.6806 11.1105 44.6164 10.3661 42.3954 12.6599C41.4417 13.6321 39.9263 13.3131 38.6329 12.7054C37.3657 12.0522 37.2351 10.8977 38.3325 9.97109C38.7244 9.68245 39.247 9.56094 39.9132 9.28749C38.1365 8.2393 36.4774 7.28225 35.7197 5.24668C36.8563 3.36305 36.8563 3.36305 42.1081 5.06451C42.0819 4.32015 41.9905 3.59098 41.9775 2.92257C41.9513 1.38833 42.4609 0.4009 43.3099 0.203442C44.1985 0.0363625 45.4393 1.13012 45.7009 2.45171C46.0927 4.13793 46.1447 5.8241 45.8312 7.55584C45.4261 9.7433 45.4261 9.7433 47.2032 10.7915C48.9407 11.8093 50.8217 12.6752 52.4808 13.8298C53.918 14.878 55.3028 16.2148 56.5568 17.5819C58.8954 20.1188 61.1815 22.7469 63.4676 25.375C63.5592 25.5117 63.7683 25.5421 64.121 25.8155C63.7419 23.8103 63.3241 21.9722 63.1149 20.1645C62.7103 17.2174 62.3311 14.2249 62.1616 11.2627C62.07 9.74358 61.5214 9.12074 60.3717 8.75615C59.7967 8.57384 59.1961 8.23963 58.7386 7.75353C58.3075 7.22182 57.8765 6.49265 57.7849 5.76353C57.537 3.92542 58.791 2.92285 60.215 3.69758C60.5937 3.92547 60.9463 4.19892 61.2863 4.39638C61.6782 3.31786 62.0049 2.25448 62.4883 1.31267C62.9322 0.340472 63.7164 0.553165 64.4478 0.856994C65.1923 1.23677 65.1796 1.9507 65.1012 2.67987C64.9704 3.50017 64.8137 4.36604 64.6305 5.27753C66.0025 5.15602 67.2433 4.47241 68.4062 5.30795C68.6805 8.48284 66.1852 10.5639 62.8406 9.68283C62.8278 10.3968 62.7495 11.126 62.8014 11.8247C63.0238 17.2631 63.8987 22.5495 65.5186 27.6232C65.6753 28.1397 65.9629 28.6258 66.2504 29.1119C67.9095 32.0438 69.5946 34.9302 71.3845 38.0292C71.0058 33.4566 70.6923 29.0664 72.1031 24.8282C73.5271 20.666 75.6172 17.0202 78.7527 13.9213C80.7253 18.8735 80.5554 23.8106 79.6408 28.7628C78.6871 33.8819 75.6564 37.3913 72.5861 40.8698C75.2773 45.4573 76.5969 50.5613 78.2296 55.5139C78.5171 56.3949 78.8963 57.2151 79.1833 58.0961C79.5492 58.6433 79.8236 59.2509 79.1182 59.4939ZM60.4889 38.8644C61.1291 38.4391 61.0639 37.8619 60.6328 37.33C60.4237 37.1024 60.0186 37.1174 59.6919 36.9959C59.5483 37.5427 59.444 38.1199 59.3132 38.5452C59.8486 38.697 60.2013 38.7732 60.5148 38.819C60.6848 39.6089 60.0318 40.5506 60.8283 41.4315C60.9591 39.6238 60.9591 39.6238 60.4889 38.8644ZM78.5828 22.018C78.1909 23.0966 77.799 24.1751 77.4463 25.284C76.9628 27.0158 76.5842 28.7627 76.1399 30.5249C76.2834 30.5704 76.3618 30.6312 76.5058 30.6767C76.7669 30.221 77.028 29.7653 77.2896 29.3096C77.198 29.9628 77.1847 30.6768 76.9104 31.254C76.0875 32.9858 75.147 34.6264 74.2848 36.3275C74.0497 36.7379 73.9713 37.2697 73.7358 38.0745C78.8047 33.5781 80.4378 24.7068 79.1318 19.2837C79.0403 20.1344 78.8311 21.0914 78.5828 22.018ZM78.3741 16.8531C78.1909 16.7772 78.0341 16.6556 77.8514 16.5797C77.3547 17.8405 76.7541 19.0862 76.2966 20.3774C75.147 23.37 74.0105 26.4385 73.697 29.7501C73.4747 31.816 73.2136 33.8515 72.9912 35.9177C72.926 36.3275 72.9652 36.7528 73.0044 37.1786C75.8 30.7223 77.773 24.0232 78.3741 16.8531ZM75.9572 19.5875C72.5733 24.2054 71.4888 29.5526 72.299 35.4466C73.3963 30.1754 73.3703 24.494 75.9572 19.5875ZM43.4667 9.01413C43.571 8.83187 43.6758 8.64955 43.8194 8.49766C42.4216 6.49242 40.7102 5.03408 38.4109 4.69988C37.9537 4.60869 37.4573 5.0796 36.9869 5.30749C37.2482 5.83915 37.3396 6.56832 37.7316 6.87215C39.0249 7.87477 40.4489 8.6495 42.2909 9.09008C41.5463 8.31534 41.0106 7.76844 40.5142 7.25197C40.5926 7.11522 40.6449 7.02408 40.7233 6.88738C41.6247 7.58617 42.5261 8.28497 43.4667 9.01413ZM43.5191 1.22125C42.2648 3.21121 42.4739 4.22901 45.0214 7.58622C45.139 6.29501 45.4133 5.12531 45.3217 4.00118C45.1782 2.77072 45.0082 1.38838 43.5191 1.22125ZM55.8515 21.3797C51.7363 20.3618 46.4974 20.3162 45.1126 21.1516C48.8099 21.3188 52.3373 22.2759 55.8515 21.3797ZM47.1116 22.1087C47.0984 22.2302 47.0592 22.3973 47.0068 22.4884C49.7372 23.3543 52.5068 24.2507 55.6291 22.6557C52.6116 22.4885 49.8548 22.2606 47.1116 22.1087ZM67.596 6.12826C65.6498 5.86995 65.6498 5.86995 64.6305 7.05484C64.892 7.19154 65.1399 7.25234 65.545 7.43461C64.9048 7.85995 64.3826 8.17897 63.7424 8.60431C64.8264 9.37905 65.7018 8.93851 66.4728 8.4828C67.2173 8.07264 67.7792 7.38909 67.596 6.12826ZM58.9478 5.41414C60.4893 5.68759 60.4369 7.55608 61.495 7.78396C61.6782 5.49013 60.6985 4.33562 58.8954 4.71535C58.7778 6.79648 58.817 6.82691 60.3066 7.38895C59.9275 6.76615 59.5356 6.26482 58.9478 5.41414ZM62.6711 3.56093C62.9454 3.57612 63.2589 3.62169 63.5072 3.68244C63.3765 4.50275 63.2457 5.12559 63.1545 5.77877C63.2589 5.79396 63.4024 5.83957 63.5072 5.85476C63.9251 4.53312 64.944 3.34828 64.317 1.6773C62.9454 1.99627 62.9454 1.99627 62.6711 3.56093ZM55.6159 39.5631C56.0993 40.9908 56.7655 41.9026 58.3203 41.8568C57.3666 41.0516 57.6801 38.9251 55.6159 39.5631ZM38.4108 11.6117C38.9987 11.87 39.5082 12.0674 39.8348 12.189C40.3182 11.4446 40.6709 10.9281 41.1021 10.2749C40.1092 10.4268 39.1294 10.0622 38.4108 11.6117ZM40.8016 11.8851C42.121 12.2498 42.2778 12.1738 43.2577 10.3661C42.2778 10.9889 41.5985 11.3839 40.8016 11.8851ZM56.0342 44.561C56.7264 44.8344 57.2622 44.9863 57.8109 45.2143C57.3798 44.6825 57.2358 43.057 56.0342 44.561ZM48.0262 19.5262C48.0129 19.6478 48.0389 19.7997 48.0262 19.9212C48.6659 19.8909 49.241 19.8757 49.8812 19.8453C49.8812 19.6478 49.8548 19.4959 49.8548 19.2984C49.2934 19.3895 48.6659 19.4959 48.0262 19.5262Z" fill="#B98A44"/>
<path d="M30.35 58.9462C29.9319 59.8725 29.1872 59.6902 28.5471 59.5234C24.1445 58.4143 19.6635 57.6395 15.4308 55.7406C14.3987 55.2695 13.2883 55.133 12.204 54.7531C11.6291 54.5708 11.0543 54.3885 10.5187 54.039C9.7218 53.5529 9.01633 53.7959 8.38923 54.2974C6.97833 55.3756 5.47592 55.9224 3.82985 56.029C2.99373 56.1047 2.09232 55.9986 1.26928 55.7556C0.263352 55.4364 0.0543388 54.4184 0.851258 53.7198C1.73962 52.9603 2.79783 52.3985 3.80378 51.7298C3.15057 51.2895 2.39288 50.8338 1.71353 50.2412C1.11258 49.7094 0.302617 49.1476 0.681488 47.9928C0.968909 47.0968 2.05324 46.4893 3.04609 46.7323C3.68626 46.8992 4.30024 47.3095 4.84896 47.7348C5.24084 48.0386 5.55439 48.4793 5.9855 49.0107C5.82875 47.7044 5.59362 46.5346 5.63281 45.3803C5.64589 44.8638 5.92025 44.0889 6.31218 43.8006C6.97846 43.3295 7.68389 43.6791 7.97129 44.56C8.36321 45.6537 8.72898 46.7931 8.96415 47.9629C9.1862 49.0565 9.29074 50.2566 9.31684 51.3961C9.36907 52.6869 10.0615 53.3557 11.0282 53.644C14.7253 54.7989 18.3833 55.9229 22.1065 57.0319C23.5436 57.4876 25.0068 57.8979 26.4307 58.2774C26.7835 58.3536 27.1493 58.3078 27.6065 58.2017C24.3274 55.7256 21.4664 52.7177 19.6898 48.7074C17.9523 44.7274 17.469 37.9675 18.697 35.6279C19.3111 36.2355 19.912 36.7673 20.5521 37.3291C25.5164 42.0994 27.8026 48.4793 28.9391 55.4826C29.1481 56.895 29.7882 57.8521 30.35 58.9462ZM23.1256 50.1202C24.5365 52.0036 25.5686 54.2521 27.3322 55.8168C25.9736 52.2621 24.4451 48.9046 22.9036 45.4719C22.2373 43.9679 21.545 42.5093 20.8526 41.0511C23.8181 44.8638 25.3335 49.7253 27.6196 54.3278C27.8026 49.4668 23.0735 39.7449 20.0296 38.2409C20.33 39.1976 20.6043 40.2005 20.8656 41.1268C20.526 40.7319 20.1602 40.3828 19.7029 39.8968C19.8205 40.7777 19.8597 41.4002 19.9381 42.0536C19.6507 41.5676 19.3632 41.0815 18.8537 40.2917C19.2064 46.0944 20.5912 50.7885 24.7586 54.2825C24.1446 52.6874 23.6482 51.3806 23.1256 50.1202ZM3.98669 50.4235C3.77767 48.8134 4.94037 50.044 5.14939 49.4818C3.80383 47.188 2.87626 46.9295 1.59597 48.5704C2.30142 49.7094 2.30142 49.7094 3.98669 50.4235ZM8.06269 49.041C8.68979 46.7627 8.01047 44.9853 6.28602 44.6358C6.39051 46.0336 6.11614 47.4006 6.99145 48.7373C7.18743 48.297 7.33111 47.9474 7.52709 47.5072C7.68385 47.8259 7.81449 47.9932 7.84064 48.1451C7.91902 48.4031 7.9974 48.6616 8.06269 49.041ZM4.28711 53.158C2.66719 53.416 2.66719 53.416 1.7788 54.768C3.46408 55.2845 5.77639 55.1022 5.6458 54.3427C5.22772 54.282 4.78353 54.267 4.33938 54.2516C4.30019 53.8263 4.27404 53.4767 4.28711 53.158Z" fill="#B98A44"/>
</svg>
