<svg width="170" height="154" viewBox="0 0 170 154" fill="none" xmlns="http://www.w3.org/2000/svg">
<g clip-path="url(#clip0_313_40)">
<mask id="mask0_313_40" style="mask-type:luminance" maskUnits="userSpaceOnUse" x="-3" y="-1" width="172" height="181">
<path d="M151.688 179.376L168.852 16.2339L14.5417 -0.00149375L-2.62291 163.141L151.688 179.376Z" fill="white"/>
</mask>
<g mask="url(#mask0_313_40)">
<path d="M93.5769 41.1543C93.5493 41.5587 93.7185 41.9837 93.5719 42.3623C92.7766 44.6957 91.9042 47.0341 91.0745 49.4033C90.8153 50.1248 90.6837 50.9385 90.3804 51.9313C96.8675 47.0441 102.718 47.3313 106.405 47.9951C106.182 48.3788 106.001 48.7933 105.726 49.0797C101.754 53.2988 96.5772 55.3155 90.2144 54.9613C89.0018 54.8731 88.3168 55.2872 87.8352 56.0905C87.293 57.0314 86.7513 57.9728 86.2857 58.9094C84.3484 62.6593 82.4882 66.4045 80.4644 70.395C80.9859 70.2267 81.4049 70.1659 81.7731 70.0076C85.0149 68.9562 88.1978 67.741 91.4989 66.8535C94.9111 65.925 98.1791 64.7715 101.193 63.1312C102.211 62.5946 103.034 62.0379 102.842 60.809C102.75 60.3791 102.855 59.9695 102.959 59.5603C103.109 58.2753 105.13 57.0694 106.572 57.4447C106.931 57.5219 107.305 58.034 107.346 58.3664C107.412 58.8989 107.17 59.4518 107.014 60.0658C107.938 59.703 108.828 59.3765 109.684 59.0857C110.428 58.8355 111.29 58.9129 111.595 59.4967C111.807 59.9524 111.676 60.7665 111.298 61.1603C110.791 61.7636 109.945 62.1212 109.233 62.6374C109.744 63.0064 110.358 63.268 110.647 63.719C110.978 64.2006 111.104 64.8965 111.016 65.4394C110.91 66.1504 110.124 66.37 109.338 66.2874C107.656 66.1626 106.12 65.6597 104.86 64.5681C104.298 64.1017 103.694 63.6047 103.004 63.0459C102.525 63.2452 101.926 63.4187 101.455 63.6844C97.8416 65.7999 93.6177 66.7479 89.5464 67.9879C86.5185 68.8908 83.6517 70.1525 80.7598 71.2146C79.0914 71.8272 78.5731 73.27 77.706 74.4003C76.4432 76.0938 75.5555 77.9967 74.4122 79.7156C73.6989 80.836 72.7805 81.8692 72.0245 82.9585C69.4715 86.749 66.9275 90.606 64.4173 94.4275C63.7641 95.4094 63.0338 96.397 62.4315 97.4763C66.3705 95.1714 70.9198 94.0345 75.3685 92.4008C75.5976 90.8089 75.8261 89.2174 75.9432 87.6663C76.1945 84.698 78.1765 82.5552 80.2781 80.4381C81.6248 79.1086 83.1926 77.9993 85.2538 77.4276C86.8615 76.9535 88.4189 76.3815 90.352 75.718C90.2275 79.0808 88.9433 81.8488 87.1727 84.4474C85.3682 87.0818 82.8819 89.2243 80.0635 91.1871C82.6712 90.6468 85.3131 90.0712 87.9212 89.5309L87.9127 89.4645C87.7649 90.1454 87.0726 90.1908 86.4312 90.3331C81.4795 91.6646 76.4346 92.8676 71.6274 94.4242C68.4966 95.4345 65.509 96.9726 62.6325 98.4693C61.3225 99.1594 60.1314 100.177 59.485 101.527C58.9857 102.499 58.1278 103.395 57.5085 104.341C57.1476 104.868 56.9571 105.518 56.5263 106.418C64.4147 103.452 71.9753 101.279 80.6755 104.532C79.7062 105.468 79.0365 106.317 78.1719 106.843C73.6754 109.654 68.7463 111.789 63.0373 112.331C61.7727 112.448 60.4652 112.534 59.1841 112.517C56.6132 112.417 54.0338 112.251 51.0274 112.079C45.8599 118.222 40.5631 124.574 34.9919 131.213C37.1822 130.432 38.9107 129.681 40.707 129.161C44.4953 128.14 48.3853 127.315 52.1313 126.264C54.1158 125.698 56.0243 124.835 57.7693 124.217C57.8961 122.431 57.9451 120.952 58.1131 119.498C58.1939 118.587 58.9052 118.071 59.8966 117.939C61.6145 117.725 62.3552 118.381 62.0754 119.875C61.9797 120.352 61.8412 120.797 61.7713 121.17C62.9177 120.726 64.0641 120.282 65.1767 119.873C66.143 119.541 66.9192 119.86 67.3261 120.638C67.7249 121.35 67.3377 121.979 66.7378 122.455C66.3862 122.746 65.9414 122.909 65.4364 123.211C66.0903 124.107 67.6605 124.575 67.2107 125.946C64.0419 127.899 61.4251 126.493 58.9726 124.541C57.1933 125.194 55.533 125.873 53.7714 126.358C49.5035 127.577 45.211 128.597 40.9435 129.816C36.787 130.994 33.2254 132.906 30.7165 136.425C31.7684 136.154 32.5975 135.966 33.427 135.777C36.069 135.202 38.6435 134.395 41.2847 134.121C45.6514 133.701 49.8502 134.734 53.8326 136.519C55.3079 137.16 56.765 137.97 58.1459 138.785C58.606 139.057 59.2272 139.688 59.1917 140.025C59.1219 140.399 58.3855 140.716 57.8805 141.017C57.7005 141.129 57.4701 141.144 57.2819 141.191C54.2989 141.52 51.3413 142.05 48.3336 142.18C43.5915 142.39 39.0852 141.377 34.6499 139.689C33.0208 139.058 31.2887 138.534 29.4634 137.883C25.2885 143.591 20.0323 148.397 14.2307 152.87C14.3513 152.594 14.3869 152.256 14.6008 152.108C17.0786 149.899 19.6077 147.788 22.0426 145.548C23.4321 144.249 24.608 142.797 25.7928 141.411C27.3123 139.6 27.517 137.507 26.9791 135.361C26.2059 132.259 25.2018 129.171 24.3942 126.104C23.9733 124.589 23.7062 123.063 23.5501 121.496C23.4097 120.365 22.8148 119.633 21.7059 119.135C20.2306 118.494 18.7472 117.786 17.2981 117.042C16.6334 116.683 15.9257 116.294 15.3982 115.791C14.258 114.726 14.8022 113.18 16.4515 113.039C17.6395 112.927 18.8262 113.118 20.0731 113.17C20.7465 111.415 21.312 110.975 22.9601 111.136C24.5659 111.265 24.8686 112.453 25.2399 113.569C25.9317 113.524 26.6074 113.345 27.2734 113.402C28.1784 113.51 29.2211 113.476 29.5839 114.526C29.8963 115.478 29.8583 116.42 28.9754 117.115C27.5699 118.281 26.138 119.549 23.9752 119.926C24.4611 122.275 24.708 124.574 25.3739 126.812C26.4603 130.564 28.0347 134.185 28.0942 138.408C34.2903 131.494 39.7599 124.66 42.2469 115.976C34.3462 115.723 27.4781 113.489 22.3327 107.956C19.6957 105.144 18.7117 103.464 18.5912 101.559C21.7869 101.383 24.7811 102.395 27.7508 103.206C30.8399 104.043 33.8673 105.321 36.3112 107.207C38.6358 109.068 40.4719 111.362 42.6923 113.632C42.8235 112.819 43.006 112.102 43.0686 111.36C43.3461 108.289 42.6661 105.314 42.0209 102.304C41.6601 100.65 41.2226 99.0016 41.1351 97.3635C40.9206 93.4528 38.9772 90.2925 35.9217 87.5408C33.5641 85.4142 30.8205 83.6149 27.7847 82.2705C26.6335 81.7425 25.9663 81.9875 25.3983 83.0311C25.0539 83.6908 24.7176 84.4174 24.2457 84.9854C23.8764 85.4455 23.2765 85.9212 22.6351 86.0636C22.0284 86.1707 21.2001 86.0574 20.6204 85.76C19.8785 85.4061 19.9839 84.6946 20.2173 84.0754C20.3295 83.7326 20.4845 83.4204 20.7001 82.9702C19.7609 82.8975 18.872 82.9222 18.0699 82.7068C17.4302 82.5474 16.6112 82.1982 16.442 81.7735C16.1124 80.9897 16.9083 80.5351 17.7379 80.3465C18.7898 80.0765 19.9269 79.8676 21.0979 79.6229C20.9373 79.2646 20.6911 78.8447 20.5563 78.3837C20.2358 77.3649 20.6323 76.4999 21.4373 76.1117C22.3527 75.6825 23.6509 75.8324 24.3653 76.5907C25.3009 77.5693 26.2708 78.5121 26.2825 79.8531C26.2885 80.5236 26.5936 81.1074 27.327 81.3948C31.9491 83.3396 35.9194 85.9639 38.9288 89.591C39.0648 89.7501 39.1923 89.8423 39.5072 90.1906C39.4931 89.4533 39.5464 88.9467 39.4803 88.4142C38.9981 85.1584 38.285 81.9173 37.9143 78.6206C37.554 74.7866 36.7663 70.9465 37.73 67.1597C38.3894 64.6674 37.9709 62.5477 35.5519 60.8614C35.2536 60.6463 35.0324 60.426 34.7689 60.1747C32.6155 58.1355 33.0148 56.6669 35.9491 55.6354C37.3888 56.6148 37.3969 56.6812 38.5677 58.6174C39.2613 58.2698 39.1527 57.7067 39.1632 57.1694C39.2024 55.9254 39.9739 55.2707 41.2482 54.9191C42.035 54.6995 42.8908 54.4088 43.4429 55.1106C43.8166 55.6228 44.0273 56.3804 43.9134 57.0254C43.808 57.7369 43.3442 58.3708 43.0164 59.1643C44.1357 59.1244 45.2123 59.0535 46.366 58.9779C46.4745 59.5409 46.5584 59.9049 46.6 60.2373C46.8248 61.7322 46.635 62.0802 45.2153 62.509C43.2737 63.1057 41.3155 63.5695 39.1006 64.1511C38.3347 67.6568 37.662 71.2905 38.5252 75.4271C40.3652 72.4551 42.0078 69.7642 44.9623 67.96C47.9515 66.1201 51.3802 65.3249 55.1831 65.0418C55.2064 65.5437 55.4098 65.933 55.2382 66.112C52.016 70.7517 47.7976 74.5507 41.9881 76.7766C40.9527 77.1799 39.4999 77.3427 39.0013 78.0124C38.5032 78.6825 39.0024 79.8911 39.1606 80.8534C39.5249 83.782 39.8461 86.6795 40.3214 89.567C40.8129 92.5873 41.4929 95.562 42.1386 98.5724C42.1975 98.7362 42.3334 98.8953 42.614 99.2795C44.6624 95.4881 48.301 93.5722 52.3736 92.0305C52.6303 91.9127 52.9968 92.0567 53.7056 92.1445C52.8369 93.5766 52.2676 94.9224 51.3577 96.0221C49.5375 98.2214 47.2411 100.016 44.1874 101.021C42.81 101.481 42.7923 101.65 42.992 102.945C43.3584 105.269 43.9637 107.645 43.903 109.964C43.789 112.789 43.2052 115.578 42.5023 118.341C41.9467 120.424 40.8713 122.374 40.0081 124.476C40.4546 124.011 40.8744 123.648 41.2095 123.223C43.8447 120.099 46.4884 117.04 49.1237 113.915C50.5483 112.278 51.9648 110.575 53.3893 108.939C53.9989 108.228 54.4132 107.194 55.8303 107.37C55.9498 107.395 56.1396 107.048 56.4828 106.689C55.97 106.622 55.6544 106.576 55.535 106.55C55.761 105.563 56.0643 104.57 56.2132 103.587C56.75 99.7945 56.3211 96.0321 55.3961 92.3352C55.0014 90.7175 54.145 89.1296 53.3737 87.6038C52.7554 86.3694 51.2102 86.1019 49.9383 85.8499C48.7092 85.6285 48.0537 85.034 47.485 84.1993C46.3468 82.5291 46.9919 81.4808 49.2221 81.3342C49.6835 81.3039 50.0681 81.2789 50.4181 81.2891C51.0192 80.5121 51.5521 79.8062 52.0926 79.1666C52.573 78.6655 53.2487 78.4868 54.0507 78.7027C54.8185 78.9544 55.2613 79.395 55.2754 80.1324C55.2987 80.6338 55.2797 81.1047 55.2951 81.5397C55.6535 81.6168 55.8581 81.7043 55.8924 81.6685C56.6118 81.2187 57.1705 80.4106 58.2777 81.2098C59.1721 81.856 59.5341 83.2077 58.9068 84.0874C58.0215 85.3867 56.4811 86.0915 54.9238 86.6631C54.7357 86.7093 54.556 86.8219 54.2222 86.9443C57.1391 92.3216 57.5686 97.9631 57.2873 104.12C58.0096 103.067 58.542 102.361 59.0317 101.624C59.5561 100.852 60.1572 100.074 60.6388 99.2712C61.2318 98.4273 61.7049 97.5575 62.2979 96.7136C64.576 93.2094 66.8883 89.6694 69.2092 86.1959C70.2918 84.6154 71.4602 83.0962 72.5852 81.5463C73.6077 80.1038 73.4374 79.9809 72.0073 78.7666C70.8323 77.7362 69.8378 76.5938 68.8429 75.4513C68.3496 74.9137 68.0017 74.2989 67.5428 73.725C65.5711 71.2715 64.3942 68.6648 64.295 65.6857C64.2729 64.882 64.1309 64.0524 64.1088 63.2487C64.0781 62.3786 64.2436 61.5291 65.143 60.9667C69.0268 63.8322 71.4897 67.4278 72.7452 71.6057C73.4196 73.9099 73.8203 76.1986 74.4079 78.7433C74.7768 78.2827 75.0856 77.9605 75.2754 77.6126C77.279 74.3948 79.3168 71.1416 81.2352 67.8621C82.2585 66.1178 83.1548 64.2808 83.9391 62.4847C84.1805 61.9324 83.9703 61.1744 83.9643 60.5039C78.5291 58.8814 73.9781 56.261 70.8852 52.2705C67.7918 48.2802 66.3752 43.7436 67.2325 38.7895C68.5411 38.4017 69.6729 39.4009 70.6788 40.006C75.8341 43.1232 80.1154 47.0022 82.6408 52.0364C83.5133 53.7573 83.8987 55.6104 84.5493 57.4131C84.735 57.971 84.9978 58.5242 85.1834 59.0821C85.3372 59.0722 85.499 59.1286 85.6528 59.1187C86.0658 58.3869 86.5559 57.6503 86.8414 56.8263C87.826 54.145 89.8767 51.9308 90.6995 49.1931C91.2535 47.4123 91.3197 45.7641 90.9 43.9465C90.0522 40.2448 88.3409 36.7676 86.8601 33.2751C86.7075 32.9833 86.6321 32.6863 86.5905 32.3535C86.3614 29.8861 84.5563 28.4614 82.1688 27.3431C80.3528 26.4558 79.8608 25.6159 80.2253 24.183C80.3994 23.4 81.0158 23.0576 81.811 22.9048C82.5376 22.8236 83.032 23.0596 83.4138 23.6383C83.7024 24.0891 84.1453 24.5297 84.6042 25.1035C84.8823 23.9111 85.0313 22.9284 85.3854 22.033C85.5319 21.6543 86.0208 21.2197 86.4656 21.0563C87.4239 20.658 87.8926 20.9963 88.0084 21.928C88.1229 23.1618 88.1951 24.3648 88.2919 25.7674C89.0112 25.3176 89.4739 24.9854 89.9793 24.6838C90.5872 24.2749 91.2972 24.0606 91.9362 24.5219C92.5832 25.0498 92.6316 25.7511 92.2101 26.4161C91.4621 27.5722 90.4081 28.4465 89.0474 29.039C88.3458 29.3199 87.6438 29.6007 86.7969 29.9582C87.8618 34.7861 90.7579 39.058 92.2418 43.825C92.6382 42.9603 93.1461 42.0548 93.5769 41.1543ZM108.118 61.7714C110.4 61.4204 110.691 61.2668 110.671 59.8595C109.714 59.9558 108.647 59.7909 108.693 61.096C108.675 61.2651 108.35 61.4544 108.135 61.6023C107.563 61.6736 107.025 61.709 106.495 61.8109C106.801 62.0924 107.04 62.1441 107.228 62.0979C107.528 62.0112 107.819 61.8581 108.118 61.7714ZM38.0157 110.316C38.6284 110.879 39.2411 111.443 39.8538 112.007C39.9225 111.935 39.9911 111.864 40.0254 111.828C39.3441 111.336 38.6204 110.813 37.9386 110.321C37.5011 108.672 36.0618 107.693 34.5271 106.888C32.7882 105.996 30.9803 105.175 29.1465 104.457C27.3556 103.769 25.4955 103.153 23.3848 103.325C28.4425 105.341 33.4316 107.43 38.0157 110.316ZM73.6345 104.961C73.7294 104.786 73.7814 104.582 73.8416 104.444C74.4487 104.337 75.0215 104.266 75.6282 104.159C68.168 102.769 58.8974 105.223 54.3089 109.784C58.4182 107.603 62.5497 106.224 66.8507 105.271C68.0564 104.991 69.3457 105.074 70.6531 104.988C70.3964 105.106 70.1825 105.254 69.9172 105.305C66.1737 105.752 62.701 106.818 59.3728 108.11C58.0035 108.636 56.3284 108.88 55.6986 110.364C55.9117 110.518 56.1249 110.671 56.3376 110.825C56.7646 110.831 57.2002 110.903 57.6187 110.842C62.3977 109.991 67.1338 109.111 71.6334 107.574C73.4556 106.951 75.1502 106.237 76.9638 105.547C76.9215 105.516 76.8706 105.419 76.8278 105.388C75.5203 105.474 74.1362 105.565 72.8288 105.651C73.069 105.4 73.352 105.18 73.6345 104.961ZM35.3386 138.369C35.159 138.482 34.9447 138.63 34.6959 138.814C40.8608 141.63 47.1114 142.327 53.5421 140.731C51.9283 140.535 50.3145 140.339 48.7007 140.143C50.4861 140.16 52.2629 140.11 54.0483 140.128C54.5868 140.092 55.1253 140.057 55.6718 140.088C55.6553 139.955 55.6811 139.853 55.6989 139.684C54.7854 139.509 53.9147 139.365 53.0017 139.19C53.8816 139.099 54.762 139.007 56.0267 138.891C55.1314 138.547 54.509 138.219 53.8345 138.095C51.2746 137.458 48.7222 136.887 46.1704 136.317C46.5894 136.256 46.9999 136.128 47.3584 136.205C48.6218 136.391 49.8937 136.643 51.4732 136.875C48.3203 134.901 41.7106 134.429 38.1595 135.802C38.9369 135.819 39.6978 135.702 40.4325 135.687C42.3717 135.694 44.415 135.292 46.2818 136.276C44.2999 136.238 42.3098 136.134 40.3449 136.229C38.687 136.304 37.089 136.544 34.9863 136.782C35.6168 137.177 35.83 137.33 36.0769 137.448C35.8545 137.53 35.6406 137.678 35.3754 137.729C34.3154 137.933 35.2369 138.175 35.3386 138.369ZM37.7217 113.254C36.5079 113.468 35.7248 112.781 34.8125 112.304C33.4487 111.622 32.0763 110.873 30.7382 110.089C28.8633 109.038 26.9799 107.92 25.1732 106.797C23.9551 106.038 22.8737 105.137 21.7237 104.306C22.9564 105.802 24.4293 107.047 25.936 108.257C26.4984 108.723 27.2055 109.113 27.733 109.615C30.4894 112.453 34.3132 113.276 38.4102 114.115C38.0102 113.705 37.8233 113.448 37.6022 113.228C38.311 113.316 39.0198 113.403 39.9672 113.543C38.8722 111.903 37.612 110.812 36.1041 109.904C32.0818 107.485 27.7409 105.623 23.2714 103.97C23.0667 103.883 22.8701 103.862 22.6655 103.774C24.4189 105.404 26.113 106.87 28.0387 108.018C31.2602 109.92 34.5252 111.551 37.7217 113.254ZM81.641 58.3415C75.8419 53.7904 71.7209 48.3915 67.9346 42.5678C68.3427 49.284 73.9179 56.3995 81.641 58.3415ZM80.9799 57.0765C79.4947 52.6117 71.4367 42.6736 68.5191 41.6572C68.9002 42.538 69.0846 43.3981 69.5681 44.1715C70.052 44.9449 70.827 45.5651 71.3448 46.3027C73.6467 49.5399 76.1972 52.593 79.1417 55.3857C79.6693 55.888 80.2311 56.3544 80.9799 57.0765ZM80.2472 50.2476C80.3501 50.1402 80.4531 50.0328 80.5988 49.9562C78.4746 47.2105 76.2812 44.5363 72.8802 42.7466C73.7306 43.6637 74.5387 44.55 75.576 45.7232C73.5634 44.8153 73.0242 42.972 71.199 42.3202C73.1626 44.7074 75.2292 46.9872 77.039 49.3845C78.6701 51.5923 80.0871 53.9484 81.5729 56.2326C81.9547 56.8116 82.4056 57.3186 82.745 57.8666C82.2512 53.2698 79.0702 49.8216 75.8549 46.4094C76.0006 46.3328 76.1459 46.2561 76.2916 46.1795C77.6616 47.5322 78.9544 48.8899 80.2472 50.2476ZM88.3784 77.9273C84.2715 79.5052 78.2102 86.8803 78.4466 89.7167C81.8024 85.8397 85.609 82.4703 88.3784 77.9273ZM58.129 111.513C64.1995 112.322 74.2054 109.553 76.6538 106.171C70.5519 108.853 64.3699 110.265 58.129 111.513ZM52.0675 66.4877C46.5858 67.9206 43.7104 71.2964 40.8854 74.7691C45.2587 72.8384 48.7388 69.9601 52.0675 66.4877ZM77.7401 91.2052C83.902 88.3859 88.9679 82.0484 88.8373 78.5011C85.7947 83.0282 81.8661 86.9763 77.7401 91.2052ZM77.0645 89.2033C79.0374 85.1154 82.0585 81.6632 85.9847 78.3192C81.0427 79.4148 76.4144 85.2202 77.0645 89.2033ZM53.5901 65.9514C52.3121 67.2094 51.1196 68.5291 49.7136 69.6948C48.3504 70.8911 46.8168 71.9646 45.2837 73.0381C43.8188 74.04 42.2602 74.9138 40.7529 75.8846C45.7458 74.8865 52.3696 69.856 53.5901 65.9514ZM65.3366 63.772C64.7208 68.1736 67.0642 71.7439 70.116 75.4015C68.4496 71.3508 66.8929 67.5614 65.3366 63.772ZM39.7508 59.7137C40.2998 59.141 40.6772 58.7473 41.3639 58.0314C41.1697 59.5872 39.5437 60.2307 39.8108 61.7562C40.3077 61.3883 40.7102 61.1942 40.908 60.9127C41.5612 59.9307 42.1715 58.9178 42.7823 57.9048C42.9116 57.6948 43.0746 57.4494 43.1267 57.2446C43.3173 56.5948 43.5421 55.9092 42.707 55.4273C42.1617 55.0941 41.0068 55.4715 40.5087 56.1417C40.2765 56.4586 40.0872 56.8066 40.0516 57.1447C39.912 57.8915 39.8917 58.6646 39.7508 59.7137ZM20.8451 116.575C20.1533 114.44 19.097 113.738 17.2596 113.925C16.7639 113.991 16.0619 114.272 15.9497 114.615C15.837 114.957 16.2278 115.603 16.6027 115.813C18.1026 116.654 19.6975 117.321 21.2236 118.06C21.2922 117.988 21.3524 117.85 21.421 117.778C20.4927 117.168 19.6062 116.589 18.6779 115.979C18.7809 115.872 18.8495 115.8 18.9524 115.693C19.5235 115.924 20.018 116.159 20.8451 116.575ZM91.3398 53.4115C95.2739 52.3148 99.3097 51.4127 102.693 49.3122C98.3944 49.6612 94.7574 51.2752 91.3398 53.4115ZM67.0203 63.5945C66.875 63.6713 66.7635 63.7122 66.5754 63.758C67.3052 64.9514 68.1463 66.1038 68.7646 67.3381C69.4685 68.6337 69.95 70.0113 70.5768 71.3121C71.1099 72.4848 71.652 73.7239 72.1852 74.8966C71.8524 70.6582 70.0309 66.9197 67.0203 63.5945ZM102.629 50.3563C99.1382 51.5917 95.6477 52.827 92.1572 54.0623C96.3516 54.1228 99.8421 52.8874 102.629 50.3563ZM37.8092 60.3108C37.9549 60.234 38.1002 60.1577 38.246 60.0809C37.7031 59.1436 37.2369 58.2011 36.694 57.2643C36.397 56.7469 35.9203 56.3421 35.1336 56.5613C34.3892 56.8115 34.3444 57.3845 34.4106 57.917C34.511 58.4137 34.6882 58.9052 35.0459 59.2842C35.9306 60.1658 36.884 60.9754 37.803 61.8208C37.4991 60.9348 36.8356 60.2739 36.283 59.572C36.1046 59.3828 36.2511 59.0041 36.185 58.4716C36.9422 59.2606 37.3931 59.768 37.8092 60.3108ZM24.6761 117.766C25.7123 117.061 25.9219 115.94 27.3726 116.381C26.6864 117.097 26.1369 117.67 25.5536 118.279C26.6233 117.84 27.5651 117.308 28.3793 116.684C29.0134 116.173 28.8989 114.939 28.2604 114.478C27.5871 114.053 26.6466 114.282 26.1222 115.054C25.6321 115.791 25.3042 116.584 24.6761 117.766ZM23.6812 116.624C24.319 115.207 24.6989 114.209 24.2081 113.067C23.8945 112.416 23.4098 111.945 22.5802 112.133C21.8193 112.25 21.339 112.751 21.4302 113.484C21.4963 114.016 21.6049 114.579 21.7905 115.138C21.807 115.27 22.0888 115.353 22.2935 115.44C22.3976 115.031 22.4675 114.657 22.5373 114.283C22.6911 114.273 22.8449 114.263 22.9644 114.289C23.1157 114.883 23.3179 115.574 23.6812 116.624ZM53.903 79.3836C52.4087 79.2131 52.0037 80.0113 51.864 80.7586C51.6642 81.6438 51.5576 82.6571 52.8609 83.4774C52.7273 82.7147 52.6188 82.1516 52.5276 81.4195C54.1236 81.7844 53.1875 82.9862 53.971 83.673C54.4385 82.1328 54.7001 80.8072 53.903 79.3836ZM105.139 63.3759C106.526 64.5597 107.827 65.9836 110.026 65.2692C110.302 64.3788 109.834 64.0409 109.007 63.6253C107.763 62.9688 106.425 64.063 105.139 63.3759ZM24.4702 78.0597C24.3341 77.901 24.2752 77.7372 24.1392 77.5786C23.2888 76.6612 22.4439 76.4146 21.8441 76.8904C21.2786 77.3298 21.3765 78.4306 22.1511 79.0505C22.9261 79.6709 23.907 80.076 24.7421 80.5579C24.845 80.4505 24.948 80.3432 25.0852 80.2C24.6428 79.7594 24.2005 79.3188 23.7924 78.8424C23.1627 78.1457 23.9402 78.1615 24.4702 78.0597ZM42.1642 60.7296C43.0611 60.7713 43.531 60.8079 44.0347 60.8082C44.0432 60.8746 44.0512 60.9414 44.0598 61.0078C42.99 61.4469 41.9203 61.8861 40.8854 62.2894C40.9786 62.4174 41.0379 62.5818 41.1311 62.7098C42.5165 62.3167 43.9446 61.9547 45.2796 61.4647C46.1349 61.1739 46.4462 60.2477 45.8924 59.8476C45.5094 59.5709 44.7319 59.5546 44.2019 59.6565C43.5262 59.8351 43.0378 60.2698 42.1642 60.7296ZM64.3508 125.396C63.1302 125.241 62.3786 125.122 61.4736 125.014C63.2198 126.275 64.0053 126.358 66.1447 125.479C65.2116 123.897 64.8874 123.784 62.9458 124.381C63.3288 124.658 63.6271 124.873 64.3508 125.396ZM29.9441 112.12C27.7048 110.321 25.4311 108.558 23.2341 106.79C25.0879 108.916 26.7355 111.257 29.9441 112.12ZM48.8538 83.673C48.9139 83.535 48.9402 83.4328 49.0431 83.3255C49.6491 83.5203 50.2888 83.6797 51.0908 83.8955C50.709 83.3165 50.5314 82.825 50.1993 82.6457C49.7048 82.4095 48.9794 82.1889 48.4918 82.3213C47.7051 82.5409 47.9416 83.1963 48.1615 83.7184C48.7883 85.0191 50.0437 85.1384 51.4626 85.0119C50.5927 84.5657 49.7232 84.1196 48.8538 83.673ZM68.1164 67.1123C67.9626 67.1222 67.8088 67.1326 67.655 67.1426C67.7934 68.8781 69.5297 72.5549 70.9843 73.9689C69.9782 71.4855 69.0475 69.2992 68.1164 67.1123ZM82.0297 23.7291C80.2737 24.8843 80.4844 25.6421 82.8114 26.8984C82.5572 26.4119 82.3537 26.0227 81.9812 25.2084C82.9015 25.7519 83.4383 26.0186 84.1116 26.4441C83.5344 25.5427 83.1013 24.8665 82.6687 24.1905C82.5327 24.0317 82.328 23.9445 82.0297 23.7291ZM101.594 48.5792C98.2289 48.3302 95.44 49.2847 94.2802 50.8703C96.5557 50.1508 98.8312 49.4313 101.594 48.5792ZM87.3381 24.9577C87.2057 23.8928 87.0819 22.8946 86.9496 21.8298C85.6041 22.8573 85.6759 24.0603 85.5943 25.2733C86.2425 25.4992 86.2487 23.9892 87.3381 24.9577ZM21.7252 80.9237C19.25 80.348 18.9504 80.4347 17.6643 81.6263C19.4355 83.0869 20.3656 81.2141 21.7252 80.9237ZM56.9058 84.5206C58.2775 83.3907 58.2775 83.3907 57.5914 81.9261C56.0357 82.1959 55.4592 83.173 55.2056 84.5649C55.9169 84.0487 56.4482 83.6445 57.0222 83.2715C57.1074 83.3331 57.1925 83.3948 57.2777 83.456C57.165 83.7988 57.0528 84.1421 56.9058 84.5206ZM24.1018 82.5794C23.1148 83.6838 21.1425 83.4108 21.2381 85.1152C22.9286 85.3064 23.7004 84.6522 24.1018 82.5794ZM63.3362 122.846C65.0707 122.765 66.0468 122.198 66.7605 121.078C65.2263 120.273 64.3257 121.137 63.3233 121.807C63.7847 121.776 64.2381 121.679 64.6994 121.649C64.7503 121.746 64.8011 121.844 64.852 121.941C64.4156 122.171 63.9789 122.401 63.3362 122.846ZM61.3021 118.953C59.1417 118.726 58.7037 119.258 59.1827 121.239C59.5339 120.948 59.9291 120.385 60.3481 120.324C61.5098 120.315 61.3161 119.691 61.3021 118.953ZM91.3444 25.0639C89.6264 25.2773 89.0584 26.3209 88.4396 27.2673C89.3563 26.5362 91.6514 27.2244 91.3444 25.0639ZM46.5761 68.156C44.249 69.0804 42.9624 70.2715 42.4097 71.7506C43.0867 71.2702 43.9175 70.7793 44.6203 70.1967C45.2464 69.6188 45.8212 68.9434 46.5761 68.156ZM48.2263 95.1538C46.5426 95.3313 46.0691 96.2011 45.6892 97.1989C46.4691 96.6111 47.2062 95.9922 48.2263 95.1538ZM49.2563 95.9586C49.1288 95.8664 49.0351 95.7383 48.9076 95.6461C48.0247 96.3413 47.1419 97.0365 46.2938 97.696C46.4214 97.7882 46.4722 97.8856 46.6002 97.9779C47.4826 97.2827 48.3654 96.5875 49.2563 95.9586ZM105.356 58.2624C105.37 58.9993 105.444 59.5982 105.476 60.1665C105.596 60.1924 105.681 60.254 105.758 60.2488C105.957 59.6654 106.113 59.0514 106.312 58.4679C105.996 58.4214 105.714 58.3396 105.356 58.2624Z" fill="#B98A44"/>
<path d="M88.0058 89.5923C89.6056 89.0513 91.0269 88.3207 92.133 87.2416C94.6285 84.8637 97.116 82.4193 99.7395 80.1341C101.908 78.2473 103.583 76.1247 105.071 73.7461C104.698 72.9316 104.317 72.0507 103.936 71.1699C103.505 70.1921 103.611 69.1783 104.161 68.3038C104.901 67.0813 105.713 67.0613 106.708 68.2038C106.844 68.3629 106.903 68.5267 107.047 68.7517C108.483 68.4566 109.574 66.9425 111.364 67.9317C111.769 69.3145 110.638 70.1939 109.992 71.2426C110.667 71.3658 111.213 71.3972 111.769 71.495C113.083 71.7776 113.576 72.3156 113.445 73.1293C113.313 73.9434 112.388 74.6076 111.295 74.5453C109.928 74.467 108.57 74.4556 107.221 74.2087C106.197 74.0744 105.564 74.2836 105.074 75.0206C101.843 79.5934 97.4627 83.336 93.2608 87.2682C92.9172 87.6261 92.6084 87.9483 91.9908 88.593C95.461 88.1306 98.5043 87.6623 101.285 86.6412C105.776 85.0386 110.243 83.2359 114.641 81.5048C118.748 79.9273 122.387 77.7091 125.976 75.3939C128.023 74.0853 128.067 73.8141 127.007 71.8373C124.717 67.7604 125.681 63.9736 128.019 60.3315C128.535 59.4923 129.009 58.623 129.68 57.4717C130.173 58.0096 130.641 58.348 130.802 58.7063C131.123 59.7251 131.366 60.7492 131.61 61.7732C132.206 64.3843 131.384 66.8202 130.717 69.2457C130.508 70.0646 130.266 70.9192 130.057 71.7381C130.185 71.8303 130.313 71.9226 130.475 71.979C131.101 71.4011 131.676 70.7258 132.438 70.307C135.049 68.8608 136.221 66.4356 137.904 64.3799C139.518 62.3953 140.474 60.4203 138.425 57.9716C137.558 56.9214 138.034 55.4477 138.774 54.225C139.556 53.0331 140.718 53.024 141.524 54.2123C141.77 54.6323 141.837 55.1647 142.039 55.8559C143.267 54.1986 144.393 52.6488 146.496 52.1082C148.251 53.4357 148.251 53.4357 146.009 58.4806C146.752 58.5325 147.487 58.5179 148.153 58.5748C149.681 58.7094 150.61 59.3194 150.718 60.1845C150.791 61.0856 149.573 62.2052 148.232 62.327C146.514 62.5403 144.831 62.4155 143.142 61.9226C141.009 61.2908 141.009 61.2908 139.78 62.9485C138.586 64.5699 137.528 66.35 136.207 67.8792C135.014 69.1989 133.539 70.4362 132.048 71.5403C129.281 73.6005 126.428 75.5991 123.575 77.5977C123.43 77.6744 123.377 77.8793 123.069 78.2014C125.102 78.0342 126.974 77.811 128.794 77.7921C131.767 77.698 134.783 77.6341 137.747 77.7755C139.267 77.8434 139.944 77.3629 140.427 76.2577C140.668 75.7049 141.063 75.1426 141.595 74.7384C142.169 74.3654 142.939 74.013 143.674 73.9982C145.527 73.944 146.393 75.296 145.474 76.6311C145.208 76.9839 144.899 77.306 144.667 77.6234C145.698 78.126 146.722 78.5622 147.608 79.1415C148.528 79.6847 148.235 80.4423 147.856 81.1379C147.4 81.8386 146.692 81.7512 145.975 81.597C145.173 81.3811 144.328 81.1346 143.441 80.857C143.418 82.2343 143.968 83.5398 143.015 84.6089C139.829 84.5495 138.02 81.8501 139.247 78.616C138.538 78.5286 137.821 78.3744 137.121 78.3529C131.689 78.0051 126.34 78.322 121.125 79.4021C120.595 79.504 120.081 79.7391 119.567 79.9742C116.478 81.3174 113.431 82.6912 110.162 84.147C114.749 84.2489 119.148 84.3965 123.215 86.2429C127.206 88.0946 130.613 90.5548 133.367 93.9973C128.235 95.4409 123.343 94.7553 118.514 93.3276C113.522 91.8435 110.349 88.4623 107.211 85.0448C102.367 87.2412 97.1532 88.0196 92.057 89.1251C91.1508 89.3188 90.2954 89.6101 89.3892 89.8034C88.8067 90.11 88.1737 90.3192 88.0058 89.5923ZM110.471 73.2238C110.827 73.905 111.408 73.9006 111.982 73.5276C112.231 73.3434 112.258 72.9389 112.413 72.6267C111.884 72.4267 111.321 72.2626 110.912 72.088C110.705 72.6046 110.592 72.9474 110.514 73.2544C109.711 73.3408 108.842 72.5928 107.883 73.2928C109.667 73.612 109.667 73.612 110.471 73.2238ZM125.332 92.9811C124.3 92.4785 123.269 91.9759 122.203 91.5092C120.531 90.8471 118.833 90.2878 117.128 89.6615C117.067 89.7995 116.999 89.8711 116.938 90.0095C117.364 90.3169 117.79 90.6242 118.216 90.932C117.576 90.7726 116.867 90.6848 116.322 90.3516C114.686 89.3519 113.152 88.2449 111.551 87.2095C111.167 86.9327 110.647 86.7991 109.871 86.4806C113.812 91.9922 122.464 94.5446 127.994 93.8133C127.158 93.6332 126.228 93.325 125.332 92.9811ZM130.49 93.314C130.585 93.1398 130.722 92.9966 130.817 92.8228C129.615 92.1969 128.439 91.4693 127.203 90.8792C124.347 89.4227 121.414 87.9714 118.154 87.3131C116.122 86.8758 114.125 86.4032 112.094 85.9658C111.693 85.8581 111.266 85.8526 110.838 85.847C116.967 89.3028 123.423 91.966 130.49 93.314ZM128.024 90.6242C123.785 86.7758 118.581 85.1377 112.635 85.3268C117.762 86.9695 123.415 87.5382 128.024 90.6242ZM141.939 59.4185C142.109 59.5413 142.28 59.6646 142.416 59.8233C144.556 58.643 146.186 57.0936 146.759 54.8419C146.897 54.3967 146.481 53.8537 146.303 53.3621C145.747 53.5663 145.012 53.581 144.669 53.9389C143.537 55.1203 142.617 56.4554 141.986 58.2412C142.835 57.5817 143.435 57.1062 144 56.6666C144.128 56.7589 144.213 56.8204 144.341 56.9126C143.552 57.736 142.763 58.5593 141.939 59.4185ZM149.684 60.286C147.836 58.8304 146.802 58.9318 143.196 61.1141C144.468 61.3661 145.603 61.7613 146.73 61.7879C147.969 61.7738 149.362 61.7495 149.684 60.286ZM128.345 70.4414C129.788 66.4553 130.382 61.2499 129.696 59.7853C129.143 63.4449 127.822 66.8527 128.345 70.4414ZM128.535 61.6732C128.415 61.6474 128.253 61.5909 128.168 61.5293C127.021 64.1541 125.84 66.8147 127.1 70.0867C127.582 67.1033 128.097 64.3854 128.535 61.6732ZM142.284 83.7173C142.745 81.8088 142.745 81.8088 141.673 80.6711C141.51 80.9169 141.423 81.1571 141.2 81.5409C140.844 80.8596 140.581 80.3069 140.225 79.6257C139.341 80.6227 139.688 81.5394 140.06 82.3538C140.39 83.1372 141.011 83.7675 142.284 83.7173ZM143.899 75.1912C143.466 76.6957 141.613 76.4481 141.276 77.4765C143.538 77.8987 144.789 77.0452 144.6 75.2122C142.542 74.8776 142.508 74.9133 141.793 76.336C142.452 76.0241 142.992 75.6868 143.899 75.1912ZM145.353 79.088C145.309 79.3592 145.231 79.6663 145.144 79.9069C144.342 79.691 143.737 79.4957 143.097 79.3368C143.07 79.439 143.01 79.5769 142.984 79.6796C144.255 80.2334 145.326 81.3707 147.054 80.922C146.88 79.5245 146.88 79.5245 145.353 79.088ZM110.286 68.3045C108.816 68.6359 107.839 69.203 107.722 70.754C108.623 69.8898 110.705 70.4241 110.286 68.3045ZM139.885 54.1186C139.566 54.6762 139.317 55.1623 139.162 55.4743C139.851 56.0329 140.328 56.4378 140.932 56.9349C140.885 55.9316 141.35 54.9953 139.885 54.1186ZM139.363 56.4676C138.862 57.7416 138.921 57.9055 140.616 59.0691C140.099 58.0295 139.778 57.3126 139.363 56.4676ZM105.272 68.1975C104.928 68.8573 104.721 69.3743 104.437 69.8961C105.011 69.523 106.642 69.5499 105.272 68.1975ZM131.007 62.853C130.888 62.8271 130.734 62.837 130.615 62.8116C130.578 63.4511 130.533 64.0246 130.496 64.6645C130.692 64.6851 130.846 64.6747 131.043 64.6954C131.011 64.1275 130.971 63.4924 131.007 62.853Z" fill="#B98A44"/>
<path d="M93.6535 41.1492C92.776 40.6365 93.0352 39.915 93.2681 39.2958C94.8317 35.0334 96.0712 30.6581 98.4025 26.6473C98.979 25.6702 99.2309 24.5801 99.7223 23.5415C99.9637 22.9889 100.205 22.4363 100.609 21.9402C101.176 21.1985 101.008 20.4715 100.575 19.7954C99.65 18.2794 99.2634 16.728 99.3296 15.0798C99.3418 14.2404 99.5416 13.355 99.8694 12.5619C100.292 11.5949 101.326 11.4936 101.938 12.3592C102.6 13.3222 103.048 14.4334 103.608 15.5038C104.114 14.9002 104.647 14.1944 105.307 13.5807C105.899 13.0387 106.542 12.292 107.651 12.7896C108.512 13.1692 109.003 14.3112 108.657 15.2731C108.424 15.8923 107.952 16.46 107.472 16.9612C107.129 17.3192 106.657 17.5849 106.084 17.958C107.399 17.9388 108.587 17.8274 109.731 17.9871C110.243 18.0542 110.985 18.4081 111.231 18.8281C111.63 19.54 111.208 20.205 110.302 20.3986C109.174 20.6739 108.002 20.9185 106.814 21.03C105.703 21.1364 104.499 21.1147 103.363 21.0215C102.074 20.9384 101.336 21.557 100.948 22.4883C99.4129 26.0442 97.9123 29.5645 96.4198 33.1513C95.8163 34.5327 95.2551 35.945 94.7287 37.3214C94.616 37.6642 94.6233 38.0328 94.6809 38.4987C97.4865 35.4967 100.777 32.9661 104.952 31.6188C109.091 30.3073 115.865 30.534 118.063 32.0001C117.395 32.5472 116.803 33.0892 116.177 33.667C110.914 38.1049 104.329 39.711 97.2457 40.1084C95.8192 40.1685 94.8003 40.705 93.6535 41.1492ZM103.187 34.8879C101.166 36.094 98.8221 36.8852 97.0815 38.4754C100.759 37.4962 104.258 36.3274 107.833 35.1535C109.398 34.6483 110.921 34.1123 112.444 33.5763C108.342 36.1266 103.349 37.125 98.5322 38.917C103.347 39.6076 113.511 35.9217 115.325 33.0519C114.342 33.2506 113.316 33.4185 112.367 33.5814C112.796 33.2849 113.181 32.9577 113.712 32.5538C112.824 32.5785 112.201 32.5524 111.543 32.562C112.056 32.327 112.57 32.092 113.408 31.6679C107.601 31.4115 102.787 32.2975 98.8767 36.0765C100.527 35.6327 101.879 35.2758 103.187 34.8879ZM104.888 15.8224C106.511 15.783 105.166 16.8105 105.703 17.0772C108.125 15.979 108.479 15.0836 106.981 13.6387C105.774 14.2211 105.774 14.2211 104.888 15.8224ZM105.836 20.0206C108.037 20.8827 109.875 20.3931 110.403 18.7147C109.002 18.6723 107.671 18.2564 106.25 18.9871C106.668 19.228 107 19.4075 107.418 19.6485C107.084 19.771 106.904 19.8834 106.751 19.8936C106.486 19.9445 106.221 19.9954 105.836 20.0206ZM102.137 15.835C102.05 14.197 102.05 14.197 100.798 13.172C100.108 14.794 100.048 17.1127 100.817 17.0623C100.921 16.6528 100.982 16.2127 101.044 15.7726C101.471 15.7781 101.821 15.7887 102.137 15.835Z" fill="#B98A44"/>
</g>
</g>
<defs>
<clipPath id="clip0_313_40">
<rect width="138.525" height="155.162" fill="white" transform="translate(169.495 16.2354) rotate(96.0061)"/>
</clipPath>
</defs>
</svg>
