<svg width="86" height="126" viewBox="0 0 86 126" fill="none" xmlns="http://www.w3.org/2000/svg">
<mask id="mask0_5_383" style="mask-type:luminance" maskUnits="userSpaceOnUse" x="0" y="0" width="86" height="126">
<path d="M0.318565 0.0383301H85.98V125.499H0.318565V0.0383301Z" fill="white"/>
</mask>
<g mask="url(#mask0_5_383)">
<path d="M76.2965 86.5539C76.2288 86.5539 76.2288 86.6213 76.1611 86.6213C74.4004 87.632 70.6083 85.4758 69.3894 84.3304C67.4933 82.5111 66.613 80.0181 67.3579 77.4576C63.0918 73.7518 58.6225 70.3154 53.9501 67.2833C55.169 69.2373 55.7107 71.4609 53.747 72.8758C53.6115 73.0106 53.5437 73.078 53.3406 73.1453H53.2729H53.2052C53.1374 73.1453 53.1375 73.1453 53.0698 73.1453C53.0698 73.1453 53.0697 73.1453 53.002 73.1453H52.9344C52.7312 73.1453 52.5957 73.0106 52.4603 72.8758C50.6996 70.5849 48.8713 67.8223 50.0902 64.925C44.7406 61.6908 39.1879 58.9282 33.432 56.5699C33.8383 57.0416 34.1768 57.5133 34.5831 57.9175C35.5311 59.063 36.4792 60.2758 37.4273 61.4213C37.6304 61.4887 37.8335 61.6234 37.9689 61.8929C38.0367 62.0277 38.0367 62.0951 38.1044 62.1625C42.8446 68.0245 47.3815 73.9539 51.8508 79.9507C51.8508 79.9507 51.9186 79.9507 51.9186 80.0181C53.8824 81.4331 55.7784 82.7806 57.7422 84.1956C59.0965 80.9614 62.8886 79.8159 66.0713 81.5004C66.3422 81.6352 66.4099 81.8373 66.4776 82.0395C66.9516 82.1742 67.3579 82.7806 66.8839 83.2523C65.3941 85.1389 63.2949 86.2844 60.9926 86.4865C64.8524 89.2491 68.6445 91.9443 72.5044 94.7068C72.5721 94.6395 72.6398 94.6395 72.7075 94.5721C73.317 93.8983 74.4681 93.494 75.2807 93.2245C77.1091 92.7528 79.0729 93.2245 80.6981 94.1678C81.1721 94.1004 81.7816 94.4373 81.7816 95.0437C81.7138 96.7956 80.3595 97.8737 78.802 98.3453C78.1248 98.5475 77.4477 98.4801 76.7705 98.278C77.2445 99.9625 77.0414 101.849 75.8225 103.466C75.6193 103.736 75.3485 103.803 75.1453 103.803C74.9422 103.938 74.6713 103.87 74.4004 103.668C72.9107 102.388 71.6918 101.041 71.2178 99.0865C70.9469 98.0758 71.15 96.9304 71.6918 95.9871C66.2067 92.079 60.654 88.1036 55.1689 84.1956C62.2115 93.7635 68.9831 103.466 75.7548 113.236C81.5107 114.382 84.1516 118.694 85.98 124.017C86.3186 124.893 85.0997 125.567 84.6257 124.96C84.4902 125.162 84.2194 125.297 83.8808 125.297C81.3753 125.297 79.3437 124.287 77.5831 122.602C75.4839 120.648 75.2807 117.549 74.8067 114.921C74.8067 114.853 74.8067 114.786 74.8067 114.651C63.6335 98.5475 52.3248 82.5785 40.2713 67.2159C45.35 80.7593 51.58 93.6288 58.8933 106.027C59.6382 105.151 61.1958 104.949 62.4147 105.218C64.9879 105.757 66.7485 107.846 68.2382 109.8C68.9154 109.935 69.0508 110.945 68.4414 111.35C68.2382 111.552 67.9674 111.687 67.6965 111.552C66.3422 111.821 65.0555 111.687 63.8366 111.35C64.9201 112.226 66.0713 113.034 67.2902 113.843C67.3579 113.843 67.3579 113.91 67.4256 113.977C71.4886 112.697 72.9107 118.424 75.0099 120.715C75.7548 121.524 74.4681 122.602 73.7233 121.793H73.6555C69.9311 121.524 65.3264 119.57 66.0713 115.056V114.988C64.8524 114.18 63.7013 113.371 62.5501 112.428C63.9721 115.46 65.1233 119.57 62.6855 121.861C62.076 122.4 61.3989 121.861 61.3311 121.254C61.1957 121.187 61.128 121.12 60.9926 121.052C59.1642 119.098 58.0808 116.673 57.8099 113.977C57.6745 112.495 58.013 110.474 59.4351 110.002C56.4555 105.083 53.6115 100.097 50.9705 94.9764C51.3091 97.7389 50.9705 100.569 49.1422 102.86C49.0067 103.062 48.8036 103.129 48.6682 103.197C48.2619 103.399 47.7201 103.331 47.4492 102.86C45.9595 100.299 45.6209 97.4694 46.0949 94.5047C46.2981 93.0897 46.8399 90.3272 47.991 89.047C43.8603 80.5571 40.1359 71.9325 36.8178 63.0384C35.3958 61.2865 34.0414 59.602 32.6193 57.8502C22.2587 45.3175 11.4238 32.3133 5.12614 17.355C5.66788 24.8341 7.08992 32.2459 9.52772 39.3207C11.0852 38.5796 13.1167 39.2534 14.6065 40.0619C17.112 41.4769 18.9407 43.633 19.821 46.3282C20.0241 46.8673 19.7533 47.4737 19.1438 47.4737C18.9407 47.5411 18.7375 47.4737 18.534 47.3389C15.8254 46.7999 13.3198 45.6544 11.2883 43.9699C12.7104 47.5411 14.4033 50.9774 16.2994 54.3464C16.3671 54.4812 16.4348 54.6159 16.3671 54.7507C21.6492 60.3432 26.5926 66.2726 31.1973 72.4042C36.0052 70.7197 39.6619 77.0534 41.4903 80.8266C42.1674 81.0961 42.2351 82.309 41.3548 82.4437C38.443 82.9828 35.6666 80.9614 33.4996 78.4683C33.4996 80.0855 33.0933 81.6352 32.2807 83.1175C32.213 83.3197 32.0776 83.5218 31.9422 83.6566C31.4004 84.4651 30.1815 83.724 30.4524 82.9828C28.0146 80.2876 27.6761 76.3796 29.7076 73.2801L29.7752 73.2127C25.5768 67.6202 21.0398 62.2298 16.2994 57.109C15.6899 60.8822 15.8254 64.6555 16.8411 68.4288C17.8568 68.294 19.3469 68.9004 20.0918 69.2373C22.0555 70.1806 23.5454 71.8651 24.2903 73.8865C24.6288 74.7625 23.4777 75.4363 22.9359 74.8972H22.8682C21.4462 75.032 20.0918 74.6951 18.9406 74.0887C19.6855 75.3015 20.4304 76.5817 21.1753 77.7945C26.3895 78.4683 26.9989 84.3304 28.15 88.4405C28.2855 88.9796 27.8792 89.3165 27.4729 89.3839C27.2697 89.6534 26.9312 89.7881 26.5926 89.6534C21.9202 88.3058 16.5702 84.1282 19.7532 78.8052C19.7532 78.7379 19.821 78.6705 19.8887 78.6705C19.2115 77.525 18.4663 76.3122 17.7891 75.1667C17.586 76.2448 17.112 77.2555 16.1639 78.1988C16.0285 78.3336 15.8254 78.401 15.6222 78.401C15.2836 78.6705 14.8096 78.7379 14.471 78.3336C12.1687 75.7058 12.575 71.3261 15.3513 69.2373C15.3513 69.1026 15.4191 69.0352 15.4191 68.9678C14.2002 64.386 14.0647 59.8042 15.1482 55.2224C15.1482 55.155 15.0805 55.155 15.0805 55.0876C12.5072 50.5058 10.3403 45.7218 8.57968 40.8031L8.51197 40.7357C8.37653 40.5336 8.30882 40.3988 8.37653 40.1967C5.39701 31.5721 3.83953 22.5432 3.63638 13.3796C3.63638 13.1774 3.70409 13.0427 3.77181 12.9079C2.4852 9.06727 1.46945 5.15924 0.860001 1.04908C0.724571 -0.0289932 2.34977 -0.298512 2.55292 0.779565C3.90725 9.60631 7.0222 17.6919 11.2206 25.3058C11.3561 25.3058 11.4915 25.3732 11.6269 25.4405C15.6899 27.8662 19.6855 30.4266 23.6131 33.0544C23.5454 30.8309 26.1186 29.955 28.0147 29.4159C31.1296 28.54 34.5154 29.3486 37.2918 30.8983C37.7658 31.1678 37.7658 31.6395 37.5626 31.9764C37.5626 32.1785 37.5626 32.3806 37.3595 32.5828C36.0052 34.0651 34.1091 34.2673 32.213 34.6716C30.3847 35.0758 28.4887 35.278 26.6603 35.2106C31.8068 38.8491 36.7501 42.6897 41.558 46.7999C46.2304 44.0373 52.3926 48.3496 55.5752 51.5838C55.6429 51.6512 55.7107 51.786 55.7784 51.9207C55.9816 52.3924 55.8461 53.0662 55.1689 53.1336C51.5122 53.6052 47.991 52.9314 44.876 51.3143C45.8918 53.2683 46.4335 55.4245 45.7563 57.8502C45.5532 58.524 44.8083 58.524 44.402 58.1197C44.3343 58.1197 44.2666 58.0523 44.1989 57.9849C41.4225 55.6266 38.9847 51.6512 40.2713 47.9453C31.0618 40.4662 21.9201 33.863 12.3041 28.001C17.7891 37.232 24.6288 45.7218 31.4681 53.9421C31.6036 53.9421 31.739 53.9421 31.8744 54.0095C40.4744 57.3111 48.5328 61.556 56.117 66.6095C57.2682 63.7796 61.1281 63.9817 63.769 64.9924C64.0399 65.1272 64.243 65.3293 64.243 65.5314C64.717 65.6662 65.0555 66.0705 64.7847 66.6095C63.8366 68.6309 61.7374 69.1026 59.5705 69.0352C62.6178 71.2587 65.5973 73.5496 68.3737 76.0427C69.9311 75.2341 71.6918 76.8512 72.7752 77.9967C74.9422 80.1528 76.4319 82.7133 77.3122 85.678C77.5831 86.4191 76.9059 86.756 76.2965 86.5539ZM65.1233 82.848C62.8886 81.7026 60.4508 82.7133 59.4351 84.802C61.5343 85.0715 63.6335 84.3978 65.1233 82.848ZM77.854 96.7956C78.7343 96.9304 79.6146 96.3913 79.9532 95.6502C79.0729 95.1111 78.1926 94.8416 77.1091 94.7742C76.9059 94.7742 75.6193 94.909 74.8067 95.1785C74.8744 95.1785 74.8744 95.2459 74.9422 95.2459C75.7548 96.0544 76.7028 96.6609 77.854 96.7956ZM74.8744 101.916C75.8225 100.097 75.3485 97.9411 73.7233 96.7282C73.5201 96.9304 73.317 96.9977 73.0461 96.9977C72.1658 98.5475 73.5878 100.636 74.8744 101.916ZM84.0162 123.815C82.5942 119.907 80.5627 116.538 76.4996 115.258C76.7705 116.942 77.0414 118.627 77.7185 120.176C78.7343 122.602 81.5107 123.815 84.0162 123.815ZM66.2067 110.002C65.5973 109.193 64.9201 108.52 64.1752 107.846C63.9044 107.576 61.0603 106.296 60.3154 106.768L60.3832 106.835C61.6021 108.924 63.8366 110.002 66.2067 110.002ZM72.3689 119.974C71.15 117.751 69.7957 114.853 67.4933 115.662C67.3579 118.357 69.9311 119.57 72.3689 119.974ZM59.9091 116.538C60.3154 117.751 61.0603 118.829 61.9406 119.839C63.024 117.549 61.0603 113.506 59.9768 111.619C58.6225 111.619 59.7059 115.999 59.9091 116.538ZM47.517 95.448C47.1784 97.3346 47.4493 99.2213 48.1942 100.973C49.7517 98.2106 49.2776 94.8416 48.465 91.8095C48.3973 91.9443 48.3973 92.0117 48.3973 92.079C47.991 93.1571 47.7202 94.3026 47.517 95.448ZM17.5183 45.4523C16.9765 44.4416 16.2994 43.4983 15.4191 42.6897C14.5387 41.8812 11.7624 40.0619 10.2726 40.7357C12.1687 43.0266 14.6742 44.6437 17.5183 45.4523ZM39.4588 80.8266C38.0367 77.8619 35.3958 73.3475 32.0777 73.9539C33.6351 76.5143 36.4792 80.2202 39.4588 80.8266ZM31.1296 81.433C32.0776 79.2769 31.8744 76.7839 30.5878 74.7625C29.4366 76.9186 29.6398 79.5464 31.1296 81.433ZM21.8525 73.2801C21.4462 72.6737 21.0398 72.0673 20.4304 71.5956C19.8209 71.124 18.2632 70.0459 17.1797 70.0459C17.1797 70.1133 17.112 70.1806 17.112 70.1806C17.9246 72.0673 19.821 73.2801 21.8525 73.2801ZM25.9155 87.8341C25.1706 84.5999 24.4934 80.1528 20.8367 79.5464C20.8367 79.6138 20.7689 79.7486 20.7012 79.8833C18.3986 83.7913 22.5973 86.6213 25.9155 87.8341ZM14.8773 76.7165C16.2317 75.1667 15.9608 73.078 15.4191 71.1913C14.0647 72.6737 13.7939 74.8972 14.8773 76.7165ZM35.0572 31.8416C33.5674 31.1004 32.0099 30.7635 30.317 30.6961C29.0304 30.6288 24.4933 31.1678 24.8319 33.1892C24.8319 33.1892 24.8319 33.1892 24.8319 33.2566C26.5248 33.5261 28.15 33.4587 29.9107 33.1892C31.3327 32.9871 33.7706 32.7849 35.0572 31.8416ZM52.528 51.4491C49.8193 49.0908 45.6886 46.5304 42.3705 47.878C45.2823 50.2363 48.8713 51.5165 52.528 51.4491ZM43.8603 55.694C43.9957 53.2683 42.6414 51.1122 41.0839 49.2256C40.7453 51.5838 42.1674 54.0095 43.8603 55.694ZM51.5122 66.6769C51.4445 68.2266 52.3248 69.709 53.3406 70.9892C53.95 69.9111 52.6634 67.9571 51.5122 66.6769ZM62.8887 66.4748C61.2635 65.8683 58.4871 65.3293 57.6745 67.1486C59.3674 67.4855 61.8729 67.6876 62.8887 66.4748ZM73.1138 80.8266C72.7075 80.2876 69.9989 76.986 69.1863 77.5924C68.4414 79.479 69.0508 81.2309 70.2697 82.7806C70.8792 83.5218 73.5201 85.2063 74.9422 85.2063C75.0099 85.0715 75.1453 84.9368 75.3485 84.8694C74.8067 83.4544 74.0618 82.1068 73.1138 80.8266Z" fill="#5DA65B"/>
</g>
</svg>
