<svg width="81" height="73" viewBox="0 0 81 73" fill="none" xmlns="http://www.w3.org/2000/svg">
<mask id="mask0_5_369" style="mask-type:luminance" maskUnits="userSpaceOnUse" x="0" y="0" width="81" height="73">
<path d="M80.7474 0H0V72.607H80.7474V0Z" fill="white"/>
</mask>
<g mask="url(#mask0_5_369)">
<path d="M19.5232 43.0877C26.0636 41.7745 32.5549 40.0726 38.8987 38.0299C39.3905 37.884 39.1937 37.1059 38.702 37.2518C32.3582 39.2943 25.8669 40.9478 19.3265 42.3096C18.7855 42.4066 18.9822 43.1848 19.5232 43.0877Z" fill="#5DA65B"/>
<path d="M-3.70853e-06 54.6135C-3.70853e-06 54.9051 0.196702 55.2456 0.590113 55.2456C6.49129 55.4401 12.4416 55.2941 18.0969 53.7864C13.9169 56.0238 9.73692 58.1147 5.60612 60.0115C4.86846 60.3517 5.50776 61.3733 6.24538 61.0813C9.34349 59.671 12.4908 58.1147 15.6381 56.5099C13.8677 58.2122 12.1957 59.9626 10.7205 61.9569C9.49105 63.5617 8.3108 65.1665 6.93388 66.6253C5.45856 68.2301 3.24564 70.6616 1.0327 71.0022C0.786819 71.0507 0.639291 71.1967 0.590113 71.3912C-0.196709 71.5858 0.147525 72.753 0.934347 72.5584C9.73692 70.4671 20.3099 65.215 19.3755 54.662C19.3755 54.6135 19.3263 54.5645 19.3263 54.516C22.8178 52.5707 26.3094 50.5282 29.7025 48.3398C25.2767 55.2941 19.6706 62.7346 22.9654 71.0992C23.2604 71.8288 24.4407 71.4883 24.1456 70.7591C24.1456 70.7106 24.0964 70.6616 24.0964 70.5646C24.1948 70.516 24.2439 70.4186 24.2931 70.2726C25.6209 65.7501 28.719 62.1999 30.8827 58.0662C32.8498 54.3215 33.5875 50.0421 33.3908 45.8109C33.3908 45.7623 33.3908 45.7623 33.3908 45.7623C36.5872 43.4768 39.6362 41.0449 42.4883 38.4676C40.2263 43.6714 37.7675 48.9234 36.243 54.3215C34.6202 60.0115 36.2922 66.2363 37.915 71.7803C38.1117 72.461 39.1936 72.2664 39.1444 71.5858L39.1936 71.5372C41.2589 69.0083 41.8491 66.0417 42.5868 62.9292C43.4719 59.0874 45.4881 55.7803 47.3076 52.3276C50.2583 46.589 50.3565 40.3157 45.7339 35.4525C49.4224 31.7565 52.717 27.72 55.422 23.3432C57.1429 29.0817 56.1103 35.112 55.5692 40.9964C54.93 47.8537 56.2084 53.7864 58.569 60.2061C58.569 60.2061 58.569 60.2061 58.569 60.2546C58.6675 60.8382 59.6511 61.0327 59.7493 60.3517C61.1754 52.6196 63.2407 44.6926 63.585 36.8141C63.8308 30.9297 61.7655 24.7535 56.4546 21.6411C58.225 18.5287 59.7002 15.2217 60.831 11.7202C62.2575 16.0971 64.0275 20.2794 66.9782 23.9268C68.4534 25.7261 70.2729 27.1851 72.2891 28.3522C74.6988 29.7625 77.5513 30.0543 79.9115 31.5133C80.4035 31.8051 80.846 31.3674 80.7969 30.9297C80.846 30.8324 80.846 30.6866 80.7969 30.5407C79.3213 25.6775 76.9612 21.1548 73.5679 17.3128C70.2729 13.5196 65.1587 12.547 61.5688 9.19137C62.3066 6.41938 62.8472 3.55011 63.1425 0.583578C63.2407 -0.194526 62.0113 -0.194526 61.9131 0.583578C61.4211 5.44675 60.2903 10.0181 58.6181 14.2977C57.4382 12.2552 54.8318 12.012 52.5694 11.7689C49.078 11.3798 45.5372 11.5743 42.0458 12.1579C35.0627 13.2278 28.5223 16.4375 23.1621 20.9602C22.5719 21.4952 23.4571 22.3219 24.0473 21.8356C24.1456 21.7383 24.2439 21.6897 24.2931 21.6411C24.3915 21.6897 24.5882 21.7383 24.7357 21.6897C34.8661 19.015 48.4388 24.5103 57.192 17.5074C56.6018 18.7718 55.9626 19.9876 55.2743 21.1548C54.979 21.2034 54.7333 21.4952 54.8809 21.8842C53.6515 23.9754 52.3236 25.9693 50.8484 27.8659C47.5534 23.2945 41.2589 23.1 36.0955 23.8295C28.5715 24.8994 21.7851 29.179 15.6873 33.3613C15.048 33.799 15.6381 34.8689 16.3266 34.4312C16.3757 34.4312 16.3757 34.3826 16.4249 34.3826C16.5233 34.4312 16.6216 34.4798 16.7692 34.4312C23.3096 33.799 29.8009 33.1181 36.3413 32.4859C40.8655 32.0482 45.1932 31.416 49.3729 29.7139C48.0454 31.3188 46.6193 32.875 45.1437 34.3826C44.947 34.2853 44.7012 34.2853 44.5045 34.3826C44.4064 34.2366 44.2587 34.1394 44.0129 34.1394C38.4559 34.6743 32.6531 34.8689 27.2437 36.2306C21.8343 37.5922 16.9658 41.4829 12.2941 44.352C12.1957 44.4006 12.1466 44.498 12.0974 44.5466C11.8515 44.7411 11.6548 44.9842 11.4581 45.3247C11.2614 45.6652 11.5073 46.2974 11.999 46.2489C20.1131 45.3247 29.7517 45.1787 37.3249 41.3855C35.5053 42.8443 33.5875 44.255 31.6696 45.6163C31.4729 45.6163 31.3253 45.7138 31.227 45.9083C31.227 45.9083 31.227 45.9083 31.227 45.9569C28.9649 47.5131 26.6044 49.0205 24.2439 50.4312C21.5884 48.0967 17.6543 48.7289 14.3595 49.215C9.49105 49.9446 4.81926 51.9385 0.442585 54.0299C0.0491726 54.1269 -0.0491801 54.37 -3.70853e-06 54.6135ZM62.0608 39.7807C61.4706 45.8109 60.0936 51.8414 58.9133 57.8231C58.0283 55.3427 57.2905 52.8627 56.7986 50.2852C56.1593 46.9295 56.5037 43.4279 56.7986 40.0723C57.0448 37.3977 57.3887 34.6743 57.4873 31.9996C57.5363 31.9996 57.5854 32.0482 57.6349 32.0482C58.4213 32.0482 58.4213 30.8324 57.6349 30.8324C57.5854 30.8324 57.5363 30.8324 57.4873 30.8811C57.4873 28.5954 57.3396 26.3097 56.7986 24.0726C56.848 24.1213 56.8971 24.2186 56.9462 24.2672C57.4382 24.948 57.8316 25.7261 58.225 26.5042C59.0115 28.0118 59.4544 29.6167 59.7984 31.2701C60.5361 34.7716 60.1918 38.6621 60.0445 42.2607C59.9951 42.7958 60.831 42.7958 60.8805 42.2607C61.0772 38.2731 61.2739 34.188 60.438 30.2489C60.1427 28.9358 59.5526 26.8933 58.6675 25.1912C62.1098 28.9358 62.6014 34.6257 62.0608 39.7807ZM78.6821 28.3036C77.6495 26.9905 76.4692 25.8234 75.0922 24.7535C72.7811 23.0028 70.3224 21.5438 68.7977 19.015C68.5029 18.5773 67.8142 18.9663 68.1094 19.404C69.3388 21.3979 71.0597 22.8082 72.9778 24.1699C75.1417 25.7748 77.0593 27.331 78.5345 29.4708C77.6495 29.0817 76.7645 28.7899 75.83 28.4981C73.1745 27.6228 71.0107 26.2611 68.9944 24.3158C65.3554 20.7657 63.4374 15.8539 61.9131 11.088C64.9129 13.3251 68.601 14.4436 71.4532 16.9724C74.7482 19.8417 77.0593 24.0726 78.6821 28.3036ZM28.5223 19.8417C36.5872 17.7992 45.1437 18.4314 53.2581 16.5347C53.7497 16.4375 53.553 15.6108 53.0614 15.7566C44.6521 17.7505 35.7512 16.9724 27.4404 19.3068C31.227 16.7779 35.407 14.9299 39.882 13.8114C42.6359 13.1305 45.4881 12.8388 48.2912 12.7415C51.0452 12.6928 56.5528 12.4011 57.8316 15.319C50.4059 22.8569 38.3576 19.0636 28.5223 19.8417ZM28.5223 59.817C26.7519 62.7836 24.7357 65.5066 23.5063 68.7163C21.736 60.6437 28.1289 53.4463 32.0138 46.735C32.063 46.6865 32.1122 46.6865 32.1614 46.6375C32.2597 51.3549 30.9811 55.6832 28.5223 59.817ZM44.6031 54.7105C43.3242 56.9964 42.2425 59.2819 41.5542 61.8109C40.7673 64.68 40.423 67.6465 38.7018 70.127C37.079 64.3884 36.0463 58.6012 38.0133 52.7167C39.8329 47.2211 42.3901 41.872 44.6521 36.5223C45.3899 41.872 44.5045 46.9781 42.1934 51.9385C40.5706 55.4401 38.751 58.7958 38.4068 62.6861C38.3576 63.2212 39.1936 63.2212 39.2427 62.6861C39.6362 57.7256 42.6359 53.5433 44.3078 48.9234C45.6848 45.1787 45.9801 41.0939 45.5372 37.1546C50.0616 42.6987 47.7996 48.9234 44.6031 54.7105ZM34.1284 31.4647C28.8665 31.9996 23.6047 32.5346 18.3428 33.0209C22.6211 30.2002 27.047 27.6714 31.9155 26.0179C37.1282 24.2672 45.5372 23.2459 49.4715 28.0604C42.7341 27.3796 36.0463 27.5255 29.3583 28.5954C28.8174 28.6927 29.0632 29.4708 29.555 29.3735C35.6037 28.4009 41.6524 28.2063 47.701 28.6927C47.7501 28.7899 47.7996 28.8872 47.9468 28.9358C43.4719 30.5407 38.8985 30.9784 34.1284 31.4647ZM27.5388 37.3977C32.4564 35.9388 37.9642 35.8415 43.0784 35.4038C36.0463 43.5254 23.9489 43.817 13.7694 44.8382C18.1461 42.0661 22.5719 38.9053 27.5388 37.3977ZM5.45856 69.9324C7.03224 68.5221 8.45832 66.7713 9.5894 65.4581C12.3924 62.1025 14.9496 58.8928 18.1461 55.8778C18.1461 63.2212 11.9991 67.5495 5.45856 69.9324ZM22.7687 50.9173C16.5232 53.7379 9.78608 54.2244 2.99975 54.1269C5.80279 52.8627 8.70423 51.7925 11.704 50.9658C14.8021 50.1392 19.7689 48.972 22.7687 50.9173Z" fill="#5DA65B"/>
</g>
</svg>
