<svg width="150" height="126" viewBox="0 0 150 126" fill="none" xmlns="http://www.w3.org/2000/svg">
<g clip-path="url(#clip0_9_3101)">
<mask id="mask0_9_3101" style="mask-type:luminance" maskUnits="userSpaceOnUse" x="-50" y="0" width="250" height="126">
<path d="M-49.7014 0.0380859H200V125.499H-49.7014V0.0380859Z" fill="white"/>
</mask>
<g mask="url(#mask0_9_3101)">
<path d="M111.071 43.2217C111.042 43.2829 111.103 43.3117 111.074 43.3729C111.234 45.3967 107.662 47.9007 106.104 48.5118C103.649 49.4465 101.019 49.1747 99.0237 47.4054C93.8482 49.6743 88.8294 52.2421 84.0889 55.1666C86.3766 54.9016 88.618 55.3639 89.056 57.7444C89.1198 57.9245 89.1517 58.0146 89.1256 58.2271L89.0966 58.2882L89.0676 58.3494C89.0386 58.4106 89.0386 58.4106 89.0096 58.4718C89.0096 58.4718 89.0096 58.4718 88.9806 58.533L88.9517 58.5942C88.8647 58.7778 88.6849 58.8425 88.5051 58.9072C85.681 59.5176 82.4017 59.9872 80.3051 57.6453C75.092 61.0952 70.2182 64.9306 65.6228 69.1227C66.223 68.9575 66.7942 68.8535 67.3335 68.6594C68.7745 68.293 70.2765 67.9554 71.7175 67.589C71.8654 67.4343 72.0741 67.3085 72.3757 67.3014C72.5264 67.2979 72.5874 67.3267 72.6772 67.2944C80.0042 65.5202 87.3051 63.9585 94.6379 62.4869C94.6379 62.4869 94.667 62.4256 94.7279 62.4544C96.8473 61.2855 98.8769 60.149 100.996 58.98C98.6533 56.3715 99.2416 52.454 102.126 50.2989C102.364 50.1118 102.576 50.1372 102.788 50.1625C103.112 49.7918 103.834 49.6843 104.058 50.3146C105.125 52.4686 105.261 54.8561 104.458 57.0233C108.607 54.7178 112.666 52.4446 116.816 50.1391C116.784 50.0491 116.813 49.9879 116.781 49.8978C116.433 49.0586 116.56 47.8451 116.665 46.9954C117.021 45.1412 118.288 43.5684 119.836 42.5035C119.978 42.0462 120.544 41.6397 121.092 41.8993C122.646 42.7105 123.04 44.396 122.8 46.0055C122.693 46.704 122.342 47.2871 121.869 47.8125C123.594 48.1053 125.213 49.0966 126.152 50.8905C126.309 51.1894 126.254 51.4631 126.167 51.6467C126.201 51.888 126.025 52.1039 125.726 52.2621C123.931 53.0604 122.192 53.585 120.223 53.1769C119.193 52.9889 118.245 52.315 117.625 51.4215C111.745 54.7054 105.775 58.0216 99.8947 61.3055C111.556 59.0372 123.224 57.0714 134.953 55.1344C138.452 50.423 143.48 49.8825 149.073 50.509C150.01 50.578 150.097 51.968 149.346 52.1368C149.47 52.3457 149.476 52.6482 149.331 52.9542C148.259 55.2185 146.475 56.6217 144.199 57.4917C141.535 58.5523 138.647 57.4089 136.069 56.7123C136.008 56.6834 135.947 56.6546 135.825 56.5969C116.489 59.8002 97.2157 63.1835 78.1719 67.4996C92.5856 68.7079 106.883 68.5874 121.218 67.2859C120.746 66.2377 121.23 64.7436 121.995 63.7574C123.584 61.6627 126.225 60.9659 128.629 60.4561C129.041 59.9018 130.012 60.2121 130.117 60.936C130.212 61.2061 130.218 61.5086 129.98 61.6957C129.644 63.035 128.972 64.14 128.145 65.0974C129.401 64.4932 130.624 63.799 131.877 63.0436C131.906 62.9824 131.967 63.0113 132.057 62.9789C132.639 58.759 138.424 59.9258 141.393 59.0095C142.442 58.6825 142.866 60.3068 141.816 60.6338L141.787 60.695C139.949 63.9454 136.212 67.2703 132.451 64.6644L132.39 64.6356C131.138 65.3909 129.914 66.0851 128.569 66.7216C131.918 66.7345 136.125 67.4539 137.152 70.6377C137.378 71.4193 136.601 71.8005 136.024 71.6021C135.905 71.6956 135.815 71.728 135.696 71.8215C133.148 72.6373 130.492 72.5779 127.94 71.6688C126.542 71.1566 124.86 69.9853 125.043 68.4982C119.322 69.0851 113.599 69.5208 107.84 69.7151C110.482 70.5919 112.894 72.1094 114.182 74.7425C114.307 74.9514 114.28 75.1638 114.283 75.315C114.292 75.7688 113.999 76.2295 113.457 76.2724C110.505 76.5226 107.803 75.617 105.327 73.9194C104.135 73.13 101.87 71.4577 101.206 69.8693C91.7651 69.9677 82.3764 69.6412 72.918 68.8321C70.726 69.3673 68.6239 69.8701 66.4319 70.4052C50.6703 74.403 34.2794 78.6274 18.0651 77.9149C25.0561 80.6272 32.3631 82.5152 39.8005 83.3409C39.7975 81.6161 41.2761 80.0687 42.6446 79.0685C44.996 77.41 47.7275 76.6804 50.54 77.0387C51.1141 77.0859 51.5462 77.5903 51.2853 78.1411C51.2592 78.3535 51.1114 78.5082 50.9025 78.6344C49.2557 80.8516 47.1479 82.6255 44.7558 83.7402C48.592 83.9839 52.4222 83.9252 56.2786 83.654C56.4294 83.6505 56.5802 83.647 56.673 83.7658C63.9884 81.3865 71.4633 79.4576 78.9759 77.9212C79.5119 72.855 86.8013 72.2619 90.994 72.225C91.5275 71.7284 92.6525 72.1865 92.3974 73.0397C91.638 75.902 88.6226 77.5456 85.4419 78.4366C86.9033 79.129 88.1299 80.1596 89.1216 81.5286C89.2753 81.6763 89.4 81.8852 89.4638 82.0653C89.9626 82.9011 88.771 83.6853 88.2171 83.1232C84.7377 84.1725 81.061 82.8053 79.1297 79.6425L79.0978 79.5525C72.2463 80.9524 65.4325 82.7449 58.7752 84.8367C61.9243 87.0028 65.3922 88.4958 69.2371 89.1933C69.5502 88.2176 70.7361 87.1307 71.3595 86.6017C73.0527 85.2308 75.2128 84.6056 77.3585 84.7978C78.295 84.8668 78.4111 86.1957 77.6921 86.4545L77.6631 86.5157C77.1761 87.8585 76.2918 88.9383 75.2509 89.719C76.6659 89.5651 78.1417 89.4399 79.5567 89.286C82.3979 84.8623 87.9564 86.8212 92.1637 87.5405C92.7089 87.6488 92.8394 88.1603 92.7263 88.5563C92.8829 88.8553 92.8598 89.2189 92.593 89.4672C89.3748 93.1128 83.3091 96.1592 79.8613 91.0039C79.8004 90.975 79.7685 90.8849 79.7975 90.8237C78.4724 90.9453 77.0573 91.0995 75.7322 91.2211C76.6195 91.8663 77.33 92.7273 77.7766 93.9879C77.8404 94.168 77.8143 94.3805 77.7274 94.5641C77.826 94.9854 77.6839 95.4427 77.1736 95.5756C73.8131 96.5313 70.0291 94.2891 69.33 90.8858C69.2082 90.8281 69.1763 90.738 69.1154 90.7092C64.4529 89.8492 60.2542 88.01 56.5774 85.0693C56.5165 85.0405 56.4875 85.1017 56.4266 85.0728C51.1843 85.4368 45.9332 85.347 40.7343 84.8323L40.6444 84.8647C40.4037 84.9005 40.253 84.904 40.0993 84.7563C31.0294 83.7566 22.203 81.2988 13.8347 77.5593C13.652 77.4727 13.5592 77.3538 13.4664 77.2349C9.4447 76.7534 5.47806 75.9983 1.50269 74.7895C0.47043 74.4503 0.922633 72.8662 1.98389 73.1441C10.5406 75.6991 19.1813 76.3456 27.8596 75.811C27.9176 75.6886 28.0364 75.595 28.1553 75.5015C32.0869 72.8681 36.1114 70.3534 40.1677 67.9289C38.1292 67.0382 38.4392 64.3377 38.7638 62.3934C39.3058 59.2034 41.486 56.4897 44.0751 54.6441C44.5217 54.3311 44.9479 54.533 45.1654 54.8609C45.3481 54.9474 45.5307 55.0339 45.6265 55.3041C46.3863 57.1626 45.7572 58.9627 45.3108 60.8493C44.8935 62.6747 44.2644 64.4747 43.4208 66.0982C48.9123 63.0049 54.4995 60.1817 60.2722 57.5964C59.776 52.1911 66.3112 48.4684 70.5966 46.9767C70.6865 46.9444 70.8373 46.9408 70.9881 46.9373C71.5013 46.9556 72.0522 47.3666 71.8232 48.0074C70.684 51.5139 68.5675 54.4077 65.7725 56.5305C67.9733 56.4491 70.1538 56.8826 72.056 58.533C72.578 59.0051 72.2591 59.6782 71.7198 59.8723C71.6908 59.9335 71.6009 59.9659 71.511 59.9982C68.1912 61.4977 63.5548 61.9988 60.7566 59.2496C50.0548 64.3704 40.1736 69.8051 30.7591 75.9857C41.4497 74.9807 52.0503 72.4342 62.4072 69.7725C62.4652 69.6501 62.5232 69.5277 62.6421 69.4342C69.3076 63.0756 76.5937 57.6104 84.4076 52.9198C82.343 50.6679 84.1781 47.2662 86.2221 45.3122C86.4599 45.1251 86.7295 45.0281 86.9122 45.1146C87.2369 44.7439 87.7472 44.6111 88.1184 45.0867C89.5393 46.8088 89.0668 48.9078 88.0783 50.8373C91.3923 49.0354 94.7382 47.3235 98.1799 45.8817C98.1159 44.128 100.331 43.2292 101.83 42.7404C104.706 41.7052 107.658 41.455 110.714 41.9287C111.5 42.0012 111.515 42.7574 111.071 43.2217ZM102.938 51.7326C100.947 53.2617 100.816 55.8975 102.269 57.7097C103.411 55.928 103.701 53.7424 102.938 51.7326ZM120.993 46.1988C121.492 45.4609 121.382 44.4345 120.857 43.8112C119.993 44.3761 119.373 45.0562 118.848 46.0065C118.761 46.1901 118.332 47.4106 118.227 48.2603C118.256 48.1991 118.317 48.228 118.346 48.1668C119.425 47.7786 120.379 47.1814 120.993 46.1988ZM124.346 51.0838C123.107 49.4482 120.956 48.9534 119.164 49.9029C119.26 50.1731 119.234 50.3855 119.118 50.6303C120.141 52.0893 122.638 51.6984 124.346 51.0838ZM148.05 52.1972C143.909 51.8092 139.995 52.2028 137.098 55.3266C138.737 55.803 140.375 56.2793 142.065 56.3308C144.692 56.4513 146.977 54.4615 148.05 52.1972ZM127.942 62.3785C126.95 62.5832 126.052 62.9067 125.124 63.2914C124.764 63.4208 122.39 65.443 122.497 66.3181L122.587 66.2856C124.996 66.0783 126.927 64.5204 127.942 62.3785ZM139.592 61.0789C137.061 61.2285 133.863 61.212 133.608 63.6389C135.986 64.9151 138.183 63.1089 139.592 61.0789ZM131.153 70.868C132.423 71.02 133.716 70.8084 135.006 70.4455C133.399 68.4856 128.905 68.5295 126.736 68.701C126.157 69.9249 130.578 70.8208 131.153 70.868ZM106.788 73.0381C108.348 74.1517 110.169 74.7146 112.071 74.7915C110.241 72.2013 106.994 71.1874 103.906 70.6237C103.998 70.7426 104.059 70.7714 104.12 70.8002C104.92 71.629 105.84 72.3641 106.788 73.0381ZM48.7626 78.7447C47.6173 78.8016 46.4749 79.0097 45.3673 79.4591C44.2597 79.9085 41.427 81.6387 41.3981 83.2735C44.2802 82.5408 46.8143 80.9688 48.7626 78.7447ZM90.1243 74.0609C86.8362 74.0768 81.6258 74.5307 80.7533 77.789C83.734 77.4776 88.3007 76.4939 90.1243 74.0609ZM87.1065 81.8478C85.5638 80.0679 83.2238 79.1842 80.8462 79.4816C82.3019 81.445 84.7637 82.3864 87.1065 81.8478ZM75.7668 86.7413C75.0448 86.8489 74.3228 86.9565 73.6357 87.3054C72.9485 87.6542 71.3073 88.6004 70.8435 89.5796C70.9044 89.6084 70.9363 89.6985 70.9363 89.6985C72.9891 89.7718 74.8971 88.5772 75.7668 86.7413ZM90.659 89.3003C87.4173 88.5888 83.1085 87.2969 80.995 90.342C81.0558 90.3708 81.1486 90.4898 81.2414 90.6087C83.7874 94.3627 88.1424 91.7797 90.659 89.3003ZM75.8862 94.5161C75.0654 92.6287 73.0618 91.9792 71.1249 91.6611C71.8847 93.5197 73.7782 94.7164 75.8862 94.5161ZM43.971 57.0674C42.6634 58.0964 41.6921 59.3597 40.9065 60.8608C40.2948 61.9947 38.8395 66.3257 40.8112 66.8851C40.8112 66.8851 40.8112 66.8851 40.8721 66.914C41.8405 65.4995 42.4753 64.0019 42.9855 62.2954C43.4117 60.9237 44.2727 58.634 43.971 57.0674ZM69.1703 49.6729C65.8794 51.1112 61.7971 53.748 61.5944 57.3236C64.9722 55.7018 67.6657 53.0064 69.1703 49.6729ZM69.2957 59.3234C67.1616 58.1626 64.6332 58.4634 62.2614 59.0633C64.2477 60.3789 67.0486 60.1322 69.2957 59.3234ZM82.4971 57.1101C83.8687 57.8348 85.5852 57.6738 87.177 57.304C86.4636 56.2917 84.1469 56.6179 82.4971 57.1101ZM87.1849 46.7424C85.9411 47.9515 84.2653 50.2298 85.5616 51.7431C86.5908 50.3574 87.8461 48.1796 87.1849 46.7424ZM104.533 43.646C103.871 43.7824 99.7281 44.8168 99.9283 45.8108C101.314 47.2917 103.158 47.4909 105.081 47.0528C106.012 46.8193 108.665 45.1538 109.273 43.8687C109.181 43.7498 109.117 43.5697 109.143 43.3573C107.632 43.2411 106.095 43.3373 104.533 43.646Z" fill="#C1E1C0"/>
</g>
</g>
<defs>
<clipPath id="clip0_9_3101">
<rect width="150" height="126" fill="white"/>
</clipPath>
</defs>
</svg>
