<svg width="168" height="172" viewBox="0 0 168 172" fill="none" xmlns="http://www.w3.org/2000/svg">
<g clip-path="url(#clip0_34_12)">
<mask id="mask0_34_12" style="mask-type:luminance" maskUnits="userSpaceOnUse" x="-3" y="-3" width="174" height="178">
<path d="M170.989 66.6065L72.4749 -2.04456L-2.98945 105.394L95.5252 174.045L170.989 66.6065Z" fill="white"/>
</mask>
<g mask="url(#mask0_34_12)">
<path d="M41.0296 136.063C39.8872 135.267 39.5786 133.854 39.7404 132.769C39.8413 132.34 39.9895 131.844 40.2318 131.214C40.696 129.841 41.1871 128.286 40.3809 127.724C40.1791 127.584 39.9977 127.557 39.7492 127.484C39.1577 127.471 38.5591 127.752 37.9609 128.034C37.2011 128.403 36.2798 128.86 34.8681 128.874C33.9607 128.741 33.329 128.501 32.7914 128.126C32.5896 127.985 32.3209 127.798 32.1663 127.591C30.6141 125.81 31.5223 123.947 32.2893 122.285C32.8409 121.072 33.4127 119.973 32.6332 119.23C32.566 119.184 32.4788 119.023 32.4116 118.976C31.874 118.601 31.074 118.742 30.1597 118.904C28.8352 119.08 27.3495 119.342 26.0054 118.406C25.7365 118.218 25.4478 117.917 25.226 117.662L25.0715 117.455C24.0906 115.574 24.871 114.32 25.6041 113.134C26.1961 112.149 26.788 111.163 26.4523 109.931C26.2776 109.61 26.0558 109.355 25.8542 109.215C25.3838 108.887 24.8394 108.807 24.1805 108.748C23.5219 108.688 22.6816 108.601 21.781 108.173C21.5324 108.1 21.3307 107.959 21.1963 107.866C20.1883 107.163 19.624 105.971 19.6179 104.27C19.5776 104.042 19.5776 104.042 19.6918 104.022C19.9346 102.394 20.9365 101.395 21.7301 100.55C22.5707 99.6385 23.317 98.861 23.0958 97.6084C23.0555 97.3807 22.9009 97.1733 22.6321 96.9859C22.2961 96.7518 21.7315 96.5579 21.167 96.364C20.5353 96.1233 19.8562 95.95 19.3186 95.5753L19.2514 95.5285C18.9826 95.3412 18.492 94.8995 18.21 94.3034C18.21 94.3034 18.1226 94.1428 18.1697 94.0758C17.4713 91.7923 18.9375 90.4174 20.1007 89.3314C21.0086 88.4664 21.7753 87.8024 21.4325 86.8652C21.3454 86.7042 21.2581 86.5436 21.1237 86.4499C20.8548 86.2626 20.5589 86.2564 20.243 86.136C18.7911 85.9229 17.5276 85.4416 16.5196 84.7391C15.2427 83.8493 14.497 82.6307 14.5712 81.3849C14.5648 80.6815 14.9213 80.0315 15.4525 79.7028C15.4796 79.5216 15.6409 79.4345 15.8694 79.3942C33.0723 77.7045 40.5698 71.448 48.4643 64.7691C50.6697 62.9118 53.0367 60.967 55.5852 59.0489C70.2839 48.5258 87.4673 44.726 97.4547 49.8888C97.6561 50.0292 97.858 50.1698 97.9923 50.2634C99.8741 51.5748 100.835 53.3424 101.183 55.9814C103.415 54.9411 110.237 58.1974 111.312 58.9467C111.38 58.9935 111.38 58.9935 111.38 58.9935L111.823 59.5022C112.912 60.6602 113.624 61.3563 115.693 64.3956C123.312 75.4955 120.376 90.2219 117.52 104.406C114.941 117.483 112.308 130.924 117.869 141.389C117.977 141.664 118.084 141.938 117.809 142.046C117.607 142.903 117.001 143.48 116.127 143.869C115.368 144.238 114.433 144.286 113.573 144.085C113.143 143.986 112.491 143.631 111.906 143.323C111.254 142.969 110.67 142.661 110.307 142.608C110.125 142.582 109.849 142.689 109.849 142.689C108.861 143.098 108.471 144.224 108.148 145.397C107.656 146.951 107.158 148.8 104.826 149.271C103.178 149.621 101.74 148.818 100.732 148.116C100.463 147.929 100.262 147.788 100.06 147.648C99.8586 147.507 99.724 147.413 99.5897 147.32C99.5225 147.273 99.3882 147.179 99.321 147.133C98.2656 146.497 96.4708 146.345 95.146 147.518C94.8436 147.806 94.6081 148.141 94.3726 148.477C93.4581 149.636 92.4965 150.863 90.5804 151.025C89.6931 151.006 88.9469 150.786 88.2078 150.271C87.5356 149.802 87.005 149.133 86.5615 148.624C86.3396 148.37 86.118 148.116 85.9632 147.908C85.8289 147.814 85.7618 147.768 85.6274 147.674C85.0895 147.299 84.5454 147.219 83.8125 147.407C82.784 147.589 82.3133 148.259 81.6541 149.198C81.5128 149.399 81.3716 149.6 81.2305 149.801C80.3829 151.008 79.0715 151.592 77.8487 151.338C77.1898 151.278 76.6723 151.018 76.269 150.737C75.3281 150.081 74.8981 148.983 74.4886 147.998C74.1664 147.175 73.864 146.465 73.3261 146.09C73.2589 146.043 73.2589 146.043 73.1918 145.997C71.9553 145.334 70.9129 146.106 69.7969 147.125C69.1241 147.655 68.4519 148.184 67.6451 148.62C66.2669 149.158 65.0837 149.132 64.0756 148.429C63.9413 148.336 63.7398 148.195 63.6522 148.034C62.5838 146.991 62.7524 145.611 62.874 144.297C62.9686 143.165 63.1032 142.261 62.3641 141.746C62.0951 141.558 61.6649 141.458 61.1877 141.425C60.0516 141.332 58.7879 141.849 57.5239 142.366C56.0312 142.923 54.4445 143.615 52.9252 143.355C52.3811 143.275 51.9307 143.061 51.4603 142.733C50.4522 142.031 49.7536 140.745 49.6935 139.405L49.7405 139.338C49.687 138.702 49.8148 138.092 49.8488 137.617C49.9364 136.779 49.9973 136.123 49.621 135.661C49.4863 135.567 49.4664 135.453 49.3321 135.359C48.5255 134.797 47.3086 135.247 46.3873 135.704C43.51 137.093 41.9034 136.672 41.0296 136.063ZM40.724 126.665C42.404 127.836 42.0204 129.666 41.7106 131.247C41.6295 131.789 41.5018 132.399 41.5151 132.807C41.4746 133.578 41.6891 134.127 42.1595 134.455C42.6971 134.829 43.5377 134.916 44.6132 134.667C44.8417 134.627 45.0703 134.586 45.3461 134.479C46.6503 134.19 48.5528 133.619 49.8969 134.555C50.0313 134.649 50.1656 134.743 50.3204 134.95C51.1 135.693 51.0995 136.691 51.1193 137.803C51.1726 138.439 51.112 139.096 51.2999 139.826C51.5552 140.603 51.9514 141.179 52.489 141.553C53.7661 142.443 55.5546 141.892 57.5041 141.254C59.521 140.663 61.5377 140.072 63.0162 141.102C63.4195 141.383 63.7754 141.731 64.0376 142.213C64.4744 143.017 64.4741 144.015 64.5004 144.832C64.5001 145.83 64.5268 146.647 65.1514 147.183C65.7565 147.604 66.5566 147.463 67.1749 147.295C67.7936 147.127 68.3717 146.731 68.9501 146.335C70.2679 145.457 71.8615 144.47 73.7769 145.306C73.9116 145.4 74.0459 145.493 74.1802 145.587C74.9868 146.149 75.4904 146.999 75.9272 147.803C76.3438 148.492 76.6459 149.202 77.1835 149.577C77.3178 149.671 77.4525 149.764 77.6338 149.791C79.0588 150.185 79.7111 149.541 80.4372 148.65C81.184 147.872 82.1186 146.826 84.0814 146.597C85.4732 146.468 86.3268 146.963 86.8644 147.338C87.1331 147.525 87.402 147.712 87.624 147.967C87.8926 148.154 88.1145 148.408 88.3832 148.596C88.8536 148.923 89.3711 149.184 89.9156 149.264C90.9573 149.491 91.8384 148.807 92.8606 147.922C94.6489 146.373 96.8548 144.516 101.075 147.057C102.715 148 103.891 148.321 104.786 148.046C105.841 147.683 106.346 146.537 106.85 145.391C107.476 143.93 108.169 142.516 109.729 142.006C110.643 141.844 111.57 142.091 112.498 142.338C113.923 142.732 115.234 143.146 116.673 141.953C110.573 131.113 112.964 118.303 115.577 104.749C118.534 89.1381 121.592 73.0987 110.579 60.1329C110.512 60.0861 110.445 60.0393 110.378 59.9925C108.899 58.9622 102.991 56.5425 101.452 57.1667C101.29 57.254 101.129 57.3412 101.102 57.5221C101.075 57.7029 100.981 57.837 100.819 57.9242C100.705 57.9445 100.524 57.9179 100.389 57.8241C100.255 57.7305 100.235 57.6166 100.215 57.5028C100.161 55.8683 100.074 55.7077 99.9464 55.3191C99.9263 55.2053 99.8391 55.0447 99.7789 54.7032C99.5103 53.5176 98.6905 52.547 97.481 51.7041C96.0025 50.6738 93.744 49.8987 91.2031 49.5257C90.6585 49.4458 89.9998 49.386 89.2267 49.3466L89.2067 49.2327C71.6014 48.6452 55.7389 61.2527 46.2781 68.7366C43.8439 70.6346 41.7325 72.358 40.0919 73.4111C34.0806 77.4089 25.3677 80.1226 15.9495 80.8478C15.5457 82.5628 17.0172 83.8881 17.622 84.3096C18.0253 84.5906 18.4755 84.8046 18.8589 84.9714C19.0403 84.9981 19.289 85.0716 19.6049 85.192C20.1022 85.339 20.8283 85.4454 21.3659 85.8201C21.9707 86.2415 22.2527 86.8376 22.2121 87.608C22.225 89.0148 21.4045 90.0404 20.7454 90.9788C20.0864 91.917 19.4071 92.7416 19.7025 93.7461L19.5883 93.7663C19.5883 93.7663 19.5883 93.7663 19.6555 93.8131C19.7227 93.86 19.81 94.0206 19.83 94.1348C19.9845 94.3423 20.2735 94.6434 20.6767 94.9244C20.9455 95.1117 21.2143 95.299 21.4832 95.4864C21.752 95.6737 22.0208 95.861 22.2896 96.0484C23.5665 96.9382 23.7074 97.7352 23.7074 97.7352C24.1235 99.423 23.3433 100.676 22.5631 101.929C22.0653 102.781 21.5005 103.585 21.4327 104.536C21.4996 105.581 21.4859 106.171 22.2923 106.733C22.6284 106.967 23.0115 107.134 23.6434 107.375L23.8921 107.448C24.7725 107.762 25.4714 108.05 25.9419 108.378C26.6139 108.846 27.0306 109.535 27.2789 110.607C27.433 111.813 26.9485 113.072 26.4909 114.151C26.0336 115.23 25.6702 116.175 26.0667 116.751C26.2212 116.958 26.2212 116.958 26.1739 117.025C26.1739 117.025 26.2411 117.072 26.3084 117.119C26.3755 117.166 26.4629 117.327 26.5301 117.373C26.5973 117.42 26.6645 117.467 26.7317 117.514C27.2694 117.889 28.271 117.888 29.2726 117.887C30.2743 117.886 32.0087 117.697 32.7681 118.326C35.5437 120.36 31.0177 125.093 33.5716 126.873C33.9074 127.107 34.4722 127.3 35.1308 127.36C35.8368 127.353 36.4552 127.185 37.141 127.064C38.2638 126.748 39.3393 126.499 40.3273 127.088L40.724 126.665Z" fill="#A7B76B"/>
<path d="M92.2555 49.0029C92.1212 48.9093 92.1011 48.7954 92.1278 48.6143C92.1548 48.4334 92.269 48.4132 92.4307 48.3262L92.4979 48.373C92.4979 48.373 92.565 48.4198 92.6121 48.3528C94.9383 48.1765 97.466 48.1407 100.451 49.0225C100.444 49.3172 100.437 49.6122 100.477 49.8399C96.7736 48.5569 92.76 48.8552 92.5512 49.0092C92.3898 49.0965 92.3227 49.0497 92.2555 49.0029Z" fill="#A7B76B"/>
<path d="M110.737 59.1897L110.67 59.1429C109.427 56.7787 108.237 55.0509 106.073 53.1433C106.195 52.8283 106.336 52.6272 106.477 52.426C108.621 54.2197 110.295 56.6841 111.174 58.9949C111.194 59.1088 111.147 59.1758 111.1 59.2428C110.919 59.2163 110.805 59.2365 110.737 59.1897Z" fill="#A7B76B"/>
<path d="M85.5311 146.808C85.464 146.761 85.3965 146.714 85.3764 146.6C84.227 128.429 89.7229 116.187 95.0509 104.327L95.6698 103.161C100.661 92.0649 107.476 76.9482 103.449 62.1626C102.818 59.926 101.81 58.2256 100.399 57.2422C98.7186 56.0714 96.4939 55.8188 93.8588 56.578C78.9692 60.6769 66.4487 74.5124 58.0903 83.5622C46.834 95.8829 31.9087 105.447 31.1023 104.885C31.015 104.725 31.0419 104.544 31.2034 104.456C41.0995 98.7748 50.0282 91.6204 57.667 83.1675C66.0052 74.0038 78.6402 60.1478 93.6442 56.0291C96.4607 55.2966 98.7996 55.5288 100.614 56.7933C102.16 57.8703 103.234 59.6175 103.953 62.0147C106.389 70.8005 105.243 80.9823 100.547 93.083C99.0934 96.8623 97.3915 100.568 95.8308 104.072C90.4086 116.066 84.8185 128.442 86.0151 146.546C86.0349 146.66 85.8938 146.861 85.7125 146.834C85.6654 146.901 85.5983 146.854 85.5311 146.808Z" fill="#A7B76B"/>
<path d="M104.266 56.281C104.199 56.2342 104.112 56.0736 104.071 55.8458L104.051 55.732C103.804 53.663 104.674 45.586 106.751 41.345C108.735 37.2382 112.036 34.2487 115.974 33.2004C118.401 32.5957 120.833 32.6939 122.177 33.6304C122.378 33.7707 122.58 33.9113 122.734 34.1187C123.97 35.7783 123.58 37.9017 123.055 38.9334C121.952 41.3586 119.922 42.5389 117.408 43.9809C113.833 46.0801 109.45 48.6154 104.703 56.0865C104.609 56.2205 104.562 56.2875 104.448 56.3075L104.266 56.281ZM121.868 34.2132C120.726 33.4174 118.656 33.3723 116.545 34.0974C112.116 35.7017 108.445 39.9305 106.811 45.6779C106.023 48.2233 105.599 50.822 105.228 53.0589L104.973 54.278C108.604 47.8259 113.269 44.8888 117.033 42.5213C120.313 40.4158 122.713 38.994 122.781 36.0473C122.794 35.4579 122.58 34.9091 122.271 34.4942L122.318 34.4272C122.251 34.3804 122.116 34.2866 122.049 34.2398C121.935 34.26 121.935 34.26 121.868 34.2132Z" fill="#A7B76B"/>
<path d="M99.7404 56.0209C99.6732 55.9741 99.5857 55.8133 99.5656 55.6995C99.2736 45.7145 99.4771 40.8658 101.831 36.5174C104.353 31.7872 107.989 30.0294 110.53 29.4044C113.803 28.5913 117.27 29.211 119.823 30.9901C120.697 31.5988 121.476 32.3416 121.979 33.1915L122.288 33.6065C122.376 33.7671 122.416 33.9947 122.255 34.082C122.16 34.216 121.932 34.2564 121.798 34.1628L121.731 34.1161C121.133 33.3999 120.421 32.7042 119.681 32.189C116.792 30.1757 112.956 29.7975 109.554 31.22C105.28 33.0319 102.294 37.1398 101.324 42.6523C100.887 44.8427 100.792 46.9724 100.704 48.8073L100.67 49.283C100.629 51.0509 100.508 52.3636 100.507 53.3614C100.46 55.4241 100.426 55.8998 100.238 56.1678C100.191 56.2348 100.076 56.2549 100.009 56.2081C99.8747 56.1145 99.8075 56.0677 99.7404 56.0209Z" fill="#A7B76B"/>
<path d="M105.351 46.7561C105.216 46.6623 105.129 46.5018 105.203 46.254C107.704 42.4083 110.331 40.9463 112.617 39.5449C114.276 38.6059 115.661 37.7744 116.649 36.3673C117.025 35.8313 117.738 34.5317 116.999 34.0167C116.865 33.9231 116.616 33.8497 116.368 33.7762C116.3 33.7294 116.253 33.7964 116.186 33.7496C116.052 33.6561 116.032 33.542 116.012 33.4282C115.992 33.3145 116.086 33.1805 116.2 33.1602C116.476 33.053 117.04 33.2468 117.376 33.4807C117.577 33.6212 117.732 33.8286 117.819 33.9891C118.457 34.9328 117.63 36.2526 117.3 36.7216C116.238 38.3764 114.787 39.1612 113.08 40.1671C110.842 41.5016 108.261 42.8966 105.854 46.6082C105.807 46.6752 105.76 46.7423 105.646 46.7625C105.532 46.7827 105.418 46.8029 105.351 46.7561Z" fill="#A7B76B"/>
<path d="M23.7535 107.635C23.6864 107.588 23.6192 107.541 23.5993 107.427C23.5791 107.313 23.559 107.2 23.606 107.133C23.7471 106.932 24.09 106.871 24.4797 106.744C24.5939 106.723 24.7083 106.703 24.7083 106.703C25.2122 106.555 27.2346 107.665 27.7049 107.993C27.5238 106.968 27.3897 105.877 27.1414 104.806C27.0541 104.645 27.1955 104.444 27.3567 104.357C27.5179 104.27 27.6993 104.297 27.8337 104.39L30.0238 106.116C29.9569 105.071 29.9376 102.962 30.5358 102.68C30.65 102.66 30.7642 102.64 30.8986 102.733C30.9658 102.78 32.175 103.623 32.9073 104.432L33.0419 103.528C33.4257 101.7 33.5536 101.09 33.782 101.05C33.8963 101.03 33.9634 101.077 34.0978 101.17C34.2321 101.264 34.3665 101.358 34.521 101.565C34.8099 101.866 35.166 102.214 35.7034 102.588C35.7706 102.635 35.8378 102.682 35.9721 102.776C36.0466 101.53 36.235 100.264 36.4909 99.0453C36.518 98.8643 36.565 98.7973 36.7263 98.7102C36.8405 98.69 37.0219 98.7167 37.089 98.7635C37.1562 98.8103 37.2435 98.9709 37.3107 99.0178C37.3107 99.0178 37.3779 99.0646 37.4451 99.1114C37.8482 99.3923 38.8828 99.9138 39.4474 100.107C39.4407 99.4044 39.4544 98.8151 39.5554 98.3863C39.5691 97.7969 39.6229 97.4354 39.8314 97.281C40.0397 97.1269 40.5369 97.2739 41.4844 97.6345C41.8673 97.8016 42.3645 97.9486 43.043 98.1222C42.8955 97.6199 42.6948 95.4838 43.2056 95.0414C43.3669 94.9543 43.434 95.0011 43.6154 95.0277L45.4361 95.9973C45.2012 95.3344 44.846 92.9908 45.377 92.6622C45.4912 92.6421 45.6054 92.6219 45.7398 92.7155C45.8741 92.8092 45.9413 92.856 46.0757 92.9496C46.6803 93.371 47.3118 93.6116 48.0376 93.7179L48.2068 90.3429C48.2339 90.1618 48.2809 90.0948 48.4422 90.0077C48.6034 89.9206 48.7848 89.9473 48.9191 90.0409C48.9863 90.0878 49.0535 90.1346 49.0736 90.2483C49.0736 90.2483 49.1409 90.2952 49.2752 90.3888C49.7455 90.7165 50.8472 91.2849 51.2976 91.4985L51.432 91.5921C51.3043 91.204 51.224 90.7485 51.2106 90.3402C51.184 89.5232 51.1104 88.7732 50.8554 87.9966C50.768 87.836 50.9091 87.6351 51.0034 87.5008C51.1647 87.4137 51.3461 87.4404 51.4804 87.534C51.5476 87.5808 51.682 87.6745 51.7492 87.7213C52.3538 88.1427 53.0054 88.4971 53.7512 88.7175C53.6577 87.8534 53.3822 86.9633 52.9458 86.16C52.8585 85.9994 52.8854 85.8186 52.9797 85.6844C53.0738 85.5505 53.3022 85.5102 53.4365 85.6038C54.0683 85.8441 54.814 86.0645 55.5396 86.1712L55.0702 83.8478C55.0299 83.6202 55.0769 83.5533 55.1712 83.419C55.4735 83.131 56.374 83.5585 57.2071 83.9396C57.59 84.1067 57.9058 84.2271 58.2215 84.3474C58.074 83.8451 57.8389 83.1825 57.6712 82.5665C57.5436 82.1783 57.4363 81.9036 57.3759 81.5622C57.2886 81.4016 57.4299 81.2004 57.524 81.0665C57.6852 80.9794 57.7994 80.9592 58.001 81.0997C58.6056 81.521 59.3245 81.9223 60.0704 82.1424C59.7018 79.3905 59.655 78.4598 59.9106 78.2384C60.0718 78.1513 60.3204 78.2248 60.7034 78.3919C61.1535 78.6058 61.8054 78.9599 62.6049 78.8189L62.2835 75.9997C62.2634 75.8859 62.2902 75.7052 62.4515 75.618C62.613 75.5306 62.7272 75.5104 62.8616 75.6041C63.3117 75.818 63.8088 75.965 64.3734 76.1585C64.6892 76.2788 65.0049 76.3991 65.3005 76.4056C65.0052 75.4014 64.5358 73.0779 65.0668 72.7493C65.228 72.6622 65.3422 72.6421 65.4766 72.7357C65.6109 72.8293 65.7453 72.923 65.8797 73.0166C66.4171 73.3911 67.0016 73.6987 67.6331 73.9393C67.5796 73.3031 67.5463 72.7807 67.5799 72.3054C67.5539 70.4904 67.5475 69.7873 67.8699 69.613C68.0314 69.5256 68.233 69.6661 68.5017 69.8533C68.6361 69.947 68.7704 70.0406 68.972 70.1811C69.2407 70.3683 69.5094 70.5556 69.8453 70.7897C70.0469 70.9301 70.2484 71.0706 70.5171 71.2579C70.5577 70.4877 70.5311 69.6708 70.5717 68.9006C70.572 67.903 70.5656 67.1998 70.8411 67.0925C70.9553 67.0724 71.0697 67.0519 71.2041 67.1455C71.4728 67.3328 71.6743 67.4732 71.8759 67.6137C72.4133 67.9882 73.065 68.3426 73.6496 68.6503C73.7909 67.4516 73.9124 66.1389 74.0338 64.8262C74.0607 64.6455 74.155 64.5112 74.2692 64.4911C74.4305 64.404 74.6119 64.4306 74.6791 64.4775C74.9277 64.551 75.1964 64.7382 75.4651 64.9255C75.8682 65.2064 76.3183 65.4203 76.7687 65.634C76.6409 65.2457 76.5347 61.978 77.0187 61.7163C77.1799 61.6292 77.4285 61.7027 77.7644 61.9368C78.3019 62.3114 78.8325 62.9804 79.2087 63.442C79.3634 63.6496 79.4977 63.7432 79.5648 63.7899C79.6252 63.1338 79.7062 62.5913 79.7402 62.1158C79.9824 60.4883 80.0634 59.9458 80.3388 59.8385C80.5002 59.751 80.6348 59.8448 80.7691 59.9384C80.9034 60.032 81.1051 60.1726 81.2595 60.3799C81.5482 60.6813 82.0185 61.0091 82.5559 61.3836L82.8245 61.5707L83.1216 58.5836C83.1485 58.4029 83.1956 58.3359 83.3568 58.2488C83.518 58.1617 83.6995 58.1879 83.8338 58.2815C83.9012 58.3285 83.9211 58.4426 83.9882 58.4894C84.0554 58.5362 84.1426 58.6967 84.4786 58.9309C85.0832 59.3522 85.9365 59.8471 86.4541 60.1076C86.4405 59.6991 86.4274 59.2906 86.4813 58.9291C86.5824 57.5024 86.6232 56.7324 86.9457 56.558C87.107 56.4707 87.2883 56.4973 87.5572 56.6847C87.9604 56.9656 88.6051 57.6145 89.4716 58.5178C89.4986 58.337 89.5726 58.0892 89.5796 57.7946C89.9024 56.6224 90.2994 55.2023 90.9178 55.0344C91.079 54.9472 91.2604 54.9737 91.4621 55.1143C91.5964 55.2079 91.7306 55.3015 91.8182 55.4623L92.765 56.8208C92.9871 56.0773 93.2965 55.4945 93.5789 55.0924C93.8142 54.7574 93.935 54.4423 94.0561 54.1275C94.1503 53.9935 94.2444 53.8595 94.4261 53.8863C94.5402 53.8661 94.5402 53.8661 94.6745 53.9597C94.8088 54.0532 95.0507 54.4214 95.8161 55.7533L96.2529 56.5566L97.3689 54.5399C97.463 54.4058 97.5101 54.3388 97.6243 54.3186C97.7385 54.2984 97.806 54.3454 97.8731 54.3922C98.4105 54.7667 98.9808 56.6612 99.1355 56.8688C99.2296 56.7348 99.3237 56.6008 99.4179 56.4668C99.8144 56.0445 100.164 55.6893 100.5 55.9234L100.567 55.9702C100.721 56.1776 100.694 56.3584 100.553 56.5594L99.1822 57.7996C99.0209 57.8869 98.7922 57.9271 98.6579 57.8335C98.5908 57.7867 98.5236 57.7399 98.5036 57.6261C98.3157 56.8964 98.0136 56.1868 97.7115 55.4772C97.5904 55.792 97.4692 56.1069 97.281 56.3749C96.7834 57.2258 96.5681 57.6746 96.2726 57.6683C96.1584 57.6885 96.0909 57.6415 96.0238 57.5947C95.8224 57.4543 95.5604 56.9723 95.1441 56.283C94.9693 55.9616 94.7074 55.4796 94.4458 54.9979C93.753 56.4114 93.3695 57.2421 93.2955 57.4898C93.383 57.6507 93.2889 57.7847 93.1948 57.9187C93.0335 58.0059 92.8048 58.0461 92.6705 57.9526C92.6034 57.9058 92.6034 57.9058 92.5362 57.859L92.4691 57.8122C91.4548 56.4067 91.0787 55.945 90.9915 55.7844C90.9915 55.7844 90.9444 55.8514 90.9645 55.9652C90.7222 56.5948 90.5741 57.0904 90.4734 57.5193C90.0561 58.8253 89.9283 59.435 89.6526 59.5422C89.5384 59.5624 89.4712 59.5156 89.3369 59.4221C89.2027 59.3285 88.9809 59.0741 88.7594 58.8199C88.4033 58.472 88.0272 58.0102 87.4025 57.4751C87.3887 58.0643 87.3952 58.7675 87.3343 59.4238C87.2807 59.7855 87.2938 60.1941 87.2399 60.5555C87.26 60.6692 87.1657 60.8035 87.0516 60.8237C86.5677 61.0854 85.0897 60.0554 84.4852 59.6341C84.2163 59.4467 84.0149 59.3064 83.8803 59.2126C83.8939 59.621 83.8398 59.9828 83.8531 60.391C83.7115 61.5899 83.6509 62.2464 83.3755 62.3537C83.2613 62.3739 83.1468 62.3938 83.0126 62.3003C82.744 62.1131 82.4751 61.9257 82.2066 61.7386C81.7363 61.4109 81.3332 61.1299 80.9099 60.7352L80.3711 64.3518C80.344 64.5329 80.2499 64.6668 80.2029 64.7338C80.0887 64.754 79.9071 64.7271 79.7728 64.6335C79.4368 64.3994 79.0605 63.9377 78.7048 63.59C78.3487 63.2421 78.0396 62.8273 77.7708 62.64C77.7704 63.6376 77.7498 65.5192 77.8102 65.8611C77.8974 66.0216 77.8705 66.2023 77.7764 66.3362C77.6821 66.4705 77.4538 66.5109 77.2721 66.484C76.3851 66.4648 75.6194 66.1307 74.9475 65.6624C74.8131 65.5688 74.7459 65.522 74.6116 65.4283C74.5103 66.8548 74.2743 69.1854 74.0188 69.4068C73.5816 69.6014 71.432 68.1033 71.3648 68.0565L71.4185 68.6923C71.3908 70.8688 71.4377 71.7996 71.0006 71.9942C70.7251 72.1015 70.3419 71.9347 69.8045 71.5602C69.5358 71.3729 69.267 71.1856 68.9311 70.9515L68.3937 70.577L68.4194 74.387C68.3922 74.5681 68.3452 74.6351 68.2982 74.702C67.7 74.9838 65.9063 73.8335 65.7047 73.6931C65.8388 74.7844 66.0266 75.5143 66.1943 76.1303C66.295 76.6992 66.4023 76.9739 66.2612 77.1748C66.0056 77.3962 65.3741 77.1556 63.4995 76.5479L63.2509 76.4744L63.5792 78.9987C63.5524 79.1795 63.5725 79.2932 63.411 79.3807C62.8803 79.709 61.3816 79.5632 60.7299 79.2088C60.7968 80.2534 60.9309 81.3447 61.0647 82.4364C61.105 82.6639 61.058 82.7309 60.8967 82.818C60.4799 83.1265 59.0823 82.5519 58.4978 82.2444C59.1626 84.0048 59.3034 84.8016 59.0008 85.0899C58.7453 85.3113 58.1809 85.1175 57.3479 84.7364C56.9649 84.5693 56.5148 84.3553 56.0174 84.2087L56.467 86.418C56.4871 86.5318 56.4602 86.7126 56.3458 86.733C55.9292 87.0412 54.5719 86.6942 54.0075 86.5004C54.1618 86.7082 54.8129 89.058 54.3491 89.4334C53.8852 89.8089 51.7757 88.5383 51.7757 88.5383C51.9233 89.0405 51.9568 89.5626 51.9901 90.085C52.0436 90.7213 52.1172 91.4712 52.2852 92.087C52.3725 92.2476 52.2312 92.4488 52.0699 92.5359C51.9087 92.623 51.7273 92.5963 51.5929 92.5027L51.5257 92.4559C49.7721 91.5335 49.1204 91.1791 48.9189 91.0386L48.8035 94.0522C48.8236 94.166 48.7296 94.2999 48.6151 94.3204C48.0172 94.6019 46.4852 93.9337 45.9007 93.6261C46.0012 94.1954 46.0342 95.7155 46.3231 96.0165C46.4776 96.224 46.4507 96.4047 46.2624 96.6729C46.1213 96.8738 45.8456 96.9814 45.597 96.9079L43.7092 95.8915C43.6417 96.8424 43.7825 97.6392 43.8629 98.0946C43.9435 98.5498 43.9835 98.7777 43.8223 98.8648C43.614 99.0189 43.1169 98.8719 41.6722 98.3643L40.4291 97.9972L40.4425 98.4055C40.3818 99.0619 40.3411 99.832 40.2334 100.555C40.2535 100.669 40.1592 100.803 40.045 100.824C39.4468 101.105 37.559 100.089 37.1559 99.808C36.9941 100.893 36.9065 101.73 36.8458 102.387C36.7581 103.224 36.7243 103.699 36.4958 103.74C36.3816 103.76 36.2674 103.78 36.1331 103.686C35.8644 103.499 35.5486 103.379 35.2799 103.191C34.8768 102.911 34.5409 102.676 34.1848 102.329L33.5855 105.604C33.5586 105.785 33.5116 105.851 33.3501 105.939C33.2359 105.959 33.0545 105.932 32.9873 105.886C32.853 105.792 32.8328 105.678 32.8127 105.564C32.7054 105.29 31.6574 104.36 30.9856 103.892C30.9249 104.548 30.9313 105.251 30.8907 106.021C30.9041 106.43 30.8501 106.791 30.9105 107.133C30.8834 107.314 30.7894 107.448 30.6751 107.468C30.5139 107.555 30.3325 107.528 30.2653 107.482L28.2768 105.896C28.5251 106.968 28.6589 108.059 28.7258 109.104C28.6989 109.284 28.6048 109.418 28.5576 109.486C28.3963 109.573 28.2149 109.546 28.0805 109.452C27.879 109.312 27.6103 109.125 27.4088 108.984C26.6698 108.469 25.8367 108.088 24.9765 107.888L24.244 108.076C24.0023 107.708 23.8207 107.682 23.7535 107.635Z" fill="#A7B76B"/>
<path d="M83.1942 146.87C83.0596 146.776 82.9724 146.616 82.9996 146.435C82.9794 146.321 83.0735 146.187 83.2347 146.1L85.8358 144.818C84.8887 144.458 83.941 144.097 83.014 143.85C82.9465 143.803 82.9465 143.803 82.8794 143.756C82.7451 143.663 82.725 143.549 82.7049 143.435C82.6848 143.321 82.7791 143.187 82.9403 143.1C83.888 142.463 84.9229 141.986 85.931 141.691L83.6803 140.621C83.546 140.528 83.5259 140.414 83.5058 140.3C83.5463 139.53 86.0533 138.382 86.0533 138.382C85.7377 138.262 85.4218 138.142 85.1532 137.955C84.8172 137.72 84.4339 137.553 84.2325 137.413C83.8964 137.179 83.8094 137.018 83.8364 136.837C83.8902 136.476 84.6495 136.107 86.3032 135.462L85.7187 135.155L85.2484 134.827C84.5095 134.312 84.1735 134.078 84.2474 133.83C84.2542 133.535 84.6441 133.408 85.5178 133.019C86.0017 132.757 86.6672 132.522 87.4265 132.153L87.2452 132.126C86.5734 131.658 85.7872 131.21 84.9744 130.943L84.9072 130.896C84.7729 130.803 84.7525 130.689 84.7324 130.575C84.7593 130.394 84.8534 130.26 85.0148 130.173C85.2906 130.066 85.6132 129.891 85.8886 129.784C86.6482 129.415 87.4075 129.046 88.1872 128.791C87.9387 128.717 87.737 128.577 87.5355 128.436C87.4684 128.389 87.4013 128.343 87.3341 128.296C86.662 127.828 86.0776 127.52 85.5132 127.326C85.446 127.279 85.446 127.279 85.3789 127.233C85.2446 127.139 85.157 126.978 85.184 126.797C85.2109 126.617 85.3052 126.482 85.4194 126.462L88.4237 125.462L87.8191 125.04C86.5223 124.037 86.0319 123.596 86.086 123.234C86.0928 122.939 86.5968 122.791 87.4706 122.402C88.0689 122.121 88.9628 121.845 89.9779 121.255L87.4649 119.704C87.3303 119.61 87.2433 119.449 87.2702 119.268C87.2972 119.088 87.3912 118.954 87.5056 118.933L90.8995 117.805C90.2077 117.223 89.4954 116.527 88.6894 115.966C88.5547 115.872 88.4677 115.711 88.5618 115.577C88.5887 115.396 88.75 115.309 88.8644 115.289C89.4826 115.121 91.546 114.463 92.1645 114.295C91.5463 113.465 90.747 112.608 89.9679 111.866C89.8333 111.772 89.7931 111.545 89.8874 111.41C89.9143 111.23 90.0755 111.142 90.2568 111.169C90.8954 111.115 91.5139 110.947 92.0851 110.846C92.4749 110.718 92.9316 110.638 93.2747 110.577C93.3889 110.557 93.5031 110.537 93.6844 110.563C93.9131 110.523 94.2088 110.529 94.37 110.442C93.9066 109.82 93.1744 109.01 92.5027 108.542C92.4355 108.495 92.3009 108.401 92.3009 108.401C92.1666 108.308 92.0794 108.147 92.1063 107.966C92.1333 107.786 92.2276 107.651 92.4089 107.678C93.4841 107.429 94.5797 107.295 95.6951 107.273C95.0976 106.557 94.4524 105.908 93.6461 105.346C93.4447 105.206 93.3574 105.045 93.3844 104.865C93.4449 104.208 96.4158 103.683 96.8725 103.602C96.5433 103.074 95.9659 102.471 95.2938 102.003C95.0252 101.816 94.6892 101.582 94.3736 101.462C94.1719 101.321 94.1518 101.207 94.1787 101.026C94.2056 100.846 94.2999 100.711 94.4812 100.738C95.8792 100.315 97.3442 99.9388 98.8296 99.6763C98.3661 99.0541 97.6742 98.4716 97.0025 98.0035C96.7336 97.8161 96.3979 97.5822 96.0817 97.4621C95.8803 97.3217 95.7933 97.1609 95.8873 97.0269C95.9139 96.846 96.0755 96.7591 96.2369 96.6716L99.3885 96.1732C98.8109 95.5712 98.0988 94.875 97.36 94.3601C97.2257 94.2665 97.1381 94.1057 97.165 93.925C97.192 93.7443 97.3534 93.6568 97.5146 93.5697L100.895 93.0309C100.472 92.6364 100.049 92.2417 99.7599 91.9405C98.8933 91.0373 98.47 90.6426 98.5912 90.3276C98.7125 90.0126 99.2833 89.9117 100.655 89.6694C101.226 89.5687 101.911 89.4473 102.644 89.2592C101.865 88.5168 101.24 87.9814 100.817 87.5864C100.393 87.1917 100.192 87.0513 100.219 86.8706C100.293 86.6229 100.683 86.4951 101.966 86.0919C102.585 85.9243 103.412 85.6019 104.467 85.2395C103.58 84.2222 102.707 83.6135 102.169 83.2389C101.766 82.958 101.497 82.7708 101.524 82.5899C101.504 82.4761 101.598 82.3422 101.759 82.255C103.238 81.2895 104.972 81.1003 105.201 81.06C105.201 81.06 105.133 81.0132 105.066 80.9664C104.797 80.779 104.173 80.2439 102.319 78.7518C102.184 78.6583 102.164 78.5443 102.144 78.4305C102.178 77.9553 103.24 77.2981 105.33 76.4591C104.867 75.8366 104.155 75.1407 103.281 74.532C103.08 74.3916 102.878 74.251 102.744 74.1574C102.609 74.0639 102.522 73.9033 102.549 73.7224C102.576 73.5413 102.67 73.4074 102.852 73.4342L105.372 72.6953C105.237 72.6017 105.103 72.5081 104.968 72.4143C104.767 72.274 104.633 72.1804 104.431 72.0398C103.961 71.712 103.443 71.4512 102.973 71.1237C102.906 71.0767 102.906 71.0767 102.839 71.0299C102.704 70.9363 102.684 70.8226 102.664 70.7088C102.792 70.0991 105.084 69.4007 105.198 69.3805L102.672 67.4205C102.538 67.3267 102.518 67.2129 102.498 67.0991C102.673 66.4227 105.032 65.7709 105.146 65.7506C104.091 65.1154 102.942 64.6141 101.719 64.3606C101.652 64.3139 101.538 64.3341 101.47 64.2873C101.403 64.2405 101.383 64.1267 101.363 64.0129C101.377 63.4235 103.387 62.1293 104.079 61.7134L101.209 60.8117C101.142 60.765 101.142 60.765 101.075 60.7182C101.008 60.6714 100.988 60.5576 100.968 60.4438C101.029 59.7873 102.877 58.5804 102.877 58.5804C102.131 58.3599 101.224 58.2268 100.404 58.2543C100.29 58.2745 100.223 58.2278 100.155 58.1807C100.021 58.0872 99.981 57.8595 100.008 57.6788C100.156 57.1831 100.237 56.6404 100.203 56.1183C100.23 55.9372 100.257 55.7564 100.371 55.7362C100.533 55.6491 100.714 55.6757 100.849 55.7693C100.916 55.8161 101.05 55.9099 101.023 56.0907C101.057 56.6129 101.023 57.0886 100.922 57.5172C101.446 57.4833 103.213 57.8165 103.818 58.2378C104.02 58.3784 104.04 58.4922 104.06 58.606C104.033 58.7868 103.939 58.9208 103.824 58.9411C103.226 59.223 102.648 59.6185 101.996 60.262L102.789 60.4153C104.234 60.9231 105.047 61.1902 105.315 61.3774C105.45 61.4712 105.517 61.518 105.47 61.585C105.443 61.7658 105.235 61.92 104.751 62.1815C104.22 62.5102 103.413 62.9462 102.533 63.6301C103.144 63.7569 104.79 64.4051 105.663 65.0135C106.134 65.3413 106.423 65.6425 106.349 65.8903C106.322 66.0711 106.16 66.1584 106.046 66.1786C105.199 66.3869 104.305 66.6622 103.546 67.0312L104.554 67.7335C105.985 68.8305 106.475 69.2723 106.401 69.5201C106.374 69.7009 106.099 69.8084 105.595 69.956C105.205 70.0837 104.586 70.2516 103.874 70.5534C104.123 70.6271 104.526 70.9078 104.929 71.1888C105.668 71.7039 106.494 72.3793 106.44 72.7413C106.46 72.8551 106.299 72.9422 106.138 73.0297L103.799 73.795C103.866 73.8418 103.933 73.8886 104 73.9356C104.874 74.5441 106.298 75.9358 106.237 76.5921C106.21 76.7728 106.163 76.8401 106.002 76.9273L105.659 76.9878C104.671 77.3973 103.844 77.7194 103.058 78.269L105.248 79.9949C105.718 80.3227 105.913 80.7581 105.745 81.1397C105.624 81.4547 105.301 81.6293 104.844 81.7098C103.977 81.8044 103.198 82.0595 102.505 82.4753C102.573 82.5221 102.64 82.5689 102.707 82.6157C103.446 83.1309 105.32 84.7367 105.26 85.3926C105.279 85.5067 105.185 85.6406 105.071 85.6608C103.855 86.1107 102.571 86.5135 101.354 86.9632C101.354 86.9632 101.354 86.9632 101.422 87.0102C102.026 87.4315 103.834 88.9902 103.638 89.5529C103.658 89.667 103.497 89.7541 103.383 89.7743L99.6327 90.5541C100.056 90.9489 100.412 91.2971 100.701 91.5983C101.635 92.5483 102.058 92.943 101.937 93.258C101.816 93.5726 101.245 93.6738 99.9676 93.7819C99.5103 93.8627 98.9865 93.8967 98.415 93.9977C98.415 93.9977 98.415 93.9977 98.4822 94.0444C98.8854 94.3254 100.491 95.7437 100.363 96.3532C100.383 96.467 100.222 96.5545 100.041 96.5278L97.3453 96.9452C97.4127 96.9923 97.547 97.0858 97.6142 97.1326C98.6219 97.8349 99.932 99.2466 99.8513 99.7893C99.8243 99.97 99.7096 99.9903 99.5484 100.077C98.1777 100.32 96.8736 100.609 95.5899 101.012L95.7041 100.992C96.7119 101.694 98.2438 103.36 97.82 103.963C97.7259 104.097 97.6117 104.118 97.4972 104.138C96.5161 104.252 95.6692 104.461 94.6139 104.823C94.6139 104.823 94.6139 104.823 94.6811 104.87C95.2185 105.245 97.1335 107.078 96.8241 107.661C96.7298 107.795 96.5686 107.882 96.4544 107.902C95.4999 107.836 94.4516 107.904 93.5377 108.066C94.2094 108.534 94.6729 109.156 95.1365 109.779C95.3781 110.147 95.3716 110.441 95.2775 110.575C95.0622 111.024 94.3766 111.145 93.785 111.133C93.3754 111.146 92.871 111.294 92.414 111.375L92.2998 111.395C91.91 111.523 91.5675 111.583 91.1102 111.664C91.8897 112.407 92.5747 113.283 93.2127 114.227C93.3675 114.434 93.2932 114.682 93.085 114.837C93.038 114.904 92.9234 114.924 92.7421 114.897C92.3994 114.958 90.6116 115.508 89.9931 115.676L89.7849 115.83L89.852 115.877C90.4566 116.299 92.1294 117.764 92.0755 118.125C92.0489 118.306 91.9342 118.327 91.773 118.414L88.4933 119.522C88.8764 119.689 89.1449 119.876 89.528 120.043C89.7966 120.23 90.0655 120.418 90.2669 120.558C90.7372 120.886 90.9591 121.14 90.8579 121.569C90.7839 121.817 90.6225 121.904 90.5083 121.924C89.8629 122.273 89.1977 122.508 88.5993 122.79C88.0486 123.005 87.4972 123.219 87.0133 123.481C87.638 124.016 88.2426 124.437 88.5988 124.785C89.2235 125.32 89.5595 125.555 89.4853 125.803C89.4113 126.05 88.8603 126.265 87.5763 126.668C87.3009 126.776 86.9114 126.903 86.5212 127.031C86.8372 127.151 87.2202 127.318 87.6231 127.599C87.892 127.786 88.1605 127.974 88.4294 128.161C88.6983 128.348 88.8997 128.489 89.1011 128.629C89.2358 128.723 89.323 128.883 89.2961 129.064C89.2691 129.245 89.1077 129.332 88.9935 129.353C88.0325 129.581 87.0446 129.99 86.0294 130.581C86.3249 130.587 87.1783 131.082 87.7829 131.503C88.2532 131.831 88.5422 132.132 88.5153 132.313C88.4612 132.675 87.1036 133.325 85.6788 133.929L85.403 134.037C85.719 134.157 85.9879 134.344 86.3236 134.578C86.4579 134.672 87.3985 135.327 87.3985 135.327C87.5331 135.421 87.6203 135.582 87.5934 135.762C87.5662 135.944 87.4722 136.077 87.358 136.098C86.5783 136.353 85.8661 136.655 85.1065 137.024L85.691 137.331C86.3426 137.686 86.7458 137.967 87.0147 138.154C87.3504 138.388 87.4376 138.549 87.458 138.663C87.4309 138.844 87.2226 138.998 86.7855 139.192C86.3018 139.454 85.5893 139.756 84.7558 140.373L87.3895 141.609C87.5912 141.75 87.6114 141.863 87.5842 142.044C87.5572 142.225 87.396 142.312 87.2348 142.4C86.1594 142.649 85.1715 143.058 84.2034 143.581C85.1306 143.828 86.1452 144.236 86.9986 144.731C87.1329 144.824 87.2201 144.985 87.2402 145.098C87.2136 145.279 87.1666 145.346 87.0048 145.434L83.7586 147.064C83.4427 146.944 83.3285 146.964 83.1942 146.87Z" fill="#A7B76B"/>
<path d="M104.869 58.9919C104.802 58.945 104.735 58.8982 104.714 58.7844C104.694 58.6705 104.567 58.2819 104.553 57.8733C104.433 57.1899 104.252 56.1649 104.164 56.0042C103.828 55.7699 103.182 56.1188 102.745 56.3136C102.584 56.4009 102.423 56.4882 102.308 56.5084C102.079 56.5486 102.012 56.5018 101.878 56.4082C101.744 56.3146 101.656 56.1536 101.683 55.9727C101.71 55.7918 101.804 55.6578 101.918 55.6375C102.08 55.5502 102.309 55.51 102.47 55.4227C103.183 55.1204 103.896 54.8184 104.5 55.2399C104.568 55.287 104.702 55.3806 104.722 55.4944C104.964 55.8628 105.213 56.9346 105.266 57.5712L105.307 57.7989C105.334 57.618 107.022 55.4991 107.627 55.9207C107.694 55.9675 107.714 56.0816 107.802 56.2422C107.895 57.1065 108.151 57.8836 108.473 58.7074L109.301 57.3867C109.348 57.3197 109.509 57.2324 109.556 57.1653C109.67 57.1451 109.785 57.1249 109.919 57.2187C109.987 57.2655 109.987 57.2655 110.054 57.3123C110.517 57.935 110.914 58.5109 111.223 58.9261C111.929 59.9172 112.238 60.3324 112.231 60.6272C112.251 60.7411 112.204 60.8081 112.043 60.8954C111.881 60.9827 111.7 60.9561 111.565 60.8622C111.498 60.8154 111.498 60.8154 111.431 60.7686L109.623 58.2105L108.748 59.5983C108.654 59.7324 108.607 59.7994 108.493 59.8196C108.378 59.8399 108.311 59.7931 108.244 59.7462C107.774 59.4183 107.243 57.7502 107.102 56.9532C106.564 57.5766 106.026 58.2002 105.508 58.9378C105.461 59.0048 105.366 59.1389 105.252 59.1591C105.118 59.0655 105.004 59.0857 104.869 58.9919Z" fill="#A7B76B"/>
<path d="M100.107 56.0711C99.9729 55.9775 99.9528 55.8636 99.9798 55.6827L100.155 54.0073C99.8122 54.068 99.4694 54.1287 99.2406 54.1689C98.3732 54.2635 97.9632 54.2774 97.7614 54.1367C97.4927 53.9495 97.5938 53.5206 97.9099 52.6424C98.0311 52.3274 98.0851 51.9656 98.233 51.4695C97.9103 51.644 97.2918 51.8122 96.4446 52.0207C96.33 52.0407 96.33 52.0407 96.2157 52.0609C95.9401 52.1684 95.5973 52.2291 95.3954 52.0885L95.3282 52.0416C95.241 51.881 95.268 51.7001 95.295 51.5192C95.5775 51.1169 95.8601 50.7146 96.0956 50.3794L96.4252 49.91L93.6753 49.6913C93.6077 49.6443 93.4935 49.6645 93.4935 49.6645C93.3591 49.5709 93.319 49.3432 93.3459 49.1623C93.4401 49.0282 93.5343 48.8941 93.83 48.9004C94.3747 48.9804 94.8051 49.0806 95.2822 49.1135C96.553 49.3 97.2791 49.4066 97.5481 49.5941C97.6153 49.6409 97.6824 49.6877 97.7025 49.8016C97.7427 50.0293 97.5543 50.2975 97.1104 50.787C97.0162 50.9211 96.875 51.1223 96.7337 51.3234C97.171 51.1288 97.5609 51.0011 97.8365 50.8936C98.6166 50.6383 99.0068 50.5108 99.2084 50.6513C99.4099 50.7917 99.3091 51.2208 99.0328 52.3265C98.9116 52.6415 98.8108 53.0706 98.7097 53.4994C99.0996 53.3717 99.3957 53.3783 99.7385 53.3176C100.492 53.2432 100.835 53.1827 101.036 53.3232C101.238 53.4636 101.251 53.8725 101.163 54.71C101.157 55.005 101.103 55.3668 101.002 55.7956C100.975 55.9765 100.927 56.0436 100.766 56.1309C100.423 56.1916 100.242 56.165 100.107 56.0711Z" fill="#A7B76B"/>
<path d="M24.7015 107.979C24.5672 107.885 24.4597 107.611 24.4865 107.43C24.5137 107.249 24.6548 107.048 24.8833 107.007C27.7669 106.322 30.3886 105.154 32.8624 103.484C33.0709 103.33 33.2524 103.356 33.4539 103.497C33.5883 103.591 33.6757 103.751 33.7157 103.979C33.6888 104.16 33.5948 104.294 33.5004 104.428C30.9796 106.165 28.1295 107.373 25.1988 108.126C24.9501 108.052 24.8359 108.072 24.7015 107.979Z" fill="#A7B76B"/>
</g>
</g>
<defs>
<clipPath id="clip0_34_12">
<rect width="168" height="172" fill="white"/>
</clipPath>
</defs>
</svg>
