<svg width="75" height="79" viewBox="0 0 75 79" fill="none" xmlns="http://www.w3.org/2000/svg">
<path d="M20.4135 49.9814C20.4306 49.9974 20.4477 50.0135 20.4317 50.0306C20.6006 50.6222 20.1659 51.0502 19.2617 51.8574C18.2777 52.7666 16.6486 54.276 14.6173 57.2072C14.5852 57.2414 14.5537 57.2921 14.5055 57.3433C14.3759 57.4468 14.2608 57.4835 14.1579 57.3872C14.1579 57.3872 14.1579 57.3872 14.1408 57.3712C14.1236 57.3551 14.1065 57.3391 14.0728 57.3235C13.8643 57.0481 14.0655 56.5942 14.1442 56.4591C14.2844 56.1729 14.6671 55.6803 14.9246 55.4236C15.0365 55.2875 15.1661 55.184 15.3111 55.0469L15.3272 55.0298C15.4889 54.8922 15.6821 54.7038 15.8256 54.517C15.8893 54.4321 15.9375 54.3809 16.0178 54.2955C16.0975 54.1936 16.1778 54.1082 16.2421 54.0399C16.4342 53.8184 16.6596 53.5959 16.8529 53.4075C17.0943 53.1679 17.3352 52.9118 17.5435 52.6732C17.8951 52.2478 18.3636 51.8354 18.9123 51.3376C19.5746 50.7534 19.7352 50.5827 19.8626 50.4129C19.9423 50.311 20.0547 50.1914 20.248 50.0031C20.3122 49.9348 20.3626 49.9498 20.4135 49.9814ZM14.3014 57.2004C14.3346 57.1994 14.416 57.1471 14.447 57.0798C15.9864 54.8602 17.5303 53.2871 18.8981 51.9184L19.2032 51.5939C19.2669 51.5091 19.3804 51.4226 19.4618 51.3704C19.8339 51.0604 20.2375 50.6998 20.2411 50.3017C20.1946 50.4027 20.1148 50.5046 20.0185 50.6071C19.8584 50.7944 19.7305 50.9476 19.5533 51.1189L19.3761 51.2901C19.0859 51.5644 18.875 51.7201 18.6014 51.9939C18.3439 52.2505 16.5136 54.2139 16.4494 54.2822C16.3857 54.367 16.3049 54.4359 16.2412 54.5207C16.1775 54.6056 16.0966 54.6744 16.0329 54.7593C15.8729 54.9466 15.6791 55.1184 15.5185 55.2892C15.3729 55.4098 15.261 55.5459 15.1331 55.699C14.8916 55.9386 14.5742 56.3961 14.4163 56.6497C14.3071 56.8686 14.2456 57.0197 14.2494 57.1357C14.2832 57.1512 14.2842 57.1844 14.3014 57.2004Z" fill="#5DA65B"/>
<path d="M20.1113 49.3773C20.2479 49.4891 20.3187 49.6196 20.3075 49.7858C20.3033 50.1672 19.7829 50.5149 19.4917 50.7561L19.4596 50.7902C19.2968 50.8947 19.2968 50.8947 17.7614 52.2189L15.7404 53.9394C15.3046 54.3342 14.8672 54.6793 14.4635 55.04L14.4475 55.0571C12.8462 56.3998 11.4547 57.5537 10.3114 59.1808C10.2012 59.3666 10.0539 59.4374 9.889 59.4757C9.72407 59.514 9.55644 59.4694 9.38555 59.3254C9.36841 59.3094 9.31752 59.2778 9.30037 59.2618C9.28323 59.2457 9.26609 59.2297 9.23234 59.2141C9.04323 59.021 8.93983 58.9081 8.93604 58.7922C8.94723 58.626 9.09176 58.4723 9.46385 58.1624C9.64104 57.9911 9.86805 57.8183 10.1582 57.544C10.7385 56.9955 11.2219 56.5329 11.6411 56.1386C12.897 54.906 13.8157 54.032 16.6067 51.9727C17.0767 51.61 17.5158 51.3145 17.8889 51.0377C18.8473 50.3615 19.4325 49.962 19.9951 49.3809C19.9946 49.3643 20.077 49.3452 20.1113 49.3773ZM9.50915 59.0398C9.52629 59.0558 9.54344 59.0719 9.57718 59.0874C9.78073 59.2138 9.913 59.1931 10.0565 59.0063L10.2963 58.717C10.8712 58.0028 11.5114 57.2535 13.0784 55.8786C15.2611 54.0205 16.7815 52.7466 17.9149 51.8328C19.5173 50.5231 20.0998 50.0409 20.1066 49.7422C20.1216 49.692 20.1028 49.6263 20.0348 49.5786C19.5214 50.1417 19.0016 50.5059 17.6219 51.5102L16.7626 52.1668C13.9732 54.2758 13.152 55.0805 11.864 56.3473C11.4453 56.7581 10.9785 57.2202 10.3827 57.8024L10.1734 58.0078C9.88321 58.2821 9.35053 58.7628 9.26969 58.8316C9.26969 58.8316 9.28575 58.8145 9.30289 58.8306L9.37201 58.9114C9.42398 58.9761 9.47487 59.0077 9.50915 59.0398Z" fill="#5DA65B"/>
<path d="M19.9391 48.6862C19.9562 48.7023 19.9562 48.7023 19.9573 48.7354C20.1047 49.1785 19.9591 49.2991 19.7327 49.4885C19.7005 49.5226 19.6518 49.5573 19.6031 49.592C19.3445 49.8155 19.0538 50.0732 18.7952 50.2967C17.3739 51.551 15.4198 53.2861 9.86992 55.8451C9.73928 55.9155 9.62524 55.9853 9.49405 56.0391C9.03679 56.2854 8.59451 56.4814 8.06165 56.4482L8.04559 56.4652L8.02844 56.4492C8.0113 56.4331 7.9781 56.4342 7.94435 56.4186C7.94435 56.4186 7.94435 56.4186 7.92721 56.4026C7.91007 56.3865 7.89293 56.3705 7.89184 56.3374C7.80396 56.1908 7.83806 55.709 8.04738 55.5035C8.28881 55.2639 8.85001 55.1471 9.34372 54.9992C9.64092 54.9403 9.95418 54.8643 10.1999 54.7572C11.2992 54.3253 12.4595 53.7257 13.7129 52.9243C15.015 52.0882 16.4263 51.0332 17.3836 50.3238C17.6593 50.1163 17.8863 49.9435 18.0485 49.8224C18.2921 49.6491 18.5042 49.5264 18.7322 49.3868C19.0257 49.2119 19.3357 49.0365 19.7897 48.6909C19.8555 48.6722 19.8887 48.6712 19.9391 48.6862ZM8.10441 56.2313L8.18742 56.2287C8.48678 56.2361 8.7829 56.144 8.99601 56.0545C14.6327 53.6088 16.8635 51.6995 18.6249 50.1694L18.641 50.1523C18.9156 49.9117 19.1902 49.6711 19.482 49.4465C19.5141 49.4123 19.5629 49.3777 19.6116 49.343C19.8059 49.1878 19.8712 49.1526 19.7983 48.9559C12.4705 54.571 10.5899 54.9939 9.33632 55.2813C9.07233 55.3392 8.82493 55.3966 8.56202 55.4876C8.2991 55.5786 8.15294 55.6826 8.12353 55.7996C8.12732 55.9156 8.08348 56.0993 8.10441 56.2313Z" fill="#5DA65B"/>
<path d="M19.7218 48.1292C19.7561 48.1613 19.7909 48.21 19.8097 48.2757C19.9212 48.637 19.7573 48.7084 19.3466 48.8538C19.0179 48.9634 18.0091 49.6246 16.7226 50.4271C14.0691 52.1174 10.4545 54.4011 9.7919 53.9574C9.72387 53.9097 9.7051 53.844 9.68688 53.7948C9.68579 53.7617 9.68417 53.712 9.66702 53.6959L9.68308 53.6788C9.66594 53.6628 9.682 53.6457 9.68038 53.596C9.80344 53.2938 11.2759 52.5851 12.6991 51.8944C13.3373 51.5928 13.9424 51.2923 14.3996 51.046C15.1353 50.6751 15.7858 50.2405 16.4042 49.84C17.3321 49.2476 18.2755 48.6216 19.5209 48.0857L19.5541 48.0846C19.6371 48.0821 19.6698 48.0645 19.7218 48.1292ZM9.95196 53.77C9.9691 53.7861 9.9691 53.7861 9.98624 53.8021C10.7414 54.0275 13.5256 52.2668 15.9842 50.7152C17.3511 49.8274 18.6532 48.9913 19.5532 48.5655C19.6025 48.5474 19.6186 48.5303 19.6341 48.4967C19.633 48.4636 19.5965 48.3652 19.5955 48.3321L19.5794 48.3492C18.728 48.7402 17.2953 49.6467 16.2705 50.325C14.9363 51.1953 14.4298 51.4596 13.0232 52.1497C12.205 52.5398 11.616 52.8233 11.1749 53.0524L11.0603 53.1057C9.96368 53.6204 9.96368 53.6204 9.93427 53.7374C9.91767 53.7379 9.91767 53.7379 9.95196 53.77Z" fill="#5DA65B"/>
<path d="M19.5636 47.8688C19.5808 47.8848 19.5979 47.9009 19.5819 47.918C19.6172 47.9832 19.6205 48.0826 19.6071 48.1825C19.5616 48.3165 19.4 48.4542 19.1874 48.5602C16.5 49.721 14.5852 50.6258 13.1781 51.2993C10.5598 52.5408 9.38184 53.1078 7.42883 53.3505C7.39563 53.3516 5.07902 53.6553 4.41532 53.1784C4.39818 53.1623 4.39818 53.1623 4.38104 53.1463L4.36389 53.1302C4.19192 52.9531 4.18488 52.7378 4.30849 52.4521L4.32455 52.435C4.3711 52.3341 4.41766 52.2332 4.48189 52.1649C4.82077 51.856 5.29049 51.9907 5.67503 52.0617C5.75912 52.0923 5.82552 52.0902 5.89247 52.1047C8.2533 52.6453 13.5617 50.3258 16.7235 48.9348C18.1489 48.3104 19.2139 47.8464 19.4806 47.8713C19.4967 47.8543 19.5138 47.8703 19.5636 47.8688ZM4.50843 52.9765C4.50843 52.9765 4.52558 52.9926 4.54272 53.0086C5.03607 53.3581 6.82631 53.2199 7.40573 53.1523C9.25967 52.9292 10.2577 52.4507 13.2696 51.0478C14.6446 50.4084 16.5261 49.5046 19.0979 48.364C19.2457 48.3097 19.4245 48.1881 19.4041 48.0727C18.9109 48.2371 17.8625 48.7006 16.5025 49.2898C14.0775 50.343 10.7357 51.8224 8.83741 52.2127C7.93029 52.4231 7.11791 52.4814 6.26961 52.4578C6.02059 52.4655 5.80261 52.4059 5.56802 52.3469C5.21614 52.2583 4.89855 52.2018 4.68653 52.3244C4.57302 52.4108 4.51041 52.5288 4.44996 52.713C4.41947 52.7969 4.42218 52.8797 4.50843 52.9765Z" fill="#5DA65B"/>
<path d="M19.3678 47.4769C19.453 47.5406 19.4717 47.6063 19.4739 47.6726C19.475 47.7057 19.4606 47.7725 19.3792 47.8248C18.2001 48.3586 16.8888 48.9131 15.3274 49.4422C14.0787 49.8787 12.7775 50.2339 11.4746 50.5395C8.60439 51.1919 8.13901 51.1897 7.5964 50.8583L7.56103 50.7931C7.56103 50.7931 7.44788 50.382 7.7541 50.0907C7.78622 50.0566 7.89972 49.9701 7.9645 49.9184C8.22525 49.7611 8.54176 49.7845 8.89147 49.8069C9.05802 49.8183 9.27384 49.8116 9.48912 49.7884C12.9256 49.6822 16.6176 48.2417 18.1763 47.6298C18.6363 47.4664 18.882 47.3593 18.9811 47.3396C19.0973 47.336 19.2317 47.3816 19.3341 47.4614C19.3507 47.4609 19.3678 47.4769 19.3678 47.4769ZM7.74148 50.7212C7.97823 50.8465 8.27922 50.9035 8.66051 50.8751C12.9179 50.4617 18.6016 47.9317 19.2575 47.6627C19.0208 47.5374 18.9715 47.5555 18.7258 47.6626C18.6604 47.6977 18.5619 47.7339 18.4966 47.7691C12.3105 50.1821 10.1319 50.1333 8.93442 50.104C8.66826 50.0956 8.4685 50.0852 8.30357 50.1235C7.97317 50.1834 7.76385 50.3889 7.74148 50.7212Z" fill="#5DA65B"/>
<path d="M19.1326 46.8873C19.2692 46.9991 19.3228 47.1135 19.2431 47.2155C19.083 47.4028 18.6718 47.5316 18.3746 47.5905L18.2428 47.6277C15.4942 48.4422 12.9956 48.7681 10.6145 48.6261C10.0484 48.5939 9.57819 48.4426 9.25573 48.237C9.22144 48.2049 9.17055 48.1733 9.13627 48.1412C8.91395 47.9491 8.84105 47.7524 8.84105 47.7524C8.80351 47.6209 8.84898 47.4869 8.94534 47.3844C9.1386 47.196 9.48614 47.1521 9.73787 47.2273C9.78822 47.2423 9.88837 47.2558 10.0057 47.2853C11.1266 47.516 14.5581 48.2721 18.2699 46.9305L18.3352 46.8953C18.5151 46.8069 18.778 46.7158 18.9457 46.7604C18.98 46.7925 19.0469 46.807 19.064 46.8231C19.0983 46.8552 19.1155 46.8712 19.1326 46.8873ZM9.33115 48.0025C9.36544 48.0346 9.39918 48.0502 9.43347 48.0823C9.70613 48.2894 10.1421 48.4086 10.6578 48.4258C14.3226 48.6939 18.6165 47.3675 18.9913 47.1403L19.0234 47.1062C19.0234 47.1062 19.0063 47.0901 18.9892 47.0741C18.972 47.058 18.972 47.058 18.9549 47.042C18.9377 47.0259 18.9206 47.0099 18.8708 47.0114C18.8536 46.9954 18.7374 46.999 18.3937 47.1588L18.3444 47.1769C16.4569 47.8984 14.272 48.1649 12.0549 47.9515C11.1883 47.8788 10.5355 47.7332 10.0508 47.6487C9.39845 47.5196 9.08032 47.4466 9.02149 47.6805L9.02258 47.7136C9.14204 47.8094 9.22883 47.9228 9.33115 48.0025Z" fill="#5DA65B"/>
<path d="M19.6649 46.4065C20.334 47.0491 21.4411 48.8885 21.4613 50.0153C21.4716 50.33 21.3807 50.5981 21.2206 50.7855C20.9631 51.0421 20.6798 51.0177 20.5089 50.8738C20.4918 50.8577 20.4918 50.8577 20.4746 50.8417C20.3552 50.7459 20.2834 50.5823 20.2785 50.4332C20.2935 50.383 20.2747 50.3173 20.2897 50.2671C20.3047 50.2169 20.3019 50.1341 20.3009 50.1009C20.2783 49.9192 20.1733 49.7567 20.0672 49.561C19.9964 49.4305 19.96 49.3322 19.8892 49.2017C19.7258 48.7757 19.565 48.4324 19.439 48.1379C18.7749 46.633 18.6302 46.2727 19.0023 45.9627C19.0344 45.9286 19.1014 45.9431 19.2712 46.0539C19.3895 46.1166 19.5267 46.245 19.629 46.3247C19.614 46.3749 19.6649 46.4065 19.6649 46.4065ZM20.6851 50.6694C20.7193 50.7015 20.7863 50.716 20.8195 50.715C21.0016 50.6928 21.145 50.5059 21.1889 50.3222C21.3365 49.7539 20.9811 49.0519 20.7126 48.4633L20.659 48.3489C20.3203 47.6464 19.9645 46.9278 19.2295 46.3039C19.1614 46.2563 19.0929 46.1921 19.0243 46.1279C18.9617 46.2459 18.9666 46.3949 19.0395 46.5917C19.0748 46.6569 19.2013 46.968 19.3793 47.3273C19.8252 48.2586 20.4699 49.6812 20.5311 50.0275C20.551 50.1264 20.5199 50.1936 20.5392 50.2759C20.527 50.409 20.5136 50.5089 20.6159 50.5886C20.6331 50.6047 20.6331 50.6047 20.6502 50.6207L20.6851 50.6694Z" fill="#5DA65B"/>
<path d="M20.3616 45.3405C21.2503 46.0923 22.5222 48.9049 22.4861 49.8345C22.4749 50.0006 22.4509 50.2832 22.2555 50.4053C22.1249 50.4757 22.0745 50.4607 21.9412 50.4482C21.8908 50.4332 21.8239 50.4187 21.7724 50.3705C21.7553 50.3545 21.7381 50.3384 21.7381 50.3384C21.4307 50.0826 21.1428 49.4117 21.1867 49.228C21.2017 49.1778 21.2343 49.1602 21.2504 49.1431L21.3007 49.1581C21.3179 49.1742 21.335 49.1902 21.3189 49.2073C21.3415 49.389 21.3967 49.5531 21.4846 49.6996C21.5725 49.8461 21.6786 50.0418 21.7981 50.1376C21.8152 50.1537 21.8152 50.1537 21.8323 50.1697C21.8666 50.2018 21.9164 50.2003 21.9336 50.2163C21.9668 50.2153 22.0337 50.2298 22.0337 50.2298C22.1831 50.2252 22.2259 50.0083 22.2205 49.8427C22.2105 49.0305 20.9194 46.1357 20.1678 45.5123C20.1507 45.4962 20.1335 45.4801 20.0998 45.4646C20.0317 45.417 19.9814 45.4019 19.9482 45.403C19.915 45.404 19.8978 45.3879 19.8652 45.4055C19.7185 45.493 19.6501 45.9428 19.6084 46.1928L19.5951 46.2927L19.788 46.6017C19.7891 46.6349 19.7907 46.6845 19.7746 46.7016C19.7425 46.7358 19.7093 46.7368 19.6584 46.7052L19.4135 46.3314C19.3953 46.2822 19.4583 45.6668 19.5503 45.4318C19.6118 45.2807 19.7253 45.1943 19.8233 45.1415C19.955 45.1043 20.0723 45.1338 20.2255 45.2452C20.3096 45.2757 20.3445 45.3244 20.3616 45.3405Z" fill="#5DA65B"/>
<path d="M21.7183 45.6633C21.7526 45.6954 21.8035 45.727 21.8378 45.7591C22.1807 46.0801 22.4679 46.7345 22.6668 47.2258C22.7558 47.4054 22.8276 47.569 22.8812 47.6834C22.9166 47.7486 22.9519 47.8139 22.9873 47.8791C23.1443 48.1064 23.2692 48.3678 23.3127 48.6815C23.3417 49.0619 23.2347 49.3471 23.0066 49.4868C22.8107 49.5923 22.5948 49.599 22.4416 49.4877C22.4245 49.4716 22.4245 49.4716 22.4073 49.4556C22.3902 49.4395 22.3731 49.4235 22.3222 49.3919C22.2879 49.3598 22.3039 49.3427 22.2868 49.3267C22.2697 49.3106 22.2841 49.2438 22.3002 49.2268C22.3323 49.1926 22.3655 49.1916 22.4164 49.2232C22.4335 49.2392 22.4335 49.2392 22.4335 49.2392C22.4507 49.2553 22.4678 49.2713 22.5015 49.2869C22.5358 49.319 22.5696 49.3345 22.6028 49.3335C22.7704 49.378 22.9332 49.2735 23.0102 49.0888C23.1317 48.7368 22.9548 48.4107 22.6917 47.9877C22.5856 47.792 22.4458 47.5808 22.3369 47.3023C22.3359 47.2691 22.2651 47.1387 22.2651 47.1387C22.1032 46.7623 21.7988 46.0919 21.4051 45.7393C21.3708 45.7072 21.337 45.6917 21.3199 45.6756C21.0644 45.4846 20.7982 45.4762 20.5209 45.634C20.5048 45.6511 20.4716 45.6521 20.4207 45.6205C20.4036 45.6045 20.3864 45.5884 20.3854 45.5553C20.3843 45.5222 20.4003 45.5051 20.4158 45.4714C20.7397 45.2127 21.173 45.2491 21.5812 45.5349C21.6492 45.5826 21.6835 45.6147 21.7183 45.6633Z" fill="#5DA65B"/>
<path d="M24.6135 30.0212L24.6741 30.351C24.8463 31.042 24.9178 31.703 24.9764 32.4805C25.0066 32.8941 25.019 33.2751 25.0149 33.6565C25.0636 35.1473 25.1181 36.3063 25.8105 37.661C25.8288 37.7102 25.8143 37.777 25.7822 37.8111C25.7501 37.8453 25.6676 37.8644 25.6328 37.8158C25.6156 37.7997 25.5985 37.7837 25.5985 37.7837C24.889 36.4128 24.8473 35.1374 24.7996 33.6798C24.766 32.6528 24.7651 31.6083 24.4921 30.3732L24.4314 30.0434L24.4464 29.9932C24.4625 29.9761 24.4785 29.9591 24.4785 29.9591L24.5289 29.9741L24.546 29.9901L24.6135 30.0212Z" fill="#5DA65B"/>
<path d="M24.3547 28.2054C24.3718 28.2215 24.4227 28.2531 24.4238 28.2862C24.6839 29.1238 25.3519 29.7332 26.0183 30.2929C26.3429 30.5648 26.6847 30.8526 26.9446 31.1762C27.6003 31.9187 27.9058 32.6222 27.8772 33.2697C27.8106 34.2832 26.9058 35.0739 26.2425 35.6249L26.0653 35.7962C25.7591 36.0876 25.3677 36.3152 25.0463 36.1427C25.0292 36.1267 25.0292 36.1267 25.012 36.1106C24.5851 35.7591 23.4641 34.003 23.3879 32.1815C23.3502 31.536 23.4303 30.9366 23.6394 30.2172C23.6688 30.1002 23.6983 29.9832 23.7293 29.916L23.7587 29.799C23.9085 29.2969 24.0422 28.812 24.0934 28.3461C24.0923 28.313 24.1239 28.2623 24.156 28.2281C24.1882 28.194 24.2214 28.193 24.2878 28.1909C24.2706 28.1749 24.3204 28.1733 24.3547 28.2054ZM25.1223 35.9248C25.359 36.0502 25.73 35.7071 25.859 35.587L26.0684 35.3816C26.7788 34.7462 27.3918 34.1801 27.513 33.3141C27.5908 32.1345 26.5472 31.2217 25.7094 30.5014C25.0601 29.9577 24.579 29.4752 24.2768 28.8711C24.2351 29.121 24.1602 29.3721 24.103 29.6557L24.0869 29.6728C23.6837 31.0614 23.2365 32.6338 24.4391 34.8516C24.527 34.9981 24.9149 35.6825 25.1024 35.826L25.1223 35.9248Z" fill="#5DA65B"/>
<path d="M62.8935 42.9818C62.9106 42.9978 62.9278 43.0139 62.9117 43.0309L62.8796 43.0651C62.6852 43.2203 60.725 42.7337 60.7079 42.7177C60.4561 42.6426 60.1712 42.5685 59.9023 42.4773C59.0797 42.2208 58.0904 41.9529 57.3246 41.9103C56.9583 41.8884 56.6108 41.9323 56.2964 41.9752C56.2632 41.9762 56.2134 41.9778 56.1963 41.9617C56.162 41.9296 56.1271 41.881 56.1416 41.8142C56.1566 41.764 56.1881 41.7133 56.2551 41.7278C56.8838 41.642 57.2833 41.6628 57.8504 41.7282C58.552 41.8392 59.2569 42.0495 59.9451 42.2604C60.8519 42.5474 61.7758 42.8505 62.8581 42.9165L62.8935 42.9818Z" fill="#5DA65B"/>
<path d="M64.4271 43.1333C64.4952 43.181 64.4979 43.2638 64.4829 43.314C64.4524 43.3978 64.3871 43.433 64.3041 43.4356C63.572 43.4084 62.8867 43.7944 62.2345 44.1793C61.925 44.3713 61.615 44.5466 61.2873 44.6894C60.3369 45.1001 59.6059 45.1061 59.0268 44.6764C58.9926 44.6443 58.9417 44.6127 58.8902 44.5645C58.3604 44.1166 58.0367 43.3639 57.7821 42.692C57.6202 42.3156 57.5081 41.9377 57.7833 41.7137C57.945 41.576 59.8031 40.9715 61.4645 41.4673C62.2529 41.6917 62.8143 42.0888 63.3408 42.4373C63.6976 42.675 64.0211 42.9137 64.3923 43.0846L64.4271 43.1333ZM58.9978 44.2959C59.0321 44.328 59.083 44.3596 59.1173 44.3917C59.6106 44.7412 60.2757 44.7538 61.1271 44.3628C61.4061 44.2547 61.6829 44.0803 61.9763 43.9054C62.5304 43.5733 63.0851 43.2577 63.7122 43.1222C63.5778 43.0767 63.4754 42.9969 63.3565 42.9177L62.9655 42.6479C61.9959 41.9649 60.8614 41.3201 58.894 41.6296C58.6128 41.6715 58.3328 41.7465 58.0854 41.8038C57.9044 41.8592 57.8407 41.944 57.8279 42.0605C57.8371 42.3421 58.3018 43.3391 58.4256 43.5675C58.619 43.8931 58.8092 44.1193 58.9978 44.2959Z" fill="#5DA65B"/>
<path d="M32.9179 48.6832C34.3707 49.915 35.5318 51.3714 36.2799 52.9068C36.281 52.9399 36.2821 52.9731 36.2666 53.0067C36.2505 53.0238 36.2173 53.0248 36.1504 53.0103L36.1161 52.9782C35.4204 51.524 34.3628 50.1805 32.9951 49.0124C32.6191 48.6924 32.2104 48.39 31.7856 48.1047C31.3945 47.8349 30.9698 47.5495 30.5134 47.3149C30.4282 47.2512 30.4427 47.1845 30.4748 47.1503C30.5069 47.1162 30.5883 47.0639 30.6397 47.1121C31.0125 47.3327 31.3687 47.5538 31.7255 47.7915C32.1503 48.0768 32.5424 48.3797 32.9179 48.6832Z" fill="#5DA65B"/>
<path d="M36.6462 50.3919C37.9624 51.5118 38.1505 53.1972 38.5087 56.0215C38.5114 56.1043 38.4804 56.1716 38.4311 56.1897C38.3658 56.2248 38.2833 56.244 38.2313 56.1792C38.1971 56.1471 38.1622 56.0985 38.1606 56.0488L38.1424 55.9996C38.1011 55.7522 38.0828 55.703 37.9076 55.4265C37.8037 55.2971 37.7003 55.1842 37.5122 55.0242C37.4271 54.9606 37.3579 54.8798 37.2396 54.8171C37.1715 54.7695 37.0869 54.7224 37.0012 54.6421C36.78 54.4831 36.5604 54.3738 36.3573 54.2641C36.1377 54.1548 35.9004 54.0129 35.6626 53.8544L35.4591 53.7281C35.4248 53.696 35.391 53.6804 35.3396 53.6323L35.2373 53.5525L35.135 53.4728C35.0327 53.3931 34.9984 53.361 34.8425 53.1668C34.4969 52.763 34.1829 52.3084 33.968 51.8342C33.8608 51.6054 33.8061 51.4579 33.7316 51.2115C33.7117 51.1126 33.6747 50.9977 33.6709 50.8817L33.6688 50.8155C33.4363 49.2972 33.2826 49.1693 33.2826 49.1693L33.2654 49.1533L33.2483 49.1372L33.3071 48.9033L33.3403 48.9023C34.781 49.2557 35.7232 49.6079 36.4206 50.1004C36.441 50.2158 36.5439 50.3121 36.6462 50.3919ZM38.0114 55.042C37.8598 53.4549 37.6728 51.8026 36.4197 50.5812C36.3854 50.5491 36.3346 50.5175 36.3003 50.4854C36.2151 50.4218 36.146 50.341 36.0276 50.2783C35.2959 49.7538 34.3066 49.4859 33.469 49.2796C33.5033 49.3117 33.5044 49.3449 33.5226 49.394C33.6153 49.6896 33.6578 49.9702 33.7339 50.2663C33.8767 51.0743 34.0371 51.915 35.0191 52.979C35.1059 53.0923 35.2082 53.1721 35.3105 53.2518C35.4129 53.3316 35.5157 53.4279 35.6341 53.4905C35.9405 53.7132 36.2447 53.8696 36.5833 54.0581C36.9041 54.214 37.2089 54.387 37.4976 54.577C37.5828 54.6407 37.7012 54.7034 37.7703 54.7841C37.8222 54.8489 37.9251 54.9452 38.0114 55.042Z" fill="#5DA65B"/>
<path d="M46.3067 38.8683C46.461 39.0127 47.0643 41.1993 46.9661 42.2635C46.9432 42.5792 46.8694 42.8634 46.7276 43.0999C46.43 43.6562 45.9755 43.9853 45.5033 44.2818L45.3244 44.4034C45.1456 44.525 44.9828 44.6295 44.8206 44.7506C44.221 45.2168 43.6916 45.7969 43.1943 46.3428C43.1466 46.4106 43.0636 46.4132 42.9961 46.3821C42.9618 46.35 42.927 46.3013 42.9414 46.2345C42.9927 45.7687 43.0289 45.3531 43.0668 44.9871L43.0641 44.9043C43.2754 42.7257 43.2754 42.7257 44.9294 40.4528C45.2307 40.0124 45.63 39.5192 46.0416 38.893C46.1053 38.8082 46.2215 38.8046 46.3067 38.8683ZM43.2771 45.8262C44.3226 44.7659 44.7782 44.47 45.2017 44.2082C45.4453 44.0349 45.6574 43.9123 45.9962 43.6033C46.2377 43.3637 46.3806 43.1604 46.4582 42.9922C46.8012 42.3018 46.6947 41.0781 46.1243 39.3879C45.7443 39.9634 45.3781 40.4555 45.1255 40.8613L45.0779 40.9291C43.6322 42.9634 43.6322 42.9634 43.3817 44.9608L43.3667 45.011C43.3406 45.2274 43.3 45.5105 43.2771 45.8262Z" fill="#5DA65B"/>
<path d="M44.7423 33.7103C44.7595 33.7264 44.7766 33.7424 44.7605 33.7595C44.7788 33.8087 44.7804 33.8584 44.7483 33.8925C44.7162 33.9267 44.6846 33.9774 44.6348 33.9789C43.5864 34.4424 42.9434 35.1089 42.2994 35.7423C41.5928 36.4937 40.9167 37.1612 39.6979 37.4973C39.1865 37.6126 38.6365 37.5633 38.1026 37.4969C37.703 37.4761 37.3019 37.4055 36.8879 37.4515C36.8547 37.4525 36.8049 37.4541 36.7878 37.438C36.7535 37.4059 36.7187 37.3572 36.7171 37.3076C36.7154 37.2579 36.7304 37.2077 36.7797 37.1896C37.0072 37.0333 37.2165 36.8279 37.4397 36.5391C37.4558 36.522 37.4719 36.5049 37.4863 36.4382C38.7965 34.3251 40.1215 33.1733 41.3168 33.1363C41.4662 33.1317 41.6494 33.1427 41.7999 33.1712C42.118 33.2442 42.4539 33.3499 42.757 33.4732C43.043 33.5804 43.3119 33.6716 43.5797 33.7297C43.63 33.7447 43.7302 33.7582 43.7971 33.7727C44.0306 33.7986 44.1795 33.7774 44.3765 33.705L44.4756 33.6854L44.4767 33.7185C44.6577 33.6632 44.708 33.6782 44.7423 33.7103ZM37.3762 37.138C37.7249 37.1272 38.0253 37.1676 38.3418 37.191C39.4418 37.2897 40.3084 37.3624 41.8833 35.722L42.0605 35.5507C42.2698 35.3453 42.462 35.1238 42.6885 34.9344C43.0595 34.5913 43.4642 34.2638 43.8218 34.0206C43.4555 33.9988 43.1192 33.8765 42.7823 33.7377C42.4963 33.6305 42.1936 33.5238 41.9087 33.4497C41.7411 33.4051 41.4749 33.3968 41.2596 33.42C40.2497 33.5341 38.9151 34.9018 38.3135 35.8157C38.2509 35.9337 38.1545 36.0362 38.1079 36.1371C37.8708 36.5092 37.6659 36.8471 37.3762 37.138Z" fill="#5DA65B"/>
<path d="M37.4687 28.281C37.5367 28.3287 37.5394 28.4115 37.5073 28.4457C36.9293 29.5744 36.7583 30.4419 36.6145 31.1261C36.5306 31.6096 36.4445 32.0267 36.2577 32.4139C35.8848 33.2047 35.3842 33.6512 34.7857 34.1506C34.1389 34.7011 33.3953 35.3376 32.7387 36.6014C32.7066 36.6356 32.675 36.6863 32.6252 36.6878C32.5759 36.7059 32.509 36.6914 32.4747 36.6593C32.4404 36.6272 32.4056 36.5786 32.4039 36.5289C32.4059 36.0811 32.228 35.7218 32.0147 35.2973C31.8185 34.8889 31.6042 34.4313 31.5354 33.8531C31.3441 32.0683 32.633 30.3206 33.9533 29.5337C34.5568 29.1835 35.1672 29.0485 35.7124 28.9488C36.3068 28.8309 36.8353 28.7317 37.2368 28.3048C37.301 28.2365 37.384 28.2339 37.4687 28.281ZM32.7026 36.0056C33.3336 34.9747 33.9975 34.4402 34.596 33.9409C35.3573 33.337 36.0035 32.7699 36.3104 31.4837C36.3398 31.3668 36.3682 31.2166 36.3965 31.0665C36.4943 30.4998 36.6525 29.7488 37.0372 28.8084C36.6956 29.0345 36.2667 29.1306 35.8544 29.2263C34.8311 29.4403 33.6765 29.7081 32.5558 31.5168C32.384 31.8537 32.2272 32.1405 32.1379 32.4583C32.0148 32.7605 31.9064 33.51 32.0426 34.1193C32.1044 34.4821 32.2812 34.8083 32.4077 35.1194C32.501 35.4315 32.6259 35.693 32.7026 36.0056Z" fill="#5DA65B"/>
<path d="M34.9342 31.062L34.9353 31.0951L34.9203 31.1453L34.8882 31.1795C34.3936 31.8082 33.8824 32.4375 33.4901 33.146C32.9416 34.1578 32.8369 35.0232 32.7317 35.8721C32.6399 36.6211 32.5486 37.3866 32.1285 38.2618C32.1125 38.2788 32.0809 38.3296 32.0477 38.3306C32.0145 38.3316 31.9647 38.3331 31.9304 38.301C31.8961 38.2689 31.8613 38.2203 31.8918 38.1364C32.375 37.1598 32.4358 36.4781 32.5137 35.8125C32.6269 34.6981 32.7389 33.5506 34.7671 31.034C34.8501 31.0314 34.8833 31.0304 34.9342 31.062Z" fill="#5DA65B"/>
<path d="M40.7891 34.7941L40.8073 34.8433L40.7924 34.8935C39.19 36.2031 37.8707 37.0232 36.2157 37.7375L36.1825 37.7386L36.1599 37.5569C37.1596 37.128 38.2363 36.5145 38.7733 36.1663C39.2129 35.8874 39.57 35.6276 39.9432 35.3508C40.1536 35.1785 40.2028 35.1604 40.462 34.9534L40.6884 34.7641C40.7216 34.763 40.7548 34.762 40.7891 34.7941Z" fill="#5DA65B"/>
<path d="M32.8792 38.8686C32.3357 39.0181 31.956 39.0961 31.6417 39.139L31.4768 39.1772C31.4436 39.1783 31.4104 39.1793 31.3766 39.1638C31.3423 39.1317 31.3075 39.083 31.3219 39.0162C31.3369 38.966 31.3685 38.9153 31.4354 38.9298L31.6834 38.889C31.9977 38.8461 32.4106 38.767 32.938 38.6347L33.0371 38.615L32.8792 38.8686Z" fill="#5DA65B"/>
<path d="M45.4904 42.3588C45.5247 42.3909 45.5258 42.4241 45.4942 42.4748L45.302 42.6963C44.2486 44.0221 43.5197 45.6198 42.8225 47.1667L42.792 47.2506C42.6213 47.6206 42.5625 47.8546 42.5535 48.087C42.5401 48.1869 42.5573 48.2029 42.5241 48.204C42.5251 48.2371 42.5091 48.2542 42.4936 48.2878C42.4443 48.3059 42.3945 48.3074 42.3602 48.2753C42.3259 48.2432 42.3248 48.2101 42.3066 48.1609C42.3028 48.045 42.3167 47.9617 42.3135 47.8623C42.3407 47.679 42.4317 47.4109 42.5553 47.1253L42.6168 46.9741C42.8651 46.4359 43.192 45.7625 43.5367 45.1218C43.944 44.3631 44.2908 43.7887 44.6869 43.1961C45.3881 42.2791 45.4224 42.3112 45.4904 42.3588Z" fill="#5DA65B"/>
<path d="M50.1741 29.5797C50.1913 29.5957 50.2084 29.6118 50.1924 29.6289C50.0975 30.7924 49.5516 31.887 47.9897 33.925C47.0492 35.1478 46.0396 36.2899 45.159 37.312L44.871 37.6525C44.8234 37.7203 44.7564 37.7058 44.7061 37.6907C44.6718 37.6586 44.6381 37.6431 44.637 37.61C44.6359 37.5768 44.6519 37.5598 44.6835 37.509C44.8436 37.3217 45.0036 37.1344 45.1969 36.946L45.2927 36.827C47.3291 34.5589 49.8461 31.7453 50.0269 29.6506C50.0258 29.6174 50.0419 29.6004 50.0745 29.5828C50.1393 29.531 50.157 29.5636 50.1741 29.5797Z" fill="#5DA65B"/>
<path d="M50.4126 28.2293L50.4297 28.2454C50.7432 28.6833 50.9393 29.0918 51.0209 29.5535C51.1979 30.3937 51.2534 32.5972 50.7579 33.7068C49.9686 35.4887 47.6359 35.8095 46.2468 36.0183C46.2136 36.0193 46.1638 36.0208 46.1296 35.9887C46.0953 35.9566 46.0942 35.9235 46.0604 35.9079L46.0543 35.2118C46.0279 33.3887 46.0369 33.1563 47.5204 31.7674L47.795 31.5268C48.8122 30.6166 49.8615 29.6723 50.101 28.355C50.1159 28.3048 50.1475 28.2541 50.1968 28.236C50.2782 28.1837 50.3451 28.1982 50.4126 28.2293ZM46.4026 35.6984C48.0412 35.4986 49.8073 35.129 50.5549 33.597C50.9423 32.7394 51.1411 30.1799 50.3807 28.7775C50.1748 29.5963 49.5699 30.4108 48.6679 31.2843C48.3932 31.5249 48.1523 31.7811 47.9414 31.9368C46.4563 33.276 46.4563 33.276 46.4527 35.1994L46.4026 35.6984Z" fill="#5DA65B"/>
<path d="M55.0262 37.1895C55.1456 37.2853 55.2828 37.4137 55.3867 37.5431C55.421 37.5752 55.4221 37.6084 55.3905 37.6591C55.3584 37.6932 55.3252 37.6943 55.2743 37.6627C55.2572 37.6466 55.2572 37.6466 55.2063 37.615C55.1211 37.5513 55.0343 37.438 54.9657 37.3738C54.8634 37.294 54.7606 37.1977 54.6593 37.1511C53.9962 36.6907 53.2072 36.4498 52.4098 36.4579C52.2101 36.4475 52.0114 36.4702 51.8781 36.4577C51.1974 36.4788 51.0978 36.4818 50.1723 36.1291C49.9366 36.0369 49.5836 35.9151 49.3191 35.9565C49.2361 35.959 49.2029 35.9601 49.1525 35.945C49.1354 35.929 49.1172 35.8798 49.0834 35.8643C49.0823 35.8312 49.0984 35.8141 49.1139 35.7804C49.13 35.7634 49.146 35.7463 49.1792 35.7453C49.6269 35.7148 49.997 35.8526 50.3511 36.0075C50.6039 36.1158 50.8899 36.223 51.1738 36.264C51.3575 36.2914 51.5893 36.2677 51.8384 36.26C52.5694 36.254 53.5986 36.2222 54.6368 36.9694C54.8376 37.0129 54.9233 37.0932 55.0262 37.1895Z" fill="#5DA65B"/>
<path d="M56.281 35.9238C56.8622 36.4198 57.3808 37.0339 57.8036 37.7669L57.8047 37.8C57.7887 37.8171 57.7555 37.8181 57.7394 37.8352C57.6901 37.8533 57.6088 37.9056 57.5766 37.9397L57.5606 37.9568L57.5263 37.9247C56.9974 36.996 56.4981 36.4642 55.9168 35.9682C55.7133 35.8418 55.6442 35.7611 55.5761 35.7134C55.5418 35.6813 55.5081 35.6658 55.4749 35.6668C55.4406 35.6347 55.3737 35.6202 55.2885 35.5565C53.1256 34.4627 52.5485 35.1106 52.0041 35.7409C51.7798 35.9965 51.5721 36.2516 51.2439 36.3779C51.3146 36.5083 51.418 36.6212 51.5552 36.7496C51.5895 36.7817 51.6404 36.8133 51.6746 36.8454C52.2864 37.2576 53.3741 37.4893 54.5449 37.7184C55.3981 37.891 56.3182 38.0781 57.0252 38.3547L57.0423 38.3708L57.0273 38.421C56.9636 38.5058 56.9155 38.5571 56.8523 38.6585L56.8363 38.6756C56.0286 38.3689 55.2761 38.2264 54.5231 38.0672C53.7202 37.9097 52.9003 37.736 52.0583 37.3973C51.8558 37.304 51.6871 37.2264 51.5339 37.115C51.4659 37.0674 51.4144 37.0192 51.3796 36.9706C51.0378 36.6827 50.8953 36.3886 50.9397 36.2214C50.9546 36.1712 50.9862 36.1205 51.0355 36.1024C51.3643 35.9928 51.5564 35.7713 51.8139 35.5146C51.9258 35.3785 52.0698 35.2083 52.2486 35.0867C52.928 34.5185 54.3734 34.507 55.8519 35.5059C55.9906 35.684 56.1438 35.7954 56.281 35.9238Z" fill="#5DA65B"/>
<path d="M45.0914 19.4899C45.1085 19.506 45.1096 19.5391 45.1113 19.5888C44.9149 20.1918 44.733 20.728 44.549 21.1979C44.1082 22.4551 43.7273 23.5114 43.4756 24.9617C43.2383 26.3452 43.1645 26.6294 42.8751 27.4342C42.8446 27.518 42.8296 27.5682 42.7803 27.5863C42.7471 27.5874 42.7311 27.6044 42.6802 27.5729L42.6625 27.5402C42.6282 27.5081 42.5934 27.4595 42.6078 27.3927C42.6078 27.3927 42.6998 27.1577 42.7464 27.0568C42.9759 26.4528 43.0871 25.7862 43.2469 25.0848C43.3458 24.5512 43.4763 23.9668 43.6405 23.398C43.8801 22.5948 44.1085 21.9576 44.5665 20.7165L45.0084 19.4925L45.0405 19.4583C45.0411 19.4749 45.0582 19.4909 45.0914 19.4899Z" fill="#5DA65B"/>
<path d="M45.9804 15.6655C46.0147 15.6976 46.0158 15.7307 46.034 15.7799C46.1641 17.2184 46.3305 18.2413 46.491 19.0819C46.8591 21.1928 46.9086 21.6887 45.3811 22.7473C44.7472 23.1815 44.2284 23.5788 43.7123 24.059C43.6647 24.1268 43.5645 24.1133 43.5302 24.0812C43.4959 24.0491 43.4451 24.0176 43.4279 24.0015C42.6244 23.3134 42.1591 22.2997 42.1765 21.3044C42.1651 20.9565 42.2201 20.6066 42.3111 20.3385C42.3405 20.2216 42.3715 20.1543 42.4181 20.0534L42.4485 19.9695C42.4646 19.9524 42.5112 19.8515 42.5417 19.7677C42.7124 19.3976 43.0137 18.9572 43.5132 18.4775C43.7386 18.255 43.9479 18.0496 44.1572 17.8441C44.6727 17.3474 45.1733 16.9008 45.5351 16.2762C45.6138 16.1411 45.6592 16.007 45.7058 15.9061C45.815 15.6872 45.8615 15.5863 45.9959 15.6319L45.9804 15.6655ZM43.6008 23.6977C44.2791 23.0964 44.7834 22.7658 45.2069 22.504C45.7108 22.1568 46.0197 21.9483 46.2723 21.5426C46.3654 21.3407 46.3954 21.2403 46.437 20.9903C46.4894 20.5576 46.4249 20.1119 46.2672 19.3541C46.1277 18.6455 45.9657 17.7551 45.7857 16.3182C45.3785 17.0769 44.7666 17.6761 44.2029 18.2241C43.6225 18.7726 43.1081 19.3025 42.8116 19.892C42.7811 19.9758 42.734 20.0602 42.7185 20.0938L42.7035 20.144C42.657 20.2449 42.6276 20.3619 42.5965 20.4292C42.5056 20.6973 42.4217 21.1807 42.5269 21.8573C42.7388 22.7461 43.1042 23.2488 43.6008 23.6977Z" fill="#5DA65B"/>
<path d="M55.1513 51.1797C55.1685 51.1957 55.1867 51.2449 55.1712 51.2786C55.1391 51.3127 55.1059 51.3137 55.0721 51.2982L54.2789 50.9248C54.0764 50.8315 53.8734 50.7217 53.6549 50.6456C52.3383 50.0231 51.207 49.4777 49.7708 49.7708C49.7376 49.7718 49.6878 49.7733 49.6707 49.7573C49.6364 49.7252 49.6016 49.6765 49.616 49.6097C49.631 49.5595 49.6626 49.5088 49.6958 49.5078C51.1464 49.1479 52.5653 49.8502 54.3393 50.7405C54.6275 50.914 54.8642 51.0393 55.1513 51.1797Z" fill="#5DA65B"/>
<path d="M56.2875 50.3487C56.8173 50.7966 57.2663 51.3133 57.7313 51.8129C57.9386 52.0552 58.162 52.2804 58.3522 52.5067C58.4546 52.5864 58.4412 52.6863 58.3936 52.7541C58.3459 52.8219 58.2469 52.8416 58.1456 52.795L58.1285 52.7789C58.0942 52.7468 58.0262 52.6992 57.9919 52.6671C57.9576 52.635 57.8896 52.5873 57.8553 52.5552C57.1578 52.0628 56.2094 52.0257 55.3948 52.0178C55.1951 52.0073 54.9793 52.014 54.8127 52.0026C54.0137 51.9609 53.4256 51.7636 52.9665 51.4461C52.8985 51.3985 52.8471 51.3503 52.7785 51.2861C52.4024 50.9661 52.1404 50.5763 51.8768 50.1368L51.7198 49.9095C51.6855 49.8774 51.6999 49.8106 51.732 49.7765C51.7642 49.7423 51.8129 49.7077 51.8638 49.7392C51.9628 49.7196 52.3077 49.5929 52.7029 49.4812L52.7361 49.4802C53.1478 49.368 53.4932 49.2578 53.5419 49.2231C53.6737 49.1859 54.1557 49.1876 54.6773 49.387C55.0474 49.5248 55.4358 49.7118 55.8606 49.9971C55.8948 50.0292 55.9629 50.0769 56.0132 50.0919C56.0652 50.1566 56.1675 50.2363 56.2875 50.3487ZM52.8346 50.9694C52.8689 51.0015 52.9369 51.0491 52.9712 51.0812C53.1748 51.2076 53.3783 51.3339 53.6809 51.4406C54.2176 51.5899 54.8501 51.6201 55.4322 51.6352C56.1139 51.6473 56.7962 51.676 57.3682 51.8905C56.8346 51.3266 56.3541 50.8606 55.91 50.493C55.7048 50.317 55.5339 50.173 55.347 50.0461C54.5815 49.5061 53.9104 49.3112 53.3835 49.4602C53.2186 49.4984 52.9225 49.5905 52.6424 49.6654C52.3463 49.7575 52.0336 49.8501 51.8852 49.8878C52.316 50.3553 52.5271 50.7136 52.8346 50.9694Z" fill="#5DA65B"/>
<path d="M54.2247 45.2061C54.2418 45.2222 54.2429 45.2553 54.26 45.2714C54.2611 45.3045 54.2451 45.3216 54.2124 45.3391C53.0317 45.8233 51.9711 46.4198 51.047 47.1282C51.0149 47.1623 50.9324 47.1815 50.8976 47.1328C50.8633 47.1007 50.8622 47.0676 50.844 47.0184C50.8429 46.9853 50.8745 46.9345 50.8905 46.9175C51.8965 46.1734 53.0563 45.5573 54.1406 45.1756L54.2247 45.2061Z" fill="#5DA65B"/>
<path d="M49.5391 48.2691L49.5402 48.3022L49.5253 48.3524C49.4455 48.4544 49.2694 48.6588 49.2694 48.6588C48.9814 48.9993 48.74 49.2389 48.5135 49.4282C48.4814 49.4624 48.3989 49.4815 48.3641 49.4329C48.3298 49.4008 48.3287 49.3676 48.3105 49.3185C48.3094 49.2853 48.341 49.2346 48.357 49.2175C48.7463 48.9236 48.7784 48.8895 48.9877 48.684C49.0675 48.5821 49.2291 48.4445 49.4385 48.239C49.4556 48.2551 49.5043 48.2204 49.5391 48.2691Z" fill="#5DA65B"/>
<path d="M56.96 42.9661C57.028 43.0138 57.0479 43.1126 57.0169 43.1799C55.5834 46.6067 54.5906 46.7368 53.1661 46.8803C52.7688 46.9258 52.3714 46.9712 51.9104 47.1015C51.4654 47.2147 51.2191 47.3052 51.0884 47.3756C50.9738 47.4289 50.9246 47.447 50.8903 47.4149C50.8732 47.3988 50.8223 47.3672 50.8212 47.3341L50.5763 46.9603C50.5581 46.9112 50.5565 46.8615 50.5886 46.8273C50.9857 46.2679 51.3834 45.725 51.7169 45.2504C52.257 44.4876 52.6691 43.878 52.9604 43.6369C53.719 42.9502 56.0774 42.9105 56.9102 42.9677C56.892 42.9185 56.9257 42.934 56.96 42.9661ZM50.9973 47.1297C51.8658 46.7547 52.5443 46.6674 53.1398 46.5827C54.4469 46.4096 55.2416 46.3188 56.6034 43.2424C55.6057 43.2235 53.748 43.3307 53.1334 43.8471C52.923 44.0194 52.764 44.2398 52.5895 44.4939L51.8728 45.4446C50.9821 46.6659 50.8858 46.7684 50.791 46.9205L50.8934 47.0003L50.9973 47.1297Z" fill="#5DA65B"/>
<path d="M59.6909 28.3903C59.7252 28.4224 59.7761 28.454 55.3802 33.7795C55.3004 33.8815 55.2164 33.8509 55.1992 33.8349C55.1649 33.8028 55.1312 33.7872 55.1301 33.7541C55.129 33.721 55.1451 33.7039 55.1434 33.6542C55.1916 33.603 59.5725 28.3276 59.6909 28.3903Z" fill="#5DA65B"/>
<path d="M62.1537 25.4457C62.188 25.4778 62.2228 25.5265 62.2084 25.5933L62.179 25.7103C61.5521 27.8851 60.338 31.9185 56.6461 32.3476C56.6129 32.3487 56.5797 32.3497 56.5289 32.3181C56.4946 32.286 56.4935 32.2529 56.4421 32.2047C56.0557 30.0446 56.6131 28.2864 57.9301 27.4001C58.4184 27.0866 59.0267 26.8854 59.6195 26.7178C60.4918 26.4588 61.4139 26.1981 61.9208 25.4364C61.9529 25.4022 61.9684 25.3686 62.0016 25.3675C62.0862 25.4147 62.1194 25.4136 62.1537 25.4457ZM56.7676 31.9957C60.024 31.464 61.2019 27.8462 61.7432 26.1051C61.1939 26.5863 60.4855 26.774 59.7942 26.9777C59.2014 27.1453 58.5749 27.2973 58.1037 27.6269C56.4783 28.7383 56.5803 30.8408 56.7676 31.9957Z" fill="#5DA65B"/>
<path d="M61.9178 34.4895C61.9349 34.5055 61.9531 34.5547 61.9376 34.5883C61.9055 34.6225 61.8723 34.6235 61.823 34.6416L61.6714 34.58C61.5531 34.5173 61.5359 34.5013 61.4186 34.4717C60.8289 34.2247 60.2269 34.1106 59.5586 33.9986C58.79 33.8731 58.0381 33.7472 57.195 33.3753L57.1779 33.3592C57.1098 33.3116 57.1071 33.2288 57.1393 33.1946C57.1714 33.1604 57.219 33.0927 57.287 33.1403C58.1628 33.4946 58.866 33.6553 59.5515 33.7833C60.3372 33.9248 61.0565 34.0684 61.9178 34.4895Z" fill="#5DA65B"/>
<path d="M63.4245 33.3154C63.732 33.5712 64.0251 33.8938 64.286 34.2505C64.4773 34.5099 64.6862 34.8019 64.8443 35.0623C65.0544 35.3874 65.2805 35.6954 65.5066 36.0035C65.5757 36.0843 65.5452 36.1681 65.4965 36.2028C65.4489 36.2706 65.3669 36.3063 65.2823 36.2591C63.8302 35.5579 62.7661 35.541 61.8519 35.5361C61.3201 35.5359 60.8714 35.5332 60.4681 35.3965C60.099 35.2918 59.6748 35.023 59.3518 34.8009C59.1306 34.6419 58.9259 34.4824 58.7716 34.338C58.7036 34.2903 58.6522 34.2422 58.6174 34.1935C58.4963 34.048 58.1839 33.6432 58.2444 33.4589C58.2593 33.4087 58.2909 33.358 58.3579 33.3725C58.6711 33.2965 59.016 33.1698 59.3769 33.026C60.5093 32.5931 61.8062 32.1053 63.1336 33.0591C63.2536 33.1715 63.3222 33.2357 63.4245 33.3154ZM59.1712 34.3588C59.2906 34.4546 59.4106 34.5669 59.5461 34.6457C59.92 34.8994 60.2923 35.1034 60.544 35.1786C60.9634 35.2983 61.395 35.2849 61.9263 35.2685C62.7563 35.2429 63.6694 35.2146 64.8987 35.7072C64.7776 35.5618 64.6725 35.3992 64.5354 35.2708C64.3441 35.0114 64.1684 34.7184 63.961 34.4761C63.6829 34.1033 63.4081 33.8299 63.1178 33.5902C63.0154 33.5105 62.9297 33.4302 62.8114 33.3675C61.672 32.5737 60.7194 32.9182 59.6196 33.3335C59.2747 33.4602 58.9138 33.604 58.5176 33.6826C58.6729 33.8602 58.8803 34.1025 59.1712 34.3588Z" fill="#5DA65B"/>
<path d="M42.2536 40.436C42.2708 40.452 42.289 40.5012 42.2735 40.5349C42.2574 40.5519 42.2259 40.6027 42.1744 40.5545C41.8215 40.4328 41.4851 40.3105 41.1653 40.1878C40.2896 39.8335 39.5317 39.5253 38.5014 39.5239C38.4682 39.525 38.451 39.5089 38.4173 39.4934C38.383 39.4613 38.3482 39.4126 38.3626 39.3458C38.3776 39.2956 38.4263 39.261 38.4761 39.2594C39.4909 39.2944 40.4336 39.6632 41.3265 40.0336C41.6296 40.1568 41.9162 40.2806 42.2354 40.3868L42.2536 40.436Z" fill="#5DA65B"/>
<path d="M43.3352 38.9601C43.4375 39.0398 43.5404 39.1361 43.6438 39.249L43.954 39.5876C44.2813 39.9422 44.2813 39.9422 44.6761 40.328L45.0206 40.6987L44.9901 40.7825C44.9425 40.8503 44.9425 40.8503 44.9104 40.8845L44.8306 40.9864L44.7963 40.9543C44.0372 40.099 43.4355 39.4875 42.9914 39.1199C42.8891 39.0402 42.8034 38.9599 42.7188 38.9128C42.0733 38.485 41.729 38.6283 40.9103 39.0018C40.5333 39.1627 40.075 39.3758 39.4673 39.5936C39.6917 39.8519 40.0009 40.1574 40.3083 40.4132C40.4626 40.5576 40.6158 40.669 40.7856 40.7798C40.8708 40.8435 40.9892 40.9061 41.091 40.9693C42.0573 41.553 42.5023 41.4397 43.095 41.2722C43.5068 41.16 43.9352 41.0473 44.6346 41.092L44.685 41.107L44.6545 41.1908C44.5908 41.2757 44.4944 41.3782 44.4473 41.4625C43.9825 41.4769 43.6682 41.5198 43.4202 41.5606L43.2553 41.5988C42.9913 41.6567 42.7942 41.7292 42.595 41.7353C42.0488 41.8019 41.4436 41.5885 40.7633 41.1121C40.6106 41.0173 40.4569 40.8894 40.3031 40.7615C39.7905 40.3297 39.4267 39.8767 39.1668 39.5531L39.1497 39.5371L39.1486 39.5039L39.2621 39.4175L39.261 39.3844L39.2771 39.3673C39.4913 39.311 39.9009 39.1325 40.3426 38.9199C40.9316 38.6364 41.5538 38.3519 41.8853 38.325C42.2666 38.2967 42.6527 38.4174 43.0609 38.7032C43.1809 38.8156 43.2666 38.8959 43.3352 38.9601Z" fill="#5DA65B"/>
<path d="M43.3809 44.4303C43.3515 44.5472 43.3204 44.6145 43.291 44.7315C39.5689 45.7584 28.4275 48.0758 26.816 48.0924C26.0358 48.1165 25.1447 48.3098 24.4341 48.4313C24.1037 48.4912 23.791 48.5838 23.5425 48.6081C23.4434 48.6277 23.3776 48.6463 23.2614 48.6499L23.1784 48.6525C23.1452 48.6535 23.0954 48.655 23.0782 48.639C23.0439 48.6069 23.0091 48.5582 23.0235 48.4914C23.0385 48.4412 23.0701 48.3905 23.1193 48.3724C25.6581 47.7468 26.2059 47.7299 26.7693 47.6793C27.0344 47.6546 27.2995 47.6298 27.7632 47.5823C28.1108 47.5384 37.7577 45.7647 43.2952 44.35L43.3782 44.3475L43.3809 44.4303Z" fill="#5DA65B"/>
<path d="M52.3931 41.5321C52.4103 41.5481 52.4274 41.5642 52.4285 41.5973C52.4639 41.6625 52.4173 41.7635 52.3509 41.7655L52.3017 41.7836C50.7922 42.3774 48.7259 43.2205 45.4664 44.1669L45.3984 44.1192C45.4621 44.0344 45.4942 44.0002 45.5601 43.9816C45.6254 43.9464 45.7229 43.8771 45.899 43.6727C48.9271 42.7667 50.2727 42.2442 52.2421 41.487C52.2758 41.5025 52.309 41.5015 52.3931 41.5321Z" fill="#5DA65B"/>
<path d="M50.5555 49.8792C50.5898 49.9113 50.6091 49.9936 50.593 50.0107C50.5609 50.0448 50.5293 50.0955 50.4452 50.065C48.8834 49.5661 47.7834 49.4674 46.632 49.3206C44.5138 49.0876 42.3282 48.8235 37.1305 46.3975C36.7765 46.2427 36.5563 46.1168 36.5563 46.1168C36.4883 46.0692 36.4856 45.9863 36.5177 45.9522C36.5498 45.918 36.5986 45.8834 36.6655 45.8979C36.6655 45.8979 36.884 45.974 37.2552 46.145C43.071 48.6679 44.9058 48.8765 46.6731 49.054C47.7399 49.1537 48.7414 49.2886 50.5212 49.8471L50.5555 49.8792Z" fill="#5DA65B"/>
<path d="M53.1488 23.4691C53.166 23.4851 53.166 23.4851 53.167 23.5182C53.2024 23.5835 53.1719 23.6673 53.1066 23.7025L51.6529 24.4769C47.8139 26.5023 45.0366 27.9643 42.4843 29.7013C39.3657 31.9033 36.6723 34.4073 34.0925 36.8249C31.6904 39.0878 29.3835 41.215 26.9619 42.8816C23.7613 45.1194 22.1263 46.4466 22.1102 46.4637C22.061 46.4818 21.9785 46.5009 21.9437 46.4522C21.9265 46.4362 21.9265 46.4362 21.9265 46.4362C21.8911 46.371 21.889 46.3047 21.9538 46.253C22.5673 45.7034 23.9759 44.5656 24.7382 43.9949C25.1607 43.7 26.5896 42.6775 27.8703 41.6929C29.9781 40.0858 31.9134 38.285 33.929 36.3989C36.4938 34.0315 39.1556 31.5782 42.2914 29.3922C44.8919 27.604 47.5064 26.2465 50.2687 24.8347C50.6933 24.6061 51.1018 24.3945 51.5104 24.1829C51.8862 23.9889 52.1968 23.8301 52.3927 23.7245C52.9153 23.4431 53.046 23.3727 53.1488 23.4691Z" fill="#5DA65B"/>
<path d="M47.7196 22.6087C47.6902 22.7257 47.6768 22.8256 47.6967 22.9245C47.0687 23.5408 46.4408 24.1571 45.8112 24.7237L45.7791 24.7579C44.4568 25.9925 43.0857 27.2618 41.9819 28.5727C40.8455 29.9011 39.8933 31.2735 39.5133 31.849C39.4346 31.9841 39.3382 32.0865 39.3222 32.1036C39.2745 32.1714 39.2076 32.1569 39.1572 32.1419C39.0892 32.0942 39.0881 32.0611 39.1026 31.9943C39.3359 31.5063 40.1762 30.2699 40.7821 29.4885C41.2441 28.8773 41.7558 28.2646 42.2371 27.7357C43.168 26.7287 44.3613 25.6141 45.5064 24.5507C46.2495 23.8977 46.9744 23.1955 47.6344 22.5451L47.764 22.4416L47.7196 22.6087Z" fill="#5DA65B"/>
<path d="M51.7899 17.4923C51.8242 17.5244 51.859 17.573 51.7948 17.6413L51.7172 17.8095C51.3875 18.4 51.0579 18.9905 50.422 19.8724C50.3058 19.876 50.2239 19.9117 50.1408 19.9142L50.0578 19.9168L50.0883 19.833C50.7901 18.9325 51.2289 18.1231 51.4794 17.6511L51.5581 17.516C51.5741 17.4989 51.5902 17.4818 51.6234 17.4808C51.7058 17.4617 51.739 17.4607 51.7899 17.4923Z" fill="#5DA65B"/>
<path d="M32.9364 23.8448C32.9707 23.8769 33.0071 23.9753 32.975 24.0094L32.5748 24.9835C29.3793 32.4606 26.2226 37.5654 24.5014 40.3213C23.9795 41.1332 23.6017 41.775 23.3673 42.2299C22.6292 43.546 22.2794 44.5351 22.0199 45.2395L21.9279 45.4744C21.8985 45.5914 21.8358 45.7094 21.7705 45.7446C21.7373 45.7456 21.7041 45.7466 21.6543 45.7482C21.364 45.5084 22.5652 42.6029 23.9723 40.4039L24.1313 40.1835C26.2807 36.8009 29.187 32.168 32.7715 23.8831C32.7875 23.866 32.8191 23.8153 32.8352 23.7982C32.8684 23.7972 32.9016 23.7961 32.9514 23.7946L32.9364 23.8448Z" fill="#5DA65B"/>
<path d="M39.6847 23.885C39.7138 24.2655 35.4051 29.207 35.3569 29.2582C35.192 29.2965 35.0929 29.3161 35.0104 29.3352L34.9114 29.3549L34.9579 29.2539C35.7272 28.3846 37.7303 26.1175 38.9277 24.6214L39.4866 23.9243C39.5187 23.8901 39.6012 23.871 39.6515 23.886L39.6847 23.885Z" fill="#5DA65B"/>
<path d="M31.8773 32.6155C31.8479 32.7325 31.8357 32.8655 31.84 32.998C30.651 34.2451 29.9251 34.9142 29.5868 35.2397L29.507 35.3416L29.4453 34.9788L29.509 34.8939C29.7665 34.6372 30.5888 33.8657 31.8436 32.6L31.9394 32.481L31.8773 32.6155Z" fill="#5DA65B"/>
<path d="M26.6246 37.6525C26.5792 37.7866 26.5337 37.9206 26.4882 38.0547C25.7939 38.673 25.2762 39.1035 25.0326 39.2769C25.0004 39.311 24.9335 39.2965 24.8992 39.2644C24.8649 39.2323 24.8312 39.2168 24.8301 39.1836C24.829 39.1505 24.8451 39.1334 24.8606 39.0998C25.0378 38.9285 25.1995 38.7909 25.4741 38.5503C25.7327 38.3267 26.0555 38.0349 26.5234 37.6059L26.6246 37.6525Z" fill="#5DA65B"/>
<path d="M39.8138 40.0306C39.8149 40.0637 39.9697 40.2247 40.0051 40.2899L40.0222 40.306L39.9901 40.3401C37.3917 41.6805 26.046 46.3918 22.6093 47.5094C22.5601 47.5275 22.5429 47.5114 22.476 47.4969C22.4417 47.4648 22.4069 47.4162 22.4213 47.3494C22.4363 47.2992 22.4678 47.2485 22.5171 47.2304L22.5664 47.2123C26.389 45.7014 36.4775 41.6756 39.764 40.0321L39.8133 40.014L39.8138 40.0306Z" fill="#5DA65B"/>
<path d="M63.8602 30.3672C63.8945 30.3993 63.9293 30.448 63.9309 30.4977C63.9159 30.5479 63.8844 30.5986 63.8512 30.5996C60.2027 32.3538 56.947 33.4161 53.7888 34.409C50.1048 35.584 46.6172 36.67 42.7167 38.8465C42.5983 38.7839 42.4639 38.7383 42.3294 38.6927L42.2791 38.6777L42.3267 38.6099C46.5378 36.2745 50.0912 35.1699 53.8588 34.0089C56.9351 33.0517 60.1271 32.0743 63.7263 30.3382C63.7429 30.3377 63.8098 30.3522 63.8602 30.3672Z" fill="#5DA65B"/>
<path d="M48.6812 30.173C48.6984 30.189 48.7155 30.2051 48.7166 30.2382C48.7177 30.2713 48.7016 30.2884 48.6861 30.322C45.8686 33.0952 44.348 35.3805 42.1909 38.5312L42.1749 38.5482L42.1577 38.5322C42.1395 38.483 42.1395 38.483 42.1224 38.467C42.1052 38.4509 42.056 38.469 41.9906 38.5042L41.8916 38.5238L41.9049 38.4239C44.2583 34.6703 46.6918 31.8428 48.1758 30.4705L48.5468 30.1274C48.5645 30.16 48.5971 30.1424 48.6812 30.173Z" fill="#5DA65B"/>
<path d="M34.861 37.9784C34.9461 38.0421 34.8617 38.509 34.851 38.6917C34.5591 39.9277 33.7888 40.7639 33.0179 41.5836C32.375 42.2501 31.732 42.9166 31.3479 43.8736C31.3318 43.8907 31.3002 43.9414 31.2842 43.9585C31.251 43.9595 31.2012 43.961 31.1669 43.9289C31.0989 43.8813 31.0978 43.8482 31.1122 43.7814C31.5146 42.8736 32.1725 42.1569 32.847 41.4397C33.7951 40.4487 34.711 39.4919 34.7303 38.0488L34.7453 37.9986C34.7614 37.9815 34.7774 37.9644 34.7946 37.9805L34.861 37.9784Z" fill="#5DA65B"/>
<path d="M36.3947 36.0905C36.429 36.1226 36.4638 36.1713 36.4654 36.221C36.5555 39.4846 35.8973 40.6987 33.5996 41.5822L33.469 41.6525C33.1081 41.7963 32.9282 41.8848 32.6165 42.0105C32.5673 42.0286 32.5175 42.0301 32.4832 41.998C32.466 41.982 32.4489 41.9659 32.4489 41.9659C32.4307 41.9167 32.3861 40.0445 32.3844 39.9948C32.4185 37.9875 33.5644 37.4547 34.7429 36.9043C35.2173 36.6741 35.7249 36.4428 36.1623 36.0977C36.2099 36.0299 36.3095 36.0268 36.3947 36.0905ZM32.6887 41.6766C32.9179 41.5701 33.147 41.4635 33.3602 41.374C34.9992 40.6767 36.0636 40.1962 36.0944 36.5641C35.7213 36.8409 35.2784 37.0204 34.8854 37.1983C33.7712 37.6804 32.7228 38.1439 32.6501 39.9866C32.6459 40.3681 32.6412 40.733 32.6703 41.1135L32.6714 41.1466C32.6613 41.3459 32.6833 41.511 32.6887 41.6766Z" fill="#5DA65B"/>
<path d="M39.2116 42.9507C39.2288 42.9668 39.2299 42.9999 39.2315 43.0496C39.2331 43.0993 39.1838 43.1174 39.1662 43.0848C38.4684 43.0898 37.7014 43.014 36.8692 42.9734C35.9197 42.9032 34.9541 42.8502 34.1395 42.8422C34.1063 42.8432 34.0892 42.8271 34.0555 42.8116C34.0212 42.7795 33.9863 42.7308 34.0008 42.6641C34.0158 42.6139 34.0645 42.5792 34.1143 42.5777C34.9626 42.6012 35.9292 42.6874 36.845 42.742C37.6612 42.7997 38.4281 42.8755 39.1275 42.9202L39.2116 42.9507Z" fill="#5DA65B"/>
<path d="M40.781 42.1561C41.6869 42.924 42.2865 43.9832 42.517 44.4238C42.5523 44.489 42.5395 44.6054 42.4753 44.6738C42.4116 44.7586 42.3125 44.7783 42.2113 44.7317C41.0849 44.3354 39.8135 44.0762 38.8002 44.0909C37.5374 44.0968 37.0955 43.7954 36.5861 43.4629C36.2808 43.2734 35.9915 43.0668 35.4709 42.9005L35.4538 42.8844C35.4195 42.8523 35.4184 42.8192 35.4339 42.7856C35.45 42.7685 35.4816 42.7178 35.5485 42.7323C35.6647 42.7287 35.9255 42.5714 36.1198 42.4162C36.2665 42.3288 36.4132 42.2413 36.4785 42.2061L36.8405 42.0955C38.3965 41.4008 38.8393 41.2213 39.5447 41.4482C39.8468 41.5383 40.1505 41.6782 40.4403 41.9013C40.5432 41.9977 40.6953 42.0759 40.781 42.1561ZM35.7847 42.8411C36.0879 42.9643 36.4087 43.1202 36.6632 43.2782C37.0703 43.5309 37.4752 43.7173 37.9261 43.7863C38.1098 43.8138 38.3256 43.8071 38.6079 43.7984C39.2885 43.7774 40.2851 43.7632 41.8774 44.1782C41.4546 43.4452 40.9692 42.8301 40.4223 42.3662C40.3028 42.2704 40.1828 42.158 40.0644 42.0953C39.9964 42.0477 39.9289 42.0166 39.8609 41.969C39.2181 41.6241 38.9011 41.5841 38.1284 41.8401C37.8981 41.9136 36.6826 42.3491 36.3068 42.5431L36.2259 42.6119C36.1113 42.6652 35.9491 42.7862 35.7847 42.8411Z" fill="#5DA65B"/>
<path d="M30.1024 45.9349C29.9922 46.1207 28.513 46.1166 28.347 46.1217C27.782 46.1226 27.1662 46.0919 26.6493 46.0416C26.6322 46.0255 26.599 46.0265 26.599 46.0265C26.5647 45.9944 26.5299 45.9458 26.5443 45.879C26.5593 45.8288 26.608 45.7941 26.675 45.8086C27.6759 45.9269 28.7085 45.9945 30.0012 45.8882L30.0515 45.9033L30.0687 45.9193L30.1024 45.9349Z" fill="#5DA65B"/>
<path d="M34.3689 45.289C34.4032 45.3211 34.438 45.3698 34.4407 45.4526C34.4258 45.5028 34.4113 45.5696 34.346 45.6048C32.9266 46.4113 29.724 47.5714 28.3479 46.6523L28.3307 46.6362C28.2965 46.6041 28.2456 46.5725 28.2113 46.5404C27.8695 46.2525 27.7419 45.9083 27.7564 45.8415L27.7724 45.8245L27.7885 45.8074C28.0272 45.485 30.1856 44.4069 31.435 44.5009C31.5512 44.4973 31.6856 44.5429 31.8029 44.5724L31.8533 44.5875C32.1382 44.6616 32.4242 44.7688 32.7268 44.8755C33.2485 45.0749 33.7359 45.2423 34.235 45.26C34.3014 45.258 34.3346 45.2569 34.3689 45.289ZM28.3022 46.2723C28.3365 46.3044 28.3703 46.32 28.4045 46.3521C29.5782 47.178 32.2882 46.1989 33.6953 45.5254C33.3119 45.4875 32.9573 45.3161 32.6209 45.1938C32.352 45.1026 32.0821 44.9783 31.7972 44.9042L31.7468 44.8892C31.4951 44.8141 30.876 44.684 29.4307 45.2095C28.8728 45.4257 28.4311 45.6383 28.0407 45.8991C28.0761 45.9643 28.1458 46.0616 28.2149 46.1424C28.2337 46.2081 28.2513 46.2408 28.3022 46.2723Z" fill="#5DA65B"/>
<path d="M57.3713 39.7865C57.3938 39.9682 56.3028 41.1626 56.2868 41.1796C55.9013 41.5895 55.4335 42.0184 55.0453 42.3455C55.0132 42.3796 54.9307 42.3987 54.8959 42.3501C54.8616 42.318 54.8268 42.2693 54.8423 42.2357C54.8412 42.2025 54.8573 42.1855 54.8728 42.1518C55.6485 41.4812 56.4082 40.8277 57.2556 39.8067C57.27 39.7399 57.3032 39.7389 57.3713 39.7865Z" fill="#5DA65B"/>
<path d="M60.0826 36.3037C60.1506 36.3514 60.1694 36.4171 60.1384 36.4844C59.8026 37.9041 59.1497 39.2839 58.2076 40.4571C57.8083 40.9502 57.1825 41.6328 56.2673 41.5948C56.0338 41.5688 55.8318 41.4921 55.781 41.4606C55.5758 41.2845 56.1895 39.7236 56.1718 39.6909C56.8936 37.8779 57.6458 37.5065 58.4485 37.1501C58.8913 36.9706 59.3159 36.7419 59.7666 36.2969C59.8978 36.2431 59.9969 36.2235 60.0826 36.3037ZM56.0235 41.2541C56.1247 41.3007 56.2083 41.3147 56.3245 41.3111C57.0898 41.3372 57.6347 40.7235 57.9853 40.265C58.7325 39.2305 59.2784 38.1359 59.6378 36.931C59.2979 37.2067 58.9541 37.3666 58.6259 37.4928C57.8553 37.8151 57.2166 38.1001 56.491 39.7971C56.2593 40.3349 56.1251 40.8033 56.0235 41.2541Z" fill="#5DA65B"/>
<path d="M28.5449 50.6421C28.5792 50.6742 28.5803 50.7074 28.5487 50.7581C28.5166 50.7922 28.4834 50.7933 28.4325 50.7617C28.125 50.5059 27.8352 50.2827 27.5133 50.0937C26.8678 49.666 26.2063 49.2553 25.2748 48.7203L24.6985 48.3734C24.6133 48.3097 24.6277 48.2429 24.6598 48.2088C24.692 48.1746 24.7733 48.1224 24.8248 48.1705C25.3502 48.4859 26.3846 49.1172 27.3027 49.752C27.7618 50.0694 28.1196 50.3402 28.4271 50.596L28.5449 50.6421Z" fill="#5DA65B"/>
<path d="M29.3579 49.075C29.3921 49.1071 29.4602 49.1547 29.4945 49.1868C30.4229 50.1364 30.7542 52.6464 30.7321 53.4927C30.7171 53.5429 30.7026 53.6097 30.6534 53.6278C30.6041 53.6459 30.5217 53.665 30.4868 53.6164L30.4525 53.5843C30.1755 53.2446 29.9157 52.921 29.5568 52.6171C29.4887 52.5695 29.4373 52.5213 29.3687 52.4571L29.3516 52.4411C29.1652 52.3307 29.012 52.2194 28.726 52.1122C28.6247 52.0656 28.5074 52.036 28.4228 51.9889C28.0527 51.8511 27.7667 51.7439 27.2225 51.3628L27.1201 51.283C27.0521 51.2354 27.0007 51.1872 26.9659 51.1386C26.7435 50.9465 26.6401 50.8336 26.4151 50.5587C25.9468 49.9597 25.4971 48.9124 25.6036 48.6107C25.6186 48.5605 25.6673 48.5258 25.7171 48.5243C26.9386 48.271 28.2308 48.1481 29.2341 48.8467C29.2379 48.9626 29.2893 49.0108 29.3579 49.075ZM30.4015 53.0387C30.3026 52.0469 29.9597 50.2005 29.2547 49.4761C29.2204 49.444 29.1523 49.3964 29.118 49.3643C29.05 49.3166 29.0157 49.2845 28.9638 49.2198C28.8786 49.1561 28.7774 49.1095 28.6584 49.0303C27.7629 48.5771 26.7374 48.7249 25.8447 48.8685C26.0147 49.4933 26.2002 50.0845 26.8881 50.7928C27.0075 50.8886 27.0943 51.002 27.1795 51.0657C27.2647 51.1293 27.3161 51.1775 27.3847 51.2417C27.4527 51.2893 27.5202 51.3204 27.6059 51.4007C28.0114 51.6037 28.3145 51.727 28.5829 51.8016C28.8689 51.9088 29.1378 52 29.4774 52.2216C29.5625 52.2853 29.6809 52.348 29.7838 52.4443C29.9889 52.6203 30.1781 52.8135 30.4015 53.0387Z" fill="#5DA65B"/>
<path d="M21.6444 37.823C21.7135 37.9037 21.7483 37.9524 21.8014 38.0502C22.049 38.5068 22.1188 39.1182 22.1522 39.6311L22.1549 39.714C22.3237 41.3171 22.3702 42.7416 22.3674 43.6702L22.3755 43.9186C22.3766 43.9517 22.3621 44.0185 22.3129 44.0366C22.2636 44.0547 22.2138 44.0563 22.1795 44.0242C22.1452 43.992 22.1442 43.9589 22.1259 43.9097L22.136 43.7105C22.0853 41.142 22.0145 39.4862 21.8579 38.7615C21.7559 38.1843 21.4977 37.9104 21.4977 37.9104C21.4634 37.8783 21.4778 37.8115 21.511 37.8105C21.5432 37.7763 21.5764 37.7753 21.6444 37.823Z" fill="#5DA65B"/>
<path d="M21.6408 34.1422C21.6751 34.1743 21.6761 34.2075 21.7115 34.2727C21.7341 34.4544 22.473 35.7082 22.5963 35.92L22.7892 36.2291C23.3304 37.0248 23.4724 37.3023 23.5839 37.6636C23.9127 39.0794 22.9472 40.5517 22.5195 41.195C22.4408 41.3301 22.3445 41.4325 22.3621 41.4651L22.3461 41.4822L22.3129 41.4832L22.1158 41.5557L22.1148 41.5225C21.9126 40.9319 21.5649 40.4618 21.2188 40.0414C20.5062 39.0851 19.8295 38.2107 20.6492 36.3449C20.7119 36.2269 20.7573 36.0929 20.8199 35.9749C21.0372 35.5039 21.3181 34.9481 21.3319 34.3507C21.3291 34.2679 21.3773 34.2167 21.4266 34.1986C21.4726 34.0811 21.5727 34.0946 21.6408 34.1422ZM22.2351 41.1375C22.2817 41.0365 22.3614 40.9346 22.4406 40.8161C22.5354 40.6639 22.6478 40.5444 22.7104 40.4264C22.8051 40.2742 23.0069 39.8369 23.0641 39.5533C23.1871 39.251 23.2432 38.9342 23.2833 38.6346C23.3318 38.0859 23.2845 37.6563 23.0568 37.2985C22.8811 37.0055 22.7241 36.7782 22.5665 36.5344C22.2884 36.1616 22.0264 35.7718 21.7595 35.2329C21.7242 35.1676 21.6717 35.0864 21.6025 35.0056L21.5334 34.9248C21.4474 35.342 21.2606 35.7291 21.106 36.0821C21.0433 36.2001 20.9979 36.3341 20.9353 36.4521C20.8432 36.6871 20.7496 36.8724 20.6908 37.1063C20.334 38.3941 20.8205 39.0423 21.3601 39.7883C21.7046 40.159 22.0169 40.5639 22.2351 41.1375Z" fill="#5DA65B"/>
<path d="M28.061 37.376C28.0781 37.392 28.0792 37.4252 28.0964 37.4412C27.8255 39.3232 27.4407 41.275 26.5549 42.6454C26.4762 42.7805 26.4446 42.8312 26.3333 42.9839L26.2546 43.1189C26.207 43.1867 26.124 43.1893 26.0897 43.1572C26.0554 43.1251 26.0217 43.1096 26.0543 43.092C26.0532 43.0588 26.0516 43.0092 26.0677 42.9921C27.2586 41.2972 27.5296 39.9292 27.9802 37.4448L28.0278 37.377C28.0107 37.361 28.0439 37.3599 28.061 37.376Z" fill="#5DA65B"/>
<path d="M29.5431 33.9146C29.5774 33.9467 29.6122 33.9954 29.6138 34.0451C29.6126 35.0234 29.7665 35.6653 29.884 36.2088C29.9425 36.4723 30.0175 36.7352 30.0268 37.0168C30.1937 38.0563 29.8642 39.1608 29.2101 39.9934C28.6684 40.7065 27.7239 41.2995 27.1708 41.6647L27.1216 41.6828C27.1055 41.6999 27.0386 41.6854 27.0043 41.6533L26.9871 41.6373C26.5602 41.2857 25.5413 39.0954 26.4389 37.5754C26.8167 36.9336 27.3002 36.471 27.7509 36.026C28.3628 35.4268 28.9265 34.8788 29.2288 33.9575C29.2437 33.9073 29.2914 33.8395 29.3246 33.8385C29.4247 33.852 29.4917 33.8665 29.5431 33.9146ZM27.0963 41.4183C27.9439 40.9113 28.5623 40.5108 29.0397 39.866C30.06 38.5412 29.8443 37.5365 29.5525 36.2356C29.4543 35.7744 29.339 35.2971 29.2714 34.7521C28.9283 35.4425 28.3962 35.9397 27.8801 36.4199C26.8319 37.3974 25.8501 38.3728 26.6692 40.5528C26.8123 40.8634 26.9543 41.1408 27.0963 41.4183Z" fill="#5DA65B"/>
<path d="M39.0263 28.6474C39.0435 28.6635 39.0617 28.7127 39.0301 28.7634C38.1465 30.2 37.7421 31.5556 37.6148 33.2507C37.6158 33.2838 37.5843 33.3346 37.5521 33.3687C37.5029 33.3868 37.4531 33.3884 37.4188 33.3563C37.3845 33.3242 37.3834 33.291 37.3652 33.2419C37.4792 31.6466 37.9789 30.1555 38.8957 28.7178L38.9278 28.6836C38.9921 28.6153 39.0092 28.6314 39.0263 28.6474Z" fill="#5DA65B"/>
<path d="M41.3928 23.766C41.4099 23.782 41.4271 23.7981 41.4619 23.8467C41.738 24.6672 41.7833 25.5446 41.6278 26.3784C41.5417 26.7956 41.439 27.2133 41.2362 27.6175C40.7851 28.56 40.2037 29.0753 39.5891 29.5917C38.9584 30.1252 38.2962 30.7094 37.8167 31.802C37.7846 31.8361 37.7691 31.8698 37.7359 31.8708C37.7027 31.8718 37.6695 31.8729 37.6186 31.8413C37.5843 31.8092 37.5832 31.776 37.565 31.7269C37.5769 30.5658 37.5338 29.7547 37.4811 29.1595C37.3831 27.6868 37.3578 27.4223 38.8173 26.316C39.661 25.6931 40.6981 24.8817 41.0961 23.8415C41.1111 23.7912 41.1598 23.7566 41.2257 23.738C41.2739 23.6867 41.3242 23.7018 41.3928 23.766ZM37.8454 31.1544C38.287 30.4278 38.8684 29.9125 39.4005 29.4152C40.4006 28.4889 41.3524 27.6139 41.3506 25.5248C41.3547 25.1433 41.3091 24.7634 41.2131 24.3684C40.7287 25.3119 39.8368 25.9861 39.0251 26.5749C37.6947 27.5611 37.7162 27.7097 37.7611 29.0845C37.8272 29.5799 37.8649 30.2253 37.8454 31.1544Z" fill="#5DA65B"/>
<path d="M38.9954 19.5788C39.0125 19.5949 39.0136 19.628 39.0153 19.6777L38.9858 19.7946C38.8949 20.0627 38.804 20.3308 38.6531 20.7998C38.4285 21.5528 38.1686 22.7547 37.9077 23.9234C37.4608 26.0097 37.2437 26.9947 37.0638 27.0832L37.0145 27.1013C36.9974 27.0852 36.9974 27.0852 36.9803 27.0692C36.946 27.0371 36.9111 26.9884 36.9256 26.9216C37.3438 25.4828 37.5903 24.3808 37.7908 23.3964C38.0656 22.1444 38.3126 21.059 38.8299 19.6005L38.862 19.5663C38.8781 19.5493 38.8953 19.5653 38.9451 19.5638L38.9954 19.5788Z" fill="#5DA65B"/>
<path d="M40.4432 16.0687C40.4775 16.1008 40.4785 16.134 40.4968 16.1831L40.7032 18.4317C40.7355 18.9116 40.7994 19.3407 40.7643 19.7894C40.7531 19.9556 40.743 20.1549 40.7146 20.305C40.4384 22.0213 38.8387 23.4138 37.8852 24.2391C37.8376 24.3069 37.7375 24.2934 37.7032 24.2613C37.6689 24.2292 37.6351 24.2137 37.6341 24.1805C37.5563 23.8347 37.3966 23.5246 37.2358 23.1814C37.0579 22.8221 36.8628 22.4468 36.7828 22.0348C36.5076 20.7334 37.2597 19.848 38.2993 18.6055C38.8913 17.9074 39.5631 17.1073 40.1947 16.093C40.2268 16.0588 40.2423 16.0252 40.3082 16.0066C40.3585 16.0216 40.3917 16.0206 40.4432 16.0687ZM37.906 23.8571C39.4093 22.5671 40.2273 21.6631 40.4977 20.2785C40.5768 19.646 40.5257 19.1004 40.3387 17.4481L40.2303 16.6722C39.6153 17.686 38.9911 18.4183 38.4794 19.031C37.2953 20.4272 36.6058 21.1946 37.5131 23.0236L37.5142 23.0568C37.638 23.2851 37.7966 23.562 37.906 23.8571Z" fill="#5DA65B"/>
<path d="M42.8468 51.9744C42.8811 52.0065 42.8822 52.0396 42.8506 52.0903C42.8185 52.1245 42.7853 52.1255 42.7344 52.0939C42.7344 52.0939 42.7344 52.0939 42.4778 51.8697C42.2383 51.6616 41.9491 51.4549 41.6437 51.2654C40.9463 50.773 40.2001 50.3152 39.4042 49.8589C38.5391 49.3219 37.6579 48.802 36.7398 48.1671C36.6214 48.1045 36.5014 47.9921 36.3991 47.9124C36.3311 47.8647 36.3284 47.7819 36.3605 47.7478C36.3926 47.7136 36.474 47.6613 36.5254 47.7095C36.729 47.8358 36.9165 47.9793 37.1045 48.1393C38.0569 48.8062 38.8374 49.2961 39.5664 49.7379C40.177 50.1169 40.7705 50.4799 41.3994 50.9082C41.8922 51.2411 42.3524 51.5917 42.8468 51.9744Z" fill="#5DA65B"/>
<path d="M41.5575 49.1457C42.0021 49.5299 42.419 50.0808 42.8605 50.8796L42.8788 50.9288C43.3043 51.7447 43.7796 52.559 44.7322 53.74C44.8002 53.7876 44.7869 53.8875 44.7548 53.9216C44.7071 53.9894 44.6413 54.0081 44.5749 54.0101L43.5032 53.7613C41.6602 53.3043 41.1745 53.1867 40.5986 52.8563C40.4803 52.7936 40.3619 52.7309 40.259 52.6346C40.1567 52.5549 40.0555 52.5083 39.9526 52.412C38.8244 51.452 38.1732 49.8306 37.792 48.8476C37.7738 48.7984 37.7882 48.7316 37.8204 48.6975C37.8525 48.6633 37.9012 48.6286 37.9682 48.6432C38.3184 48.6821 38.666 48.6382 39.0135 48.5943C39.7578 48.4884 40.5199 48.4151 41.3357 48.9702C41.3882 49.0515 41.4895 49.0981 41.5575 49.1457ZM40.0955 52.2086C40.1978 52.2883 40.3007 52.3846 40.4191 52.4473C40.5043 52.511 40.6226 52.5736 40.7244 52.6368C41.2825 52.9346 41.7174 53.0207 43.5593 53.4446L44.2287 53.5897C43.4331 52.636 43.0092 51.8698 42.6213 51.1854C42.3924 50.7946 42.1813 50.4363 41.9541 50.0952C41.7457 49.8197 41.555 49.5769 41.3332 49.4014C41.2652 49.3537 41.2137 49.3056 41.1452 49.2414C40.4477 48.7489 39.7194 48.8378 39.0736 48.9074C38.7753 48.9332 38.4942 48.9751 38.1948 48.9678C38.7255 50.4602 39.2239 51.4728 40.0955 52.2086Z" fill="#5DA65B"/>
<path d="M34.085 26.4457C34.1022 26.4617 34.1204 26.5109 34.0888 26.5616L34.0567 26.5958C33.9619 26.7479 33.8512 26.9171 33.6916 27.121C32.9899 28.0215 31.9357 28.8168 30.8364 29.2487L30.7872 29.2668C30.7218 29.3019 30.6072 29.3552 30.5392 29.3076C30.5221 29.2915 30.5049 29.2755 30.521 29.2584C30.5028 29.2092 30.5333 29.1254 30.5825 29.1073L30.7303 29.053C30.9113 28.9976 31.1244 28.9081 31.5169 28.7136C33.0375 27.9537 33.9394 26.5662 33.9704 26.4989L34.0025 26.4648C34.0507 26.4135 34.0679 26.4296 34.085 26.4457Z" fill="#5DA65B"/>
<path d="M36.9309 23.5224C36.9989 23.5701 37.0177 23.6358 36.9867 23.7031C36.7925 24.3723 36.6166 25.0907 36.3732 25.778C35.0769 29.3332 33.6331 29.3944 31.411 29.0319C31.3939 29.0159 31.3778 29.033 31.3607 29.0169C31.3264 28.9848 31.3253 28.9517 31.3071 28.9025C31.306 28.8694 31.3204 28.8026 31.3537 28.8016C31.5801 28.6122 31.7203 28.326 31.7266 28.0108C31.6985 27.1494 31.9751 26.4611 32.5736 25.9618C32.8798 25.6704 33.253 25.3936 33.6615 25.182C34.2318 24.8328 34.6248 24.6548 35.0515 24.4924C35.5431 24.2783 36.0191 24.0978 36.7826 23.5602C36.7793 23.4608 36.8629 23.4748 36.9309 23.5224ZM31.7189 28.7903C34.6045 29.1156 35.3035 28.1324 36.5482 24.0151C35.963 24.4145 35.5036 24.5945 35.0773 24.7735C34.5033 25.0068 33.9288 25.2235 33.0695 25.8801C32.6803 26.174 32.5507 26.2775 32.4228 26.4307C31.9747 26.9585 31.9567 27.4233 31.9536 27.8379C31.9318 28.1868 31.9255 28.502 31.7189 28.7903Z" fill="#5DA65B"/>
<path d="M28.547 25.8043C28.5641 25.8204 28.5813 25.8364 28.5652 25.8535C28.5488 26.368 28.5591 26.6827 28.8561 27.6352C28.9108 27.7828 28.9489 27.9308 29.0207 28.0944C29.3686 29.0785 29.8066 30.2754 29.3668 31.5656C29.3679 31.5988 29.3192 31.6334 29.3032 31.6505C29.2699 31.6515 29.2201 31.6531 29.1859 31.621C29.1516 31.5889 29.1167 31.5402 29.1312 31.4734C29.5415 30.3001 29.2268 29.315 28.8601 28.2652C28.7116 27.7889 28.5631 27.3127 28.4627 26.7852L28.4385 26.5538C28.3961 26.2733 28.3961 26.2733 28.419 25.9575L28.4153 25.8416C28.4142 25.8085 28.4302 25.7914 28.4629 25.7738C28.4966 25.7893 28.5298 25.7883 28.547 25.8043Z" fill="#5DA65B"/>
<path d="M28.7352 23.4275C28.8375 23.5072 29.0277 23.7335 29.0293 23.7832C30.5885 25.7247 30.4862 28.6958 29.3411 29.7591C29.3089 29.7933 29.2265 29.8124 29.1917 29.7637C28.2959 28.7966 26.9521 26.8319 27.2269 25.5798C27.329 25.1456 27.6009 24.8221 27.8889 24.4816C28.1448 24.1753 28.368 23.8865 28.4562 23.5356C28.4712 23.4854 28.5028 23.4347 28.5349 23.4005C28.5842 23.3824 28.634 23.3809 28.6666 23.3633L28.7009 23.3954C28.7181 23.4114 28.7352 23.4275 28.7352 23.4275ZM29.2489 29.4801C29.2965 29.4123 29.3607 29.344 29.4078 29.2597C30.0244 28.2955 30.2148 25.9849 28.6684 23.927C28.5614 24.2121 28.3532 24.4507 28.1455 24.7058C28.0336 24.8419 27.9057 24.9951 27.827 25.1302C27.3507 25.8081 27.4874 26.434 27.9361 27.4481C28.1858 27.971 28.4516 28.4767 28.7988 28.9303C28.9376 29.1084 29.1095 29.2854 29.2489 29.4801Z" fill="#5DA65B"/>
<path d="M31.7895 20.7797C31.8066 20.7957 31.8077 20.8289 31.8093 20.8786C31.5798 21.4826 31.6235 22.3102 31.6892 23.303C31.7609 24.4781 31.8368 25.7856 31.501 27.2053C31.5021 27.2384 31.4706 27.2891 31.4374 27.2902C31.4041 27.2912 31.3543 27.2927 31.304 27.2777C31.2697 27.2456 31.2349 27.1969 31.2665 27.1462C31.6012 25.6934 31.5423 24.4019 31.505 23.259C31.4564 22.2822 31.4299 21.4706 31.6583 20.8335L31.6904 20.7993C31.7225 20.7652 31.7225 20.7652 31.7895 20.7797Z" fill="#5DA65B"/>
<path d="M34.391 16.4878C34.4253 16.5199 34.4264 16.5531 34.4446 16.6023C34.9564 20.5658 33.2377 22.8904 31.9798 24.5708L31.7726 24.8425C31.725 24.9103 31.6259 24.9299 31.5247 24.8833C31.5075 24.8672 31.4904 24.8512 31.4904 24.8512C31.3146 24.5582 31.11 24.3987 30.9546 24.2211C30.5261 23.8198 30.1162 23.4843 30.1307 21.8921C30.1346 20.9966 30.3138 20.3776 30.5899 19.6727C31.2904 18.2251 32.3734 17.2963 34.2587 16.5085C34.2566 16.4423 34.3235 16.4568 34.391 16.4878ZM31.691 24.3807C32.821 22.8536 34.5215 20.4797 34.1367 16.8439C31.5479 17.9685 30.3365 19.5479 30.3781 21.8347C30.4086 23.2763 30.7332 23.5481 31.1441 23.9168C31.2984 24.0613 31.4687 24.1886 31.6429 24.432L31.691 24.3807Z" fill="#5DA65B"/>
<path d="M48.5158 18.5054L48.5169 18.5385C48.518 18.5716 47.8681 22.0736 47.8033 22.1254L47.791 22.2584C47.7616 22.3754 47.7494 22.5084 47.7028 22.6093C47.6867 22.6264 47.6562 22.7102 47.6252 22.7775C47.5947 22.8614 47.5321 22.9794 47.5321 22.9794L47.4989 22.9804L47.4828 22.9975L47.4496 22.9985C47.3424 22.7697 47.4345 22.5347 47.5104 22.3168C47.557 22.2159 47.588 22.1486 47.6014 22.0487C48.4007 18.5421 48.4323 18.4914 48.4655 18.4903L48.4987 18.4893L48.5158 18.5054Z" fill="#5DA65B"/>
<path d="M50.5591 13.8991C50.6271 13.9467 50.6641 14.0616 50.6004 14.1465C50.2669 14.6211 50.2848 15.1677 50.3386 15.7961C50.394 16.4742 50.4355 17.2356 50.068 18.1921C49.87 18.7453 49.5515 19.1697 49.3898 19.3073C49.0697 19.682 48.6275 19.878 48.3474 19.953C48.0663 19.9949 47.8494 19.9684 47.6458 19.842C47.6287 19.826 47.6115 19.8099 47.5778 19.7944C46.9114 19.2347 47.0902 17.5877 47.3208 17.0168C47.4117 16.7487 47.5519 16.4625 47.7746 16.1572C48.4731 15.1573 49.3506 14.5499 50.2929 13.8907C50.3914 13.8545 50.4745 13.852 50.5591 13.8991ZM47.771 19.606C47.7882 19.6221 47.7882 19.6221 47.8053 19.6382C47.9076 19.7179 48.0581 19.7464 48.2075 19.7418L48.3553 19.6875C48.3553 19.6875 48.5535 19.6482 48.9111 19.405C49.7522 18.6992 50.0586 17.3965 49.9795 16.5036C49.9746 16.3545 49.9532 16.2059 49.9483 16.0569L49.9472 16.0237C49.9127 15.4776 49.8644 15.0149 49.9997 14.5796C49.2212 15.1674 48.2972 15.8757 47.8278 16.769C47.6876 17.0552 47.5619 17.2746 47.5063 17.608C47.3636 18.3254 47.3784 19.2866 47.771 19.606Z" fill="#5DA65B"/>
<path d="M53.953 18.0887L53.9541 18.1218L53.9391 18.172C53.0618 19.2934 52.172 20.0339 51.0133 20.6832L50.9641 20.7013L50.9619 20.635C50.9769 20.5848 50.9753 20.5351 50.9902 20.4849C52.166 19.8517 53.0232 19.1288 53.8695 18.0747C53.8357 18.0591 53.9187 18.0566 53.953 18.0887Z" fill="#5DA65B"/>
<path d="M58.1985 15.2714C58.2665 15.319 58.3024 15.4008 58.2714 15.4681C58.258 15.568 58.2098 15.6192 58.1113 15.6554C56.9649 16.1717 56.163 17.0587 55.3755 17.8789C54.5565 18.7498 53.738 19.6373 52.5579 20.138C52.1311 20.3004 51.5721 20.4835 51.556 20.5006C51.5067 20.5187 51.4569 20.5202 51.4227 20.4881C51.4055 20.472 51.3546 20.4405 51.3535 20.4073C51.2929 20.0776 51.8162 18.8013 52.5313 17.8009C54.0478 15.8971 55.4208 15.7054 56.6278 15.5189C57.0739 15.4388 57.4873 15.3763 57.8654 15.2485L57.8986 15.2475C58.0469 15.2098 58.0972 15.2248 58.1985 15.2714ZM51.7615 20.1792C52.9402 20.1428 54.0805 18.9303 55.2352 17.6511C55.8609 16.9685 56.4867 16.286 57.1511 15.768L56.9701 15.8234C56.4893 15.8548 55.9923 15.9033 55.498 16.0346C53.6062 16.6237 52.3236 18.0561 51.7615 20.1792Z" fill="#5DA65B"/>
<path d="M57.8953 22.7752C57.9124 22.7913 57.9296 22.8073 57.9135 22.8244L57.8659 22.8922C56.023 23.9606 54.2414 24.3638 52.1094 24.2141C52.0762 24.2152 52.059 24.1991 52.059 24.1991C52.0247 24.167 51.9899 24.1183 52.0044 24.0516C52.0193 24.0014 52.0681 23.9667 52.135 23.9812C54.334 24.1454 55.9677 23.7965 57.7791 22.7788C57.8112 22.7447 57.861 22.7431 57.8953 22.7752Z" fill="#5DA65B"/>
<path d="M61.9512 22.3017C61.9855 22.3338 62.0204 22.3825 62.0231 22.4653C62.0081 22.5155 61.9776 22.5993 61.9112 22.6014C60.5667 23.1569 59.6195 23.667 58.8854 24.0876C56.9916 25.1244 56.3711 25.4586 53.423 24.2398L53.4059 24.2238C53.3716 24.1917 53.3368 24.143 53.3512 24.0762C53.3673 24.0592 53.3833 24.0421 53.3989 24.0085C53.7758 23.8476 53.9642 23.5101 54.1681 23.1391C54.5909 22.3467 55.1245 21.3851 57.7314 21.3212C58.8437 21.2868 59.9021 21.6355 60.9272 21.9851C61.2293 22.0753 61.549 22.1981 61.8511 22.2882C61.9009 22.2867 61.9009 22.2867 61.9512 22.3017ZM53.7175 24.0981C56.3586 25.0776 57.0932 24.6736 58.6748 23.746C59.3441 23.3771 60.1435 22.9213 61.3076 22.4376C61.1239 22.4102 60.9386 22.333 60.7538 22.2724C59.7458 21.9387 58.8208 21.6025 57.7246 21.6198C55.2831 21.6621 54.795 22.4896 54.3711 23.2489C54.1988 23.5692 54.0425 23.8725 53.7175 24.0981Z" fill="#5DA65B"/>
<path d="M49.7859 21.7657C49.8031 21.7817 49.8042 21.8148 49.8058 21.8645C49.1923 23.9395 48.1628 24.9827 47.8256 25.3413L47.7619 25.4262C47.4889 25.7165 47.2828 26.0213 47.1099 26.3251C46.951 26.5456 46.8257 26.7816 46.6823 26.9684C46.6346 27.0362 46.5516 27.0387 46.5173 27.0066C46.4831 26.9745 46.4493 26.959 46.4482 26.9259C46.4471 26.8927 46.4632 26.8757 46.4616 26.826C46.6377 26.6216 46.7801 26.4016 46.9219 26.1651C47.1274 25.8437 47.318 25.5725 47.6076 25.2817C47.6397 25.2476 47.6873 25.1798 47.7532 25.1612C48.1242 24.8181 48.6863 24.2204 49.3354 22.7247C49.49 22.3717 49.5809 22.1036 49.6414 21.9194L49.6719 21.8355L49.704 21.8014C49.7356 21.7506 49.7688 21.7496 49.7859 21.7657Z" fill="#5DA65B"/>
<path d="M51.4833 19.2924C51.5514 19.3401 51.5701 19.4058 51.5391 19.4731C51.4642 19.7241 51.3904 20.0083 51.3493 20.2748C50.7755 22.5475 50.0958 25.1385 47.897 25.4883C47.8638 25.4894 47.8306 25.4904 47.7797 25.4588C47.7454 25.4267 47.7106 25.378 47.7089 25.3283C47.7147 24.9966 47.6696 24.6332 47.625 24.2864C47.6008 24.055 47.544 23.8412 47.537 23.6259C47.3729 21.6578 48.7663 20.0562 51.3334 19.2805C51.3489 19.2469 51.4148 19.2282 51.4833 19.2924ZM47.9847 25.1209C49.7641 24.6514 50.3572 22.461 50.9348 20.3042C50.9936 20.0703 51.054 19.886 51.1129 19.6521C48.3338 20.5504 47.8047 22.1585 47.7504 23.0389C47.7302 23.4375 47.793 23.8335 47.873 24.2455C47.9148 24.5095 47.9583 24.8232 47.9847 25.1209Z" fill="#5DA65B"/>
<path d="M49.7398 27.4708C49.7569 27.4869 49.758 27.52 49.7751 27.536C49.7762 27.5692 49.7602 27.5862 49.7275 27.6038C48.3969 28.076 46.6398 28.2132 45.2366 27.9913C45.2195 27.9753 45.2034 27.9923 45.1863 27.9763C45.152 27.9442 45.1172 27.8955 45.1316 27.8287C45.1466 27.7785 45.1953 27.7439 45.2783 27.7413C46.7817 27.9767 48.3572 27.8783 49.6894 27.4558L49.7398 27.4708Z" fill="#5DA65B"/>
<path d="M55.2588 26.007C55.2759 26.0231 55.2941 26.0722 55.3134 26.1545C55.2985 26.2047 55.268 26.2886 55.1346 26.2761L55.1014 26.2772C54.8176 26.2362 54.4112 26.514 53.9395 26.8271C53.6959 27.0004 53.4186 27.1582 53.1733 27.2818C52.7642 27.4769 52.322 27.6729 51.8781 27.8193C50.1351 28.3871 48.4932 28.4876 46.8544 28.1734C46.8372 28.1574 46.804 28.1584 46.804 28.1584C46.7697 28.1263 46.7349 28.0777 46.7333 28.028C46.7322 27.9948 46.7466 27.9281 46.7787 27.8939C46.8424 27.809 46.9559 27.7226 47.0518 27.6036C47.6304 27.0054 48.8371 25.7909 50.6105 25.1392C52.2855 24.5237 53.1489 25.011 54.0279 25.4647C54.4007 25.6853 54.7558 25.8733 55.1741 25.9599C55.1918 25.9925 55.225 25.9915 55.2588 26.007ZM47.212 27.9303C48.7004 28.2159 50.1259 28.1055 51.7886 27.6231C52.8895 27.2409 53.4088 26.86 53.8318 26.5817C54.0754 26.4083 54.2703 26.2697 54.5487 26.145C54.3811 26.1004 54.1786 26.0072 53.9418 25.8819L53.7892 25.7871C53.2139 25.4733 52.9268 25.3329 52.3768 25.2836C51.8771 25.2493 51.3475 25.3154 50.7237 25.5502C49.0477 26.1326 47.9213 27.2617 47.3089 27.8444L47.212 27.9303Z" fill="#5DA65B"/>
<path d="M64.4742 28.8228C64.4753 28.856 64.4437 28.9067 64.3607 28.9092C62.3769 29.7332 60.8665 30.8079 59.3907 32.4287C59.343 32.4965 59.2761 32.4819 59.2257 32.4669C59.1915 32.4348 59.1577 32.4193 59.1566 32.3862C59.1555 32.353 59.1716 32.3359 59.2032 32.2852C61.5768 29.6585 64.3387 28.7441 64.441 28.8239L64.4742 28.8228Z" fill="#5DA65B"/>
<path d="M68.2089 25.126C68.2432 25.1581 68.2443 25.1913 68.2797 25.2565C68.2808 25.2896 68.2663 25.3564 68.2342 25.3905L68.2181 25.4076C67.8316 25.7843 67.5153 26.2749 67.1829 26.7826C66.28 28.137 65.2823 29.6435 62.7762 30.2515L62.5122 30.3094C61.9848 30.4418 61.4236 30.5586 61.0028 30.9032C60.9707 30.9373 60.8882 30.9565 60.8534 30.9078C60.8191 30.8757 60.7842 30.827 60.7987 30.7603C62.0008 27.3738 63.3058 25.6091 66.8525 25.3172C67.6986 25.2744 67.8785 25.186 67.9112 25.1684C68.0236 25.0489 68.1409 25.0784 68.2089 25.126ZM61.1884 30.4829C61.5472 30.2729 61.959 30.1607 62.4371 30.0464C63.6564 29.7269 65.1387 29.3163 66.6881 26.8974L66.7507 26.7794C67.0045 26.4068 67.2565 25.9845 67.5595 25.5938C67.4604 25.6134 67.3453 25.6501 67.212 25.6377C65.9026 25.7445 63.7477 25.9105 62.3572 28.109C61.8819 28.82 61.4645 29.778 61.1884 30.4829Z" fill="#5DA65B"/>
<path d="M50.7793 39.4431C50.7964 39.4591 50.8146 39.5083 50.7831 39.559C50.7509 39.5932 50.7177 39.5942 50.684 39.5786C48.9914 38.6361 48.2228 38.5106 47.5196 38.35L47.4864 38.351C47.3691 38.3215 47.2358 38.309 47.1013 38.2634L46.8335 38.2054C46.1309 38.0613 45.4609 37.8996 44.7963 37.9035C44.6297 37.8921 44.5312 37.9283 44.514 37.9123C44.4808 37.9133 44.4637 37.8972 44.43 37.8817C44.3957 37.8496 44.3619 37.834 44.3608 37.8009C44.3598 37.7678 44.3758 37.7507 44.3913 37.7171C44.4074 37.7 44.4235 37.6829 44.4567 37.6819C45.2358 37.6247 46.0397 37.8154 46.8265 37.99L47.1114 38.0641C47.2459 38.1097 47.3792 38.1222 47.4965 38.1517C48.2651 38.2772 49.0679 38.4348 50.7793 39.4431Z" fill="#5DA65B"/>
<path d="M51.4135 37.9975C51.5158 38.0773 51.6015 38.1575 51.6712 38.2548C51.8613 38.4811 51.953 38.7436 52.027 38.9734C52.2656 39.6624 52.5507 40.2505 53.0222 40.9489C53.0576 41.0141 53.0608 41.1135 52.995 41.1321C52.9629 41.1663 52.8643 41.2025 52.7968 41.1714C52.3217 40.8711 51.9837 40.6991 51.1964 40.5079C50.979 40.4649 50.761 40.4053 50.5109 40.3799C49.692 40.2393 48.789 40.0683 48.0745 39.5598C48.0402 39.5277 47.9893 39.4961 47.955 39.464C47.9207 39.4319 47.887 39.4163 47.8527 39.3842C47.6304 39.1921 47.4412 38.999 47.251 38.7728L47.13 38.6273C47.026 38.4979 46.8723 38.37 46.7014 38.226C46.6334 38.1784 46.5648 38.1142 46.4962 38.05L46.4791 38.0339C46.4448 38.0018 46.41 37.9531 46.4083 37.9035C46.4233 37.8533 46.4377 37.7865 46.487 37.7684C48.0338 36.7921 50.1021 37.0266 51.2244 37.8044C51.2951 37.9349 51.3792 37.9654 51.4135 37.9975ZM48.0829 39.3108C48.151 39.3584 48.2195 39.4227 48.2881 39.4869C48.5093 39.6458 48.7621 39.7541 49.031 39.8453C49.4183 39.9991 49.919 40.0665 50.4546 40.1826C51.0057 40.2651 51.5745 40.3802 52.1122 40.5625C52.2466 40.6081 52.3479 40.6547 52.4652 40.6842C52.1324 40.1639 51.9335 39.6727 51.7331 39.1317C51.643 38.9189 51.5685 38.6725 51.4137 38.5115C51.3445 38.4307 51.2754 38.35 51.1731 38.2702C51.1051 38.2226 51.0537 38.1744 50.9851 38.1102C50.3048 37.6338 49.0965 37.2732 47.6801 37.6652C47.1383 37.8643 47.0403 37.9171 46.862 38.0552C47.0511 38.2484 47.2574 38.4575 47.4138 38.6683C47.6361 38.8604 47.8435 39.1027 48.0829 39.3108Z" fill="#5DA65B"/>
<path d="M46.5972 44.6957C47.1955 45.2078 47.764 45.8203 48.402 46.5301L48.8853 47.0789C48.9196 47.111 48.9207 47.1441 48.8891 47.1949C48.857 47.229 48.8238 47.23 48.7729 47.1985L48.3947 46.8122C47.7051 46.0542 47.1378 45.4748 46.5737 44.9949C46.3857 44.8349 46.2148 44.6909 46.0107 44.548C45.7895 44.389 45.5859 44.2627 45.3829 44.1529L45.3658 44.1368L45.3807 44.0866C45.4129 44.0525 45.4444 44.0018 45.5264 43.9661C45.762 44.0583 45.9318 44.1691 46.0845 44.2638C46.2382 44.3917 46.4091 44.5357 46.5972 44.6957Z" fill="#5DA65B"/>
<path d="M50.1509 46.1444C51.2791 47.1044 51.9414 48.0456 52.5208 49.5034C52.5562 49.5686 52.5257 49.6525 52.4604 49.6877C52.395 49.7228 52.3126 49.742 52.2606 49.6773C52.1754 49.6136 52.124 49.5654 52.0394 49.5183C51.1041 48.8674 50.1973 48.5804 49.3907 48.3068C48.7357 48.0949 48.1481 47.9141 47.6548 47.5646C47.5867 47.517 47.5182 47.4528 47.4496 47.3885C47.125 47.1167 46.8978 46.7755 46.7182 46.3666C46.6282 46.1538 46.5376 45.9245 46.4807 45.7107C46.3542 45.3996 46.2642 45.1868 46.1913 44.9901C46.0096 44.5149 45.9377 44.3513 46.0014 44.2664C46.0491 44.1986 46.1824 44.2111 46.417 44.2701C46.5011 44.3007 46.5675 44.2986 46.6677 44.3121L46.9194 44.3873C47.2043 44.4614 47.2043 44.4614 47.456 44.5365L47.7078 44.6116C48.5492 44.9338 48.7865 45.0757 49.635 45.6132C49.792 45.8405 49.98 46.0005 50.1509 46.1444ZM47.5609 47.2359C47.629 47.2835 47.6804 47.3317 47.749 47.3959C48.208 47.7133 48.8127 47.9102 49.4838 48.105C50.2561 48.3464 51.1281 48.5848 52.0103 49.1378C51.4588 48.0274 50.8325 47.168 49.9266 46.4001C49.6871 46.1919 49.3979 45.9853 49.1086 45.7787L48.9902 45.716L48.7706 45.6068C48.5339 45.4814 48.5339 45.4814 48.2966 45.3395L48.077 45.2303L47.8413 45.1381C47.5885 45.0298 47.5885 45.0298 47.3368 44.9547L47.1011 44.8625L46.8665 44.8034C46.6148 44.7283 46.6148 44.7283 46.347 44.6702L46.3138 44.6713L46.5293 45.162C46.9501 46.3428 47.06 46.6545 47.337 46.9941C47.3547 47.0267 47.4415 47.1401 47.5609 47.2359Z" fill="#5DA65B"/>
<path d="M45.2215 49.3807C45.7684 49.8447 45.9983 50.2687 46.2304 50.7589C46.4073 51.0851 46.5852 51.4443 46.8975 51.8492C47.1756 52.222 47.4537 52.5947 47.6167 53.0042C47.6885 53.1678 47.7453 53.3816 47.7673 53.5467C47.7684 53.5798 47.7524 53.5969 47.7368 53.6306C47.7208 53.6476 47.6876 53.6487 47.6367 53.6171L47.6185 53.5679C47.4645 52.926 47.1682 52.5041 46.7508 51.9366C46.2654 51.3216 46.1229 51.0275 46.0146 50.7656C45.9245 50.5528 45.8527 50.3892 45.5929 50.0656C45.4707 49.887 45.2987 49.71 45.1112 49.5665C45.0089 49.4868 44.9061 49.3905 44.7877 49.3278C44.5665 49.1688 44.3468 49.0596 44.177 48.9487C44.0919 48.8851 44.1063 48.8183 44.1213 48.7681C44.1534 48.7339 44.2348 48.6817 44.2862 48.7298C44.5058 48.8391 44.6762 48.9665 44.8626 49.0768C44.966 49.1897 45.102 49.2849 45.2215 49.3807Z" fill="#5DA65B"/>
<path d="M47.7903 50.6941C48.4224 51.2217 48.8077 51.8233 48.9975 52.547C49.1118 52.9912 49.1231 53.339 49.0178 53.6739C48.9883 53.7908 48.9418 53.8918 48.9108 53.959C48.8492 54.1102 48.7893 54.311 48.7166 54.6283C48.6589 54.8953 48.6498 55.1277 48.6055 55.2949C48.5649 55.578 48.5531 55.7276 48.4557 55.797C48.4236 55.8311 48.3904 55.8321 48.324 55.8342C48.2908 55.8352 48.2736 55.8192 48.2399 55.8036C48.2399 55.8036 48.2399 55.8036 48.2227 55.7876C48.2056 55.7715 48.2056 55.7715 48.1884 55.7555C47.875 55.3175 47.5139 54.9473 47.0157 54.4487C46.7923 54.2235 46.5871 54.0474 46.398 53.8543C44.8198 52.3445 44.8198 52.3445 44.9248 50.9816C44.9504 50.7487 44.9583 50.4832 44.9652 50.1845C44.9774 50.0515 44.972 49.8858 44.9671 49.7368C44.943 49.5054 44.9247 49.4562 44.9247 49.4562L45.0178 49.2544L45.0339 49.2373L45.3708 49.3761C45.9605 49.6232 46.6686 49.9329 47.3484 50.3927C47.5176 50.487 47.6703 50.5818 47.7903 50.6941ZM48.2498 55.0904C48.277 54.9071 48.3209 54.7234 48.3315 54.5407C48.4026 54.1737 48.4802 54.0055 48.5401 53.8047C48.5706 53.7208 48.6177 53.6365 48.631 53.5366C48.8568 52.8166 48.4441 51.8843 47.9597 51.3024C47.8215 51.1408 47.6672 50.9964 47.4958 50.8359C47.3763 50.7401 47.2563 50.6277 47.0871 50.5335C46.4416 50.1057 45.6826 49.7644 45.177 49.5479C45.1952 49.5971 45.1969 49.6468 45.2317 49.6954C45.2683 50.3078 45.2155 50.7239 45.1942 51.0894C45.1377 51.9036 45.1276 52.1028 45.9526 52.9395C46.176 53.1648 46.4155 53.3729 46.6389 53.5981C47.1869 54.0952 47.735 54.5923 48.2193 55.1742L48.2498 55.0904Z" fill="#5DA65B"/>
<path d="M44.5543 31.0135C44.5714 31.0296 44.5725 31.0627 44.5896 31.0788C44.5907 31.1119 44.5747 31.129 44.542 31.1465L44.082 31.31C42.4248 31.9581 41.5707 32.2663 40.6337 32.5772C39.5327 32.9594 38.8243 33.1471 38.2808 33.2965C37.6548 33.4651 37.3587 33.5571 37.083 33.7646C36.9695 33.851 36.9213 33.9023 36.8576 33.9871C36.81 34.0549 36.743 34.0404 36.6927 34.0254C36.6584 33.9933 36.6246 33.9777 36.6235 33.9446C36.6225 33.9115 36.6385 33.8944 36.6701 33.8437C37.0057 33.4354 37.138 33.4147 38.1088 33.1194C39.0802 32.8407 40.8413 32.322 44.4862 30.9659L44.5543 31.0135Z" fill="#5DA65B"/>
<path d="M47.9662 30.1619C48.0005 30.194 48.053 30.2753 48.0381 30.3255C48.0231 30.3757 47.9754 30.4435 47.9262 30.4616C47.236 30.6984 46.6658 31.0477 46.0629 31.4145C45.0365 32.0431 43.9946 32.7054 42.0089 32.9657C41.3631 33.0354 40.6653 33.0404 39.8331 32.9998C39.7999 33.0008 39.7827 32.9847 39.749 32.9692C39.7147 32.9371 39.7136 32.904 39.6954 32.8548C39.7114 32.8377 39.7103 32.8046 40.0449 32.3631L40.061 32.3461C40.8906 31.2924 43.1053 28.8861 45.8003 29.4827C46.1024 29.5728 46.405 29.6795 46.691 29.7868C47.0954 29.9567 47.4655 30.0945 47.865 30.1153C47.8982 30.1142 47.932 30.1298 47.9662 30.1619ZM40.0579 32.7607C43.1678 32.8304 44.4699 31.9943 45.7559 31.1753C46.2282 30.8788 46.7164 30.5653 47.2899 30.3154C47.0725 30.2724 46.8534 30.1797 46.6349 30.1035C45.8604 29.7959 45.0184 29.4571 43.6706 29.9133C42.0915 30.4097 40.8721 31.7407 40.2982 32.488L40.0579 32.7607Z" fill="#5DA65B"/>
<path d="M53.8814 30.6423C53.8986 30.6584 53.9168 30.7076 53.8852 30.7583C53.4902 31.384 53.4112 32.0165 53.3322 32.649C53.2403 33.398 53.1319 34.1474 52.5216 34.7964C52.474 34.8641 52.407 34.8496 52.3722 34.801C52.3379 34.7689 52.3042 34.7533 52.3031 34.7202C52.302 34.6871 52.3181 34.67 52.3496 34.6193C52.9605 33.9869 53.0556 33.3373 53.1485 32.6215C53.2275 31.989 53.3231 31.356 53.7497 30.6796L53.799 30.6615C53.8311 30.6273 53.8471 30.6102 53.8814 30.6423Z" fill="#5DA65B"/>
<path d="M56.1146 26.2624C56.1489 26.2945 56.1837 26.3432 56.1693 26.41C55.9912 27.0621 55.8442 27.647 55.696 28.1987C54.8815 31.2415 54.5991 32.2617 53.8015 33.2812C53.8015 33.2812 53.0677 34.2158 52.8127 34.0413C52.4152 33.5727 51.4982 30.4341 52.6084 28.8081C52.9712 28.2166 53.6084 27.8818 54.2279 27.5145C54.8152 27.1813 55.4192 26.8476 55.8993 26.2856C55.963 26.2008 56.0632 26.2143 56.1146 26.2624ZM53.0144 33.6039C54.1446 32.5908 54.5318 31.2192 55.3629 28.1758L55.4378 27.9248C55.526 27.5739 55.6309 27.2225 55.7346 26.8379C55.332 27.2317 54.9069 27.4438 54.4657 27.673C53.8767 27.9565 53.2888 28.2731 52.828 28.9174C52.1022 30.1004 52.3697 32.1813 53.0144 33.6039Z" fill="#5DA65B"/>
<path d="M19.4454 46.2973C20.5506 47.573 21.2075 49.874 20.8286 50.4826C20.8286 50.4826 20.7338 50.6348 20.6685 50.67L20.6342 50.6379L20.6332 50.6047C20.6492 50.5877 20.8585 50.3822 20.8445 49.9516C20.8082 48.8418 19.8211 47.1147 19.4872 46.5613C19.364 46.3496 19.364 46.3496 19.3956 46.2988L19.4288 46.2978L19.4454 46.2973Z" fill="#5DA65B"/>
<path d="M19.7725 45.6239C19.7896 45.6399 19.8067 45.656 19.8919 45.7197L19.9262 45.7518C20.9575 46.7977 21.6703 48.2679 21.7634 49.5915C21.7634 49.5915 21.7957 50.0713 21.747 50.106L21.6629 50.0754C21.496 49.036 21.2192 47.6849 20.4181 46.5656C20.1572 46.2089 19.863 45.8532 19.7425 45.7243C19.6734 45.6435 19.6734 45.6435 19.6889 45.6099L19.7221 45.6089L19.7725 45.6239Z" fill="#5DA65B"/>
<path d="M20.9352 45.6045C21.023 45.751 21.0932 45.8649 21.3172 46.1067L21.4366 46.2025C21.9515 46.7006 22.0045 46.7985 22.5953 48.6041C22.5953 48.6041 22.7643 49.1958 22.7332 49.263L22.7 49.2641L22.6668 49.2651C22.6497 49.249 22.6233 48.9514 22.4968 48.6403C21.9881 47.313 21.9881 47.313 22.0042 47.2959C21.7743 46.8719 21.531 46.5478 21.3076 46.3226C21.1003 46.0803 20.9283 45.9032 20.8698 45.6397L20.8688 45.6066L20.9009 45.5724L20.9352 45.6045Z" fill="#5DA65B"/>
<path d="M40.1646 38.5606C40.1818 38.5767 40.2 38.6259 40.2182 38.675C40.2364 38.7242 40.1877 38.7589 40.1545 38.7599C38.1274 39.7842 35.9277 40.6149 34.0242 41.3535L33.5974 41.5159L33.562 41.4507C33.774 41.3281 34.0193 41.2044 34.2789 41.014C34.3121 41.013 34.3443 40.9788 34.3598 40.9452L34.409 40.9271C34.409 40.9271 34.5236 40.8738 34.6222 40.8376C37.9361 39.5248 39.4091 38.8327 40.0634 38.514C40.08 38.5135 40.1303 38.5285 40.1646 38.5606Z" fill="#5DA65B"/>
<path d="M32.8412 41.7714C27.9016 43.6815 26.108 44.7318 24.657 45.5891C23.9069 46.0268 23.2215 46.4127 22.2893 46.8726C22.2561 46.8736 22.2229 46.8747 22.156 46.8602C22.1217 46.8281 22.1206 46.7949 22.1024 46.7458C22.1013 46.7126 22.1329 46.6619 22.1489 46.6448C23.1903 45.966 27.2664 43.5685 32.4042 41.6191L32.4374 41.6181C32.4385 41.6512 32.4556 41.6672 32.4556 41.6672C32.4727 41.6833 32.5557 41.6807 32.5889 41.6797L32.6222 41.6787L32.6902 41.7263C32.6902 41.7263 32.7073 41.7424 32.7234 41.7253L32.8412 41.7714Z" fill="#5DA65B"/>
<path d="M41.2433 47.1492C41.2605 47.1652 41.2776 47.1813 41.2787 47.2144C41.2969 47.2636 41.2493 47.3314 41.2 47.3495C37.6872 48.171 35.3886 48.0099 32.7398 47.8098C30.6914 47.6742 28.3762 47.5136 25.026 47.7166C23.7016 47.8736 22.7934 48.0508 22.7934 48.0508C22.7602 48.0519 22.7431 48.0358 22.7093 48.0203C22.6751 47.9882 22.6413 47.9726 22.674 47.955C22.6558 47.9059 22.7034 47.8381 22.7527 47.82C22.7527 47.82 23.0327 47.745 23.528 47.6468C26.2853 47.0973 28.8832 47.2658 31.6151 47.4632C34.5793 47.6535 37.6609 47.8733 41.1255 47.1031C41.1592 47.1186 41.1924 47.1176 41.2433 47.1492Z" fill="#5DA65B"/>
<path d="M26.3833 39.9315C26.4032 40.0304 26.422 40.0961 26.4418 40.195C25.5259 41.1518 24.4697 42.3948 23.6577 43.4811C23.4029 43.8206 22.8933 44.4995 21.9904 45.8539L21.9428 45.9217C21.8951 45.9895 21.8121 45.992 21.7778 45.9599C21.7098 45.9123 21.7087 45.8792 21.7231 45.8124C22.0678 45.1717 23.9968 42.1607 26.2843 39.9512L26.3319 39.8834L26.3833 39.9315Z" fill="#5DA65B"/>
<path d="M32.3296 35.271C32.3478 35.3202 32.4003 35.4015 32.4186 35.4507C31.645 36.1875 30.8494 36.7593 29.9071 37.4184L29.875 37.4526L29.8568 37.4034C29.8541 37.3206 29.8519 37.2543 29.7999 37.1896L29.9787 37.068C30.7743 36.4963 31.5367 35.9256 32.2471 35.2901L32.2793 35.256L32.3296 35.271Z" fill="#5DA65B"/>
<path d="M60.6599 40.2487C60.6771 40.2647 60.6953 40.3139 60.6798 40.3475C60.6809 40.3806 60.6493 40.4314 60.6161 40.4324C58.4578 41.5105 56.484 42.1352 54.4502 42.4468C53.988 42.544 53.0439 42.6394 52.5464 42.6714C51.4679 42.7213 50.3374 42.7065 49.9866 42.651L49.9362 42.636C49.9019 42.6039 49.9008 42.5707 49.8826 42.5216C49.8976 42.4714 49.9292 42.4206 49.9961 42.4352C50.0791 42.4326 50.1782 42.413 50.3946 42.4228C51.1588 42.4158 52.7381 42.4333 54.4072 42.1496C56.3918 41.8562 58.7757 41.0696 60.1009 40.4317L60.51 40.2367C60.5759 40.2181 60.6257 40.2165 60.6599 40.2487Z" fill="#5DA65B"/>
</svg>
