<svg width="136" height="150" viewBox="0 0 136 150" fill="none" xmlns="http://www.w3.org/2000/svg">
<g clip-path="url(#clip0_8_248)">
<mask id="mask0_8_248" style="mask-type:luminance" maskUnits="userSpaceOnUse" x="-32" y="-19" width="167" height="169">
<path d="M52.2402 -18.8053L-32 53.0144L50.4597 149.735L134.7 77.9149L52.2402 -18.8053Z" fill="white"/>
</mask>
<g mask="url(#mask0_8_248)">
<path d="M41.4938 135.827C41.5811 135.622 41.5275 135.404 41.5387 135.264C42.3133 133.552 42.947 131.829 43.6568 130.041C45.6967 133.821 50.3416 136.957 54.4709 134.094C58.0787 131.544 58.7534 126.632 57.4407 122.626C59.2173 123.477 61.2334 123.992 63.4129 124.236C64.2587 124.304 64.6617 123.697 64.7065 123.133C64.7939 122.927 64.8163 122.646 64.7626 122.428C62.4129 112.736 54.5354 105.654 44.5598 104.435C43.9218 95.5172 46.137 86.4011 48.0902 77.9026C50.2517 68.5695 53.6595 59.6192 59.9805 52.3905C64.2141 63.3675 66.6887 75.0558 67.156 87.01C64.1057 87.9022 62.136 90.37 61.1843 93.4153C60.013 97.4363 61.8023 101.693 63.5066 105.233C63.07 106.263 64.3788 107.644 65.4441 106.735C66.5207 105.686 67.3915 104.549 68.1973 103.337C70.1437 105.62 73.2763 106.366 76.1544 104.963C78.8154 103.614 79.7022 100.493 78.7003 97.9304C79.8817 98.2373 81.0856 98.2622 82.3656 98.2222C83.1466 98.2134 83.6256 97.5422 83.6705 96.9783C83.6817 96.8373 83.693 96.6963 83.7042 96.5553C83.2247 89.2109 76.6648 84.291 69.5999 85.7149C68.6468 64.7134 61.7254 44.7266 49.4708 27.5782C49.5469 27.5134 49.482 27.4373 49.5581 27.3724C58.1688 27.9158 66.1884 30.5402 73.3235 35.3642C73.4308 35.7983 73.603 36.3085 73.7103 36.7427C67.5703 45.2627 78.6867 57.9934 84.3224 63.833C84.6468 64.2135 85.2107 64.2583 85.6448 64.151C86.1975 64.3369 86.9248 64.111 87.1868 63.4935C87.7107 62.2584 88.0936 61.012 88.3356 59.7545C92.3229 61.3486 96.6219 59.9174 99.1693 56.4316C101.945 52.751 100.733 47.4764 98.0196 44.1393C99.2996 44.0993 100.58 44.0593 101.871 43.8783C103.444 43.7198 103.071 41.2783 101.498 41.4369C100.659 38.6037 99.1469 36.2134 97.384 34.2998C97.3304 34.0827 97.2767 33.8656 97.0821 33.6373C97.0821 33.6373 97.0821 33.6373 97.0172 33.5612C96.845 33.051 96.4445 32.7354 95.8045 32.7554C90.3387 28.348 82.3031 27.7085 75.6313 32.2139C75.1859 32.4622 75.1522 32.8851 75.1947 33.2432C75.0537 33.232 75.0537 33.232 74.9127 33.2207C67.0415 27.8417 57.9815 24.9217 48.2854 24.6465C48.1445 24.6353 48.0684 24.7002 48.0035 24.6241C41.3747 17.0031 33.723 10.6484 24.9947 5.343C23.6411 4.52592 22.204 6.53957 23.6225 7.43275C32.0152 12.4987 39.3962 18.6899 45.8415 25.9416C39.9308 29.7982 40.9981 40.4524 40.5805 46.5904C38.9424 46.6728 37.4654 47.4065 36.2254 48.7265C33.9849 51.0309 33.8454 54.5665 33.8917 57.5494C33.9341 57.9075 34.0527 58.2006 34.2473 58.4289C34.3322 59.145 35.1219 59.9172 36.0014 59.5616C36.3707 59.3782 36.8161 59.1299 37.1853 58.9465C38.5029 61.1084 41.3087 62.3958 43.7302 61.3826C46.0756 60.4343 47.2531 58.1163 47.0858 55.7621C47.5736 55.8719 48.0614 55.9816 48.5605 55.9504C49.1668 56.3534 50.1 56.2148 50.4493 55.3914C52.7083 50.1802 48.2093 45.2114 43.0981 46.1524C43.3112 43.4738 43.4483 40.8602 43.6615 38.1816C43.8659 34.7221 44.0727 30.3407 47.0069 28.2333C51.8703 34.8626 55.9078 42.0646 59.0659 49.6222C52.3868 56.8934 48.7843 65.6153 46.3297 75.067C43.7877 84.7246 41.373 95.4563 42.3442 105.535C39.1818 107.837 38.7779 112.912 38.2042 116.555C37.7627 119.428 37.6681 122.4 37.8665 125.253C38.0651 128.106 39.2167 131.461 38.9811 134.422C38.905 134.486 38.9699 134.563 38.8938 134.627C38.7953 134.974 38.7728 135.256 38.8914 135.549C38.7567 137.241 41.2294 137.367 41.4938 135.827ZM74.5576 40.3568C74.8371 41.3012 75.0405 42.3105 75.32 43.2549C75.5347 44.1232 76.6088 43.9959 76.8595 43.5193C77.3337 44.692 77.8078 45.8647 78.2059 47.1022C78.5502 48.1227 80.1034 47.3242 79.6829 46.3686C78.9717 44.6095 78.2717 42.7095 77.5605 40.9505C77.2698 40.1471 76.9791 39.3437 76.6122 38.6051C83.2459 44.3822 88.138 52.4325 85.0883 61.3403C80.8488 56.6759 72.5332 47.0764 74.5576 40.3568ZM98.0362 50.17C97.9064 50.0178 97.9176 49.8769 97.7879 49.7247C97.3674 48.769 95.7493 49.4916 96.3107 50.4584C96.7961 51.4901 97.2927 52.3808 97.778 53.4125C97.6907 53.6184 97.6795 53.7594 97.5922 53.9652C97.5922 53.9652 97.5161 54.0301 97.581 54.1062C95.4112 50.174 92.5678 46.6847 89.1156 43.7145C88.2498 43.0071 87.3566 44.4257 88.1576 45.0569C91.4151 47.7988 93.9878 51.1247 96.039 54.7637C95.2156 54.4145 94.5444 53.9354 93.8732 53.4564C93.0073 52.7491 92.1141 54.1676 92.9151 54.7989C93.781 55.5062 94.7341 56.0076 95.7634 56.4442C93.7961 57.9901 90.8556 58.3945 88.7546 57.1632C89.161 51.1662 86.6268 45.5735 82.6693 40.9315C86.5044 42.6554 90.6015 43.7618 94.9069 44.0334C94.9606 44.2505 95.0142 44.4676 95.2089 44.6959C96.7123 46.3051 97.7703 48.1627 98.0362 50.17ZM98.9264 41.6578C90.8772 42.0812 83.1395 39.4793 76.7318 34.4295C76.8727 34.4408 77.0249 34.311 77.1771 34.1812C85.2723 28.7251 95.827 32.4734 98.9264 41.6578ZM39.6512 49.3538C38.9888 49.6558 38.3151 50.0987 37.8473 50.6289C38.3912 50.0338 38.9239 49.5797 39.6512 49.3538ZM36.8756 53.0343C37.0254 53.8265 38.2068 54.1333 38.4263 53.1577C38.6458 52.1821 39.2771 51.3811 40.2327 50.9606C39.76 53.3348 38.3229 55.3484 36.3019 56.6772C36.3917 55.5494 36.5688 54.2158 36.8756 53.0343ZM44.5595 55.4192C45.0761 56.9499 44.2141 58.8675 42.6185 59.308C41.24 59.6948 39.8863 58.8777 39.2712 57.6938C40.7283 56.3202 41.861 54.566 42.441 52.626C43.0136 53.4519 43.7385 54.148 44.5395 54.7792C44.3873 54.9089 44.441 55.126 44.5595 55.4192ZM48.3932 53.5963C46.1488 53.2758 44.2112 51.7738 43.6098 49.527C44.4868 50.0933 45.3527 50.8007 46.0551 51.7787C46.6927 52.6807 47.9863 51.5777 47.3488 50.6758C46.841 49.926 46.1161 49.2299 45.38 48.6748C47.3961 49.1899 48.7898 51.287 48.3932 53.5963ZM67.5291 89.4515C68.6808 92.8061 68.6062 96.4178 67.4261 99.6577C67.1217 99.9172 66.9471 100.329 66.9134 100.752C66.4881 101.64 65.9978 102.452 65.4427 103.188C63.4052 98.4866 61.8516 91.2695 67.5291 89.4515ZM75.5452 97.4665C77.3954 99.1743 76.9764 101.766 74.7607 102.866C72.6861 103.978 70.5964 102.606 69.5383 100.748C70.3354 98.7543 70.7857 96.6622 70.813 94.5363C71.2535 96.132 71.77 97.6626 72.1456 99.1821C72.49 100.203 74.0744 99.9031 73.73 98.8826C73.6764 98.6656 73.6115 98.5894 73.5578 98.3724L73.6227 98.4485C74.1193 99.3392 75.6612 98.6817 75.0998 97.7148C74.7866 97.1934 74.5495 96.607 74.2364 96.0855C74.5071 96.249 74.713 96.3363 74.9837 96.4997C75.091 96.9338 75.2095 97.227 75.5452 97.4665ZM81.1466 95.7134C76.3535 95.3319 72.0979 92.6525 69.897 88.2212C75.3774 87.0968 80.0871 90.309 81.1466 95.7134ZM54.5026 122.108C55.9051 124.986 56.0051 128.186 54.2299 130.883C51.6265 135.073 46.6909 131.134 45.5168 128.061C45.3446 127.551 44.9977 127.452 44.6509 127.354C45.2197 125.555 45.7236 123.68 46.0865 121.793C46.1314 121.229 46.3173 120.677 46.3622 120.113C46.6529 120.916 47.9978 120.952 47.9353 119.954C47.9153 119.314 47.9602 118.75 47.8641 118.175C48.4119 120.205 48.8948 122.159 49.4426 124.188C49.7109 125.274 51.3714 124.909 51.027 123.889C50.4904 121.718 49.889 119.471 49.2114 117.289C49.5022 118.093 49.7929 118.896 50.0836 119.7C50.3519 120.785 52.0124 120.421 51.668 119.4C51.6144 119.183 51.4958 118.89 51.4422 118.673C52.3617 119.597 53.3685 120.316 54.3753 121.034C54.3529 121.316 54.3953 121.674 54.5026 122.108ZM61.9992 121.499C53.9012 119.862 49.9261 113.658 45.6267 107.073C53.4652 108.407 59.6983 113.868 61.9992 121.499ZM40.3104 123.958C40.1569 120.541 40.0379 112.232 42.8023 108.693C43.6271 112.589 44.3222 116.333 43.8558 120.41C43.468 123.5 42.4402 126.61 41.2714 129.709C40.8646 127.691 40.3816 125.737 40.3104 123.958Z" fill="#D5A864"/>
<path d="M64.4837 129.5C63.931 129.314 63.3334 129.692 63.0178 130.092C62.3105 130.958 62.7846 132.131 63.749 132.491C65.049 133.091 65.6066 131.433 65.4681 130.5C65.4905 130.218 65.2959 129.99 65.09 129.903C64.9603 129.75 64.6895 129.587 64.4837 129.5Z" fill="#D5A864"/>
<path d="M57.1324 140.761C57.2061 141.618 57.8661 142.238 58.7119 142.305C59.4168 142.361 59.8085 141.896 60.1353 141.354C60.4285 141.236 60.668 140.9 60.5607 140.466C60.4222 139.533 59.6212 138.902 58.7641 138.975C57.7012 138.962 56.929 139.751 57.1324 140.761Z" fill="#D5A864"/>
<path d="M50.8558 139.41C50.9856 139.562 51.1153 139.714 51.2451 139.866C51.9588 140.703 53.2524 139.601 52.5388 138.763C52.409 138.611 52.2792 138.459 52.1495 138.307C51.4358 137.47 50.1422 138.573 50.8558 139.41Z" fill="#D5A864"/>
<path d="M68.7177 107.492C68.5631 108.544 69.7109 109.274 70.6441 109.135C71.2192 109.039 71.3938 108.627 71.2865 108.193C71.3963 107.706 71.506 107.218 71.3987 106.784C71.2914 106.349 71.0207 106.186 70.6738 106.087C69.5572 105.857 68.785 106.647 68.7177 107.492Z" fill="#D5A864"/>
<path d="M76.8407 107.926C75.8202 108.27 75.4149 109.799 76.3456 110.582C76.6051 110.887 77.0929 110.996 77.3973 110.737C77.6793 110.759 78.1134 110.652 78.2232 110.164C78.4963 109.406 78.2705 108.678 77.8163 108.146C77.5568 107.841 77.1339 107.807 76.8407 107.926Z" fill="#D5A864"/>
<path d="M85.9954 107.874C84.8676 107.785 84.809 109.411 85.8607 109.566C86.0017 109.577 86.1427 109.588 86.2837 109.6C87.4115 109.689 87.47 108.063 86.4183 107.908C86.2773 107.897 86.1363 107.886 85.9954 107.874Z" fill="#D5A864"/>
<path d="M82.9135 100.252C81.7769 99.3812 80.4608 100.766 80.512 101.905C80.6281 103.12 81.993 103.796 83.0247 103.311L83.1008 103.246C83.1769 103.181 83.1769 103.181 83.253 103.116C84.1662 102.338 83.9203 100.97 83.0433 100.404C83.0433 100.404 82.9784 100.328 82.9135 100.252Z" fill="#D5A864"/>
<path d="M101.294 60.9276C101.379 61.6437 102.202 61.993 102.919 61.9081C103.353 61.8008 103.516 61.5301 103.615 61.1833C103.691 61.1184 103.691 61.1184 103.702 60.9774C103.834 60.2076 103.25 59.5228 102.534 59.6076C101.677 59.6813 101.209 60.2115 101.294 60.9276ZM102.771 60.194C102.63 60.1828 102.63 60.1828 102.489 60.1716C102.63 60.1828 102.771 60.194 102.771 60.194Z" fill="#D5A864"/>
<path d="M97.2186 64.0081C96.6435 64.1042 96.2406 64.7106 96.1308 65.1984C96.0747 65.9032 96.4528 66.5008 96.9069 67.0335C97.1664 67.3379 97.5894 67.3715 97.8825 67.253C98.0996 67.1993 98.1757 67.1345 98.2518 67.0696C98.4689 67.0159 98.6211 66.8862 98.7196 66.5394C99.0913 65.434 98.7918 63.8496 97.2186 64.0081Z" fill="#D5A864"/>
</g>
</g>
<defs>
<clipPath id="clip0_8_248">
<rect width="136" height="150" fill="white"/>
</clipPath>
</defs>
</svg>
