<svg width="32" height="32" viewBox="0 0 32 32" fill="none" xmlns="http://www.w3.org/2000/svg">
<path d="M31.0918 27.9081C31.5145 28.3308 31.7519 28.9041 31.7519 29.5019C31.7519 30.0996 31.5145 30.6729 31.0918 31.0956C30.6691 31.5183 30.0958 31.7558 29.498 31.7558C28.9003 31.7558 28.327 31.5183 27.9043 31.0956L15.9999 19.1875L4.09179 31.0919C3.6691 31.5146 3.09582 31.752 2.49804 31.752C1.90027 31.752 1.32698 31.5146 0.904294 31.0919C0.481605 30.6692 0.244141 30.0959 0.244141 29.4981C0.244141 28.9003 0.481605 28.3271 0.904294 27.9044L12.8124 16L0.908043 4.09187C0.485354 3.66918 0.247891 3.09589 0.247891 2.49812C0.247891 1.90035 0.485354 1.32706 0.908043 0.904368C1.33073 0.481679 1.90402 0.244215 2.50179 0.244215C3.09957 0.244215 3.67286 0.481679 4.09554 0.904368L15.9999 12.8125L27.908 0.902493C28.3307 0.479804 28.904 0.24234 29.5018 0.24234C30.0996 0.24234 30.6729 0.479804 31.0955 0.902493C31.5182 1.32518 31.7557 1.89847 31.7557 2.49624C31.7557 3.09401 31.5182 3.6673 31.0955 4.08999L19.1874 16L31.0918 27.9081Z" fill="#110300"/>
</svg>
