<svg width="42" height="37" viewBox="0 0 42 37" fill="none" xmlns="http://www.w3.org/2000/svg">
<path opacity="0.2" d="M40.5 12.125C40.5 24.5 21 35 21 35C21 35 1.5 24.5 1.5 12.125C1.5 9.43968 2.56674 6.86435 4.46554 4.96554C6.36435 3.06674 8.93968 2 11.625 2C15.8606 2 19.4888 4.30813 21 8C22.5112 4.30813 26.1394 2 30.375 2C33.0603 2 35.6357 3.06674 37.5345 4.96554C39.4333 6.86435 40.5 9.43968 40.5 12.125Z" fill="#5DA65B"/>
<path d="M30.375 0.5C26.5031 0.5 23.1131 2.165 21 4.97937C18.8869 2.165 15.4969 0.5 11.625 0.5C8.54292 0.503474 5.58808 1.72936 3.40872 3.90872C1.22936 6.08808 0.00347388 9.04292 0 12.125C0 25.25 19.4606 35.8737 20.2894 36.3125C20.5078 36.43 20.752 36.4915 21 36.4915C21.248 36.4915 21.4922 36.43 21.7106 36.3125C22.5394 35.8737 42 25.25 42 12.125C41.9965 9.04292 40.7706 6.08808 38.5913 3.90872C36.4119 1.72936 33.4571 0.503474 30.375 0.5ZM21 33.275C17.5763 31.28 3 22.1919 3 12.125C3.00298 9.83842 3.91264 7.64635 5.52949 6.02949C7.14635 4.41264 9.33842 3.50298 11.625 3.5C15.2719 3.5 18.3337 5.4425 19.6125 8.5625C19.7255 8.83762 19.9178 9.07293 20.1648 9.23853C20.4119 9.40413 20.7026 9.49255 21 9.49255C21.2974 9.49255 21.5881 9.40413 21.8352 9.23853C22.0822 9.07293 22.2745 8.83762 22.3875 8.5625C23.6662 5.43687 26.7281 3.5 30.375 3.5C32.6616 3.50298 34.8537 4.41264 36.4705 6.02949C38.0874 7.64635 38.997 9.83842 39 12.125C39 22.1769 24.42 31.2781 21 33.275Z" fill="#5DA65B"/>
</svg>
