<svg width="46" height="38" viewBox="0 0 46 38" fill="none" xmlns="http://www.w3.org/2000/svg">
<path opacity="0.2" d="M39.5 17.8796V36.5002H27.5V24.5002H18.5V36.5002H6.5V17.8796L21.9387 2.43895C22.0781 2.29949 22.2435 2.18885 22.4256 2.11336C22.6077 2.03788 22.8029 1.99902 23 1.99902C23.1971 1.99902 23.3923 2.03788 23.5744 2.11336C23.7565 2.18885 23.9219 2.29949 24.0613 2.43895L39.5 17.8796Z" fill="#5DA65B"/>
<path d="M44 35H41V21.5L41.4388 21.9387C41.7207 22.2202 42.1029 22.3781 42.5013 22.3778C42.8997 22.3774 43.2817 22.2188 43.5631 21.9369C43.8446 21.6549 44.0025 21.2727 44.0022 20.8743C44.0018 20.4759 43.8432 20.094 43.5612 19.8125L25.1206 1.3775C24.5581 0.815312 23.7953 0.499512 23 0.499512C22.2047 0.499512 21.4419 0.815312 20.8794 1.3775L2.43875 19.8125C2.15754 20.094 1.99965 20.4756 1.99983 20.8735C2 21.2713 2.15823 21.6528 2.43969 21.9341C2.72115 22.2153 3.10279 22.3732 3.50066 22.373C3.89853 22.3728 4.28004 22.2146 4.56125 21.9331L5 21.5V35H2C1.60218 35 1.22064 35.158 0.93934 35.4393C0.658035 35.7206 0.5 36.1022 0.5 36.5C0.5 36.8978 0.658035 37.2794 0.93934 37.5607C1.22064 37.842 1.60218 38 2 38H44C44.3978 38 44.7794 37.842 45.0607 37.5607C45.342 37.2794 45.5 36.8978 45.5 36.5C45.5 36.1022 45.342 35.7206 45.0607 35.4393C44.7794 35.158 44.3978 35 44 35ZM8 18.5L23 3.5L38 18.5V35H29V24.5C29 24.1022 28.842 23.7206 28.5607 23.4393C28.2794 23.158 27.8978 23 27.5 23H18.5C18.1022 23 17.7206 23.158 17.4393 23.4393C17.158 23.7206 17 24.1022 17 24.5V35H8V18.5ZM26 35H20V26H26V35Z" fill="#5DA65B"/>
</svg>
