<svg width="46" height="37" viewBox="0 0 46 37" fill="none" xmlns="http://www.w3.org/2000/svg">
<path opacity="0.2" d="M24.9762 21.0239C18.9912 11.0471 26.9712 1.07207 43.9306 2.06957C44.9375 19.0289 34.9531 27.0108 24.9762 21.0239ZM2.04872 9.54894C1.33622 21.6633 8.46309 27.3614 15.5881 23.0883C19.8631 15.9633 14.1631 8.83644 2.04872 9.54894Z" fill="#5DA65B"/>
<path d="M45.4306 1.97949C45.4092 1.61252 45.2537 1.2662 44.9938 1.00628C44.7339 0.746353 44.3876 0.59092 44.0206 0.56949C34.3156 0.00698951 26.5231 2.95824 23.1744 8.48574C20.9619 12.1382 20.9656 16.5782 23.1444 20.812C21.9057 22.2857 20.9995 24.0093 20.4875 25.8651L17.4369 22.8126C18.9031 19.7507 18.8469 16.5576 17.2494 13.9082C14.7669 9.82449 9.05374 7.62511 1.96061 8.05074C1.59365 8.07217 1.24733 8.2276 0.987401 8.48753C0.727475 8.74745 0.572043 9.09377 0.550612 9.46074C0.132487 16.5539 2.32436 22.267 6.40999 24.742C7.76052 25.5666 9.31263 26.002 10.895 26.0001C12.4285 25.9811 13.9382 25.6178 15.3125 24.937L20 29.6245V35.0001C20 35.3979 20.158 35.7795 20.4393 36.0608C20.7206 36.3421 21.1022 36.5001 21.5 36.5001C21.8978 36.5001 22.2793 36.3421 22.5606 36.0608C22.842 35.7795 23 35.3979 23 35.0001V29.4707C22.9932 27.0844 23.8052 24.768 25.3006 22.9082C27.2299 23.9166 29.3695 24.4561 31.5462 24.4832C33.6507 24.49 35.7161 23.9151 37.5144 22.822C43.0419 19.477 46.0006 11.6845 45.4306 1.97949ZM15.1362 20.5139L10.5594 15.9389C10.2758 15.6694 9.89814 15.5214 9.507 15.5265C9.11586 15.5315 8.74215 15.6891 8.46554 15.9657C8.18894 16.2423 8.03134 16.616 8.02633 17.0071C8.02132 17.3983 8.16931 17.7759 8.43874 18.0595L13.0156 22.6364C11.2137 23.2326 9.46624 23.0845 7.96436 22.1751C5.08811 20.4332 3.46061 16.3101 3.49999 11.0001C8.80811 10.9532 12.9331 12.5882 14.675 15.4645C15.5844 16.9664 15.7325 18.7139 15.1362 20.5139ZM35.96 20.2589C33.4475 21.7795 30.4944 21.8957 27.4944 20.6339L37.5612 10.5651C37.8427 10.2839 38.0009 9.9024 38.0011 9.50453C38.0013 9.10666 37.8434 8.72501 37.5622 8.44355C37.281 8.16209 36.8995 8.00387 36.5016 8.00369C36.1037 8.00352 35.7221 8.1614 35.4406 8.44261L25.3719 18.5001C24.1044 15.5001 24.2187 12.5451 25.7469 10.0345C28.3606 5.72199 34.5594 3.32199 42.4962 3.50386C42.6762 11.4389 40.2762 17.6451 35.96 20.2589Z" fill="#5DA65B"/>
</svg>
