<svg width="38" height="34" viewBox="0 0 38 34" fill="none" xmlns="http://www.w3.org/2000/svg">
<path opacity="0.2" d="M35.5 3.5V30.5C35.5 31.2956 35.1839 32.0587 34.6213 32.6213C34.0587 33.1839 33.2956 33.5 32.5 33.5H5.5C4.70435 33.5 3.94129 33.1839 3.37868 32.6213C2.81607 32.0587 2.5 31.2956 2.5 30.5V3.5C2.5 2.70435 2.81607 1.94129 3.37868 1.37868C3.94129 0.81607 4.70435 0.5 5.5 0.5H32.5C33.2956 0.5 34.0587 0.81607 34.6213 1.37868C35.1839 1.94129 35.5 2.70435 35.5 3.5Z" fill="#5DA65B"/>
<path d="M36.655 21.7363C36.9092 22.0412 37.0322 22.4344 36.997 22.8298C36.9619 23.2252 36.7715 23.5905 36.4675 23.8457C33.2125 26.542 30.3062 27.5001 27.655 27.5001C24.1712 27.5001 21.1262 25.8482 18.2931 24.3126C13.54 21.7345 9.4356 19.507 3.46748 24.4513C3.31705 24.5847 3.14136 24.6864 2.95084 24.7505C2.76031 24.8147 2.55885 24.8398 2.35841 24.8245C2.15797 24.8092 1.96265 24.7538 1.78406 24.6616C1.60546 24.5693 1.44723 24.4421 1.31876 24.2875C1.19029 24.1329 1.09421 23.954 1.03623 23.7615C0.978246 23.5691 0.959542 23.3669 0.981227 23.1671C1.00291 22.9672 1.06454 22.7738 1.16246 22.5982C1.26038 22.4226 1.39259 22.2686 1.55123 22.1451C9.0831 15.907 14.7362 18.9726 19.7256 21.6801C24.4787 24.2582 28.5831 26.4838 34.5512 21.5395C34.8569 21.2881 35.2496 21.1678 35.6437 21.2046C36.0377 21.2415 36.4012 21.4326 36.655 21.7363ZM3.46748 12.4626C9.4356 7.51822 13.54 9.74385 18.2931 12.322C21.1262 13.8595 24.1712 15.5095 27.655 15.5095C30.3062 15.5095 33.2125 14.5513 36.4675 11.8551C36.6261 11.7316 36.7583 11.5776 36.8562 11.402C36.9542 11.2264 37.0158 11.033 37.0375 10.8331C37.0592 10.6333 37.0405 10.4311 36.9825 10.2387C36.9245 10.0462 36.8284 9.86733 36.6999 9.71271C36.5715 9.5581 36.4132 9.43089 36.2346 9.33863C36.0561 9.24637 35.8607 9.19096 35.6603 9.17567C35.4599 9.16038 35.2584 9.18554 35.0679 9.24965C34.8773 9.31376 34.7017 9.4155 34.5512 9.54885C28.5831 14.4932 24.4787 12.2657 19.7256 9.6876C14.7362 6.98197 9.0831 3.91447 1.55123 10.1526C1.26955 10.4127 1.09817 10.7708 1.07229 11.1534C1.04642 11.5359 1.16801 11.9138 1.41209 12.2095C1.65617 12.5052 2.00422 12.6962 2.38473 12.7432C2.76524 12.7903 3.14933 12.6899 3.4581 12.4626H3.46748Z" fill="#5DA65B"/>
</svg>
